<svg width="363" height="195" viewBox="0 0 363 195" fill="none" xmlns="http://www.w3.org/2000/svg">
<path d="M2.48111 189.269H32.7949L141.488 0.831848V189.269H171.528L169.89 192H0.842529L2.48111 189.269ZM75.125 122.36H114.178V54.9051L75.125 122.36ZM36.6183 189.269H114.178V125.091H73.4864L36.6183 189.269Z" fill="#E4E5E0"/>
<path d="M210.266 194.731C182.683 194.731 170.12 181.622 170.12 162.505C170.12 113.075 236.21 47.2584 296.837 47.2584C311.858 47.2584 314.862 54.3589 314.862 67.4676C314.862 75.9336 313.223 83.5803 309.4 92.8657L334.252 49.9894H362.927L282.363 189.269H311.038L309.4 192H252.322L271.986 157.863C253.961 178.891 233.752 194.731 210.266 194.731ZM211.631 190.635C258.604 190.635 310.765 105.974 310.765 67.4676C310.765 56.8168 309.673 50.5356 296.018 50.5356C247.407 50.5356 197.157 135.469 197.157 174.249C197.157 185.173 199.342 190.635 211.631 190.635Z" fill="#E4E5E0"/>
</svg>
