<svg width="898" height="898" viewBox="0 0 898 898" fill="none" xmlns="http://www.w3.org/2000/svg">
<rect width="898" height="898" rx="449" fill="white"/>
<path d="M800 498C800 309.119 646.881 156 458 156H156V498H800V498Z" fill="#5552FF"/>
<path d="M312 498H563.007C629.277 498 683 551.723 683 617.993V797H312V498Z" fill="#5552FF"/>
<path d="M124.837 670.471H197.873L454.827 225.616H381.791L385.775 218.977H775.52L771.536 225.616H698.501L498.648 387.623V670.471H571.684L567.7 677.11H120.854L124.837 670.471ZM432.252 430.117L683.893 225.616H521.223L264.269 670.471H432.252V430.117Z" fill="#161616"/>
<path d="M625 68H267V156H625V68Z" fill="#5552FF"/>
</svg>
