<svg width="1202" height="600" viewBox="0 0 1202 600" fill="none" xmlns="http://www.w3.org/2000/svg">
<path d="M485 468H867C1019.98 468 1144 343.983 1144 191V181H596C534.696 181 485 230.696 485 292V468Z" fill="#5552FF"/>
<path d="M243 468C243 540.902 302.098 600 375 600H903C903 527.098 843.902 468 771 468H243Z" fill="#5552FF"/>
<path d="M661 181H1025C1090.72 181 1144 127.722 1144 62H661V181Z" fill="#5552FF"/>
<path d="M1.20187 297.402H18.9352L82.5194 187.168V297.402H100.093L99.1344 299H0.24331L1.20187 297.402ZM43.6979 258.261H66.5435V218.801L43.6979 258.261ZM21.1718 297.402H66.5435V259.859H42.7393L21.1718 297.402ZM75.3053 297.402H92.8788L154.706 190.364H137.132L138.091 188.766H248.484L247.526 190.364H229.793L167.966 297.402H185.539L184.581 299H74.3467L75.3053 297.402ZM142.883 241.327H182.823L212.219 190.364H172.279L142.883 241.327ZM110.452 297.402H150.392L181.865 242.924H141.925L110.452 297.402ZM191.852 297.402H209.586L273.17 187.168V297.402H290.743L289.785 299H190.894L191.852 297.402ZM234.348 258.261H257.194V218.801L234.348 258.261ZM211.822 297.402H257.194V259.859H233.39L211.822 297.402ZM282.909 298.361C299.524 298.361 307.991 286.699 365.984 190.364H330.038L330.996 188.766H435L434.041 190.364H416.308L354.481 297.402H372.055L371.096 299H318.375L319.334 297.402H336.907L398.734 190.364H368.38C309.589 288.296 300.962 300.598 283.228 300.598C271.087 300.598 267.572 293.888 267.572 288.456C267.572 279.35 273.643 275.515 280.992 275.515C284.027 275.515 287.382 275.995 290.418 277.752L278.915 297.882C280.193 298.361 281.471 298.361 282.909 298.361ZM378.446 297.402H396.02L457.847 190.364H440.273L441.232 188.766H551.625L550.667 190.364H532.934L471.107 297.402H488.68L487.722 299H377.488L378.446 297.402ZM475.42 190.364L422.7 281.746L509.768 200.109L515.36 190.364H475.42ZM413.593 297.402H453.533L506.254 206.02L419.185 287.657L413.593 297.402ZM554.736 299C567.996 299 583.333 291.491 583.812 268.166C583.972 260.498 581.575 242.924 556.813 242.924H535.565L536.523 241.327H547.387C548.026 190.364 573.428 187.168 586.528 187.168C605.06 187.168 618.16 193.719 618.16 208.416C618.16 227.108 599.788 240.368 568.475 242.924C591.8 246.439 602.184 255.386 602.184 268.326C602.184 288.775 579.498 300.598 554.576 300.598C542.913 300.598 522.305 298.361 512.879 287.178L506.169 299H503.772L529.014 255.226L527.736 260.658C520.387 291.811 539.079 299 554.736 299ZM584.291 189.086C573.108 189.086 549.464 192.281 549.464 241.327H564.161C577.581 241.327 600.587 235.096 600.587 208.416C600.587 196.914 595.954 189.086 584.291 189.086ZM1.20187 481.402H18.7754L80.6023 374.364H63.0288L63.9873 372.766H174.381L173.422 374.364H155.689L93.8623 481.402H111.436L110.477 483H0.24331L1.20187 481.402ZM98.1758 374.364L45.4552 465.746L132.524 384.109L138.116 374.364H98.1758ZM36.3489 481.402H76.2888L129.009 390.02L41.9405 471.657L36.3489 481.402ZM157.841 481.402H175.414L237.241 374.364H219.668L220.626 372.766H252.898C273.027 373.086 291.719 380.275 291.719 398.807C291.719 418.777 270.471 434.912 233.727 434.912H219.828L192.988 481.402H212.159L211.201 483H156.882L157.841 481.402ZM275.743 398.807C275.743 384.588 270.791 375.642 254.655 374.523L220.786 433.315H234.525C249.862 433.315 275.743 426.924 275.743 398.807ZM252.854 481.402H270.428L332.255 374.364H314.681L315.64 372.766H398.555L379.064 406.475V374.364H349.828L320.432 425.327H355.1L354.142 426.924H319.474L288.001 481.402H322.669L362.609 449.291L343.118 483H251.896L252.854 481.402ZM390.856 481.402H408.43L416.098 467.983C392.614 466.705 380.152 454.882 380.152 438.108C380.152 407.434 413.862 388.103 462.908 386.985L470.257 374.364H452.683L453.642 372.766H506.522L505.563 374.364H487.83L480.481 387.144C507.481 388.902 516.108 405.676 516.108 419.576C516.108 449.291 482.239 467.024 433.672 468.142L426.003 481.402H443.577L442.618 483H389.898L390.856 481.402ZM395.649 445.457C395.649 452.326 398.844 464.628 417.057 466.385L461.949 388.742C421.53 390.499 395.649 415.422 395.649 445.457ZM500.771 409.67C500.771 400.245 497.576 390.18 479.523 388.742L434.63 466.385C475.049 464.628 500.771 440.025 500.771 409.67ZM486.721 481.402H504.294L566.121 374.364H548.547L549.506 372.766H632.421L612.931 406.475V374.364H583.695L554.299 425.327H588.967L588.008 426.924H553.34L521.868 481.402H556.535L596.475 449.291L576.985 483H485.762L486.721 481.402ZM586.258 481.402H603.832L665.659 374.364H648.085L649.044 372.766H681.315C701.445 373.086 720.137 380.275 720.137 398.807C720.137 418.777 698.889 434.912 662.144 434.912H648.245L621.405 481.402H640.576L639.618 483H585.3L586.258 481.402ZM704.161 398.807C704.161 384.588 699.208 375.642 683.072 374.523L649.203 433.315H662.943C678.28 433.315 704.161 426.924 704.161 398.807ZM681.271 481.402H698.845L760.672 374.364H743.098L744.057 372.766H826.972L807.481 406.475V374.364H778.245L748.85 425.327H783.517L782.559 426.924H747.891L716.418 481.402H751.086L791.026 449.291L771.535 483H680.313L681.271 481.402ZM780.649 481.402H798.223L860.05 374.364H842.476L843.435 372.766H953.828L952.87 374.364H935.136L873.31 481.402H890.883L889.925 483H779.691L780.649 481.402ZM848.227 425.327H888.167L917.563 374.364H877.623L848.227 425.327ZM815.796 481.402H855.736L887.209 426.924H847.269L815.796 481.402ZM1001.68 424.528H1004.08C1004.08 477.568 970.046 484.598 952.952 484.598C930.107 484.598 923.397 475.012 923.397 460.953C923.397 422.611 970.685 371.168 1010.47 371.168C1022.45 371.168 1029.64 374.204 1034.11 378.677L1037.46 372.766H1039.86L1014.62 416.54L1015.9 411.108C1023.09 380.434 1018.93 372.766 1009.51 372.766C977.236 372.766 937.296 439.545 937.296 471.497C937.296 477.888 939.532 482.68 953.751 482.68C969.727 482.68 1001.68 474.693 1001.68 424.528ZM994.55 481.402H1012.12L1073.95 374.364H1056.38L1057.33 372.766H1201.28L1200.32 374.364H1182.59L1120.76 481.402H1138.33L1137.37 483H1084.65L1085.61 481.402H1103.19L1165.01 374.364H1091.52L1065.32 419.576C1091.36 422.451 1104.46 435.392 1104.46 449.131C1104.46 471.497 1081.62 482.68 1047.91 483H993.591L994.55 481.402ZM1086.09 448.971C1086.25 441.303 1082.9 425.167 1064.36 421.333L1029.7 481.402H1040.4C1066.92 481.402 1085.61 474.852 1086.09 448.971Z" fill="#161616"/>
<path d="M994.544 28.247C1007.21 28.247 1016.28 34.5796 1016.28 46.2051C1016.28 62.0838 999.742 76.0722 980.556 89.9661H1018.17V98H968.835V90.2497C993.032 72.3861 1007.21 59.5319 1007.21 47.3393C1007.21 40.1561 1002.58 35.4302 994.355 35.4302C986.983 35.4302 979.894 39.4944 979.61 50.8364H970.726C970.442 37.2261 979.894 28.247 994.544 28.247Z" fill="#161616"/>
</svg>
