<svg width="1411" height="573" viewBox="0 0 1411 573" fill="none" xmlns="http://www.w3.org/2000/svg">
<path d="M483.028 440.097H863.069C1015.27 440.097 1138.65 315.783 1138.65 162.434V152.41H593.459C532.47 152.41 483.028 202.225 483.028 263.676V440.097Z" fill="#5552FF"/>
<path d="M242.27 440.097C242.27 513.173 301.065 572.413 373.593 572.413H898.885C898.885 499.337 840.089 440.097 767.562 440.097H242.27Z" fill="#5552FF"/>
<path d="M658.126 152.41H1020.26C1085.64 152.41 1138.65 99.0046 1138.65 33.1255H658.126V152.41Z" fill="#5552FF"/>
<path d="M1.71145 212.504H19.1949L80.7047 105.209H63.2213L64.1749 103.608H144.916L125.526 137.397V105.209H98.1881L70.5325 153.251C99.6185 155.013 114.241 167.984 114.241 181.757C114.241 203.376 90.8768 214.105 56.5458 214.105H0.757812L1.71145 212.504ZM95.9629 181.597C96.1218 173.91 92.3073 156.614 69.7378 154.853L36.6783 212.504H50.5061C76.8901 212.504 95.4861 206.258 95.9629 181.597Z" fill="#161616"/>
<path d="M165.652 215.707C158.976 227.397 147.851 236.045 133.387 236.045C119.082 236.045 110.023 230.119 110.023 215.707C110.023 205.618 118.606 175.511 165.652 175.511V105.209H148.169L149.122 103.608H247.506L246.552 105.209H228.91L165.652 215.707ZM181.546 105.209V184.319L226.526 105.209H181.546ZM112.089 215.707C112.089 226.596 117.334 234.443 133.387 234.443C142.923 234.443 155.798 230.119 165.652 211.863V177.113C120.195 177.753 112.089 204.977 112.089 215.707Z" fill="#161616"/>
<path d="M191.229 212.504H208.712L270.222 105.209H252.739L253.692 103.608H346.99L346.036 105.209H328.553L280.712 144.284V212.504H298.195L297.242 214.105H190.275L191.229 212.504ZM264.818 154.533L325.056 105.209H286.116L224.606 212.504H264.818V154.533Z" fill="#161616"/>
<path d="M282.961 212.504H300.444L361.954 105.209H344.471L345.424 103.608H374.192C394.378 103.768 412.974 110.013 412.974 125.707C412.974 143.163 393.742 154.372 360.683 157.896C383.729 161.419 393.901 170.387 393.901 183.358C393.901 203.856 371.173 214.105 337.795 214.105H282.007L282.961 212.504ZM395.49 125.707C395.49 114.657 391.517 107.451 379.12 105.689L350.034 156.294H356.073C370.696 156.294 395.49 150.529 395.49 125.707ZM375.623 183.198C375.782 175.671 373.398 158.856 349.239 157.896L317.928 212.504H331.755C357.186 212.504 375.146 206.579 375.623 183.198Z" fill="#161616"/>
<path d="M380.591 212.504H398.074L459.584 105.209H442.101L443.054 103.608H586.259L585.306 105.209H567.663L506.154 212.504H523.637L522.683 214.105H470.233L471.187 212.504H488.67L550.18 105.209H477.068L451.001 150.529C476.909 153.412 489.942 166.383 489.942 180.155C489.942 202.575 467.213 213.785 433.677 214.105H379.637L380.591 212.504ZM471.664 179.995C471.823 172.308 468.485 156.134 450.048 152.291L415.558 212.504H426.207C452.591 212.504 471.187 205.938 471.664 179.995Z" fill="#161616"/>
<path d="M1.71145 396.944H19.1949L80.7047 289.649H63.2213L64.1749 288.048H92.943C113.128 288.208 131.724 294.453 131.724 310.147C131.724 327.603 112.493 338.813 79.4331 342.336C102.479 345.859 112.652 354.827 112.652 367.798C112.652 388.296 89.9232 398.545 56.5458 398.545H0.757812L1.71145 396.944ZM114.241 310.147C114.241 299.098 110.268 291.891 97.8702 290.13L68.7842 340.734H74.8239C89.4464 340.734 114.241 334.969 114.241 310.147ZM94.3735 367.638C94.5324 360.111 92.1483 343.297 67.9895 342.336L36.6783 396.944H50.5061C75.9365 396.944 93.8967 391.019 94.3735 367.638Z" fill="#161616"/>
<path d="M139.077 396.944H156.56L218.07 289.649H200.586L201.54 288.048H309.778L308.825 289.649H291.182L229.672 396.944H247.156L246.202 398.545H138.123L139.077 396.944ZM174.043 396.944H212.189L273.699 289.649H235.553L174.043 396.944Z" fill="#161616"/>
<path d="M253.47 396.944H270.953L332.463 289.649H314.98L315.933 288.048H348.039C368.066 288.368 386.662 295.574 386.662 314.151C386.662 334.169 365.523 350.343 328.967 350.343H315.139L288.437 396.944H307.51L306.556 398.545H252.516L253.47 396.944ZM370.768 314.151C370.768 299.898 365.841 290.93 349.788 289.809L316.092 348.741H329.761C345.019 348.741 370.768 342.336 370.768 314.151Z" fill="#161616"/>
<path d="M398.623 400.147C381.935 400.147 377.166 390.538 377.166 376.446C377.166 338.012 424.213 286.446 463.789 286.446C480.954 286.446 484.928 297.977 484.928 312.71C484.928 353.225 437.723 400.147 398.623 400.147ZM399.418 398.545C431.524 398.545 471.259 335.129 471.259 299.578C471.259 291.571 470.146 288.048 462.835 288.048C430.729 288.048 390.994 354.987 390.994 387.015C390.994 393.581 392.107 398.545 399.418 398.545Z" fill="#161616"/>
<path d="M559.662 339.934H562.046C562.046 393.101 528.192 400.147 511.185 400.147C488.457 400.147 481.781 390.538 481.781 376.446C481.781 338.012 528.827 286.446 568.404 286.446C580.324 286.446 587.476 289.489 591.927 293.973L595.264 288.048H597.648L572.536 331.927L573.807 326.482C580.96 295.735 576.827 288.048 567.45 288.048C535.344 288.048 495.609 354.987 495.609 387.015C495.609 393.421 497.834 398.225 511.98 398.225C527.874 398.225 559.662 390.218 559.662 339.934Z" fill="#161616"/>
<path d="M573.151 396.944H590.634L652.144 289.649H631.482L591.747 321.838L611.137 288.048H708.568L689.177 321.838V289.649H669.627L608.117 396.944H625.601L624.647 398.545H572.197L573.151 396.944Z" fill="#161616"/>
<path d="M652.372 396.944H669.856L731.365 289.649H713.882L714.836 288.048H746.942C766.968 288.368 785.564 295.574 785.564 314.151C785.564 334.169 764.425 350.343 727.869 350.343H714.041L687.339 396.944H706.412L705.458 398.545H651.419L652.372 396.944ZM769.67 314.151C769.67 299.898 764.743 290.93 748.69 289.809L714.995 348.741H728.664C743.922 348.741 769.67 342.336 769.67 314.151Z" fill="#161616"/>
<path d="M750.002 396.944H767.645L830.903 286.446V396.944H848.386L847.433 398.545H749.049L750.002 396.944ZM792.28 357.709H815.009V318.154L792.28 357.709ZM769.87 396.944H815.009V359.311H791.327L769.87 396.944Z" fill="#161616"/>
<path d="M823.726 396.944H841.209L902.719 289.649H885.236L886.189 288.048H996.017L995.063 289.649H977.421L915.911 396.944H933.394L932.441 398.545H822.772L823.726 396.944ZM890.957 340.734H930.693L959.937 289.649H920.202L890.957 340.734ZM858.693 396.944H898.428L929.739 342.336H890.004L858.693 396.944Z" fill="#161616"/>
<path d="M1043.62 339.934H1046.01C1046.01 393.101 1012.15 400.147 995.145 400.147C972.417 400.147 965.741 390.538 965.741 376.446C965.741 338.012 1012.79 286.446 1052.36 286.446C1064.28 286.446 1071.44 289.489 1075.89 293.973L1079.22 288.048H1081.61L1056.5 331.927L1057.77 326.482C1064.92 295.735 1060.79 288.048 1051.41 288.048C1019.3 288.048 979.569 354.987 979.569 387.015C979.569 393.421 981.794 398.225 995.94 398.225C1011.83 398.225 1043.62 390.218 1043.62 339.934Z" fill="#161616"/>
<path d="M1057.11 396.944H1074.59L1136.1 289.649H1115.44L1075.71 321.838L1095.1 288.048H1192.53L1173.14 321.838V289.649H1153.59L1092.08 396.944H1109.56L1108.61 398.545H1056.16L1057.11 396.944Z" fill="#161616"/>
<path d="M1136.33 396.944H1153.82L1215.33 289.649H1197.84L1198.8 288.048H1227.56C1247.75 288.208 1266.35 294.453 1266.35 310.147C1266.35 327.603 1247.11 338.813 1214.05 342.336C1237.1 345.859 1247.27 354.827 1247.27 367.798C1247.27 388.296 1224.54 398.545 1191.17 398.545H1135.38L1136.33 396.944ZM1248.86 310.147C1248.86 299.098 1244.89 291.891 1232.49 290.13L1203.41 340.734H1209.44C1224.07 340.734 1248.86 334.969 1248.86 310.147ZM1228.99 367.638C1229.15 360.111 1226.77 343.297 1202.61 342.336L1171.3 396.944H1185.13C1210.56 396.944 1228.52 391.019 1228.99 367.638Z" fill="#161616"/>
<path d="M1233.96 396.944H1251.45L1312.96 289.649H1295.47L1296.43 288.048H1378.92L1359.53 321.838V289.649H1330.44L1301.19 340.734H1335.68L1334.73 342.336H1300.24L1268.93 396.944H1303.42L1343.15 364.756L1323.76 398.545H1233.01L1233.96 396.944Z" fill="#161616"/>
<path d="M896.511 69.2116H887.954V15.4927H872.157V9.6187C881.842 9.33448 887.014 7.91334 890.681 0.523438H896.511V69.2116Z" fill="#161616"/>
</svg>
