<svg width="1446" height="483" viewBox="0 0 1446 483" fill="none" xmlns="http://www.w3.org/2000/svg">
<path d="M85.3066 372.023H265.482C380.256 372.023 473.298 278.981 473.298 164.207H196.454C135.069 164.207 85.3066 213.97 85.3066 275.355V372.023Z" fill="#5552FF"/>
<path d="M182.561 482.588H677.019V372.026H219.61C199.148 372.026 182.561 388.613 182.561 409.075V482.588Z" fill="#5552FF"/>
<path d="M428.252 164.209H866.681C898.756 164.209 924.758 138.207 924.758 106.132V53.6467H538.814C477.752 53.6467 428.252 103.147 428.252 164.209Z" fill="#5552FF"/>
<path d="M1.08379 325.056H18.8936L82.7523 214.346V325.056H100.402L99.439 326.66H0.121094L1.08379 325.056ZM43.7632 285.746H66.7074V246.115L43.7632 285.746ZM21.1399 325.056H66.7074V287.35H42.8005L21.1399 325.056Z" fill="#161616"/>
<path d="M75.6675 325.056H93.3169L155.411 217.555H137.761L138.724 215.95H247.99L247.027 217.555H229.217L167.123 325.056H184.773L183.81 326.66H74.7048L75.6675 325.056ZM110.966 325.056H149.474L211.568 217.555H173.06L110.966 325.056Z" fill="#161616"/>
<path d="M191.147 325.056H208.796L270.89 217.555H253.241L254.203 215.95H337.476L317.902 249.805V217.555H288.539L259.017 268.738H293.834L292.872 270.342H258.054L226.446 325.056H261.263L301.375 292.805L281.801 326.66H190.184L191.147 325.056Z" fill="#161616"/>
<path d="M291.114 325.056H308.764L370.857 217.555H353.208L354.171 215.95H386.581C406.798 216.271 425.57 223.491 425.57 242.103C425.57 262.16 404.231 278.365 367.327 278.365H353.368L326.413 325.056H345.667L344.704 326.66H290.151L291.114 325.056ZM409.525 242.103C409.525 227.823 404.552 218.838 388.346 217.715L354.331 276.76H368.13C383.533 276.76 409.525 270.342 409.525 242.103Z" fill="#161616"/>
<path d="M413.739 325.056H431.388L493.482 217.555H472.623L432.511 249.805L452.086 215.95H550.441L530.866 249.805V217.555H511.131L449.037 325.056H466.687L465.724 326.66H412.776L413.739 325.056Z" fill="#161616"/>
<path d="M556.892 328.265C550.153 339.977 538.921 348.642 524.32 348.642C509.88 348.642 500.734 342.705 500.734 328.265C500.734 318.156 509.399 287.992 556.892 287.992V217.555H539.242L540.205 215.95H639.523L638.56 217.555H620.75L556.892 328.265ZM572.937 217.555V296.817L618.344 217.555H572.937ZM502.82 328.265C502.82 339.175 508.115 347.037 524.32 347.037C533.947 347.037 546.944 342.705 556.892 324.414V289.596C511.003 290.238 502.82 317.514 502.82 328.265Z" fill="#161616"/>
<path d="M582.711 325.056H600.361L662.455 217.555H644.805L645.768 215.95H678.179C698.395 216.271 717.168 223.491 717.168 242.103C717.168 262.16 695.828 278.365 658.925 278.365H644.966L618.01 325.056H637.264L636.301 326.66H581.749L582.711 325.056ZM701.123 242.103C701.123 227.823 696.149 218.838 679.943 217.715L645.928 276.76H659.727C675.13 276.76 701.123 270.342 701.123 242.103Z" fill="#161616"/>
<path d="M681.268 325.056H699.078L762.937 214.346V325.056H780.586L779.624 326.66H680.306L681.268 325.056ZM723.948 285.746H746.892V246.115L723.948 285.746ZM701.325 325.056H746.892V287.35H722.985L701.325 325.056Z" fill="#161616"/>
<path d="M770.249 93.4496C779.335 93.4496 785.771 88.8121 785.771 80.1997C785.771 70.357 776.969 67.1392 765.991 67.1392H764.571V59.2839H765.707C777.726 59.2839 783.973 55.9714 783.973 47.9269C783.973 40.6395 777.915 36.7592 770.628 36.7592C761.448 36.7592 756.432 42.2484 755.675 50.1037H746.778C747.819 37.9895 756.432 29.5664 770.817 29.5664C782.648 29.5664 793.058 34.3931 793.058 46.9805C793.058 54.0786 789.083 59.9464 781.89 62.8803C792.112 66.1928 794.951 72.8177 794.951 80.1051C794.951 93.9228 783.31 100.642 770.155 100.642C753.876 100.642 746.778 90.6103 745.737 79.1587H754.634C755.675 87.5818 760.501 93.4496 770.249 93.4496Z" fill="#161616"/>
</svg>
