<svg width="1417" height="450" viewBox="0 0 1417 450" fill="none" xmlns="http://www.w3.org/2000/svg">
<path d="M619.554 299.118C619.554 381.913 686.673 449.033 769.469 449.033H1010.84V299.118H619.554Z" fill="#5552FF"/>
<path d="M745.897 299.118H1136.24V148.26H745.897V299.118Z" fill="#5552FF"/>
<path d="M453.61 148.26H770.412C813.112 148.26 847.726 113.645 847.726 70.9451V48.3164H453.61V148.26Z" fill="#5552FF"/>
<path d="M1.14867 207.092H17.7675L76.2358 105.868H59.6169L60.5234 104.357H87.869C107.056 104.508 124.733 110.401 124.733 125.206C124.733 141.674 106.452 152.25 75.0271 155.574C96.9338 158.897 106.603 167.358 106.603 179.595C106.603 198.934 84.9984 208.603 53.2715 208.603H0.242188L1.14867 207.092ZM108.114 125.206C108.114 114.782 104.337 107.983 92.5525 106.321L64.9047 154.063H70.6458C84.5452 154.063 108.114 148.624 108.114 125.206ZM89.2287 179.444C89.3798 172.344 87.1136 156.48 64.1493 155.574L34.3864 207.092H47.5304C71.7033 207.092 88.7755 201.502 89.2287 179.444Z" fill="#161616"/>
<path d="M93.8001 207.092H110.419L168.887 105.868H152.268L153.175 104.357H257.572L256.665 105.868H239.895L181.427 207.092H198.046L197.139 208.603H92.8936L93.8001 207.092ZM157.707 154.063H195.477L223.276 105.868H185.506L157.707 154.063ZM127.038 207.092H164.808L194.571 155.574H156.801L127.038 207.092Z" fill="#161616"/>
<path d="M262.031 210.114C255.685 221.143 245.11 229.301 231.361 229.301C217.764 229.301 209.153 223.711 209.153 210.114C209.153 200.596 217.311 172.193 262.031 172.193V105.868H245.412L246.318 104.357H339.837L338.931 105.868H322.161L262.031 210.114ZM277.139 105.868V180.502L319.895 105.868H277.139ZM211.117 210.114C211.117 220.387 216.102 227.79 231.361 227.79C240.426 227.79 252.664 223.711 262.031 206.488V173.703C218.822 174.308 211.117 199.991 211.117 210.114Z" fill="#161616"/>
<path d="M309.005 207.092H325.624L384.092 105.868H364.452L326.681 136.235L345.113 104.357H437.726L419.294 136.235V105.868H400.711L342.243 207.092H358.862L357.955 208.603H308.099L309.005 207.092Z" fill="#161616"/>
<path d="M384.309 207.092H400.928L459.396 105.868H442.778L443.684 104.357H474.202C493.238 104.659 510.915 111.458 510.915 128.983C510.915 147.869 490.821 163.128 456.073 163.128H442.929L417.547 207.092H435.677L434.77 208.603H383.403L384.309 207.092ZM495.807 128.983C495.807 115.537 491.123 107.077 475.864 106.019L443.835 161.617H456.828C471.332 161.617 495.807 155.574 495.807 128.983Z" fill="#161616"/>
<path d="M474.161 207.092H490.78L549.248 105.868H532.629L533.536 104.357H611.947L593.515 136.235V105.868H565.867L538.068 154.063H570.853L569.946 155.574H537.162L507.399 207.092H540.183L577.953 176.725L559.522 208.603H473.255L474.161 207.092Z" fill="#161616"/>
<path d="M568.14 207.092H584.759L643.227 105.868H626.608L627.515 104.357H731.912L731.005 105.868H714.235L655.767 207.092H672.386L671.479 208.603H567.234L568.14 207.092ZM632.047 154.063H669.818L697.616 105.868H659.846L632.047 154.063ZM601.378 207.092H639.148L668.911 155.574H631.141L601.378 207.092Z" fill="#161616"/>
<path d="M678.205 207.092H694.824L753.292 105.868H736.673L737.58 104.357H841.976L841.07 105.868H824.3L765.832 207.092H782.451L781.544 208.603H677.298L678.205 207.092ZM742.112 154.063H779.882L807.681 105.868H769.911L742.112 154.063ZM711.443 207.092H749.213L778.976 155.574H741.206L711.443 207.092Z" fill="#161616"/>
<path d="M788.421 207.092H805.039L863.508 105.868H846.889L847.795 104.357H952.192L951.286 105.868H934.516L876.047 207.092H892.666L891.76 208.603H787.514L788.421 207.092ZM880.127 105.868L830.27 192.286L912.609 115.084L917.897 105.868H880.127ZM821.658 207.092H859.429L909.285 120.674L826.946 197.876L821.658 207.092Z" fill="#161616"/>
<path d="M898.78 207.092H915.399L973.867 105.868H957.249L958.155 104.357H1036.57L1018.13 136.235V105.868H990.486L962.688 154.063H995.472L994.565 155.574H961.781L932.018 207.092H964.803L1002.57 176.725L984.141 208.603H897.874L898.78 207.092Z" fill="#161616"/>
<path d="M46.0196 382.09C66.8688 382.09 87.1136 355.953 98.1425 329.06H40.5807L41.4872 327.549H52.6672C54.9334 293.103 72.912 276.333 93.61 276.333C115.366 276.333 119.747 288.571 119.747 304.132C119.747 340.996 83.1855 383.6 45.2642 383.6C38.3145 383.6 26.9835 382.09 20.7892 371.363L14.5949 382.09H12.3286L36.1994 340.693L34.9907 345.83C28.1921 374.687 36.6526 382.09 46.0196 382.09ZM93.459 278.146C74.2717 278.146 56.2931 293.858 54.3291 327.549H98.7468C103.732 314.859 106.754 302.017 106.754 291.743C106.754 282.225 103.43 278.146 93.459 278.146Z" fill="#161616"/>
<path d="M105.554 381.485C121.266 381.485 129.273 370.456 184.116 279.355H150.122L151.029 277.844H249.382L248.476 279.355H231.706L173.238 380.579H189.857L188.95 382.09H139.094L140 380.579H156.619L215.087 279.355H186.382C130.784 371.967 122.626 383.6 105.856 383.6C94.3737 383.6 91.0499 377.255 91.0499 372.118C91.0499 363.507 96.791 359.881 103.741 359.881C106.611 359.881 109.784 360.334 112.654 361.996L101.777 381.032C102.985 381.485 104.194 381.485 105.554 381.485Z" fill="#161616"/>
<path d="M195.901 380.579H212.52L270.988 279.355H254.369L255.276 277.844H333.687L315.255 309.722V279.355H287.607L259.808 327.549H292.593L291.686 329.06H258.902L229.139 380.579H261.923L299.694 350.212L281.262 382.09H194.995L195.901 380.579Z" fill="#161616"/>
<path d="M290.031 380.579H306.65L365.118 279.355H348.5L349.406 277.844H480.091L479.184 279.355H462.566L404.248 380.579H420.867L419.961 382.09H371.615L372.521 380.579H387.63L445.645 279.959L347.744 383.6L366.931 280.11L308.917 380.579H325.535L324.629 382.09H289.125L290.031 380.579ZM368.14 358.823L443.227 279.355H382.946L368.14 358.823Z" fill="#161616"/>
<path d="M426.653 380.579H443.272L501.74 279.355H485.121L486.028 277.844H564.439L546.007 309.722V279.355H518.359L490.56 327.549H523.345L522.438 329.06H489.654L459.891 380.579H492.675L530.446 350.212L512.014 382.09H425.747L426.653 380.579Z" fill="#161616"/>
<path d="M520.633 380.579H537.251L595.72 279.355H579.101L580.007 277.844H684.404L683.497 279.355H666.727L608.259 380.579H624.878L623.972 382.09H519.726L520.633 380.579ZM584.54 327.549H622.31L650.109 279.355H612.338L584.54 327.549ZM553.87 380.579H591.64L621.403 329.06H583.633L553.87 380.579Z" fill="#161616"/>
<path d="M653.51 380.579H670.129L728.597 279.355H708.957L671.187 309.722L689.619 277.844H782.231L763.799 309.722V279.355H745.216L686.748 380.579H703.367L702.46 382.09H652.604L653.51 380.579Z" fill="#161616"/>
<path d="M728.815 380.579H745.433L803.902 279.355H787.283L788.189 277.844H924.313L923.406 279.355H906.637L848.168 380.579H864.787L863.881 382.09H814.024L814.931 380.579H831.549L890.018 279.355H820.521L795.743 322.111C820.369 324.83 832.758 337.068 832.758 350.06C832.758 371.212 811.154 381.787 779.276 382.09H727.908L728.815 380.579ZM815.384 349.909C815.535 342.658 812.362 327.398 794.837 323.772L762.052 380.579H772.175C797.254 380.579 814.931 374.384 815.384 349.909Z" fill="#161616"/>
<path d="M1113.18 0.463379C1125.12 0.463379 1133.68 6.43414 1133.68 17.3954C1133.68 32.3668 1118.08 45.556 1099.99 58.656H1135.46V66.2308H1088.94V58.9233C1111.76 42.0804 1125.12 29.9607 1125.12 18.4648C1125.12 11.692 1120.76 7.23618 1113.01 7.23618C1106.05 7.23618 1099.37 11.0682 1099.1 21.762H1090.73C1090.46 8.92938 1099.37 0.463379 1113.18 0.463379Z" fill="#161616"/>
</svg>
