<svg width="1386" height="506" viewBox="0 0 1386 506" fill="none" xmlns="http://www.w3.org/2000/svg">
<path d="M660 161H431.613C326.893 161 242 245.893 242 350.613V388H516.035C595.545 388 660 323.545 660 244.035V161Z" fill="#5552FF"/>
<path d="M483 0H161C72.0821 0 -3.05176e-05 72.0822 -3.05176e-05 161H483V0Z" fill="#5552FF"/>
<path d="M900 506H601C535.83 506 483 453.17 483 388H900V506Z" fill="#5552FF"/>
<path d="M96.4866 332.162H4.59912L5.53515 330.602H23.1638L63.7253 284.424V226.078H46.5647L47.5007 224.518H135.644L134.708 226.078H117.391L79.3259 269.447V330.602H97.4226L96.4866 332.162ZM79.3259 226.078V266.795L115.051 226.078H79.3259ZM25.5039 330.602H63.7253V287.076L25.5039 330.602ZM85.1042 330.602H102.421L164.511 222.958V330.602H181.672L180.736 332.162H84.1682L85.1042 330.602ZM126.602 292.38H148.911V253.847L126.602 292.38ZM104.605 330.602H148.911V293.94H125.666L104.605 330.602ZM157.623 330.602H174.783L235.158 226.078H217.997L218.933 224.518H250.446C270.103 224.83 288.356 231.85 288.356 249.947C288.356 269.447 267.607 285.204 231.725 285.204H218.153L191.944 330.602H210.665L209.729 332.162H156.687L157.623 330.602ZM272.755 249.947C272.755 236.062 267.919 227.326 252.162 226.234L219.089 283.644H232.505C247.482 283.644 272.755 277.404 272.755 249.947ZM253.45 330.602H270.767L332.857 222.958V330.602H350.018L349.082 332.162H252.514L253.45 330.602ZM294.948 292.38H317.257V253.847L294.948 292.38ZM272.951 330.602H317.257V293.94H294.012L272.951 330.602ZM325.969 330.602H343.129L403.504 226.078H386.343L387.279 224.518H478.855L477.918 226.078H460.758L413.8 264.143V330.602H430.961L430.025 332.162H325.033L325.969 330.602ZM398.199 274.127L457.326 226.078H419.104L358.73 330.602H398.199V274.127ZM437.732 330.602H454.893L515.267 226.078H494.986L455.985 257.435L475.018 224.518H570.649L551.617 257.435V226.078H532.428L472.054 330.602H489.214L488.278 332.162H436.796L437.732 330.602ZM515.492 330.602H532.652L593.026 226.078H575.866L576.802 224.518H657.769L638.736 257.435V226.078H610.187L581.482 275.844H615.335L614.399 277.404H580.546L549.813 330.602H583.666L622.668 299.244L603.635 332.162H514.555L515.492 330.602ZM612.69 330.602H629.851L690.225 226.078H673.065L674.001 224.518H705.514C725.171 224.83 743.423 231.85 743.423 249.947C743.423 269.447 722.675 285.204 686.793 285.204H673.221L647.012 330.602H665.732L664.796 332.162H611.754L612.69 330.602ZM727.823 249.947C727.823 236.062 722.987 227.326 707.23 226.234L674.157 283.644H687.573C702.55 283.644 727.823 277.404 727.823 249.947ZM705.471 330.602H722.632L783.006 226.078H765.846L766.782 224.518H874.582L873.646 226.078H856.329L795.955 330.602H813.115L812.179 332.162H704.535L705.471 330.602ZM800.167 226.078L748.685 315.313L833.708 235.594L839.168 226.078H800.167ZM739.793 330.602H778.794L830.276 241.366L745.253 321.085L739.793 330.602ZM921.457 275.063H923.797C923.797 326.857 890.567 333.722 873.875 333.722C851.566 333.722 845.014 324.361 845.014 310.633C845.014 273.191 891.191 222.958 930.037 222.958C941.737 222.958 948.758 225.922 953.126 230.29L956.402 224.518H958.742L934.093 267.263L935.341 261.959C942.361 232.006 938.305 224.518 929.101 224.518C897.588 224.518 858.586 289.728 858.586 320.929C858.586 327.169 860.77 331.85 874.655 331.85C890.255 331.85 921.457 324.049 921.457 275.063ZM934.696 330.602H951.857L1012.23 226.078H991.95L952.949 257.435L971.982 224.518H1067.61L1048.58 257.435V226.078H1029.39L969.018 330.602H986.178L985.242 332.162H933.76L934.696 330.602ZM1012.46 330.602H1029.62L1089.99 226.078H1072.83L1073.77 224.518H1181.57L1180.63 226.078H1163.31L1102.94 330.602H1120.1L1119.16 332.162H1011.52L1012.46 330.602ZM1107.15 226.078L1055.67 315.313L1140.69 235.594L1146.15 226.078H1107.15ZM1046.78 330.602H1085.78L1137.26 241.366L1052.24 321.085L1046.78 330.602ZM1126.41 330.602H1143.57L1203.95 226.078H1186.79L1187.72 224.518H1279.3L1278.36 226.078H1261.2L1214.24 264.143V330.602H1231.4L1230.47 332.162H1125.48L1126.41 330.602ZM1198.64 274.127L1257.77 226.078H1219.55L1159.17 330.602H1198.64V274.127ZM1216.45 330.602H1233.61L1293.99 226.078H1276.83L1277.76 224.518H1385.56L1384.63 226.078H1367.31L1306.93 330.602H1324.1L1323.16 332.162H1215.52L1216.45 330.602ZM1311.15 226.078L1259.67 315.313L1344.69 235.594L1350.15 226.078H1311.15ZM1250.77 330.602H1289.77L1341.26 241.366L1256.23 321.085L1250.77 330.602Z" fill="#161616"/>
<path d="M1119.63 75.2902L1095.15 106.953H1119.63V75.2902ZM1140.9 106.953V115.082H1128.33V132H1119.63V115.082H1085.61V106.953L1119.54 63.4757H1128.33V106.953H1140.9Z" fill="#161616"/>
</svg>
