<svg width="1220" height="72" viewBox="0 0 1220 72" fill="none" xmlns="http://www.w3.org/2000/svg">
<path d="M8.45122 7.92719H34.4365V56H42.5378V0.819441H0.349915V56H8.45122V7.92719ZM84.3728 20.9963H77.5708L68.7052 49.5037L57.3176 20.9963H49.4455L65.0367 58.7514C64.196 63.1077 62.8203 66.3177 60.7568 66.3177C59.0754 66.3177 58.3875 65.3241 58.3875 64.0249C58.3875 63.1077 58.6933 61.8085 58.9225 60.9678L52.1969 60.2035C51.7384 61.5028 51.5091 63.0313 51.5091 63.872C51.5091 68.9162 55.254 71.2855 60.2218 71.2855C66.336 71.2855 68.7817 68.4577 72.1445 58.2928L84.3728 20.9963ZM114.194 27.1105V20.9963H90.1192V56H97.5327V27.1105H114.194ZM135.126 57.07C146.819 57.07 152.628 48.3573 152.628 38.4981C152.628 28.639 146.819 19.9263 135.126 19.9263C123.433 19.9263 117.624 28.639 117.624 38.4981C117.624 48.3573 123.433 57.07 135.126 57.07ZM135.126 50.9558C128.935 50.9558 125.19 46.9816 125.19 38.4981C125.19 30.0147 128.935 26.0405 135.126 26.0405C141.317 26.0405 145.062 30.0147 145.062 38.4981C145.062 46.9816 141.317 50.9558 135.126 50.9558ZM167.691 26.7283H176.021C179.766 26.7283 180.913 28.9447 180.913 31.0847C180.913 32.8425 179.766 35.441 176.021 35.441H167.691V26.7283ZM167.691 50.2679V40.791H176.174C180.53 40.791 182.747 42.3195 182.747 45.5295C182.747 48.8158 180.989 50.2679 176.48 50.2679H167.691ZM160.277 20.9963V56H177.473C185.04 56 190.237 53.0958 190.237 45.9116C190.237 41.7081 187.256 38.651 182.441 38.1924C186.721 36.7403 188.25 33.6068 188.25 29.2504C188.25 24.2062 184.199 20.9963 176.48 20.9963H160.277ZM230.919 56V20.9963H221.977L204.934 47.2873V20.9963H197.521V56H206.463L223.506 29.709V56H230.919ZM272.698 20.9963H265.284V49.8858H247.477V20.9963H240.063V56H271.169V67.1584H278.048V49.8858H272.698V20.9963ZM317.81 56H325.224V20.9963H317.81V56ZM299.697 39.2624C304.206 39.2624 306.27 41.4024 306.27 44.6123C306.27 47.7458 304.206 49.8858 299.697 49.8858H291.213V39.2624H299.697ZM291.213 20.9963H283.8V56H300.996C308.562 56 313.759 51.8729 313.759 44.6123C313.759 37.2753 308.562 33.1482 300.996 33.1482H291.213V20.9963ZM362.864 26.7283H371.195C374.94 26.7283 376.086 28.9447 376.086 31.0847C376.086 32.8425 374.94 35.441 371.195 35.441H362.864V26.7283ZM362.864 50.2679V40.791H371.347C375.704 40.791 377.92 42.3195 377.92 45.5295C377.92 48.8158 376.162 50.2679 371.653 50.2679H362.864ZM355.451 20.9963V56H372.647C380.213 56 385.41 53.0958 385.41 45.9116C385.41 41.7081 382.429 38.651 377.614 38.1924C381.894 36.7403 383.423 33.6068 383.423 29.2504C383.423 24.2062 379.372 20.9963 371.653 20.9963H355.451ZM398.579 38.4981C398.579 30.4733 401.33 25.6583 407.674 25.6583C411.495 25.6583 414.705 27.7983 415.393 32.6132L422.73 31.849C421.966 24.5119 415.928 19.9263 407.674 19.9263C396.439 19.9263 391.165 27.1105 391.165 38.4981C391.165 49.8858 396.439 57.07 407.674 57.07C415.928 57.07 421.966 52.4843 422.73 45.1473L415.393 44.383C414.705 49.198 411.495 51.3379 407.674 51.3379C401.33 51.3379 398.579 46.523 398.579 38.4981ZM460.659 40.4088C460.659 27.1105 455.386 19.9263 444.992 19.9263C433.757 19.9263 428.483 27.4926 428.483 38.4981C428.483 49.8858 434.292 57.07 445.527 57.07C453.781 57.07 459.284 52.4843 460.048 45.1473L453.475 44.383C452.787 49.198 450.877 50.9558 445.527 50.9558C439.183 50.9558 436.05 47.2109 436.05 40.4088H460.659ZM444.915 25.2762C449.272 25.2762 452.635 27.7983 452.94 34.6768H436.05C436.355 27.7983 439.489 25.2762 444.915 25.2762ZM504.942 56V27.1105H516.712V20.9963H485.759V27.1105H497.529V56H504.942ZM529.825 70.3683V50.6501C531.736 54.7772 535.939 57.07 541.671 57.07C551.683 57.07 556.957 48.5101 556.957 38.4981C556.957 28.5626 551.683 19.9263 540.907 19.9263C536.016 19.9263 532.271 22.5248 529.825 25.5819V20.9963H522.412V70.3683H529.825ZM529.825 38.1924C529.825 30.244 533.952 26.0405 539.608 26.0405C544.958 26.0405 549.39 28.8683 549.39 38.1924C549.39 47.593 544.728 50.9558 539.378 50.9558C533.799 50.9558 529.825 46.4466 529.825 38.1924ZM597.98 56V20.9963H589.038L571.994 47.2873V20.9963H564.581V56H573.523L590.566 29.709V56H597.98ZM641.851 57.07C649.418 57.07 656.143 53.4779 656.143 46.2937C656.143 42.0902 653.163 38.651 648.348 38.1924C652.628 36.7403 654.997 33.9889 654.997 29.6326C654.997 24.5884 650.182 19.9263 641.698 19.9263C633.444 19.9263 627.559 23.7477 626.795 31.0847L634.132 31.849C634.82 27.034 637.113 25.6583 641.698 25.6583C646.208 25.6583 647.66 28.0276 647.66 30.1675C647.66 31.9254 646.743 35.0589 642.692 35.0589H637.571V41.1731H642.845C645.978 41.1731 648.653 42.7016 648.653 45.9116C648.653 49.198 646.361 51.3379 641.851 51.3379C637.266 51.3379 633.75 49.198 633.368 44.383L626.031 45.1473C626.413 52.4843 632.833 57.07 641.851 57.07ZM674.175 51.9493C670.736 51.9493 668.825 49.6565 668.825 46.7523C668.825 43.3131 671.424 39.5681 684.722 39.5681C684.569 43.4659 684.417 44.8416 683.194 46.7523C680.901 50.3444 677.309 51.9493 674.175 51.9493ZM696.416 49.6565C695.499 50.6501 694.658 51.3379 693.817 51.3379C692.594 51.3379 691.983 50.5737 691.983 49.198C691.983 43.7716 692.365 35.8232 692.365 31.1611C692.365 23.6712 687.397 19.9263 677.767 19.9263C671.653 19.9263 662.94 22.1427 662.94 30.7025L669.131 31.7725C669.513 27.034 672.57 25.2762 677.08 25.2762C682.353 25.2762 684.799 26.4226 684.875 31.0847C684.875 31.9254 684.799 33.4539 684.722 34.906C666.762 34.906 661.488 40.9438 661.488 47.3637C661.488 53.1722 665.463 57.07 672.341 57.07C678.837 57.07 683.117 55.1593 686.174 50.4972C686.48 55.1593 689.155 57.07 692.594 57.07C695.499 57.07 696.874 55.7707 699.014 53.0193L696.416 49.6565ZM709.364 38.4981C709.364 30.4733 712.115 25.6583 718.458 25.6583C722.28 25.6583 725.49 27.7983 726.178 32.6132L733.515 31.849C732.75 24.5119 726.713 19.9263 718.458 19.9263C707.224 19.9263 701.95 27.1105 701.95 38.4981C701.95 49.8858 707.224 57.07 718.458 57.07C726.713 57.07 732.75 52.4843 733.515 45.1473L726.178 44.383C725.49 49.198 722.28 51.3379 718.458 51.3379C712.115 51.3379 709.364 46.523 709.364 38.4981ZM756.541 56V27.1105H768.311V20.9963H737.357V27.1105H749.127V56H756.541ZM803.164 40.4088C803.164 27.1105 797.891 19.9263 787.497 19.9263C776.262 19.9263 770.988 27.4926 770.988 38.4981C770.988 49.8858 776.797 57.07 788.032 57.07C796.286 57.07 801.789 52.4843 802.553 45.1473L795.98 44.383C795.292 49.198 793.382 50.9558 788.032 50.9558C781.688 50.9558 778.555 47.2109 778.555 40.4088H803.164ZM787.42 25.2762C791.777 25.2762 795.14 27.7983 795.445 34.6768H778.555C778.861 27.7983 781.994 25.2762 787.42 25.2762ZM834.731 27.1105V20.9963H810.656V56H818.07V27.1105H834.731ZM873.07 20.9963H865.657V35.0589H847.849V20.9963H840.436V56H847.849V41.1731H865.657V56H873.07V20.9963ZM914.102 20.9963H907.3L898.435 49.5037L887.047 20.9963H879.175L894.766 58.7514C893.926 63.1077 892.55 66.3177 890.486 66.3177C888.805 66.3177 888.117 65.3241 888.117 64.0249C888.117 63.1077 888.423 61.8085 888.652 60.9678L881.926 60.2035C881.468 61.5028 881.239 63.0313 881.239 63.872C881.239 68.9162 884.984 71.2855 889.951 71.2855C896.065 71.2855 898.511 68.4577 901.874 58.2928L914.102 20.9963ZM949.023 20.9963H922.426V27.1105C922.426 49.733 920.439 51.0322 917.841 51.0322C916.847 51.0322 916.083 50.8794 915.013 50.1151L913.714 55.5414C915.013 56.535 916.618 56.9936 918.299 56.9936C927.088 56.9936 929.305 50.7265 929.305 27.1105H941.61V56H949.023V20.9963ZM991.61 56V20.9963H982.668L965.625 47.2873V20.9963H958.212V56H967.154L984.197 29.709V56H991.61ZM1006.64 38.4981C1006.64 30.4733 1009.39 25.6583 1015.73 25.6583C1019.56 25.6583 1022.77 27.7983 1023.45 32.6132L1030.79 31.849C1030.03 24.5119 1023.99 19.9263 1015.73 19.9263C1004.5 19.9263 999.226 27.1105 999.226 38.4981C999.226 49.8858 1004.5 57.07 1015.73 57.07C1023.99 57.07 1030.03 52.4843 1030.79 45.1473L1023.45 44.383C1022.77 49.198 1019.56 51.3379 1015.73 51.3379C1009.39 51.3379 1006.64 46.523 1006.64 38.4981ZM1053.97 39.2624C1058.48 39.2624 1060.54 41.4024 1060.54 44.6123C1060.54 47.7458 1058.48 49.8858 1053.97 49.8858H1045.49V39.2624H1053.97ZM1045.49 20.9963H1038.07V56H1055.27C1062.83 56 1068.03 51.8729 1068.03 44.6123C1068.03 37.2753 1062.83 33.1482 1055.27 33.1482H1045.49V20.9963ZM1127.8 20.9963H1120.39V35.0589H1102.58V20.9963H1095.17V56H1102.58V41.1731H1120.39V56H1127.8V20.9963ZM1167.61 40.4088C1167.61 27.1105 1162.34 19.9263 1151.94 19.9263C1140.71 19.9263 1135.44 27.4926 1135.44 38.4981C1135.44 49.8858 1141.24 57.07 1152.48 57.07C1160.73 57.07 1166.24 52.4843 1167 45.1473L1160.43 44.383C1159.74 49.198 1157.83 50.9558 1152.48 50.9558C1146.14 50.9558 1143 47.2109 1143 40.4088H1167.61ZM1151.87 25.2762C1156.22 25.2762 1159.59 27.7983 1159.89 34.6768H1143C1143.31 27.7983 1146.44 25.2762 1151.87 25.2762ZM1183.89 47.1344H1175.1V56H1183.89V47.1344ZM1201.88 47.1344H1193.09V56H1201.88V47.1344ZM1219.87 47.1344H1211.08V56H1219.87V47.1344Z" fill="#1D1D1D"/>
</svg>
