<svg width="1383" height="958" viewBox="0 0 1383 958" fill="none" xmlns="http://www.w3.org/2000/svg">
<path d="M263.791 597.91H107.47C99.3286 619.892 93.6294 641.875 93.6294 664.671C93.6294 708.637 118.869 739.575 164.462 739.575C238.551 739.575 260.534 659.786 263.791 597.91ZM210.87 357.73H195.401C189.701 458.687 134.338 528.705 108.284 597.095H264.605C264.605 591.396 264.605 585.697 264.605 580.812C264.605 498.581 239.366 430.191 210.87 357.73ZM285.773 597.095H303.685L284.959 549.874C285.773 564.529 286.587 580.812 285.773 597.095ZM195.401 356.916H210.056C205.171 344.703 200.286 332.49 195.401 319.464C196.215 332.49 196.215 344.703 195.401 356.916ZM176.675 357.73H0V356.916H176.675C177.489 350.402 177.489 343.889 177.489 336.561C177.489 301.552 164.462 224.206 146.55 194.082H233.666L297.172 356.916H651.335V357.73H297.172L390.801 597.095H651.335V597.91H390.801L455.935 764H368.819L303.685 597.91H285.773C281.702 675.256 253.207 764 164.462 764H36.6376C19.5401 740.389 12.2125 711.893 12.2125 683.397C12.2125 650.016 21.9826 623.149 35.8234 597.91H0V597.095H36.6376C79.7886 523.006 166.905 470.085 176.675 357.73ZM325.668 762.372V764V762.372ZM500.173 357.73H442.367V356.916H500.173L523.784 194.082H688.246L711.857 356.916H1093.7V357.73H711.857L746.052 597.095H1093.7V597.91H746.052L769.663 764H768.035H687.432L676.034 682.583H535.997L524.598 764H442.367L465.978 597.91H442.367V597.095H465.978L500.173 357.73ZM629.626 357.73H582.404L548.209 597.095H663.821L629.626 357.73ZM582.404 356.916H629.626L606.015 194.082L582.404 356.916ZM663.821 597.91H548.209L546.581 609.308H665.45L663.821 597.91Z" fill="white"/>
<path d="M1038 721.07V720.984H1042.3V703.777H1076.54C1086.26 703.777 1094.09 711.176 1094.09 720.984H1106.83V721.07H1094.09V730.791C1094.09 734.835 1093.92 740.685 1092.89 746.363H1106.83V746.449H1092.8C1091.08 755.483 1087.21 764 1078.18 764H1072.41H1064.33C1062.86 762.021 1062.09 759.612 1062.09 757.203C1062.09 753.074 1064.33 749.546 1067.34 746.449H1050.9V764H1042.3V746.449H1038V746.363H1042.3V721.07H1038ZM1050.9 720.984H1085.15C1085.15 715.305 1079.98 712.38 1074.82 712.38H1050.9V720.984ZM1085.15 721.07H1050.9V729.587H1074.82C1080.07 729.587 1085.06 726.748 1085.15 721.07ZM1090.31 746.449H1073.1C1071.64 748.6 1070.69 751.009 1070.69 753.934C1070.69 758.494 1073.53 761.419 1078.09 761.419C1085.23 761.419 1088.67 754.278 1090.31 746.449ZM1050.9 746.363H1067.42C1070.78 743.008 1075.17 740.255 1078.61 738.104C1077.92 738.19 1077.23 738.19 1076.54 738.19H1050.9V746.363ZM1073.1 746.363H1090.31C1091.6 740.255 1091.77 733.63 1091.77 729.759C1088.24 735.781 1077.92 739.481 1073.1 746.363ZM1094.41 721.07V720.984H1098.71V703.777H1140.52C1132.69 705.756 1120.65 712.466 1116.43 720.984H1163.23V721.07H1133.81V740.083C1130.88 742.406 1127.44 743.61 1123.74 743.61C1115.48 743.61 1111.36 737.502 1111.36 729.759C1111.36 726.576 1112.04 723.737 1113.25 721.07H1107.31V746.363H1163.23V746.449H1107.31V755.397H1133.9V764H1128.82H1098.71V746.449H1094.41V746.363H1098.71V721.07H1094.41ZM1133.81 721.07H1116.43C1115.48 722.962 1114.97 724.941 1114.97 727.006C1114.97 731.566 1117.55 735.093 1122.37 735.093C1129.51 735.093 1133.47 727.436 1133.81 721.07ZM1107.31 720.984H1113.25C1114.8 717.714 1117.12 714.875 1119.96 712.38H1107.31V720.984ZM1138.45 746.449H1135.27V746.363H1138.45C1137.16 742.664 1136.56 738.792 1136.56 734.921C1136.56 729.931 1137.51 725.285 1139.31 721.07H1135.27V720.984H1139.31C1144.05 709.971 1154.46 702.486 1167.88 702.486C1177.6 702.486 1186.63 706.616 1192.65 714.359V720.984H1204.1V721.07H1192.65V746.363H1204.1V746.449H1192.65V764H1184.05V746.449H1176.82C1177.25 747.654 1177.43 749.03 1177.43 750.579C1177.43 759.784 1170.2 764.774 1161.6 764.774C1149.81 764.774 1141.89 756.601 1138.45 746.449ZM1186.8 721.07H1148.86C1146.8 724.339 1145.59 728.296 1145.25 732.598H1190.5C1190.25 728.21 1188.95 724.339 1186.8 721.07ZM1148.86 720.984H1186.8C1182.67 714.875 1175.71 711.09 1167.53 711.09C1159.19 711.09 1152.73 714.875 1148.86 720.984ZM1147.66 746.363H1169.51C1168.05 738.792 1157.9 735.179 1151.1 735.179H1145.25C1145.25 738.706 1146.02 742.75 1147.66 746.363ZM1169.51 746.449H1147.66C1150.07 751.869 1154.37 756.171 1160.65 756.171C1165.3 756.171 1169.68 753.332 1169.68 748.256C1169.68 747.654 1169.6 747.052 1169.51 746.449ZM1176.82 746.363H1184.05V735.179H1154.8C1163.4 735.179 1174.24 737.674 1176.82 746.363ZM1196.19 721.07H1193.44V720.984H1196.19C1196.71 713.241 1198.86 703.777 1206.95 703.777H1218.65C1220.8 706.444 1221.83 709.799 1221.83 713.155C1221.83 716.08 1221.06 718.661 1219.94 720.984H1225.62V703.777H1234.22V720.984H1262.27V721.07H1234.22V742.75C1234.22 743.954 1234.13 745.159 1234.05 746.363H1262.27V746.449H1234.05C1232.76 756.773 1226.39 765.29 1214.86 765.29C1203.42 765.29 1197.05 756.859 1196.11 746.449H1193.44V746.363H1196.11C1196.02 745.503 1196.02 744.729 1196.02 743.868V727.264C1196.02 725.543 1196.02 723.392 1196.19 721.07ZM1225.62 721.07H1219.85C1215.38 730.103 1204.63 736.211 1204.63 746.105C1204.63 746.191 1204.63 746.277 1204.63 746.363H1225.36C1225.53 745.159 1225.62 743.868 1225.62 742.664V721.07ZM1198.43 720.984H1210.22C1212.02 718.403 1213.23 715.908 1213.23 713.155C1213.23 709.455 1210.73 706.358 1206.86 706.358C1200.75 706.358 1198.95 714.359 1198.43 720.984ZM1225.36 746.449H1204.63C1204.8 752.386 1208.84 756.687 1214.95 756.687C1221.49 756.687 1224.5 751.955 1225.36 746.449ZM1210.22 721.07H1198.43C1198.26 723.479 1198.17 725.715 1198.17 727.264L1198 742.148C1198.17 733.63 1205.83 727.35 1210.22 721.07ZM1239.7 721.07H1235.4V720.984H1239.7V720.381C1239.7 710.66 1247.01 702.831 1256.82 702.831C1260.95 702.831 1264.99 704.293 1268.09 706.96V720.984H1304.22V721.07H1268.09V746.363H1304.22V746.449H1268.09V764H1239.7V746.449H1235.4V746.363H1239.7V721.07ZM1264.65 721.07H1248.3V746.363H1265.51V731.049C1265.51 727.608 1265.25 724.253 1264.65 721.07ZM1248.3 720.984H1264.65C1262.93 713.069 1258.54 706.874 1248.3 706.96V720.984ZM1265.51 746.449H1248.3V755.397H1265.51V746.449ZM1287.12 721.07H1268.45V720.984H1287.12C1287.2 720.295 1287.2 719.607 1287.2 718.833C1287.2 715.133 1285.83 706.96 1283.93 703.777H1293.14L1299.85 720.984H1337.27V721.07H1299.85L1309.74 746.363H1337.27V746.449H1309.74L1316.63 764H1307.42L1300.54 746.449H1298.64C1298.21 754.622 1295.2 764 1285.83 764H1272.32C1270.51 761.505 1269.74 758.494 1269.74 755.483C1269.74 751.955 1270.77 749.116 1272.23 746.449H1268.45V746.363H1272.32C1276.88 738.534 1286.08 732.942 1287.12 721.07ZM1296.32 746.449H1279.8C1278.94 748.772 1278.34 751.095 1278.34 753.504C1278.34 758.15 1281.01 761.419 1285.83 761.419C1293.65 761.419 1295.98 752.988 1296.32 746.449ZM1290.73 721.07H1289.1C1288.49 731.738 1282.64 739.136 1279.89 746.363H1296.41C1296.41 736.556 1294.26 730.017 1290.73 721.07ZM1298.64 746.363H1300.54L1298.56 741.373C1298.64 742.922 1298.73 744.643 1298.64 746.363ZM1289.1 720.984H1290.64C1290.13 719.693 1289.61 718.403 1289.1 717.026C1289.18 718.403 1289.18 719.693 1289.1 720.984ZM1313.51 721.07V720.984H1317.81V703.777H1352.05C1361.78 703.777 1369.61 711.176 1369.61 720.984H1382.34V721.07H1369.61V730.791C1369.61 734.835 1369.43 740.685 1368.4 746.363H1382.34V746.449H1368.31C1366.59 755.483 1362.72 764 1353.69 764H1347.92H1339.84C1338.38 762.021 1337.6 759.612 1337.6 757.203C1337.6 753.074 1339.84 749.546 1342.85 746.449H1326.42V764H1317.81V746.449H1313.51V746.363H1317.81V721.07H1313.51ZM1326.42 720.984H1360.66C1360.66 715.305 1355.5 712.38 1350.33 712.38H1326.42V720.984ZM1360.66 721.07H1326.42V729.587H1350.33C1355.58 729.587 1360.57 726.748 1360.66 721.07ZM1365.82 746.449H1348.61C1347.15 748.6 1346.2 751.009 1346.2 753.934C1346.2 758.494 1349.04 761.419 1353.6 761.419C1360.74 761.419 1364.18 754.278 1365.82 746.449ZM1326.42 746.363H1342.93C1346.29 743.008 1350.68 740.255 1354.12 738.104C1353.43 738.19 1352.74 738.19 1352.05 738.19H1326.42V746.363ZM1348.61 746.363H1365.82C1367.11 740.255 1367.28 733.63 1367.28 729.759C1363.75 735.781 1353.43 739.481 1348.61 746.363Z" fill="white"/>
</svg>
