<svg width="1221" height="70" viewBox="0 0 1221 70" fill="none" xmlns="http://www.w3.org/2000/svg">
<path d="M0.985522 52V0.580791H39.5859V52H33.1765V6.27003H7.46694V52H0.985522ZM46.7476 13.3996H53.517L61.8709 35.3644C62.351 36.6607 62.7831 37.9089 63.1671 39.1092C63.5992 40.3095 63.9833 41.4857 64.3194 42.638C64.6555 43.7422 64.9195 44.8224 65.1116 45.8787H65.3996C65.6877 44.6784 66.1438 43.1181 66.7679 41.1976C67.3921 39.2292 68.0402 37.2608 68.7123 35.2924L76.5621 13.3996H83.4035L66.7679 57.3292C65.8557 59.7297 64.7755 61.8181 63.5272 63.5945C62.327 65.4189 60.8386 66.8112 59.0622 67.7714C57.3339 68.7797 55.2214 69.2838 52.7249 69.2838C51.5726 69.2838 50.5644 69.2118 49.7002 69.0677C48.836 68.9717 48.0918 68.8517 47.4677 68.7076V63.6665C47.9958 63.7626 48.62 63.8586 49.3401 63.9546C50.1083 64.0506 50.9005 64.0986 51.7166 64.0986C53.205 64.0986 54.4772 63.8106 55.5335 63.2344C56.6377 62.7063 57.5739 61.9142 58.3421 60.8579C59.1103 59.8497 59.7584 58.6494 60.2865 57.2571L62.3029 52.144L46.7476 13.3996ZM113.057 13.3996V18.7287H95.8454V52H89.508V13.3996H113.057ZM153.519 32.6278C153.519 35.8445 153.087 38.7011 152.223 41.1976C151.407 43.6462 150.207 45.7346 148.622 47.463C147.086 49.1914 145.189 50.5117 142.933 51.4239C140.724 52.2881 138.252 52.7202 135.515 52.7202C132.971 52.7202 130.618 52.2881 128.458 51.4239C126.297 50.5117 124.425 49.1914 122.841 47.463C121.256 45.7346 120.008 43.6462 119.096 41.1976C118.232 38.7011 117.799 35.8445 117.799 32.6278C117.799 28.3548 118.52 24.7541 119.96 21.8254C121.4 18.8488 123.465 16.5923 126.153 15.0559C128.842 13.4716 132.035 12.6794 135.731 12.6794C139.236 12.6794 142.309 13.4716 144.949 15.0559C147.638 16.5923 149.726 18.8488 151.215 21.8254C152.751 24.7541 153.519 28.3548 153.519 32.6278ZM124.353 32.6278C124.353 35.6524 124.737 38.293 125.505 40.5495C126.321 42.758 127.57 44.4624 129.25 45.6626C130.93 46.8629 133.067 47.463 135.659 47.463C138.252 47.463 140.388 46.8629 142.069 45.6626C143.749 44.4624 144.973 42.758 145.742 40.5495C146.558 38.293 146.966 35.6524 146.966 32.6278C146.966 29.5551 146.558 26.9385 145.742 24.7781C144.925 22.6176 143.677 20.9612 141.997 19.809C140.364 18.6087 138.228 18.0086 135.587 18.0086C131.65 18.0086 128.794 19.3049 127.017 21.8974C125.241 24.49 124.353 28.0668 124.353 32.6278ZM194.602 23.1217C194.602 25.5222 193.882 27.3946 192.441 28.7389C191.001 30.0832 189.153 30.9954 186.896 31.4755V31.7636C189.297 32.0997 191.385 32.9639 193.162 34.3562C194.938 35.7004 195.826 37.8129 195.826 40.6935C195.826 42.3259 195.514 43.8382 194.89 45.2305C194.314 46.6228 193.402 47.8231 192.153 48.8313C190.905 49.8395 189.297 50.6317 187.328 51.2078C185.36 51.7359 182.983 52 180.199 52H163.563V13.3996H180.127C182.863 13.3996 185.312 13.7117 187.472 14.3358C189.681 14.9119 191.409 15.9201 192.658 17.3604C193.954 18.7528 194.602 20.6732 194.602 23.1217ZM189.273 40.6935C189.273 38.4851 188.433 36.9007 186.752 35.9405C185.072 34.9803 182.599 34.5002 179.335 34.5002H169.901V46.8869H179.479C182.647 46.8869 185.072 46.4308 186.752 45.5186C188.433 44.5584 189.273 42.95 189.273 40.6935ZM188.193 23.9139C188.193 22.0895 187.52 20.7692 186.176 19.953C184.88 19.0888 182.743 18.6567 179.767 18.6567H169.901V29.243H178.614C181.735 29.243 184.112 28.8109 185.744 27.9468C187.376 27.0826 188.193 25.7383 188.193 23.9139ZM211.034 36.9487C211.034 37.3808 211.01 38.0049 210.962 38.8211C210.962 39.5893 210.938 40.4295 210.89 41.3417C210.842 42.2059 210.794 43.046 210.746 43.8622C210.698 44.6304 210.65 45.2545 210.602 45.7346L231.27 13.3996H239.048V52H233.143V29.243C233.143 28.4749 233.143 27.4667 233.143 26.2184C233.191 24.9701 233.239 23.7458 233.287 22.5456C233.335 21.2973 233.383 20.3611 233.431 19.737L212.906 52H205.057V13.3996H211.034V36.9487ZM289.429 65.3949H283.235V52H251.332V13.3996H257.67V46.6708H277.618V13.3996H283.955V46.7429H289.429V65.3949ZM296.834 52V13.3996H303.172V29.243H313.182C316.543 29.243 319.303 29.6511 321.464 30.4673C323.624 31.2835 325.233 32.5078 326.289 34.1401C327.345 35.7245 327.873 37.7409 327.873 40.1894C327.873 42.5899 327.345 44.6784 326.289 46.4548C325.281 48.2312 323.672 49.5995 321.464 50.5597C319.303 51.5199 316.447 52 312.894 52H296.834ZM312.318 46.8869C315.054 46.8869 317.287 46.4308 319.015 45.5186C320.744 44.5584 321.608 42.902 321.608 40.5495C321.608 38.197 320.816 36.6126 319.231 35.7965C317.647 34.9323 315.366 34.5002 312.39 34.5002H303.172V46.8869H312.318ZM334.283 52V13.3996H340.62V52H334.283ZM395.458 23.1217C395.458 25.5222 394.738 27.3946 393.298 28.7389C391.857 30.0832 390.009 30.9954 387.753 31.4755V31.7636C390.153 32.0997 392.242 32.9639 394.018 34.3562C395.794 35.7004 396.682 37.8129 396.682 40.6935C396.682 42.3259 396.37 43.8382 395.746 45.2305C395.17 46.6228 394.258 47.8231 393.01 48.8313C391.761 49.8395 390.153 50.6317 388.185 51.2078C386.216 51.7359 383.84 52 381.055 52H364.419V13.3996H380.983C383.72 13.3996 386.168 13.7117 388.329 14.3358C390.537 14.9119 392.266 15.9201 393.514 17.3604C394.81 18.7528 395.458 20.6732 395.458 23.1217ZM390.129 40.6935C390.129 38.4851 389.289 36.9007 387.609 35.9405C385.928 34.9803 383.456 34.5002 380.191 34.5002H370.757V46.8869H380.335C383.504 46.8869 385.928 46.4308 387.609 45.5186C389.289 44.5584 390.129 42.95 390.129 40.6935ZM389.049 23.9139C389.049 22.0895 388.377 20.7692 387.032 19.953C385.736 19.0888 383.6 18.6567 380.623 18.6567H370.757V29.243H379.471C382.591 29.243 384.968 28.8109 386.6 27.9468C388.233 27.0826 389.049 25.7383 389.049 23.9139ZM421.396 52.7202C417.988 52.7202 414.939 52.024 412.25 50.6317C409.61 49.2394 407.521 47.0789 405.985 44.1503C404.497 41.2217 403.752 37.4768 403.752 32.9158C403.752 28.1628 404.545 24.298 406.129 21.3213C407.713 18.3447 409.85 16.1602 412.538 14.7679C415.275 13.3756 418.372 12.6794 421.828 12.6794C423.797 12.6794 425.693 12.8955 427.518 13.3276C429.342 13.7117 430.83 14.1918 431.983 14.7679L430.038 20.025C428.886 19.5929 427.542 19.1848 426.005 18.8008C424.469 18.4167 423.029 18.2246 421.684 18.2246C419.092 18.2246 416.955 18.7768 415.275 19.881C413.595 20.9852 412.346 22.6176 411.53 24.7781C410.714 26.9385 410.306 29.6271 410.306 32.8438C410.306 35.9165 410.714 38.5331 411.53 40.6935C412.346 42.854 413.571 44.4864 415.203 45.5906C416.835 46.6948 418.876 47.247 421.324 47.247C423.437 47.247 425.285 47.0309 426.869 46.5988C428.502 46.1667 429.99 45.6386 431.334 45.0145V50.6317C430.038 51.3038 428.598 51.808 427.013 52.144C425.477 52.5281 423.605 52.7202 421.396 52.7202ZM455.421 12.6794C458.734 12.6794 461.567 13.3996 463.919 14.8399C466.32 16.2802 468.144 18.3207 469.392 20.9612C470.689 23.5538 471.337 26.6025 471.337 30.1072V33.9241H444.907C445.003 38.293 446.107 41.6297 448.22 43.9342C450.38 46.1907 453.381 47.319 457.222 47.319C459.67 47.319 461.831 47.1029 463.703 46.6708C465.624 46.1907 467.592 45.5186 469.609 44.6544V50.1996C467.64 51.0638 465.696 51.6879 463.775 52.072C461.855 52.5041 459.574 52.7202 456.934 52.7202C453.285 52.7202 450.044 51.976 447.212 50.4877C444.427 48.9993 442.243 46.7909 440.658 43.8622C439.122 40.8856 438.354 37.2608 438.354 32.9879C438.354 28.7629 439.05 25.1381 440.442 22.1135C441.882 19.0888 443.875 16.7603 446.419 15.128C449.012 13.4956 452.013 12.6794 455.421 12.6794ZM455.349 17.8646C452.325 17.8646 449.924 18.8488 448.148 20.8172C446.419 22.7376 445.387 25.4262 445.051 28.883H464.711C464.711 26.6745 464.375 24.7541 463.703 23.1217C463.031 21.4893 461.999 20.2171 460.607 19.3049C459.262 18.3447 457.51 17.8646 455.349 17.8646ZM519.343 18.7287H506.74V52H500.475V18.7287H488.016V13.3996H519.343V18.7287ZM545.311 12.6794C550.064 12.6794 553.881 14.3358 556.762 17.6485C559.69 20.9612 561.155 25.9543 561.155 32.6278C561.155 36.9967 560.482 40.6935 559.138 43.7182C557.842 46.6948 555.993 48.9513 553.593 50.4877C551.24 51.976 548.456 52.7202 545.239 52.7202C543.271 52.7202 541.518 52.4561 539.982 51.928C538.446 51.3999 537.125 50.7277 536.021 49.9115C534.965 49.0474 534.053 48.1112 533.284 47.1029H532.852C532.948 47.9191 533.044 48.9513 533.14 50.1996C533.236 51.4479 533.284 52.5281 533.284 53.4403V69.2838H526.947V13.3996H532.132L532.996 18.6567H533.284C534.053 17.5525 534.965 16.5443 536.021 15.6321C537.125 14.7199 538.422 13.9997 539.91 13.4716C541.446 12.9435 543.247 12.6794 545.311 12.6794ZM544.159 18.0086C541.566 18.0086 539.478 18.5127 537.893 19.5209C536.309 20.4811 535.157 21.9454 534.437 23.9139C533.717 25.8823 533.332 28.3789 533.284 31.4035V32.6278C533.284 35.7965 533.621 38.4851 534.293 40.6935C534.965 42.902 536.093 44.5824 537.677 45.7346C539.31 46.8869 541.518 47.463 544.303 47.463C546.655 47.463 548.576 46.8149 550.064 45.5186C551.6 44.2223 552.729 42.4699 553.449 40.2614C554.217 38.0049 554.601 35.4364 554.601 32.5558C554.601 28.1388 553.737 24.61 552.009 21.9695C550.328 19.3289 547.712 18.0086 544.159 18.0086ZM577.231 36.9487C577.231 37.3808 577.207 38.0049 577.159 38.8211C577.159 39.5893 577.135 40.4295 577.087 41.3417C577.039 42.2059 576.991 43.046 576.943 43.8622C576.895 44.6304 576.847 45.2545 576.799 45.7346L597.467 13.3996H605.245V52H599.34V29.243C599.34 28.4749 599.34 27.4667 599.34 26.2184C599.388 24.9701 599.436 23.7458 599.484 22.5456C599.532 21.2973 599.58 20.3611 599.628 19.737L579.103 52H571.254V13.3996H577.231V36.9487ZM639.217 12.6794C642.146 12.6794 644.691 13.0875 646.851 13.9037C649.011 14.6719 650.692 15.8241 651.892 17.3604C653.092 18.8488 653.692 20.6732 653.692 22.8336C653.692 25.1862 653.044 27.0586 651.748 28.4509C650.452 29.7952 648.675 30.7794 646.419 31.4035V31.6916C647.955 32.1237 649.372 32.7238 650.668 33.492C651.964 34.2601 652.996 35.2684 653.764 36.5166C654.581 37.7649 654.989 39.3732 654.989 41.3417C654.989 43.4541 654.389 45.3746 653.188 47.1029C652.036 48.8313 650.236 50.1996 647.787 51.2078C645.387 52.216 642.29 52.7202 638.497 52.7202C636.673 52.7202 634.92 52.6241 633.24 52.4321C631.608 52.2401 630.119 51.952 628.775 51.5679C627.479 51.1838 626.327 50.7277 625.318 50.1996V44.5104C626.951 45.2785 628.871 45.9747 631.08 46.5988C633.336 47.223 635.785 47.535 638.425 47.535C640.346 47.535 642.074 47.319 643.61 46.8869C645.195 46.4548 646.443 45.7826 647.355 44.8704C648.267 43.9102 648.723 42.614 648.723 40.9816C648.723 39.4933 648.315 38.293 647.499 37.3808C646.683 36.4206 645.459 35.7004 643.826 35.2203C642.242 34.7402 640.202 34.5002 637.705 34.5002H632.52V29.3151H636.697C640.009 29.3151 642.65 28.883 644.618 28.0188C646.635 27.1066 647.643 25.5702 647.643 23.4098C647.643 21.5854 646.875 20.2171 645.339 19.3049C643.85 18.3927 641.69 17.9366 638.857 17.9366C636.745 17.9366 634.872 18.1526 633.24 18.5847C631.656 18.9688 629.903 19.5689 627.983 20.3851L625.75 15.344C627.815 14.4318 629.975 13.7597 632.232 13.3276C634.488 12.8955 636.817 12.6794 639.217 12.6794ZM678.987 12.7514C683.692 12.7514 687.173 13.7837 689.429 15.8481C691.686 17.9126 692.814 21.2013 692.814 25.7143V52H688.205L686.981 46.5268H686.693C685.588 47.9191 684.436 49.0954 683.236 50.0556C682.084 50.9678 680.739 51.6399 679.203 52.072C677.715 52.5041 675.89 52.7202 673.73 52.7202C671.425 52.7202 669.337 52.3121 667.464 51.4959C665.64 50.6797 664.2 49.4314 663.143 47.7511C662.087 46.0227 661.559 43.8622 661.559 41.2697C661.559 37.4288 663.071 34.4762 666.096 32.4117C669.121 30.2993 673.778 29.147 680.067 28.955L686.621 28.7389V26.4344C686.621 23.2177 685.924 20.9852 684.532 19.737C683.14 18.4887 681.171 17.8646 678.627 17.8646C676.61 17.8646 674.69 18.1766 672.866 18.8008C671.041 19.3769 669.337 20.049 667.752 20.8172L665.808 16.0642C667.488 15.152 669.481 14.3838 671.785 13.7597C674.09 13.0875 676.49 12.7514 678.987 12.7514ZM680.859 33.3479C676.058 33.54 672.721 34.3081 670.849 35.6524C669.025 36.9967 668.112 38.8931 668.112 41.3417C668.112 43.5021 668.761 45.0865 670.057 46.0947C671.401 47.1029 673.106 47.607 675.17 47.607C678.435 47.607 681.147 46.7188 683.308 44.9425C685.468 43.1181 686.549 40.3335 686.549 36.5886V33.1319L680.859 33.3479ZM720.219 52.7202C716.81 52.7202 713.762 52.024 711.073 50.6317C708.433 49.2394 706.344 47.0789 704.808 44.1503C703.32 41.2217 702.575 37.4768 702.575 32.9158C702.575 28.1628 703.368 24.298 704.952 21.3213C706.536 18.3447 708.673 16.1602 711.361 14.7679C714.098 13.3756 717.195 12.6794 720.651 12.6794C722.62 12.6794 724.516 12.8955 726.341 13.3276C728.165 13.7117 729.653 14.1918 730.806 14.7679L728.861 20.025C727.709 19.5929 726.365 19.1848 724.828 18.8008C723.292 18.4167 721.852 18.2246 720.507 18.2246C717.915 18.2246 715.778 18.7768 714.098 19.881C712.418 20.9852 711.169 22.6176 710.353 24.7781C709.537 26.9385 709.129 29.6271 709.129 32.8438C709.129 35.9165 709.537 38.5331 710.353 40.6935C711.169 42.854 712.394 44.4864 714.026 45.5906C715.658 46.6948 717.699 47.247 720.147 47.247C722.26 47.247 724.108 47.0309 725.692 46.5988C727.325 46.1667 728.813 45.6386 730.157 45.0145V50.6317C728.861 51.3038 727.421 51.808 725.836 52.144C724.3 52.5281 722.428 52.7202 720.219 52.7202ZM765.983 18.7287H753.38V52H747.115V18.7287H734.656V13.3996H765.983V18.7287ZM787.791 12.6794C791.103 12.6794 793.936 13.3996 796.289 14.8399C798.689 16.2802 800.514 18.3207 801.762 20.9612C803.058 23.5538 803.706 26.6025 803.706 30.1072V33.9241H777.276C777.372 38.293 778.477 41.6297 780.589 43.9342C782.75 46.1907 785.75 47.319 789.591 47.319C792.04 47.319 794.2 47.1029 796.073 46.6708C797.993 46.1907 799.961 45.5186 801.978 44.6544V50.1996C800.009 51.0638 798.065 51.6879 796.145 52.072C794.224 52.5041 791.944 52.7202 789.303 52.7202C785.654 52.7202 782.414 51.976 779.581 50.4877C776.796 48.9993 774.612 46.7909 773.028 43.8622C771.491 40.8856 770.723 37.2608 770.723 32.9879C770.723 28.7629 771.419 25.1381 772.811 22.1135C774.252 19.0888 776.244 16.7603 778.789 15.128C781.381 13.4956 784.382 12.6794 787.791 12.6794ZM787.719 17.8646C784.694 17.8646 782.294 18.8488 780.517 20.8172C778.789 22.7376 777.757 25.4262 777.42 28.883H797.081C797.081 26.6745 796.745 24.7541 796.073 23.1217C795.4 21.4893 794.368 20.2171 792.976 19.3049C791.632 18.3447 789.879 17.8646 787.719 17.8646ZM837.082 13.3996V18.7287H819.87V52H813.533V13.3996H837.082ZM851.026 13.3996V29.4591H871.982V13.3996H878.319V52H871.982V34.7882H851.026V52H844.688V13.3996H851.026ZM884.493 13.3996H891.262L899.616 35.3644C900.096 36.6607 900.528 37.9089 900.912 39.1092C901.344 40.3095 901.728 41.4857 902.064 42.638C902.401 43.7422 902.665 44.8224 902.857 45.8787H903.145C903.433 44.6784 903.889 43.1181 904.513 41.1976C905.137 39.2292 905.785 37.2608 906.457 35.2924L914.307 13.3996H921.149L904.513 57.3292C903.601 59.7297 902.521 61.8181 901.272 63.5945C900.072 65.4189 898.584 66.8112 896.807 67.7714C895.079 68.7797 892.966 69.2838 890.47 69.2838C889.318 69.2838 888.309 69.2118 887.445 69.0677C886.581 68.9717 885.837 68.8517 885.213 68.7076V63.6665C885.741 63.7626 886.365 63.8586 887.085 63.9546C887.853 64.0506 888.646 64.0986 889.462 64.0986C890.95 64.0986 892.222 63.8106 893.279 63.2344C894.383 62.7063 895.319 61.9142 896.087 60.8579C896.855 59.8497 897.503 58.6494 898.032 57.2571L900.048 52.144L884.493 13.3996ZM955.229 52H948.819V18.6567H937.441C936.961 24.7541 936.361 29.9632 935.641 34.2841C934.92 38.5571 934.008 42.0378 932.904 44.7264C931.8 47.415 930.48 49.3834 928.943 50.6317C927.407 51.88 925.606 52.5041 923.542 52.5041C922.918 52.5041 922.294 52.4561 921.67 52.3601C921.093 52.3121 920.613 52.192 920.229 52V47.247C920.517 47.343 920.829 47.415 921.165 47.463C921.502 47.511 921.838 47.535 922.174 47.535C923.23 47.535 924.19 47.1029 925.054 46.2387C925.919 45.3746 926.687 44.0543 927.359 42.2779C928.079 40.5015 928.727 38.269 929.303 35.5804C929.879 32.8438 930.383 29.6271 930.816 25.9303C931.248 22.2335 931.632 18.0566 931.968 13.3996H955.229V52ZM973.458 36.9487C973.458 37.3808 973.434 38.0049 973.386 38.8211C973.386 39.5893 973.362 40.4295 973.314 41.3417C973.266 42.2059 973.218 43.046 973.17 43.8622C973.122 44.6304 973.074 45.2545 973.026 45.7346L993.694 13.3996H1001.47V52H995.567V29.243C995.567 28.4749 995.567 27.4667 995.567 26.2184C995.615 24.9701 995.663 23.7458 995.711 22.5456C995.759 21.2973 995.807 20.3611 995.855 19.737L975.33 52H967.481V13.3996H973.458V36.9487ZM1029.24 52.7202C1025.83 52.7202 1022.78 52.024 1020.09 50.6317C1017.45 49.2394 1015.36 47.0789 1013.83 44.1503C1012.34 41.2217 1011.6 37.4768 1011.6 32.9158C1011.6 28.1628 1012.39 24.298 1013.97 21.3213C1015.56 18.3447 1017.69 16.1602 1020.38 14.7679C1023.12 13.3756 1026.21 12.6794 1029.67 12.6794C1031.64 12.6794 1033.54 12.8955 1035.36 13.3276C1037.19 13.7117 1038.67 14.1918 1039.83 14.7679L1037.88 20.025C1036.73 19.5929 1035.38 19.1848 1033.85 18.8008C1032.31 18.4167 1030.87 18.2246 1029.53 18.2246C1026.94 18.2246 1024.8 18.7768 1023.12 19.881C1021.44 20.9852 1020.19 22.6176 1019.37 24.7781C1018.56 26.9385 1018.15 29.6271 1018.15 32.8438C1018.15 35.9165 1018.56 38.5331 1019.37 40.6935C1020.19 42.854 1021.41 44.4864 1023.05 45.5906C1024.68 46.6948 1026.72 47.247 1029.17 47.247C1031.28 47.247 1033.13 47.0309 1034.71 46.5988C1036.35 46.1667 1037.83 45.6386 1039.18 45.0145V50.6317C1037.88 51.3038 1036.44 51.808 1034.86 52.144C1033.32 52.5281 1031.45 52.7202 1029.24 52.7202ZM1066.15 29.243C1069.51 29.243 1072.29 29.6511 1074.5 30.4673C1076.71 31.2835 1078.36 32.5078 1079.47 34.1401C1080.62 35.7245 1081.2 37.7409 1081.2 40.1894C1081.2 42.5899 1080.64 44.6784 1079.54 46.4548C1078.48 48.2312 1076.83 49.5995 1074.57 50.5597C1072.31 51.5199 1069.41 52 1065.86 52H1048.36V13.3996H1054.69V29.243H1066.15ZM1074.86 40.5495C1074.86 38.197 1074.02 36.6126 1072.34 35.7965C1070.71 34.9323 1068.4 34.5002 1065.43 34.5002H1054.69V46.8869H1065.57C1068.26 46.8869 1070.47 46.4068 1072.19 45.4466C1073.97 44.4864 1074.86 42.854 1074.86 40.5495ZM1108.99 13.3996V29.4591H1129.94V13.3996H1136.28V52H1129.94V34.7882H1108.99V52H1102.65V13.3996H1108.99ZM1163.41 12.6794C1166.72 12.6794 1169.56 13.3996 1171.91 14.8399C1174.31 16.2802 1176.13 18.3207 1177.38 20.9612C1178.68 23.5538 1179.33 26.6025 1179.33 30.1072V33.9241H1152.9C1152.99 38.293 1154.1 41.6297 1156.21 43.9342C1158.37 46.1907 1161.37 47.319 1165.21 47.319C1167.66 47.319 1169.82 47.1029 1171.69 46.6708C1173.61 46.1907 1175.58 45.5186 1177.6 44.6544V50.1996C1175.63 51.0638 1173.69 51.6879 1171.77 52.072C1169.85 52.5041 1167.56 52.7202 1164.92 52.7202C1161.28 52.7202 1158.03 51.976 1155.2 50.4877C1152.42 48.9993 1150.23 46.7909 1148.65 43.8622C1147.11 40.8856 1146.34 37.2608 1146.34 32.9879C1146.34 28.7629 1147.04 25.1381 1148.43 22.1135C1149.87 19.0888 1151.87 16.7603 1154.41 15.128C1157 13.4956 1160 12.6794 1163.41 12.6794ZM1163.34 17.8646C1160.31 17.8646 1157.91 18.8488 1156.14 20.8172C1154.41 22.7376 1153.38 25.4262 1153.04 28.883H1172.7C1172.7 26.6745 1172.37 24.7541 1171.69 23.1217C1171.02 21.4893 1169.99 20.2171 1168.6 19.3049C1167.25 18.3447 1165.5 17.8646 1163.34 17.8646ZM1185.99 44.3663H1193.62V52H1185.99V44.3663ZM1199.56 44.3663H1207.19V52H1199.56V44.3663ZM1213.13 44.3663H1220.77V52H1213.13V44.3663Z" fill="#1D1D1D"/>
</svg>
