<svg width="625" height="909" viewBox="0 0 625 909" fill="none" xmlns="http://www.w3.org/2000/svg">
<path d="M223.223 0.0820312L314.41 570H224.037L208.568 466.601H98.6554L83.1861 570H0.955078L92.142 0.0820312H223.223ZM153.205 101.039L110.054 389.255H196.356L153.205 101.039Z" fill="white"/>
<path d="M533.606 0.0820312L624.793 570H534.42L518.951 466.601H409.038L393.569 570H311.338L402.525 0.0820312H533.606ZM463.587 101.039L420.437 389.255H506.738L463.587 101.039Z" fill="white"/>
<path d="M393.527 716.777H407.551C412.426 716.777 415.982 717.924 418.219 720.219C420.456 722.455 421.574 725.925 421.574 730.629V734.328C421.574 740.58 419.509 744.537 415.38 746.201V746.373C417.674 747.061 419.28 748.466 420.198 750.588C421.173 752.71 421.66 755.549 421.66 759.106V769.688C421.66 771.408 421.717 772.813 421.832 773.903C421.947 774.936 422.234 775.968 422.692 777H413.057C412.713 776.025 412.483 775.108 412.369 774.247C412.254 773.387 412.196 771.838 412.196 769.602V758.589C412.196 755.836 411.738 753.915 410.82 752.825C409.96 751.735 408.44 751.19 406.26 751.19H402.991V777H393.527V716.777ZM406.432 742.587C408.325 742.587 409.73 742.1 410.648 741.125C411.623 740.15 412.11 738.515 412.11 736.221V731.575C412.11 729.395 411.709 727.818 410.906 726.843C410.16 725.868 408.956 725.381 407.293 725.381H402.991V742.587H406.432Z" fill="white"/>
<path d="M425.989 716.777H451.799V725.381H435.453V741.297H448.444V749.9H435.453V768.397H451.799V777H425.989V716.777Z" fill="white"/>
<path d="M468.428 777.861C463.839 777.861 460.341 776.57 457.932 773.989C455.523 771.351 454.318 767.594 454.318 762.719V731.059C454.318 726.184 455.523 722.455 457.932 719.875C460.341 717.236 463.839 715.917 468.428 715.917C473.016 715.917 476.515 717.236 478.924 719.875C481.333 722.455 482.537 726.184 482.537 731.059V736.221H473.59V730.457C473.59 726.499 471.955 724.52 468.686 724.52C465.417 724.52 463.782 726.499 463.782 730.457V763.407C463.782 767.307 465.417 769.257 468.686 769.257C471.955 769.257 473.59 767.307 473.59 763.407V751.621H468.858V743.017H482.537V762.719C482.537 767.594 481.333 771.351 478.924 773.989C476.515 776.57 473.016 777.861 468.428 777.861Z" fill="white"/>
<path d="M500.142 777.861C495.553 777.861 492.054 776.57 489.646 773.989C487.237 771.351 486.032 767.594 486.032 762.719V716.777H495.496V763.407C495.496 765.472 495.897 766.963 496.7 767.881C497.561 768.799 498.765 769.257 500.314 769.257C501.862 769.257 503.038 768.799 503.841 767.881C504.701 766.963 505.131 765.472 505.131 763.407V716.777H514.251V762.719C514.251 767.594 513.047 771.351 510.638 773.989C508.229 776.57 504.73 777.861 500.142 777.861Z" fill="white"/>
<path d="M518.754 716.777H528.218V768.397H543.79V777H518.754V716.777Z" fill="white"/>
<path d="M553.74 716.777H566.559L576.367 777H566.903L565.182 765.042V765.214H554.428L552.708 777H543.932L553.74 716.777ZM564.064 757.041L559.848 727.273H559.676L555.547 757.041H564.064Z" fill="white"/>
<path d="M578.721 716.777H592.745C597.62 716.777 601.176 717.924 603.413 720.219C605.649 722.455 606.768 725.925 606.768 730.629V734.328C606.768 740.58 604.703 744.537 600.574 746.201V746.373C602.868 747.061 604.474 748.466 605.391 750.588C606.366 752.71 606.854 755.549 606.854 759.106V769.688C606.854 771.408 606.911 772.813 607.026 773.903C607.141 774.936 607.428 775.968 607.886 777H598.251C597.907 776.025 597.677 775.108 597.562 774.247C597.448 773.387 597.39 771.838 597.39 769.602V758.589C597.39 755.836 596.931 753.915 596.014 752.825C595.153 751.735 593.634 751.19 591.454 751.19H588.185V777H578.721V716.777ZM591.626 742.587C593.519 742.587 594.924 742.1 595.842 741.125C596.817 740.15 597.304 738.515 597.304 736.221V731.575C597.304 729.395 596.903 727.818 596.1 726.843C595.354 725.868 594.15 725.381 592.486 725.381H588.185V742.587H591.626Z" fill="white"/>
<path d="M407.723 847.777C417.531 847.777 421.746 852.337 421.746 861.628V863.779C421.746 869.974 419.854 873.931 415.638 875.91C420.714 877.889 422.693 882.448 422.693 888.815V893.719C422.693 903.01 417.789 908 408.325 908H393.441V847.777H407.723ZM407.121 880.9H402.905V899.397H408.325C411.508 899.397 413.229 897.934 413.229 893.461V888.213C413.229 882.62 411.422 880.9 407.121 880.9ZM407.465 856.38H402.905V872.297H406.604C410.132 872.297 412.283 870.748 412.283 865.93V862.575C412.283 858.273 410.82 856.38 407.465 856.38Z" fill="white"/>
<path d="M434.845 861.628V894.149C434.845 898.45 436.737 900.085 439.749 900.085C442.76 900.085 444.652 898.45 444.652 894.149V861.628C444.652 857.327 442.76 855.692 439.749 855.692C436.737 855.692 434.845 857.327 434.845 861.628ZM425.381 893.547V862.231C425.381 852.595 430.457 847.089 439.749 847.089C449.04 847.089 454.116 852.595 454.116 862.231V893.547C454.116 903.182 449.04 908.688 439.749 908.688C430.457 908.688 425.381 903.182 425.381 893.547Z" fill="white"/>
<path d="M458.029 908V847.777H467.493V899.397H483.065V908H458.029Z" fill="white"/>
<path d="M484.946 908V847.777H499.916C509.379 847.777 514.025 853.025 514.025 862.661V893.116C514.025 902.752 509.379 908 499.916 908H484.946ZM499.744 856.38H494.41V899.397H499.744C502.755 899.397 504.562 897.848 504.562 893.547V862.231C504.562 857.929 502.755 856.38 499.744 856.38Z" fill="white"/>
</svg>
