<svg width="1426" height="610" viewBox="0 0 1426 610" fill="none" xmlns="http://www.w3.org/2000/svg">
<path d="M1114.3 195.136C1114.1 196.872 1113.19 198.16 1111.57 199C1109.94 199.869 1108.19 200.303 1106.32 200.303C1105.03 200.303 1103.85 200.163 1102.79 199.883C1101.72 199.602 1100.83 199.252 1100.1 198.832C1099.37 198.412 1098.7 197.838 1098.08 197.11C1097.5 196.382 1097.02 195.682 1096.66 195.01C1096.29 194.309 1095.93 193.455 1095.56 192.447C1095.23 191.439 1094.96 190.543 1094.77 189.759C1094.57 188.974 1094.33 188.008 1094.05 186.86C1093.77 185.712 1093.52 184.774 1093.29 184.045C1091.56 178.584 1089.64 174.734 1087.54 172.493C1085.44 170.253 1082.62 169.133 1079.1 169.133H1076.11V195.64C1076.11 196.172 1076.39 196.522 1076.95 196.69C1078.02 196.746 1078.75 196.774 1079.14 196.774C1079.56 196.774 1080.24 196.746 1081.2 196.69C1082.15 196.606 1082.81 196.55 1083.17 196.522C1083.67 196.522 1084.01 196.732 1084.18 197.152C1084.35 197.544 1084.32 197.95 1084.1 198.37C1083.9 198.79 1083.59 199 1083.17 199C1083.17 198.888 1079.43 198.86 1071.95 198.916C1064.48 198.972 1060.67 199 1060.53 199C1059.91 199 1059.59 198.608 1059.56 197.824C1059.53 197.012 1059.86 196.606 1060.53 196.606C1060.98 196.606 1061.61 196.634 1062.42 196.69C1063.26 196.718 1064.02 196.732 1064.69 196.732C1065.36 196.732 1066 196.69 1066.62 196.606C1067.26 196.522 1067.59 196.172 1067.59 195.556V142.373C1067.59 141.365 1067.26 140.833 1066.62 140.777C1066.06 140.665 1064.97 140.651 1063.34 140.735C1061.75 140.791 1060.7 140.805 1060.19 140.777C1059.72 140.777 1059.38 140.581 1059.18 140.189C1059.02 139.769 1059.04 139.363 1059.27 138.971C1059.52 138.551 1059.88 138.34 1060.36 138.34C1069.04 138.509 1076.46 138.509 1082.62 138.34C1084.17 138.34 1085.65 138.34 1087.08 138.34C1088.51 138.34 1089.86 138.467 1091.15 138.719C1092.44 138.943 1093.64 139.251 1094.77 139.643C1095.89 140.035 1096.89 140.623 1097.79 141.407C1098.69 142.191 1099.44 143.129 1100.06 144.222C1100.7 145.286 1101.19 146.63 1101.53 148.254C1101.89 149.851 1102.07 151.685 1102.07 153.758C1102.07 156.474 1101.16 158.953 1099.34 161.193C1097.55 163.405 1095.31 165.086 1092.62 166.234C1089.96 167.354 1087.23 167.872 1084.43 167.788L1085.23 167.956C1088.14 168.208 1090.55 168.684 1092.45 169.385C1094.36 170.085 1096.01 171.219 1097.41 172.787C1098.81 174.356 1099.96 176.204 1100.86 178.332C1101.78 180.461 1102.73 183.303 1103.71 186.86C1103.96 187.728 1104.33 189.31 1104.81 191.607C1105.28 193.875 1105.73 195.528 1106.15 196.564C1106.57 197.6 1107.1 198.16 1107.75 198.244C1108.95 198.468 1109.55 197.922 1109.55 196.606C1109.55 196.27 1109.41 195.808 1109.13 195.22C1108.88 194.632 1108.85 194.057 1109.05 193.497C1109.22 192.993 1109.65 192.587 1110.35 192.279C1111.08 191.971 1111.76 191.915 1112.41 192.111C1113 192.307 1113.47 192.769 1113.84 193.497C1114.2 194.197 1114.36 194.744 1114.3 195.136ZM1093.21 153.758C1093.21 152.189 1093.13 150.817 1092.96 149.641C1092.79 148.436 1092.43 147.204 1091.87 145.944C1091.33 144.684 1090.59 143.676 1089.64 142.919C1088.72 142.135 1087.43 141.547 1085.78 141.155C1084.12 140.735 1082.16 140.637 1079.89 140.861C1079.84 140.861 1079.63 140.847 1079.26 140.819C1078.93 140.763 1078.56 140.735 1078.17 140.735C1077.81 140.735 1077.49 140.777 1077.21 140.861C1076.73 141.001 1076.42 141.141 1076.28 141.281C1076.17 141.421 1076.11 141.729 1076.11 142.205V166.654H1079.64C1081.94 166.654 1084.1 166.164 1086.11 165.184C1088.16 164.176 1089.85 162.663 1091.19 160.647C1092.54 158.63 1093.21 156.334 1093.21 153.758Z" fill="white"/>
<path d="M1145.58 188.414C1143.12 195.976 1138.01 199.757 1130.25 199.757C1125.29 199.757 1121.3 198.272 1118.28 195.304C1115.25 192.335 1113.74 188.232 1113.74 182.995C1113.74 181.007 1114.13 178.976 1114.92 176.904C1115.7 174.804 1116.77 172.899 1118.11 171.191C1119.46 169.455 1121.11 168.026 1123.07 166.906C1125.03 165.758 1127.09 165.156 1129.24 165.1C1131.09 165.072 1132.77 165.268 1134.28 165.688C1135.8 166.108 1137.04 166.668 1138.02 167.368C1139.03 168.04 1139.91 168.866 1140.67 169.847C1141.43 170.799 1142.01 171.751 1142.43 172.703C1142.85 173.627 1143.19 174.608 1143.44 175.644C1143.69 176.652 1143.85 177.506 1143.9 178.206C1143.99 178.878 1144.03 179.523 1144.03 180.139C1144.03 180.783 1143.51 181.105 1142.48 181.105H1122.19C1121.91 181.105 1121.77 181.245 1121.77 181.525V186.44C1121.77 187.784 1121.81 188.918 1121.89 189.843C1121.98 190.739 1122.17 191.719 1122.48 192.783C1122.82 193.819 1123.26 194.646 1123.82 195.262C1124.41 195.878 1125.24 196.396 1126.3 196.816C1127.4 197.236 1128.71 197.446 1130.25 197.446C1133.64 197.446 1136.41 196.69 1138.57 195.178C1140.73 193.637 1142.41 191.299 1143.61 188.162C1144.03 187.07 1144.51 186.538 1145.04 186.566C1145.49 186.566 1145.72 186.888 1145.75 187.532C1145.75 187.812 1145.7 188.106 1145.58 188.414ZM1136.13 177.492C1136.13 176.008 1136.05 174.72 1135.88 173.627C1135.74 172.507 1135.45 171.373 1135 170.225C1134.58 169.077 1133.88 168.208 1132.9 167.62C1131.92 167.032 1130.7 166.766 1129.24 166.822C1127.4 166.906 1125.88 167.494 1124.71 168.586C1123.56 169.679 1122.77 170.967 1122.35 172.451C1121.96 173.907 1121.77 175.588 1121.77 177.492C1121.77 178.36 1121.93 178.794 1122.27 178.794H1135.08C1135.78 178.794 1136.13 178.36 1136.13 177.492Z" fill="white"/>
<path d="M1187.29 168.124C1187.29 169.189 1186.94 170.127 1186.24 170.939C1185.57 171.751 1184.8 172.157 1183.93 172.157C1183.12 172.157 1182.44 171.891 1181.91 171.359C1181.38 170.827 1181.11 170.211 1181.11 169.511C1181.11 168.894 1181.16 168.39 1181.24 167.998C1181.35 167.606 1181.46 167.34 1181.58 167.2C1181.69 167.032 1181.87 166.822 1182.12 166.57C1181.31 166.598 1180.46 166.934 1179.56 167.578C1178.66 168.194 1177.86 168.95 1177.16 169.847C1178.17 170.911 1179 172.241 1179.64 173.837C1180.29 175.434 1180.61 177.058 1180.61 178.71C1180.61 181.231 1179.74 183.611 1178 185.852C1176.3 188.092 1173.9 189.717 1170.82 190.725C1167.77 191.733 1164.14 191.537 1159.94 190.137C1157.81 190.137 1156.23 190.445 1155.19 191.061C1154.19 191.649 1153.63 192.741 1153.51 194.337C1153.49 195.346 1153.75 196.046 1154.31 196.438C1154.9 196.83 1155.74 197.054 1156.83 197.11C1161.71 197.39 1167.8 197.39 1175.11 197.11C1178.07 196.97 1180.39 197.838 1182.04 199.715C1183.72 201.591 1184.61 204.391 1184.73 208.116C1184.81 211.309 1183.91 214.207 1182.04 216.812C1180.16 219.416 1177.72 221.405 1174.73 222.777C1171.73 224.177 1168.55 224.877 1165.19 224.877C1163.18 224.877 1161.27 224.681 1159.48 224.289C1157.69 223.897 1155.99 223.295 1154.4 222.483C1152.83 221.671 1151.58 220.523 1150.66 219.038C1149.73 217.582 1149.27 215.86 1149.27 213.871C1149.27 211.547 1150.11 209.432 1151.79 207.528C1153.5 205.624 1155.42 204.447 1157.55 203.999V203.831C1155.25 203.831 1153.51 203.187 1152.34 201.899C1151.19 200.639 1150.69 198.818 1150.83 196.438C1150.97 193.833 1151.53 191.943 1152.51 190.767C1153.49 189.591 1155.19 188.862 1157.63 188.582C1155.61 187.294 1154.17 185.95 1153.3 184.55C1152.46 183.149 1152.04 181.287 1152.04 178.962C1152.04 175.098 1153.46 171.821 1156.29 169.133C1159.11 166.444 1162.46 165.1 1166.33 165.1C1169.58 165.1 1172.59 166.052 1175.36 167.956C1176.28 166.948 1177.44 166.052 1178.84 165.268C1180.25 164.484 1181.6 164.092 1182.92 164.092C1184.21 164.092 1185.26 164.442 1186.07 165.142C1186.88 165.842 1187.29 166.836 1187.29 168.124ZM1173.38 178.08C1173.33 176.848 1173.27 175.882 1173.22 175.182C1173.16 174.454 1173.03 173.613 1172.84 172.661C1172.67 171.681 1172.42 170.925 1172.08 170.393C1171.77 169.861 1171.35 169.343 1170.82 168.838C1170.29 168.306 1169.6 167.942 1168.76 167.746C1167.95 167.55 1166.98 167.466 1165.86 167.494C1164.72 167.522 1163.72 167.704 1162.88 168.04C1162.07 168.376 1161.43 168.866 1160.95 169.511C1160.47 170.127 1160.1 170.743 1159.82 171.359C1159.54 171.947 1159.35 172.731 1159.27 173.711C1159.21 174.692 1159.18 175.504 1159.18 176.148C1159.18 176.764 1159.21 177.59 1159.27 178.626C1159.3 179.579 1159.33 180.223 1159.35 180.559C1159.38 180.867 1159.42 181.441 1159.48 182.281C1159.56 183.093 1159.65 183.667 1159.73 184.003C1159.82 184.311 1159.94 184.788 1160.11 185.432C1160.31 186.048 1160.52 186.496 1160.74 186.776C1160.99 187.028 1161.3 187.35 1161.66 187.742C1162.06 188.134 1162.48 188.414 1162.92 188.582C1163.4 188.722 1163.96 188.848 1164.6 188.96C1165.25 189.072 1165.96 189.114 1166.75 189.086C1168.43 189.03 1169.77 188.666 1170.78 187.994C1171.82 187.322 1172.49 186.482 1172.8 185.474C1173.13 184.438 1173.34 183.275 1173.43 181.987C1173.54 180.699 1173.52 179.397 1173.38 178.08ZM1182.42 208.116C1182.42 207.052 1182.02 206.198 1181.24 205.554C1180.48 204.91 1179.57 204.461 1178.51 204.209C1177.47 203.985 1176.16 203.831 1174.56 203.747C1168.82 203.439 1164.95 203.383 1162.97 203.579C1161.99 203.635 1160.95 203.859 1159.86 204.251C1158.79 204.671 1157.74 205.232 1156.71 205.932C1155.7 206.632 1154.86 207.542 1154.19 208.662C1153.54 209.811 1153.22 211.057 1153.22 212.401C1153.22 214.137 1153.56 215.664 1154.23 216.98C1154.9 218.324 1155.82 219.374 1157 220.131C1158.18 220.887 1159.48 221.447 1160.91 221.811C1162.36 222.203 1163.93 222.399 1165.61 222.399C1168.38 222.399 1171.06 221.755 1173.64 220.467C1176.24 219.178 1178.35 217.414 1179.98 215.174C1181.6 212.961 1182.42 210.609 1182.42 208.116Z" fill="white"/>
<path d="M1226.81 199C1222.94 198.748 1219.22 198.776 1215.63 199.084C1215.44 198.048 1215.3 195.388 1215.21 191.103L1214.92 191.943C1213.86 194.491 1212.23 196.48 1210.05 197.908C1207.89 199.336 1205.48 200.051 1202.82 200.051C1200.64 200.051 1198.83 199.841 1197.4 199.42C1195.97 199 1194.88 198.342 1194.13 197.446C1193.4 196.522 1192.89 195.514 1192.61 194.421C1192.36 193.301 1192.24 191.901 1192.24 190.221V170.183C1192.24 169.287 1191.74 168.796 1190.76 168.712C1189.5 168.628 1188.27 168.628 1187.07 168.712C1186.51 168.712 1186.12 168.516 1185.89 168.124C1185.7 167.704 1185.71 167.284 1185.93 166.864C1186.16 166.444 1186.54 166.234 1187.07 166.234C1190.09 166.374 1191.93 166.43 1192.57 166.402C1194.84 166.262 1196.53 165.828 1197.65 165.1C1198.69 164.428 1199.21 164.568 1199.21 165.52V191.271C1199.21 193.287 1199.67 194.856 1200.59 195.976C1201.52 197.068 1202.68 197.614 1204.08 197.614C1205.45 197.614 1206.78 197.236 1208.07 196.48C1209.36 195.724 1210.47 194.744 1211.39 193.539C1212.32 192.335 1213.07 191.229 1213.66 190.221C1214.25 189.184 1214.77 188.148 1215.21 187.112V169.679C1215.21 169.315 1215.12 169.077 1214.92 168.964C1214.72 168.852 1214.33 168.768 1213.74 168.712H1210.05C1209.35 168.712 1208.88 168.516 1208.66 168.124C1208.46 167.704 1208.52 167.284 1208.83 166.864C1209.14 166.444 1209.54 166.234 1210.05 166.234C1213.07 166.374 1214.91 166.43 1215.55 166.402C1217.82 166.262 1219.48 165.828 1220.55 165.1C1221.19 164.708 1221.61 164.526 1221.81 164.554C1222.03 164.582 1222.14 164.876 1222.14 165.436V194.968C1222.14 195.976 1222.64 196.522 1223.62 196.606C1224.65 196.69 1225.72 196.69 1226.81 196.606C1227.34 196.914 1227.7 197.264 1227.9 197.656C1228.1 198.048 1228.1 198.384 1227.9 198.664C1227.7 198.916 1227.34 199.028 1226.81 199Z" fill="white"/>
<path d="M1248.52 199C1242.8 198.748 1236.98 198.748 1231.04 199C1230.45 199 1230.09 198.664 1229.95 197.992C1229.81 197.292 1229.99 196.844 1230.49 196.648C1230.66 196.592 1230.84 196.578 1231.04 196.606C1232.5 196.774 1233.95 196.774 1235.41 196.606C1235.86 196.578 1236.12 196.508 1236.21 196.396C1236.32 196.256 1236.38 196.06 1236.38 195.808V142.289C1236.38 141.365 1235.89 140.861 1234.91 140.777C1233.81 140.693 1232.72 140.693 1231.63 140.777C1231.1 140.777 1230.72 140.581 1230.49 140.189C1230.3 139.769 1230.31 139.363 1230.54 138.971C1230.76 138.551 1231.12 138.34 1231.63 138.34C1233.98 138.453 1235.62 138.481 1236.54 138.424C1238.53 138.312 1240.28 137.654 1241.79 136.45C1242.61 135.778 1243.07 135.498 1243.18 135.61C1243.24 135.694 1243.26 135.89 1243.26 136.198V195.64C1243.26 196.2 1243.57 196.522 1244.19 196.606C1245.76 196.774 1247.2 196.774 1248.52 196.606C1249.08 196.494 1249.41 196.76 1249.52 197.404C1249.66 198.076 1249.5 198.566 1249.02 198.874C1248.88 198.958 1248.71 199 1248.52 199Z" fill="white"/>
<path d="M1285.85 197.614C1284.11 199.042 1282.28 199.757 1280.35 199.757C1278.36 199.757 1276.73 199.308 1275.47 198.412C1274.21 197.488 1273.43 196.256 1273.12 194.716C1273.12 194.604 1273.08 194.548 1273 194.548C1272.94 194.548 1272.9 194.604 1272.87 194.716C1272 196.228 1270.74 197.446 1269.09 198.37C1267.44 199.294 1265.55 199.757 1263.42 199.757C1260.11 199.757 1257.57 199.014 1255.77 197.53C1253.98 196.018 1253.08 193.875 1253.08 191.103C1253.08 189.17 1253.7 187.462 1254.93 185.978C1256.16 184.494 1257.76 183.345 1259.72 182.533C1261.68 181.721 1263.63 181.119 1265.56 180.727C1267.52 180.307 1269.47 180.055 1271.4 179.971C1272.44 179.971 1272.95 179.803 1272.95 179.467V171.905C1272.95 168.908 1271.58 167.41 1268.84 167.41C1267.49 167.41 1266.25 167.522 1265.1 167.746C1263.95 167.942 1262.94 168.306 1262.07 168.838C1261.23 169.371 1260.81 170.043 1260.81 170.855C1260.81 171.275 1260.95 171.569 1261.23 171.737C1261.54 171.905 1261.86 172.017 1262.2 172.073C1262.54 172.101 1262.84 172.325 1263.12 172.745C1263.43 173.165 1263.59 173.795 1263.59 174.636C1263.59 175.364 1263.22 175.952 1262.49 176.4C1261.79 176.848 1260.87 177.072 1259.72 177.072C1258.66 177.072 1257.76 176.638 1257.03 175.77C1256.3 174.874 1256 173.781 1256.11 172.493C1256.25 170.617 1257.59 168.95 1260.14 167.494C1262.69 166.01 1265.73 165.212 1269.26 165.1C1272.31 165.1 1274.84 165.926 1276.86 167.578C1278.91 169.231 1279.93 171.471 1279.93 174.3V194.337C1279.93 195.262 1280.07 195.92 1280.35 196.312C1280.66 196.676 1281.34 196.858 1282.41 196.858C1282.63 196.858 1282.83 196.844 1282.99 196.816C1283.16 196.788 1283.34 196.732 1283.54 196.648C1283.74 196.564 1283.88 196.494 1283.96 196.438C1284.07 196.382 1284.25 196.284 1284.51 196.144C1284.76 195.976 1284.93 195.864 1285.01 195.808C1285.23 195.668 1285.46 195.696 1285.68 195.892C1285.93 196.06 1286.07 196.312 1286.1 196.648C1286.16 196.956 1286.07 197.278 1285.85 197.614ZM1272.95 191.943V182.743C1272.95 182.351 1272.49 182.183 1271.57 182.239C1268.52 182.435 1266.36 182.743 1265.1 183.163C1262.05 184.283 1260.51 186.496 1260.48 189.801C1260.48 192.293 1260.87 194.071 1261.65 195.136C1262.47 196.172 1264.09 196.69 1266.53 196.69C1266.95 196.69 1267.37 196.62 1267.79 196.48C1268.24 196.34 1268.66 196.144 1269.05 195.892C1269.44 195.612 1269.79 195.346 1270.1 195.094C1270.43 194.842 1270.77 194.534 1271.11 194.169C1271.47 193.777 1271.74 193.483 1271.9 193.287C1272.1 193.063 1272.32 192.783 1272.58 192.447L1272.95 191.943Z" fill="white"/>
<path d="M1315.04 168.124C1315.57 169.245 1315.51 170.575 1314.87 172.115C1314.25 173.627 1313.27 174.384 1311.93 174.384C1311.42 174.384 1310.91 174.342 1310.37 174.258C1309.87 174.146 1309.34 173.865 1308.78 173.417C1308.24 172.969 1307.98 172.381 1307.98 171.653C1307.98 170.869 1308.05 170.253 1308.19 169.805C1308.33 169.357 1308.48 169.091 1308.65 169.006C1308.85 168.894 1309.01 168.768 1309.15 168.628C1309.29 168.46 1309.36 168.264 1309.36 168.04C1309.36 167.62 1308.85 167.41 1307.81 167.41C1307.08 167.41 1306.3 167.606 1305.46 167.998C1304.65 168.39 1303.81 169.02 1302.94 169.889C1302.1 170.757 1301.34 171.807 1300.67 173.039C1300 174.244 1299.44 175.77 1298.99 177.618C1298.57 179.439 1298.36 181.427 1298.36 183.583V195.64C1298.36 196.2 1298.67 196.522 1299.28 196.606C1301.27 196.886 1303.08 196.886 1304.7 196.606C1305.23 196.494 1305.54 196.788 1305.63 197.488C1305.74 198.188 1305.57 198.664 1305.12 198.916C1305.01 198.972 1304.9 199 1304.79 199C1298.54 198.72 1292.16 198.72 1285.63 199C1285.1 199 1284.75 198.664 1284.58 197.992C1284.44 197.292 1284.61 196.844 1285.08 196.648C1285.25 196.592 1285.43 196.578 1285.63 196.606C1287.25 196.774 1288.85 196.774 1290.42 196.606C1290.87 196.578 1291.13 196.508 1291.22 196.396C1291.33 196.256 1291.39 196.06 1291.39 195.808L1291.47 170.267C1291.47 169.259 1290.98 168.712 1290 168.628C1287.87 168.488 1286.44 168.488 1285.71 168.628C1285.15 168.74 1284.79 168.474 1284.62 167.83C1284.45 167.13 1284.62 166.64 1285.13 166.36C1285.29 166.276 1285.49 166.234 1285.71 166.234C1287.59 166.318 1289.42 166.318 1291.22 166.234C1293.04 166.15 1294.79 165.52 1296.47 164.344C1296.92 164.036 1297.2 163.853 1297.31 163.797C1297.45 163.741 1297.56 163.769 1297.64 163.881C1297.76 163.966 1297.85 164.204 1297.94 164.596C1298.3 166.892 1298.44 169.959 1298.36 173.795L1298.53 174.216C1298.81 173.123 1299.18 172.073 1299.66 171.065C1300.16 170.057 1300.82 169.049 1301.64 168.04C1302.45 167.032 1303.51 166.22 1304.83 165.604C1306.14 164.988 1307.6 164.68 1309.2 164.68C1310.65 164.68 1311.86 164.946 1312.81 165.478C1313.76 165.982 1314.5 166.864 1315.04 168.124Z" fill="white"/>
<path d="M1105.94 62.7815C1105.97 63.1176 1105.73 63.4116 1105.23 63.6637C1104.72 63.8877 1104.19 63.9997 1103.63 63.9997H1059.94C1059.55 63.9997 1059.24 63.8037 1059.02 63.4116C1058.82 63.0196 1058.79 62.6275 1058.93 62.2354C1059.1 61.8153 1059.44 61.6053 1059.94 61.6053C1061.87 61.8293 1063.53 61.8293 1064.9 61.6053C1065.74 61.4933 1066.3 61.2132 1066.58 60.7651C1066.86 60.289 1067 59.5329 1067 58.4967V8.00276C1067 7.52667 1066.83 7.02257 1066.49 6.49047C1066.19 5.95836 1065.86 5.67831 1065.53 5.6503C1064.94 5.56628 1064.34 5.52427 1063.72 5.52427C1063.13 5.52427 1062.46 5.55228 1061.7 5.60829C1060.98 5.6363 1060.39 5.6503 1059.94 5.6503C1059.38 5.6503 1059.02 5.45426 1058.85 5.06218C1058.68 4.6421 1058.71 4.23602 1058.93 3.84395C1059.18 3.45187 1059.52 3.25583 1059.94 3.25583C1060.08 3.36785 1063.55 3.39586 1070.36 3.33985C1077.16 3.28384 1080.62 3.25583 1080.73 3.25583C1081.38 3.25583 1081.77 3.5919 1081.91 4.26403C1082.05 4.90815 1081.87 5.34224 1081.36 5.56628C1081.2 5.6503 1080.99 5.67831 1080.73 5.6503C1078.8 5.48227 1076.94 5.48227 1075.15 5.6503C1074.76 5.70631 1074.38 5.93035 1074.01 6.32243C1073.68 6.6865 1073.51 7.10659 1073.51 7.58268L1073.43 60.219C1073.4 60.5271 1073.43 60.7791 1073.51 60.9752C1073.62 61.1432 1073.8 61.2552 1074.06 61.3112C1074.34 61.3672 1074.52 61.4092 1074.6 61.4372C1074.71 61.4372 1074.9 61.4372 1075.15 61.4372C1076.04 61.4372 1077.09 61.4653 1078.3 61.5213C1079.53 61.5773 1080.69 61.6053 1081.78 61.6053C1083.94 61.6333 1085.78 61.6333 1087.29 61.6053C1088.8 61.5493 1090.33 61.4372 1091.87 61.2692C1093.41 61.1012 1094.68 60.8491 1095.69 60.5131C1096.7 60.177 1097.68 59.7289 1098.63 59.1688C1099.58 58.5807 1100.34 57.8805 1100.9 57.0684C1101.46 56.2282 1101.96 55.234 1102.41 54.0858C1102.86 52.9096 1103.17 51.5793 1103.33 50.095C1103.53 48.5827 1103.63 46.8464 1103.63 44.886C1103.63 44.3259 1104.01 44.0458 1104.76 44.0458C1105.55 44.0458 1105.94 44.3259 1105.94 44.886C1105.58 51.6913 1105.58 57.6565 1105.94 62.7815Z" fill="white"/>
<path d="M1117.44 8.25481C1118.28 9.12298 1118.7 10.1592 1118.7 11.3634C1118.7 12.5677 1118.28 13.6039 1117.44 14.472C1116.63 15.3122 1115.65 15.7323 1114.5 15.7323C1113.35 15.7323 1112.36 15.3122 1111.52 14.472C1110.68 13.6039 1110.26 12.5677 1110.26 11.3634C1110.26 10.1592 1110.68 9.12298 1111.52 8.25481C1112.36 7.38664 1113.35 6.95256 1114.5 6.95256C1115.65 6.95256 1116.63 7.38664 1117.44 8.25481ZM1122.56 63.9997C1117.47 63.7477 1112.23 63.7477 1106.85 63.9997C1106.32 63.9997 1105.97 63.6637 1105.8 62.9915C1105.66 62.2914 1105.83 61.8433 1106.31 61.6473C1106.48 61.5913 1106.66 61.5773 1106.85 61.6053C1108.28 61.8293 1109.71 61.8293 1111.14 61.6053C1111.45 61.5773 1111.67 61.5213 1111.81 61.4372C1111.95 61.3532 1112.02 61.2832 1112.02 61.2272C1112.05 61.1432 1112.06 61.0032 1112.06 60.8071V35.6022C1112.06 34.3139 1111.59 33.6278 1110.63 33.5438C1110.52 33.5158 1109.98 33.5158 1109 33.5438C1108.02 33.5438 1107.47 33.5438 1107.36 33.5438C1106.85 33.5438 1106.49 33.3477 1106.27 32.9557C1106.04 32.5356 1106.04 32.1295 1106.27 31.7374C1106.49 31.3453 1106.85 31.1493 1107.36 31.1493C1108.06 31.1773 1108.84 31.2333 1109.71 31.3173C1110.61 31.3733 1111.22 31.4014 1111.56 31.4014C1111.89 31.4014 1112.29 31.4014 1112.73 31.4014C1113.21 31.3733 1113.56 31.3033 1113.78 31.1913C1114.01 31.0793 1114.25 30.9253 1114.5 30.7292C1114.78 30.5052 1115.09 30.2111 1115.42 29.847C1116.46 28.5588 1116.98 28.7268 1116.98 30.3511V60.6391C1116.98 61.1992 1117.27 61.5213 1117.86 61.6053C1118.36 61.6893 1118.88 61.7313 1119.41 61.7313C1119.97 61.7313 1120.56 61.7173 1121.18 61.6893C1121.79 61.6333 1122.26 61.6053 1122.56 61.6053C1123.07 61.6053 1123.39 61.8013 1123.53 62.1934C1123.7 62.5855 1123.67 62.9916 1123.45 63.4116C1123.25 63.8037 1122.96 63.9997 1122.56 63.9997Z" fill="white"/>
<path d="M1160.7 33.0397C1160.7 34.1039 1160.35 35.0421 1159.65 35.8542C1158.98 36.6664 1158.2 37.0725 1157.34 37.0725C1156.52 37.0725 1155.85 36.8064 1155.32 36.2743C1154.79 35.7142 1154.52 35.0841 1154.52 34.3839C1154.52 33.7678 1154.56 33.2637 1154.65 32.8716C1154.76 32.4796 1154.87 32.2135 1154.98 32.0735C1155.1 31.9335 1155.28 31.7374 1155.53 31.4854C1154.69 31.5134 1153.81 31.8494 1152.88 32.4936C1151.99 33.1097 1151.2 33.8658 1150.53 34.762C1151.54 35.8262 1152.37 37.0585 1153.01 38.4587C1153.65 39.831 1153.98 41.1193 1153.98 42.3235C1153.98 45.012 1153.15 47.5325 1151.5 49.885C1149.85 52.2374 1147.56 53.9458 1144.65 55.01C1141.74 56.0462 1138.31 55.9202 1134.36 54.6319C1132.62 54.6319 1131.14 54.968 1129.91 55.6401C1128.7 56.2842 1128.04 57.3484 1127.93 58.8327C1127.87 59.953 1128.14 60.9331 1128.73 61.7733C1129.32 62.5855 1130.17 63.0476 1131.29 63.1596C1136 63.4396 1141.72 63.4396 1148.47 63.1596C1151.64 63.0196 1154.2 63.8317 1156.16 65.5961C1158.15 67.3604 1159.14 70.273 1159.14 74.3338C1159.14 77.1343 1158.22 79.7388 1156.37 82.1473C1154.55 84.5838 1152.21 86.4742 1149.36 87.8184C1146.53 89.1907 1143.63 89.8768 1140.66 89.8768C1138.45 89.8768 1136.35 89.6248 1134.36 89.1207C1132.37 88.6166 1130.56 87.8604 1128.94 86.8522C1127.34 85.872 1126.07 84.5418 1125.12 82.8615C1124.16 81.2091 1123.69 79.3048 1123.69 77.1483C1123.69 75.1319 1124.54 73.1996 1126.25 71.3512C1127.99 69.5028 1129.89 68.3686 1131.96 67.9485V67.7805C1129.7 67.7805 1127.97 67.0663 1126.8 65.6381C1125.62 64.2098 1125.1 62.2914 1125.24 59.8829C1125.24 58.1466 1125.86 56.6623 1127.09 55.4301C1128.32 54.1698 1130.33 53.3857 1133.1 53.0776C1131.14 51.8174 1129.71 50.3611 1128.81 48.7087C1127.94 47.0564 1127.51 44.956 1127.51 42.4075C1127.51 38.9908 1128.74 36.0783 1131.21 33.6698C1133.67 31.2333 1136.68 30.0151 1140.24 30.0151C1141.67 30.0151 1142.94 30.1691 1144.06 30.4772C1145.18 30.7852 1145.98 31.0933 1146.46 31.4014C1146.96 31.6814 1147.72 32.1715 1148.73 32.8716C1149.65 31.8354 1150.81 30.9253 1152.21 30.1411C1153.64 29.357 1155.01 28.9649 1156.33 28.9649C1157.62 28.9649 1158.67 29.3289 1159.48 30.0571C1160.29 30.7572 1160.7 31.7514 1160.7 33.0397ZM1148.81 42.3235C1148.75 40.6712 1148.6 39.2989 1148.35 38.2067C1148.09 37.1145 1147.66 36.1063 1147.04 35.1821C1146.46 34.2299 1145.6 33.5298 1144.48 33.0817C1143.39 32.6336 1142 32.4096 1140.32 32.4096C1138.95 32.4096 1137.77 32.6056 1136.79 32.9977C1135.81 33.3897 1135.04 33.8938 1134.48 34.51C1133.92 35.0981 1133.49 35.8542 1133.18 36.7784C1132.9 37.6746 1132.72 38.5568 1132.64 39.4249C1132.58 40.2931 1132.58 41.2593 1132.64 42.3235C1132.72 44.1719 1132.87 45.7122 1133.1 46.9444C1133.32 48.1766 1133.71 49.3529 1134.27 50.4731C1134.86 51.5653 1135.72 52.3775 1136.84 52.9096C1137.98 53.4137 1139.43 53.6377 1141.16 53.5817C1142.54 53.5257 1143.71 53.2596 1144.69 52.7835C1145.7 52.3075 1146.47 51.7333 1147 51.0612C1147.56 50.3611 1147.98 49.4929 1148.26 48.4567C1148.57 47.4205 1148.75 46.4403 1148.81 45.5161C1148.87 44.5639 1148.87 43.4997 1148.81 42.3235ZM1156.75 74.4178C1156.69 73.0735 1156.41 71.9253 1155.91 70.9731C1155.4 70.0489 1154.75 69.3628 1153.93 68.9147C1153.12 68.4666 1152.32 68.1446 1151.54 67.9485C1150.76 67.7805 1149.92 67.6965 1149.02 67.6965C1148.07 67.6965 1146.64 67.6825 1144.73 67.6545C1142.83 67.6265 1141.32 67.6125 1140.2 67.6125C1139.11 67.6405 1138.17 67.6965 1137.38 67.7805C1136.6 67.8365 1135.79 67.9765 1134.95 68.2006C1134.11 68.4526 1133.24 68.8167 1132.34 69.2928C1131.47 69.7969 1130.69 70.385 1129.99 71.0571C1129.32 71.7573 1128.76 72.6254 1128.31 73.6616C1127.89 74.6978 1127.68 75.8321 1127.68 77.0643C1127.68 80.2289 1128.93 82.7634 1131.42 84.6678C1133.91 86.6002 1136.96 87.5664 1140.58 87.5664C1142.68 87.5664 1144.64 87.2583 1146.46 86.6422C1148.3 86.0541 1149.85 85.2839 1151.08 84.3317C1152.34 83.3796 1153.42 82.3153 1154.31 81.1391C1155.21 79.9629 1155.85 78.7867 1156.24 77.6104C1156.64 76.4622 1156.8 75.398 1156.75 74.4178Z" fill="white"/>
<path d="M1200.76 63.9157C1195.25 63.6637 1189.77 63.6637 1184.34 63.9157C1183.75 63.9157 1183.41 63.5797 1183.33 62.9075C1183.22 62.2354 1183.4 61.8153 1183.88 61.6473C1184.02 61.5913 1184.17 61.5773 1184.34 61.6053C1185.79 61.8293 1187.31 61.8013 1188.87 61.5213C1189.35 61.4933 1189.64 61.4232 1189.76 61.3112C1189.87 61.1712 1189.92 60.9752 1189.92 60.7231V38.6268C1189.92 36.4984 1189.45 34.93 1188.5 33.9218C1187.57 32.9136 1186.58 32.4096 1185.51 32.4096C1183.92 32.4096 1182.41 32.6476 1180.98 33.1237C1179.58 33.5998 1178.4 34.1739 1177.45 34.846C1176.5 35.4902 1175.56 36.3303 1174.63 37.3665C1173.74 38.4027 1173.05 39.2989 1172.58 40.0551C1172.1 40.7832 1171.57 41.6794 1170.98 42.7436V60.5551C1170.98 61.1152 1171.3 61.4372 1171.95 61.5213C1173.46 61.6893 1174.86 61.6893 1176.15 61.5213C1176.71 61.4092 1177.04 61.6753 1177.15 62.3194C1177.29 62.9916 1177.13 63.4816 1176.65 63.7897C1176.51 63.8737 1176.34 63.9157 1176.15 63.9157C1171.11 63.7477 1165.98 63.7477 1160.77 63.9157C1160.24 63.9157 1159.89 63.5797 1159.72 62.9075C1159.58 62.2074 1159.75 61.7593 1160.22 61.5633C1160.39 61.5073 1160.57 61.4933 1160.77 61.5213C1162.31 61.6893 1163.77 61.6893 1165.14 61.5213C1165.59 61.4933 1165.85 61.4232 1165.94 61.3112C1166.05 61.1712 1166.11 60.9752 1166.11 60.7231V7.45665C1166.11 6.95256 1166.01 6.58848 1165.81 6.36444C1165.62 6.11239 1165.25 5.97236 1164.72 5.94436C1163.63 5.86034 1162.56 5.86034 1161.53 5.94436C1160.69 6.05638 1160.22 5.76232 1160.14 5.06218C1160.06 4.44606 1160.29 3.98397 1160.86 3.67591C1161.05 3.56389 1161.28 3.50788 1161.53 3.50788C1163.77 3.6199 1165.41 3.64791 1166.44 3.5919C1167.03 3.47987 1168.08 2.82174 1169.59 1.61751C1170.29 1.0574 1170.68 0.777344 1170.77 0.777344C1170.88 0.777344 1170.95 1.0854 1170.98 1.70153V38.6268C1170.98 38.8228 1170.99 38.9208 1171.02 38.9208C1170.99 38.9208 1171.09 38.7668 1171.32 38.4587C1172.21 37.2265 1173.05 36.1903 1173.84 35.3501C1174.62 34.482 1175.59 33.5998 1176.73 32.7036C1177.88 31.8074 1179.18 31.1353 1180.64 30.6872C1182.13 30.2391 1183.75 30.0151 1185.51 30.0151C1187.42 30.0151 1189.01 30.2671 1190.3 30.7712C1191.62 31.2753 1192.61 32.0035 1193.29 32.9557C1193.96 33.8798 1194.42 34.874 1194.67 35.9382C1194.95 37.0024 1195.09 38.2347 1195.09 39.635V60.5551C1195.09 61.1152 1195.4 61.4372 1196.02 61.5213C1197.7 61.6893 1199.28 61.6893 1200.76 61.5213C1201.29 61.4092 1201.6 61.6753 1201.69 62.3194C1201.8 63.0196 1201.62 63.5096 1201.14 63.7897C1201.03 63.8737 1200.9 63.9157 1200.76 63.9157Z" fill="white"/>
<path d="M1223.39 60.8911C1222.53 61.9554 1221.43 62.8655 1220.12 63.6217C1218.8 64.3778 1217.37 64.7559 1215.83 64.7559C1212.86 64.7559 1210.76 64.1958 1209.53 63.0756C1208.3 61.9273 1207.68 59.939 1207.68 57.1104V34.594C1207.68 34.3979 1207.67 34.2579 1207.64 34.1739C1207.61 34.0899 1207.53 34.0059 1207.39 33.9218C1207.25 33.8098 1207.03 33.7398 1206.72 33.7118C1205.4 33.5998 1204.52 33.5718 1204.07 33.6278C1203.45 33.7398 1203.09 33.4878 1202.98 32.8716C1202.87 32.2275 1203.06 31.7514 1203.57 31.4434C1203.74 31.3593 1203.93 31.3173 1204.16 31.3173C1205.02 31.2893 1205.79 31.1493 1206.47 30.8973C1207.17 30.6172 1207.71 30.3091 1208.1 29.9731C1208.52 29.637 1208.9 29.1749 1209.24 28.5868C1209.6 27.9987 1209.85 27.5086 1209.99 27.1165C1210.16 26.7244 1210.36 26.1643 1210.58 25.4362C1210.83 24.708 1211.02 24.2039 1211.13 23.9239C1211.35 23.3078 1211.58 22.9297 1211.8 22.7897C1212.05 22.6216 1212.23 22.6636 1212.35 22.9157C1212.49 23.1397 1212.56 23.4758 1212.56 23.9239V30.2671C1212.56 30.4912 1212.56 30.6312 1212.56 30.6872C1212.56 30.7432 1212.58 30.8412 1212.64 30.9813C1212.7 31.1213 1212.79 31.2193 1212.93 31.2753C1213.1 31.3033 1213.33 31.3173 1213.61 31.3173H1221.5C1221.95 31.3173 1222.27 31.5134 1222.47 31.9055C1222.67 32.2975 1222.67 32.7036 1222.47 33.1237C1222.3 33.5158 1221.98 33.7118 1221.5 33.7118C1220.05 33.5998 1217.58 33.5438 1214.11 33.5438C1213.86 33.5438 1213.63 33.5578 1213.44 33.5858C1213.27 33.5858 1213.13 33.6138 1213.02 33.6698C1212.91 33.6978 1212.81 33.7258 1212.72 33.7538C1212.67 33.7818 1212.63 33.8518 1212.6 33.9639C1212.57 34.0479 1212.56 34.1039 1212.56 34.1319C1212.56 34.1599 1212.56 34.2439 1212.56 34.3839C1212.56 34.496 1212.56 34.566 1212.56 34.594V57.6985C1212.56 60.8071 1213.68 62.3614 1215.92 62.3614C1216.39 62.3614 1216.83 62.3474 1217.22 62.3194C1217.61 62.2634 1217.98 62.1794 1218.31 62.0674C1218.65 61.9273 1218.91 61.8293 1219.11 61.7733C1219.33 61.6893 1219.59 61.5213 1219.87 61.2692C1220.17 61.0172 1220.38 60.8351 1220.5 60.7231C1220.64 60.6111 1220.87 60.373 1221.21 60.009C1221.57 59.6449 1221.83 59.3928 1221.97 59.2528C1222.27 58.9448 1222.58 58.8747 1222.89 59.0428C1223.23 59.1828 1223.44 59.4489 1223.52 59.8409C1223.6 60.205 1223.56 60.5551 1223.39 60.8911Z" fill="white"/>
<path d="M1104.18 305.435C1108.01 308.208 1109.93 312.114 1109.93 317.155C1109.93 322.196 1107.82 326.313 1103.59 329.506C1099.39 332.698 1093.49 334.197 1085.9 334.001C1081.62 333.889 1072.96 333.889 1059.94 334.001C1059.52 334.001 1059.24 333.861 1059.1 333.581C1058.96 333.3 1058.98 332.964 1059.14 332.572C1059.31 332.152 1059.58 331.774 1059.94 331.438C1060.14 331.438 1060.57 331.452 1061.24 331.48C1061.94 331.508 1062.48 331.522 1062.84 331.522C1063.2 331.494 1063.64 331.438 1064.14 331.354C1064.65 331.27 1065.01 331.102 1065.23 330.85C1065.49 330.57 1065.61 330.22 1065.61 329.8V277.289C1065.61 276.897 1065.49 276.589 1065.23 276.365C1065.01 276.113 1064.63 275.945 1064.1 275.861C1063.6 275.777 1063.15 275.735 1062.76 275.735C1062.39 275.707 1061.87 275.707 1061.2 275.735C1060.53 275.763 1060.11 275.777 1059.94 275.777C1059.47 275.777 1059.23 275.343 1059.23 274.475C1059.23 273.607 1059.47 273.173 1059.94 273.173C1073.41 273.285 1082.39 273.285 1086.87 273.173C1089.33 273.117 1091.69 273.341 1093.93 273.845C1096.19 274.321 1098.28 275.091 1100.19 276.155C1102.09 277.219 1103.62 278.69 1104.76 280.566C1105.91 282.414 1106.49 284.543 1106.49 286.951C1106.49 289.164 1105.97 291.166 1104.93 292.959C1103.92 294.751 1102.58 296.179 1100.9 297.243C1099.22 298.308 1097.38 299.12 1095.4 299.68C1093.41 300.24 1091.36 300.52 1089.26 300.52V300.688C1095.37 301.052 1100.34 302.634 1104.18 305.435ZM1093.84 289.514C1093.84 284.501 1092.99 280.958 1091.28 278.886C1089.6 276.813 1086.92 275.777 1083.26 275.777C1083.06 275.777 1082.7 275.763 1082.16 275.735C1081.66 275.707 1081.25 275.707 1080.95 275.735C1080.64 275.735 1080.29 275.763 1079.9 275.819C1079.5 275.875 1079.21 276.015 1079.01 276.239C1078.85 276.435 1078.76 276.701 1078.76 277.037V299.344C1078.76 299.596 1078.86 299.806 1079.06 299.974C1079.28 300.142 1079.6 300.254 1080.02 300.31C1080.44 300.366 1080.81 300.394 1081.11 300.394C1081.45 300.394 1081.88 300.394 1082.42 300.394C1082.98 300.366 1083.31 300.352 1083.42 300.352C1090.37 300.352 1093.84 296.739 1093.84 289.514ZM1095.73 317.239C1095.73 312.702 1094.74 309.286 1092.75 306.989C1090.76 304.693 1087.82 303.377 1083.93 303.041C1083.79 303.041 1083.4 303.027 1082.75 302.999C1082.14 302.971 1081.66 302.971 1081.32 302.999C1080.99 303.027 1080.58 303.083 1080.11 303.167C1079.66 303.223 1079.32 303.377 1079.1 303.629C1078.87 303.853 1078.76 304.147 1078.76 304.511V329.968C1078.76 330.332 1078.85 330.64 1079.01 330.892C1079.18 331.116 1079.43 331.27 1079.77 331.354C1080.13 331.41 1080.43 331.452 1080.65 331.48C1080.9 331.508 1081.27 331.508 1081.74 331.48C1082.22 331.452 1082.51 331.438 1082.63 331.438C1087.08 331.438 1090.37 330.374 1092.5 328.245C1094.65 326.089 1095.73 322.42 1095.73 317.239Z" fill="white"/>
<path d="M1155.33 317.911C1155.33 320.656 1154.8 323.12 1153.74 325.305C1152.7 327.489 1151.26 329.268 1149.41 330.64C1147.59 331.984 1145.47 333.006 1143.07 333.707C1140.68 334.407 1138.09 334.757 1135.29 334.757C1132.49 334.757 1129.89 334.407 1127.48 333.707C1125.1 333.006 1122.99 331.984 1121.14 330.64C1119.32 329.268 1117.87 327.489 1116.81 325.305C1115.77 323.12 1115.26 320.656 1115.26 317.911C1115.26 314.243 1116.17 311.036 1117.99 308.292C1119.81 305.547 1122.22 303.489 1125.21 302.116C1128.24 300.716 1131.6 300.016 1135.29 300.016C1138.99 300.016 1142.34 300.716 1145.33 302.116C1148.36 303.489 1150.78 305.547 1152.6 308.292C1154.42 311.036 1155.33 314.243 1155.33 317.911ZM1142.18 324.297V311.106C1142.18 305.197 1139.89 302.242 1135.29 302.242C1130.7 302.242 1128.4 305.197 1128.4 311.106V324.297C1128.4 326.369 1129.03 328.245 1130.29 329.926C1131.58 331.606 1133.25 332.446 1135.29 332.446C1137.28 332.446 1138.92 331.55 1140.21 329.758C1141.53 327.965 1142.18 326.145 1142.18 324.297Z" fill="white"/>
<path d="M1183.55 334.085C1175.04 333.805 1167.27 333.777 1160.24 334.001C1159.79 334.001 1159.44 333.763 1159.19 333.286C1158.93 332.81 1158.89 332.334 1159.06 331.858C1159.23 331.382 1159.62 331.144 1160.24 331.144C1160.49 331.144 1160.92 331.186 1161.54 331.27C1162.18 331.326 1162.73 331.354 1163.18 331.354C1163.63 331.354 1164.09 331.312 1164.56 331.228C1165.04 331.144 1165.4 330.934 1165.66 330.598C1165.94 330.262 1166.08 329.814 1166.08 329.254V277.458C1166.08 276.617 1165.87 276.113 1165.45 275.945C1165.03 275.777 1164.02 275.707 1162.42 275.735C1161.52 275.763 1160.8 275.777 1160.24 275.777C1159.76 275.777 1159.52 275.343 1159.52 274.475C1159.52 273.607 1159.76 273.173 1160.24 273.173C1160.91 273.173 1161.83 273.201 1163.01 273.257C1164.19 273.313 1165.04 273.341 1165.57 273.341C1167.03 273.341 1168.01 273.341 1168.51 273.341C1169.02 273.341 1169.81 273.313 1170.91 273.257C1172.03 273.173 1172.84 273.061 1173.34 272.921C1173.88 272.753 1174.45 272.529 1175.07 272.248C1175.68 271.94 1176.19 271.562 1176.58 271.114C1177.14 270.61 1177.46 270.372 1177.54 270.4C1177.66 270.428 1177.71 270.722 1177.71 271.282V329.8C1177.71 330.22 1177.82 330.556 1178.05 330.808C1178.3 331.032 1178.66 331.172 1179.14 331.228C1179.62 331.284 1180.06 331.312 1180.48 331.312C1180.93 331.312 1181.48 331.284 1182.12 331.228C1182.77 331.172 1183.24 331.144 1183.55 331.144C1184.14 331.144 1184.5 331.396 1184.64 331.9C1184.78 332.376 1184.73 332.866 1184.48 333.37C1184.22 333.847 1183.91 334.085 1183.55 334.085Z" fill="white"/>
<path d="M1234.29 334.169C1228.04 333.861 1222.87 333.805 1218.79 334.001C1218.65 334.001 1218.48 334.001 1218.28 334.001C1218.11 334.001 1218 334.001 1217.95 334.001C1217.92 334.029 1217.86 334.029 1217.78 334.001C1217.69 333.973 1217.65 333.945 1217.65 333.917C1217.65 333.889 1217.64 333.819 1217.61 333.707C1217.58 333.595 1217.57 333.483 1217.57 333.37C1217.57 333.23 1217.55 333.034 1217.53 332.782C1217.5 332.53 1217.46 332.278 1217.4 332.026L1216.81 328.414C1216.81 328.329 1216.8 328.245 1216.77 328.161L1216.73 328.077C1216.67 328.189 1216.61 328.273 1216.56 328.329C1214.35 332.866 1210.85 335.135 1206.06 335.135C1204.29 335.135 1202.57 334.925 1200.89 334.505C1199.24 334.113 1197.64 333.455 1196.1 332.53C1194.56 331.606 1193.2 330.5 1192.03 329.212C1190.88 327.895 1189.95 326.271 1189.25 324.339C1188.58 322.378 1188.25 320.236 1188.25 317.911C1188.25 312.338 1189.81 307.984 1192.95 304.847C1196.09 301.682 1200.48 300.1 1206.14 300.1C1211.07 300.1 1214.57 302.312 1216.64 306.737H1216.81V277.584C1216.81 277.051 1216.66 276.631 1216.35 276.323C1216.04 276.015 1215.58 275.819 1214.96 275.735C1214.37 275.651 1213.83 275.609 1213.32 275.609C1212.82 275.609 1212.18 275.637 1211.39 275.693C1210.64 275.749 1210.12 275.777 1209.84 275.777C1209.39 275.777 1209.08 275.567 1208.91 275.147C1208.75 274.699 1208.75 274.265 1208.91 273.845C1209.08 273.397 1209.39 273.173 1209.84 273.173C1210.57 273.173 1211.67 273.187 1213.16 273.215C1214.64 273.243 1215.72 273.257 1216.39 273.257C1219.39 273.257 1221.78 273.005 1223.57 272.501C1225.39 271.968 1226.81 270.988 1227.82 269.56C1228.24 268.972 1228.45 269.084 1228.45 269.896V329.8C1228.45 330.332 1228.57 330.752 1228.83 331.06C1229.11 331.34 1229.48 331.522 1229.96 331.606C1230.46 331.69 1230.94 331.732 1231.39 331.732C1231.84 331.704 1232.37 331.662 1232.98 331.606C1233.6 331.55 1234.03 331.522 1234.29 331.522C1234.85 331.522 1235.13 331.97 1235.13 332.866C1235.13 333.735 1234.85 334.169 1234.29 334.169ZM1216.81 320.222V313.627C1216.81 310.994 1215.97 308.6 1214.29 306.443C1212.64 304.287 1210.44 303.209 1207.7 303.209C1203.16 303.209 1200.89 306.765 1200.89 313.879V321.356C1200.89 324.997 1201.44 327.685 1202.53 329.422C1203.65 331.158 1205.48 332.026 1208.03 332.026C1209.77 332.026 1211.32 331.396 1212.69 330.136C1214.09 328.848 1215.13 327.321 1215.8 325.557C1216.47 323.765 1216.81 321.986 1216.81 320.222Z" fill="white"/>
<path d="M1090.1 409.474H1090.02C1090.02 410.398 1089.6 410.86 1088.76 410.86L1082.79 410.65C1082.37 410.65 1082.12 410.86 1082.04 411.28C1081.79 412.401 1080.47 417.498 1078.09 426.571C1075.74 435.617 1073.47 444.355 1071.28 452.785C1069.1 461.214 1068.01 465.555 1068.01 465.807C1068.01 466.395 1068.12 466.689 1068.34 466.689L1074.56 466.605C1075.01 466.605 1075.23 466.857 1075.23 467.361C1075.23 467.753 1075.11 468.132 1074.85 468.496C1074.6 468.832 1074.29 469 1073.93 469H1053.05C1052.58 469 1052.34 468.51 1052.34 467.529C1052.34 466.801 1052.69 466.437 1053.39 466.437L1059.14 466.689C1059.26 466.689 1059.34 466.675 1059.4 466.647C1059.48 466.619 1059.54 466.577 1059.56 466.521C1059.62 466.437 1059.65 466.381 1059.65 466.353C1059.68 466.297 1059.7 466.213 1059.73 466.101C1059.76 465.989 1059.77 465.919 1059.77 465.891C1059.91 465.359 1060.53 462.993 1061.62 458.792C1062.74 454.591 1063.96 449.97 1065.28 444.929C1066.59 439.86 1067.92 434.735 1069.27 429.554C1070.64 424.345 1071.77 419.99 1072.67 416.489C1073.59 412.961 1074.06 411.14 1074.06 411.028C1074.06 410.72 1073.85 410.566 1073.43 410.566L1067.08 410.86C1066.72 410.86 1066.54 410.622 1066.54 410.146C1066.54 409.782 1066.65 409.376 1066.87 408.928C1067.1 408.48 1067.36 408.256 1067.67 408.256C1068.9 408.256 1070.71 408.27 1073.09 408.298C1075.47 408.326 1077.28 408.34 1078.51 408.34C1079.74 408.34 1081.56 408.326 1083.97 408.298C1086.38 408.27 1088.2 408.256 1089.43 408.256C1089.88 408.256 1090.1 408.662 1090.1 409.474Z" fill="white"/>
<path d="M1108.79 434.847C1108.79 435.771 1108.32 436.233 1107.4 436.233C1107.04 436.233 1106.46 436.219 1105.68 436.191C1104.89 436.163 1104.32 436.149 1103.96 436.149C1100.4 436.149 1098.62 436.261 1098.62 436.485L1091.23 461.858C1091.17 462.054 1091.06 462.39 1090.89 462.866C1090.75 463.315 1090.64 463.665 1090.55 463.917C1090.5 464.169 1090.43 464.477 1090.34 464.841C1090.29 465.205 1090.26 465.555 1090.26 465.891C1090.26 467.263 1090.86 467.949 1092.07 467.949C1092.54 467.949 1093.5 467.641 1094.92 467.025C1096.49 466.157 1097.86 464.967 1099.04 463.455C1100.24 461.914 1101.09 460.262 1101.56 458.498C1101.9 458.33 1102.26 458.246 1102.65 458.246C1103.3 458.246 1103.62 458.414 1103.62 458.75C1103.62 458.946 1103.56 459.1 1103.45 459.212C1102.86 461.788 1101.37 464.169 1098.96 466.353C1096.58 468.51 1094.08 469.588 1091.48 469.588C1089.41 469.588 1087.8 469.084 1086.65 468.076C1085.5 467.067 1084.93 465.541 1084.93 463.497C1084.93 462.208 1085.36 460.108 1086.23 457.195L1092.15 436.653V436.485C1092.15 436.373 1092.04 436.317 1091.82 436.317C1091.82 436.205 1091.17 436.177 1089.88 436.233L1087.95 436.317C1087.92 436.317 1087.78 436.331 1087.53 436.359C1087.28 436.359 1087.1 436.359 1086.98 436.359C1086.9 436.331 1086.77 436.289 1086.61 436.233C1086.44 436.177 1086.31 436.093 1086.23 435.981C1086.17 435.841 1086.14 435.659 1086.14 435.435C1086.14 435.099 1086.26 434.749 1086.48 434.385C1086.73 433.993 1087.03 433.797 1087.36 433.797C1087.7 433.797 1088.13 433.811 1088.66 433.839C1089.2 433.867 1089.62 433.881 1089.92 433.881C1090.09 433.881 1090.37 433.895 1090.77 433.923C1091.16 433.951 1091.49 433.965 1091.77 433.965C1092.05 433.937 1092.33 433.881 1092.61 433.797C1092.89 433.713 1093.06 433.573 1093.12 433.377L1096.39 422.034C1098.83 422.034 1101 421.376 1102.91 420.06C1102.91 420.004 1102.96 419.976 1103.07 419.976C1103.27 419.976 1103.37 420.088 1103.37 420.312C1103.37 420.9 1102.71 423.113 1101.39 426.949C1100.1 430.758 1099.46 432.985 1099.46 433.629C1099.46 433.741 1099.56 433.797 1099.75 433.797C1100.37 433.881 1101.18 433.923 1102.19 433.923C1103.23 433.923 1104.38 433.909 1105.64 433.881C1106.92 433.825 1107.79 433.797 1108.24 433.797C1108.6 433.797 1108.79 434.147 1108.79 434.847Z" fill="white"/>
<path d="M1147.17 461.354C1147.17 461.382 1147.16 461.41 1147.13 461.438C1147.1 461.466 1147.09 461.494 1147.09 461.522L1146.29 463.077C1144.02 467.725 1141.16 470.05 1137.72 470.05C1136.57 470.05 1135.62 469.84 1134.86 469.42C1134.11 469.028 1133.55 468.44 1133.18 467.655C1132.85 466.871 1132.61 466.087 1132.47 465.303C1132.36 464.519 1132.3 463.567 1132.3 462.446H1132.22C1131.1 464.463 1129.49 466.269 1127.39 467.865C1125.29 469.434 1123.18 470.218 1121.08 470.218C1119.12 470.218 1117.37 469.798 1115.83 468.958C1114.29 468.118 1113.06 466.997 1112.14 465.597C1111.21 464.169 1110.51 462.614 1110.04 460.934C1109.56 459.226 1109.32 457.447 1109.32 455.599C1109.32 452.07 1110.3 448.486 1112.26 444.845C1114.25 441.176 1116.91 438.124 1120.24 435.687C1123.61 433.223 1127.08 431.99 1130.66 431.99C1132.68 431.99 1134.44 432.691 1135.96 434.091C1137.47 435.491 1138.42 437.227 1138.81 439.3H1138.9V439.216L1140.7 433.881C1140.87 433.321 1141.25 433.041 1141.84 433.041C1142.09 433.041 1142.47 433.069 1142.97 433.125C1143.5 433.181 1143.9 433.209 1144.15 433.209C1144.37 433.209 1144.71 433.181 1145.16 433.125C1145.63 433.069 1145.98 433.041 1146.21 433.041C1146.68 433.041 1146.92 433.209 1146.92 433.545C1146.92 433.573 1146.91 433.629 1146.88 433.713C1146.85 433.797 1146.84 433.853 1146.84 433.881L1138.31 461.27C1137.61 463.735 1137.26 465.359 1137.26 466.143C1137.26 466.703 1137.33 467.109 1137.47 467.361C1137.64 467.585 1137.97 467.697 1138.48 467.697C1139.57 467.697 1140.6 467.095 1141.58 465.891C1142.59 464.687 1143.4 463.455 1144.02 462.194C1144.64 460.906 1144.97 460.248 1145.03 460.22H1145.37C1145.65 460.22 1146.01 460.346 1146.46 460.598C1146.93 460.85 1147.17 461.102 1147.17 461.354ZM1137.34 441.988C1137.34 439.916 1136.63 438.138 1135.2 436.653C1133.8 435.169 1132.08 434.427 1130.03 434.427C1128.21 434.427 1126.49 435.113 1124.87 436.485C1123.24 437.83 1121.88 439.524 1120.79 441.568C1119.73 443.613 1118.8 445.867 1118.02 448.332C1117.23 450.768 1116.66 453.079 1116.3 455.263C1115.93 457.419 1115.75 459.296 1115.75 460.892C1115.75 462.936 1116.18 464.617 1117.05 465.933C1117.92 467.221 1119.32 467.865 1121.25 467.865C1122.6 467.865 1123.89 467.529 1125.12 466.857C1126.38 466.157 1127.47 465.289 1128.39 464.253C1129.32 463.217 1130.19 461.998 1131 460.598C1131.81 459.198 1132.47 457.896 1132.97 456.691C1133.48 455.459 1133.94 454.199 1134.36 452.911C1136.35 447.057 1137.34 443.417 1137.34 441.988Z" fill="white"/>
<path d="M1170.18 406.281L1155.02 461.102C1154.29 463.931 1153.92 465.639 1153.92 466.227C1153.92 467.039 1154.34 467.445 1155.18 467.445C1156.17 467.445 1157.05 467.249 1157.83 466.857C1158.62 466.465 1159.3 465.863 1159.89 465.051C1160.51 464.239 1160.98 463.525 1161.32 462.908C1161.65 462.264 1162.05 461.424 1162.49 460.388C1162.55 460.332 1162.61 460.248 1162.66 460.136C1162.72 459.996 1162.76 459.884 1162.79 459.8C1162.84 459.716 1162.91 459.646 1163 459.59C1163.11 459.506 1163.24 459.464 1163.38 459.464C1163.68 459.464 1163.96 459.66 1164.22 460.052C1164.47 460.416 1164.59 460.766 1164.59 461.102C1164.59 461.578 1164.27 462.348 1163.63 463.413C1162.59 465.261 1161.25 466.745 1159.6 467.865C1157.97 468.958 1156.17 469.504 1154.18 469.504C1152.38 469.504 1150.97 469 1149.93 467.991C1148.93 466.983 1148.42 465.569 1148.42 463.749C1148.42 462.264 1148.84 460.052 1149.68 457.111L1162.79 410.65V410.482C1162.79 410.37 1162.69 410.314 1162.49 410.314C1161.99 410.258 1161.22 410.23 1160.18 410.23C1159.88 410.23 1159.41 410.244 1158.8 410.272C1158.21 410.3 1157.76 410.314 1157.45 410.314C1157.15 410.314 1156.89 410.16 1156.7 409.852C1156.5 409.516 1156.4 409.18 1156.4 408.844C1156.4 408.704 1156.42 408.592 1156.45 408.508C1156.47 408.396 1156.49 408.312 1156.49 408.256C1156.52 408.2 1156.56 408.144 1156.61 408.088C1156.7 408.032 1156.75 408.004 1156.78 408.004C1156.84 407.976 1156.92 407.962 1157.03 407.962C1157.15 407.934 1157.22 407.92 1157.24 407.92C1157.3 407.92 1157.4 407.92 1157.54 407.92C1157.68 407.92 1157.76 407.92 1157.79 407.92H1161.65C1164.51 407.92 1166.75 407.542 1168.38 406.785C1168.57 406.701 1168.81 406.575 1169.09 406.407C1169.4 406.239 1169.65 406.113 1169.85 406.029C1169.87 406.029 1169.9 406.015 1169.93 405.987C1169.96 405.959 1169.99 405.945 1170.01 405.945C1170.13 405.945 1170.18 406.057 1170.18 406.281Z" fill="white"/>
<path d="M1188.07 412.037C1188.07 413.549 1187.58 414.991 1186.6 416.363C1185.62 417.736 1184.41 418.422 1182.98 418.422C1182.17 418.422 1181.56 418.156 1181.14 417.624C1180.72 417.063 1180.51 416.349 1180.51 415.481C1180.51 414.137 1180.94 412.751 1181.81 411.322C1182.7 409.866 1183.78 409.138 1185.04 409.138C1185.97 409.138 1186.69 409.404 1187.23 409.936C1187.79 410.44 1188.07 411.14 1188.07 412.037ZM1183.87 461.606C1183.87 461.886 1183.84 462.054 1183.78 462.11C1183.08 464.323 1181.71 466.227 1179.67 467.823C1177.62 469.42 1175.46 470.218 1173.2 470.218C1171.52 470.218 1170.19 469.686 1169.21 468.622C1168.25 467.529 1167.78 466.129 1167.78 464.421C1167.78 462.712 1168.08 461.004 1168.7 459.296L1175.09 437.325V437.157C1175.09 437.045 1174.96 436.961 1174.71 436.905C1174.48 436.821 1174.18 436.779 1173.78 436.779C1173.42 436.751 1173.06 436.751 1172.69 436.779C1172.36 436.779 1172.01 436.793 1171.64 436.821C1171.28 436.821 1171.07 436.821 1171.01 436.821C1170.96 436.821 1170.87 436.821 1170.76 436.821C1170.68 436.821 1170.61 436.821 1170.55 436.821C1170.49 436.821 1170.42 436.821 1170.34 436.821C1170.26 436.821 1170.2 436.821 1170.17 436.821C1170.14 436.793 1170.1 436.765 1170.05 436.737C1169.99 436.709 1169.95 436.681 1169.92 436.653C1169.89 436.597 1169.86 436.541 1169.84 436.485C1169.81 436.429 1169.78 436.359 1169.75 436.275C1169.75 436.191 1169.75 436.093 1169.75 435.981C1169.75 435.589 1169.85 435.239 1170.05 434.931C1170.24 434.595 1170.51 434.427 1170.84 434.427C1172.55 434.427 1173.94 434.399 1175 434.343C1176.07 434.287 1177.31 434.119 1178.74 433.839C1180.17 433.559 1181.47 433.153 1182.65 432.621C1182.68 432.621 1182.7 432.607 1182.73 432.579C1182.76 432.551 1182.79 432.537 1182.82 432.537C1182.87 432.537 1182.9 432.565 1182.9 432.621L1174.62 460.556C1173.73 463.693 1173.28 465.849 1173.28 467.025C1173.28 467.781 1173.7 468.16 1174.54 468.16C1175.41 468.16 1176.22 467.963 1176.98 467.571C1177.73 467.179 1178.4 466.619 1178.99 465.891C1179.61 465.135 1180.1 464.435 1180.46 463.791C1180.86 463.119 1181.26 462.334 1181.68 461.438C1181.96 460.794 1182.34 460.472 1182.82 460.472C1183.1 460.472 1183.33 460.584 1183.53 460.808C1183.75 461.032 1183.87 461.298 1183.87 461.606Z" fill="white"/>
<path d="M1217.67 438.796C1217.67 440.084 1217.38 441.148 1216.79 441.988C1216.2 442.801 1215.29 443.207 1214.06 443.207C1212.91 443.207 1212.03 442.829 1211.41 442.072C1210.82 441.316 1210.53 440.336 1210.53 439.132C1210.53 438.488 1210.61 437.984 1210.78 437.62C1210.98 437.227 1211.16 436.961 1211.33 436.821C1211.53 436.653 1211.62 436.513 1211.62 436.401C1211.62 435.477 1210.63 435.015 1208.64 435.015C1206.65 435.015 1204.82 435.659 1203.14 436.947C1201.46 438.208 1200.08 439.804 1199.02 441.736C1197.98 443.669 1197.1 445.825 1196.37 448.206C1195.65 450.558 1195.13 452.799 1194.82 454.927C1194.51 457.055 1194.36 458.988 1194.36 460.724C1194.36 462.796 1194.96 464.435 1196.16 465.639C1197.37 466.843 1199.02 467.445 1201.12 467.445C1203.36 467.445 1205.39 466.619 1207.21 464.967C1209.06 463.315 1210.59 461.298 1211.79 458.918C1212.02 458.386 1212.37 457.419 1212.84 456.019C1212.95 455.739 1213.05 455.529 1213.14 455.389C1213.22 455.221 1213.36 455.067 1213.56 454.927C1213.75 454.787 1214 454.717 1214.31 454.717C1214.65 454.717 1214.93 454.857 1215.15 455.137C1215.38 455.389 1215.49 455.683 1215.49 456.019C1215.49 457.111 1215.01 458.708 1214.06 460.808C1212.6 463.581 1210.7 465.793 1208.35 467.445C1205.99 469.07 1203.33 469.868 1200.36 469.84H1200.11C1196.33 469.84 1193.31 468.398 1191.04 465.513C1188.77 462.6 1187.64 459.17 1187.64 455.221C1187.64 452.56 1188.22 449.872 1189.4 447.155C1190.58 444.439 1192.12 442.016 1194.02 439.888C1195.95 437.76 1198.24 436.023 1200.87 434.679C1203.53 433.307 1206.23 432.621 1208.98 432.621C1210.35 432.621 1211.67 432.831 1212.93 433.251C1214.19 433.643 1215.29 434.329 1216.24 435.309C1217.2 436.261 1217.67 437.423 1217.67 438.796Z" fill="white"/>
<path d="M1114.55 555.145C1114.55 557.693 1114.02 560.046 1112.96 562.202C1111.89 564.331 1110.46 566.109 1108.67 567.537C1106.88 568.966 1104.89 570.128 1102.71 571.024C1100.52 571.92 1098.22 572.508 1095.82 572.788V572.956C1098.03 572.956 1100.1 573.405 1102.03 574.301C1103.99 575.169 1105.63 576.555 1106.95 578.46C1108.29 580.336 1108.96 582.534 1108.96 585.055C1108.96 586.427 1108.8 587.785 1108.46 589.13C1108.12 590.446 1107.58 591.846 1106.82 593.33C1106.07 594.787 1104.97 596.145 1103.55 597.405C1102.15 598.637 1100.48 599.758 1098.55 600.766C1096.61 601.774 1094.19 602.572 1091.28 603.16C1088.37 603.72 1085.12 604.001 1081.53 604.001C1079.46 604.001 1076.52 603.987 1072.71 603.959C1068.9 603.903 1065.43 603.875 1062.29 603.875C1059.18 603.875 1056.22 603.917 1053.39 604.001C1053.16 604.001 1053 603.791 1052.88 603.37C1052.77 602.95 1052.81 602.544 1053.01 602.152C1053.21 601.732 1053.58 601.522 1054.14 601.522L1059.94 601.69C1060.36 601.69 1060.61 601.452 1060.7 600.976L1075.65 546.113C1075.76 545.805 1075.62 545.651 1075.23 545.651L1068.97 545.861C1068.5 545.861 1068.29 545.511 1068.34 544.811C1068.45 544.027 1068.79 543.523 1069.35 543.299L1069.73 543.257H1097.79C1099.44 543.257 1101.01 543.369 1102.5 543.593C1104.01 543.789 1105.51 544.167 1106.99 544.727C1108.5 545.259 1109.8 545.959 1110.9 546.827C1111.99 547.696 1112.87 548.844 1113.54 550.272C1114.22 551.672 1114.55 553.297 1114.55 555.145ZM1102.87 552.036C1102.87 549.628 1102.27 548.004 1101.07 547.163C1099.86 546.295 1097.93 545.861 1095.27 545.861H1088.93C1088.73 545.861 1088.59 545.973 1088.51 546.197L1081.7 571.15C1081.7 571.486 1081.84 571.654 1082.12 571.654H1088.76C1090.49 571.654 1092.08 571.374 1093.51 570.814C1094.96 570.226 1096.15 569.47 1097.08 568.546C1098.03 567.621 1098.87 566.543 1099.6 565.311C1100.32 564.051 1100.88 562.818 1101.28 561.614C1101.7 560.41 1102.03 559.15 1102.29 557.833C1102.54 556.517 1102.69 555.411 1102.75 554.515C1102.83 553.619 1102.87 552.793 1102.87 552.036ZM1096.74 582.744C1096.74 580.112 1096.04 578.053 1094.64 576.569C1093.27 575.057 1091.25 574.301 1088.59 574.301H1081.28C1080.89 574.301 1080.65 574.483 1080.57 574.847L1073.34 601.144C1073.34 601.396 1073.48 601.522 1073.76 601.522H1080.23C1084.07 601.522 1086.56 601.382 1087.71 601.102C1089.36 600.682 1090.87 599.604 1092.25 597.867C1092.53 597.531 1092.82 597.139 1093.13 596.691C1094 595.459 1094.81 593.456 1095.56 590.684C1096.35 587.883 1096.74 585.237 1096.74 582.744Z" fill="white"/>
<path d="M1151.3 581.022C1151.3 583.739 1150.74 586.497 1149.62 589.298C1148.5 592.07 1146.97 594.605 1145.04 596.901C1143.11 599.198 1140.67 601.074 1137.73 602.53C1134.82 603.959 1131.71 604.673 1128.4 604.673C1126 604.673 1123.74 604.127 1121.64 603.034C1119.57 601.914 1117.85 600.22 1116.47 597.951C1115.13 595.655 1114.46 592.994 1114.46 589.97C1114.46 586.357 1115.14 582.968 1116.52 579.804C1117.92 576.611 1119.71 573.979 1121.89 571.906C1124.1 569.834 1126.51 568.21 1129.12 567.033C1131.75 565.857 1134.33 565.269 1136.85 565.269C1141.33 565.269 1144.86 566.767 1147.43 569.764C1150.01 572.76 1151.3 576.513 1151.3 581.022ZM1142.18 572.158C1142.18 570.45 1141.8 569.232 1141.05 568.504C1140.29 567.747 1139 567.369 1137.18 567.369C1136.09 567.369 1135.13 567.537 1134.28 567.873C1133.47 568.21 1132.74 568.826 1132.1 569.722C1131.48 570.59 1131.06 571.248 1130.84 571.696C1130.62 572.116 1130.24 572.956 1129.71 574.217C1129.59 574.469 1129.51 574.651 1129.45 574.763C1127.86 578.74 1126.47 582.898 1125.3 587.239C1124.15 591.58 1123.57 594.815 1123.57 596.943C1123.57 598.792 1124.02 600.206 1124.92 601.186C1125.81 602.138 1127.06 602.614 1128.66 602.614C1129.3 602.614 1129.9 602.544 1130.46 602.404C1131.05 602.236 1131.54 602.068 1131.93 601.9C1132.35 601.704 1132.77 601.396 1133.19 600.976C1133.61 600.528 1133.93 600.178 1134.16 599.926C1134.41 599.674 1134.69 599.254 1135 598.666C1135.34 598.049 1135.55 597.629 1135.63 597.405C1135.74 597.181 1135.94 596.719 1136.22 596.019C1136.53 595.319 1136.71 594.913 1136.76 594.801C1137.74 592.476 1138.89 588.514 1140.21 582.912C1141.52 577.311 1142.18 573.727 1142.18 572.158Z" fill="white"/>
<path d="M1183.13 541.954L1167.55 595.473C1166.68 598.133 1166.24 599.688 1166.24 600.136C1166.24 600.836 1166.35 601.312 1166.58 601.564C1166.83 601.816 1167.21 601.942 1167.71 601.942C1168.47 601.942 1169.53 601.06 1170.91 599.296C1172.28 597.531 1173.13 596.005 1173.47 594.717C1173.69 594.269 1173.99 594.059 1174.35 594.087C1174.71 594.115 1175.05 594.283 1175.36 594.591C1175.69 594.899 1175.82 595.165 1175.74 595.389C1174.67 597.993 1173.15 600.262 1171.16 602.194C1169.17 604.099 1166.9 605.051 1164.35 605.051C1162.87 605.051 1161.58 604.813 1160.49 604.337C1159.42 603.861 1158.64 603.342 1158.14 602.782C1157.63 602.194 1157.24 601.494 1156.96 600.682C1156.68 599.87 1156.52 599.296 1156.5 598.96C1156.47 598.595 1156.45 598.245 1156.45 597.909C1156.45 596.481 1156.79 594.787 1157.46 592.826L1170.99 546.533C1171.02 546.421 1170.96 546.281 1170.82 546.113C1170.68 545.945 1170.54 545.861 1170.4 545.861C1170.35 545.805 1169.58 545.791 1168.09 545.819C1166.63 545.847 1165.88 545.861 1165.82 545.861C1165.65 545.861 1165.56 545.651 1165.53 545.231C1165.5 544.783 1165.57 544.349 1165.74 543.929C1165.93 543.481 1166.2 543.257 1166.54 543.257H1171.16C1176.59 543.257 1180.18 542.767 1181.91 541.786L1182 541.744C1182.75 541.296 1183.14 541.254 1183.17 541.618C1183.17 541.702 1183.16 541.814 1183.13 541.954Z" fill="white"/>
<path d="M1225.34 541.87L1209.5 595.473C1208.86 597.461 1208.53 598.666 1208.53 599.086C1208.53 599.786 1208.66 600.262 1208.91 600.514C1209.16 600.766 1209.56 600.892 1210.09 600.892C1211.27 600.892 1212.39 600.206 1213.45 598.834C1214.51 597.433 1215.42 595.851 1216.18 594.087C1216.26 593.807 1216.6 593.681 1217.19 593.709C1217.94 593.765 1218.32 594.157 1218.32 594.885C1218.29 595.165 1218.22 595.473 1218.11 595.809C1214.72 601.97 1210.54 605.051 1205.55 605.051C1203.45 605.051 1201.81 604.239 1200.64 602.614C1199.49 600.962 1198.91 598.848 1198.91 596.271C1198.91 595.935 1198.86 595.935 1198.75 596.271C1198.21 597.251 1197.58 598.217 1196.86 599.17C1196.13 600.094 1195.26 601.032 1194.25 601.984C1193.27 602.908 1192.12 603.65 1190.81 604.211C1189.49 604.771 1188.15 605.051 1186.77 605.051C1183.53 605.051 1180.98 603.791 1179.13 601.27C1177.28 598.722 1176.36 595.445 1176.36 591.44C1176.36 589.424 1176.69 587.253 1177.36 584.929C1178.04 582.604 1179.03 580.308 1180.35 578.039C1181.66 575.771 1183.19 573.713 1184.93 571.864C1186.66 570.016 1188.71 568.518 1191.06 567.369C1193.41 566.221 1195.86 565.647 1198.41 565.647C1202.67 565.647 1205.05 567.761 1205.55 571.99C1205.55 572.046 1205.58 572.074 1205.64 572.074L1205.72 571.99L1213.03 546.785C1213.14 546.533 1213.11 546.337 1212.95 546.197C1212.81 546.029 1212.62 545.945 1212.4 545.945L1208.28 546.029C1207.78 546.029 1207.6 545.651 1207.74 544.895C1207.88 544.139 1208.2 543.663 1208.7 543.467L1208.95 543.425H1213.37C1218.74 543.425 1222.47 542.795 1224.54 541.534C1224.85 541.338 1225.06 541.24 1225.17 541.24C1225.31 541.24 1225.37 541.45 1225.34 541.87ZM1204.17 574.763C1204.17 572.466 1203.68 570.8 1202.7 569.764C1201.74 568.728 1200.62 568.21 1199.33 568.21C1198.52 568.21 1197.84 568.322 1197.28 568.546C1196.72 568.742 1196.06 569.218 1195.3 569.974C1194.57 570.73 1193.82 571.962 1193.03 573.671C1192.28 575.351 1191.45 577.549 1190.56 580.266L1188.24 587.071C1187.57 589.088 1186.94 591.412 1186.35 594.045C1185.77 596.649 1185.47 598.357 1185.47 599.17C1185.47 600.318 1185.75 601.158 1186.31 601.69C1186.9 602.194 1187.6 602.446 1188.41 602.446C1190.12 602.446 1191.98 601.55 1194 599.758C1196.04 597.965 1197.82 595.277 1199.33 591.692C1202.56 583.907 1204.17 578.264 1204.17 574.763Z" fill="white"/>
<path d="M1280.31 543.257C1280.78 543.257 1280.98 543.607 1280.89 544.307C1280.81 545.091 1280.47 545.595 1279.89 545.819L1279.51 545.861L1274 545.777C1273.86 545.777 1273.74 545.791 1273.63 545.819C1273.51 545.847 1273.42 545.903 1273.33 545.987C1273.28 546.043 1273.23 546.099 1273.21 546.155C1273.18 546.183 1273.12 546.267 1273.04 546.407C1272.98 546.519 1272.94 546.589 1272.91 546.617L1258 600.808C1258 601.284 1258.21 601.522 1258.63 601.522L1264.72 601.438C1265.39 601.438 1265.56 601.858 1265.22 602.698C1264.94 603.398 1264.58 603.819 1264.13 603.959C1264.08 603.987 1264.02 604.001 1263.96 604.001C1251.14 603.889 1242.58 603.889 1238.3 604.001C1238.1 604.001 1237.95 603.791 1237.84 603.37C1237.72 602.95 1237.77 602.53 1237.96 602.11C1238.16 601.662 1238.54 601.438 1239.1 601.438L1244.43 601.522C1244.85 601.522 1245.16 601.284 1245.36 600.808L1260.27 546.617C1260.35 546.057 1260.11 545.777 1259.55 545.777L1253.63 545.861C1253.18 545.861 1252.97 545.525 1253 544.853C1253.03 544.069 1253.34 543.565 1253.92 543.341L1254.39 543.257C1263.07 543.425 1271.71 543.425 1280.31 543.257Z" fill="white"/>
<path d="M1300.46 565.983C1300.94 565.983 1301.01 566.417 1300.67 567.285C1300.33 568.07 1300 568.49 1299.66 568.546C1299.21 568.546 1298.22 568.532 1296.68 568.504C1295.17 568.448 1293.96 568.434 1293.07 568.462C1292.48 568.462 1292.1 568.728 1291.93 569.26L1284.71 595.473C1284.12 597.293 1283.82 598.497 1283.82 599.086C1283.82 599.842 1283.89 600.332 1284.03 600.556C1284.17 600.78 1284.48 600.892 1284.96 600.892C1286.22 600.892 1287.49 600.136 1288.78 598.623C1290.1 597.111 1291.12 595.347 1291.85 593.33C1291.93 593.022 1292.37 592.91 1293.15 592.994C1293.91 593.078 1294.26 593.316 1294.2 593.709C1294.2 593.793 1294.19 593.863 1294.16 593.919L1293.23 595.893C1292.06 598.273 1290.39 600.402 1288.24 602.278C1286.11 604.127 1283.87 605.051 1281.51 605.051C1280.03 605.051 1278.74 604.813 1277.65 604.337C1276.58 603.861 1275.8 603.342 1275.3 602.782C1274.79 602.194 1274.4 601.494 1274.12 600.682C1273.84 599.87 1273.69 599.296 1273.66 598.96C1273.63 598.595 1273.62 598.245 1273.62 597.909C1273.62 596.481 1273.95 594.787 1274.62 592.826L1281.18 569.26C1281.18 569.064 1281.09 568.896 1280.93 568.756C1280.76 568.616 1280.59 568.546 1280.42 568.546H1274.04C1273.84 568.49 1273.73 568.28 1273.7 567.915C1273.7 567.551 1273.8 567.159 1273.99 566.739C1274.22 566.291 1274.48 566.067 1274.79 566.067C1277.7 565.955 1279.86 565.927 1281.26 565.983C1281.82 565.983 1282.23 565.717 1282.48 565.185L1284.71 557.203C1284.9 556.615 1285.34 556.237 1286.01 556.069C1286.4 555.957 1287.18 555.747 1288.36 555.439C1289.54 555.103 1290.38 554.865 1290.88 554.725C1291.41 554.557 1292.1 554.305 1292.94 553.969C1293.78 553.633 1294.54 553.269 1295.21 552.877C1295.4 552.736 1295.59 552.638 1295.75 552.582C1295.92 552.498 1296.09 552.442 1296.26 552.414C1296.43 552.358 1296.55 552.386 1296.64 552.498C1296.75 552.61 1296.79 552.807 1296.76 553.087L1293.15 565.101C1293.12 565.297 1293.16 565.479 1293.28 565.647C1293.42 565.815 1293.57 565.899 1293.74 565.899C1294.44 565.899 1295.56 565.913 1297.1 565.941C1298.64 565.969 1299.76 565.983 1300.46 565.983Z" fill="white"/>
<path d="M1342.21 566.487L1333.72 595.473C1332.85 598.133 1332.42 599.688 1332.42 600.136C1332.42 600.864 1332.5 601.354 1332.67 601.606C1332.87 601.83 1333.22 601.942 1333.72 601.942C1334.64 601.942 1335.71 601.172 1336.91 599.632C1338.14 598.063 1339.14 596.509 1339.89 594.969C1340.15 594.465 1340.45 594.227 1340.82 594.255C1341.18 594.283 1341.51 594.465 1341.79 594.801C1342.09 595.137 1342.21 595.417 1342.12 595.641C1338.84 601.914 1335.15 605.051 1331.03 605.051C1328.37 605.051 1326.38 604.253 1325.07 602.656C1323.78 601.032 1323.13 598.904 1323.13 596.271C1323.11 596.131 1323.05 596.131 1322.97 596.271C1322.43 597.251 1321.8 598.217 1321.08 599.17C1320.35 600.094 1319.48 601.032 1318.47 601.984C1317.49 602.908 1316.34 603.65 1315.03 604.211C1313.71 604.771 1312.37 605.051 1310.99 605.051C1307.74 605.051 1305.2 603.791 1303.35 601.27C1301.5 598.722 1300.58 595.445 1300.58 591.44C1300.58 589.424 1300.91 587.253 1301.58 584.929C1302.26 582.604 1303.25 580.308 1304.57 578.039C1305.88 575.771 1307.41 573.713 1309.14 571.864C1310.88 570.016 1312.93 568.518 1315.28 567.369C1317.63 566.221 1320.08 565.647 1322.63 565.647C1326.89 565.647 1329.27 567.761 1329.77 571.99C1329.77 572.046 1329.8 572.074 1329.85 572.074L1329.94 571.99L1331.37 566.991C1331.54 566.319 1331.75 565.983 1332 565.983C1334.18 566.375 1337.44 566.431 1341.79 566.151C1341.93 566.151 1342.04 566.179 1342.12 566.235C1342.21 566.291 1342.23 566.375 1342.21 566.487ZM1328.38 574.763C1328.38 572.41 1327.87 570.73 1326.83 569.722C1325.82 568.714 1324.56 568.21 1323.05 568.21C1322.52 568.21 1322.06 568.266 1321.66 568.378C1321.27 568.49 1320.8 568.77 1320.23 569.218C1319.67 569.666 1319.13 570.31 1318.6 571.15C1318.09 571.99 1317.5 573.181 1316.83 574.721C1316.16 576.233 1315.47 578.081 1314.77 580.266L1312.46 587.071C1311.79 589.088 1311.16 591.412 1310.57 594.045C1309.98 596.649 1309.69 598.357 1309.69 599.17C1309.69 601.354 1310.67 602.446 1312.63 602.446C1314.03 602.446 1315.84 601.522 1318.05 599.674C1320.26 597.825 1322.1 595.165 1323.55 591.692C1326.77 583.907 1328.38 578.264 1328.38 574.763Z" fill="white"/>
<path d="M1374.46 541.954L1358.87 595.473C1358 598.133 1357.57 599.688 1357.57 600.136C1357.57 600.836 1357.68 601.312 1357.91 601.564C1358.16 601.816 1358.54 601.942 1359.04 601.942C1359.8 601.942 1360.86 601.06 1362.23 599.296C1363.61 597.531 1364.46 596.005 1364.8 594.717C1365.02 594.269 1365.31 594.059 1365.68 594.087C1366.04 594.115 1366.38 594.283 1366.69 594.591C1367.02 594.899 1367.15 595.165 1367.06 595.389C1366 597.993 1364.47 600.262 1362.48 602.194C1360.5 604.099 1358.23 605.051 1355.68 605.051C1354.2 605.051 1352.91 604.813 1351.81 604.337C1350.75 603.861 1349.97 603.342 1349.46 602.782C1348.96 602.194 1348.57 601.494 1348.29 600.682C1348.01 599.87 1347.85 599.296 1347.82 598.96C1347.8 598.595 1347.78 598.245 1347.78 597.909C1347.78 596.481 1348.12 594.787 1348.79 592.826L1362.32 546.533C1362.34 546.421 1362.29 546.281 1362.15 546.113C1362.01 545.945 1361.87 545.861 1361.73 545.861C1361.67 545.805 1360.9 545.791 1359.42 545.819C1357.96 545.847 1357.21 545.861 1357.15 545.861C1356.98 545.861 1356.88 545.651 1356.86 545.231C1356.83 544.783 1356.9 544.349 1357.07 543.929C1357.26 543.481 1357.53 543.257 1357.86 543.257H1362.48C1367.92 543.257 1371.5 542.767 1373.24 541.786L1373.32 541.744C1374.08 541.296 1374.47 541.254 1374.5 541.618C1374.5 541.702 1374.49 541.814 1374.46 541.954Z" fill="white"/>
<path d="M1392.3 548.844C1393.45 549.992 1394.02 551.406 1394.02 553.087C1394.02 554.767 1393.45 556.181 1392.3 557.329C1391.18 558.45 1389.78 559.01 1388.1 559.01C1386.42 559.01 1385 558.45 1383.86 557.329C1382.71 556.181 1382.13 554.767 1382.13 553.087C1382.13 551.406 1382.71 549.992 1383.86 548.844C1385 547.696 1386.42 547.121 1388.1 547.121C1389.78 547.121 1391.18 547.696 1392.3 548.844ZM1389.61 565.437L1380.41 595.473C1379.85 597.181 1379.57 598.441 1379.57 599.254C1379.57 600.038 1379.61 600.542 1379.7 600.766C1379.81 600.962 1380.1 601.06 1380.58 601.06C1381.39 601.06 1382.39 600.402 1383.56 599.086C1384.77 597.769 1385.7 596.453 1386.38 595.137C1386.66 594.689 1386.97 594.493 1387.3 594.549C1387.67 594.605 1387.99 594.787 1388.27 595.095C1388.58 595.403 1388.69 595.641 1388.6 595.809C1387.51 598.245 1385.97 600.402 1383.98 602.278C1382.02 604.127 1379.78 605.051 1377.26 605.051C1375.78 605.051 1374.49 604.813 1373.4 604.337C1372.33 603.861 1371.55 603.342 1371.04 602.782C1370.54 602.194 1370.15 601.494 1369.87 600.682C1369.59 599.87 1369.42 599.296 1369.36 598.96C1369.34 598.595 1369.32 598.245 1369.32 597.909C1369.32 596.565 1369.67 594.871 1370.37 592.826L1377.93 568.966C1377.96 568.826 1377.86 568.7 1377.64 568.588C1377.44 568.448 1377.25 568.378 1377.05 568.378L1372.77 568.462C1372.26 568.462 1372.08 568.084 1372.22 567.327C1372.36 566.543 1372.7 566.081 1373.23 565.941C1373.28 565.913 1373.35 565.899 1373.44 565.899H1382.3C1382.61 565.899 1383.04 565.899 1383.6 565.899C1384.19 565.899 1384.58 565.899 1384.78 565.899C1385 565.899 1385.31 565.899 1385.7 565.899C1386.13 565.871 1386.43 565.857 1386.63 565.857C1386.83 565.829 1387.06 565.787 1387.34 565.731C1387.62 565.675 1387.86 565.619 1388.06 565.563C1388.28 565.479 1388.49 565.381 1388.69 565.269C1389.28 564.849 1389.6 564.793 1389.65 565.101C1389.68 565.185 1389.67 565.297 1389.61 565.437Z" fill="white"/>
<path d="M1425.18 573.713C1425.18 575.337 1424.59 576.793 1423.42 578.081C1422.24 579.37 1420.72 580.014 1418.84 580.014C1417.35 580.014 1416.05 579.538 1414.93 578.586C1413.84 577.605 1413.29 576.527 1413.29 575.351C1413.29 574.175 1413.43 573.223 1413.71 572.494C1414.02 571.766 1414.37 571.276 1414.76 571.024C1415.18 570.744 1415.6 570.548 1416.02 570.436C1416.44 570.296 1416.79 570.142 1417.07 569.974C1417.38 569.778 1417.54 569.512 1417.54 569.176C1417.54 568.532 1416.25 568.21 1413.67 568.21C1411.82 568.21 1410.09 569.134 1408.46 570.982C1406.84 572.802 1405.49 575.015 1404.43 577.619C1403.39 580.196 1402.48 582.912 1401.7 585.769C1400.94 588.598 1400.4 591.02 1400.06 593.036C1399.73 595.025 1399.56 596.355 1399.56 597.027C1399.56 598.96 1399.96 600.346 1400.78 601.186C1401.59 602.026 1402.99 602.446 1404.98 602.446C1407.83 602.446 1410.56 601.466 1413.17 599.506C1415.77 597.517 1417.66 595.109 1418.84 592.28C1418.98 592.084 1419.23 591.986 1419.6 591.986C1419.99 591.958 1420.37 592.042 1420.73 592.238C1421.09 592.406 1421.23 592.602 1421.15 592.826C1419.55 596.383 1417.34 599.31 1414.51 601.606C1411.68 603.903 1408.45 605.051 1404.81 605.051C1400.02 605.051 1396.28 603.819 1393.59 601.354C1390.9 598.862 1389.56 595.529 1389.56 591.356C1389.56 587.743 1390.32 584.313 1391.83 581.064C1393.34 577.787 1395.29 575.043 1397.67 572.83C1400.08 570.618 1402.74 568.868 1405.65 567.579C1408.56 566.291 1411.43 565.647 1414.26 565.647C1415.6 565.647 1416.86 565.773 1418.04 566.025C1419.22 566.249 1420.37 566.641 1421.49 567.201C1422.63 567.761 1423.53 568.602 1424.17 569.722C1424.85 570.814 1425.18 572.144 1425.18 573.713Z" fill="white"/>
<path d="M310.863 588.88C294.431 602.397 277.072 609.155 258.785 609.155C239.968 609.155 224.596 604.915 212.67 596.434C200.744 587.688 193.323 576.026 190.408 561.45C190.408 560.39 190.01 559.86 189.215 559.86C188.685 559.86 188.287 560.39 188.022 561.45C179.806 575.761 167.88 587.29 152.243 596.036C136.607 604.782 118.717 609.155 98.575 609.155C67.3016 609.155 43.1839 602.132 26.2221 588.085C9.26022 573.774 0.779297 553.499 0.779297 527.261C0.779297 508.974 6.60993 492.807 18.2712 478.761C29.9325 464.714 45.0391 453.848 63.5912 446.162C82.1432 438.476 100.563 432.778 118.85 429.068C137.402 425.092 155.821 422.707 174.108 421.912C183.914 421.912 188.817 420.322 188.817 417.142V341.608C188.817 313.25 175.831 299.071 149.858 299.071C137.137 299.071 125.343 300.131 114.477 302.251C103.611 304.107 94.0695 307.552 85.8536 312.588C77.9027 317.623 73.9273 323.984 73.9273 331.67C73.9273 335.645 75.2524 338.428 77.9027 340.018C80.818 341.608 83.8659 342.668 87.0462 343.198C90.2266 343.463 93.1419 345.584 95.7922 349.559C98.7075 353.535 100.165 359.498 100.165 367.449C100.165 374.339 96.7198 379.905 89.829 384.145C83.2033 388.386 74.4573 390.506 63.5912 390.506C53.5201 390.506 45.0391 386.398 38.1484 378.182C31.2576 369.701 28.3423 359.365 29.4024 347.174C30.7276 329.417 43.449 313.648 67.5666 299.866C91.6842 285.82 120.44 278.266 153.833 277.206C182.722 277.206 206.707 285.025 225.789 300.661C245.136 316.298 254.81 337.5 254.81 364.268V557.872C254.81 566.618 256.135 572.846 258.785 576.556C261.7 580.002 268.193 581.724 278.265 581.724C280.385 581.724 282.24 581.592 283.83 581.327C285.42 581.062 287.143 580.532 288.998 579.737C290.853 578.942 292.179 578.279 292.974 577.749C294.034 577.219 295.756 576.291 298.142 574.966C300.527 573.376 302.117 572.316 302.912 571.786C305.033 570.461 307.153 570.726 309.273 572.581C311.658 574.171 312.983 576.556 313.248 579.737C313.778 582.652 312.983 585.7 310.863 588.88ZM188.817 535.212V448.15C188.817 444.439 184.444 442.849 175.698 443.379C146.81 445.235 126.403 448.15 114.477 452.125C85.5886 462.726 71.012 483.664 70.7469 514.937C70.7469 538.525 74.4573 555.354 81.8782 565.425C89.564 575.231 104.936 580.134 127.993 580.134C131.969 580.134 135.944 579.472 139.919 578.147C144.16 576.821 148.135 574.966 151.846 572.581C155.556 569.931 158.869 567.413 161.784 565.028C164.965 562.642 168.145 559.727 171.325 556.282C174.771 552.571 177.289 549.788 178.879 547.933C180.734 545.813 182.854 543.163 185.239 539.982L188.817 535.212Z" fill="white"/>
<path d="M813.259 601.999H587.852C583.877 601.999 580.829 600.276 578.709 596.831C576.854 593.386 576.721 589.94 578.311 586.495C579.901 582.785 583.082 580.929 587.852 580.929C609.85 581.989 624.161 581.989 630.787 580.929C645.894 579.074 655.435 576.556 659.41 573.376C663.386 569.931 664.446 565.425 662.59 559.86L614.488 431.056C613.693 428.935 611.572 427.875 608.127 427.875H433.208C430.293 427.875 428.835 428.67 428.835 430.26L385.9 557.872C384.575 561.317 383.648 563.835 383.117 565.425C382.852 567.015 382.985 569.136 383.515 571.786C384.045 574.436 386.165 576.556 389.876 578.147C393.851 579.472 399.284 580.399 406.175 580.929C415.451 582.255 431.75 582.255 455.073 580.929C460.108 580.929 463.156 582.785 464.216 586.495C465.541 589.94 465.011 593.386 462.626 596.831C460.506 600.276 457.988 601.999 455.073 601.999H301.224C297.778 601.999 294.995 600.144 292.875 596.434C290.755 592.458 290.357 588.748 291.682 585.302C293.273 581.592 296.718 580.134 302.019 580.929C304.139 581.194 306.127 581.459 307.982 581.724C309.837 581.99 311.162 582.122 311.957 582.122C312.752 582.122 313.812 582.122 315.138 582.122C316.728 581.857 318.583 581.459 320.703 580.929C334.75 579.074 343.893 575.761 348.134 570.991C352.639 565.955 358.205 552.969 364.83 532.032L532.196 10.0571C534.316 3.6964 537.497 0.9136 541.737 1.70869C546.243 2.23874 549.423 5.02155 551.278 10.0571L739.316 532.032C746.737 554.559 752.435 568.076 756.411 572.581C760.651 577.086 770.325 579.869 785.431 580.929C795.502 581.724 804.513 581.724 812.464 580.929C817.765 580.134 821.343 581.592 823.198 585.302C825.318 588.748 825.318 592.458 823.198 596.434C821.078 600.144 817.765 601.999 813.259 601.999ZM608.127 403.228L521.86 149.197C520.27 144.692 519.21 142.042 518.68 141.246C518.415 140.451 517.885 139.259 517.09 137.669C516.294 135.813 515.632 135.548 515.102 136.873C514.572 138.199 513.909 139.789 513.114 141.644C512.319 143.499 511.391 146.547 510.331 150.787L434.798 404.023C434.268 404.818 434.268 405.48 434.798 406.01C435.328 406.275 436.388 406.408 437.978 406.408H604.152C606.007 406.408 607.199 406.275 607.729 406.01C608.525 405.48 608.657 404.553 608.127 403.228Z" fill="white"/>
</svg>
