<svg width="863" height="1330" viewBox="0 0 863 1330" fill="none" xmlns="http://www.w3.org/2000/svg">
<path d="M539.299 886.135C539.103 887.872 538.193 889.16 536.569 890C534.944 890.868 533.194 891.302 531.318 891.302C530.029 891.302 528.853 891.162 527.789 890.882C526.725 890.602 525.829 890.252 525.1 889.832C524.372 889.412 523.7 888.838 523.084 888.11C522.496 887.381 522.02 886.681 521.656 886.009C521.292 885.309 520.928 884.455 520.564 883.447C520.228 882.439 519.961 881.542 519.765 880.758C519.569 879.974 519.331 879.008 519.051 877.86C518.771 876.711 518.519 875.773 518.295 875.045C516.559 869.584 514.64 865.733 512.54 863.493C510.44 861.252 507.625 860.132 504.096 860.132H501.114V886.639C501.114 887.171 501.394 887.522 501.954 887.69C503.018 887.746 503.746 887.774 504.138 887.774C504.558 887.774 505.245 887.746 506.197 887.69C507.149 887.606 507.807 887.55 508.171 887.522C508.675 887.522 509.011 887.732 509.179 888.152C509.347 888.544 509.319 888.95 509.095 889.37C508.899 889.79 508.591 890 508.171 890C508.171 889.888 504.432 889.86 496.955 889.916C489.477 889.972 485.669 890 485.529 890C484.913 890 484.591 889.608 484.563 888.824C484.534 888.012 484.857 887.606 485.529 887.606C485.977 887.606 486.607 887.634 487.419 887.69C488.259 887.718 489.015 887.732 489.688 887.732C490.36 887.732 491.004 887.69 491.62 887.606C492.264 887.522 492.586 887.171 492.586 886.555V833.373C492.586 832.365 492.264 831.833 491.62 831.777C491.06 831.665 489.968 831.651 488.343 831.735C486.747 831.791 485.697 831.805 485.193 831.777C484.717 831.777 484.38 831.581 484.184 831.188C484.016 830.768 484.044 830.362 484.268 829.97C484.52 829.55 484.885 829.34 485.361 829.34C494.042 829.508 501.464 829.508 507.625 829.34C509.165 829.34 510.65 829.34 512.078 829.34C513.506 829.34 514.864 829.466 516.153 829.718C517.441 829.942 518.645 830.25 519.765 830.642C520.886 831.034 521.894 831.623 522.79 832.407C523.686 833.191 524.442 834.129 525.058 835.221C525.703 836.285 526.193 837.63 526.529 839.254C526.893 840.85 527.075 842.685 527.075 844.757C527.075 847.474 526.165 849.952 524.344 852.193C522.552 854.405 520.312 856.085 517.623 857.234C514.962 858.354 512.232 858.872 509.431 858.788L510.23 858.956C513.142 859.208 515.551 859.684 517.455 860.384C519.359 861.084 521.012 862.219 522.412 863.787C523.812 865.355 524.96 867.204 525.857 869.332C526.781 871.46 527.733 874.303 528.713 877.86C528.965 878.728 529.329 880.31 529.805 882.607C530.281 884.875 530.73 886.527 531.15 887.564C531.57 888.6 532.102 889.16 532.746 889.244C533.95 889.468 534.552 888.922 534.552 887.606C534.552 887.269 534.412 886.807 534.132 886.219C533.88 885.631 533.852 885.057 534.048 884.497C534.216 883.993 534.65 883.587 535.35 883.279C536.079 882.971 536.765 882.915 537.409 883.111C537.997 883.307 538.473 883.769 538.837 884.497C539.201 885.197 539.355 885.743 539.299 886.135ZM518.211 844.757C518.211 843.189 518.127 841.817 517.959 840.64C517.791 839.436 517.427 838.204 516.867 836.944C516.335 835.683 515.593 834.675 514.64 833.919C513.716 833.135 512.428 832.547 510.776 832.155C509.123 831.735 507.163 831.637 504.894 831.861C504.838 831.861 504.628 831.847 504.264 831.819C503.928 831.763 503.564 831.735 503.172 831.735C502.808 831.735 502.486 831.777 502.206 831.861C501.73 832.001 501.422 832.141 501.282 832.281C501.17 832.421 501.114 832.729 501.114 833.205V857.654H504.642C506.939 857.654 509.095 857.164 511.112 856.183C513.156 855.175 514.85 853.663 516.195 851.646C517.539 849.63 518.211 847.334 518.211 844.757ZM570.585 879.414C568.12 886.975 563.009 890.756 555.252 890.756C550.295 890.756 546.304 889.272 543.28 886.303C540.255 883.335 538.743 879.232 538.743 873.995C538.743 872.006 539.135 869.976 539.919 867.904C540.703 865.803 541.767 863.899 543.112 862.191C544.456 860.454 546.108 859.026 548.069 857.906C550.029 856.757 552.087 856.155 554.244 856.099C556.092 856.071 557.772 856.267 559.285 856.687C560.797 857.108 562.043 857.668 563.023 858.368C564.032 859.04 564.914 859.866 565.67 860.846C566.426 861.798 567.014 862.751 567.434 863.703C567.854 864.627 568.19 865.607 568.443 866.643C568.695 867.652 568.849 868.506 568.905 869.206C568.989 869.878 569.031 870.522 569.031 871.138C569.031 871.782 568.513 872.104 567.476 872.104H547.186C546.906 872.104 546.766 872.245 546.766 872.525V877.44C546.766 878.784 546.808 879.918 546.892 880.842C546.976 881.738 547.172 882.719 547.48 883.783C547.817 884.819 548.265 885.645 548.825 886.261C549.413 886.877 550.239 887.395 551.303 887.816C552.395 888.236 553.712 888.446 555.252 888.446C558.641 888.446 561.413 887.69 563.57 886.177C565.726 884.637 567.406 882.298 568.611 879.162C569.031 878.07 569.507 877.538 570.039 877.566C570.487 877.566 570.725 877.888 570.753 878.532C570.753 878.812 570.697 879.106 570.585 879.414ZM561.133 868.492C561.133 867.007 561.049 865.719 560.881 864.627C560.741 863.507 560.447 862.373 559.999 861.224C559.579 860.076 558.879 859.208 557.898 858.62C556.918 858.032 555.7 857.766 554.244 857.822C552.395 857.906 550.883 858.494 549.707 859.586C548.559 860.678 547.774 861.966 547.354 863.451C546.962 864.907 546.766 866.587 546.766 868.492C546.766 869.36 546.934 869.794 547.27 869.794H560.083C560.783 869.794 561.133 869.36 561.133 868.492ZM612.289 859.124C612.289 860.188 611.939 861.126 611.239 861.938C610.566 862.751 609.796 863.157 608.928 863.157C608.116 863.157 607.444 862.891 606.912 862.359C606.38 861.826 606.114 861.21 606.114 860.51C606.114 859.894 606.156 859.39 606.24 858.998C606.352 858.606 606.464 858.34 606.576 858.2C606.688 858.032 606.87 857.822 607.122 857.57C606.31 857.598 605.455 857.934 604.559 858.578C603.663 859.194 602.865 859.95 602.165 860.846C603.173 861.91 603.999 863.241 604.643 864.837C605.287 866.433 605.609 868.058 605.609 869.71C605.609 872.231 604.741 874.611 603.005 876.851C601.297 879.092 598.902 880.716 595.822 881.724C592.769 882.733 589.142 882.537 584.941 881.136C582.813 881.136 581.231 881.444 580.194 882.06C579.186 882.649 578.626 883.741 578.514 885.337C578.486 886.345 578.752 887.045 579.312 887.437C579.9 887.83 580.741 888.054 581.833 888.11C586.706 888.39 592.797 888.39 600.106 888.11C603.075 887.97 605.385 888.838 607.038 890.714C608.718 892.591 609.614 895.391 609.726 899.116C609.81 902.308 608.914 905.207 607.038 907.811C605.161 910.416 602.725 912.404 599.728 913.777C596.732 915.177 593.553 915.877 590.192 915.877C588.176 915.877 586.272 915.681 584.479 915.289C582.687 914.897 580.993 914.295 579.396 913.483C577.828 912.67 576.582 911.522 575.658 910.038C574.733 908.582 574.271 906.859 574.271 904.871C574.271 902.546 575.111 900.432 576.792 898.528C578.5 896.623 580.418 895.447 582.547 894.999V894.831C580.25 894.831 578.514 894.187 577.338 892.899C576.19 891.638 575.686 889.818 575.826 887.437C575.966 884.833 576.526 882.943 577.506 881.766C578.486 880.59 580.194 879.862 582.631 879.582C580.615 878.294 579.172 876.949 578.304 875.549C577.464 874.149 577.044 872.287 577.044 869.962C577.044 866.097 578.458 862.821 581.287 860.132C584.115 857.444 587.462 856.099 591.327 856.099C594.575 856.099 597.586 857.052 600.358 858.956C601.283 857.948 602.445 857.052 603.845 856.267C605.245 855.483 606.604 855.091 607.92 855.091C609.208 855.091 610.258 855.441 611.07 856.141C611.883 856.841 612.289 857.836 612.289 859.124ZM598.384 869.08C598.328 867.848 598.272 866.881 598.216 866.181C598.16 865.453 598.034 864.613 597.838 863.661C597.67 862.681 597.418 861.924 597.082 861.392C596.774 860.86 596.354 860.342 595.822 859.838C595.289 859.306 594.603 858.942 593.763 858.746C592.951 858.55 591.985 858.466 590.865 858.494C589.716 858.522 588.722 858.704 587.882 859.04C587.07 859.376 586.426 859.866 585.95 860.51C585.473 861.126 585.095 861.742 584.815 862.359C584.535 862.947 584.353 863.731 584.269 864.711C584.213 865.691 584.185 866.503 584.185 867.148C584.185 867.764 584.213 868.59 584.269 869.626C584.297 870.578 584.325 871.222 584.353 871.558C584.381 871.866 584.423 872.441 584.479 873.281C584.563 874.093 584.647 874.667 584.731 875.003C584.815 875.311 584.941 875.787 585.109 876.431C585.305 877.047 585.515 877.496 585.74 877.776C585.992 878.028 586.3 878.35 586.664 878.742C587.056 879.134 587.476 879.414 587.924 879.582C588.4 879.722 588.96 879.848 589.604 879.96C590.248 880.072 590.963 880.114 591.747 880.086C593.427 880.03 594.771 879.666 595.779 878.994C596.816 878.322 597.488 877.482 597.796 876.473C598.132 875.437 598.342 874.275 598.426 872.987C598.538 871.698 598.524 870.396 598.384 869.08ZM607.416 899.116C607.416 898.052 607.024 897.197 606.24 896.553C605.483 895.909 604.573 895.461 603.509 895.209C602.473 894.985 601.157 894.831 599.56 894.747C593.819 894.439 589.954 894.383 587.966 894.579C586.986 894.635 585.95 894.859 584.857 895.251C583.793 895.671 582.743 896.231 581.707 896.931C580.699 897.631 579.858 898.542 579.186 899.662C578.542 900.81 578.22 902.056 578.22 903.401C578.22 905.137 578.556 906.663 579.228 907.98C579.9 909.324 580.825 910.374 582.001 911.13C583.177 911.886 584.479 912.446 585.908 912.81C587.364 913.203 588.932 913.399 590.612 913.399C593.385 913.399 596.06 912.754 598.636 911.466C601.241 910.178 603.355 908.414 604.979 906.173C606.604 903.961 607.416 901.608 607.416 899.116ZM651.808 890C647.943 889.748 644.219 889.776 640.634 890.084C640.438 889.048 640.298 886.387 640.214 882.102L639.92 882.943C638.856 885.491 637.231 887.48 635.047 888.908C632.89 890.336 630.482 891.05 627.821 891.05C625.637 891.05 623.831 890.84 622.402 890.42C620.974 890 619.882 889.342 619.126 888.446C618.398 887.522 617.893 886.513 617.613 885.421C617.361 884.301 617.235 882.901 617.235 881.22V861.182C617.235 860.286 616.745 859.796 615.765 859.712C614.505 859.628 613.273 859.628 612.068 859.712C611.508 859.712 611.116 859.516 610.892 859.124C610.696 858.704 610.71 858.284 610.934 857.864C611.158 857.444 611.536 857.234 612.068 857.234C615.093 857.374 616.927 857.43 617.571 857.402C619.84 857.262 621.534 856.827 622.654 856.099C623.691 855.427 624.209 855.567 624.209 856.519V882.27C624.209 884.287 624.671 885.855 625.595 886.975C626.519 888.068 627.681 888.614 629.082 888.614C630.454 888.614 631.784 888.236 633.072 887.48C634.361 886.723 635.467 885.743 636.391 884.539C637.315 883.335 638.071 882.228 638.659 881.22C639.248 880.184 639.766 879.148 640.214 878.112V860.678C640.214 860.314 640.116 860.076 639.92 859.964C639.724 859.852 639.332 859.768 638.744 859.712H635.047C634.347 859.712 633.885 859.516 633.661 859.124C633.464 858.704 633.52 858.284 633.829 857.864C634.137 857.444 634.543 857.234 635.047 857.234C638.071 857.374 639.906 857.43 640.55 857.402C642.818 857.262 644.485 856.827 645.549 856.099C646.193 855.707 646.613 855.525 646.809 855.553C647.033 855.581 647.145 855.875 647.145 856.435V885.967C647.145 886.975 647.635 887.522 648.615 887.606C649.652 887.69 650.716 887.69 651.808 887.606C652.34 887.914 652.704 888.264 652.9 888.656C653.096 889.048 653.096 889.384 652.9 889.664C652.704 889.916 652.34 890.028 651.808 890ZM673.516 890C667.803 889.748 661.978 889.748 656.04 890C655.452 890 655.088 889.664 654.948 888.992C654.808 888.292 654.99 887.844 655.494 887.648C655.662 887.592 655.844 887.578 656.04 887.606C657.497 887.774 658.953 887.774 660.409 887.606C660.857 887.578 661.123 887.508 661.208 887.395C661.32 887.255 661.376 887.059 661.376 886.807V833.289C661.376 832.365 660.885 831.861 659.905 831.777C658.813 831.693 657.721 831.693 656.629 831.777C656.097 831.777 655.718 831.581 655.494 831.188C655.298 830.768 655.312 830.362 655.536 829.97C655.76 829.55 656.125 829.34 656.629 829.34C658.981 829.452 660.619 829.48 661.544 829.424C663.532 829.312 665.282 828.654 666.795 827.45C667.607 826.778 668.069 826.498 668.181 826.61C668.237 826.694 668.265 826.89 668.265 827.198V886.639C668.265 887.199 668.573 887.522 669.189 887.606C670.757 887.774 672.2 887.774 673.516 887.606C674.076 887.494 674.412 887.76 674.524 888.404C674.664 889.076 674.496 889.566 674.02 889.874C673.88 889.958 673.712 890 673.516 890ZM710.851 888.614C709.114 890.042 707.28 890.756 705.348 890.756C703.359 890.756 701.735 890.308 700.475 889.412C699.215 888.488 698.43 887.255 698.122 885.715C698.122 885.603 698.08 885.547 697.996 885.547C697.94 885.547 697.898 885.603 697.87 885.715C697.002 887.227 695.742 888.446 694.09 889.37C692.437 890.294 690.547 890.756 688.418 890.756C685.114 890.756 682.565 890.014 680.773 888.53C678.981 887.017 678.084 884.875 678.084 882.102C678.084 880.17 678.701 878.462 679.933 876.977C681.165 875.493 682.761 874.345 684.722 873.533C686.682 872.721 688.628 872.118 690.561 871.726C692.521 871.306 694.468 871.054 696.4 870.97C697.436 870.97 697.954 870.802 697.954 870.466V862.905C697.954 859.908 696.582 858.41 693.837 858.41C692.493 858.41 691.247 858.522 690.099 858.746C688.951 858.942 687.942 859.306 687.074 859.838C686.234 860.37 685.814 861.042 685.814 861.854C685.814 862.275 685.954 862.569 686.234 862.737C686.542 862.905 686.864 863.017 687.2 863.073C687.536 863.101 687.844 863.325 688.124 863.745C688.432 864.165 688.586 864.795 688.586 865.635C688.586 866.363 688.222 866.951 687.494 867.4C686.794 867.848 685.87 868.072 684.722 868.072C683.658 868.072 682.761 867.638 682.033 866.769C681.305 865.873 680.997 864.781 681.109 863.493C681.249 861.616 682.593 859.95 685.142 858.494C687.69 857.01 690.729 856.211 694.258 856.099C697.31 856.099 699.845 856.926 701.861 858.578C703.905 860.23 704.928 862.471 704.928 865.299V885.337C704.928 886.261 705.068 886.919 705.348 887.311C705.656 887.676 706.342 887.858 707.406 887.858C707.63 887.858 707.826 887.844 707.994 887.816C708.162 887.788 708.344 887.732 708.54 887.648C708.736 887.564 708.876 887.494 708.96 887.437C709.072 887.381 709.255 887.283 709.507 887.143C709.759 886.975 709.927 886.863 710.011 886.807C710.235 886.667 710.459 886.695 710.683 886.891C710.935 887.059 711.075 887.311 711.103 887.648C711.159 887.956 711.075 888.278 710.851 888.614ZM697.954 882.943V873.743C697.954 873.351 697.492 873.183 696.568 873.239C693.515 873.435 691.359 873.743 690.099 874.163C687.046 875.283 685.506 877.496 685.478 880.8C685.478 883.293 685.87 885.071 686.654 886.135C687.466 887.171 689.091 887.69 691.527 887.69C691.947 887.69 692.367 887.62 692.787 887.48C693.235 887.339 693.655 887.143 694.048 886.891C694.44 886.611 694.79 886.345 695.098 886.093C695.434 885.841 695.77 885.533 696.106 885.169C696.47 884.777 696.736 884.483 696.904 884.287C697.1 884.063 697.324 883.783 697.576 883.447L697.954 882.943ZM740.036 859.124C740.568 860.244 740.512 861.574 739.868 863.115C739.252 864.627 738.272 865.383 736.928 865.383C736.423 865.383 735.905 865.341 735.373 865.257C734.869 865.145 734.337 864.865 733.777 864.417C733.245 863.969 732.979 863.381 732.979 862.653C732.979 861.868 733.049 861.252 733.189 860.804C733.329 860.356 733.483 860.09 733.651 860.006C733.847 859.894 734.015 859.768 734.155 859.628C734.295 859.46 734.365 859.264 734.365 859.04C734.365 858.62 733.847 858.41 732.811 858.41C732.083 858.41 731.298 858.606 730.458 858.998C729.646 859.39 728.806 860.02 727.938 860.888C727.098 861.756 726.341 862.807 725.669 864.039C724.997 865.243 724.437 866.769 723.989 868.618C723.569 870.438 723.359 872.427 723.359 874.583V886.639C723.359 887.199 723.667 887.522 724.283 887.606C726.271 887.886 728.078 887.886 729.702 887.606C730.234 887.494 730.542 887.788 730.626 888.488C730.738 889.188 730.57 889.664 730.122 889.916C730.01 889.972 729.898 890 729.786 890C723.541 889.72 717.156 889.72 710.63 890C710.098 890 709.748 889.664 709.58 888.992C709.44 888.292 709.608 887.844 710.084 887.648C710.252 887.592 710.434 887.578 710.63 887.606C712.255 887.774 713.851 887.774 715.419 887.606C715.867 887.578 716.133 887.508 716.217 887.395C716.329 887.255 716.385 887.059 716.385 886.807L716.47 861.266C716.47 860.258 715.979 859.712 714.999 859.628C712.871 859.488 711.443 859.488 710.714 859.628C710.154 859.74 709.79 859.474 709.622 858.83C709.454 858.13 709.622 857.64 710.126 857.36C710.294 857.276 710.49 857.234 710.714 857.234C712.591 857.318 714.425 857.318 716.217 857.234C718.038 857.15 719.788 856.519 721.468 855.343C721.917 855.035 722.197 854.853 722.309 854.797C722.449 854.741 722.561 854.769 722.645 854.881C722.757 854.965 722.855 855.203 722.939 855.595C723.303 857.892 723.443 860.958 723.359 864.795L723.527 865.215C723.807 864.123 724.185 863.073 724.661 862.065C725.165 861.056 725.823 860.048 726.636 859.04C727.448 858.032 728.512 857.22 729.828 856.603C731.144 855.987 732.601 855.679 734.197 855.679C735.653 855.679 736.858 855.945 737.81 856.477C738.762 856.982 739.504 857.864 740.036 859.124Z" fill="white"/>
<path d="M530.94 753.782C530.968 754.118 530.73 754.412 530.225 754.664C529.721 754.888 529.189 755 528.629 755H484.941C484.549 755 484.24 754.804 484.016 754.412C483.82 754.02 483.792 753.628 483.932 753.236C484.1 752.816 484.436 752.606 484.941 752.606C486.873 752.83 488.525 752.83 489.898 752.606C490.738 752.494 491.298 752.213 491.578 751.765C491.858 751.289 491.998 750.533 491.998 749.497V699.003C491.998 698.527 491.83 698.023 491.494 697.491C491.186 696.959 490.864 696.679 490.528 696.651C489.94 696.567 489.337 696.525 488.721 696.525C488.133 696.525 487.461 696.553 486.705 696.609C485.977 696.637 485.389 696.651 484.941 696.651C484.38 696.651 484.016 696.455 483.848 696.062C483.68 695.642 483.708 695.236 483.932 694.844C484.184 694.452 484.52 694.256 484.941 694.256C485.081 694.368 488.553 694.396 495.359 694.34C502.164 694.284 505.623 694.256 505.735 694.256C506.379 694.256 506.771 694.592 506.911 695.264C507.051 695.908 506.869 696.342 506.365 696.567C506.197 696.651 505.987 696.679 505.735 696.651C503.802 696.483 501.94 696.483 500.148 696.651C499.755 696.707 499.377 696.931 499.013 697.323C498.677 697.687 498.509 698.107 498.509 698.583L498.425 751.219C498.397 751.527 498.425 751.779 498.509 751.975C498.621 752.143 498.803 752.255 499.055 752.311C499.335 752.367 499.517 752.409 499.601 752.437C499.713 752.437 499.896 752.437 500.148 752.437C501.044 752.437 502.094 752.466 503.298 752.522C504.53 752.578 505.693 752.606 506.785 752.606C508.941 752.634 510.776 752.634 512.288 752.606C513.8 752.55 515.327 752.437 516.867 752.269C518.407 752.101 519.681 751.849 520.69 751.513C521.698 751.177 522.678 750.729 523.63 750.169C524.582 749.581 525.339 748.881 525.899 748.069C526.459 747.228 526.963 746.234 527.411 745.086C527.859 743.91 528.167 742.58 528.335 741.095C528.531 739.583 528.629 737.847 528.629 735.886C528.629 735.326 529.007 735.046 529.763 735.046C530.548 735.046 530.94 735.326 530.94 735.886C530.576 742.692 530.576 748.657 530.94 753.782ZM542.439 699.255C543.28 700.123 543.7 701.159 543.7 702.364C543.7 703.568 543.28 704.604 542.439 705.472C541.627 706.312 540.647 706.733 539.499 706.733C538.351 706.733 537.356 706.312 536.516 705.472C535.676 704.604 535.256 703.568 535.256 702.364C535.256 701.159 535.676 700.123 536.516 699.255C537.356 698.387 538.351 697.953 539.499 697.953C540.647 697.953 541.627 698.387 542.439 699.255ZM547.564 755C542.467 754.748 537.23 754.748 531.853 755C531.321 755 530.971 754.664 530.803 753.992C530.663 753.292 530.831 752.844 531.307 752.648C531.475 752.592 531.657 752.578 531.853 752.606C533.282 752.83 534.71 752.83 536.138 752.606C536.446 752.578 536.67 752.522 536.81 752.437C536.95 752.353 537.02 752.283 537.02 752.227C537.048 752.143 537.062 752.003 537.062 751.807V726.602C537.062 725.314 536.586 724.628 535.634 724.544C535.522 724.516 534.976 724.516 533.996 724.544C533.016 724.544 532.469 724.544 532.357 724.544C531.853 724.544 531.489 724.348 531.265 723.956C531.041 723.536 531.041 723.13 531.265 722.738C531.489 722.346 531.853 722.15 532.357 722.15C533.058 722.178 533.842 722.234 534.71 722.318C535.606 722.374 536.222 722.402 536.558 722.402C536.894 722.402 537.286 722.402 537.735 722.402C538.211 722.374 538.561 722.304 538.785 722.192C539.009 722.08 539.247 721.926 539.499 721.729C539.779 721.505 540.087 721.211 540.423 720.847C541.459 719.559 541.977 719.727 541.977 721.351V751.639C541.977 752.199 542.271 752.522 542.86 752.606C543.364 752.69 543.882 752.732 544.414 752.732C544.974 752.732 545.562 752.718 546.178 752.69C546.794 752.634 547.256 752.606 547.564 752.606C548.069 752.606 548.391 752.802 548.531 753.194C548.699 753.586 548.671 753.992 548.447 754.412C548.251 754.804 547.957 755 547.564 755ZM585.698 724.04C585.698 725.104 585.347 726.042 584.647 726.854C583.975 727.667 583.205 728.073 582.337 728.073C581.525 728.073 580.853 727.807 580.32 727.275C579.788 726.714 579.522 726.084 579.522 725.384C579.522 724.768 579.564 724.264 579.648 723.872C579.76 723.48 579.872 723.214 579.984 723.074C580.096 722.934 580.278 722.738 580.531 722.486C579.69 722.514 578.808 722.85 577.884 723.494C576.988 724.11 576.204 724.866 575.532 725.762C576.54 726.826 577.366 728.059 578.01 729.459C578.654 730.831 578.976 732.12 578.976 733.324C578.976 736.012 578.15 738.533 576.498 740.885C574.845 743.238 572.563 744.946 569.65 746.01C566.738 747.046 563.307 746.92 559.358 745.632C557.622 745.632 556.138 745.968 554.905 746.64C553.701 747.284 553.043 748.349 552.931 749.833C552.875 750.953 553.141 751.933 553.729 752.774C554.317 753.586 555.172 754.048 556.292 754.16C560.997 754.44 566.724 754.44 573.473 754.16C576.638 754.02 579.2 754.832 581.161 756.596C583.149 758.361 584.143 761.273 584.143 765.334C584.143 768.135 583.219 770.739 581.371 773.148C579.55 775.584 577.212 777.474 574.355 778.819C571.527 780.191 568.628 780.877 565.66 780.877C563.447 780.877 561.347 780.625 559.358 780.121C557.37 779.617 555.564 778.861 553.939 777.852C552.343 776.872 551.069 775.542 550.117 773.862C549.164 772.209 548.688 770.305 548.688 768.149C548.688 766.132 549.542 764.2 551.251 762.351C552.987 760.503 554.891 759.369 556.964 758.949V758.781C554.695 758.781 552.973 758.067 551.797 756.638C550.621 755.21 550.103 753.292 550.243 750.883C550.243 749.147 550.859 747.663 552.091 746.43C553.323 745.17 555.326 744.386 558.098 744.078C556.138 742.818 554.709 741.361 553.813 739.709C552.945 738.057 552.511 735.956 552.511 733.408C552.511 729.991 553.743 727.079 556.208 724.67C558.672 722.234 561.683 721.015 565.24 721.015C566.668 721.015 567.942 721.169 569.062 721.477C570.182 721.785 570.981 722.094 571.457 722.402C571.961 722.682 572.717 723.172 573.725 723.872C574.649 722.836 575.812 721.926 577.212 721.141C578.64 720.357 580.012 719.965 581.329 719.965C582.617 719.965 583.667 720.329 584.479 721.057C585.291 721.757 585.698 722.752 585.698 724.04ZM573.809 733.324C573.753 731.671 573.599 730.299 573.347 729.207C573.095 728.115 572.661 727.107 572.045 726.182C571.457 725.23 570.603 724.53 569.482 724.082C568.39 723.634 567.004 723.41 565.324 723.41C563.951 723.41 562.775 723.606 561.795 723.998C560.815 724.39 560.044 724.894 559.484 725.51C558.924 726.098 558.49 726.854 558.182 727.779C557.902 728.675 557.72 729.557 557.636 730.425C557.58 731.293 557.58 732.26 557.636 733.324C557.72 735.172 557.874 736.712 558.098 737.945C558.322 739.177 558.714 740.353 559.274 741.473C559.862 742.566 560.717 743.378 561.837 743.91C562.985 744.414 564.427 744.638 566.164 744.582C567.536 744.526 568.712 744.26 569.692 743.784C570.701 743.308 571.471 742.734 572.003 742.061C572.563 741.361 572.983 740.493 573.263 739.457C573.571 738.421 573.753 737.441 573.809 736.516C573.865 735.564 573.865 734.5 573.809 733.324ZM581.749 765.418C581.693 764.074 581.413 762.926 580.909 761.973C580.404 761.049 579.746 760.363 578.934 759.915C578.122 759.467 577.324 759.145 576.54 758.949C575.756 758.781 574.915 758.697 574.019 758.697C573.067 758.697 571.639 758.683 569.734 758.655C567.83 758.627 566.318 758.613 565.197 758.613C564.105 758.641 563.167 758.697 562.383 758.781C561.599 758.837 560.787 758.977 559.946 759.201C559.106 759.453 558.238 759.817 557.342 760.293C556.474 760.797 555.69 761.385 554.989 762.057C554.317 762.758 553.757 763.626 553.309 764.662C552.889 765.698 552.679 766.832 552.679 768.065C552.679 771.229 553.925 773.764 556.418 775.668C558.91 777.6 561.963 778.567 565.576 778.567C567.676 778.567 569.636 778.259 571.457 777.642C573.305 777.054 574.845 776.284 576.078 775.332C577.338 774.38 578.416 773.316 579.312 772.139C580.208 770.963 580.853 769.787 581.245 768.611C581.637 767.462 581.805 766.398 581.749 765.418ZM625.763 754.916C620.246 754.664 614.771 754.664 609.338 754.916C608.75 754.916 608.414 754.58 608.33 753.908C608.218 753.236 608.4 752.816 608.876 752.648C609.016 752.592 609.17 752.578 609.338 752.606C610.794 752.83 612.306 752.802 613.875 752.522C614.351 752.494 614.645 752.423 614.757 752.311C614.869 752.171 614.925 751.975 614.925 751.723V729.627C614.925 727.499 614.449 725.93 613.497 724.922C612.572 723.914 611.578 723.41 610.514 723.41C608.918 723.41 607.405 723.648 605.977 724.124C604.577 724.6 603.401 725.174 602.448 725.846C601.496 726.49 600.558 727.331 599.634 728.367C598.738 729.403 598.052 730.299 597.575 731.055C597.099 731.783 596.567 732.68 595.979 733.744V751.555C595.979 752.115 596.301 752.437 596.945 752.522C598.458 752.69 599.858 752.69 601.146 752.522C601.706 752.409 602.042 752.676 602.154 753.32C602.294 753.992 602.126 754.482 601.65 754.79C601.51 754.874 601.342 754.916 601.146 754.916C596.105 754.748 590.98 754.748 585.771 754.916C585.239 754.916 584.889 754.58 584.721 753.908C584.581 753.208 584.749 752.76 585.225 752.564C585.393 752.508 585.575 752.494 585.771 752.522C587.311 752.69 588.768 752.69 590.14 752.522C590.588 752.494 590.854 752.423 590.938 752.311C591.05 752.171 591.106 751.975 591.106 751.723V698.457C591.106 697.953 591.008 697.589 590.812 697.365C590.616 697.113 590.252 696.973 589.72 696.945C588.628 696.861 587.563 696.861 586.527 696.945C585.687 697.057 585.225 696.763 585.141 696.062C585.057 695.446 585.295 694.984 585.855 694.676C586.051 694.564 586.275 694.508 586.527 694.508C588.768 694.62 590.406 694.648 591.442 694.592C592.03 694.48 593.081 693.822 594.593 692.618C595.293 692.058 595.685 691.778 595.769 691.778C595.881 691.778 595.951 692.086 595.979 692.702V729.627C595.979 729.823 595.993 729.921 596.021 729.921C595.993 729.921 596.091 729.767 596.315 729.459C597.211 728.227 598.052 727.191 598.836 726.35C599.62 725.482 600.586 724.6 601.734 723.704C602.882 722.808 604.185 722.136 605.641 721.687C607.125 721.239 608.75 721.015 610.514 721.015C612.418 721.015 614.015 721.267 615.303 721.771C616.619 722.276 617.613 723.004 618.285 723.956C618.958 724.88 619.42 725.874 619.672 726.938C619.952 728.003 620.092 729.235 620.092 730.635V751.555C620.092 752.115 620.4 752.437 621.016 752.522C622.696 752.69 624.279 752.69 625.763 752.522C626.295 752.409 626.603 752.676 626.687 753.32C626.799 754.02 626.617 754.51 626.141 754.79C626.029 754.874 625.903 754.916 625.763 754.916ZM648.395 751.891C647.527 752.956 646.435 753.866 645.118 754.622C643.802 755.378 642.374 755.756 640.833 755.756C637.865 755.756 635.765 755.196 634.532 754.076C633.3 752.928 632.684 750.939 632.684 748.111V725.594C632.684 725.398 632.67 725.258 632.642 725.174C632.614 725.09 632.53 725.006 632.39 724.922C632.25 724.81 632.026 724.74 631.718 724.712C630.401 724.6 629.519 724.572 629.071 724.628C628.455 724.74 628.091 724.488 627.979 723.872C627.867 723.228 628.063 722.752 628.567 722.444C628.735 722.36 628.931 722.318 629.155 722.318C630.023 722.29 630.794 722.15 631.466 721.898C632.166 721.617 632.712 721.309 633.104 720.973C633.524 720.637 633.902 720.175 634.238 719.587C634.602 718.999 634.854 718.509 634.994 718.117C635.162 717.725 635.358 717.165 635.582 716.436C635.835 715.708 636.017 715.204 636.129 714.924C636.353 714.308 636.577 713.93 636.801 713.79C637.053 713.622 637.235 713.664 637.347 713.916C637.487 714.14 637.557 714.476 637.557 714.924V721.267C637.557 721.491 637.557 721.631 637.557 721.687C637.557 721.743 637.585 721.841 637.641 721.982C637.697 722.122 637.795 722.22 637.935 722.276C638.103 722.304 638.327 722.318 638.607 722.318H646.505C646.953 722.318 647.275 722.514 647.471 722.906C647.667 723.298 647.667 723.704 647.471 724.124C647.303 724.516 646.981 724.712 646.505 724.712C645.048 724.6 642.584 724.544 639.111 724.544C638.859 724.544 638.635 724.558 638.439 724.586C638.271 724.586 638.131 724.614 638.019 724.67C637.907 724.698 637.809 724.726 637.725 724.754C637.669 724.782 637.627 724.852 637.599 724.964C637.571 725.048 637.557 725.104 637.557 725.132C637.557 725.16 637.557 725.244 637.557 725.384C637.557 725.496 637.557 725.566 637.557 725.594V748.699C637.557 751.807 638.677 753.362 640.918 753.362C641.394 753.362 641.828 753.348 642.22 753.32C642.612 753.264 642.976 753.18 643.312 753.068C643.648 752.928 643.914 752.83 644.11 752.774C644.334 752.69 644.586 752.522 644.866 752.269C645.174 752.017 645.384 751.835 645.496 751.723C645.636 751.611 645.874 751.373 646.211 751.009C646.575 750.645 646.827 750.393 646.967 750.253C647.275 749.945 647.583 749.875 647.891 750.043C648.227 750.183 648.437 750.449 648.521 750.841C648.605 751.205 648.563 751.555 648.395 751.891Z" fill="white"/>
<path d="M529.175 996.434C533.012 999.207 534.93 1003.11 534.93 1008.15C534.93 1013.2 532.816 1017.31 528.587 1020.51C524.386 1023.7 518.491 1025.2 510.902 1025C506.617 1024.89 497.963 1024.89 484.941 1025C484.52 1025 484.24 1024.86 484.1 1024.58C483.96 1024.3 483.974 1023.96 484.142 1023.57C484.31 1023.15 484.577 1022.77 484.941 1022.44C485.137 1022.44 485.571 1022.45 486.243 1022.48C486.943 1022.51 487.475 1022.52 487.839 1022.52C488.203 1022.49 488.637 1022.44 489.141 1022.35C489.646 1022.27 490.01 1022.1 490.234 1021.85C490.486 1021.57 490.612 1021.22 490.612 1020.8V968.289C490.612 967.897 490.486 967.589 490.234 967.365C490.01 967.113 489.631 966.945 489.099 966.861C488.595 966.777 488.147 966.735 487.755 966.735C487.391 966.707 486.873 966.707 486.201 966.735C485.529 966.763 485.109 966.777 484.941 966.777C484.464 966.777 484.226 966.342 484.226 965.474C484.226 964.606 484.464 964.172 484.941 964.172C498.411 964.284 507.387 964.284 511.868 964.172C514.332 964.116 516.685 964.34 518.925 964.844C521.194 965.32 523.28 966.09 525.184 967.155C527.089 968.219 528.615 969.689 529.763 971.566C530.912 973.414 531.486 975.542 531.486 977.951C531.486 980.163 530.968 982.166 529.931 983.958C528.923 985.75 527.579 987.179 525.899 988.243C524.218 989.307 522.384 990.119 520.396 990.679C518.407 991.239 516.363 991.519 514.262 991.519V991.687C520.368 992.052 525.339 993.634 529.175 996.434ZM518.841 980.513C518.841 975.5 517.987 971.958 516.279 969.885C514.598 967.813 511.924 966.777 508.255 966.777C508.059 966.777 507.695 966.763 507.163 966.735C506.659 966.707 506.253 966.707 505.945 966.735C505.637 966.735 505.287 966.763 504.894 966.819C504.502 966.875 504.208 967.015 504.012 967.239C503.844 967.435 503.76 967.701 503.76 968.037V990.343C503.76 990.595 503.858 990.805 504.054 990.973C504.278 991.141 504.6 991.253 505.021 991.309C505.441 991.365 505.805 991.393 506.113 991.393C506.449 991.393 506.883 991.393 507.415 991.393C507.975 991.365 508.311 991.351 508.423 991.351C515.369 991.351 518.841 987.739 518.841 980.513ZM520.732 1008.24C520.732 1003.7 519.737 1000.29 517.749 997.989C515.761 995.692 512.82 994.376 508.927 994.04C508.787 994.04 508.395 994.026 507.751 993.998C507.135 993.97 506.659 993.97 506.323 993.998C505.987 994.026 505.581 994.082 505.105 994.166C504.656 994.222 504.32 994.376 504.096 994.628C503.872 994.852 503.76 995.146 503.76 995.51V1020.97C503.76 1021.33 503.844 1021.64 504.012 1021.89C504.18 1022.12 504.432 1022.27 504.768 1022.35C505.133 1022.41 505.427 1022.45 505.651 1022.48C505.903 1022.51 506.267 1022.51 506.743 1022.48C507.219 1022.45 507.513 1022.44 507.625 1022.44C512.078 1022.44 515.369 1021.37 517.497 1019.24C519.653 1017.09 520.732 1013.42 520.732 1008.24ZM580.331 1008.91C580.331 1011.66 579.799 1014.12 578.735 1016.3C577.698 1018.49 576.256 1020.27 574.408 1021.64C572.587 1022.98 570.473 1024.01 568.064 1024.71C565.684 1025.41 563.093 1025.76 560.293 1025.76C557.492 1025.76 554.888 1025.41 552.479 1024.71C550.099 1024.01 547.985 1022.98 546.136 1021.64C544.316 1020.27 542.874 1018.49 541.809 1016.3C540.773 1014.12 540.255 1011.66 540.255 1008.91C540.255 1005.24 541.165 1002.04 542.986 999.291C544.806 996.546 547.214 994.488 550.211 993.116C553.236 991.715 556.596 991.015 560.293 991.015C563.99 991.015 567.336 991.715 570.333 993.116C573.358 994.488 575.78 996.546 577.6 999.291C579.421 1002.04 580.331 1005.24 580.331 1008.91ZM567.182 1015.3V1002.11C567.182 996.196 564.886 993.242 560.293 993.242C555.7 993.242 553.404 996.196 553.404 1002.11V1015.3C553.404 1017.37 554.034 1019.24 555.294 1020.93C556.582 1022.61 558.249 1023.45 560.293 1023.45C562.281 1023.45 563.92 1022.55 565.208 1020.76C566.524 1018.96 567.182 1017.14 567.182 1015.3ZM608.55 1025.08C600.036 1024.8 592.265 1024.78 585.235 1025C584.787 1025 584.437 1024.76 584.185 1024.29C583.933 1023.81 583.891 1023.33 584.059 1022.86C584.227 1022.38 584.619 1022.14 585.235 1022.14C585.487 1022.14 585.922 1022.19 586.538 1022.27C587.182 1022.33 587.728 1022.35 588.176 1022.35C588.624 1022.35 589.086 1022.31 589.562 1022.23C590.038 1022.14 590.402 1021.93 590.654 1021.6C590.935 1021.26 591.075 1020.81 591.075 1020.25V968.457C591.075 967.617 590.865 967.113 590.444 966.945C590.024 966.777 589.016 966.707 587.42 966.735C586.524 966.763 585.796 966.777 585.235 966.777C584.759 966.777 584.521 966.342 584.521 965.474C584.521 964.606 584.759 964.172 585.235 964.172C585.908 964.172 586.832 964.2 588.008 964.256C589.184 964.312 590.038 964.34 590.57 964.34C592.027 964.34 593.007 964.34 593.511 964.34C594.015 964.34 594.813 964.312 595.906 964.256C597.026 964.172 597.838 964.06 598.342 963.92C598.874 963.752 599.448 963.528 600.064 963.248C600.68 962.94 601.185 962.562 601.577 962.114C602.137 961.61 602.459 961.372 602.543 961.4C602.655 961.428 602.711 961.722 602.711 962.282V1020.8C602.711 1021.22 602.823 1021.56 603.047 1021.81C603.299 1022.03 603.663 1022.17 604.139 1022.23C604.615 1022.28 605.063 1022.31 605.483 1022.31C605.931 1022.31 606.478 1022.28 607.122 1022.23C607.766 1022.17 608.242 1022.14 608.55 1022.14C609.138 1022.14 609.502 1022.4 609.642 1022.9C609.782 1023.38 609.726 1023.87 609.474 1024.37C609.222 1024.85 608.914 1025.08 608.55 1025.08ZM659.286 1025.17C653.04 1024.86 647.873 1024.8 643.784 1025C643.644 1025 643.476 1025 643.28 1025C643.112 1025 643 1025 642.944 1025C642.916 1025.03 642.86 1025.03 642.776 1025C642.692 1024.97 642.65 1024.94 642.65 1024.92C642.65 1024.89 642.636 1024.82 642.608 1024.71C642.58 1024.59 642.566 1024.48 642.566 1024.37C642.566 1024.23 642.552 1024.03 642.524 1023.78C642.496 1023.53 642.454 1023.28 642.398 1023.03L641.81 1019.41C641.81 1019.33 641.796 1019.24 641.768 1019.16L641.726 1019.08C641.67 1019.19 641.614 1019.27 641.558 1019.33C639.346 1023.87 635.845 1026.13 631.056 1026.13C629.292 1026.13 627.569 1025.92 625.889 1025.5C624.237 1025.11 622.64 1024.45 621.1 1023.53C619.56 1022.61 618.201 1021.5 617.025 1020.21C615.877 1018.89 614.953 1017.27 614.253 1015.34C613.581 1013.38 613.245 1011.24 613.245 1008.91C613.245 1003.34 614.813 998.983 617.949 995.846C621.086 992.682 625.483 991.099 631.14 991.099C636.069 991.099 639.57 993.312 641.642 997.737H641.81V968.583C641.81 968.051 641.656 967.631 641.348 967.323C641.04 967.015 640.578 966.819 639.962 966.735C639.374 966.651 638.828 966.609 638.323 966.609C637.819 966.609 637.175 966.637 636.391 966.693C635.635 966.749 635.117 966.777 634.837 966.777C634.389 966.777 634.081 966.567 633.913 966.146C633.745 965.698 633.745 965.264 633.913 964.844C634.081 964.396 634.389 964.172 634.837 964.172C635.565 964.172 636.671 964.186 638.155 964.214C639.64 964.242 640.718 964.256 641.39 964.256C644.387 964.256 646.781 964.004 648.573 963.5C650.394 962.968 651.808 961.988 652.816 960.559C653.236 959.971 653.446 960.083 653.446 960.895V1020.8C653.446 1021.33 653.572 1021.75 653.824 1022.06C654.105 1022.34 654.483 1022.52 654.959 1022.61C655.463 1022.69 655.939 1022.73 656.387 1022.73C656.835 1022.7 657.367 1022.66 657.983 1022.61C658.599 1022.55 659.033 1022.52 659.286 1022.52C659.846 1022.52 660.126 1022.97 660.126 1023.87C660.126 1024.73 659.846 1025.17 659.286 1025.17ZM641.81 1011.22V1004.63C641.81 1001.99 640.97 999.599 639.29 997.443C637.637 995.286 635.439 994.208 632.694 994.208C628.157 994.208 625.889 997.765 625.889 1004.88V1012.36C625.889 1016 626.435 1018.68 627.527 1020.42C628.648 1022.16 630.482 1023.03 633.03 1023.03C634.767 1023.03 636.321 1022.4 637.693 1021.14C639.094 1019.85 640.13 1018.32 640.802 1016.56C641.474 1014.76 641.81 1012.99 641.81 1011.22Z" fill="white"/>
<path d="M515.102 1100.47H515.018C515.018 1101.4 514.598 1101.86 513.758 1101.86L507.793 1101.65C507.373 1101.65 507.121 1101.86 507.037 1102.28C506.785 1103.4 505.469 1108.5 503.088 1117.57C500.736 1126.62 498.467 1135.36 496.283 1143.78C494.098 1152.21 493.006 1156.56 493.006 1156.81C493.006 1157.4 493.118 1157.69 493.342 1157.69L499.559 1157.61C500.008 1157.61 500.232 1157.86 500.232 1158.36C500.232 1158.75 500.106 1159.13 499.854 1159.5C499.601 1159.83 499.293 1160 498.929 1160H478.051C477.575 1160 477.337 1159.51 477.337 1158.53C477.337 1157.8 477.687 1157.44 478.387 1157.44L484.142 1157.69C484.254 1157.69 484.338 1157.68 484.394 1157.65C484.478 1157.62 484.534 1157.58 484.563 1157.52C484.619 1157.44 484.647 1157.38 484.647 1157.35C484.675 1157.3 484.703 1157.21 484.731 1157.1C484.759 1156.99 484.773 1156.92 484.773 1156.89C484.913 1156.36 485.529 1153.99 486.621 1149.79C487.741 1145.59 488.959 1140.97 490.276 1135.93C491.592 1130.86 492.922 1125.74 494.266 1120.55C495.639 1115.35 496.773 1110.99 497.669 1107.49C498.593 1103.96 499.055 1102.14 499.055 1102.03C499.055 1101.72 498.845 1101.57 498.425 1101.57L492.082 1101.86C491.718 1101.86 491.536 1101.62 491.536 1101.15C491.536 1100.78 491.648 1100.38 491.872 1099.93C492.096 1099.48 492.362 1099.26 492.67 1099.26C493.902 1099.26 495.709 1099.27 498.089 1099.3C500.47 1099.33 502.276 1099.34 503.508 1099.34C504.74 1099.34 506.561 1099.33 508.969 1099.3C511.378 1099.27 513.198 1099.26 514.43 1099.26C514.878 1099.26 515.102 1099.66 515.102 1100.47ZM533.786 1125.85C533.786 1126.77 533.324 1127.23 532.399 1127.23C532.035 1127.23 531.461 1127.22 530.677 1127.19C529.893 1127.16 529.319 1127.15 528.955 1127.15C525.398 1127.15 523.62 1127.26 523.62 1127.49L516.226 1152.86C516.17 1153.05 516.058 1153.39 515.89 1153.87C515.75 1154.31 515.638 1154.66 515.554 1154.92C515.498 1155.17 515.428 1155.48 515.344 1155.84C515.288 1156.21 515.26 1156.56 515.26 1156.89C515.26 1158.26 515.862 1158.95 517.066 1158.95C517.543 1158.95 518.495 1158.64 519.923 1158.03C521.491 1157.16 522.864 1155.97 524.04 1154.45C525.244 1152.91 526.084 1151.26 526.56 1149.5C526.896 1149.33 527.26 1149.25 527.653 1149.25C528.297 1149.25 528.619 1149.41 528.619 1149.75C528.619 1149.95 528.563 1150.1 528.451 1150.21C527.863 1152.79 526.364 1155.17 523.956 1157.35C521.575 1159.51 519.083 1160.59 516.478 1160.59C514.406 1160.59 512.796 1160.08 511.647 1159.08C510.499 1158.07 509.925 1156.54 509.925 1154.5C509.925 1153.21 510.359 1151.11 511.227 1148.2L517.15 1127.65V1127.49C517.15 1127.37 517.038 1127.32 516.814 1127.32C516.814 1127.21 516.17 1127.18 514.882 1127.23L512.95 1127.32C512.922 1127.32 512.782 1127.33 512.53 1127.36C512.278 1127.36 512.095 1127.36 511.983 1127.36C511.899 1127.33 511.773 1127.29 511.605 1127.23C511.437 1127.18 511.311 1127.09 511.227 1126.98C511.171 1126.84 511.143 1126.66 511.143 1126.44C511.143 1126.1 511.255 1125.75 511.479 1125.39C511.731 1124.99 512.025 1124.8 512.362 1124.8C512.698 1124.8 513.132 1124.81 513.664 1124.84C514.196 1124.87 514.616 1124.88 514.924 1124.88C515.092 1124.88 515.372 1124.9 515.764 1124.92C516.156 1124.95 516.492 1124.97 516.772 1124.97C517.052 1124.94 517.333 1124.88 517.613 1124.8C517.893 1124.71 518.061 1124.57 518.117 1124.38L521.393 1113.03C523.83 1113.03 526 1112.38 527.905 1111.06C527.905 1111 527.961 1110.98 528.073 1110.98C528.269 1110.98 528.367 1111.09 528.367 1111.31C528.367 1111.9 527.709 1114.11 526.392 1117.95C525.104 1121.76 524.46 1123.98 524.46 1124.63C524.46 1124.74 524.558 1124.8 524.754 1124.8C525.37 1124.88 526.182 1124.92 527.19 1124.92C528.227 1124.92 529.375 1124.91 530.635 1124.88C531.923 1124.83 532.792 1124.8 533.24 1124.8C533.604 1124.8 533.786 1125.15 533.786 1125.85ZM572.171 1152.35C572.171 1152.38 572.157 1152.41 572.129 1152.44C572.101 1152.47 572.087 1152.49 572.087 1152.52L571.289 1154.08C569.02 1158.73 566.164 1161.05 562.719 1161.05C561.571 1161.05 560.619 1160.84 559.862 1160.42C559.106 1160.03 558.546 1159.44 558.182 1158.66C557.846 1157.87 557.608 1157.09 557.468 1156.3C557.356 1155.52 557.3 1154.57 557.3 1153.45H557.216C556.096 1155.46 554.485 1157.27 552.385 1158.87C550.285 1160.43 548.184 1161.22 546.084 1161.22C544.123 1161.22 542.373 1160.8 540.833 1159.96C539.292 1159.12 538.06 1158 537.136 1156.6C536.212 1155.17 535.512 1153.61 535.036 1151.93C534.559 1150.23 534.321 1148.45 534.321 1146.6C534.321 1143.07 535.302 1139.49 537.262 1135.85C539.25 1132.18 541.911 1129.12 545.244 1126.69C548.604 1124.22 552.077 1122.99 555.662 1122.99C557.678 1122.99 559.442 1123.69 560.955 1125.09C562.467 1126.49 563.419 1128.23 563.811 1130.3H563.895V1130.22L565.702 1124.88C565.87 1124.32 566.248 1124.04 566.836 1124.04C567.088 1124.04 567.466 1124.07 567.97 1124.12C568.502 1124.18 568.894 1124.21 569.146 1124.21C569.37 1124.21 569.706 1124.18 570.154 1124.12C570.631 1124.07 570.981 1124.04 571.205 1124.04C571.681 1124.04 571.919 1124.21 571.919 1124.55C571.919 1124.57 571.905 1124.63 571.877 1124.71C571.849 1124.8 571.835 1124.85 571.835 1124.88L563.307 1152.27C562.607 1154.73 562.257 1156.36 562.257 1157.14C562.257 1157.7 562.327 1158.11 562.467 1158.36C562.635 1158.59 562.971 1158.7 563.475 1158.7C564.567 1158.7 565.604 1158.1 566.584 1156.89C567.592 1155.69 568.404 1154.45 569.02 1153.19C569.636 1151.91 569.972 1151.25 570.028 1151.22H570.365C570.645 1151.22 571.009 1151.35 571.457 1151.6C571.933 1151.85 572.171 1152.1 572.171 1152.35ZM562.341 1132.99C562.341 1130.92 561.627 1129.14 560.199 1127.65C558.798 1126.17 557.076 1125.43 555.031 1125.43C553.211 1125.43 551.489 1126.11 549.864 1127.49C548.24 1128.83 546.882 1130.52 545.79 1132.57C544.725 1134.61 543.801 1136.87 543.017 1139.33C542.233 1141.77 541.659 1144.08 541.295 1146.26C540.931 1148.42 540.749 1150.3 540.749 1151.89C540.749 1153.94 541.183 1155.62 542.051 1156.93C542.919 1158.22 544.319 1158.87 546.252 1158.87C547.596 1158.87 548.884 1158.53 550.117 1157.86C551.377 1157.16 552.469 1156.29 553.393 1155.25C554.317 1154.22 555.186 1153 555.998 1151.6C556.81 1150.2 557.468 1148.9 557.972 1147.69C558.476 1146.46 558.938 1145.2 559.358 1143.91C561.347 1138.06 562.341 1134.42 562.341 1132.99ZM595.181 1097.28L580.016 1152.1C579.288 1154.93 578.924 1156.64 578.924 1157.23C578.924 1158.04 579.344 1158.45 580.184 1158.45C581.164 1158.45 582.046 1158.25 582.831 1157.86C583.615 1157.47 584.301 1156.86 584.889 1156.05C585.505 1155.24 585.981 1154.52 586.317 1153.91C586.653 1153.26 587.045 1152.42 587.493 1151.39C587.549 1151.33 587.605 1151.25 587.661 1151.14C587.717 1151 587.76 1150.88 587.788 1150.8C587.844 1150.72 587.914 1150.65 587.998 1150.59C588.11 1150.51 588.236 1150.46 588.376 1150.46C588.684 1150.46 588.964 1150.66 589.216 1151.05C589.468 1151.42 589.594 1151.77 589.594 1152.1C589.594 1152.58 589.272 1153.35 588.628 1154.41C587.591 1156.26 586.247 1157.75 584.595 1158.87C582.971 1159.96 581.164 1160.5 579.176 1160.5C577.383 1160.5 575.969 1160 574.933 1158.99C573.925 1157.98 573.421 1156.57 573.421 1154.75C573.421 1153.26 573.841 1151.05 574.681 1148.11L587.788 1101.65V1101.48C587.788 1101.37 587.689 1101.31 587.493 1101.31C586.989 1101.26 586.219 1101.23 585.183 1101.23C584.875 1101.23 584.413 1101.24 583.797 1101.27C583.209 1101.3 582.761 1101.31 582.452 1101.31C582.144 1101.31 581.892 1101.16 581.696 1100.85C581.5 1100.52 581.402 1100.18 581.402 1099.84C581.402 1099.7 581.416 1099.59 581.444 1099.51C581.472 1099.4 581.486 1099.31 581.486 1099.26C581.514 1099.2 581.556 1099.14 581.612 1099.09C581.696 1099.03 581.752 1099 581.78 1099C581.836 1098.98 581.92 1098.96 582.032 1098.96C582.144 1098.93 582.214 1098.92 582.242 1098.92C582.298 1098.92 582.396 1098.92 582.536 1098.92C582.677 1098.92 582.761 1098.92 582.789 1098.92H586.653C589.51 1098.92 591.75 1098.54 593.375 1097.79C593.571 1097.7 593.809 1097.58 594.089 1097.41C594.397 1097.24 594.649 1097.11 594.845 1097.03C594.873 1097.03 594.901 1097.02 594.929 1096.99C594.957 1096.96 594.985 1096.95 595.013 1096.95C595.125 1096.95 595.181 1097.06 595.181 1097.28ZM613.066 1103.04C613.066 1104.55 612.576 1105.99 611.596 1107.36C610.616 1108.74 609.411 1109.42 607.983 1109.42C607.171 1109.42 606.555 1109.16 606.135 1108.62C605.715 1108.06 605.505 1107.35 605.505 1106.48C605.505 1105.14 605.939 1103.75 606.807 1102.32C607.703 1100.87 608.781 1100.14 610.041 1100.14C610.966 1100.14 611.694 1100.4 612.226 1100.94C612.786 1101.44 613.066 1102.14 613.066 1103.04ZM608.865 1152.61C608.865 1152.89 608.837 1153.05 608.781 1153.11C608.081 1155.32 606.709 1157.23 604.664 1158.82C602.62 1160.42 600.464 1161.22 598.195 1161.22C596.515 1161.22 595.185 1160.69 594.204 1159.62C593.252 1158.53 592.776 1157.13 592.776 1155.42C592.776 1153.71 593.084 1152 593.7 1150.3L600.086 1128.33V1128.16C600.086 1128.05 599.959 1127.96 599.707 1127.91C599.483 1127.82 599.175 1127.78 598.783 1127.78C598.419 1127.75 598.055 1127.75 597.691 1127.78C597.355 1127.78 597.005 1127.79 596.641 1127.82C596.277 1127.82 596.067 1127.82 596.011 1127.82C595.955 1127.82 595.871 1127.82 595.759 1127.82C595.675 1127.82 595.605 1127.82 595.549 1127.82C595.493 1127.82 595.423 1127.82 595.339 1127.82C595.255 1127.82 595.199 1127.82 595.171 1127.82C595.143 1127.79 595.101 1127.77 595.045 1127.74C594.989 1127.71 594.947 1127.68 594.918 1127.65C594.89 1127.6 594.862 1127.54 594.834 1127.49C594.806 1127.43 594.778 1127.36 594.75 1127.28C594.75 1127.19 594.75 1127.09 594.75 1126.98C594.75 1126.59 594.848 1126.24 595.045 1125.93C595.241 1125.6 595.507 1125.43 595.843 1125.43C597.551 1125.43 598.937 1125.4 600.001 1125.34C601.066 1125.29 602.312 1125.12 603.74 1124.84C605.169 1124.56 606.471 1124.15 607.647 1123.62C607.675 1123.62 607.703 1123.61 607.731 1123.58C607.759 1123.55 607.787 1123.54 607.815 1123.54C607.871 1123.54 607.899 1123.56 607.899 1123.62L599.623 1151.56C598.727 1154.69 598.279 1156.85 598.279 1158.03C598.279 1158.78 598.699 1159.16 599.539 1159.16C600.408 1159.16 601.22 1158.96 601.976 1158.57C602.732 1158.18 603.404 1157.62 603.992 1156.89C604.608 1156.14 605.098 1155.44 605.463 1154.79C605.855 1154.12 606.261 1153.33 606.681 1152.44C606.961 1151.79 607.339 1151.47 607.815 1151.47C608.095 1151.47 608.333 1151.58 608.529 1151.81C608.753 1152.03 608.865 1152.3 608.865 1152.61ZM642.671 1129.8C642.671 1131.08 642.377 1132.15 641.789 1132.99C641.201 1133.8 640.291 1134.21 639.059 1134.21C637.911 1134.21 637.028 1133.83 636.412 1133.07C635.824 1132.32 635.53 1131.34 635.53 1130.13C635.53 1129.49 635.614 1128.98 635.782 1128.62C635.978 1128.23 636.16 1127.96 636.328 1127.82C636.524 1127.65 636.622 1127.51 636.622 1127.4C636.622 1126.48 635.628 1126.02 633.64 1126.02C631.651 1126.02 629.817 1126.66 628.137 1127.95C626.456 1129.21 625.084 1130.8 624.02 1132.74C622.984 1134.67 622.101 1136.83 621.373 1139.21C620.645 1141.56 620.127 1143.8 619.819 1145.93C619.511 1148.06 619.357 1149.99 619.357 1151.72C619.357 1153.8 619.959 1155.44 621.163 1156.64C622.367 1157.84 624.02 1158.45 626.12 1158.45C628.361 1158.45 630.391 1157.62 632.211 1155.97C634.06 1154.31 635.586 1152.3 636.79 1149.92C637.014 1149.39 637.364 1148.42 637.841 1147.02C637.953 1146.74 638.051 1146.53 638.135 1146.39C638.219 1146.22 638.359 1146.07 638.555 1145.93C638.751 1145.79 639.003 1145.72 639.311 1145.72C639.647 1145.72 639.927 1145.86 640.151 1146.14C640.375 1146.39 640.487 1146.68 640.487 1147.02C640.487 1148.11 640.011 1149.71 639.059 1151.81C637.602 1154.58 635.698 1156.79 633.346 1158.45C630.993 1160.07 628.333 1160.87 625.364 1160.84H625.112C621.331 1160.84 618.307 1159.4 616.038 1156.51C613.77 1153.6 612.636 1150.17 612.636 1146.22C612.636 1143.56 613.224 1140.87 614.4 1138.16C615.576 1135.44 617.116 1133.02 619.021 1130.89C620.953 1128.76 623.236 1127.02 625.868 1125.68C628.529 1124.31 631.231 1123.62 633.976 1123.62C635.348 1123.62 636.664 1123.83 637.925 1124.25C639.185 1124.64 640.291 1125.33 641.243 1126.31C642.195 1127.26 642.671 1128.42 642.671 1129.8Z" fill="white"/>
<path d="M539.551 1246.14C539.551 1248.69 539.019 1251.05 537.955 1253.2C536.891 1255.33 535.462 1257.11 533.67 1258.54C531.878 1259.97 529.889 1261.13 527.705 1262.02C525.521 1262.92 523.224 1263.51 520.816 1263.79V1263.96C523.028 1263.96 525.1 1264.4 527.033 1265.3C528.993 1266.17 530.632 1267.55 531.948 1269.46C533.292 1271.34 533.964 1273.53 533.964 1276.05C533.964 1277.43 533.796 1278.78 533.46 1280.13C533.124 1281.45 532.578 1282.85 531.822 1284.33C531.066 1285.79 529.973 1287.14 528.545 1288.4C527.145 1289.64 525.479 1290.76 523.546 1291.77C521.614 1292.77 519.191 1293.57 516.279 1294.16C513.366 1294.72 510.118 1295 506.533 1295C504.46 1295 501.52 1294.99 497.711 1294.96C493.902 1294.9 490.43 1294.87 487.293 1294.87C484.184 1294.87 481.216 1294.92 478.387 1295C478.163 1295 477.995 1294.79 477.883 1294.37C477.771 1293.95 477.813 1293.54 478.009 1293.15C478.205 1292.73 478.583 1292.52 479.143 1292.52L484.941 1292.69C485.361 1292.69 485.613 1292.45 485.697 1291.98L500.652 1237.11C500.764 1236.8 500.624 1236.65 500.232 1236.65L493.972 1236.86C493.496 1236.86 493.286 1236.51 493.342 1235.81C493.454 1235.03 493.79 1234.52 494.35 1234.3L494.728 1234.26H522.79C524.442 1234.26 526.011 1234.37 527.495 1234.59C529.007 1234.79 530.506 1235.17 531.99 1235.73C533.502 1236.26 534.804 1236.96 535.897 1237.83C536.989 1238.69 537.871 1239.84 538.543 1241.27C539.215 1242.67 539.551 1244.3 539.551 1246.14ZM527.873 1243.04C527.873 1240.63 527.271 1239 526.067 1238.16C524.862 1237.29 522.93 1236.86 520.27 1236.86H513.926C513.73 1236.86 513.59 1236.97 513.506 1237.2L506.701 1262.15C506.701 1262.49 506.841 1262.65 507.121 1262.65H513.758C515.495 1262.65 517.077 1262.37 518.505 1261.81C519.961 1261.23 521.152 1260.47 522.076 1259.55C523.028 1258.62 523.868 1257.54 524.596 1256.31C525.325 1255.05 525.885 1253.82 526.277 1252.61C526.697 1251.41 527.033 1250.15 527.285 1248.83C527.537 1247.52 527.691 1246.41 527.747 1245.51C527.831 1244.62 527.873 1243.79 527.873 1243.04ZM521.74 1273.74C521.74 1271.11 521.04 1269.05 519.639 1267.57C518.267 1266.06 516.251 1265.3 513.59 1265.3H506.281C505.889 1265.3 505.651 1265.48 505.567 1265.85L498.341 1292.14C498.341 1292.4 498.481 1292.52 498.761 1292.52H505.231C509.067 1292.52 511.56 1292.38 512.708 1292.1C514.36 1291.68 515.873 1290.6 517.245 1288.87C517.525 1288.53 517.819 1288.14 518.127 1287.69C518.995 1286.46 519.807 1284.46 520.564 1281.68C521.348 1278.88 521.74 1276.24 521.74 1273.74ZM576.298 1272.02C576.298 1274.74 575.738 1277.5 574.618 1280.3C573.498 1283.07 571.971 1285.6 570.039 1287.9C568.106 1290.2 565.67 1292.07 562.729 1293.53C559.817 1294.96 556.708 1295.67 553.404 1295.67C550.995 1295.67 548.741 1295.13 546.64 1294.03C544.568 1292.91 542.846 1291.22 541.473 1288.95C540.129 1286.65 539.457 1283.99 539.457 1280.97C539.457 1277.36 540.143 1273.97 541.515 1270.8C542.916 1267.61 544.708 1264.98 546.892 1262.91C549.105 1260.83 551.513 1259.21 554.118 1258.03C556.75 1256.86 559.327 1256.27 561.847 1256.27C566.328 1256.27 569.857 1257.77 572.433 1260.76C575.01 1263.76 576.298 1267.51 576.298 1272.02ZM567.182 1263.16C567.182 1261.45 566.804 1260.23 566.048 1259.5C565.292 1258.75 564.004 1258.37 562.183 1258.37C561.091 1258.37 560.125 1258.54 559.285 1258.87C558.473 1259.21 557.744 1259.83 557.1 1260.72C556.484 1261.59 556.064 1262.25 555.84 1262.7C555.616 1263.12 555.238 1263.96 554.706 1265.22C554.594 1265.47 554.51 1265.65 554.454 1265.76C552.857 1269.74 551.471 1273.9 550.295 1278.24C549.147 1282.58 548.573 1285.81 548.573 1287.94C548.573 1289.79 549.021 1291.21 549.917 1292.19C550.813 1293.14 552.059 1293.61 553.656 1293.61C554.3 1293.61 554.902 1293.54 555.462 1293.4C556.05 1293.24 556.54 1293.07 556.932 1292.9C557.352 1292.7 557.772 1292.4 558.193 1291.98C558.613 1291.53 558.935 1291.18 559.159 1290.93C559.411 1290.67 559.691 1290.25 559.999 1289.66C560.335 1289.05 560.545 1288.63 560.629 1288.4C560.741 1288.18 560.937 1287.72 561.217 1287.02C561.525 1286.32 561.707 1285.91 561.763 1285.8C562.743 1283.48 563.892 1279.51 565.208 1273.91C566.524 1268.31 567.182 1264.73 567.182 1263.16ZM608.13 1232.95L592.545 1286.47C591.677 1289.13 591.243 1290.69 591.243 1291.14C591.243 1291.84 591.355 1292.31 591.579 1292.56C591.831 1292.82 592.209 1292.94 592.713 1292.94C593.469 1292.94 594.533 1292.06 595.906 1290.3C597.278 1288.53 598.132 1287 598.468 1285.72C598.692 1285.27 598.986 1285.06 599.35 1285.09C599.714 1285.11 600.05 1285.28 600.358 1285.59C600.694 1285.9 600.82 1286.16 600.736 1286.39C599.672 1288.99 598.146 1291.26 596.158 1293.19C594.169 1295.1 591.901 1296.05 589.352 1296.05C587.868 1296.05 586.58 1295.81 585.487 1295.34C584.423 1294.86 583.639 1294.34 583.135 1293.78C582.631 1293.19 582.239 1292.49 581.959 1291.68C581.679 1290.87 581.525 1290.3 581.497 1289.96C581.469 1289.59 581.455 1289.24 581.455 1288.91C581.455 1287.48 581.791 1285.79 582.463 1283.83L595.99 1237.53C596.018 1237.42 595.962 1237.28 595.822 1237.11C595.681 1236.94 595.541 1236.86 595.401 1236.86C595.345 1236.8 594.575 1236.79 593.091 1236.82C591.635 1236.85 590.879 1236.86 590.823 1236.86C590.654 1236.86 590.556 1236.65 590.528 1236.23C590.5 1235.78 590.57 1235.35 590.739 1234.93C590.935 1234.48 591.201 1234.26 591.537 1234.26H596.158C601.591 1234.26 605.175 1233.77 606.912 1232.79L606.996 1232.74C607.752 1232.3 608.144 1232.25 608.172 1232.62C608.172 1232.7 608.158 1232.81 608.13 1232.95ZM650.338 1232.87L634.501 1286.47C633.857 1288.46 633.534 1289.66 633.534 1290.09C633.534 1290.79 633.661 1291.26 633.913 1291.51C634.165 1291.77 634.557 1291.89 635.089 1291.89C636.265 1291.89 637.385 1291.21 638.449 1289.83C639.514 1288.43 640.424 1286.85 641.18 1285.09C641.264 1284.81 641.6 1284.68 642.188 1284.71C642.944 1284.76 643.322 1285.16 643.322 1285.88C643.294 1286.16 643.224 1286.47 643.112 1286.81C639.724 1292.97 635.537 1296.05 630.552 1296.05C628.451 1296.05 626.813 1295.24 625.637 1293.61C624.489 1291.96 623.915 1289.85 623.915 1287.27C623.915 1286.93 623.859 1286.93 623.747 1287.27C623.214 1288.25 622.584 1289.22 621.856 1290.17C621.128 1291.09 620.26 1292.03 619.252 1292.98C618.271 1293.91 617.123 1294.65 615.807 1295.21C614.491 1295.77 613.146 1296.05 611.774 1296.05C608.526 1296.05 605.977 1294.79 604.129 1292.27C602.28 1289.72 601.356 1286.44 601.356 1282.44C601.356 1280.42 601.692 1278.25 602.364 1275.93C603.037 1273.6 604.031 1271.31 605.347 1269.04C606.663 1266.77 608.19 1264.71 609.926 1262.86C611.662 1261.02 613.707 1259.52 616.059 1258.37C618.412 1257.22 620.862 1256.65 623.411 1256.65C627.667 1256.65 630.048 1258.76 630.552 1262.99C630.552 1263.05 630.58 1263.07 630.636 1263.07L630.72 1262.99L638.029 1237.78C638.141 1237.53 638.113 1237.34 637.945 1237.2C637.805 1237.03 637.623 1236.94 637.399 1236.94L633.282 1237.03C632.778 1237.03 632.596 1236.65 632.736 1235.89C632.876 1235.14 633.198 1234.66 633.703 1234.47L633.955 1234.42H638.365C643.742 1234.42 647.467 1233.79 649.54 1232.53C649.848 1232.34 650.058 1232.24 650.17 1232.24C650.31 1232.24 650.366 1232.45 650.338 1232.87ZM629.166 1265.76C629.166 1263.47 628.676 1261.8 627.695 1260.76C626.743 1259.73 625.623 1259.21 624.335 1259.21C623.523 1259.21 622.836 1259.32 622.276 1259.55C621.716 1259.74 621.058 1260.22 620.302 1260.97C619.574 1261.73 618.818 1262.96 618.033 1264.67C617.277 1266.35 616.451 1268.55 615.555 1271.27L613.245 1278.07C612.572 1280.09 611.942 1282.41 611.354 1285.04C610.766 1287.65 610.472 1289.36 610.472 1290.17C610.472 1291.32 610.752 1292.16 611.312 1292.69C611.9 1293.19 612.6 1293.45 613.413 1293.45C615.121 1293.45 616.983 1292.55 619 1290.76C621.044 1288.96 622.822 1286.28 624.335 1282.69C627.555 1274.91 629.166 1269.26 629.166 1265.76ZM705.306 1234.26C705.782 1234.26 705.978 1234.61 705.894 1235.31C705.81 1236.09 705.474 1236.59 704.886 1236.82L704.508 1236.86L699.004 1236.78C698.864 1236.78 698.738 1236.79 698.626 1236.82C698.514 1236.85 698.416 1236.9 698.332 1236.99C698.276 1237.04 698.234 1237.1 698.206 1237.15C698.178 1237.18 698.122 1237.27 698.038 1237.41C697.982 1237.52 697.94 1237.59 697.912 1237.62L682.999 1291.81C682.999 1292.28 683.209 1292.52 683.629 1292.52L689.721 1292.44C690.393 1292.44 690.561 1292.86 690.225 1293.7C689.945 1294.4 689.581 1294.82 689.133 1294.96C689.077 1294.99 689.021 1295 688.965 1295C676.138 1294.89 667.582 1294.89 663.297 1295C663.101 1295 662.947 1294.79 662.835 1294.37C662.723 1293.95 662.765 1293.53 662.961 1293.11C663.157 1292.66 663.536 1292.44 664.096 1292.44L669.431 1292.52C669.851 1292.52 670.159 1292.28 670.355 1291.81L685.268 1237.62C685.352 1237.06 685.114 1236.78 684.554 1236.78L678.631 1236.86C678.182 1236.86 677.972 1236.52 678 1235.85C678.028 1235.07 678.336 1234.56 678.925 1234.34L679.387 1234.26C688.068 1234.42 696.708 1234.42 705.306 1234.26ZM725.459 1256.98C725.935 1256.98 726.005 1257.42 725.669 1258.28C725.333 1259.07 724.997 1259.49 724.661 1259.55C724.213 1259.55 723.219 1259.53 721.679 1259.5C720.166 1259.45 718.962 1259.43 718.066 1259.46C717.478 1259.46 717.1 1259.73 716.932 1260.26L709.706 1286.47C709.118 1288.29 708.824 1289.5 708.824 1290.09C708.824 1290.84 708.894 1291.33 709.034 1291.56C709.174 1291.78 709.482 1291.89 709.958 1291.89C711.218 1291.89 712.493 1291.14 713.781 1289.62C715.097 1288.11 716.119 1286.35 716.848 1284.33C716.932 1284.02 717.366 1283.91 718.15 1283.99C718.906 1284.08 719.256 1284.32 719.2 1284.71C719.2 1284.79 719.186 1284.86 719.158 1284.92L718.234 1286.89C717.058 1289.27 715.391 1291.4 713.235 1293.28C711.106 1295.13 708.866 1296.05 706.514 1296.05C705.029 1296.05 703.741 1295.81 702.649 1295.34C701.585 1294.86 700.8 1294.34 700.296 1293.78C699.792 1293.19 699.4 1292.49 699.12 1291.68C698.84 1290.87 698.686 1290.3 698.658 1289.96C698.63 1289.59 698.616 1289.24 698.616 1288.91C698.616 1287.48 698.952 1285.79 699.624 1283.83L706.177 1260.26C706.177 1260.06 706.093 1259.9 705.925 1259.76C705.757 1259.62 705.589 1259.55 705.421 1259.55H699.036C698.84 1259.49 698.728 1259.28 698.7 1258.91C698.7 1258.55 698.798 1258.16 698.994 1257.74C699.218 1257.29 699.484 1257.07 699.792 1257.07C702.705 1256.95 704.861 1256.93 706.262 1256.98C706.822 1256.98 707.228 1256.72 707.48 1256.18L709.706 1248.2C709.902 1247.61 710.336 1247.24 711.008 1247.07C711.401 1246.96 712.185 1246.75 713.361 1246.44C714.537 1246.1 715.377 1245.86 715.881 1245.72C716.414 1245.56 717.1 1245.3 717.94 1244.97C718.78 1244.63 719.536 1244.27 720.208 1243.88C720.404 1243.74 720.586 1243.64 720.754 1243.58C720.922 1243.5 721.09 1243.44 721.258 1243.41C721.426 1243.36 721.553 1243.39 721.637 1243.5C721.749 1243.61 721.791 1243.81 721.763 1244.09L718.15 1256.1C718.122 1256.3 718.164 1256.48 718.276 1256.65C718.416 1256.81 718.57 1256.9 718.738 1256.9C719.438 1256.9 720.558 1256.91 722.099 1256.94C723.639 1256.97 724.759 1256.98 725.459 1256.98ZM767.205 1257.49L758.719 1286.47C757.851 1289.13 757.417 1290.69 757.417 1291.14C757.417 1291.86 757.501 1292.35 757.669 1292.61C757.865 1292.83 758.215 1292.94 758.719 1292.94C759.644 1292.94 760.708 1292.17 761.912 1290.63C763.144 1289.06 764.138 1287.51 764.895 1285.97C765.147 1285.46 765.455 1285.23 765.819 1285.25C766.183 1285.28 766.505 1285.46 766.785 1285.8C767.093 1286.14 767.205 1286.42 767.121 1286.64C763.844 1292.91 760.148 1296.05 756.031 1296.05C753.37 1296.05 751.382 1295.25 750.066 1293.66C748.777 1292.03 748.133 1289.9 748.133 1287.27C748.105 1287.13 748.049 1287.13 747.965 1287.27C747.433 1288.25 746.803 1289.22 746.075 1290.17C745.347 1291.09 744.479 1292.03 743.47 1292.98C742.49 1293.91 741.342 1294.65 740.026 1295.21C738.709 1295.77 737.365 1296.05 735.993 1296.05C732.744 1296.05 730.196 1294.79 728.347 1292.27C726.499 1289.72 725.575 1286.44 725.575 1282.44C725.575 1280.42 725.911 1278.25 726.583 1275.93C727.255 1273.6 728.249 1271.31 729.566 1269.04C730.882 1266.77 732.408 1264.71 734.145 1262.86C735.881 1261.02 737.925 1259.52 740.278 1258.37C742.63 1257.22 745.081 1256.65 747.629 1256.65C751.886 1256.65 754.267 1258.76 754.771 1262.99C754.771 1263.05 754.799 1263.07 754.855 1263.07L754.939 1262.99L756.367 1257.99C756.535 1257.32 756.745 1256.98 756.997 1256.98C759.181 1257.37 762.444 1257.43 766.785 1257.15C766.925 1257.15 767.037 1257.18 767.121 1257.23C767.205 1257.29 767.233 1257.37 767.205 1257.49ZM753.384 1265.76C753.384 1263.41 752.866 1261.73 751.83 1260.72C750.822 1259.71 749.562 1259.21 748.049 1259.21C747.517 1259.21 747.055 1259.26 746.663 1259.38C746.271 1259.49 745.795 1259.77 745.235 1260.22C744.675 1260.67 744.129 1261.31 743.596 1262.15C743.092 1262.99 742.504 1264.18 741.832 1265.72C741.16 1267.23 740.474 1269.08 739.774 1271.27L737.463 1278.07C736.791 1280.09 736.161 1282.41 735.573 1285.04C734.985 1287.65 734.691 1289.36 734.691 1290.17C734.691 1292.35 735.671 1293.45 737.631 1293.45C739.032 1293.45 740.838 1292.52 743.05 1290.67C745.263 1288.82 747.097 1286.16 748.553 1282.69C751.774 1274.91 753.384 1269.26 753.384 1265.76ZM799.457 1232.95L783.872 1286.47C783.004 1289.13 782.57 1290.69 782.57 1291.14C782.57 1291.84 782.682 1292.31 782.906 1292.56C783.158 1292.82 783.536 1292.94 784.04 1292.94C784.796 1292.94 785.86 1292.06 787.233 1290.3C788.605 1288.53 789.459 1287 789.795 1285.72C790.019 1285.27 790.313 1285.06 790.677 1285.09C791.041 1285.11 791.377 1285.28 791.685 1285.59C792.022 1285.9 792.148 1286.16 792.064 1286.39C790.999 1288.99 789.473 1291.26 787.485 1293.19C785.496 1295.1 783.228 1296.05 780.679 1296.05C779.195 1296.05 777.907 1295.81 776.815 1295.34C775.75 1294.86 774.966 1294.34 774.462 1293.78C773.958 1293.19 773.566 1292.49 773.286 1291.68C773.006 1290.87 772.852 1290.3 772.824 1289.96C772.796 1289.59 772.782 1289.24 772.782 1288.91C772.782 1287.48 773.118 1285.79 773.79 1283.83L787.317 1237.53C787.345 1237.42 787.289 1237.28 787.149 1237.11C787.009 1236.94 786.869 1236.86 786.728 1236.86C786.672 1236.8 785.902 1236.79 784.418 1236.82C782.962 1236.85 782.206 1236.86 782.15 1236.86C781.982 1236.86 781.884 1236.65 781.856 1236.23C781.828 1235.78 781.898 1235.35 782.066 1234.93C782.262 1234.48 782.528 1234.26 782.864 1234.26H787.485C792.918 1234.26 796.502 1233.77 798.239 1232.79L798.323 1232.74C799.079 1232.3 799.471 1232.25 799.499 1232.62C799.499 1232.7 799.485 1232.81 799.457 1232.95ZM817.3 1239.84C818.448 1240.99 819.022 1242.41 819.022 1244.09C819.022 1245.77 818.448 1247.18 817.3 1248.33C816.18 1249.45 814.78 1250.01 813.099 1250.01C811.419 1250.01 810.005 1249.45 808.856 1248.33C807.708 1247.18 807.134 1245.77 807.134 1244.09C807.134 1242.41 807.708 1240.99 808.856 1239.84C810.005 1238.69 811.419 1238.12 813.099 1238.12C814.78 1238.12 816.18 1238.69 817.3 1239.84ZM814.612 1256.44L805.412 1286.47C804.852 1288.18 804.572 1289.44 804.572 1290.25C804.572 1291.04 804.614 1291.54 804.698 1291.77C804.81 1291.96 805.104 1292.06 805.58 1292.06C806.392 1292.06 807.386 1291.4 808.562 1290.09C809.767 1288.77 810.705 1287.45 811.377 1286.14C811.657 1285.69 811.965 1285.49 812.301 1285.55C812.665 1285.6 812.987 1285.79 813.267 1286.09C813.575 1286.4 813.687 1286.64 813.603 1286.81C812.511 1289.24 810.971 1291.4 808.982 1293.28C807.022 1295.13 804.782 1296.05 802.261 1296.05C800.777 1296.05 799.489 1295.81 798.396 1295.34C797.332 1294.86 796.548 1294.34 796.044 1293.78C795.54 1293.19 795.148 1292.49 794.868 1291.68C794.588 1290.87 794.42 1290.3 794.364 1289.96C794.336 1289.59 794.322 1289.24 794.322 1288.91C794.322 1287.56 794.672 1285.87 795.372 1283.83L802.933 1259.97C802.961 1259.83 802.863 1259.7 802.639 1259.59C802.443 1259.45 802.247 1259.38 802.051 1259.38L797.766 1259.46C797.262 1259.46 797.08 1259.08 797.22 1258.33C797.36 1257.54 797.696 1257.08 798.228 1256.94C798.284 1256.91 798.354 1256.9 798.438 1256.9H807.302C807.61 1256.9 808.044 1256.9 808.604 1256.9C809.192 1256.9 809.585 1256.9 809.781 1256.9C810.005 1256.9 810.313 1256.9 810.705 1256.9C811.125 1256.87 811.433 1256.86 811.629 1256.86C811.825 1256.83 812.063 1256.79 812.343 1256.73C812.623 1256.67 812.861 1256.62 813.057 1256.56C813.281 1256.48 813.491 1256.38 813.687 1256.27C814.275 1255.85 814.598 1255.79 814.654 1256.1C814.682 1256.18 814.668 1256.3 814.612 1256.44ZM850.182 1264.71C850.182 1266.34 849.594 1267.79 848.418 1269.08C847.242 1270.37 845.715 1271.01 843.839 1271.01C842.355 1271.01 841.052 1270.54 839.932 1269.59C838.84 1268.6 838.294 1267.53 838.294 1266.35C838.294 1265.17 838.434 1264.22 838.714 1263.49C839.022 1262.77 839.372 1262.28 839.764 1262.02C840.184 1261.74 840.604 1261.55 841.024 1261.44C841.444 1261.3 841.794 1261.14 842.075 1260.97C842.383 1260.78 842.537 1260.51 842.537 1260.18C842.537 1259.53 841.248 1259.21 838.672 1259.21C836.823 1259.21 835.087 1260.13 833.463 1261.98C831.838 1263.8 830.494 1266.01 829.43 1268.62C828.394 1271.2 827.484 1273.91 826.699 1276.77C825.943 1279.6 825.397 1282.02 825.061 1284.04C824.725 1286.02 824.557 1287.35 824.557 1288.03C824.557 1289.96 824.963 1291.35 825.775 1292.19C826.587 1293.03 827.988 1293.45 829.976 1293.45C832.833 1293.45 835.563 1292.47 838.168 1290.51C840.772 1288.52 842.663 1286.11 843.839 1283.28C843.979 1283.08 844.231 1282.99 844.595 1282.99C844.987 1282.96 845.365 1283.04 845.729 1283.24C846.093 1283.41 846.233 1283.6 846.149 1283.83C844.553 1287.38 842.341 1290.31 839.512 1292.61C836.683 1294.9 833.449 1296.05 829.808 1296.05C825.019 1296.05 821.28 1294.82 818.592 1292.35C815.903 1289.86 814.559 1286.53 814.559 1282.36C814.559 1278.74 815.315 1275.31 816.828 1272.06C818.34 1268.79 820.286 1266.04 822.667 1263.83C825.075 1261.62 827.736 1259.87 830.648 1258.58C833.561 1257.29 836.431 1256.65 839.26 1256.65C840.604 1256.65 841.864 1256.77 843.041 1257.02C844.217 1257.25 845.365 1257.64 846.485 1258.2C847.634 1258.76 848.53 1259.6 849.174 1260.72C849.846 1261.81 850.182 1263.14 850.182 1264.71Z" fill="white"/>
<path d="M345.863 623.881C329.431 637.398 312.072 644.156 293.785 644.156C274.968 644.156 259.596 639.915 247.67 631.434C235.743 622.688 228.322 611.027 225.407 596.451C225.407 595.39 225.01 594.86 224.214 594.86C223.684 594.86 223.287 595.39 223.022 596.451C214.806 610.762 202.88 622.291 187.243 631.037C171.606 639.783 153.717 644.156 133.575 644.156C102.301 644.156 78.1835 637.133 61.2217 623.086C44.2598 608.774 35.7789 588.5 35.7789 562.262C35.7789 543.975 41.6095 527.808 53.2708 513.762C64.9321 499.715 80.0387 488.849 98.5908 481.163C117.143 473.477 135.562 467.779 153.849 464.069C172.401 460.093 190.821 457.708 209.108 456.913C218.914 456.913 223.817 455.323 223.817 452.142V376.609C223.817 348.251 210.831 334.072 184.858 334.072C172.136 334.072 160.343 335.132 149.476 337.252C138.61 339.107 129.069 342.553 120.853 347.588C112.902 352.624 108.927 358.985 108.927 366.67C108.927 370.646 110.252 373.429 112.902 375.019C115.818 376.609 118.865 377.669 122.046 378.199C125.226 378.464 128.141 380.585 130.792 384.56C133.707 388.535 135.165 394.499 135.165 402.449C135.165 409.34 131.719 414.906 124.829 419.146C118.203 423.387 109.457 425.507 98.5908 425.507C88.5197 425.507 80.0387 421.399 73.148 413.183C66.2572 404.702 63.3419 394.366 64.402 382.175C65.7272 364.418 78.4486 348.649 102.566 334.867C126.684 320.82 155.439 313.267 188.833 312.207C217.721 312.207 241.706 320.025 260.788 335.662C280.136 351.299 289.809 372.501 289.809 399.269V592.873C289.809 601.619 291.134 607.847 293.785 611.557C296.7 615.003 303.193 616.725 313.264 616.725C315.384 616.725 317.24 616.593 318.83 616.328C320.42 616.063 322.143 615.533 323.998 614.738C325.853 613.942 327.178 613.28 327.973 612.75C329.033 612.22 330.756 611.292 333.141 609.967C335.527 608.377 337.117 607.317 337.912 606.787C340.032 605.462 342.152 605.727 344.273 607.582C346.658 609.172 347.983 611.557 348.248 614.738C348.778 617.653 347.983 620.701 345.863 623.881ZM223.817 570.213V483.151C223.817 479.44 219.444 477.85 210.698 478.38C181.81 480.235 161.403 483.151 149.476 487.126C120.588 497.727 106.012 518.665 105.747 549.938C105.747 573.526 109.457 590.355 116.878 600.426C124.564 610.232 139.935 615.135 162.993 615.135C166.968 615.135 170.944 614.473 174.919 613.147C179.16 611.822 183.135 609.967 186.845 607.582C190.556 604.931 193.869 602.414 196.784 600.028C199.964 597.643 203.145 594.728 206.325 591.283C209.77 587.572 212.288 584.789 213.878 582.934C215.734 580.814 217.854 578.164 220.239 574.983L223.817 570.213ZM848.259 637H622.852C618.876 637 615.829 635.277 613.708 631.832C611.853 628.387 611.721 624.941 613.311 621.496C614.901 617.785 618.081 615.93 622.852 615.93C644.849 616.99 659.161 616.99 665.787 615.93C680.893 614.075 690.434 611.557 694.41 608.377C698.385 604.931 699.445 600.426 697.59 594.86L649.487 466.056C648.692 463.936 646.572 462.876 643.127 462.876H468.208C465.292 462.876 463.835 463.671 463.835 465.261L420.9 592.873C419.575 596.318 418.647 598.836 418.117 600.426C417.852 602.016 417.985 604.136 418.515 606.787C419.045 609.437 421.165 611.557 424.875 613.147C428.851 614.473 434.284 615.4 441.175 615.93C450.451 617.255 466.75 617.255 490.072 615.93C495.108 615.93 498.156 617.785 499.216 621.496C500.541 624.941 500.011 628.387 497.626 631.832C495.506 635.277 492.988 637 490.072 637H336.223C332.778 637 329.995 635.145 327.875 631.434C325.754 627.459 325.357 623.749 326.682 620.303C328.272 616.593 331.718 615.135 337.018 615.93C339.138 616.195 341.126 616.46 342.981 616.725C344.837 616.99 346.162 617.123 346.957 617.123C347.752 617.123 348.812 617.123 350.137 617.123C351.727 616.858 353.583 616.46 355.703 615.93C369.749 614.075 378.893 610.762 383.133 605.992C387.639 600.956 393.204 587.97 399.83 567.032L567.196 45.0579C569.316 38.6972 572.496 35.9144 576.737 36.7095C581.242 37.2395 584.423 40.0223 586.278 45.0579L774.316 567.032C781.737 589.56 787.435 603.076 791.41 607.582C795.651 612.087 805.324 614.87 820.431 615.93C830.502 616.725 839.513 616.725 847.464 615.93C852.765 615.135 856.342 616.593 858.198 620.303C860.318 623.749 860.318 627.459 858.198 631.434C856.077 635.145 852.765 637 848.259 637ZM643.127 438.228L556.86 184.198C555.27 179.693 554.209 177.042 553.679 176.247C553.414 175.452 552.884 174.259 552.089 172.669C551.294 170.814 550.632 170.549 550.101 171.874C549.571 173.199 548.909 174.79 548.114 176.645C547.319 178.5 546.391 181.548 545.331 185.788L469.798 439.023C469.268 439.818 469.268 440.481 469.798 441.011C470.328 441.276 471.388 441.409 472.978 441.409H639.151C641.006 441.409 642.199 441.276 642.729 441.011C643.524 440.481 643.657 439.553 643.127 438.228Z" fill="white"/>
</svg>
