<svg width="122" height="62" viewBox="0 0 122 62" fill="none" xmlns="http://www.w3.org/2000/svg">
<path d="M14.7229 0.777126C24.5306 0.777126 28.7462 5.33687 28.7462 14.6284V16.7792C28.7462 22.9736 26.8535 26.9311 22.6379 28.9099C27.7138 30.8886 29.6926 35.4484 29.6926 41.8148V46.7187C29.6926 56.0102 24.7887 61.0001 15.3251 61.0001H0.441406V0.777126H14.7229ZM14.1206 33.8998H9.90502V52.3969H15.3251C18.5083 52.3969 20.229 50.9343 20.229 46.4606V41.2126C20.229 35.6204 18.4223 33.8998 14.1206 33.8998ZM14.4648 9.38042H9.90502V25.2965H13.6044C17.1318 25.2965 19.2826 23.7479 19.2826 18.9301V15.5748C19.2826 11.2731 17.82 9.38042 14.4648 9.38042Z" fill="white"/>
<path d="M41.8447 14.6284V47.1489C41.8447 51.4505 43.7375 53.0851 46.7486 53.0851C49.7598 53.0851 51.6525 51.4505 51.6525 47.1489V14.6284C51.6525 10.3268 49.7598 8.69215 46.7486 8.69215C43.7375 8.69215 41.8447 10.3268 41.8447 14.6284ZM32.3811 46.5466V15.2307C32.3811 5.59497 37.4571 0.0888672 46.7486 0.0888672C56.0402 0.0888672 61.1161 5.59497 61.1161 15.2307V46.5466C61.1161 56.1823 56.0402 61.6884 46.7486 61.6884C37.4571 61.6884 32.3811 56.1823 32.3811 46.5466Z" fill="white"/>
<path d="M65.0293 61.0001V0.777126H74.4929V52.3969H90.0648V61.0001H65.0293Z" fill="white"/>
<path d="M91.9461 61.0001V0.777126H106.916C116.379 0.777126 121.025 6.02513 121.025 15.6608V46.1165C121.025 55.7521 116.379 61.0001 106.916 61.0001H91.9461ZM106.744 9.38042H101.41V52.3969H106.744C109.755 52.3969 111.562 50.8483 111.562 46.5466V15.2307C111.562 10.929 109.755 9.38042 106.744 9.38042Z" fill="white"/>
</svg>
