<svg width="1729" height="906" viewBox="0 0 1729 906" fill="none" xmlns="http://www.w3.org/2000/svg">
<path d="M562.661 887H440.536L393.314 721.724H161.276L114.054 887H0.0703125L163.718 317.082H277.702L192.214 615.882H363.19L277.702 317.082H399.827L562.661 887Z" fill="white"/>
<path d="M588.422 604.484C597.378 515.739 652.741 455.491 781.38 455.491C929.559 455.491 962.94 536.093 962.94 629.723V887H844.885V694.042C844.885 694.856 844.885 695.671 844.885 696.485C843.257 857.69 767.539 899.213 695.892 899.213C607.148 899.213 578.652 844.663 578.652 790.928C578.652 623.21 844.885 664.732 844.885 594.714C844.885 565.404 820.46 545.049 775.681 545.049C717.875 545.049 698.335 579.244 698.335 604.484H588.422ZM844.885 694.042C800.92 735.565 697.52 720.096 697.52 782.787C697.52 799.884 708.105 822.681 745.556 822.681C817.203 822.681 844.071 760.804 844.885 696.485V694.042Z" fill="white"/>
<path d="M1256.84 619.861C1241.96 619.861 1229.57 614.44 1223.72 608.676V567.983C1229.66 562.821 1242.13 558.777 1256.84 558.777C1273.19 558.777 1283.77 562.735 1289.97 567.983V608.676C1283.94 614.613 1273.36 619.861 1256.84 619.861ZM1256.84 599.213C1274.31 599.213 1281.62 591.986 1284.2 589.233C1281.62 586.48 1274.31 579.425 1256.84 579.425C1240.07 579.425 1232.24 586.48 1229.57 589.233C1232.24 591.986 1240.07 599.213 1256.84 599.213Z" fill="white"/>
<path d="M1291.13 619V603.514L1338.19 579.081C1333.29 577.446 1327.53 576.844 1320.47 576.844C1304.98 576.844 1295.44 580.371 1291.13 583.125V563.939C1298.1 561.1 1308.94 558.777 1321.16 558.777C1335.53 558.777 1347.4 561.186 1352.3 564.886V580.888L1313.59 600.933H1352.22V619H1291.13Z" fill="white"/>
<path d="M1372.78 619V559.638H1409.34C1423.88 559.638 1436.53 562.563 1440.83 566.606V581.662C1436.1 585.103 1431.11 587.34 1426.29 588.631C1431.71 589.921 1438.42 591.9 1443.41 595.427V610.397C1439.02 614.871 1425.77 619 1411.92 619H1372.78ZM1409.34 578.135H1382.24V585.361H1409.25C1418.55 585.361 1424.48 584.071 1428.27 581.92C1424.57 579.769 1418.55 578.135 1409.34 578.135ZM1411.84 593.104H1382.24V600.503H1411.92C1421.13 600.503 1427.24 599.041 1430.76 596.804C1426.98 594.739 1421.13 593.104 1411.84 593.104Z" fill="white"/>
<path d="M1443.72 611.515V581.748C1448.02 577.618 1459.46 573.403 1475.12 573.403C1491.38 573.403 1502.13 577.532 1506.61 581.748V611.515C1502.13 615.731 1491.38 619.861 1475.12 619.861C1459.46 619.861 1448.02 615.645 1443.72 611.515ZM1475.12 603.514C1491.21 603.514 1499.38 598.266 1501.19 596.546C1499.38 594.911 1491.21 589.749 1475.12 589.749C1459.03 589.749 1450.94 594.911 1449.14 596.546C1450.94 598.266 1459.03 603.514 1475.12 603.514Z" fill="white"/>
<path d="M1507.85 619V553.615H1517.32V619H1507.85Z" fill="white"/>
<path d="M1518.56 611.515V581.748C1522.86 577.618 1534.3 573.403 1549.96 573.403C1561.49 573.403 1570.35 575.468 1576.03 578.221V553.615H1585.49V619H1576.03V615.043C1570.35 617.796 1561.49 619.861 1549.96 619.861C1534.3 619.861 1522.86 615.645 1518.56 611.515ZM1549.96 603.514C1566.05 603.514 1574.22 598.266 1576.03 596.546C1574.22 594.911 1566.05 589.749 1549.96 589.749C1533.87 589.749 1525.78 594.911 1523.98 596.546C1525.78 598.266 1533.87 603.514 1549.96 603.514Z" fill="white"/>
<path d="M1232.32 484.86C1224.92 484.86 1221.14 482.107 1221.14 474.536C1221.14 451.479 1244.88 423.777 1265.02 423.777C1275.08 423.777 1276.03 431.09 1276.03 437.886C1276.03 459.653 1253.06 484.86 1232.32 484.86ZM1232.93 484C1249.7 484 1268.63 449.931 1268.63 429.971C1268.63 426.186 1267.6 424.637 1264.76 424.637C1248.41 424.637 1228.62 460.599 1228.62 477.978C1228.62 481.333 1229.31 484 1232.93 484Z" fill="white"/>
<path d="M1300.48 484H1260.99L1288.09 464.815C1282.49 459.05 1280.86 451.566 1280.86 447.522C1280.86 430.057 1291.27 423.777 1304.09 423.777C1316.22 423.777 1320.78 428.165 1320.78 434.101C1320.78 440.553 1317.34 445.629 1294.62 461.459L1273.37 476.257H1304.95L1300.48 484ZM1282.06 447.522C1282.06 451.566 1283.87 459.136 1289.03 464.212L1294.02 460.685C1307.01 451.479 1310.8 443.823 1310.8 435.133C1310.8 430.746 1308.99 424.981 1301.25 424.981C1292.04 424.981 1282.06 431.004 1282.06 447.522Z" fill="white"/>
<path d="M1318.53 483.14H1327.99L1361.29 425.498H1351.82L1352.34 424.637H1380.82L1380.3 425.498H1370.75L1337.46 483.14H1346.92L1346.4 484H1318.01L1318.53 483.14Z" fill="white"/>
<path d="M1356.22 484L1381.6 440.123H1372.91L1399.5 424.637L1391.07 439.263H1406.12L1405.61 440.123H1390.55L1365.69 483.14H1380.74L1380.23 484H1356.22Z" fill="white"/>
<path d="M1401.44 484.86C1392.75 484.86 1388.8 480.731 1388.8 474.708C1388.8 459.136 1409.62 438.402 1428.71 438.402C1433.45 438.402 1434.39 440.639 1434.39 444.769C1434.39 447.436 1433.88 449.845 1432.67 452.77L1440.5 439.263H1449.53L1424.15 483.14H1433.19L1432.67 484H1414.69L1420.89 473.246C1415.21 479.87 1408.84 484.86 1401.44 484.86ZM1401.87 483.57C1416.67 483.57 1433.1 456.9 1433.1 444.769C1433.1 441.414 1432.76 439.435 1428.46 439.435C1413.14 439.435 1397.31 466.191 1397.31 478.408C1397.31 481.849 1398 483.57 1401.87 483.57Z" fill="white"/>
<path d="M1438.71 484L1475.44 420.336H1466.41L1466.92 419.475H1484.91L1448.17 483.14H1457.2L1456.69 484H1438.71Z" fill="white"/>
<path d="M1464.61 484L1489.99 440.123H1480.96L1481.48 439.263H1499.46L1474.08 483.14H1483.11L1482.6 484H1464.61ZM1507.97 419.819C1507.97 423.175 1505.57 425.239 1502.64 425.239C1499.54 425.239 1497.31 423.175 1497.31 419.819C1497.31 416.808 1499.54 414.485 1502.64 414.485C1505.57 414.485 1507.97 416.808 1507.97 419.819Z" fill="white"/>
<path d="M1505.88 484.86C1497.37 484.86 1493.32 480.731 1493.32 474.708C1493.32 459.997 1513.54 438.402 1533.16 438.402C1539.78 438.402 1542.45 442.618 1542.45 445.973C1542.45 449.673 1539.35 451.221 1535.56 451.221C1534.02 451.221 1532.21 450.963 1530.66 450.103L1536.51 439.951C1535.74 439.693 1534.88 439.435 1532.73 439.435C1517.41 439.435 1501.84 467.137 1501.84 478.408C1501.84 481.591 1502.61 483.57 1507 483.57C1516.81 483.656 1530.66 477.547 1534.27 458.104H1535.56C1531.78 478.408 1517.76 484.86 1505.88 484.86Z" fill="white"/>
<path d="M1244.8 281.917C1247.84 283.121 1250.65 284.527 1253.23 286.132C1255.87 287.738 1258.16 289.66 1260.11 291.897C1262.06 294.134 1263.58 296.715 1264.67 299.64C1265.76 302.565 1266.31 305.977 1266.31 309.878V310.222C1266.25 314.007 1265.62 317.477 1264.41 320.632C1263.27 323.786 1261.69 326.74 1259.68 329.493C1257.73 332.246 1255.47 334.798 1252.88 337.15C1250.3 339.502 1247.61 341.738 1244.8 343.861C1242.68 342.771 1240.41 341.48 1238 339.989C1235.65 338.44 1233.47 336.605 1231.46 334.483C1229.51 332.303 1227.88 329.78 1226.56 326.912C1225.24 323.987 1224.58 320.603 1224.58 316.76V316.416C1224.64 312.631 1225.15 309.132 1226.13 305.92C1227.16 302.651 1228.57 299.611 1230.34 296.801C1232.18 293.99 1234.33 291.352 1236.8 288.886C1239.26 286.419 1241.93 284.096 1244.8 281.917ZM1240.75 289.316C1240.47 290.061 1240.21 290.893 1239.98 291.811C1239.75 292.728 1239.52 293.732 1239.29 294.822C1239.12 295.912 1238.95 297.087 1238.78 298.349C1238.6 299.554 1238.43 300.873 1238.26 302.307C1238.14 303.683 1238.06 305.146 1238 306.694C1237.94 308.243 1237.92 309.878 1237.92 311.598C1237.92 314.753 1238.12 317.563 1238.52 320.029C1238.98 322.496 1239.64 324.704 1240.5 326.654C1241.41 328.547 1242.56 330.239 1243.94 331.73C1245.37 333.221 1247.06 334.569 1249.01 335.773C1249.36 335.028 1249.7 334.225 1250.05 333.365C1250.39 332.504 1250.71 331.587 1250.99 330.611C1251.34 329.636 1251.62 328.604 1251.85 327.514C1252.08 326.425 1252.28 325.249 1252.45 323.987C1252.63 322.668 1252.74 321.263 1252.8 319.771C1252.91 318.28 1252.97 316.703 1252.97 315.04C1252.97 312.344 1252.8 309.792 1252.45 307.383C1252.17 304.974 1251.59 302.708 1250.73 300.586C1249.87 298.407 1248.64 296.37 1247.03 294.478C1245.43 292.585 1243.34 290.864 1240.75 289.316Z" fill="white"/>
<path d="M1287.29 288.111C1286.32 289.086 1285.51 290.119 1284.88 291.208C1284.31 292.298 1283.85 293.503 1283.51 294.822C1283.16 296.141 1282.9 297.604 1282.73 299.209C1282.62 300.815 1282.59 302.593 1282.65 304.544H1268.36C1268.48 302.708 1268.88 301.074 1269.57 299.64C1270.26 298.206 1271.43 296.686 1273.1 295.08C1274.82 293.474 1277.11 291.667 1279.98 289.66C1282.85 287.595 1286.52 285.014 1290.99 281.917C1294.03 282.892 1296.55 283.838 1298.56 284.756C1300.63 285.616 1302.26 286.505 1303.47 287.423C1304.67 288.341 1305.53 289.344 1306.05 290.434C1306.56 291.467 1306.82 292.642 1306.82 293.961C1306.82 295.682 1306.45 297.116 1305.7 298.263C1305.01 299.41 1304.07 300.414 1302.86 301.274C1301.66 302.077 1300.28 302.823 1298.73 303.511C1297.24 304.142 1295.67 304.859 1294 305.662C1297.33 306.58 1299.97 307.612 1301.92 308.759C1303.92 309.906 1305.44 311.082 1306.48 312.286C1307.51 313.491 1308.2 314.667 1308.54 315.814C1308.89 316.904 1309.06 317.879 1309.06 318.739C1309.06 320.058 1308.86 321.377 1308.46 322.696C1308.11 324.016 1307.37 325.45 1306.22 326.998C1305.13 328.547 1303.52 330.325 1301.4 332.332C1299.34 334.282 1296.58 336.576 1293.14 339.215L1287.12 343.861C1284.37 341.566 1281.81 339.444 1279.46 337.494C1277.11 335.487 1275.05 333.537 1273.27 331.644C1271.55 329.694 1270.17 327.744 1269.14 325.794C1268.16 323.786 1267.62 321.578 1267.5 319.169H1282.65C1282.65 320.202 1282.85 321.291 1283.25 322.438C1283.71 323.585 1284.39 324.819 1285.31 326.138C1286.23 327.457 1287.35 328.833 1288.67 330.267C1290.04 331.701 1291.62 333.164 1293.4 334.655C1293.92 334.254 1294.46 333.766 1295.03 333.192C1295.61 332.562 1296.15 331.845 1296.67 331.042C1297.19 330.181 1297.59 329.235 1297.87 328.203C1298.22 327.17 1298.39 326.023 1298.39 324.761C1298.39 322.926 1297.96 321.32 1297.1 319.943C1296.3 318.51 1295.18 317.334 1293.74 316.416C1292.37 315.441 1290.76 314.695 1288.93 314.179C1287.09 313.663 1285.17 313.376 1283.16 313.319V309.964C1285.63 308.644 1287.55 307.469 1288.93 306.436C1290.36 305.404 1291.42 304.429 1292.11 303.511C1292.85 302.536 1293.31 301.618 1293.49 300.758C1293.72 299.898 1293.83 298.98 1293.83 298.005C1293.83 297.087 1293.72 296.198 1293.49 295.338C1293.26 294.42 1292.88 293.56 1292.37 292.757C1291.85 291.897 1291.16 291.094 1290.3 290.348C1289.5 289.545 1288.5 288.8 1287.29 288.111Z" fill="white"/>
<path d="M1357.4 336.634L1354.05 343.861C1351.29 343 1348.51 341.681 1345.7 339.903C1342.89 338.068 1340.34 335.831 1338.04 333.192C1335.81 330.554 1333.97 327.543 1332.54 324.159C1331.1 320.718 1330.39 316.961 1330.39 312.889C1330.39 308.472 1330.88 304.572 1331.85 301.188C1332.83 297.804 1334.17 294.793 1335.89 292.155C1337.67 289.516 1339.77 287.222 1342.17 285.272C1344.58 283.265 1347.22 281.429 1350.09 279.766L1350 284.154C1348.74 285.301 1347.65 286.735 1346.73 288.455C1345.87 290.176 1345.16 292.069 1344.58 294.134C1344.01 296.198 1343.58 298.407 1343.29 300.758C1343.01 303.052 1342.86 305.375 1342.86 307.727C1342.86 311.111 1343.18 314.265 1343.81 317.19C1344.44 320.058 1345.36 322.696 1346.56 325.105C1347.77 327.514 1349.26 329.694 1351.04 331.644C1352.87 333.537 1354.99 335.2 1357.4 336.634ZM1362.39 302.479C1361.88 300.643 1361.3 298.865 1360.67 297.145C1360.04 295.367 1359.27 293.703 1358.35 292.155C1357.43 290.606 1356.31 289.172 1354.99 287.853C1353.67 286.477 1352.01 285.243 1350 284.154L1353.96 277.615C1357.23 278.476 1360.13 279.651 1362.65 281.143C1365.17 282.576 1367.35 284.326 1369.19 286.391C1371.02 288.455 1372.52 290.807 1373.66 293.445C1374.81 296.084 1375.61 299.066 1376.07 302.393L1362.39 302.479ZM1363.94 312.545H1376.85C1376.44 316.846 1375.41 320.66 1373.75 323.987C1372.14 327.256 1370.22 330.153 1367.98 332.676C1365.75 335.143 1363.37 337.293 1360.84 339.129C1358.38 340.964 1356.11 342.541 1354.05 343.861L1357.4 336.634C1358.66 335.315 1359.7 333.766 1360.5 331.988C1361.36 330.153 1362.05 328.203 1362.56 326.138C1363.08 324.016 1363.42 321.807 1363.6 319.513C1363.83 317.162 1363.94 314.839 1363.94 312.545ZM1350.09 279.766L1353.96 277.615L1357.06 279.336L1350 284.154L1350.09 279.766ZM1341.66 290.95L1343.12 291.036C1341.57 293.961 1340.37 296.772 1339.51 299.468C1338.65 302.163 1338.07 304.744 1337.79 307.211C1337.56 309.619 1337.56 311.914 1337.79 314.093C1338.02 316.215 1338.42 318.223 1338.99 320.115C1339.62 321.951 1340.37 323.672 1341.23 325.277C1342.15 326.826 1343.15 328.231 1344.24 329.493C1345.33 330.755 1346.45 331.873 1347.59 332.848C1348.8 333.823 1349.97 334.655 1351.12 335.343L1350.43 337.236C1349.34 336.548 1348.2 335.687 1346.99 334.655C1345.79 333.623 1344.64 332.447 1343.55 331.128C1342.46 329.751 1341.43 328.231 1340.45 326.568C1339.48 324.847 1338.65 323.012 1337.96 321.062C1337.33 319.054 1336.87 316.904 1336.58 314.609C1336.35 312.315 1336.35 309.935 1336.58 307.469C1336.81 304.945 1337.33 302.307 1338.13 299.554C1338.93 296.743 1340.11 293.875 1341.66 290.95Z" fill="white"/>
<path d="M1401.46 360.293C1403.12 360.293 1404.56 360.092 1405.76 359.691C1407.02 359.346 1408.11 358.859 1409.03 358.228C1409.95 357.654 1410.72 356.995 1411.35 356.249C1412.04 355.561 1412.62 354.844 1413.08 354.098L1393.63 336.376C1393 337.351 1392.46 338.326 1392 339.301C1391.54 340.276 1391.17 341.28 1390.88 342.312C1390.59 343.344 1390.39 344.405 1390.28 345.495C1390.16 346.642 1390.1 347.847 1390.1 349.109C1390.1 350.485 1390.31 351.833 1390.71 353.152C1391.17 354.529 1391.85 355.733 1392.77 356.765C1393.69 357.798 1394.87 358.63 1396.3 359.26C1397.73 359.949 1399.45 360.293 1401.46 360.293ZM1416.52 308.071C1416.52 309.39 1416.37 310.767 1416.09 312.2C1415.8 313.634 1415.37 315.068 1414.8 316.502C1414.28 317.879 1413.62 319.284 1412.82 320.718C1412.07 322.094 1411.15 323.442 1410.06 324.761C1409.03 326.023 1407.88 327.228 1406.62 328.375C1405.36 329.464 1403.98 330.468 1402.49 331.386C1403.53 332.303 1404.93 333.565 1406.71 335.171C1408.49 336.777 1410.32 338.412 1412.22 340.075C1414.11 341.738 1415.86 343.316 1417.46 344.807C1419.13 346.298 1420.36 347.388 1421.16 348.076C1420.36 350.887 1419.24 353.382 1417.81 355.561C1416.37 357.798 1414.68 359.662 1412.73 361.153C1410.78 362.644 1408.6 363.792 1406.19 364.594C1403.78 365.397 1401.2 365.799 1398.45 365.799C1395.87 365.799 1393.4 365.512 1391.05 364.939C1388.7 364.422 1386.61 363.562 1384.77 362.358C1382.99 361.211 1381.56 359.748 1380.47 357.97C1379.44 356.249 1378.92 354.185 1378.92 351.776C1378.92 349.481 1379.32 347.417 1380.12 345.581C1380.93 343.746 1381.93 342.14 1383.14 340.763C1384.4 339.329 1385.75 338.068 1387.18 336.978C1388.61 335.831 1389.96 334.827 1391.22 333.967C1390.25 333.164 1389.33 332.275 1388.47 331.3C1387.67 330.267 1386.92 329.149 1386.23 327.944C1385.54 326.74 1384.94 325.478 1384.43 324.159C1383.91 322.84 1383.48 321.463 1383.14 320.029C1382.91 319.054 1382.71 318.079 1382.53 317.104C1382.42 316.072 1382.3 315.068 1382.19 314.093C1382.07 313.061 1381.99 312.057 1381.93 311.082C1381.87 310.05 1381.79 309.046 1381.67 308.071C1381.62 307.096 1381.53 306.236 1381.42 305.49C1381.3 304.744 1381.16 304.085 1380.99 303.511C1380.87 302.88 1380.73 302.307 1380.55 301.79C1380.38 301.217 1380.18 300.615 1379.95 299.984H1391.14C1391.42 300.615 1391.65 301.217 1391.83 301.79C1392 302.364 1392.14 302.966 1392.26 303.597C1392.37 304.171 1392.48 304.83 1392.6 305.576C1392.71 306.264 1392.8 307.096 1392.86 308.071C1392.97 309.103 1393.06 310.136 1393.12 311.168C1393.17 312.143 1393.26 313.118 1393.37 314.093C1393.49 315.011 1393.6 315.9 1393.72 316.76C1393.89 317.563 1394.09 318.366 1394.32 319.169C1394.66 320.374 1395.07 321.492 1395.52 322.524C1395.98 323.499 1396.44 324.417 1396.9 325.277C1397.42 326.08 1397.93 326.797 1398.45 327.428C1399.02 328.059 1399.57 328.604 1400.08 329.063C1400.66 328.661 1401.17 328.002 1401.63 327.084C1402.15 326.109 1402.58 325.019 1402.92 323.815C1403.33 322.553 1403.67 321.234 1403.96 319.857C1404.3 318.423 1404.56 317.018 1404.73 315.642C1404.96 314.265 1405.1 312.975 1405.16 311.77C1405.28 310.566 1405.33 309.533 1405.33 308.673C1405.33 307.813 1405.28 307.01 1405.16 306.264C1405.1 305.461 1404.99 304.687 1404.82 303.941C1404.7 303.196 1404.53 302.507 1404.3 301.877C1404.13 301.188 1403.9 300.557 1403.61 299.984H1414.8C1415.03 300.557 1415.23 301.102 1415.4 301.618C1415.63 302.077 1415.83 302.622 1416 303.253C1416.17 303.827 1416.29 304.515 1416.34 305.318C1416.46 306.063 1416.52 306.981 1416.52 308.071Z" fill="white"/>
<path d="M1421.1 299.984H1432.29C1432.52 300.328 1432.72 300.758 1432.89 301.274C1433.12 301.79 1433.32 302.364 1433.49 302.995C1433.67 303.568 1433.78 304.199 1433.84 304.888C1433.95 305.519 1434.01 306.178 1434.01 306.866C1434.3 306.694 1435.01 306.236 1436.16 305.49C1437.31 304.687 1438.51 303.827 1439.77 302.909C1441.09 301.991 1442.3 301.16 1443.39 300.414C1444.53 299.668 1445.19 299.238 1445.37 299.123C1446.57 299.64 1447.66 300.242 1448.64 300.93C1449.61 301.561 1450.47 302.307 1451.22 303.167C1452.02 303.97 1452.68 304.916 1453.19 306.006C1453.71 307.038 1454.14 308.214 1454.49 309.533C1454.83 310.853 1455.09 312.315 1455.26 313.921C1455.43 315.47 1455.52 317.219 1455.52 319.169H1444.33C1444.33 317.506 1444.28 316.072 1444.16 314.867C1444.05 313.663 1443.82 312.602 1443.47 311.684C1443.13 310.767 1442.67 309.964 1442.1 309.275C1441.58 308.587 1440.92 307.956 1440.12 307.383C1440 307.44 1439.66 307.669 1439.09 308.071C1438.57 308.415 1437.97 308.816 1437.28 309.275C1436.65 309.734 1435.99 310.193 1435.3 310.652C1434.67 311.053 1434.24 311.34 1434.01 311.512V333.192C1434.01 334.34 1434.04 335.372 1434.1 336.29C1434.15 337.15 1434.24 337.982 1434.35 338.785C1434.53 339.53 1434.73 340.247 1434.96 340.935C1435.19 341.624 1435.44 342.312 1435.73 343H1424.55C1424.2 342.312 1423.92 341.624 1423.69 340.935C1423.51 340.19 1423.34 339.444 1423.17 338.699C1423.05 337.896 1422.97 337.064 1422.91 336.204C1422.85 335.286 1422.83 334.282 1422.83 333.192V311.512C1422.83 310.078 1422.77 308.759 1422.65 307.555C1422.6 306.293 1422.48 305.174 1422.31 304.199C1422.14 303.224 1421.94 302.393 1421.71 301.704C1421.53 300.959 1421.33 300.385 1421.1 299.984Z" fill="white"/>
<path d="M1470.5 333.192C1470.5 334.282 1470.53 335.286 1470.59 336.204C1470.65 337.121 1470.73 337.982 1470.85 338.785C1471.02 339.53 1471.22 340.247 1471.45 340.935C1471.68 341.624 1471.94 342.312 1472.23 343H1461.04C1460.7 342.312 1460.41 341.624 1460.18 340.935C1460.01 340.19 1459.84 339.444 1459.66 338.699C1459.55 337.896 1459.46 337.064 1459.41 336.204C1459.35 335.286 1459.32 334.282 1459.32 333.192V311.512C1459.32 310.078 1459.26 308.759 1459.15 307.555C1459.09 306.35 1458.98 305.26 1458.8 304.285C1458.63 303.253 1458.43 302.393 1458.2 301.704C1458.03 300.959 1457.83 300.385 1457.6 299.984H1468.78C1469.13 300.615 1469.41 301.303 1469.64 302.049C1469.87 302.794 1470.05 303.626 1470.16 304.544C1470.27 305.461 1470.36 306.494 1470.42 307.641C1470.48 308.788 1470.5 310.078 1470.5 311.512V333.192ZM1459.32 288.541C1459.32 288.369 1459.32 287.738 1459.32 286.649C1459.32 285.559 1459.32 284.383 1459.32 283.121C1459.32 281.802 1459.32 280.598 1459.32 279.508C1459.32 278.418 1459.32 277.787 1459.32 277.615C1459.49 277.615 1460.12 277.615 1461.21 277.615C1462.36 277.615 1463.56 277.615 1464.83 277.615C1466.15 277.615 1467.35 277.615 1468.44 277.615C1469.59 277.615 1470.25 277.615 1470.42 277.615C1470.42 277.787 1470.42 278.418 1470.42 279.508C1470.42 280.598 1470.42 281.802 1470.42 283.121C1470.42 284.383 1470.42 285.559 1470.42 286.649C1470.42 287.738 1470.42 288.369 1470.42 288.541C1470.25 288.541 1469.59 288.541 1468.44 288.541C1467.35 288.541 1466.15 288.541 1464.83 288.541C1463.56 288.541 1462.36 288.541 1461.21 288.541C1460.12 288.541 1459.49 288.541 1459.32 288.541Z" fill="white"/>
<path d="M1489.78 290.004V333.192C1489.78 334.34 1489.8 335.372 1489.86 336.29C1489.92 337.15 1490.01 337.982 1490.12 338.785C1490.29 339.53 1490.49 340.247 1490.72 340.935C1490.95 341.624 1491.21 342.312 1491.5 343H1480.31C1479.97 342.312 1479.68 341.624 1479.45 340.935C1479.28 340.19 1479.11 339.444 1478.94 338.699C1478.82 337.896 1478.73 337.064 1478.68 336.204C1478.62 335.286 1478.59 334.282 1478.59 333.192V290.004C1478.59 288.57 1478.53 287.251 1478.42 286.046C1478.36 284.785 1478.25 283.666 1478.08 282.691C1477.9 281.716 1477.7 280.884 1477.47 280.196C1477.3 279.451 1477.1 278.877 1476.87 278.476H1488.06C1488.4 279.106 1488.69 279.795 1488.92 280.54C1489.14 281.286 1489.32 282.118 1489.43 283.035C1489.55 283.953 1489.63 284.985 1489.69 286.132C1489.75 287.28 1489.78 288.57 1489.78 290.004Z" fill="white"/>
<path d="M1509.05 290.004V333.192C1509.05 334.34 1509.08 335.372 1509.13 336.29C1509.19 337.15 1509.28 337.982 1509.39 338.785C1509.56 339.53 1509.76 340.247 1509.99 340.935C1510.22 341.624 1510.48 342.312 1510.77 343H1499.58C1499.24 342.312 1498.95 341.624 1498.72 340.935C1498.55 340.19 1498.38 339.444 1498.21 338.699C1498.09 337.896 1498.01 337.064 1497.95 336.204C1497.89 335.286 1497.86 334.282 1497.86 333.192V290.004C1497.86 288.57 1497.81 287.251 1497.69 286.046C1497.63 284.785 1497.52 283.666 1497.35 282.691C1497.17 281.716 1496.97 280.884 1496.74 280.196C1496.57 279.451 1496.37 278.877 1496.14 278.476H1507.33C1507.67 279.106 1507.96 279.795 1508.19 280.54C1508.42 281.286 1508.59 282.118 1508.7 283.035C1508.82 283.953 1508.9 284.985 1508.96 286.132C1509.02 287.28 1509.05 288.57 1509.05 290.004Z" fill="white"/>
<path d="M1528.32 333.192C1528.32 334.282 1528.35 335.286 1528.4 336.204C1528.46 337.121 1528.55 337.982 1528.66 338.785C1528.83 339.53 1529.04 340.247 1529.26 340.935C1529.49 341.624 1529.75 342.312 1530.04 343H1518.85C1518.51 342.312 1518.22 341.624 1517.99 340.935C1517.82 340.19 1517.65 339.444 1517.48 338.699C1517.36 337.896 1517.28 337.064 1517.22 336.204C1517.16 335.286 1517.13 334.282 1517.13 333.192V311.512C1517.13 310.078 1517.08 308.759 1516.96 307.555C1516.9 306.35 1516.79 305.26 1516.62 304.285C1516.45 303.253 1516.25 302.393 1516.02 301.704C1515.84 300.959 1515.64 300.385 1515.41 299.984H1526.6C1526.94 300.615 1527.23 301.303 1527.46 302.049C1527.69 302.794 1527.86 303.626 1527.97 304.544C1528.09 305.461 1528.18 306.494 1528.23 307.641C1528.29 308.788 1528.32 310.078 1528.32 311.512V333.192ZM1517.13 288.541C1517.13 288.369 1517.13 287.738 1517.13 286.649C1517.13 285.559 1517.13 284.383 1517.13 283.121C1517.13 281.802 1517.13 280.598 1517.13 279.508C1517.13 278.418 1517.13 277.787 1517.13 277.615C1517.31 277.615 1517.94 277.615 1519.03 277.615C1520.17 277.615 1521.38 277.615 1522.64 277.615C1523.96 277.615 1525.16 277.615 1526.25 277.615C1527.4 277.615 1528.06 277.615 1528.23 277.615C1528.23 277.787 1528.23 278.418 1528.23 279.508C1528.23 280.598 1528.23 281.802 1528.23 283.121C1528.23 284.383 1528.23 285.559 1528.23 286.649C1528.23 287.738 1528.23 288.369 1528.23 288.541C1528.06 288.541 1527.4 288.541 1526.25 288.541C1525.16 288.541 1523.96 288.541 1522.64 288.541C1521.38 288.541 1520.17 288.541 1519.03 288.541C1517.94 288.541 1517.31 288.541 1517.13 288.541Z" fill="white"/>
<path d="M1573.83 317.19H1560.84C1560.61 316.043 1560.18 314.954 1559.55 313.921C1558.97 312.889 1558.2 311.914 1557.23 310.996C1556.31 310.021 1555.16 309.103 1553.78 308.243C1552.47 307.325 1550.92 306.465 1549.14 305.662C1548.74 306.35 1548.36 307.297 1548.02 308.501C1547.68 309.648 1547.36 310.881 1547.07 312.2C1546.84 313.52 1546.64 314.839 1546.47 316.158C1546.36 317.477 1546.3 318.682 1546.3 319.771C1546.3 321.836 1546.5 323.758 1546.9 325.536C1547.36 327.256 1548.02 328.805 1548.88 330.181C1549.8 331.558 1550.95 332.791 1552.32 333.881C1553.76 334.913 1555.45 335.831 1557.4 336.634C1558.09 335.773 1558.66 334.626 1559.12 333.192C1559.63 331.759 1560.04 330.325 1560.32 328.891C1560.67 327.4 1560.92 326.052 1561.1 324.847C1561.27 323.585 1561.36 322.754 1561.36 322.352H1574.09C1573.69 324.302 1573 326.052 1572.02 327.6C1571.05 329.149 1569.7 330.726 1567.98 332.332C1566.32 333.881 1564.25 335.573 1561.79 337.408C1559.38 339.186 1556.51 341.337 1553.18 343.861C1552.09 343.516 1550.97 343.144 1549.83 342.742C1548.74 342.341 1547.65 341.882 1546.56 341.366C1545.47 340.849 1544.38 340.276 1543.29 339.645C1542.26 339.014 1541.25 338.326 1540.28 337.58C1539.36 336.835 1538.5 336.032 1537.7 335.171C1536.89 334.254 1536.2 333.279 1535.63 332.246C1535.06 331.214 1534.6 330.095 1534.25 328.891C1533.97 327.629 1533.82 326.31 1533.82 324.933C1533.82 324.876 1533.82 324.847 1533.82 324.847C1533.82 324.79 1533.82 324.761 1533.82 324.761C1533.82 322.467 1534.14 320.345 1534.77 318.395C1535.4 316.445 1536.46 314.495 1537.95 312.545C1539.45 310.537 1541.42 308.472 1543.89 306.35C1546.41 304.171 1549.51 301.762 1553.18 299.123C1556.11 299.869 1558.8 300.729 1561.27 301.704C1563.79 302.679 1565.94 303.884 1567.72 305.318C1569.56 306.752 1570.99 308.444 1572.02 310.394C1573.11 312.286 1573.72 314.552 1573.83 317.19Z" fill="white"/>
<path d="M1241.01 146.917C1243.77 146.917 1246.18 147.577 1248.24 148.896C1250.3 150.215 1252 152.194 1253.32 154.832C1254.64 157.47 1255.61 160.797 1256.24 164.812C1256.93 168.769 1257.27 173.415 1257.27 178.749C1257.27 184.141 1256.96 188.729 1256.33 192.514C1255.7 196.3 1254.72 199.426 1253.4 201.892C1252.08 204.301 1250.42 206.079 1248.41 207.226C1246.4 208.316 1244 208.861 1241.19 208.861C1238.38 208.861 1235.97 208.316 1233.96 207.226C1232.01 206.079 1230.4 204.301 1229.14 201.892C1227.88 199.426 1226.93 196.3 1226.3 192.514C1225.73 188.672 1225.44 184.083 1225.44 178.749C1225.44 173.415 1225.73 168.769 1226.3 164.812C1226.88 160.797 1227.76 157.47 1228.97 154.832C1230.23 152.194 1231.84 150.215 1233.79 148.896C1235.79 147.577 1238.2 146.917 1241.01 146.917ZM1241.19 162.489C1239.87 162.489 1238.58 162.575 1237.31 162.747C1236.11 162.919 1234.93 163.263 1233.79 163.779C1232.64 164.238 1231.58 164.869 1230.6 165.672C1229.69 166.418 1228.85 167.393 1228.11 168.597C1227.42 169.802 1226.88 171.236 1226.47 172.899C1226.07 174.562 1225.87 176.512 1225.87 178.749C1225.87 182.018 1226.3 184.628 1227.16 186.578C1228.08 188.471 1229.26 189.933 1230.69 190.966C1232.12 191.941 1233.76 192.572 1235.59 192.859C1237.43 193.145 1239.32 193.289 1241.27 193.289C1242.53 193.289 1243.8 193.231 1245.06 193.117C1246.38 193.002 1247.61 192.773 1248.76 192.428C1249.9 192.084 1250.96 191.597 1251.94 190.966C1252.91 190.278 1253.77 189.417 1254.52 188.385C1255.27 187.295 1255.84 185.976 1256.24 184.427C1256.64 182.821 1256.84 180.929 1256.84 178.749C1256.84 175.423 1256.38 172.698 1255.47 170.576C1254.61 168.454 1253.43 166.791 1251.94 165.586C1250.45 164.382 1248.76 163.579 1246.86 163.177C1245.03 162.718 1243.14 162.489 1241.19 162.489Z" fill="white"/>
<path d="M1274.76 158.876C1272.35 158.876 1270.45 159.306 1269.08 160.166C1267.7 161.026 1266.64 162.087 1265.89 163.349C1265.21 164.554 1264.75 165.816 1264.52 167.135C1264.35 168.454 1264.23 169.572 1264.17 170.49H1263.66C1263.66 167.049 1264 163.894 1264.69 161.026C1265.43 158.101 1266.55 155.606 1268.04 153.542C1269.54 151.419 1271.43 149.785 1273.72 148.638C1276.02 147.491 1278.71 146.917 1281.81 146.917C1283.42 146.917 1284.91 147.118 1286.28 147.519C1287.72 147.921 1288.95 148.552 1289.98 149.412C1291.02 150.215 1291.82 151.276 1292.39 152.595C1292.97 153.857 1293.22 155.377 1293.17 157.155C1293.17 159.105 1292.71 160.826 1291.79 162.317C1290.93 163.751 1289.78 165.041 1288.35 166.188C1286.97 167.278 1285.39 168.253 1283.62 169.113C1281.84 169.974 1280.03 170.748 1278.2 171.436C1280.2 171.494 1282.27 171.867 1284.39 172.555C1286.51 173.186 1288.43 174.103 1290.15 175.308C1291.88 176.512 1293.28 178.004 1294.37 179.782C1295.46 181.56 1296.01 183.567 1296.01 185.804C1296.01 187.18 1295.8 188.528 1295.4 189.847C1295 191.167 1294.26 192.543 1293.17 193.977C1292.13 195.354 1290.64 196.845 1288.69 198.451C1286.8 200.057 1284.33 201.806 1281.29 203.699L1273.21 208.861C1272.46 208.402 1271.4 207.771 1270.02 206.968C1268.7 206.165 1267.33 205.333 1265.89 204.473C1264.46 203.613 1263.11 202.838 1261.85 202.15C1260.65 201.405 1259.79 200.888 1259.27 200.602L1266.93 182.793C1267.44 184.972 1268.42 187.037 1269.85 188.987C1271.34 190.937 1272.98 192.687 1274.76 194.235C1276.59 195.726 1278.43 196.931 1280.26 197.848C1282.1 198.709 1283.65 199.139 1284.91 199.139C1285.6 199.139 1286.2 199.053 1286.71 198.881C1287.29 198.709 1287.77 198.451 1288.18 198.107C1288.58 197.705 1288.86 197.189 1289.04 196.558C1289.27 195.87 1289.38 195.038 1289.38 194.063C1289.38 191.31 1288.49 188.93 1286.71 186.922C1284.94 184.915 1282.78 183.252 1280.26 181.932C1277.74 180.556 1275.1 179.495 1272.35 178.749C1269.65 178.004 1267.33 177.459 1265.38 177.115C1268.82 175.623 1271.6 174.362 1273.72 173.329C1275.9 172.297 1277.62 171.322 1278.88 170.404C1280.15 169.486 1281.01 168.569 1281.47 167.651C1281.92 166.733 1282.15 165.644 1282.15 164.382C1282.15 163.636 1282.01 162.948 1281.72 162.317C1281.44 161.629 1280.98 161.026 1280.35 160.51C1279.77 159.994 1279.03 159.593 1278.11 159.306C1277.19 159.019 1276.07 158.876 1274.76 158.876Z" fill="white"/>
<path d="M1316.49 195.526C1317 195.181 1317.75 194.694 1318.72 194.063C1319.75 193.432 1320.76 192.773 1321.73 192.084C1322.77 191.396 1323.71 190.794 1324.57 190.278C1325.49 189.704 1326.09 189.303 1326.38 189.073C1326.38 188.614 1326.38 187.983 1326.38 187.18C1326.38 186.32 1326.38 185.345 1326.38 184.255C1326.38 183.166 1326.38 181.99 1326.38 180.728C1326.38 179.466 1326.38 178.176 1326.38 176.856C1326.38 175.48 1326.38 174.103 1326.38 172.727C1326.38 171.35 1326.38 170.06 1326.38 168.855C1326.38 167.594 1326.38 166.418 1326.38 165.328C1326.38 164.238 1326.38 163.292 1326.38 162.489L1317 148.982L1327.5 142.615L1337.56 150.961C1337.56 152.108 1337.56 153.656 1337.56 155.606C1337.56 157.499 1337.56 159.621 1337.56 161.973C1337.56 164.267 1337.56 166.647 1337.56 169.113C1337.56 171.522 1337.56 173.817 1337.56 175.996C1337.56 178.118 1337.56 180.011 1337.56 181.674C1337.56 183.338 1337.56 184.542 1337.56 185.288C1337.56 185.632 1337.56 186.263 1337.56 187.18C1337.56 188.041 1337.56 189.016 1337.56 190.106C1337.56 191.138 1337.56 192.199 1337.56 193.289C1337.56 194.321 1337.56 195.153 1337.56 195.784C1337.74 196.07 1337.99 196.529 1338.34 197.16C1338.68 197.791 1339.05 198.451 1339.46 199.139C1339.86 199.827 1340.23 200.487 1340.57 201.118C1340.92 201.749 1341.18 202.207 1341.35 202.494L1330.94 208.861C1330.48 208.459 1329.59 207.685 1328.27 206.538C1327.01 205.333 1325.63 204.043 1324.14 202.666C1322.65 201.232 1321.19 199.856 1319.75 198.537C1318.32 197.218 1317.23 196.214 1316.49 195.526ZM1357.78 187.008C1358.47 187.869 1359.44 189.044 1360.71 190.536C1361.97 192.027 1363.23 193.576 1364.49 195.181C1365.81 196.73 1367.04 198.193 1368.19 199.569C1369.34 200.946 1370.14 201.921 1370.6 202.494L1360.19 208.861C1359.62 208.344 1358.7 207.513 1357.44 206.366C1356.18 205.161 1354.8 203.871 1353.31 202.494C1351.82 201.118 1350.35 199.799 1348.92 198.537C1347.54 197.218 1346.48 196.214 1345.74 195.526L1347.89 194.149C1351.33 191.912 1354.17 189.446 1356.4 186.75C1358.7 183.997 1360.33 181.215 1361.31 178.405C1362.34 175.537 1362.74 172.756 1362.51 170.06C1362.34 167.364 1361.54 164.984 1360.1 162.919C1358.67 160.797 1356.61 159.105 1353.91 157.843C1351.27 156.581 1348 155.95 1344.1 155.95L1357.61 142.615C1359.79 143.189 1361.8 143.992 1363.63 145.024C1365.47 145.999 1367.07 147.232 1368.45 148.724C1369.83 150.215 1370.89 151.964 1371.63 153.972C1372.44 155.922 1372.84 158.13 1372.84 160.596C1372.84 162.776 1372.61 164.869 1372.15 166.877C1371.69 168.827 1371.06 170.662 1370.26 172.383C1369.45 174.103 1368.54 175.709 1367.5 177.201C1366.47 178.634 1365.38 179.954 1364.23 181.158C1363.14 182.363 1362.03 183.452 1360.88 184.427C1359.79 185.402 1358.76 186.263 1357.78 187.008ZM1342.81 136.335H1344.1V212.302H1342.81V136.335ZM1357.87 143.304L1358.73 143.82V146.057L1357.87 145.54V143.304ZM1384.45 187.008C1385.14 187.869 1386.11 189.044 1387.38 190.536C1388.64 192.027 1389.9 193.576 1391.16 195.181C1392.48 196.73 1393.71 198.193 1394.86 199.569C1396.01 200.946 1396.81 201.921 1397.27 202.494L1386.86 208.861C1386.29 208.344 1385.37 207.513 1384.11 206.366C1382.85 205.161 1381.47 203.871 1379.98 202.494C1378.49 201.118 1377.02 199.799 1375.59 198.537C1374.21 197.218 1373.15 196.214 1372.41 195.526L1374.56 194.149C1378.4 191.683 1381.58 189.044 1384.11 186.234C1386.69 183.366 1388.61 180.527 1389.87 177.717C1391.13 174.849 1391.71 172.125 1391.59 169.544C1391.54 166.905 1390.76 164.582 1389.27 162.575C1387.84 160.568 1385.68 158.962 1382.82 157.757C1379.95 156.553 1376.34 155.95 1371.98 155.95L1386 142.615C1389.21 143.189 1391.91 143.992 1394.09 145.024C1396.27 145.999 1398.02 147.232 1399.34 148.724C1400.65 150.215 1401.57 151.964 1402.09 153.972C1402.66 155.922 1402.95 158.13 1402.95 160.596C1402.95 162.776 1402.63 164.869 1402 166.877C1401.37 168.827 1400.51 170.662 1399.42 172.383C1398.39 174.103 1397.21 175.709 1395.89 177.201C1394.57 178.634 1393.23 179.954 1391.85 181.158C1390.47 182.363 1389.13 183.452 1387.81 184.427C1386.55 185.402 1385.43 186.263 1384.45 187.008ZM1386 143.304L1386.86 143.82V146.057L1386 145.54V143.304ZM1371.8 136.335H1373.1V212.302H1371.8V136.335Z" fill="white"/>
<path d="M1443.68 186.492H1443.34C1444.2 183.969 1444.4 181.961 1443.94 180.47C1443.48 178.979 1442.65 177.86 1441.44 177.115C1440.3 176.312 1438.95 175.795 1437.4 175.566C1435.85 175.337 1434.39 175.222 1433.01 175.222C1431 175.222 1429.17 175.451 1427.51 175.91C1425.9 176.312 1424.49 176.942 1423.29 177.803C1422.14 178.606 1421.25 179.638 1420.62 180.9C1419.99 182.162 1419.68 183.653 1419.68 185.374C1419.68 187.037 1420.11 188.442 1420.97 189.589C1421.83 190.679 1422.92 191.568 1424.24 192.256C1425.56 192.887 1427.05 193.346 1428.71 193.633C1430.37 193.92 1432.01 194.063 1433.61 194.063C1435.22 194.063 1436.88 193.948 1438.6 193.719C1440.38 193.489 1442.07 193.117 1443.68 192.6C1445.34 192.084 1446.89 191.396 1448.33 190.536C1449.76 189.675 1450.93 188.614 1451.85 187.352L1443.25 207.226C1442.62 207.57 1441.96 207.828 1441.27 208C1440.58 208.23 1439.87 208.402 1439.12 208.517C1438.43 208.631 1437.74 208.717 1437.05 208.775C1436.37 208.832 1435.71 208.861 1435.08 208.861C1432.61 208.861 1430.75 208.574 1429.48 208C1428.28 207.369 1427.39 206.566 1426.82 205.591C1426.24 204.559 1425.9 203.412 1425.78 202.15C1425.67 200.831 1425.5 199.512 1425.27 198.193C1425.04 196.816 1424.61 195.497 1423.98 194.235C1423.4 192.916 1422.37 191.769 1420.88 190.794C1419.39 189.761 1417.32 188.93 1414.69 188.299C1412.05 187.668 1408.55 187.352 1404.19 187.352C1404.19 184.542 1404.76 181.76 1405.91 179.007C1407.12 176.254 1408.86 173.788 1411.16 171.608C1413.45 169.372 1416.26 167.565 1419.59 166.188C1422.92 164.812 1426.73 164.124 1431.03 164.124C1434.99 164.124 1438.23 164.668 1440.75 165.758C1443.34 166.848 1445.17 168.397 1446.26 170.404C1447.41 172.354 1447.78 174.706 1447.38 177.459C1446.98 180.154 1445.74 183.166 1443.68 186.492ZM1417.96 185.89H1447.64L1446.86 187.352H1418.82L1417.96 185.89Z" fill="white"/>
<path d="M1463.87 164.124C1466.28 164.124 1468.23 164.668 1469.72 165.758C1471.21 166.848 1472.5 168.052 1473.59 169.372C1474.68 170.691 1475.72 171.895 1476.69 172.985C1477.67 174.075 1478.84 174.62 1480.22 174.62C1481.59 174.62 1483.29 173.874 1485.29 172.383C1487.3 170.834 1489.91 168.11 1493.12 164.21C1492.61 165.471 1491.86 167.364 1490.89 169.888C1489.97 172.411 1488.97 175.078 1487.88 177.889C1486.84 180.699 1485.81 183.452 1484.78 186.148C1483.75 188.844 1482.91 190.995 1482.28 192.6C1481.48 195.583 1480.28 198.107 1478.67 200.171C1477.06 202.236 1475.2 203.928 1473.08 205.247C1470.96 206.509 1468.66 207.427 1466.2 208C1463.73 208.574 1461.26 208.861 1458.8 208.861C1456.44 208.861 1455.04 208.545 1454.58 207.914C1454.12 207.283 1454.21 206.48 1454.84 205.505C1455.47 204.473 1456.44 203.326 1457.76 202.064C1459.08 200.745 1460.34 199.426 1461.55 198.107C1462.75 196.73 1463.7 195.411 1464.39 194.149C1465.08 192.83 1465.11 191.683 1464.47 190.708C1463.9 189.675 1462.47 188.872 1460.17 188.299C1457.88 187.668 1454.35 187.352 1449.59 187.352C1449.59 183.854 1449.96 180.671 1450.71 177.803C1451.51 174.935 1452.57 172.497 1453.89 170.49C1455.21 168.483 1456.73 166.934 1458.45 165.844C1460.17 164.697 1461.98 164.124 1463.87 164.124ZM1473.94 173.673C1472.56 173.673 1471.33 173.931 1470.24 174.448C1469.15 174.906 1468.2 175.652 1467.4 176.684C1466.65 177.717 1466.08 179.065 1465.68 180.728C1465.28 182.334 1465.08 184.255 1465.08 186.492C1465.08 188.729 1465.28 190.679 1465.68 192.342C1466.08 194.006 1466.65 195.382 1467.4 196.472C1468.15 197.562 1469.03 198.393 1470.07 198.967C1471.16 199.483 1472.36 199.741 1473.68 199.741C1474.94 199.741 1476.09 199.483 1477.12 198.967C1478.21 198.393 1479.13 197.562 1479.87 196.472C1480.62 195.325 1481.19 193.948 1481.59 192.342C1482.05 190.679 1482.28 188.729 1482.28 186.492C1482.28 184.198 1482.05 182.248 1481.59 180.642C1481.19 178.979 1480.62 177.631 1479.87 176.598C1479.19 175.566 1478.33 174.82 1477.29 174.361C1476.26 173.903 1475.14 173.673 1473.94 173.673ZM1493.47 189.073C1493.98 189.417 1494.67 189.905 1495.53 190.536C1496.39 191.109 1497.28 191.711 1498.2 192.342C1499.17 192.973 1500.09 193.604 1500.95 194.235C1501.81 194.809 1502.47 195.239 1502.93 195.526L1493.04 208.861C1492.69 208.631 1491.98 208.172 1490.89 207.484C1489.85 206.739 1488.74 205.964 1487.53 205.161C1486.38 204.358 1485.29 203.613 1484.26 202.924C1483.29 202.236 1482.63 201.777 1482.28 201.548L1482.37 153.542C1481.8 153.542 1481.02 153.542 1480.05 153.542C1479.13 153.542 1478.15 153.542 1477.12 153.542C1476.15 153.542 1475.23 153.542 1474.37 153.542C1473.51 153.542 1472.85 153.542 1472.39 153.542L1476.78 143.476C1477.29 143.476 1478.3 143.476 1479.79 143.476C1481.28 143.476 1482.89 143.476 1484.61 143.476C1486.38 143.476 1488.1 143.476 1489.77 143.476C1491.43 143.476 1492.66 143.476 1493.47 143.476V189.073Z" fill="white"/>
<path d="M1521.78 195.784C1522.01 196.185 1522.3 196.701 1522.64 197.332C1522.99 197.963 1523.36 198.623 1523.76 199.311C1524.16 199.999 1524.54 200.659 1524.88 201.29C1525.22 201.863 1525.45 202.265 1525.57 202.494L1515.16 208.861C1514.58 208.344 1513.67 207.513 1512.4 206.366C1511.14 205.161 1509.77 203.871 1508.28 202.494C1506.78 201.118 1505.32 199.799 1503.89 198.537C1502.51 197.218 1501.45 196.214 1500.7 195.526L1510.6 189.073V175.05C1510.02 175.05 1509.22 175.05 1508.19 175.05C1507.16 175.05 1506.1 175.05 1505.01 175.05C1503.97 175.05 1503.03 175.05 1502.17 175.05C1501.36 175.05 1500.88 175.05 1500.7 175.05L1505.09 164.984C1505.61 164.984 1506.55 164.984 1507.93 164.984C1509.36 164.984 1510.91 164.984 1512.58 164.984C1514.3 164.984 1515.99 164.984 1517.65 164.984C1519.32 164.984 1520.66 164.984 1521.7 164.984L1521.78 195.784ZM1514.21 160.682C1514.1 159.822 1513.7 158.904 1513.01 157.929C1512.32 156.897 1511.49 155.95 1510.51 155.09C1509.59 154.172 1508.62 153.398 1507.59 152.767C1506.55 152.079 1505.61 151.649 1504.75 151.477C1505.61 151.305 1506.55 150.903 1507.59 150.272C1508.62 149.641 1509.59 148.924 1510.51 148.121C1511.49 147.261 1512.32 146.343 1513.01 145.368C1513.7 144.393 1514.1 143.476 1514.21 142.615C1514.33 143.476 1514.67 144.393 1515.24 145.368C1515.87 146.343 1516.65 147.261 1517.57 148.121C1518.48 148.924 1519.43 149.641 1520.41 150.272C1521.44 150.903 1522.38 151.305 1523.24 151.477C1522.38 151.649 1521.44 152.079 1520.41 152.767C1519.37 153.398 1518.4 154.172 1517.48 155.09C1516.62 155.95 1515.87 156.897 1515.24 157.929C1514.61 158.904 1514.27 159.822 1514.21 160.682Z" fill="white"/>
<path d="M1535 164.124C1535.8 164.124 1536.95 164.181 1538.44 164.296C1539.93 164.353 1541.39 164.64 1542.83 165.156C1544.32 165.615 1545.58 166.332 1546.61 167.307C1547.7 168.282 1548.25 169.63 1548.25 171.35C1548.25 172.784 1547.9 174.132 1547.21 175.394C1546.52 176.656 1545.75 177.975 1544.89 179.351C1544.09 180.728 1543.34 182.219 1542.65 183.825C1541.97 185.374 1541.62 187.094 1541.62 188.987C1541.62 190.134 1541.74 191.138 1541.97 191.998C1542.25 192.801 1542.62 193.461 1543.08 193.977C1543.6 194.493 1544.2 194.895 1544.89 195.181C1545.58 195.411 1546.35 195.526 1547.21 195.526C1548.07 195.526 1548.93 195.354 1549.79 195.009C1550.71 194.608 1551.51 193.834 1552.2 192.687C1552.95 191.539 1553.55 189.933 1554.01 187.869C1554.47 185.747 1554.7 182.965 1554.7 179.523V177.201C1554.47 176.856 1554.18 176.369 1553.84 175.738C1553.49 175.05 1553.12 174.361 1552.72 173.673C1552.32 172.985 1551.94 172.354 1551.6 171.781C1551.26 171.15 1551.03 170.719 1550.91 170.49L1561.32 164.124C1561.49 164.296 1561.78 164.554 1562.18 164.898C1562.58 165.242 1562.99 165.643 1563.39 166.102C1563.85 166.504 1564.3 166.905 1564.76 167.307C1565.22 167.708 1565.6 168.052 1565.88 168.339V189.073C1566.46 189.475 1567.26 190.019 1568.29 190.708C1569.32 191.339 1570.36 191.998 1571.39 192.687C1572.48 193.375 1573.42 194.006 1574.23 194.579C1575.09 195.095 1575.6 195.411 1575.78 195.526L1565.8 208.861C1565.45 208.631 1564.79 208.201 1563.82 207.57C1562.9 206.882 1561.87 206.165 1560.72 205.419C1559.57 204.674 1558.45 203.928 1557.36 203.183C1556.33 202.437 1555.56 201.892 1555.04 201.548V183.825C1554.87 187.725 1554.15 191.224 1552.89 194.321C1551.63 197.418 1549.94 200.057 1547.82 202.236C1545.69 204.358 1543.23 205.993 1540.42 207.14C1537.61 208.287 1534.57 208.861 1531.3 208.861C1530.44 208.861 1529.69 208.803 1529.06 208.689C1528.43 208.631 1527.91 208.517 1527.51 208.344C1527.11 208.172 1526.79 207.972 1526.57 207.742C1526.39 207.513 1526.31 207.255 1526.31 206.968C1526.31 206.337 1526.68 205.563 1527.43 204.645C1528.17 203.727 1529.09 202.752 1530.18 201.72C1531.27 200.63 1532.44 199.512 1533.71 198.365C1535.03 197.16 1536.23 195.956 1537.32 194.751C1538.41 193.489 1539.33 192.256 1540.07 191.052C1540.82 189.847 1541.19 188.672 1541.19 187.525C1541.19 186.205 1540.62 185.23 1539.47 184.599C1538.32 183.911 1536.92 183.567 1535.25 183.567C1533.59 183.567 1531.81 183.911 1529.92 184.599C1528.09 185.23 1526.45 186.148 1525.02 187.352L1535 164.124Z" fill="white"/>
<path d="M1614.99 208.861C1614.13 208.861 1612.93 208.803 1611.38 208.689C1609.83 208.631 1608.28 208.373 1606.73 207.914C1605.24 207.398 1603.92 206.653 1602.78 205.677C1601.63 204.702 1601.06 203.355 1601.06 201.634C1601.06 200.2 1601.4 198.852 1602.09 197.59C1602.78 196.329 1603.52 195.009 1604.33 193.633C1605.19 192.256 1605.96 190.794 1606.65 189.245C1607.34 187.639 1607.68 185.89 1607.68 183.997C1607.68 182.85 1607.54 181.875 1607.25 181.072C1607.02 180.212 1606.65 179.523 1606.13 179.007C1605.67 178.491 1605.1 178.118 1604.41 177.889C1603.72 177.602 1602.95 177.459 1602.09 177.459C1601.23 177.459 1600.34 177.659 1599.42 178.061C1598.56 178.405 1597.76 179.151 1597.01 180.298C1596.32 181.445 1595.75 183.08 1595.29 185.202C1594.83 187.266 1594.6 190.019 1594.6 193.461V195.784C1594.83 196.128 1595.12 196.644 1595.46 197.332C1595.87 197.963 1596.24 198.623 1596.58 199.311C1596.98 199.999 1597.36 200.659 1597.7 201.29C1598.05 201.863 1598.27 202.265 1598.39 202.494L1587.98 208.861C1587.41 208.344 1586.46 207.513 1585.14 206.366C1583.88 205.161 1582.5 203.871 1581.01 202.494C1579.58 201.118 1578.14 199.799 1576.71 198.537C1575.33 197.218 1574.27 196.214 1573.53 195.526L1583.42 189.073V175.05C1582.85 175.05 1582.04 175.05 1581.01 175.05C1579.98 175.05 1578.92 175.05 1577.83 175.05C1576.79 175.05 1575.85 175.05 1574.99 175.05C1574.19 175.05 1573.7 175.05 1573.53 175.05L1577.91 164.984C1578.37 164.984 1579.32 164.984 1580.75 164.984C1582.24 164.984 1583.85 164.984 1585.57 164.984C1587.29 164.984 1588.95 164.984 1590.56 164.984C1592.22 164.984 1593.46 164.984 1594.26 164.984V189.159C1594.43 185.259 1595.15 181.76 1596.41 178.663C1597.67 175.566 1599.36 172.956 1601.49 170.834C1603.61 168.655 1606.07 166.991 1608.89 165.844C1611.7 164.697 1614.74 164.124 1618 164.124C1618.87 164.124 1619.61 164.181 1620.24 164.296C1620.87 164.353 1621.39 164.468 1621.79 164.64C1622.19 164.812 1622.48 165.013 1622.65 165.242C1622.88 165.471 1622.99 165.73 1622.99 166.016C1622.99 166.647 1622.62 167.422 1621.88 168.339C1621.13 169.257 1620.21 170.261 1619.12 171.35C1618.03 172.383 1616.83 173.501 1615.51 174.706C1614.25 175.853 1613.07 177.057 1611.98 178.319C1610.89 179.523 1609.97 180.728 1609.23 181.932C1608.48 183.137 1608.11 184.313 1608.11 185.46C1608.11 186.779 1608.66 187.811 1609.75 188.557C1610.84 189.245 1612.18 189.647 1613.79 189.761C1615.4 189.876 1617.14 189.733 1619.04 189.331C1620.93 188.872 1622.68 188.213 1624.29 187.352L1614.99 208.861ZM1645.36 166.016C1645.36 166.647 1644.99 167.422 1644.24 168.339C1643.5 169.257 1642.58 170.261 1641.49 171.35C1640.4 172.383 1639.2 173.501 1637.88 174.706C1636.62 175.853 1635.44 177.057 1634.35 178.319C1633.26 179.523 1632.34 180.728 1631.6 181.932C1630.85 183.137 1630.48 184.313 1630.48 185.46C1630.48 187.18 1631.14 188.356 1632.46 188.987C1633.83 189.561 1635.41 189.819 1637.19 189.761C1639.03 189.647 1640.83 189.331 1642.61 188.815C1644.45 188.299 1645.79 187.811 1646.65 187.352L1637.36 208.861C1636.5 208.861 1635.3 208.803 1633.75 208.689C1632.2 208.631 1630.65 208.373 1629.1 207.914C1627.61 207.398 1626.29 206.653 1625.15 205.677C1624 204.702 1623.42 203.355 1623.42 201.634C1623.42 200.2 1623.77 198.852 1624.46 197.59C1625.15 196.329 1625.89 195.009 1626.69 193.633C1627.55 192.256 1628.33 190.794 1629.02 189.245C1629.71 187.639 1630.05 185.89 1630.05 183.997C1630.05 182.85 1629.91 181.875 1629.62 181.072C1629.39 180.212 1629.02 179.523 1628.5 179.007C1628.04 178.491 1627.47 178.118 1626.78 177.889C1626.09 177.602 1625.32 177.459 1624.46 177.459C1622.79 177.459 1621.45 177.918 1620.41 178.835C1619.44 179.753 1618.66 181.015 1618.09 182.621C1617.52 184.227 1617.14 186.119 1616.97 188.299C1616.8 190.478 1616.71 192.83 1616.71 195.354H1615.85C1615.85 189.389 1616.57 184.399 1618 180.384C1619.44 176.369 1621.3 173.157 1623.6 170.748C1625.95 168.339 1628.56 166.647 1631.43 165.672C1634.35 164.64 1637.28 164.124 1640.2 164.124C1641.12 164.124 1641.89 164.181 1642.52 164.296C1643.21 164.353 1643.76 164.468 1644.16 164.64C1644.56 164.812 1644.85 165.013 1645.02 165.242C1645.25 165.471 1645.36 165.73 1645.36 166.016Z" fill="white"/>
<path d="M1249.1 11.9167C1249.5 12.1461 1250.13 12.5763 1250.99 13.2072C1251.85 13.7807 1252.8 14.4116 1253.83 15.0999C1254.86 15.7882 1255.9 16.5051 1256.93 17.2507C1258.02 17.939 1258.91 18.5126 1259.6 18.9714V63.0202C1258.05 63.7658 1256.13 64.6835 1253.83 65.7733C1251.59 66.8057 1249.36 67.8667 1247.12 68.9565C1244.88 70.0462 1242.82 71.05 1240.93 71.9677C1239.03 72.828 1237.69 73.4589 1236.88 73.8604C1236.48 73.5736 1235.85 73.1434 1234.99 72.5699C1234.13 71.939 1233.15 71.2507 1232.06 70.5051C1231.03 69.7595 1230 69.0139 1228.97 68.2682C1227.94 67.5226 1227.05 66.8917 1226.3 66.3755V22.8429C1227.79 22.0973 1229.68 21.1796 1231.98 20.0898C1234.27 19.0001 1236.54 17.939 1238.78 16.9066C1241.07 15.8169 1243.16 14.8131 1245.06 13.8955C1246.95 12.9778 1248.3 12.3182 1249.1 11.9167ZM1237.92 17.3368C1237.92 18.4265 1237.92 20.0038 1237.92 22.0686C1237.92 24.1334 1237.92 26.4849 1237.92 29.1233C1237.92 31.7043 1237.92 34.486 1237.92 37.4685C1237.92 40.4509 1237.92 43.3761 1237.92 46.2438C1237.92 49.1116 1237.92 51.8646 1237.92 54.503C1237.92 57.084 1237.92 59.3208 1237.92 61.2135C1238.6 61.6724 1239.44 62.2746 1240.41 63.0202C1241.39 63.7085 1242.36 64.3968 1243.34 65.085C1244.37 65.7733 1245.29 66.4329 1246.09 67.0638C1246.95 67.6373 1247.58 68.0675 1247.98 68.3543C1247.98 67.2072 1247.98 65.6012 1247.98 63.5364C1247.98 61.4143 1247.98 59.0627 1247.98 56.4817C1247.98 53.8434 1247.98 51.0617 1247.98 48.1365C1247.98 45.1541 1247.98 42.229 1247.98 39.3612C1247.98 36.4361 1247.98 33.683 1247.98 31.102C1247.98 28.4637 1247.98 26.1982 1247.98 24.3054C1247.35 23.8466 1246.55 23.273 1245.57 22.5848C1244.6 21.8965 1243.59 21.2082 1242.56 20.52C1241.59 19.8317 1240.67 19.2008 1239.81 18.6273C1238.95 18.0537 1238.32 17.6235 1237.92 17.3368Z" fill="white"/>
<path d="M1273.9 17.1647C1273.9 18.1397 1273.9 19.4302 1273.9 21.0362C1273.96 22.5848 1273.99 24.162 1273.99 25.768C1273.99 27.3166 1273.99 28.7218 1273.99 29.9836C1273.99 31.2454 1273.99 32.0771 1273.99 32.4786L1261.69 22.9289C1262.89 22.3554 1264.55 21.5524 1266.68 20.52C1268.86 19.4876 1271.09 18.4265 1273.39 17.3368C1275.68 16.247 1277.86 15.2146 1279.93 14.2396C1282.05 13.2072 1283.65 12.4329 1284.74 11.9167C1285.2 12.2035 1285.86 12.6623 1286.72 13.2932C1287.64 13.9241 1288.59 14.5837 1289.56 15.272C1290.59 15.9602 1291.57 16.6485 1292.49 17.3368C1293.4 17.9677 1294.12 18.4552 1294.64 18.7993C1294.64 19.2582 1294.64 20.0038 1294.64 21.0362C1294.64 22.0112 1294.64 23.0723 1294.64 24.2194C1294.64 25.3091 1294.64 26.3702 1294.64 27.4026C1294.64 28.435 1294.64 29.1806 1294.64 29.6395L1283.54 34.8875C1284 35.1743 1284.77 35.7191 1285.86 36.5221C1287.01 37.2677 1288.18 38.0707 1289.39 38.931C1290.65 39.7914 1291.86 40.623 1293 41.426C1294.15 42.1716 1294.98 42.7452 1295.5 43.1466C1295.38 45.0967 1295.24 47.0468 1295.07 48.9969C1294.95 50.8896 1294.9 52.725 1294.9 54.503C1294.9 56.281 1295.01 57.973 1295.24 59.5789C1295.47 61.1275 1295.93 62.5327 1296.62 63.7945L1274.68 73.8604C1273.99 72.9427 1273.01 71.6809 1271.75 70.0749C1270.49 68.4116 1269.2 66.7197 1267.88 64.999C1266.56 63.2783 1265.33 61.6724 1264.18 60.1811C1263.03 58.6899 1262.23 57.6575 1261.77 57.084L1271.58 52.2661C1272.15 52.9544 1273.16 54.1302 1274.59 55.7935C1276.03 57.4568 1277.49 59.1774 1278.98 60.9554C1280.53 62.7335 1281.93 64.3681 1283.19 65.8593C1284.51 67.3506 1285.35 68.2969 1285.69 68.6984C1284.89 66.9777 1284.31 65.2858 1283.97 63.6225C1283.62 61.9018 1283.42 60.2098 1283.37 58.5465C1283.31 56.8259 1283.31 55.1339 1283.37 53.4706C1283.42 51.8073 1283.45 50.1727 1283.45 48.5667C1282.94 48.2226 1282.1 47.649 1280.96 46.846C1279.81 46.0431 1278.61 45.2114 1277.34 44.3511C1276.08 43.4334 1274.91 42.6018 1273.82 41.8561C1272.73 41.1105 1272.01 40.623 1271.67 40.3936L1283.45 34.8014C1283.45 33.8838 1283.45 32.8514 1283.45 31.7043C1283.45 30.5572 1283.45 29.4387 1283.45 28.349C1283.45 27.2592 1283.45 26.3129 1283.45 25.5099C1283.45 24.6496 1283.45 24.076 1283.45 23.7892C1283.11 23.5025 1282.54 23.101 1281.73 22.5848C1280.93 22.0112 1280.04 21.409 1279.07 20.7781C1278.09 20.0898 1277.14 19.4302 1276.23 18.7993C1275.31 18.1111 1274.53 17.5662 1273.9 17.1647Z" fill="white"/>
<path d="M1347.85 31.5322L1360.59 25.5099C1364.26 27.5747 1367.15 29.5821 1369.27 31.5322C1371.45 33.4823 1373.09 35.375 1374.18 37.2104C1375.27 38.9884 1375.96 40.709 1376.24 42.3723C1376.53 44.0356 1376.67 45.6129 1376.67 47.1041C1376.67 50.0866 1375.9 52.8397 1374.35 55.3633C1372.8 57.8869 1370.68 60.2385 1367.98 62.418C1365.35 64.5401 1362.25 66.5476 1358.69 68.4403C1355.14 70.333 1351.29 72.1397 1347.16 73.8604L1348.45 71.2794C1352.24 69.9602 1355.28 68.641 1357.57 67.3219C1359.93 65.9454 1361.73 64.5115 1362.99 63.0202C1364.31 61.4716 1365.17 59.837 1365.58 58.1164C1366.03 56.3383 1366.26 54.3883 1366.26 52.2661C1366.26 51.4631 1366.09 50.316 1365.75 48.8248C1365.46 47.2762 1364.69 45.5556 1363.42 43.6628C1362.22 41.7701 1360.38 39.7627 1357.92 37.6405C1355.51 35.5184 1352.15 33.4823 1347.85 31.5322ZM1348.45 14.4977L1329.44 23.3591L1328.93 21.3803L1357.75 7.61505C1358.55 8.1886 1359.29 8.84819 1359.98 9.59381C1360.67 10.3394 1361.3 11.1137 1361.88 11.9167C1362.51 12.7197 1363.05 13.58 1363.51 14.4977C1363.97 15.4154 1364.4 16.3617 1364.8 17.3368C1365.2 18.2545 1365.55 19.2295 1365.83 20.2619C1366.12 21.2369 1366.38 22.212 1366.61 23.187L1356.03 28.2629C1355.8 27.4026 1355.54 26.5423 1355.25 25.682C1354.96 24.8216 1354.65 23.99 1354.3 23.187C1353.96 22.3267 1353.59 21.495 1353.19 20.692C1352.79 19.8891 1352.33 19.1148 1351.81 18.3692C1351.35 17.6235 1350.83 16.9353 1350.26 16.3044C1349.69 15.6161 1349.09 15.0139 1348.45 14.4977ZM1357.23 68.2682L1347.16 73.8604C1345.9 73.1721 1344.58 72.5412 1343.21 71.9677C1341.83 71.3367 1340.37 70.7632 1338.82 70.247C1337.27 69.6734 1335.66 69.1572 1334 68.6984C1332.4 68.2396 1330.7 67.8094 1328.93 67.4079C1327.15 67.0064 1325.34 66.6336 1323.51 66.2895C1321.67 65.9454 1319.81 65.6299 1317.91 65.3431L1330.99 59.0627C1332.88 59.3495 1335.03 59.751 1337.44 60.2672C1339.85 60.7834 1342.26 61.443 1344.67 62.2459C1347.14 62.9916 1349.46 63.8806 1351.64 64.913C1353.87 65.888 1355.74 67.0064 1357.23 68.2682ZM1346.3 1.67878L1348.45 0.732422V77.2157L1346.3 78.162V1.67878ZM1335.89 9.76588C1336.12 9.59381 1336.38 9.42174 1336.67 9.24967C1337.01 9.02025 1337.33 8.79083 1337.61 8.56142C1337.96 8.33199 1338.25 8.13125 1338.47 7.95918C1338.76 7.72976 1338.96 7.61505 1339.08 7.61505L1340.02 9.07761C1338.13 10.3968 1336.87 11.9741 1336.24 13.8094C1335.66 15.5874 1335.46 17.5375 1335.64 19.6597C1335.87 21.7818 1336.32 24.0187 1337.01 26.3702C1337.7 28.7218 1338.39 31.1307 1339.08 33.597C1339.77 36.0059 1340.31 38.4148 1340.71 40.8237C1341.11 43.2327 1341.11 45.5556 1340.71 47.7924C1340.31 49.9719 1339.36 52.0367 1337.87 53.9868C1336.38 55.8795 1334.09 57.5715 1330.99 59.0627L1317.91 65.3431C1321.87 63.4504 1324.8 61.4716 1326.69 59.4068C1328.64 57.2847 1329.87 55.1052 1330.39 52.8684C1330.96 50.5741 1331.02 48.2513 1330.56 45.8997C1330.16 43.5481 1329.61 41.1679 1328.93 38.759C1328.24 36.2927 1327.61 33.8264 1327.03 31.3601C1326.46 28.8939 1326.26 26.4563 1326.43 24.0473C1326.66 21.5811 1327.46 19.1721 1328.84 16.8206C1330.27 14.4116 1332.62 12.0601 1335.89 9.76588Z" fill="white"/>
<path d="M1396.73 12.9491V63.1923C1397.13 63.4791 1397.71 63.8806 1398.45 64.3968C1399.2 64.913 1399.97 65.4578 1400.78 66.0314C1401.58 66.5476 1402.3 67.0638 1402.93 67.58C1403.62 68.0388 1404.1 68.3543 1404.39 68.5263L1392.52 73.8604C1391.94 73.5162 1391 72.914 1389.68 72.0537C1388.42 71.136 1387.04 70.1896 1385.55 69.2146C1384.06 68.1822 1382.6 67.2072 1381.16 66.2895C1379.78 65.3144 1378.7 64.5688 1377.89 64.0526L1385.55 60.2672V18.2831C1385.09 17.939 1384.46 17.5088 1383.66 16.9926C1382.85 16.4191 1382.05 15.8455 1381.25 15.272C1380.44 14.6984 1379.73 14.2109 1379.1 13.8094C1378.47 13.3506 1378.06 13.0638 1377.89 12.9491L1389.94 7.61505C1390.17 7.78712 1390.57 8.10257 1391.14 8.56142C1391.71 9.02026 1392.35 9.53645 1393.03 10.11C1393.72 10.6262 1394.41 11.1424 1395.1 11.6586C1395.79 12.1748 1396.33 12.605 1396.73 12.9491Z" fill="white"/>
<path d="M1427.67 68.5263C1426.87 68.9278 1425.89 69.4153 1424.75 69.9889C1423.6 70.5051 1422.45 71.05 1421.31 71.6235C1420.22 72.1397 1419.21 72.5986 1418.29 73C1417.43 73.4589 1416.83 73.7457 1416.49 73.8604C1416.09 73.5162 1415.43 73.0287 1414.51 72.3978C1413.59 71.7669 1412.62 71.1073 1411.58 70.4191C1410.61 69.6734 1409.63 68.9565 1408.66 68.2682C1407.74 67.58 1407 67.0351 1406.42 66.6336C1406.42 65.9454 1406.42 64.4254 1406.42 62.0739C1406.42 59.6649 1406.42 57.0266 1406.42 54.1588C1406.42 51.2911 1406.42 48.5093 1406.42 45.8137C1406.42 43.118 1406.42 41.1105 1406.42 39.7914L1417.61 34.4573C1417.61 36.4647 1417.61 38.8737 1417.61 41.6841C1417.61 44.4945 1417.61 47.2762 1417.61 50.0293C1417.61 52.725 1417.61 55.1339 1417.61 57.256C1417.61 59.3782 1417.61 60.6973 1417.61 61.2135C1418.12 61.5577 1418.84 62.0739 1419.76 62.7621C1420.73 63.4504 1421.39 63.9379 1421.74 64.2247C1421.97 64.3968 1422.34 64.6549 1422.85 64.999C1423.37 65.3431 1423.92 65.7446 1424.49 66.2034C1425.12 66.6049 1425.72 67.0064 1426.3 67.4079C1426.87 67.8094 1427.33 68.1248 1427.67 68.3543V68.5263ZM1417.61 34.4573L1428.79 29.1233L1438.86 36.0919V63.1923L1446.51 68.5263L1434.47 73.8604L1427.67 68.5263V41.512L1417.61 34.5433V34.4573Z" fill="white"/>
<path d="M1479.26 38.931L1468.08 44.3511C1467.44 43.6628 1466.7 42.8312 1465.84 41.8561C1465.04 40.8811 1464.23 39.9061 1463.43 38.931C1462.63 37.956 1461.88 37.067 1461.19 36.264C1460.5 35.461 1460.02 34.8875 1459.73 34.5433C1459.73 35.289 1459.73 36.3787 1459.73 37.8126C1459.73 39.1891 1459.73 40.6517 1459.73 42.2003C1459.73 43.7489 1459.73 45.2401 1459.73 46.674C1459.73 48.1079 1459.73 49.1976 1459.73 49.9432C1459.73 50.4594 1459.73 51.2624 1459.73 52.3522C1459.73 53.3845 1459.73 54.4743 1459.73 55.6214C1459.73 56.7685 1459.73 57.8583 1459.73 58.8907C1459.73 59.923 1459.73 60.6973 1459.73 61.2135C1460.53 61.3282 1461.85 61.529 1463.69 61.8158C1465.52 62.0452 1467.44 62.332 1469.45 62.6761C1471.52 62.9629 1473.47 63.2497 1475.3 63.5364C1477.14 63.7658 1478.46 63.9379 1479.26 64.0526L1471.77 73.8604C1471.03 73.631 1469.6 73.2008 1467.47 72.5699C1465.35 71.8816 1463.06 71.1647 1460.59 70.4191C1458.18 69.6161 1455.83 68.8705 1453.54 68.1822C1451.24 67.4939 1449.58 66.9777 1448.55 66.6336C1448.55 66.4042 1448.55 66.0887 1448.55 65.6872C1448.55 65.2284 1448.55 64.7409 1448.55 64.2247C1448.55 63.7085 1448.55 63.1636 1448.55 62.5901C1448.55 61.9592 1448.55 61.3283 1448.55 60.6973C1448.55 60.0664 1448.55 59.4355 1448.55 58.8046C1448.55 58.1164 1448.55 57.4568 1448.55 56.8259C1448.55 56.195 1448.55 55.5927 1448.55 55.0192C1448.55 54.4456 1448.55 53.9294 1448.55 53.4706C1448.55 52.2661 1448.55 51.0043 1448.55 49.6851C1448.55 48.3086 1448.55 46.9894 1448.55 45.7276C1448.55 44.4085 1448.55 43.2327 1448.55 42.2003C1448.55 41.1105 1448.55 40.3075 1448.55 39.7914C1449.52 39.3325 1451.01 38.6442 1453.02 37.7266C1455.03 36.7515 1457.15 35.7191 1459.39 34.6294C1461.68 33.5396 1463.89 32.5072 1466.01 31.5322C1468.13 30.4998 1469.77 29.6968 1470.91 29.1233C1471.32 29.5821 1471.86 30.2417 1472.55 31.102C1473.29 31.905 1474.07 32.794 1474.87 33.769C1475.67 34.7441 1476.48 35.6905 1477.28 36.6081C1478.08 37.5258 1478.74 38.3001 1479.26 38.931Z" fill="white"/>
<path d="M1496.72 12.9491V63.1923C1497.13 63.4791 1497.7 63.8806 1498.44 64.3968C1499.19 64.913 1499.96 65.4578 1500.77 66.0314C1501.57 66.5476 1502.29 67.0638 1502.92 67.58C1503.61 68.0388 1504.09 68.3543 1504.38 68.5263L1492.51 73.8604C1491.93 73.5162 1490.99 72.914 1489.67 72.0537C1488.41 71.136 1487.03 70.1896 1485.54 69.2146C1484.05 68.1822 1482.59 67.2072 1481.15 66.2895C1479.78 65.3144 1478.69 64.5688 1477.88 64.0526L1485.54 60.2672V18.2831C1485.08 17.939 1484.45 17.5088 1483.65 16.9926C1482.84 16.4191 1482.04 15.8455 1481.24 15.272C1480.43 14.6984 1479.72 14.2109 1479.09 13.8094C1478.46 13.3506 1478.05 13.0638 1477.88 12.9491L1489.93 7.61505C1490.21 7.84447 1490.67 8.21728 1491.3 8.73348C1491.99 9.24968 1492.71 9.79455 1493.45 10.3681C1494.2 10.9417 1494.89 11.4865 1495.52 12.0027C1496.15 12.4616 1496.55 12.777 1496.72 12.9491ZM1502.14 35.9199C1501.57 36.1493 1500.71 36.5221 1499.56 37.0383C1498.42 37.5545 1497.21 38.0994 1495.95 38.6729C1494.69 39.1891 1493.45 39.7053 1492.25 40.2215C1491.1 40.7377 1490.24 41.1392 1489.67 41.426L1488.98 39.0171C1489.55 38.7303 1490.39 38.3575 1491.48 37.8986C1492.62 37.3824 1493.91 36.8089 1495.35 36.178C1496.78 35.4897 1498.27 34.8014 1499.82 34.1132C1501.43 33.4249 1502.95 32.7653 1504.38 32.1344C1505.87 31.4462 1507.22 30.8439 1508.42 30.3277C1509.63 29.8115 1510.57 29.4101 1511.26 29.1233C1511.89 29.9836 1512.7 31.1594 1513.67 32.6506C1514.65 34.0845 1515.62 35.5184 1516.6 36.9523C1517.57 38.3861 1518.46 39.7053 1519.26 40.9098C1520.07 42.0569 1520.61 42.8312 1520.9 43.2327L1510.4 47.7924C1510.12 47.3909 1509.6 46.674 1508.85 45.6416C1508.11 44.5518 1507.31 43.3761 1506.45 42.1142C1505.59 40.8524 1504.75 39.648 1503.95 38.5009C1503.15 37.3538 1502.55 36.4934 1502.14 35.9199ZM1499.39 52.6103L1510.49 47.7064C1510.95 48.2799 1511.58 49.1689 1512.38 50.3734C1513.18 51.5779 1514.1 52.9257 1515.13 54.4169C1516.17 55.9082 1517.23 57.4568 1518.32 59.0627C1519.41 60.6687 1520.41 62.1599 1521.33 63.5364C1522.3 64.913 1523.11 66.0887 1523.74 67.0638C1524.43 68.0388 1524.86 68.641 1525.03 68.8705L1513.76 73.8604C1513.64 73.6883 1513.27 73.1434 1512.64 72.2257C1512.01 71.2507 1511.23 70.1036 1510.32 68.7844C1509.4 67.4079 1508.4 65.9167 1507.31 64.3107C1506.22 62.7048 1505.15 61.1562 1504.12 59.6649C1503.09 58.1164 1502.14 56.7112 1501.28 55.4493C1500.42 54.1875 1499.79 53.2412 1499.39 52.6103Z" fill="white"/>
<path d="M1541.62 12.9491V63.1923C1542.02 63.4791 1542.6 63.8806 1543.34 64.3968C1544.09 64.913 1544.86 65.4578 1545.66 66.0314C1546.47 66.5476 1547.18 67.0638 1547.81 67.58C1548.5 68.0388 1548.99 68.3543 1549.28 68.5263L1537.4 73.8604C1536.83 73.5162 1535.88 72.914 1534.57 72.0537C1533.3 71.136 1531.93 70.1896 1530.44 69.2146C1528.94 68.1822 1527.48 67.2072 1526.05 66.2895C1524.67 65.3144 1523.58 64.5688 1522.78 64.0526L1530.44 60.2672V18.2831C1529.98 17.939 1529.35 17.5088 1528.54 16.9926C1527.74 16.4191 1526.94 15.8455 1526.13 15.272C1525.33 14.6984 1524.61 14.2109 1523.98 13.8094C1523.35 13.3506 1522.95 13.0638 1522.78 12.9491L1534.82 7.61505C1535.05 7.78712 1535.45 8.10257 1536.03 8.56142C1536.6 9.02026 1537.23 9.53645 1537.92 10.11C1538.61 10.6262 1539.3 11.1424 1539.99 11.6586C1540.67 12.1748 1541.22 12.605 1541.62 12.9491Z" fill="white"/>
<path d="M1585.72 46.2438L1574.02 50.4594C1573.22 49.3697 1572.24 48.0505 1571.1 46.5019C1569.95 44.896 1568.8 43.3187 1567.66 41.7701C1566.51 40.1642 1565.45 38.7016 1564.47 37.3824C1563.55 36.0059 1562.89 35.0595 1562.49 34.5433C1562.49 35.3463 1562.49 36.4934 1562.49 37.9847C1562.49 39.4185 1562.49 40.9098 1562.49 42.4584C1562.49 44.007 1562.49 45.4695 1562.49 46.846C1562.49 48.2226 1562.49 49.255 1562.49 49.9432C1562.49 50.4594 1562.49 51.2624 1562.49 52.3522C1562.49 53.3845 1562.49 54.4743 1562.49 55.6214C1562.49 56.7685 1562.49 57.8583 1562.49 58.8907C1562.49 59.923 1562.49 60.6973 1562.49 61.2135C1563.35 61.3282 1564.79 61.529 1566.79 61.8158C1568.8 62.0452 1570.92 62.332 1573.16 62.6761C1575.4 62.9629 1577.49 63.2497 1579.44 63.5364C1581.45 63.7658 1582.88 63.9379 1583.74 64.0526L1576.26 73.8604C1575.23 73.5736 1573.51 73.0861 1571.1 72.3978C1568.69 71.7095 1566.16 70.9926 1563.53 70.247C1560.89 69.444 1558.42 68.7271 1556.13 68.0962C1553.83 67.4079 1552.23 66.9204 1551.31 66.6336C1551.31 66.1174 1551.31 65.4291 1551.31 64.5688C1551.31 63.7085 1551.31 62.7621 1551.31 61.7297C1551.31 60.64 1551.31 59.4929 1551.31 58.2884C1551.31 57.0266 1551.31 55.7361 1551.31 54.4169C1551.31 53.0978 1551.31 51.7786 1551.31 50.4594C1551.31 49.1403 1551.31 47.8498 1551.31 46.588C1551.31 45.3261 1551.31 44.1217 1551.31 42.9746C1551.31 41.7701 1551.31 40.709 1551.31 39.7914C1552.11 39.3899 1553.49 38.7303 1555.44 37.8126C1557.45 36.8949 1559.6 35.8912 1561.89 34.8014C1564.19 33.6543 1566.42 32.5646 1568.6 31.5322C1570.78 30.4998 1572.47 29.6968 1573.68 29.1233C1574.37 30.0983 1575.25 31.3601 1576.34 32.9087C1577.43 34.4573 1578.55 36.0633 1579.7 37.7266C1580.85 39.3325 1581.97 40.9098 1583.05 42.4584C1584.14 44.007 1585.03 45.2688 1585.72 46.2438ZM1559.4 54.8471L1582.71 44.179L1585.72 46.2438L1560.26 57.8583L1559.4 54.8471Z" fill="white"/>
<path d="M1592.69 18.2831L1603.87 13.0351V29.9836H1619.27L1615.57 38.759L1608.6 37.8986L1603.87 37.2964V61.2135C1604.16 61.2709 1604.96 61.4716 1606.28 61.8158C1607.6 62.1025 1609.06 62.4467 1610.67 62.8482C1612.33 63.2497 1613.97 63.6511 1615.57 64.0526C1617.24 64.4541 1618.53 64.7696 1619.44 64.999C1619.04 65.4005 1618.41 66.0027 1617.55 66.8057C1616.69 67.5513 1615.77 68.3543 1614.8 69.2146C1613.82 70.0749 1612.85 70.9353 1611.87 71.7956C1610.95 72.6559 1610.21 73.3442 1609.64 73.8604L1585.03 64.0526C1585.26 63.9379 1585.72 63.7085 1586.41 63.3644C1587.1 63.0202 1587.81 62.6761 1588.56 62.332C1589.36 61.9305 1590.13 61.5577 1590.88 61.2135C1591.68 60.8121 1592.29 60.4966 1592.69 60.2672V36.178L1584.34 35.1456L1592.69 29.9836V18.2831Z" fill="white"/>
<path d="M1625.57 18.2831L1636.75 13.0351V29.9836H1652.15L1648.45 38.759L1641.49 37.8986L1636.75 37.2964V61.2135C1637.04 61.2709 1637.84 61.4716 1639.16 61.8158C1640.48 62.1025 1641.94 62.4467 1643.55 62.8482C1645.21 63.2497 1646.85 63.6511 1648.45 64.0526C1650.12 64.4541 1651.41 64.7696 1652.33 64.999C1651.92 65.4005 1651.29 66.0027 1650.43 66.8057C1649.57 67.5513 1648.65 68.3543 1647.68 69.2146C1646.7 70.0749 1645.73 70.9353 1644.75 71.7956C1643.84 72.6559 1643.09 73.3442 1642.52 73.8604L1617.91 64.0526C1618.14 63.9379 1618.6 63.7085 1619.29 63.3644C1619.98 63.0202 1620.69 62.6761 1621.44 62.332C1622.24 61.9305 1623.02 61.5577 1623.76 61.2135C1624.57 60.8121 1625.17 60.4966 1625.57 60.2672V36.178L1617.22 35.1456L1625.57 29.9836V18.2831Z" fill="white"/>
<path d="M1688.82 46.2438L1677.12 50.4594C1676.32 49.3697 1675.34 48.0505 1674.2 46.5019C1673.05 44.896 1671.9 43.3187 1670.75 41.7701C1669.61 40.1642 1668.55 38.7016 1667.57 37.3824C1666.65 36.0059 1665.99 35.0595 1665.59 34.5433C1665.59 35.3463 1665.59 36.4934 1665.59 37.9847C1665.59 39.4185 1665.59 40.9098 1665.59 42.4584C1665.59 44.007 1665.59 45.4695 1665.59 46.846C1665.59 48.2226 1665.59 49.255 1665.59 49.9432C1665.59 50.4594 1665.59 51.2624 1665.59 52.3522C1665.59 53.3845 1665.59 54.4743 1665.59 55.6214C1665.59 56.7685 1665.59 57.8583 1665.59 58.8907C1665.59 59.923 1665.59 60.6973 1665.59 61.2135C1666.45 61.3282 1667.89 61.529 1669.89 61.8158C1671.9 62.0452 1674.02 62.332 1676.26 62.6761C1678.5 62.9629 1680.59 63.2497 1682.54 63.5364C1684.55 63.7658 1685.98 63.9379 1686.84 64.0526L1679.36 73.8604C1678.32 73.5736 1676.6 73.0861 1674.2 72.3978C1671.79 71.7095 1669.26 70.9926 1666.62 70.247C1663.99 69.444 1661.52 68.7271 1659.23 68.0962C1656.93 67.4079 1655.33 66.9204 1654.41 66.6336C1654.41 66.1174 1654.41 65.4291 1654.41 64.5688C1654.41 63.7085 1654.41 62.7621 1654.41 61.7297C1654.41 60.64 1654.41 59.4929 1654.41 58.2884C1654.41 57.0266 1654.41 55.7361 1654.41 54.4169C1654.41 53.0978 1654.41 51.7786 1654.41 50.4594C1654.41 49.1403 1654.41 47.8498 1654.41 46.588C1654.41 45.3261 1654.41 44.1217 1654.41 42.9746C1654.41 41.7701 1654.41 40.709 1654.41 39.7914C1655.21 39.3899 1656.59 38.7303 1658.54 37.8126C1660.54 36.8949 1662.7 35.8912 1664.99 34.8014C1667.28 33.6543 1669.52 32.5646 1671.7 31.5322C1673.88 30.4998 1675.57 29.6968 1676.78 29.1233C1677.46 30.0983 1678.35 31.3601 1679.44 32.9087C1680.53 34.4573 1681.65 36.0633 1682.8 37.7266C1683.95 39.3325 1685.06 40.9098 1686.15 42.4584C1687.24 44.007 1688.13 45.2688 1688.82 46.2438ZM1662.49 54.8471L1685.81 44.179L1688.82 46.2438L1663.36 57.8583L1662.49 54.8471Z" fill="white"/>
<path d="M1689.16 34.4573L1700.35 29.1233C1700.58 29.2953 1701.03 29.6108 1701.72 30.0696C1702.41 30.5285 1703.16 31.0447 1703.96 31.6182C1704.76 32.1918 1705.54 32.7367 1706.28 33.2529C1707.09 33.7691 1707.66 34.1705 1708 34.4573C1708.52 34.2279 1709.32 33.8551 1710.41 33.3389C1711.5 32.7653 1712.62 32.2205 1713.77 31.7043C1714.97 31.1307 1716.09 30.6145 1717.12 30.1557C1718.15 29.6395 1718.84 29.2953 1719.19 29.1233C1719.42 29.3527 1719.76 29.7255 1720.22 30.2417C1720.68 30.7005 1721.19 31.2454 1721.77 31.8763C1722.34 32.4499 1722.94 33.0808 1723.57 33.769C1724.21 34.4573 1724.81 35.1169 1725.38 35.7478C1726.01 36.3787 1726.59 36.9809 1727.1 37.5545C1727.62 38.1281 1728.05 38.5869 1728.39 38.931L1717.29 44.5232C1717.12 44.2937 1716.81 43.9783 1716.35 43.5768C1715.95 43.118 1715.52 42.6591 1715.06 42.2003C1714.6 41.6841 1714.17 41.2252 1713.77 40.8237C1713.37 40.3649 1713.08 40.0208 1712.91 39.7914C1712.79 39.6766 1712.53 39.4472 1712.13 39.1031C1711.79 38.7016 1711.36 38.2428 1710.84 37.7266C1710.38 37.153 1709.9 36.6081 1709.38 36.0919C1708.86 35.5184 1708.4 35.0022 1708 34.5433V61.2135C1708.86 61.443 1710.04 61.7584 1711.53 62.1599C1713.08 62.504 1714.63 62.8768 1716.18 63.2783C1717.78 63.6225 1719.27 63.9666 1720.65 64.3107C1722.03 64.6549 1723 64.8843 1723.57 64.999L1713.77 73.8604C1712.85 73.5162 1711.27 72.914 1709.04 72.0537C1706.86 71.136 1704.5 70.1896 1701.98 69.2146C1699.51 68.1822 1697.08 67.2072 1694.67 66.2895C1692.32 65.3144 1690.48 64.5688 1689.16 64.0526L1696.82 60.2672V39.7914C1696.36 39.4472 1695.73 39.0171 1694.93 38.5009C1694.12 37.9273 1693.32 37.3538 1692.52 36.7802C1691.71 36.2066 1691 35.7191 1690.37 35.3176C1689.74 34.8588 1689.33 34.572 1689.16 34.4573Z" fill="white"/>
<path d="M1249.53 754.861C1235.94 754.861 1226.3 744.106 1226.3 724.749C1226.3 705.048 1235.94 693.777 1249.53 693.777C1263.38 693.777 1272.76 705.048 1272.76 724.749C1272.76 744.106 1263.38 754.861 1249.53 754.861ZM1249.53 749.268C1258.82 749.268 1263.73 741.095 1263.73 724.749C1263.73 708.145 1258.82 699.369 1249.53 699.369C1240.32 699.369 1235.33 708.145 1235.33 724.749C1235.33 741.095 1240.32 749.268 1249.53 749.268Z" fill="white"/>
<path d="M1303.18 732.062C1314.71 722.512 1315.4 717.006 1315.4 712.446C1315.4 703.585 1311.1 698.939 1302.84 698.939C1294.15 698.939 1289.42 704.101 1289.42 712.618C1289.42 718.985 1292.69 724.491 1301.21 729.223H1288.82C1281.85 725.437 1280.39 718.555 1280.39 712.963C1280.39 700.402 1290.37 693.777 1302.84 693.777C1317.29 693.777 1324.43 700.316 1324.43 710.898C1324.43 716.662 1322.89 722.34 1307.83 735.159L1293.29 747.548H1325.29V754H1283.4V748.494L1303.18 732.062Z" fill="white"/>
<path d="M1353.49 754V694.638H1374.22C1389.11 694.638 1395.13 702.208 1395.13 711.586C1395.13 721.48 1389.19 728.534 1374.22 728.534H1373.28L1382.91 739.977C1389.54 747.892 1391.26 748.924 1394.27 748.924C1396.85 748.924 1398.14 747.548 1398.14 744.881C1398.14 743.332 1397.88 741.181 1396.16 738.6H1404.76C1405.97 740.579 1406.57 743.074 1406.57 745.139C1406.57 750.817 1402.53 754.861 1394.53 754.861C1387.82 754.861 1384.29 752.882 1376.98 744.192L1362.09 726.556V754H1353.49ZM1372.5 722.512C1382.83 722.512 1386.53 718.469 1386.53 711.586C1386.53 705.22 1382.57 700.66 1372.5 700.66H1362.09V722.512H1372.5Z" fill="white"/>
<path d="M1449.69 734.127C1453.56 748.322 1442.63 754.861 1431.02 754.861C1417.08 754.861 1408.22 746.085 1408.22 732.062C1408.22 718.383 1416.99 708.403 1430.16 708.403C1441 708.403 1450.8 714.081 1450.8 729.825V731.374H1416.82V732.062C1416.82 742.73 1421.38 749.957 1431.62 749.957C1438.24 749.957 1445.04 746.171 1441.08 734.127H1449.69ZM1430.42 713.307C1422.76 713.307 1418.37 717.608 1417.17 726.642H1442.37C1441.43 716.576 1436.27 713.307 1430.42 713.307Z" fill="white"/>
<path d="M1475.25 739.203C1472.58 739.203 1470.09 738.772 1467.85 738.084C1466.9 739.203 1466.3 740.493 1466.3 742.73C1466.3 745.139 1466.99 746.601 1467.94 747.72H1478.78C1492.54 747.72 1497.53 754.43 1497.53 761.399C1497.53 770.605 1490.05 777.229 1476.11 777.229C1462.95 777.229 1455.38 771.551 1455.38 763.636C1455.38 758.216 1458.21 754.602 1462.69 752.538C1460.71 750.387 1459.94 747.72 1459.94 745.053C1459.94 741.353 1461.57 738.514 1463.98 736.277C1459.51 733.438 1456.84 728.965 1456.84 723.459C1456.84 714.683 1464.41 708.403 1475.25 708.403C1479.38 708.403 1482.99 709.349 1485.92 710.984C1489.87 707.973 1494.35 706.94 1499.08 706.94V713.995H1489.79C1492.11 716.49 1493.4 719.759 1493.4 723.459C1493.4 732.664 1485.92 739.203 1475.25 739.203ZM1475.25 734.901C1481.87 734.901 1485.4 730.255 1485.4 723.459C1485.4 717.178 1481.87 712.704 1475.25 712.704C1468.45 712.704 1464.84 717.178 1464.84 723.459C1464.84 730.255 1468.45 734.901 1475.25 734.901ZM1476.28 772.067C1484.2 772.067 1489.79 769.056 1489.79 762.604C1489.79 757.872 1485.75 754 1477.92 754H1474.47C1466.73 754 1462.69 757.269 1462.69 762.604C1462.69 768.368 1467.16 772.067 1476.28 772.067Z" fill="white"/>
<path d="M1540.34 709.263V754H1532.17V748.58C1528.98 751.075 1522.79 754.861 1516.34 754.861C1506.53 754.861 1503.34 749.354 1503.34 739.977V709.263H1511.52V737.31C1511.52 745.569 1513.32 748.408 1520.12 748.408C1525.03 748.408 1529.5 745.827 1532.17 743.676V709.263H1540.34Z" fill="white"/>
<path d="M1549.26 754V688.615H1557.43V754H1549.26Z" fill="white"/>
<path d="M1566.52 730.513C1565.23 728.104 1565.06 725.781 1565.06 723.717C1565.06 714.167 1572.88 708.403 1584.5 708.403C1596.11 708.403 1603.86 713.221 1603.86 726.556V754H1595.68V748.15C1592.16 751.591 1586.74 754.861 1580.11 754.861C1573.14 754.861 1566.43 752.021 1566.43 743.676C1566.43 732.062 1577.53 730.771 1588.03 728.965L1595.68 727.674V725.695C1595.68 716.92 1591.9 713.307 1584.16 713.307C1577.62 713.307 1573.4 716.92 1573.4 724.061C1573.4 726.126 1574 728.362 1575.12 730.513H1566.52ZM1575.04 742.902C1575.04 747.376 1578.48 749.096 1582.09 749.096C1587.94 749.096 1592.84 745.827 1595.68 743.16V732.234L1587.85 733.438C1578.39 734.901 1575.04 737.826 1575.04 742.902Z" fill="white"/>
<path d="M1612.34 754V709.263H1620.51V714.941C1624.47 710.898 1628.77 708.403 1634.36 708.403C1641.67 708.403 1647.18 714.855 1641.59 729.051H1632.98C1637.28 719.501 1635.74 714.425 1630.06 714.425C1626.87 714.425 1623.86 716.06 1620.51 719.931V754H1612.34Z" fill="white"/>
<path d="M1227.16 853.889C1227.16 834.445 1235.25 822.487 1251.68 822.487C1268.11 822.487 1276.2 834.445 1276.2 853.889C1276.2 873.332 1268.11 885.291 1251.68 885.291C1235.25 885.291 1227.16 873.332 1227.16 853.889ZM1239.21 853.889C1239.21 866.794 1242.73 874.106 1251.68 874.106C1260.63 874.106 1264.24 866.794 1264.24 853.889C1264.24 840.984 1260.63 833.671 1251.68 833.671C1242.73 833.671 1239.21 840.984 1239.21 853.889Z" fill="white"/>
<path d="M1300.43 823.777H1313.34V884H1300.43V823.777ZM1287.53 823.777H1300.43L1291.23 841.156H1278.32L1287.53 823.777Z" fill="white"/>
<path d="M1365.84 834.101H1357.07V884H1344.16V823.777H1365.76C1379.18 823.777 1391.14 828.853 1391.14 843.565C1391.14 854.147 1385.29 859.309 1377.37 861.374L1392.17 884H1377.54L1357.07 852.856H1366.27C1374.36 852.856 1378.58 849.415 1378.58 843.565C1378.58 837.284 1374.19 834.101 1365.84 834.101Z" fill="white"/>
<path d="M1441.45 860.599C1441.45 877.118 1430.96 885.291 1418.83 885.291C1407.64 885.291 1396.63 877.118 1396.63 861.632C1396.63 846.576 1407.64 838.403 1418.83 838.403C1431.3 838.403 1441.45 846.92 1441.45 860.599H1408.42C1408.5 869.805 1416.16 873.762 1424.76 873.762C1433.63 873.762 1441.45 869.977 1441.45 860.599ZM1408.42 860.513V860.599L1427.09 854.749C1427.09 851.824 1424.42 849.501 1419.09 849.501C1412.46 849.501 1408.42 853.373 1408.42 860.513Z" fill="white"/>
<path d="M1446.92 854.921C1446.92 845.113 1454.32 838.403 1463.52 838.403C1469.55 838.403 1474.62 841.242 1477.46 845.802L1484.77 838.403V848.727H1479.01C1479.7 850.619 1480.13 852.684 1480.13 854.921C1480.13 858.707 1479.01 862.062 1477.12 864.815C1482.28 868.772 1486.41 875.139 1486.41 882.882C1486.41 896.303 1476.51 905.939 1463.52 905.939C1459.57 905.939 1454.92 904.906 1451.74 903.1V866.966C1448.73 864.041 1446.92 859.825 1446.92 854.921ZM1457.76 855.007C1457.76 858.362 1460.08 860.857 1463.52 860.857C1466.88 860.857 1469.2 858.362 1469.2 855.007C1469.2 851.566 1466.88 849.243 1463.52 849.243C1460.08 849.243 1457.76 851.566 1457.76 855.007ZM1474.36 882.882C1474.36 876.257 1470.15 871.87 1463.78 871.784H1463.52H1463.35C1456.98 871.87 1451.74 876.257 1451.74 882.882C1451.74 889.592 1457.07 894.41 1463.52 894.41C1469.98 894.41 1474.36 889.592 1474.36 882.882Z" fill="white"/>
<path d="M1534.16 884H1521.68V862.922C1521.51 876.257 1516.44 885.291 1506.54 885.291C1496.13 885.291 1492.86 875.741 1492.86 866.794V839.693H1505.34V861.804C1505.34 868.686 1507.58 873.59 1513.6 873.59C1519.36 873.59 1521.51 869.203 1521.68 862.664V839.693H1534.16V884Z" fill="white"/>
<path d="M1545.68 819.476H1558.15V884H1545.68V819.476Z" fill="white"/>
<path d="M1568.97 854.147C1569.91 844.769 1575.76 838.403 1589.36 838.403C1605.01 838.403 1608.54 846.92 1608.54 856.814V884H1596.07V863.61C1596.07 863.696 1596.07 863.783 1596.07 863.869C1595.89 880.903 1587.89 885.291 1580.32 885.291C1570.94 885.291 1567.93 879.527 1567.93 873.848C1567.93 856.126 1596.07 860.513 1596.07 853.114C1596.07 850.017 1593.49 847.866 1588.75 847.866C1582.65 847.866 1580.58 851.48 1580.58 854.147H1568.97ZM1596.07 863.61C1591.42 867.998 1580.49 866.364 1580.49 872.988C1580.49 874.795 1581.61 877.204 1585.57 877.204C1593.14 877.204 1595.98 870.665 1596.07 863.869V863.61Z" fill="white"/>
<path d="M1619.17 839.693H1650.57V850.017H1631.65V884H1619.17V839.693Z" fill="white"/>
</svg>
