<svg width="1024" height="1735" viewBox="0 0 1024 1735" fill="none" xmlns="http://www.w3.org/2000/svg">
<path d="M566.662 691H444.536L397.314 525.724H165.276L118.054 691H4.07084L167.719 121.082H281.702L196.215 419.882H367.19L281.702 121.082H403.828L566.662 691ZM592.422 408.483C601.378 319.739 656.742 259.49 785.38 259.49C933.559 259.49 966.94 340.093 966.94 433.723V691H848.886V498.042C848.886 498.856 848.886 499.67 848.886 500.484C847.257 661.69 771.54 703.213 699.893 703.213C611.148 703.213 582.652 648.663 582.652 594.928C582.652 427.209 848.886 468.732 848.886 398.713C848.886 369.403 824.46 349.049 779.681 349.049C721.875 349.049 702.335 383.244 702.335 408.483H592.422ZM848.886 498.042C804.92 539.565 701.521 524.095 701.521 586.786C701.521 603.884 712.105 626.681 749.557 626.681C821.204 626.681 848.071 564.804 848.886 500.484V498.042Z" fill="white"/>
<path d="M506.843 1441.86C491.96 1441.86 479.571 1436.44 473.721 1430.68V1389.98C479.657 1384.82 492.132 1380.78 506.843 1380.78C523.19 1380.78 533.772 1384.73 539.966 1389.98V1430.68C533.944 1436.61 523.362 1441.86 506.843 1441.86ZM506.843 1421.21C524.308 1421.21 531.621 1413.99 534.202 1411.23C531.621 1408.48 524.308 1401.42 506.843 1401.42C490.067 1401.42 482.238 1408.48 479.571 1411.23C482.238 1413.99 490.067 1421.21 506.843 1421.21ZM541.133 1441V1425.51L588.193 1401.08C583.29 1399.45 577.525 1398.84 570.471 1398.84C554.985 1398.84 545.435 1402.37 541.133 1405.12V1385.94C548.102 1383.1 558.942 1380.78 571.159 1380.78C585.526 1380.78 597.399 1383.19 602.303 1386.89V1402.89L563.588 1422.93H602.217V1441H541.133ZM622.777 1441V1381.64H659.341C673.88 1381.64 686.527 1384.56 690.829 1388.61V1403.66C686.097 1407.1 681.107 1409.34 676.289 1410.63C681.709 1411.92 688.42 1413.9 693.41 1417.43V1432.4C689.022 1436.87 675.773 1441 661.922 1441H622.777ZM659.341 1400.13H632.24V1407.36H659.255C668.546 1407.36 674.482 1406.07 678.268 1403.92C674.568 1401.77 668.546 1400.13 659.341 1400.13ZM661.836 1415.1H632.24V1422.5H661.922C671.127 1422.5 677.235 1421.04 680.763 1418.8C676.977 1416.74 671.127 1415.1 661.836 1415.1ZM693.718 1433.52V1403.75C698.02 1399.62 709.462 1395.4 725.12 1395.4C741.38 1395.4 752.135 1399.53 756.608 1403.75V1433.52C752.135 1437.73 741.38 1441.86 725.12 1441.86C709.462 1441.86 698.02 1437.64 693.718 1433.52ZM725.12 1425.51C741.208 1425.51 749.381 1420.27 751.188 1418.55C749.381 1416.91 741.208 1411.75 725.12 1411.75C709.032 1411.75 700.945 1416.91 699.138 1418.55C700.945 1420.27 709.032 1425.51 725.12 1425.51ZM757.854 1441V1375.62H767.318V1441H757.854ZM768.556 1433.52V1403.75C772.858 1399.62 784.3 1395.4 799.958 1395.4C811.486 1395.4 820.348 1397.47 826.026 1400.22V1375.62H835.49V1441H826.026V1437.04C820.348 1439.8 811.486 1441.86 799.958 1441.86C784.3 1441.86 772.858 1437.64 768.556 1433.52ZM799.958 1425.51C816.046 1425.51 824.219 1420.27 826.026 1418.55C824.219 1416.91 816.046 1411.75 799.958 1411.75C783.87 1411.75 775.783 1416.91 773.976 1418.55C775.783 1420.27 783.87 1425.51 799.958 1425.51Z" fill="white"/>
<path d="M482.324 1306.86C474.925 1306.86 471.14 1304.11 471.14 1296.54C471.14 1273.48 494.885 1245.78 515.016 1245.78C525.082 1245.78 526.029 1253.09 526.029 1259.89C526.029 1281.65 503.058 1306.86 482.324 1306.86ZM482.926 1306C499.703 1306 518.63 1271.93 518.63 1251.97C518.63 1248.19 517.597 1246.64 514.758 1246.64C498.412 1246.64 478.625 1282.6 478.625 1299.98C478.625 1303.33 479.313 1306 482.926 1306ZM550.476 1306H510.987L538.087 1286.81C532.495 1281.05 530.861 1273.57 530.861 1269.52C530.861 1252.06 541.271 1245.78 554.089 1245.78C566.22 1245.78 570.78 1250.16 570.78 1256.1C570.78 1262.55 567.339 1267.63 544.626 1283.46L523.376 1298.26H554.95L550.476 1306ZM532.065 1269.52C532.065 1273.57 533.872 1281.14 539.034 1286.21L544.024 1282.69C557.015 1273.48 560.8 1265.82 560.8 1257.13C560.8 1252.75 558.993 1246.98 551.25 1246.98C542.045 1246.98 532.065 1253 532.065 1269.52ZM568.531 1305.14H577.995L611.289 1247.5H601.826L602.342 1246.64H630.819L630.303 1247.5H620.753L587.458 1305.14H596.922L596.406 1306H568.015L568.531 1305.14ZM606.223 1306L631.603 1262.12H622.914L649.498 1246.64L641.067 1261.26H656.122L655.606 1262.12H640.551L615.687 1305.14H630.743L630.227 1306H606.223ZM651.443 1306.86C642.754 1306.86 638.796 1302.73 638.796 1296.71C638.796 1281.14 659.616 1260.4 678.716 1260.4C683.447 1260.4 684.394 1262.64 684.394 1266.77C684.394 1269.44 683.877 1271.84 682.673 1274.77L690.502 1261.26H699.535L674.156 1305.14H683.189L682.673 1306H664.692L670.887 1295.25C665.208 1301.87 658.842 1306.86 651.443 1306.86ZM651.873 1305.57C666.671 1305.57 683.103 1278.9 683.103 1266.77C683.103 1263.41 682.759 1261.43 678.457 1261.43C663.144 1261.43 647.314 1288.19 647.314 1300.41C647.314 1303.85 648.002 1305.57 651.873 1305.57ZM688.707 1306L725.443 1242.34H716.409L716.926 1241.48H734.906L698.17 1305.14H707.204L706.688 1306H688.707ZM714.615 1306L739.995 1262.12H730.962L731.478 1261.26H749.459L724.079 1305.14H733.112L732.596 1306H714.615ZM757.976 1241.82C757.976 1245.17 755.567 1247.24 752.642 1247.24C749.545 1247.24 747.308 1245.17 747.308 1241.82C747.308 1238.81 749.545 1236.49 752.642 1236.49C755.567 1236.49 757.976 1238.81 757.976 1241.82ZM755.884 1306.86C747.367 1306.86 743.324 1302.73 743.324 1296.71C743.324 1282 763.541 1260.4 783.157 1260.4C789.781 1260.4 792.448 1264.62 792.448 1267.97C792.448 1271.67 789.351 1273.22 785.566 1273.22C784.017 1273.22 782.21 1272.96 780.662 1272.1L786.512 1261.95C785.738 1261.69 784.877 1261.43 782.727 1261.43C767.413 1261.43 751.841 1289.14 751.841 1300.41C751.841 1303.59 752.615 1305.57 757.003 1305.57C766.81 1305.66 780.662 1299.55 784.275 1280.1H785.566C781.78 1300.41 767.757 1306.86 755.884 1306.86Z" fill="white"/>
<path d="M494.799 1103.92C497.839 1105.12 500.649 1106.53 503.23 1108.13C505.868 1109.74 508.162 1111.66 510.113 1113.9C512.063 1116.13 513.583 1118.71 514.672 1121.64C515.762 1124.56 516.307 1127.98 516.307 1131.88V1132.22C516.25 1136.01 515.619 1139.48 514.414 1142.63C513.267 1145.79 511.69 1148.74 509.682 1151.49C507.732 1154.25 505.467 1156.8 502.886 1159.15C500.305 1161.5 497.609 1163.74 494.799 1165.86C492.677 1164.77 490.411 1163.48 488.002 1161.99C485.651 1160.44 483.471 1158.6 481.464 1156.48C479.514 1154.3 477.879 1151.78 476.56 1148.91C475.241 1145.99 474.581 1142.6 474.581 1138.76V1138.42C474.638 1134.63 475.155 1131.13 476.13 1127.92C477.162 1124.65 478.567 1121.61 480.345 1118.8C482.181 1115.99 484.331 1113.35 486.798 1110.89C489.264 1108.42 491.931 1106.1 494.799 1103.92ZM490.755 1111.32C490.468 1112.06 490.21 1112.89 489.981 1113.81C489.751 1114.73 489.522 1115.73 489.293 1116.82C489.121 1117.91 488.948 1119.09 488.776 1120.35C488.604 1121.55 488.432 1122.87 488.26 1124.31C488.146 1125.68 488.059 1127.15 488.002 1128.69C487.945 1130.24 487.916 1131.88 487.916 1133.6C487.916 1136.75 488.117 1139.56 488.518 1142.03C488.977 1144.5 489.637 1146.7 490.497 1148.65C491.415 1150.55 492.562 1152.24 493.938 1153.73C495.372 1155.22 497.064 1156.57 499.014 1157.77C499.358 1157.03 499.703 1156.22 500.047 1155.36C500.391 1154.5 500.706 1153.59 500.993 1152.61C501.337 1151.64 501.624 1150.6 501.853 1149.51C502.083 1148.42 502.284 1147.25 502.456 1145.99C502.628 1144.67 502.742 1143.26 502.8 1141.77C502.914 1140.28 502.972 1138.7 502.972 1137.04C502.972 1134.34 502.8 1131.79 502.456 1129.38C502.169 1126.97 501.595 1124.71 500.735 1122.59C499.875 1120.41 498.642 1118.37 497.036 1116.48C495.43 1114.58 493.336 1112.86 490.755 1111.32ZM537.292 1110.11C536.317 1111.09 535.514 1112.12 534.883 1113.21C534.31 1114.3 533.851 1115.5 533.507 1116.82C533.163 1118.14 532.905 1119.6 532.732 1121.21C532.618 1122.82 532.589 1124.59 532.646 1126.54H518.365C518.48 1124.71 518.881 1123.07 519.569 1121.64C520.258 1120.21 521.434 1118.69 523.097 1117.08C524.817 1115.47 527.112 1113.67 529.979 1111.66C532.847 1109.59 536.518 1107.01 540.992 1103.92C544.031 1104.89 546.555 1105.84 548.563 1106.76C550.627 1107.62 552.262 1108.51 553.466 1109.42C554.671 1110.34 555.531 1111.34 556.047 1112.43C556.564 1113.47 556.822 1114.64 556.822 1115.96C556.822 1117.68 556.449 1119.12 555.703 1120.26C555.015 1121.41 554.069 1122.41 552.864 1123.27C551.66 1124.08 550.283 1124.82 548.735 1125.51C547.243 1126.14 545.666 1126.86 544.003 1127.66C547.329 1128.58 549.968 1129.61 551.918 1130.76C553.925 1131.91 555.445 1133.08 556.478 1134.29C557.51 1135.49 558.198 1136.67 558.542 1137.81C558.886 1138.9 559.059 1139.88 559.059 1140.74C559.059 1142.06 558.858 1143.38 558.456 1144.7C558.112 1146.02 557.367 1147.45 556.219 1149C555.13 1150.55 553.524 1152.32 551.402 1154.33C549.337 1156.28 546.584 1158.58 543.142 1161.21L537.12 1165.86C534.367 1163.57 531.815 1161.44 529.463 1159.49C527.112 1157.49 525.047 1155.54 523.269 1153.64C521.548 1151.69 520.172 1149.74 519.139 1147.79C518.164 1145.79 517.619 1143.58 517.505 1141.17H532.646C532.646 1142.2 532.847 1143.29 533.249 1144.44C533.708 1145.59 534.396 1146.82 535.313 1148.14C536.231 1149.46 537.35 1150.83 538.669 1152.27C540.045 1153.7 541.623 1155.16 543.401 1156.65C543.917 1156.25 544.462 1155.77 545.035 1155.19C545.609 1154.56 546.154 1153.84 546.67 1153.04C547.186 1152.18 547.588 1151.23 547.874 1150.2C548.218 1149.17 548.39 1148.02 548.39 1146.76C548.39 1144.93 547.96 1143.32 547.1 1141.94C546.297 1140.51 545.179 1139.33 543.745 1138.42C542.368 1137.44 540.762 1136.7 538.927 1136.18C537.091 1135.66 535.17 1135.38 533.163 1135.32V1131.96C535.629 1130.64 537.55 1129.47 538.927 1128.44C540.361 1127.4 541.422 1126.43 542.11 1125.51C542.856 1124.54 543.315 1123.62 543.487 1122.76C543.716 1121.9 543.831 1120.98 543.831 1120C543.831 1119.09 543.716 1118.2 543.487 1117.34C543.257 1116.42 542.884 1115.56 542.368 1114.76C541.852 1113.9 541.164 1113.09 540.303 1112.35C539.5 1111.54 538.497 1110.8 537.292 1110.11ZM607.403 1158.63L604.048 1165.86C601.295 1165 598.513 1163.68 595.703 1161.9C592.892 1160.07 590.34 1157.83 588.046 1155.19C585.809 1152.55 583.973 1149.54 582.539 1146.16C581.106 1142.72 580.389 1138.96 580.389 1134.89C580.389 1130.47 580.876 1126.57 581.851 1123.19C582.826 1119.8 584.174 1116.79 585.895 1114.15C587.673 1111.52 589.766 1109.22 592.175 1107.27C594.584 1105.26 597.222 1103.43 600.09 1101.77L600.004 1106.15C598.742 1107.3 597.653 1108.73 596.735 1110.46C595.875 1112.18 595.158 1114.07 594.584 1116.13C594.011 1118.2 593.58 1120.41 593.294 1122.76C593.007 1125.05 592.863 1127.37 592.863 1129.73C592.863 1133.11 593.179 1136.27 593.81 1139.19C594.441 1142.06 595.358 1144.7 596.563 1147.11C597.767 1149.51 599.259 1151.69 601.037 1153.64C602.872 1155.54 604.994 1157.2 607.403 1158.63ZM612.393 1124.48C611.877 1122.64 611.303 1120.87 610.672 1119.14C610.041 1117.37 609.267 1115.7 608.349 1114.15C607.432 1112.61 606.313 1111.17 604.994 1109.85C603.675 1108.48 602.012 1107.24 600.004 1106.15L603.962 1099.62C607.231 1100.48 610.127 1101.65 612.651 1103.14C615.175 1104.58 617.354 1106.33 619.189 1108.39C621.025 1110.46 622.516 1112.81 623.663 1115.45C624.81 1118.08 625.613 1121.07 626.072 1124.39L612.393 1124.48ZM613.941 1134.54H626.846C626.445 1138.85 625.413 1142.66 623.749 1145.99C622.143 1149.26 620.222 1152.15 617.985 1154.68C615.748 1157.14 613.368 1159.29 610.844 1161.13C608.378 1162.96 606.112 1164.54 604.048 1165.86L607.403 1158.63C608.665 1157.31 609.697 1155.77 610.5 1153.99C611.36 1152.15 612.049 1150.2 612.565 1148.14C613.081 1146.02 613.425 1143.81 613.597 1141.51C613.827 1139.16 613.941 1136.84 613.941 1134.54ZM600.09 1101.77L603.962 1099.62L607.059 1101.34L600.004 1106.15L600.09 1101.77ZM591.659 1112.95L593.122 1113.04C591.573 1115.96 590.368 1118.77 589.508 1121.47C588.648 1124.16 588.074 1126.74 587.787 1129.21C587.558 1131.62 587.558 1133.91 587.787 1136.09C588.017 1138.22 588.418 1140.22 588.992 1142.12C589.623 1143.95 590.368 1145.67 591.229 1147.28C592.146 1148.83 593.15 1150.23 594.24 1151.49C595.33 1152.75 596.448 1153.87 597.595 1154.85C598.8 1155.82 599.975 1156.65 601.123 1157.34L600.434 1159.24C599.345 1158.55 598.197 1157.69 596.993 1156.65C595.789 1155.62 594.641 1154.45 593.552 1153.13C592.462 1151.75 591.43 1150.23 590.455 1148.57C589.479 1146.85 588.648 1145.01 587.96 1143.06C587.329 1141.05 586.87 1138.9 586.583 1136.61C586.354 1134.31 586.354 1131.93 586.583 1129.47C586.812 1126.94 587.329 1124.31 588.132 1121.55C588.935 1118.74 590.11 1115.88 591.659 1112.95ZM651.462 1182.29C653.125 1182.29 654.559 1182.09 655.764 1181.69C657.025 1181.35 658.115 1180.86 659.033 1180.23C659.95 1179.65 660.725 1178.99 661.356 1178.25C662.044 1177.56 662.618 1176.84 663.076 1176.1L643.633 1158.38C643.002 1159.35 642.457 1160.33 641.998 1161.3C641.539 1162.28 641.167 1163.28 640.88 1164.31C640.593 1165.34 640.392 1166.41 640.278 1167.49C640.163 1168.64 640.106 1169.85 640.106 1171.11C640.106 1172.48 640.306 1173.83 640.708 1175.15C641.167 1176.53 641.855 1177.73 642.773 1178.77C643.69 1179.8 644.866 1180.63 646.3 1181.26C647.734 1181.95 649.454 1182.29 651.462 1182.29ZM666.518 1130.07C666.518 1131.39 666.374 1132.77 666.087 1134.2C665.801 1135.63 665.371 1137.07 664.797 1138.5C664.281 1139.88 663.621 1141.28 662.818 1142.72C662.073 1144.09 661.155 1145.44 660.065 1146.76C659.033 1148.02 657.886 1149.23 656.624 1150.37C655.362 1151.46 653.986 1152.47 652.494 1153.39C653.527 1154.3 654.932 1155.57 656.71 1157.17C658.488 1158.78 660.323 1160.41 662.216 1162.07C664.109 1163.74 665.858 1165.32 667.464 1166.81C669.127 1168.3 670.36 1169.39 671.163 1170.08C670.36 1172.89 669.242 1175.38 667.808 1177.56C666.374 1179.8 664.682 1181.66 662.732 1183.15C660.782 1184.64 658.603 1185.79 656.194 1186.59C653.785 1187.4 651.204 1187.8 648.451 1187.8C645.87 1187.8 643.403 1187.51 641.052 1186.94C638.7 1186.42 636.607 1185.56 634.772 1184.36C632.994 1183.21 631.56 1181.75 630.47 1179.97C629.437 1178.25 628.921 1176.18 628.921 1173.78C628.921 1171.48 629.323 1169.42 630.126 1167.58C630.929 1165.75 631.932 1164.14 633.137 1162.76C634.399 1161.33 635.747 1160.07 637.18 1158.98C638.614 1157.83 639.962 1156.83 641.224 1155.97C640.249 1155.16 639.331 1154.27 638.471 1153.3C637.668 1152.27 636.922 1151.15 636.234 1149.94C635.546 1148.74 634.944 1147.48 634.427 1146.16C633.911 1144.84 633.481 1143.46 633.137 1142.03C632.907 1141.05 632.707 1140.08 632.535 1139.1C632.42 1138.07 632.305 1137.07 632.191 1136.09C632.076 1135.06 631.99 1134.06 631.932 1133.08C631.875 1132.05 631.789 1131.05 631.674 1130.07C631.617 1129.1 631.531 1128.24 631.416 1127.49C631.302 1126.74 631.158 1126.08 630.986 1125.51C630.871 1124.88 630.728 1124.31 630.556 1123.79C630.384 1123.22 630.183 1122.61 629.954 1121.98H641.138C641.425 1122.61 641.654 1123.22 641.826 1123.79C641.998 1124.36 642.142 1124.97 642.256 1125.6C642.371 1126.17 642.486 1126.83 642.601 1127.58C642.715 1128.26 642.801 1129.1 642.859 1130.07C642.973 1131.1 643.059 1132.14 643.117 1133.17C643.174 1134.14 643.26 1135.12 643.375 1136.09C643.49 1137.01 643.604 1137.9 643.719 1138.76C643.891 1139.56 644.092 1140.37 644.321 1141.17C644.665 1142.37 645.067 1143.49 645.526 1144.52C645.984 1145.5 646.443 1146.42 646.902 1147.28C647.418 1148.08 647.935 1148.8 648.451 1149.43C649.024 1150.06 649.569 1150.6 650.085 1151.06C650.659 1150.66 651.175 1150 651.634 1149.08C652.15 1148.11 652.58 1147.02 652.924 1145.81C653.326 1144.55 653.67 1143.23 653.957 1141.86C654.301 1140.42 654.559 1139.02 654.731 1137.64C654.961 1136.27 655.104 1134.97 655.161 1133.77C655.276 1132.57 655.333 1131.53 655.333 1130.67C655.333 1129.81 655.276 1129.01 655.161 1128.26C655.104 1127.46 654.989 1126.69 654.817 1125.94C654.702 1125.2 654.53 1124.51 654.301 1123.88C654.129 1123.19 653.9 1122.56 653.613 1121.98H664.797C665.026 1122.56 665.227 1123.1 665.399 1123.62C665.629 1124.08 665.829 1124.62 666.001 1125.25C666.174 1125.83 666.288 1126.51 666.346 1127.32C666.46 1128.06 666.518 1128.98 666.518 1130.07ZM671.106 1121.98H682.29C682.519 1122.33 682.72 1122.76 682.892 1123.27C683.122 1123.79 683.322 1124.36 683.494 1124.99C683.666 1125.57 683.781 1126.2 683.838 1126.89C683.953 1127.52 684.011 1128.18 684.011 1128.87C684.297 1128.69 685.014 1128.24 686.161 1127.49C687.308 1126.69 688.513 1125.83 689.775 1124.91C691.094 1123.99 692.298 1123.16 693.388 1122.41C694.535 1121.67 695.195 1121.24 695.367 1121.12C696.571 1121.64 697.661 1122.24 698.636 1122.93C699.611 1123.56 700.472 1124.31 701.217 1125.17C702.02 1125.97 702.68 1126.92 703.196 1128.01C703.712 1129.04 704.142 1130.21 704.486 1131.53C704.831 1132.85 705.089 1134.31 705.261 1135.92C705.433 1137.47 705.519 1139.22 705.519 1141.17H694.335C694.335 1139.51 694.277 1138.07 694.162 1136.87C694.048 1135.66 693.818 1134.6 693.474 1133.68C693.13 1132.77 692.671 1131.96 692.098 1131.28C691.581 1130.59 690.922 1129.96 690.119 1129.38C690.004 1129.44 689.66 1129.67 689.086 1130.07C688.57 1130.41 687.968 1130.82 687.28 1131.28C686.649 1131.73 685.989 1132.19 685.301 1132.65C684.67 1133.05 684.24 1133.34 684.011 1133.51V1155.19C684.011 1156.34 684.039 1157.37 684.097 1158.29C684.154 1159.15 684.24 1159.98 684.355 1160.78C684.527 1161.53 684.727 1162.25 684.957 1162.94C685.186 1163.62 685.444 1164.31 685.731 1165H674.547C674.203 1164.31 673.916 1163.62 673.687 1162.94C673.515 1162.19 673.342 1161.44 673.17 1160.7C673.056 1159.9 672.97 1159.06 672.912 1158.2C672.855 1157.29 672.826 1156.28 672.826 1155.19V1133.51C672.826 1132.08 672.769 1130.76 672.654 1129.55C672.597 1128.29 672.482 1127.17 672.31 1126.2C672.138 1125.22 671.937 1124.39 671.708 1123.7C671.536 1122.96 671.335 1122.39 671.106 1121.98ZM720.505 1155.19C720.505 1156.28 720.534 1157.29 720.591 1158.2C720.649 1159.12 720.735 1159.98 720.849 1160.78C721.022 1161.53 721.222 1162.25 721.452 1162.94C721.681 1163.62 721.939 1164.31 722.226 1165H711.042C710.698 1164.31 710.411 1163.62 710.181 1162.94C710.009 1162.19 709.837 1161.44 709.665 1160.7C709.55 1159.9 709.464 1159.06 709.407 1158.2C709.35 1157.29 709.321 1156.28 709.321 1155.19V1133.51C709.321 1132.08 709.264 1130.76 709.149 1129.55C709.092 1128.35 708.977 1127.26 708.805 1126.29C708.633 1125.25 708.432 1124.39 708.203 1123.7C708.031 1122.96 707.83 1122.39 707.6 1121.98H718.785C719.129 1122.61 719.416 1123.3 719.645 1124.05C719.874 1124.79 720.046 1125.63 720.161 1126.54C720.276 1127.46 720.362 1128.49 720.419 1129.64C720.477 1130.79 720.505 1132.08 720.505 1133.51V1155.19ZM709.321 1110.54C709.321 1110.37 709.321 1109.74 709.321 1108.65C709.321 1107.56 709.321 1106.38 709.321 1105.12C709.321 1103.8 709.321 1102.6 709.321 1101.51C709.321 1100.42 709.321 1099.79 709.321 1099.62C709.493 1099.62 710.124 1099.62 711.214 1099.62C712.361 1099.62 713.565 1099.62 714.827 1099.62C716.146 1099.62 717.351 1099.62 718.441 1099.62C719.588 1099.62 720.247 1099.62 720.419 1099.62C720.419 1099.79 720.419 1100.42 720.419 1101.51C720.419 1102.6 720.419 1103.8 720.419 1105.12C720.419 1106.38 720.419 1107.56 720.419 1108.65C720.419 1109.74 720.419 1110.37 720.419 1110.54C720.247 1110.54 719.588 1110.54 718.441 1110.54C717.351 1110.54 716.146 1110.54 714.827 1110.54C713.565 1110.54 712.361 1110.54 711.214 1110.54C710.124 1110.54 709.493 1110.54 709.321 1110.54ZM739.777 1112V1155.19C739.777 1156.34 739.805 1157.37 739.863 1158.29C739.92 1159.15 740.006 1159.98 740.121 1160.78C740.293 1161.53 740.494 1162.25 740.723 1162.94C740.952 1163.62 741.211 1164.31 741.497 1165H730.313C729.969 1164.31 729.682 1163.62 729.453 1162.94C729.281 1162.19 729.109 1161.44 728.937 1160.7C728.822 1159.9 728.736 1159.06 728.678 1158.2C728.621 1157.29 728.592 1156.28 728.592 1155.19V1112C728.592 1110.57 728.535 1109.25 728.42 1108.05C728.363 1106.78 728.248 1105.67 728.076 1104.69C727.904 1103.72 727.703 1102.88 727.474 1102.2C727.302 1101.45 727.101 1100.88 726.872 1100.48H738.056C738.4 1101.11 738.687 1101.79 738.916 1102.54C739.146 1103.29 739.318 1104.12 739.433 1105.04C739.547 1105.95 739.633 1106.99 739.691 1108.13C739.748 1109.28 739.777 1110.57 739.777 1112ZM759.048 1112V1155.19C759.048 1156.34 759.077 1157.37 759.134 1158.29C759.191 1159.15 759.277 1159.98 759.392 1160.78C759.564 1161.53 759.765 1162.25 759.994 1162.94C760.224 1163.62 760.482 1164.31 760.769 1165H749.584C749.24 1164.31 748.954 1163.62 748.724 1162.94C748.552 1162.19 748.38 1161.44 748.208 1160.7C748.093 1159.9 748.007 1159.06 747.95 1158.2C747.892 1157.29 747.864 1156.28 747.864 1155.19V1112C747.864 1110.57 747.806 1109.25 747.692 1108.05C747.634 1106.78 747.52 1105.67 747.348 1104.69C747.175 1103.72 746.975 1102.88 746.745 1102.2C746.573 1101.45 746.373 1100.88 746.143 1100.48H757.327C757.672 1101.11 757.958 1101.79 758.188 1102.54C758.417 1103.29 758.589 1104.12 758.704 1105.04C758.819 1105.95 758.905 1106.99 758.962 1108.13C759.019 1109.28 759.048 1110.57 759.048 1112ZM778.319 1155.19C778.319 1156.28 778.348 1157.29 778.405 1158.2C778.463 1159.12 778.549 1159.98 778.664 1160.78C778.836 1161.53 779.036 1162.25 779.266 1162.94C779.495 1163.62 779.753 1164.31 780.04 1165H768.856C768.512 1164.31 768.225 1163.62 767.995 1162.94C767.823 1162.19 767.651 1161.44 767.479 1160.7C767.365 1159.9 767.279 1159.06 767.221 1158.2C767.164 1157.29 767.135 1156.28 767.135 1155.19V1133.51C767.135 1132.08 767.078 1130.76 766.963 1129.55C766.906 1128.35 766.791 1127.26 766.619 1126.29C766.447 1125.25 766.246 1124.39 766.017 1123.7C765.845 1122.96 765.644 1122.39 765.414 1121.98H776.599C776.943 1122.61 777.23 1123.3 777.459 1124.05C777.688 1124.79 777.861 1125.63 777.975 1126.54C778.09 1127.46 778.176 1128.49 778.233 1129.64C778.291 1130.79 778.319 1132.08 778.319 1133.51V1155.19ZM767.135 1110.54C767.135 1110.37 767.135 1109.74 767.135 1108.65C767.135 1107.56 767.135 1106.38 767.135 1105.12C767.135 1103.8 767.135 1102.6 767.135 1101.51C767.135 1100.42 767.135 1099.79 767.135 1099.62C767.307 1099.62 767.938 1099.62 769.028 1099.62C770.175 1099.62 771.379 1099.62 772.641 1099.62C773.96 1099.62 775.165 1099.62 776.255 1099.62C777.402 1099.62 778.061 1099.62 778.233 1099.62C778.233 1099.79 778.233 1100.42 778.233 1101.51C778.233 1102.6 778.233 1103.8 778.233 1105.12C778.233 1106.38 778.233 1107.56 778.233 1108.65C778.233 1109.74 778.233 1110.37 778.233 1110.54C778.061 1110.54 777.402 1110.54 776.255 1110.54C775.165 1110.54 773.96 1110.54 772.641 1110.54C771.379 1110.54 770.175 1110.54 769.028 1110.54C767.938 1110.54 767.307 1110.54 767.135 1110.54ZM823.831 1139.19H810.84C810.61 1138.04 810.18 1136.95 809.549 1135.92C808.976 1134.89 808.201 1133.91 807.226 1133C806.309 1132.02 805.162 1131.1 803.785 1130.24C802.466 1129.33 800.917 1128.46 799.139 1127.66C798.738 1128.35 798.365 1129.3 798.021 1130.5C797.677 1131.65 797.361 1132.88 797.075 1134.2C796.845 1135.52 796.644 1136.84 796.472 1138.16C796.358 1139.48 796.3 1140.68 796.3 1141.77C796.3 1143.84 796.501 1145.76 796.902 1147.54C797.361 1149.26 798.021 1150.8 798.881 1152.18C799.799 1153.56 800.946 1154.79 802.323 1155.88C803.756 1156.91 805.448 1157.83 807.399 1158.63C808.087 1157.77 808.66 1156.63 809.119 1155.19C809.635 1153.76 810.037 1152.32 810.324 1150.89C810.668 1149.4 810.926 1148.05 811.098 1146.85C811.27 1145.59 811.356 1144.75 811.356 1144.35H824.089C823.687 1146.3 822.999 1148.05 822.024 1149.6C821.049 1151.15 819.701 1152.73 817.981 1154.33C816.317 1155.88 814.252 1157.57 811.786 1159.41C809.377 1161.19 806.509 1163.34 803.183 1165.86C802.093 1165.52 800.975 1165.14 799.828 1164.74C798.738 1164.34 797.648 1163.88 796.558 1163.37C795.469 1162.85 794.379 1162.28 793.289 1161.64C792.257 1161.01 791.253 1160.33 790.278 1159.58C789.36 1158.83 788.5 1158.03 787.697 1157.17C786.894 1156.25 786.206 1155.28 785.632 1154.25C785.059 1153.21 784.6 1152.1 784.256 1150.89C783.969 1149.63 783.825 1148.31 783.825 1146.93C783.825 1146.88 783.825 1146.85 783.825 1146.85C783.825 1146.79 783.825 1146.76 783.825 1146.76C783.825 1144.47 784.141 1142.34 784.772 1140.39C785.403 1138.44 786.464 1136.49 787.955 1134.54C789.446 1132.54 791.425 1130.47 793.891 1128.35C796.415 1126.17 799.512 1123.76 803.183 1121.12C806.108 1121.87 808.804 1122.73 811.27 1123.7C813.794 1124.68 815.944 1125.88 817.722 1127.32C819.558 1128.75 820.992 1130.44 822.024 1132.39C823.114 1134.29 823.716 1136.55 823.831 1139.19Z" fill="white"/>
<path d="M491.013 968.917C493.766 968.917 496.175 969.576 498.24 970.895C500.305 972.215 501.997 974.193 503.316 976.832C504.635 979.47 505.61 982.797 506.241 986.811C506.929 990.769 507.273 995.415 507.273 1000.75C507.273 1006.14 506.958 1010.73 506.327 1014.51C505.696 1018.3 504.721 1021.43 503.402 1023.89C502.083 1026.3 500.42 1028.08 498.412 1029.23C496.405 1030.32 493.996 1030.86 491.185 1030.86C488.375 1030.86 485.966 1030.32 483.959 1029.23C482.008 1028.08 480.403 1026.3 479.141 1023.89C477.879 1021.43 476.933 1018.3 476.302 1014.51C475.728 1010.67 475.441 1006.08 475.441 1000.75C475.441 995.415 475.728 990.769 476.302 986.811C476.875 982.797 477.764 979.47 478.969 976.832C480.23 974.193 481.836 972.215 483.787 970.895C485.794 969.576 488.203 968.917 491.013 968.917ZM491.185 984.489C489.866 984.489 488.576 984.575 487.314 984.747C486.109 984.919 484.934 985.263 483.787 985.779C482.639 986.238 481.578 986.869 480.603 987.672C479.686 988.417 478.854 989.392 478.108 990.597C477.42 991.801 476.875 993.235 476.474 994.899C476.072 996.562 475.871 998.512 475.871 1000.75C475.871 1004.02 476.302 1006.63 477.162 1008.58C478.08 1010.47 479.255 1011.93 480.689 1012.97C482.123 1013.94 483.758 1014.57 485.593 1014.86C487.429 1015.14 489.321 1015.29 491.271 1015.29C492.533 1015.29 493.795 1015.23 495.057 1015.12C496.376 1015 497.609 1014.77 498.756 1014.43C499.903 1014.08 500.964 1013.6 501.939 1012.97C502.914 1012.28 503.775 1011.42 504.52 1010.38C505.266 1009.29 505.84 1007.98 506.241 1006.43C506.643 1004.82 506.843 1002.93 506.843 1000.75C506.843 997.422 506.384 994.698 505.467 992.576C504.606 990.454 503.431 988.79 501.939 987.586C500.448 986.381 498.756 985.578 496.864 985.177C495.028 984.718 493.135 984.489 491.185 984.489ZM524.755 980.875C522.346 980.875 520.453 981.305 519.077 982.166C517.7 983.026 516.639 984.087 515.894 985.349C515.205 986.553 514.746 987.815 514.517 989.134C514.345 990.454 514.23 991.572 514.173 992.49H513.657C513.657 989.048 514.001 985.894 514.689 983.026C515.435 980.101 516.553 977.606 518.044 975.541C519.536 973.419 521.428 971.784 523.723 970.637C526.017 969.49 528.712 968.917 531.81 968.917C533.416 968.917 534.907 969.117 536.283 969.519C537.717 969.92 538.95 970.551 539.983 971.412C541.015 972.215 541.818 973.276 542.392 974.595C542.965 975.857 543.223 977.377 543.166 979.155C543.166 981.105 542.707 982.825 541.789 984.317C540.929 985.75 539.782 987.041 538.348 988.188C536.972 989.278 535.394 990.253 533.616 991.113C531.838 991.973 530.032 992.748 528.196 993.436C530.204 993.493 532.269 993.866 534.391 994.554C536.513 995.185 538.434 996.103 540.155 997.308C541.876 998.512 543.281 1000 544.37 1001.78C545.46 1003.56 546.005 1005.57 546.005 1007.8C546.005 1009.18 545.804 1010.53 545.403 1011.85C545.001 1013.17 544.256 1014.54 543.166 1015.98C542.134 1017.35 540.642 1018.84 538.692 1020.45C536.8 1022.06 534.333 1023.81 531.293 1025.7L523.206 1030.86C522.461 1030.4 521.4 1029.77 520.023 1028.97C518.704 1028.16 517.327 1027.33 515.894 1026.47C514.46 1025.61 513.112 1024.84 511.85 1024.15C510.646 1023.4 509.785 1022.89 509.269 1022.6L516.926 1004.79C517.442 1006.97 518.417 1009.04 519.851 1010.99C521.342 1012.94 522.977 1014.69 524.755 1016.23C526.59 1017.73 528.426 1018.93 530.261 1019.85C532.096 1020.71 533.645 1021.14 534.907 1021.14C535.595 1021.14 536.197 1021.05 536.714 1020.88C537.287 1020.71 537.775 1020.45 538.176 1020.11C538.578 1019.7 538.864 1019.19 539.036 1018.56C539.266 1017.87 539.381 1017.04 539.381 1016.06C539.381 1013.31 538.492 1010.93 536.714 1008.92C534.936 1006.91 532.785 1005.25 530.261 1003.93C527.737 1002.56 525.099 1001.49 522.346 1000.75C519.65 1000 517.327 999.458 515.377 999.114C518.819 997.623 521.6 996.361 523.723 995.329C525.902 994.296 527.623 993.321 528.885 992.404C530.146 991.486 531.007 990.568 531.466 989.651C531.924 988.733 532.154 987.643 532.154 986.381C532.154 985.636 532.01 984.947 531.724 984.317C531.437 983.628 530.978 983.026 530.347 982.51C529.774 981.994 529.028 981.592 528.11 981.305C527.193 981.019 526.074 980.875 524.755 980.875ZM566.486 1017.53C567.002 1017.18 567.747 1016.69 568.722 1016.06C569.755 1015.43 570.759 1014.77 571.734 1014.08C572.766 1013.4 573.712 1012.79 574.573 1012.28C575.49 1011.7 576.093 1011.3 576.379 1011.07C576.379 1010.61 576.379 1009.98 576.379 1009.18C576.379 1008.32 576.379 1007.34 576.379 1006.25C576.379 1005.17 576.379 1003.99 576.379 1002.73C576.379 1001.47 576.379 1000.18 576.379 998.856C576.379 997.48 576.379 996.103 576.379 994.727C576.379 993.35 576.379 992.059 576.379 990.855C576.379 989.593 576.379 988.417 576.379 987.328C576.379 986.238 576.379 985.292 576.379 984.489L567.002 970.981L577.498 964.615L587.564 972.96C587.564 974.107 587.564 975.656 587.564 977.606C587.564 979.499 587.564 981.621 587.564 983.972C587.564 986.267 587.564 988.647 587.564 991.113C587.564 993.522 587.564 995.816 587.564 997.996C587.564 1000.12 587.564 1002.01 587.564 1003.67C587.564 1005.34 587.564 1006.54 587.564 1007.29C587.564 1007.63 587.564 1008.26 587.564 1009.18C587.564 1010.04 587.564 1011.02 587.564 1012.11C587.564 1013.14 587.564 1014.2 587.564 1015.29C587.564 1016.32 587.564 1017.15 587.564 1017.78C587.736 1018.07 587.994 1018.53 588.338 1019.16C588.682 1019.79 589.055 1020.45 589.456 1021.14C589.858 1021.83 590.231 1022.49 590.575 1023.12C590.919 1023.75 591.177 1024.21 591.349 1024.49L580.939 1030.86C580.48 1030.46 579.591 1029.68 578.272 1028.54C577.01 1027.33 575.634 1026.04 574.143 1024.67C572.651 1023.23 571.189 1021.86 569.755 1020.54C568.321 1019.22 567.231 1018.21 566.486 1017.53ZM607.781 1009.01C608.47 1009.87 609.445 1011.04 610.707 1012.54C611.968 1014.03 613.23 1015.58 614.492 1017.18C615.811 1018.73 617.044 1020.19 618.191 1021.57C619.338 1022.95 620.141 1023.92 620.6 1024.49L610.19 1030.86C609.617 1030.34 608.699 1029.51 607.437 1028.37C606.175 1027.16 604.799 1025.87 603.308 1024.49C601.816 1023.12 600.354 1021.8 598.92 1020.54C597.543 1019.22 596.482 1018.21 595.737 1017.53L597.888 1016.15C601.329 1013.91 604.168 1011.45 606.405 1008.75C608.699 1006 610.334 1003.22 611.309 1000.4C612.341 997.537 612.743 994.755 612.513 992.059C612.341 989.364 611.538 986.984 610.104 984.919C608.67 982.797 606.606 981.105 603.91 979.843C601.272 978.581 598.002 977.95 594.102 977.95L607.609 964.615C609.789 965.189 611.796 965.992 613.632 967.024C615.467 967.999 617.073 969.232 618.449 970.723C619.826 972.215 620.887 973.964 621.633 975.971C622.436 977.921 622.837 980.13 622.837 982.596C622.837 984.775 622.608 986.869 622.149 988.876C621.69 990.826 621.059 992.662 620.256 994.382C619.453 996.103 618.536 997.709 617.503 999.2C616.471 1000.63 615.381 1001.95 614.234 1003.16C613.144 1004.36 612.026 1005.45 610.879 1006.43C609.789 1007.4 608.756 1008.26 607.781 1009.01ZM592.812 958.335H594.102V1034.3H592.812V958.335ZM607.867 965.303L608.728 965.819V968.056L607.867 967.54V965.303ZM634.452 1009.01C635.14 1009.87 636.115 1011.04 637.377 1012.54C638.639 1014.03 639.9 1015.58 641.162 1017.18C642.481 1018.73 643.714 1020.19 644.862 1021.57C646.009 1022.95 646.812 1023.92 647.27 1024.49L636.861 1030.86C636.287 1030.34 635.369 1029.51 634.107 1028.37C632.846 1027.16 631.469 1025.87 629.978 1024.49C628.487 1023.12 627.024 1021.8 625.59 1020.54C624.214 1019.22 623.153 1018.21 622.407 1017.53L624.558 1016.15C628.401 1013.68 631.584 1011.04 634.107 1008.23C636.688 1005.37 638.61 1002.53 639.872 999.716C641.133 996.849 641.707 994.124 641.592 991.543C641.535 988.905 640.761 986.582 639.269 984.575C637.836 982.567 635.685 980.961 632.817 979.757C629.949 978.552 626.336 977.95 621.977 977.95L636 964.615C639.212 965.189 641.908 965.992 644.087 967.024C646.267 967.999 648.016 969.232 649.335 970.723C650.654 972.215 651.572 973.964 652.088 975.971C652.662 977.921 652.949 980.13 652.949 982.596C652.949 984.775 652.633 986.869 652.002 988.876C651.371 990.826 650.511 992.662 649.421 994.382C648.389 996.103 647.213 997.709 645.894 999.2C644.575 1000.63 643.227 1001.95 641.85 1003.16C640.474 1004.36 639.126 1005.45 637.807 1006.43C636.545 1007.4 635.427 1008.26 634.452 1009.01ZM636 965.303L636.861 965.819V968.056L636 967.54V965.303ZM621.805 958.335H623.095V1034.3H621.805V958.335ZM693.679 1008.49H693.335C694.195 1005.97 694.396 1003.96 693.937 1002.47C693.478 1000.98 692.647 999.86 691.442 999.114C690.295 998.311 688.947 997.795 687.399 997.566C685.85 997.336 684.388 997.221 683.011 997.221C681.004 997.221 679.168 997.451 677.505 997.91C675.899 998.311 674.494 998.942 673.289 999.802C672.142 1000.61 671.253 1001.64 670.622 1002.9C669.991 1004.16 669.676 1005.65 669.676 1007.37C669.676 1009.04 670.106 1010.44 670.967 1011.59C671.827 1012.68 672.917 1013.57 674.236 1014.26C675.555 1014.89 677.046 1015.35 678.709 1015.63C680.373 1015.92 682.007 1016.06 683.613 1016.06C685.219 1016.06 686.883 1015.95 688.603 1015.72C690.381 1015.49 692.073 1015.12 693.679 1014.6C695.342 1014.08 696.891 1013.4 698.325 1012.54C699.759 1011.67 700.935 1010.61 701.852 1009.35L693.249 1029.23C692.618 1029.57 691.959 1029.83 691.27 1030C690.582 1030.23 689.865 1030.4 689.119 1030.52C688.431 1030.63 687.743 1030.72 687.055 1030.77C686.366 1030.83 685.707 1030.86 685.076 1030.86C682.61 1030.86 680.746 1030.57 679.484 1030C678.279 1029.37 677.39 1028.57 676.817 1027.59C676.243 1026.56 675.899 1025.41 675.784 1024.15C675.67 1022.83 675.498 1021.51 675.268 1020.19C675.039 1018.82 674.609 1017.5 673.978 1016.23C673.404 1014.92 672.372 1013.77 670.88 1012.79C669.389 1011.76 667.324 1010.93 664.686 1010.3C662.048 1009.67 658.549 1009.35 654.19 1009.35C654.19 1006.54 654.764 1003.76 655.911 1001.01C657.115 998.254 658.865 995.788 661.159 993.608C663.453 991.371 666.263 989.565 669.59 988.188C672.917 986.811 676.731 986.123 681.032 986.123C684.99 986.123 688.23 986.668 690.754 987.758C693.335 988.848 695.17 990.396 696.26 992.404C697.407 994.354 697.78 996.705 697.379 999.458C696.977 1002.15 695.744 1005.17 693.679 1008.49ZM667.955 1007.89H697.637L696.862 1009.35H668.816L667.955 1007.89ZM713.872 986.123C716.281 986.123 718.231 986.668 719.722 987.758C721.214 988.848 722.504 990.052 723.594 991.371C724.684 992.69 725.716 993.895 726.691 994.985C727.666 996.074 728.842 996.619 730.218 996.619C731.595 996.619 733.287 995.874 735.294 994.382C737.302 992.834 739.911 990.109 743.123 986.209C742.607 987.471 741.861 989.364 740.886 991.887C739.969 994.411 738.965 997.078 737.875 999.888C736.843 1002.7 735.81 1005.45 734.778 1008.15C733.746 1010.84 732.914 1012.99 732.283 1014.6C731.48 1017.58 730.276 1020.11 728.67 1022.17C727.064 1024.24 725.2 1025.93 723.078 1027.25C720.955 1028.51 718.661 1029.43 716.195 1030C713.729 1030.57 711.262 1030.86 708.796 1030.86C706.445 1030.86 705.039 1030.54 704.58 1029.91C704.122 1029.28 704.208 1028.48 704.839 1027.51C705.469 1026.47 706.445 1025.33 707.764 1024.06C709.083 1022.74 710.345 1021.43 711.549 1020.11C712.754 1018.73 713.7 1017.41 714.388 1016.15C715.076 1014.83 715.105 1013.68 714.474 1012.71C713.901 1011.67 712.467 1010.87 710.173 1010.3C707.878 1009.67 704.351 1009.35 699.591 1009.35C699.591 1005.85 699.963 1002.67 700.709 999.802C701.512 996.935 702.573 994.497 703.892 992.49C705.211 990.482 706.731 988.934 708.452 987.844C710.173 986.697 711.979 986.123 713.872 986.123ZM723.938 995.673C722.561 995.673 721.328 995.931 720.238 996.447C719.149 996.906 718.202 997.652 717.399 998.684C716.654 999.716 716.08 1001.06 715.679 1002.73C715.277 1004.33 715.076 1006.25 715.076 1008.49C715.076 1010.73 715.277 1012.68 715.679 1014.34C716.08 1016.01 716.654 1017.38 717.399 1018.47C718.145 1019.56 719.034 1020.39 720.066 1020.97C721.156 1021.48 722.361 1021.74 723.68 1021.74C724.942 1021.74 726.089 1021.48 727.121 1020.97C728.211 1020.39 729.129 1019.56 729.874 1018.47C730.62 1017.32 731.193 1015.95 731.595 1014.34C732.054 1012.68 732.283 1010.73 732.283 1008.49C732.283 1006.2 732.054 1004.25 731.595 1002.64C731.193 1000.98 730.62 999.63 729.874 998.598C729.186 997.566 728.326 996.82 727.293 996.361C726.261 995.902 725.142 995.673 723.938 995.673ZM743.467 1011.07C743.984 1011.42 744.672 1011.9 745.532 1012.54C746.392 1013.11 747.281 1013.71 748.199 1014.34C749.174 1014.97 750.092 1015.6 750.952 1016.23C751.813 1016.81 752.472 1017.24 752.931 1017.53L743.037 1030.86C742.693 1030.63 741.976 1030.17 740.886 1029.48C739.854 1028.74 738.736 1027.96 737.531 1027.16C736.384 1026.36 735.294 1025.61 734.262 1024.92C733.287 1024.24 732.627 1023.78 732.283 1023.55L732.369 975.541C731.796 975.541 731.021 975.541 730.046 975.541C729.129 975.541 728.153 975.541 727.121 975.541C726.146 975.541 725.228 975.541 724.368 975.541C723.508 975.541 722.848 975.541 722.389 975.541L726.777 965.475C727.293 965.475 728.297 965.475 729.788 965.475C731.279 965.475 732.885 965.475 734.606 965.475C736.384 965.475 738.105 965.475 739.768 965.475C741.431 965.475 742.664 965.475 743.467 965.475V1011.07ZM771.782 1017.78C772.012 1018.18 772.298 1018.7 772.643 1019.33C772.987 1019.96 773.36 1020.62 773.761 1021.31C774.162 1022 774.535 1022.66 774.879 1023.29C775.224 1023.86 775.453 1024.26 775.568 1024.49L765.158 1030.86C764.584 1030.34 763.666 1029.51 762.405 1028.37C761.143 1027.16 759.766 1025.87 758.275 1024.49C756.784 1023.12 755.321 1021.8 753.887 1020.54C752.511 1019.22 751.45 1018.21 750.704 1017.53L760.598 1011.07V997.049C760.024 997.049 759.221 997.049 758.189 997.049C757.157 997.049 756.096 997.049 755.006 997.049C753.973 997.049 753.027 997.049 752.167 997.049C751.364 997.049 750.876 997.049 750.704 997.049L755.092 986.984C755.608 986.984 756.554 986.984 757.931 986.984C759.365 986.984 760.913 986.984 762.577 986.984C764.297 986.984 765.989 986.984 767.653 986.984C769.316 986.984 770.664 986.984 771.696 986.984L771.782 1017.78ZM764.211 982.682C764.097 981.822 763.695 980.904 763.007 979.929C762.319 978.896 761.487 977.95 760.512 977.09C759.594 976.172 758.619 975.398 757.587 974.767C756.554 974.079 755.608 973.648 754.748 973.476C755.608 973.304 756.554 972.903 757.587 972.272C758.619 971.641 759.594 970.924 760.512 970.121C761.487 969.261 762.319 968.343 763.007 967.368C763.695 966.393 764.097 965.475 764.211 964.615C764.326 965.475 764.67 966.393 765.244 967.368C765.875 968.343 766.649 969.261 767.567 970.121C768.484 970.924 769.431 971.641 770.406 972.272C771.438 972.903 772.384 973.304 773.245 973.476C772.384 973.648 771.438 974.079 770.406 974.767C769.373 975.398 768.398 976.172 767.481 977.09C766.62 977.95 765.875 978.896 765.244 979.929C764.613 980.904 764.269 981.822 764.211 982.682ZM784.996 986.123C785.799 986.123 786.946 986.181 788.438 986.295C789.929 986.353 791.391 986.639 792.825 987.156C794.317 987.614 795.578 988.331 796.611 989.306C797.701 990.281 798.245 991.629 798.245 993.35C798.245 994.784 797.901 996.132 797.213 997.394C796.525 998.655 795.75 999.975 794.89 1001.35C794.087 1002.73 793.342 1004.22 792.653 1005.82C791.965 1007.37 791.621 1009.09 791.621 1010.99C791.621 1012.13 791.736 1013.14 791.965 1014C792.252 1014.8 792.625 1015.46 793.083 1015.98C793.6 1016.49 794.202 1016.89 794.89 1017.18C795.578 1017.41 796.353 1017.53 797.213 1017.53C798.073 1017.53 798.934 1017.35 799.794 1017.01C800.712 1016.61 801.515 1015.83 802.203 1014.69C802.949 1013.54 803.551 1011.93 804.01 1009.87C804.468 1007.75 804.698 1004.96 804.698 1001.52V999.2C804.468 998.856 804.182 998.369 803.838 997.738C803.493 997.049 803.121 996.361 802.719 995.673C802.318 994.985 801.945 994.354 801.601 993.78C801.257 993.149 801.027 992.719 800.912 992.49L811.322 986.123C811.494 986.295 811.781 986.553 812.183 986.898C812.584 987.242 812.986 987.643 813.387 988.102C813.846 988.503 814.305 988.905 814.764 989.306C815.223 989.708 815.595 990.052 815.882 990.339V1011.07C816.456 1011.47 817.259 1012.02 818.291 1012.71C819.323 1013.34 820.356 1014 821.388 1014.69C822.478 1015.37 823.424 1016.01 824.227 1016.58C825.088 1017.1 825.604 1017.41 825.776 1017.53L815.796 1030.86C815.452 1030.63 814.792 1030.2 813.817 1029.57C812.9 1028.88 811.867 1028.16 810.72 1027.42C809.573 1026.67 808.455 1025.93 807.365 1025.18C806.333 1024.44 805.558 1023.89 805.042 1023.55V1005.82C804.87 1009.72 804.153 1013.22 802.891 1016.32C801.629 1019.42 799.937 1022.06 797.815 1024.24C795.693 1026.36 793.227 1027.99 790.416 1029.14C787.606 1030.29 784.566 1030.86 781.297 1030.86C780.437 1030.86 779.691 1030.8 779.06 1030.69C778.429 1030.63 777.913 1030.52 777.511 1030.34C777.11 1030.17 776.795 1029.97 776.565 1029.74C776.393 1029.51 776.307 1029.25 776.307 1028.97C776.307 1028.34 776.68 1027.56 777.425 1026.64C778.171 1025.73 779.089 1024.75 780.179 1023.72C781.268 1022.63 782.444 1021.51 783.706 1020.36C785.025 1019.16 786.229 1017.96 787.319 1016.75C788.409 1015.49 789.327 1014.26 790.072 1013.05C790.818 1011.85 791.191 1010.67 791.191 1009.52C791.191 1008.21 790.617 1007.23 789.47 1006.6C788.323 1005.91 786.918 1005.57 785.254 1005.57C783.591 1005.57 781.813 1005.91 779.92 1006.6C778.085 1007.23 776.45 1008.15 775.017 1009.35L784.996 986.123ZM864.993 1030.86C864.133 1030.86 862.929 1030.8 861.38 1030.69C859.832 1030.63 858.283 1030.37 856.734 1029.91C855.243 1029.4 853.924 1028.65 852.777 1027.68C851.63 1026.7 851.056 1025.35 851.056 1023.63C851.056 1022.2 851.4 1020.85 852.089 1019.59C852.777 1018.33 853.522 1017.01 854.325 1015.63C855.186 1014.26 855.96 1012.79 856.648 1011.24C857.337 1009.64 857.681 1007.89 857.681 1006C857.681 1004.85 857.537 1003.87 857.251 1003.07C857.021 1002.21 856.648 1001.52 856.132 1001.01C855.673 1000.49 855.1 1000.12 854.411 999.888C853.723 999.602 852.949 999.458 852.089 999.458C851.228 999.458 850.339 999.659 849.422 1000.06C848.561 1000.4 847.758 1001.15 847.013 1002.3C846.324 1003.44 845.751 1005.08 845.292 1007.2C844.833 1009.27 844.604 1012.02 844.604 1015.46V1017.78C844.833 1018.13 845.12 1018.64 845.464 1019.33C845.866 1019.96 846.238 1020.62 846.582 1021.31C846.984 1022 847.357 1022.66 847.701 1023.29C848.045 1023.86 848.274 1024.26 848.389 1024.49L837.979 1030.86C837.406 1030.34 836.459 1029.51 835.14 1028.37C833.878 1027.16 832.502 1025.87 831.01 1024.49C829.577 1023.12 828.143 1021.8 826.709 1020.54C825.332 1019.22 824.271 1018.21 823.526 1017.53L833.419 1011.07V997.049C832.846 997.049 832.043 997.049 831.01 997.049C829.978 997.049 828.917 997.049 827.827 997.049C826.795 997.049 825.849 997.049 824.988 997.049C824.185 997.049 823.698 997.049 823.526 997.049L827.913 986.984C828.372 986.984 829.319 986.984 830.752 986.984C832.244 986.984 833.85 986.984 835.57 986.984C837.291 986.984 838.954 986.984 840.56 986.984C842.223 986.984 843.457 986.984 844.26 986.984V1011.16C844.432 1007.26 845.149 1003.76 846.41 1000.66C847.672 997.566 849.364 994.956 851.486 992.834C853.608 990.654 856.075 988.991 858.885 987.844C861.696 986.697 864.735 986.123 868.005 986.123C868.865 986.123 869.611 986.181 870.241 986.295C870.872 986.353 871.389 986.467 871.79 986.639C872.192 986.811 872.478 987.012 872.65 987.242C872.88 987.471 872.995 987.729 872.995 988.016C872.995 988.647 872.622 989.421 871.876 990.339C871.13 991.257 870.213 992.26 869.123 993.35C868.033 994.382 866.829 995.501 865.51 996.705C864.248 997.852 863.072 999.057 861.982 1000.32C860.893 1001.52 859.975 1002.73 859.229 1003.93C858.484 1005.14 858.111 1006.31 858.111 1007.46C858.111 1008.78 858.656 1009.81 859.745 1010.56C860.835 1011.24 862.183 1011.65 863.789 1011.76C865.395 1011.88 867.144 1011.73 869.037 1011.33C870.93 1010.87 872.679 1010.21 874.285 1009.35L864.993 1030.86ZM895.363 988.016C895.363 988.647 894.99 989.421 894.245 990.339C893.499 991.257 892.581 992.26 891.492 993.35C890.402 994.382 889.197 995.501 887.878 996.705C886.616 997.852 885.441 999.057 884.351 1000.32C883.261 1001.52 882.343 1002.73 881.598 1003.93C880.852 1005.14 880.479 1006.31 880.479 1007.46C880.479 1009.18 881.139 1010.36 882.458 1010.99C883.835 1011.56 885.412 1011.82 887.19 1011.76C889.025 1011.65 890.832 1011.33 892.61 1010.81C894.445 1010.3 895.793 1009.81 896.654 1009.35L887.362 1030.86C886.502 1030.86 885.297 1030.8 883.749 1030.69C882.2 1030.63 880.651 1030.37 879.103 1029.91C877.612 1029.4 876.292 1028.65 875.145 1027.68C873.998 1026.7 873.425 1025.35 873.425 1023.63C873.425 1022.2 873.769 1020.85 874.457 1019.59C875.145 1018.33 875.891 1017.01 876.694 1015.63C877.554 1014.26 878.329 1012.79 879.017 1011.24C879.705 1009.64 880.049 1007.89 880.049 1006C880.049 1004.85 879.906 1003.87 879.619 1003.07C879.39 1002.21 879.017 1001.52 878.501 1001.01C878.042 1000.49 877.468 1000.12 876.78 999.888C876.092 999.602 875.317 999.458 874.457 999.458C872.794 999.458 871.446 999.917 870.414 1000.83C869.439 1001.75 868.664 1003.01 868.091 1004.62C867.517 1006.23 867.144 1008.12 866.972 1010.3C866.8 1012.48 866.714 1014.83 866.714 1017.35H865.854C865.854 1011.39 866.571 1006.4 868.005 1002.38C869.439 998.369 871.303 995.157 873.597 992.748C875.948 990.339 878.558 988.647 881.426 987.672C884.351 986.639 887.276 986.123 890.201 986.123C891.119 986.123 891.893 986.181 892.524 986.295C893.212 986.353 893.757 986.467 894.159 986.639C894.56 986.811 894.847 987.012 895.019 987.242C895.248 987.471 895.363 987.729 895.363 988.016Z" fill="white"/>
<path d="M499.1 833.917C499.502 834.146 500.133 834.576 500.993 835.207C501.853 835.781 502.8 836.412 503.832 837.1C504.865 837.788 505.897 838.505 506.929 839.251C508.019 839.939 508.908 840.513 509.596 840.971V885.02C508.048 885.766 506.126 886.683 503.832 887.773C501.595 888.806 499.358 889.867 497.122 890.956C494.885 892.046 492.82 893.05 490.927 893.968C489.035 894.828 487.687 895.459 486.884 895.86C486.482 895.574 485.851 895.143 484.991 894.57C484.131 893.939 483.156 893.251 482.066 892.505C481.033 891.759 480.001 891.014 478.969 890.268C477.936 889.523 477.047 888.892 476.302 888.375V844.843C477.793 844.097 479.686 843.18 481.98 842.09C484.274 841 486.54 839.939 488.776 838.907C491.071 837.817 493.164 836.813 495.057 835.895C496.95 834.978 498.297 834.318 499.1 833.917ZM487.916 839.337C487.916 840.426 487.916 842.004 487.916 844.069C487.916 846.133 487.916 848.485 487.916 851.123C487.916 853.704 487.916 856.486 487.916 859.468C487.916 862.451 487.916 865.376 487.916 868.244C487.916 871.112 487.916 873.865 487.916 876.503C487.916 879.084 487.916 881.321 487.916 883.213C488.604 883.672 489.436 884.275 490.411 885.02C491.386 885.708 492.361 886.397 493.336 887.085C494.369 887.773 495.286 888.433 496.089 889.064C496.95 889.637 497.58 890.067 497.982 890.354C497.982 889.207 497.982 887.601 497.982 885.536C497.982 883.414 497.982 881.063 497.982 878.482C497.982 875.843 497.982 873.062 497.982 870.136C497.982 867.154 497.982 864.229 497.982 861.361C497.982 858.436 497.982 855.683 497.982 853.102C497.982 850.464 497.982 848.198 497.982 846.305C497.351 845.847 496.548 845.273 495.573 844.585C494.598 843.896 493.594 843.208 492.562 842.52C491.587 841.832 490.669 841.201 489.809 840.627C488.948 840.054 488.318 839.623 487.916 839.337ZM523.904 839.165C523.904 840.14 523.904 841.43 523.904 843.036C523.961 844.585 523.99 846.162 523.99 847.768C523.99 849.317 523.99 850.722 523.99 851.984C523.99 853.245 523.99 854.077 523.99 854.479L511.687 844.929C512.892 844.355 514.555 843.552 516.677 842.52C518.857 841.488 521.094 840.426 523.388 839.337C525.682 838.247 527.862 837.215 529.926 836.24C532.048 835.207 533.654 834.433 534.744 833.917C535.203 834.203 535.863 834.662 536.723 835.293C537.641 835.924 538.587 836.584 539.562 837.272C540.594 837.96 541.569 838.648 542.487 839.337C543.405 839.968 544.122 840.455 544.638 840.799C544.638 841.258 544.638 842.004 544.638 843.036C544.638 844.011 544.638 845.072 544.638 846.219C544.638 847.309 544.638 848.37 544.638 849.403C544.638 850.435 544.638 851.181 544.638 851.639L533.54 856.887C533.999 857.174 534.773 857.719 535.863 858.522C537.01 859.268 538.186 860.071 539.39 860.931C540.652 861.791 541.856 862.623 543.003 863.426C544.15 864.172 544.982 864.745 545.498 865.147C545.384 867.097 545.24 869.047 545.068 870.997C544.953 872.89 544.896 874.725 544.896 876.503C544.896 878.281 545.011 879.973 545.24 881.579C545.47 883.127 545.928 884.533 546.617 885.794L524.678 895.86C523.99 894.943 523.015 893.681 521.753 892.075C520.491 890.412 519.201 888.72 517.882 886.999C516.563 885.278 515.329 883.672 514.182 882.181C513.035 880.69 512.232 879.657 511.773 879.084L521.581 874.266C522.155 874.954 523.158 876.13 524.592 877.793C526.026 879.457 527.489 881.177 528.98 882.955C530.529 884.733 531.934 886.368 533.196 887.859C534.515 889.351 535.346 890.297 535.691 890.698C534.888 888.978 534.314 887.286 533.97 885.622C533.626 883.902 533.425 882.21 533.368 880.546C533.31 878.826 533.31 877.134 533.368 875.471C533.425 873.807 533.454 872.173 533.454 870.567C532.937 870.223 532.106 869.649 530.959 868.846C529.812 868.043 528.607 867.211 527.345 866.351C526.084 865.433 524.908 864.602 523.818 863.856C522.728 863.11 522.011 862.623 521.667 862.394L533.454 856.801C533.454 855.884 533.454 854.851 533.454 853.704C533.454 852.557 533.454 851.439 533.454 850.349C533.454 849.259 533.454 848.313 533.454 847.51C533.454 846.65 533.454 846.076 533.454 845.789C533.11 845.502 532.536 845.101 531.733 844.585C530.93 844.011 530.041 843.409 529.066 842.778C528.091 842.09 527.145 841.43 526.227 840.799C525.309 840.111 524.535 839.566 523.904 839.165ZM597.853 853.532L610.586 847.51C614.257 849.575 617.153 851.582 619.276 853.532C621.455 855.482 623.09 857.375 624.179 859.21C625.269 860.988 625.957 862.709 626.244 864.372C626.531 866.036 626.674 867.613 626.674 869.104C626.674 872.087 625.9 874.84 624.351 877.363C622.803 879.887 620.681 882.238 617.985 884.418C615.347 886.54 612.25 888.548 608.693 890.44C605.137 892.333 601.295 894.14 597.165 895.86L598.456 893.279C602.241 891.96 605.281 890.641 607.575 889.322C609.927 887.945 611.733 886.511 612.995 885.02C614.314 883.472 615.175 881.837 615.576 880.116C616.035 878.338 616.264 876.388 616.264 874.266C616.264 873.463 616.092 872.316 615.748 870.825C615.461 869.276 614.687 867.556 613.425 865.663C612.221 863.77 610.385 861.763 607.919 859.64C605.51 857.518 602.155 855.482 597.853 853.532ZM598.456 836.498L579.442 845.359L578.926 843.38L607.747 829.615C608.55 830.189 609.296 830.848 609.984 831.594C610.672 832.339 611.303 833.114 611.877 833.917C612.508 834.72 613.052 835.58 613.511 836.498C613.97 837.415 614.4 838.362 614.802 839.337C615.203 840.254 615.547 841.229 615.834 842.262C616.121 843.237 616.379 844.212 616.609 845.187L606.026 850.263C605.797 849.403 605.539 848.542 605.252 847.682C604.965 846.822 604.65 845.99 604.306 845.187C603.962 844.327 603.589 843.495 603.187 842.692C602.786 841.889 602.327 841.115 601.811 840.369C601.352 839.623 600.836 838.935 600.262 838.304C599.689 837.616 599.086 837.014 598.456 836.498ZM607.231 890.268L597.165 895.86C595.903 895.172 594.584 894.541 593.208 893.968C591.831 893.337 590.368 892.763 588.82 892.247C587.271 891.673 585.665 891.157 584.002 890.698C582.396 890.24 580.704 889.809 578.926 889.408C577.148 889.006 575.341 888.634 573.506 888.289C571.671 887.945 569.807 887.63 567.914 887.343L580.991 881.063C582.884 881.349 585.034 881.751 587.443 882.267C589.852 882.783 592.261 883.443 594.67 884.246C597.136 884.992 599.459 885.881 601.639 886.913C603.876 887.888 605.74 889.006 607.231 890.268ZM596.305 823.679L598.456 822.732V899.216L596.305 900.162V823.679ZM585.895 831.766C586.124 831.594 586.382 831.422 586.669 831.25C587.013 831.02 587.329 830.791 587.615 830.561C587.96 830.332 588.246 830.131 588.476 829.959C588.763 829.73 588.963 829.615 589.078 829.615L590.024 831.078C588.132 832.397 586.87 833.974 586.239 835.809C585.665 837.587 585.465 839.537 585.637 841.66C585.866 843.782 586.325 846.019 587.013 848.37C587.701 850.722 588.39 853.131 589.078 855.597C589.766 858.006 590.311 860.415 590.713 862.824C591.114 865.233 591.114 867.556 590.713 869.792C590.311 871.972 589.365 874.037 587.874 875.987C586.382 877.879 584.088 879.571 580.991 881.063L567.914 887.343C571.871 885.45 574.797 883.472 576.689 881.407C578.639 879.285 579.872 877.105 580.389 874.868C580.962 872.574 581.02 870.251 580.561 867.9C580.159 865.548 579.614 863.168 578.926 860.759C578.238 858.293 577.607 855.826 577.033 853.36C576.46 850.894 576.259 848.456 576.431 846.047C576.661 843.581 577.464 841.172 578.84 838.821C580.274 836.412 582.626 834.06 585.895 831.766ZM646.734 834.949V885.192C647.136 885.479 647.709 885.881 648.455 886.397C649.2 886.913 649.975 887.458 650.778 888.031C651.581 888.548 652.298 889.064 652.928 889.58C653.617 890.039 654.104 890.354 654.391 890.526L642.519 895.86C641.945 895.516 640.999 894.914 639.679 894.054C638.418 893.136 637.041 892.19 635.55 891.215C634.059 890.182 632.596 889.207 631.162 888.289C629.786 887.314 628.696 886.569 627.893 886.053L635.55 882.267V840.283C635.091 839.939 634.46 839.509 633.657 838.993C632.854 838.419 632.051 837.845 631.248 837.272C630.445 836.698 629.728 836.211 629.097 835.809C628.466 835.351 628.065 835.064 627.893 834.949L639.938 829.615C640.167 829.787 640.568 830.103 641.142 830.561C641.716 831.02 642.346 831.536 643.035 832.11C643.723 832.626 644.411 833.142 645.1 833.659C645.788 834.175 646.333 834.605 646.734 834.949ZM677.673 890.526C676.87 890.928 675.895 891.415 674.748 891.989C673.601 892.505 672.454 893.05 671.307 893.623C670.217 894.14 669.213 894.599 668.295 895C667.435 895.459 666.833 895.746 666.489 895.86C666.087 895.516 665.428 895.029 664.51 894.398C663.592 893.767 662.617 893.107 661.585 892.419C660.61 891.673 659.635 890.956 658.66 890.268C657.742 889.58 656.996 889.035 656.423 888.634C656.423 887.945 656.423 886.425 656.423 884.074C656.423 881.665 656.423 879.027 656.423 876.159C656.423 873.291 656.423 870.509 656.423 867.814C656.423 865.118 656.423 863.11 656.423 861.791L667.607 856.457C667.607 858.465 667.607 860.874 667.607 863.684C667.607 866.494 667.607 869.276 667.607 872.029C667.607 874.725 667.607 877.134 667.607 879.256C667.607 881.378 667.607 882.697 667.607 883.213C668.123 883.558 668.84 884.074 669.758 884.762C670.733 885.45 671.393 885.938 671.737 886.225C671.966 886.397 672.339 886.655 672.855 886.999C673.371 887.343 673.916 887.745 674.49 888.203C675.121 888.605 675.723 889.006 676.297 889.408C676.87 889.809 677.329 890.125 677.673 890.354V890.526ZM667.607 856.457L678.791 851.123L688.857 858.092V885.192L696.514 890.526L684.47 895.86L677.673 890.526V863.512L667.607 856.543V856.457ZM729.261 860.931L718.076 866.351C717.445 865.663 716.7 864.831 715.839 863.856C715.036 862.881 714.233 861.906 713.43 860.931C712.627 859.956 711.882 859.067 711.194 858.264C710.505 857.461 710.018 856.887 709.731 856.543C709.731 857.289 709.731 858.379 709.731 859.813C709.731 861.189 709.731 862.652 709.731 864.2C709.731 865.749 709.731 867.24 709.731 868.674C709.731 870.108 709.731 871.198 709.731 871.943C709.731 872.459 709.731 873.262 709.731 874.352C709.731 875.385 709.731 876.474 709.731 877.621C709.731 878.768 709.731 879.858 709.731 880.891C709.731 881.923 709.731 882.697 709.731 883.213C710.534 883.328 711.853 883.529 713.689 883.816C715.524 884.045 717.445 884.332 719.453 884.676C721.518 884.963 723.468 885.25 725.303 885.536C727.138 885.766 728.458 885.938 729.261 886.053L721.776 895.86C721.03 895.631 719.596 895.201 717.474 894.57C715.352 893.882 713.058 893.165 710.591 892.419C708.182 891.616 705.831 890.87 703.537 890.182C701.242 889.494 699.579 888.978 698.547 888.634C698.547 888.404 698.547 888.089 698.547 887.687C698.547 887.228 698.547 886.741 698.547 886.225C698.547 885.708 698.547 885.164 698.547 884.59C698.547 883.959 698.547 883.328 698.547 882.697C698.547 882.066 698.547 881.435 698.547 880.805C698.547 880.116 698.547 879.457 698.547 878.826C698.547 878.195 698.547 877.593 698.547 877.019C698.547 876.446 698.547 875.929 698.547 875.471C698.547 874.266 698.547 873.004 698.547 871.685C698.547 870.309 698.547 868.989 698.547 867.728C698.547 866.408 698.547 865.233 698.547 864.2C698.547 863.11 698.547 862.308 698.547 861.791C699.522 861.332 701.013 860.644 703.02 859.727C705.028 858.751 707.15 857.719 709.387 856.629C711.681 855.54 713.889 854.507 716.011 853.532C718.134 852.5 719.768 851.697 720.915 851.123C721.317 851.582 721.862 852.242 722.55 853.102C723.296 853.905 724.07 854.794 724.873 855.769C725.676 856.744 726.479 857.69 727.282 858.608C728.085 859.526 728.744 860.3 729.261 860.931ZM746.725 834.949V885.192C747.126 885.479 747.7 885.881 748.445 886.397C749.191 886.913 749.965 887.458 750.768 888.031C751.571 888.548 752.288 889.064 752.919 889.58C753.607 890.039 754.095 890.354 754.381 890.526L742.509 895.86C741.935 895.516 740.989 894.914 739.67 894.054C738.408 893.136 737.031 892.19 735.54 891.215C734.049 890.182 732.586 889.207 731.153 888.289C729.776 887.314 728.686 886.569 727.883 886.053L735.54 882.267V840.283C735.081 839.939 734.45 839.509 733.648 838.993C732.845 838.419 732.042 837.845 731.239 837.272C730.436 836.698 729.719 836.211 729.088 835.809C728.457 835.351 728.055 835.064 727.883 834.949L739.928 829.615C740.215 829.844 740.674 830.217 741.304 830.733C741.993 831.25 742.71 831.795 743.455 832.368C744.201 832.942 744.889 833.486 745.52 834.003C746.151 834.462 746.552 834.777 746.725 834.949ZM752.145 857.92C751.571 858.149 750.711 858.522 749.564 859.038C748.416 859.554 747.212 860.099 745.95 860.673C744.688 861.189 743.455 861.705 742.251 862.221C741.104 862.738 740.243 863.139 739.67 863.426L738.982 861.017C739.555 860.73 740.387 860.357 741.476 859.899C742.624 859.382 743.914 858.809 745.348 858.178C746.782 857.49 748.273 856.801 749.822 856.113C751.428 855.425 752.948 854.765 754.381 854.134C755.873 853.446 757.221 852.844 758.425 852.328C759.629 851.811 760.576 851.41 761.264 851.123C761.895 851.984 762.698 853.159 763.673 854.651C764.648 856.084 765.623 857.518 766.598 858.952C767.573 860.386 768.462 861.705 769.265 862.91C770.068 864.057 770.613 864.831 770.9 865.233L760.404 869.792C760.117 869.391 759.601 868.674 758.855 867.642C758.11 866.552 757.307 865.376 756.446 864.114C755.586 862.852 754.754 861.648 753.951 860.501C753.148 859.354 752.546 858.493 752.145 857.92ZM749.392 874.61L760.49 869.706C760.949 870.28 761.58 871.169 762.382 872.373C763.185 873.578 764.103 874.926 765.136 876.417C766.168 877.908 767.229 879.457 768.319 881.063C769.409 882.669 770.412 884.16 771.33 885.536C772.305 886.913 773.108 888.089 773.739 889.064C774.427 890.039 774.857 890.641 775.029 890.87L763.759 895.86C763.644 895.688 763.271 895.143 762.641 894.226C762.01 893.251 761.235 892.104 760.318 890.784C759.4 889.408 758.396 887.917 757.307 886.311C756.217 884.705 755.156 883.156 754.123 881.665C753.091 880.116 752.145 878.711 751.284 877.449C750.424 876.187 749.793 875.241 749.392 874.61ZM791.621 834.949V885.192C792.022 885.479 792.596 885.881 793.342 886.397C794.087 886.913 794.861 887.458 795.664 888.031C796.467 888.548 797.184 889.064 797.815 889.58C798.504 890.039 798.991 890.354 799.278 890.526L787.405 895.86C786.832 895.516 785.885 894.914 784.566 894.054C783.304 893.136 781.928 892.19 780.437 891.215C778.945 890.182 777.483 889.207 776.049 888.289C774.672 887.314 773.583 886.569 772.78 886.053L780.437 882.267V840.283C779.978 839.939 779.347 839.509 778.544 838.993C777.741 838.419 776.938 837.845 776.135 837.272C775.332 836.698 774.615 836.211 773.984 835.809C773.353 835.351 772.952 835.064 772.78 834.949L784.824 829.615C785.054 829.787 785.455 830.103 786.029 830.561C786.602 831.02 787.233 831.536 787.921 832.11C788.61 832.626 789.298 833.142 789.986 833.659C790.675 834.175 791.219 834.605 791.621 834.949ZM835.723 868.244L824.022 872.459C823.219 871.37 822.244 870.05 821.097 868.502C819.95 866.896 818.803 865.319 817.656 863.77C816.509 862.164 815.448 860.702 814.473 859.382C813.555 858.006 812.895 857.059 812.494 856.543C812.494 857.346 812.494 858.493 812.494 859.985C812.494 861.418 812.494 862.91 812.494 864.458C812.494 866.007 812.494 867.469 812.494 868.846C812.494 870.223 812.494 871.255 812.494 871.943C812.494 872.459 812.494 873.262 812.494 874.352C812.494 875.385 812.494 876.474 812.494 877.621C812.494 878.768 812.494 879.858 812.494 880.891C812.494 881.923 812.494 882.697 812.494 883.213C813.354 883.328 814.788 883.529 816.796 883.816C818.803 884.045 820.925 884.332 823.162 884.676C825.399 884.963 827.492 885.25 829.442 885.536C831.45 885.766 832.884 885.938 833.744 886.053L826.259 895.86C825.227 895.574 823.506 895.086 821.097 894.398C818.688 893.71 816.165 892.993 813.526 892.247C810.888 891.444 808.422 890.727 806.128 890.096C803.833 889.408 802.227 888.92 801.31 888.634C801.31 888.117 801.31 887.429 801.31 886.569C801.31 885.708 801.31 884.762 801.31 883.73C801.31 882.64 801.31 881.493 801.31 880.288C801.31 879.027 801.31 877.736 801.31 876.417C801.31 875.098 801.31 873.779 801.31 872.459C801.31 871.14 801.31 869.85 801.31 868.588C801.31 867.326 801.31 866.122 801.31 864.975C801.31 863.77 801.31 862.709 801.31 861.791C802.113 861.39 803.489 860.73 805.439 859.813C807.447 858.895 809.598 857.891 811.892 856.801C814.186 855.654 816.423 854.565 818.602 853.532C820.782 852.5 822.474 851.697 823.678 851.123C824.366 852.098 825.255 853.36 826.345 854.909C827.435 856.457 828.553 858.063 829.701 859.727C830.848 861.332 831.966 862.91 833.056 864.458C834.146 866.007 835.035 867.269 835.723 868.244ZM809.397 876.847L832.712 866.179L835.723 868.244L810.257 879.858L809.397 876.847ZM842.688 840.283L853.872 835.035V851.984H869.272L865.573 860.759L858.604 859.899L853.872 859.296V883.213C854.159 883.271 854.962 883.472 856.281 883.816C857.6 884.103 859.063 884.447 860.669 884.848C862.332 885.25 863.967 885.651 865.573 886.053C867.236 886.454 868.527 886.77 869.444 886.999C869.043 887.4 868.412 888.003 867.552 888.806C866.691 889.551 865.774 890.354 864.799 891.215C863.824 892.075 862.848 892.935 861.873 893.796C860.956 894.656 860.21 895.344 859.637 895.86L835.031 886.053C835.261 885.938 835.719 885.708 836.408 885.364C837.096 885.02 837.813 884.676 838.559 884.332C839.362 883.93 840.136 883.558 840.881 883.213C841.684 882.812 842.287 882.497 842.688 882.267V858.178L834.343 857.146L842.688 851.984V840.283ZM875.57 840.283L886.754 835.035V851.984H902.154L898.455 860.759L891.486 859.899L886.754 859.296V883.213C887.041 883.271 887.844 883.472 889.163 883.816C890.483 884.103 891.945 884.447 893.551 884.848C895.214 885.25 896.849 885.651 898.455 886.053C900.118 886.454 901.409 886.77 902.326 886.999C901.925 887.4 901.294 888.003 900.434 888.806C899.573 889.551 898.656 890.354 897.681 891.215C896.706 892.075 895.731 892.935 894.755 893.796C893.838 894.656 893.092 895.344 892.519 895.86L867.913 886.053C868.143 885.938 868.602 885.708 869.29 885.364C869.978 885.02 870.695 884.676 871.441 884.332C872.244 883.93 873.018 883.558 873.763 883.213C874.566 882.812 875.169 882.497 875.57 882.267V858.178L867.225 857.146L875.57 851.984V840.283ZM938.822 868.244L927.121 872.459C926.318 871.37 925.343 870.05 924.196 868.502C923.049 866.896 921.902 865.319 920.755 863.77C919.608 862.164 918.547 860.702 917.572 859.382C916.654 858.006 915.994 857.059 915.593 856.543C915.593 857.346 915.593 858.493 915.593 859.985C915.593 861.418 915.593 862.91 915.593 864.458C915.593 866.007 915.593 867.469 915.593 868.846C915.593 870.223 915.593 871.255 915.593 871.943C915.593 872.459 915.593 873.262 915.593 874.352C915.593 875.385 915.593 876.474 915.593 877.621C915.593 878.768 915.593 879.858 915.593 880.891C915.593 881.923 915.593 882.697 915.593 883.213C916.453 883.328 917.887 883.529 919.895 883.816C921.902 884.045 924.024 884.332 926.261 884.676C928.498 884.963 930.591 885.25 932.541 885.536C934.549 885.766 935.983 885.938 936.843 886.053L929.358 895.86C928.326 895.574 926.605 895.086 924.196 894.398C921.787 893.71 919.264 892.993 916.625 892.247C913.987 891.444 911.521 890.727 909.227 890.096C906.932 889.408 905.326 888.92 904.409 888.634C904.409 888.117 904.409 887.429 904.409 886.569C904.409 885.708 904.409 884.762 904.409 883.73C904.409 882.64 904.409 881.493 904.409 880.288C904.409 879.027 904.409 877.736 904.409 876.417C904.409 875.098 904.409 873.779 904.409 872.459C904.409 871.14 904.409 869.85 904.409 868.588C904.409 867.326 904.409 866.122 904.409 864.975C904.409 863.77 904.409 862.709 904.409 861.791C905.212 861.39 906.588 860.73 908.538 859.813C910.546 858.895 912.697 857.891 914.991 856.801C917.285 855.654 919.522 854.565 921.701 853.532C923.881 852.5 925.573 851.697 926.777 851.123C927.465 852.098 928.354 853.36 929.444 854.909C930.534 856.457 931.652 858.063 932.8 859.727C933.947 861.332 935.065 862.91 936.155 864.458C937.245 866.007 938.134 867.269 938.822 868.244ZM912.496 876.847L935.811 866.179L938.822 868.244L913.356 879.858L912.496 876.847ZM939.163 856.457L950.347 851.123C950.576 851.295 951.035 851.611 951.723 852.07C952.412 852.528 953.157 853.045 953.96 853.618C954.763 854.192 955.538 854.737 956.283 855.253C957.086 855.769 957.66 856.17 958.004 856.457C958.52 856.228 959.323 855.855 960.413 855.339C961.502 854.765 962.621 854.22 963.768 853.704C964.972 853.131 966.091 852.614 967.123 852.156C968.156 851.639 968.844 851.295 969.188 851.123C969.417 851.353 969.762 851.725 970.22 852.242C970.679 852.7 971.195 853.245 971.769 853.876C972.343 854.45 972.945 855.081 973.576 855.769C974.207 856.457 974.809 857.117 975.382 857.748C976.013 858.379 976.587 858.981 977.103 859.554C977.619 860.128 978.049 860.587 978.394 860.931L967.295 866.523C967.123 866.294 966.808 865.978 966.349 865.577C965.947 865.118 965.517 864.659 965.058 864.2C964.6 863.684 964.169 863.225 963.768 862.824C963.367 862.365 963.08 862.021 962.908 861.791C962.793 861.677 962.535 861.447 962.133 861.103C961.789 860.702 961.359 860.243 960.843 859.727C960.384 859.153 959.897 858.608 959.38 858.092C958.864 857.518 958.405 857.002 958.004 856.543V883.213C958.864 883.443 960.04 883.758 961.531 884.16C963.08 884.504 964.628 884.877 966.177 885.278C967.783 885.622 969.274 885.967 970.651 886.311C972.027 886.655 973.002 886.884 973.576 886.999L963.768 895.86C962.85 895.516 961.273 894.914 959.036 894.054C956.857 893.136 954.505 892.19 951.981 891.215C949.515 890.182 947.078 889.207 944.669 888.289C942.317 887.314 940.482 886.569 939.163 886.053L946.82 882.267V861.791C946.361 861.447 945.73 861.017 944.927 860.501C944.124 859.927 943.321 859.354 942.518 858.78C941.715 858.207 940.998 857.719 940.367 857.318C939.736 856.859 939.335 856.572 939.163 856.457Z" fill="white"/>
<path d="M499.531 1576.86C485.937 1576.86 476.302 1566.11 476.302 1546.75C476.302 1527.05 485.937 1515.78 499.531 1515.78C513.382 1515.78 522.759 1527.05 522.759 1546.75C522.759 1566.11 513.382 1576.86 499.531 1576.86ZM499.531 1571.27C508.822 1571.27 513.726 1563.1 513.726 1546.75C513.726 1530.14 508.822 1521.37 499.531 1521.37C490.325 1521.37 485.335 1530.14 485.335 1546.75C485.335 1563.1 490.325 1571.27 499.531 1571.27ZM553.185 1554.06C564.713 1544.51 565.401 1539.01 565.401 1534.45C565.401 1525.58 561.1 1520.94 552.841 1520.94C544.151 1520.94 539.42 1526.1 539.42 1534.62C539.42 1540.98 542.689 1546.49 551.206 1551.22H538.817C531.849 1547.44 530.386 1540.55 530.386 1534.96C530.386 1522.4 540.366 1515.78 552.841 1515.78C567.294 1515.78 574.435 1522.32 574.435 1532.9C574.435 1538.66 572.886 1544.34 557.831 1557.16L543.291 1569.55H575.295V1576H533.397V1570.49L553.185 1554.06ZM603.49 1576V1516.64H624.224C639.107 1516.64 645.13 1524.21 645.13 1533.59C645.13 1543.48 639.193 1550.53 624.224 1550.53H623.277L632.913 1561.98C639.538 1569.89 641.258 1570.92 644.269 1570.92C646.85 1570.92 648.141 1569.55 648.141 1566.88C648.141 1565.33 647.883 1563.18 646.162 1560.6H654.765C655.97 1562.58 656.572 1565.07 656.572 1567.14C656.572 1572.82 652.529 1576.86 644.528 1576.86C637.817 1576.86 634.29 1574.88 626.977 1566.19L612.093 1548.56V1576H603.49ZM622.503 1544.51C632.827 1544.51 636.526 1540.47 636.526 1533.59C636.526 1527.22 632.569 1522.66 622.503 1522.66H612.093V1544.51H622.503ZM699.687 1556.13C703.559 1570.32 692.633 1576.86 681.018 1576.86C667.081 1576.86 658.22 1568.08 658.22 1554.06C658.22 1540.38 666.995 1530.4 680.158 1530.4C690.998 1530.4 700.806 1536.08 700.806 1551.82V1553.37H666.823V1554.06C666.823 1564.73 671.383 1571.96 681.62 1571.96C688.245 1571.96 695.042 1568.17 691.084 1556.13H699.687ZM680.416 1535.31C672.759 1535.31 668.371 1539.61 667.167 1548.64H692.375C691.428 1538.58 686.266 1535.31 680.416 1535.31ZM725.25 1561.2C722.583 1561.2 720.088 1560.77 717.851 1560.08C716.905 1561.2 716.302 1562.49 716.302 1564.73C716.302 1567.14 716.991 1568.6 717.937 1569.72H728.777C742.543 1569.72 747.532 1576.43 747.532 1583.4C747.532 1592.6 740.048 1599.23 726.11 1599.23C712.947 1599.23 705.376 1593.55 705.376 1585.64C705.376 1580.22 708.215 1576.6 712.689 1574.54C710.71 1572.39 709.936 1569.72 709.936 1567.05C709.936 1563.35 711.571 1560.51 713.98 1558.28C709.506 1555.44 706.839 1550.96 706.839 1545.46C706.839 1536.68 714.41 1530.4 725.25 1530.4C729.379 1530.4 732.993 1531.35 735.918 1532.98C739.875 1529.97 744.349 1528.94 749.081 1528.94V1535.99H739.789C742.112 1538.49 743.403 1541.76 743.403 1545.46C743.403 1554.66 735.918 1561.2 725.25 1561.2ZM725.25 1556.9C731.874 1556.9 735.402 1552.25 735.402 1545.46C735.402 1539.18 731.874 1534.7 725.25 1534.7C718.453 1534.7 714.84 1539.18 714.84 1545.46C714.84 1552.25 718.453 1556.9 725.25 1556.9ZM726.282 1594.07C734.197 1594.07 739.789 1591.06 739.789 1584.6C739.789 1579.87 735.746 1576 727.917 1576H724.476C716.733 1576 712.689 1579.27 712.689 1584.6C712.689 1590.37 717.163 1594.07 726.282 1594.07ZM790.34 1531.26V1576H782.167V1570.58C778.983 1573.07 772.789 1576.86 766.337 1576.86C756.529 1576.86 753.346 1571.35 753.346 1561.98V1531.26H761.519V1559.31C761.519 1567.57 763.325 1570.41 770.122 1570.41C775.026 1570.41 779.5 1567.83 782.167 1565.68V1531.26H790.34ZM799.26 1576V1510.62H807.433V1576H799.26ZM816.519 1552.51C815.229 1550.1 815.057 1547.78 815.057 1545.72C815.057 1536.17 822.886 1530.4 834.5 1530.4C846.115 1530.4 853.858 1535.22 853.858 1548.56V1576H845.685V1570.15C842.157 1573.59 836.737 1576.86 830.113 1576.86C823.144 1576.86 816.433 1574.02 816.433 1565.68C816.433 1554.06 827.532 1552.77 838.028 1550.96L845.685 1549.67V1547.7C845.685 1538.92 841.899 1535.31 834.156 1535.31C827.618 1535.31 823.402 1538.92 823.402 1546.06C823.402 1548.13 824.004 1550.36 825.123 1552.51H816.519ZM825.037 1564.9C825.037 1569.38 828.478 1571.1 832.091 1571.1C837.942 1571.1 842.845 1567.83 845.685 1565.16V1554.23L837.856 1555.44C828.392 1556.9 825.037 1559.83 825.037 1564.9ZM862.336 1576V1531.26H870.509V1536.94C874.467 1532.9 878.768 1530.4 884.36 1530.4C891.673 1530.4 897.179 1536.86 891.587 1551.05H882.984C887.285 1541.5 885.737 1536.42 880.059 1536.42C876.875 1536.42 873.864 1538.06 870.509 1541.93V1576H862.336Z" fill="white"/>
<path d="M477.162 1675.89C477.162 1656.45 485.249 1644.49 501.681 1644.49C518.114 1644.49 526.201 1656.45 526.201 1675.89C526.201 1695.33 518.114 1707.29 501.681 1707.29C485.249 1707.29 477.162 1695.33 477.162 1675.89ZM489.207 1675.89C489.207 1688.79 492.734 1696.11 501.681 1696.11C510.629 1696.11 514.242 1688.79 514.242 1675.89C514.242 1662.98 510.629 1655.67 501.681 1655.67C492.734 1655.67 489.207 1662.98 489.207 1675.89ZM550.433 1645.78H563.338V1706H550.433V1645.78ZM537.528 1645.78H550.433L541.228 1663.16H528.323L537.528 1645.78ZM615.844 1656.1H607.069V1706H594.164V1645.78H615.758C629.179 1645.78 641.138 1650.85 641.138 1665.56C641.138 1676.15 635.288 1681.31 627.373 1683.37L642.17 1706H627.545L607.069 1674.86H616.274C624.362 1674.86 628.577 1671.41 628.577 1665.56C628.577 1659.28 624.189 1656.1 615.844 1656.1ZM691.454 1682.6C691.454 1699.12 680.958 1707.29 668.828 1707.29C657.644 1707.29 646.631 1699.12 646.631 1683.63C646.631 1668.58 657.644 1660.4 668.828 1660.4C681.303 1660.4 691.454 1668.92 691.454 1682.6H658.418C658.504 1691.8 666.161 1695.76 674.764 1695.76C683.625 1695.76 691.454 1691.98 691.454 1682.6ZM658.418 1682.51V1682.6L677.087 1676.75C677.087 1673.82 674.42 1671.5 669.086 1671.5C662.461 1671.5 658.418 1675.37 658.418 1682.51ZM696.919 1676.92C696.919 1667.11 704.318 1660.4 713.523 1660.4C719.546 1660.4 724.621 1663.24 727.461 1667.8L734.773 1660.4V1670.73H729.009C729.697 1672.62 730.128 1674.68 730.128 1676.92C730.128 1680.71 729.009 1684.06 727.116 1686.81C732.278 1690.77 736.408 1697.14 736.408 1704.88C736.408 1718.3 726.514 1727.94 713.523 1727.94C709.566 1727.94 704.92 1726.91 701.737 1725.1V1688.97C698.726 1686.04 696.919 1681.82 696.919 1676.92ZM707.759 1677.01C707.759 1680.36 710.082 1682.86 713.523 1682.86C716.878 1682.86 719.201 1680.36 719.201 1677.01C719.201 1673.57 716.878 1671.24 713.523 1671.24C710.082 1671.24 707.759 1673.57 707.759 1677.01ZM724.363 1704.88C724.363 1698.26 720.148 1693.87 713.781 1693.78H713.523H713.351C706.985 1693.87 701.737 1698.26 701.737 1704.88C701.737 1711.59 707.071 1716.41 713.523 1716.41C719.976 1716.41 724.363 1711.59 724.363 1704.88ZM784.16 1706H771.685V1684.92C771.513 1698.26 766.437 1707.29 756.543 1707.29C746.133 1707.29 742.864 1697.74 742.864 1688.79V1661.69H755.339V1683.8C755.339 1690.69 757.575 1695.59 763.598 1695.59C769.362 1695.59 771.513 1691.2 771.685 1684.66V1661.69H784.16V1706ZM795.678 1641.48H808.153V1706H795.678V1641.48ZM818.966 1676.15C819.912 1666.77 825.763 1660.4 839.356 1660.4C855.014 1660.4 858.541 1668.92 858.541 1678.81V1706H846.066V1685.61C846.066 1685.7 846.066 1685.78 846.066 1685.87C845.894 1702.9 837.893 1707.29 830.322 1707.29C820.945 1707.29 817.934 1701.53 817.934 1695.85C817.934 1678.13 846.066 1682.51 846.066 1675.11C846.066 1672.02 843.485 1669.87 838.753 1669.87C832.645 1669.87 830.58 1673.48 830.58 1676.15H818.966ZM846.066 1685.61C841.42 1690 830.494 1688.36 830.494 1694.99C830.494 1696.79 831.613 1699.2 835.57 1699.2C843.141 1699.2 845.98 1692.66 846.066 1685.87V1685.61ZM869.171 1661.69H900.573V1672.02H881.646V1706H869.171V1661.69Z" fill="white"/>
</svg>
