<svg width="1797" height="655" viewBox="0 0 1797 655" fill="none" xmlns="http://www.w3.org/2000/svg">
<path d="M478.7 301.261C477.02 301.261 475.76 300.701 474.92 299.581C474.08 298.461 473.66 297.341 473.66 296.221C473.66 295.101 474.08 293.981 474.92 292.861C476.04 291.461 477.44 290.621 479.12 290.341C485.56 288.101 490.04 286.281 492.56 284.881C495.08 283.201 496.34 279.701 496.34 274.381V149.221C496.34 143.621 495.08 139.841 492.56 137.881C490.32 135.641 485.56 133.541 478.28 131.581C476.04 131.021 474.5 130.181 473.66 129.061C472.82 127.941 472.4 126.961 472.4 126.121C472.4 124.721 472.82 123.601 473.66 122.761C474.78 121.641 476.18 121.081 477.86 121.081C485.14 121.081 491.3 121.361 496.34 121.921C501.38 122.201 506.14 122.621 510.62 123.181C515.38 123.741 520.56 124.021 526.16 124.021C531.48 124.021 536.24 123.741 540.44 123.181C544.64 122.621 549.26 122.061 554.3 121.501C559.62 120.941 566.34 120.661 574.46 120.661C601.9 120.661 621.5 124.581 633.26 132.421C645.3 140.261 651.32 149.921 651.32 161.401C651.32 170.921 647.68 179.601 640.4 187.441C633.4 195.001 624.16 199.481 612.68 200.881C612.12 200.881 611.7 201.301 611.42 202.141C611.14 202.981 611.56 203.541 612.68 203.821C621.64 205.221 629.9 207.461 637.46 210.541C645.02 213.621 651.04 218.101 655.52 223.981C660 229.581 662.24 237.281 662.24 247.081C662.24 257.721 659.16 267.101 653 275.221C647.12 283.341 637.74 289.781 624.86 294.541C611.98 299.021 595.04 301.261 574.04 301.261C564.52 301.261 556.26 300.981 549.26 300.421C542.26 300.141 534.28 300.001 525.32 300.001C521.4 300.001 516.5 300.001 510.62 300.001C504.74 300.281 498.86 300.561 492.98 300.841C487.1 301.121 482.34 301.261 478.7 301.261ZM574.04 282.361C581.32 282.361 587.2 279.001 591.68 272.281C596.44 265.281 598.82 257.441 598.82 248.761C598.82 238.681 596.16 230.701 590.84 224.821C585.52 218.661 578.1 215.581 568.58 215.581C565.78 215.581 563.26 216.001 561.02 216.841C558.78 217.681 557.66 219.921 557.66 223.561V260.941C557.66 267.381 559.06 272.561 561.86 276.481C564.94 280.401 569 282.361 574.04 282.361ZM567.32 200.041C577.12 200.041 584.12 197.101 588.32 191.221C592.52 185.061 594.62 177.641 594.62 168.961C594.62 157.481 592.24 149.641 587.48 145.441C583 140.961 577.26 138.721 570.26 138.721C565.78 138.721 562.56 139.561 560.6 141.241C558.64 142.921 557.66 145.721 557.66 149.641V190.801C557.66 193.321 558.36 195.561 559.76 197.521C561.16 199.201 563.68 200.041 567.32 200.041Z" fill="white"/>
<path d="M230.469 195.641L108.689 188.324L52.4418 330.807L8.92026 328.192L0.859375 462.35L45.5787 465.037L50.9527 375.598L218.65 385.674L213.276 475.113L257.996 477.8L266.057 343.642L221.736 340.979L230.469 195.641ZM99.5568 333.637L138.343 234.986L183.063 237.673L177.017 338.292L99.5568 333.637Z" fill="white"/>
<path d="M410.779 535.496C400.204 539.754 389.586 541.227 378.924 539.915C368.373 538.343 358.874 534.298 350.428 527.782C341.983 521.265 335.556 512.533 331.148 501.588C327.861 493.425 326.262 484.905 326.353 476.029C326.444 467.152 328.132 458.495 331.418 450.056C334.703 441.618 339.44 434.105 345.627 427.517C351.739 420.743 359.155 415.601 367.874 412.09C378.82 407.682 389.829 406.375 400.9 408.169C411.897 409.777 421.711 413.802 430.343 420.244C438.974 426.687 445.344 435.009 449.453 445.213C453.936 456.344 455.745 467.798 454.881 479.573C454.018 491.348 449.995 502.239 442.813 512.246C435.742 521.993 425.064 529.743 410.779 535.496ZM412.701 523.402C418.081 521.236 422.493 518.273 425.939 514.514C429.309 510.569 431.304 505.885 431.922 500.461C432.43 495.298 431.823 489.506 430.099 483.085C428.487 476.403 426.373 469.816 423.758 463.323C420.022 454.047 415.027 445.925 408.771 438.957C402.516 431.99 395.782 427.047 388.57 424.13C381.358 421.213 374.227 421.174 367.178 424.013C362.911 425.731 359.314 428.042 356.386 430.946C353.57 433.589 351.443 437.141 350.005 441.601C348.198 447.288 348.12 453.787 349.772 461.1C351.348 468.227 353.743 475.779 356.955 483.756C360.541 492.661 365.462 500.598 371.718 507.565C377.973 514.533 384.652 519.605 391.753 522.783C399.039 525.886 406.022 526.092 412.701 523.402Z" fill="white"/>
<path d="M1796.8 21.982L1755.2 0.0195312L1629.11 238.838L1670.71 260.8L1796.8 21.982ZM1635.99 276.189C1618.9 267.169 1597.34 273.831 1588.32 290.916C1579.1 308.372 1585.96 329.566 1603.04 338.587C1620.5 347.803 1641.5 341.316 1650.72 323.86C1659.74 306.775 1653.44 285.406 1635.99 276.189Z" fill="white"/>
<path d="M722.6 334.001C715.934 334.001 709.867 332.334 704.4 329.001C699.067 325.534 694.8 320.868 691.6 315.001C688.534 309.001 687 302.334 687 295.001C687 286.334 688.867 278.468 692.6 271.401C696.467 264.334 701.6 258.734 708 254.601C714.4 250.334 721.467 248.201 729.2 248.201C737.867 248.201 745.467 250.534 752 255.201C753.6 256.401 754.4 257.668 754.4 259.001C754.4 260.068 753.934 261.268 753 262.601C752.067 263.934 750.934 265.068 749.6 266.001C748.267 266.801 747 267.201 745.8 267.201C745.134 267.201 744.467 267.001 743.8 266.601C743.134 266.068 742.4 265.534 741.6 265.001C738.667 262.734 735.4 260.601 731.8 258.601C728.2 256.601 725.2 255.601 722.8 255.601C716.267 255.601 710.934 258.668 706.8 264.801C702.8 270.801 700.8 278.734 700.8 288.601C700.8 294.868 702.134 300.534 704.8 305.601C707.6 310.668 711.267 314.668 715.8 317.601C720.467 320.534 725.6 322.001 731.2 322.001C735.067 322.001 738.4 321.401 741.2 320.201C744 318.868 747 316.601 750.2 313.401C750.467 313.134 750.8 312.934 751.2 312.801C751.6 312.534 751.934 312.401 752.2 312.401C753.667 312.401 754.4 313.334 754.4 315.201C754.4 316.001 754.134 316.934 753.6 318.001C753.2 318.934 752.467 320.068 751.4 321.401C749.267 324.068 746.734 326.401 743.8 328.401C740.867 330.268 737.6 331.668 734 332.601C730.534 333.534 726.734 334.001 722.6 334.001Z" fill="white"/>
<path d="M845.303 406.086C844.01 405.758 842.267 405.04 840.071 403.933C837.811 403.085 836.877 401.885 837.27 400.334C837.795 398.266 839.06 397.074 841.066 396.758C843.396 396.248 845.694 395.868 847.958 395.617C852.163 395.308 856.176 394.675 859.995 393.719C864.072 392.827 866.833 389.538 868.275 383.852L894.93 278.78C895.52 276.453 895.917 273.803 896.121 270.829C896.391 267.596 895.492 265.717 893.424 265.192L870.161 259.291C866.284 258.308 862.986 258.296 860.266 259.257C857.546 260.218 854.855 262.149 852.194 265.05C849.856 267.758 847.19 271.759 844.197 277.052C843.155 278.989 841.435 280.891 839.035 282.758C836.96 284.432 834.888 285.007 832.82 284.483C831.787 284.221 831.013 283.474 830.5 282.243C829.987 281.013 829.96 279.493 830.419 277.683C830.55 277.166 830.714 276.52 830.91 275.745C831.366 275.035 831.821 274.325 832.276 273.615C834.228 270.259 836.573 265.352 839.312 258.893C842.116 252.177 844.141 246.363 845.387 241.452C845.912 239.384 846.726 237.802 847.829 236.706C849.191 235.676 850.906 235.424 852.973 235.948C855.041 236.473 856.785 237.19 858.205 238.101C859.625 239.011 861.787 240.247 864.692 241.81C867.339 243.306 869.889 244.641 872.342 245.814C875.054 247.052 878.737 248.261 883.389 249.441L963.26 269.703C966.62 270.555 970.013 271.278 973.439 271.872C976.864 272.466 979.193 272.507 980.423 271.993C981.978 271.287 983.596 270.873 985.278 270.749C987.026 270.367 988.158 270.242 988.675 270.373C989.451 270.569 990.224 271.316 990.996 272.612C991.767 273.908 991.924 275.461 991.465 277.27C990.809 279.855 989.829 282.633 988.525 285.604C987.222 288.574 986.143 291.74 985.291 295.1C984.504 298.202 983.717 301.303 982.93 304.405C982.468 307.314 982.005 310.223 981.542 313.132C981.342 315.007 980.462 316.847 978.904 318.652C977.669 320.265 976.147 320.842 974.338 320.383C972.529 319.924 971.273 318.367 970.57 315.713C970.192 312.866 970.071 310.634 970.206 309.018C971.127 304.3 971.239 300.064 970.541 296.31C969.908 292.298 968.27 288.994 965.627 286.397C962.984 283.801 959.207 281.88 954.296 280.634L931.033 274.733C928.448 274.077 926.408 275.073 924.911 277.719C923.673 280.431 922.726 283.08 922.07 285.665L895.317 391.124C893.94 396.552 894.831 400.63 897.991 403.357C901.409 406.15 904.893 408.685 908.443 410.961C910.314 412.261 912.023 413.657 913.57 415.15C915.441 416.45 916.114 418.134 915.59 420.202C915.196 421.753 913.804 422.362 911.412 422.031C908.954 421.958 907.079 421.757 905.787 421.429C900.876 420.183 897.064 418.941 894.352 417.703C891.574 416.723 888.926 415.776 886.407 414.862C884.146 414.013 880.689 412.999 876.037 411.819C871.642 410.704 868.12 409.948 865.47 409.551C862.819 409.154 860.04 408.724 857.131 408.261C854.415 408.122 850.472 407.397 845.303 406.086Z" fill="white"/>
<path d="M1055.78 409.915C1054.08 410.244 1052.67 410.314 1051.54 410.123C1050.44 410.064 1049.82 409.642 1049.67 408.857C1049.36 407.286 1051.3 405.69 1055.46 404.068C1060.26 402.19 1063.57 399.988 1065.39 397.462C1067.34 394.912 1067.85 391.215 1066.91 386.372L1050.88 303.508C1049.74 297.618 1048.08 293.253 1045.9 290.416C1043.85 287.553 1040.25 286.144 1035.1 286.19C1032.8 286.228 1031.06 286.021 1029.89 285.569C1028.71 285.117 1028.04 284.433 1027.86 283.517C1027.71 282.731 1028.13 282.106 1029.13 281.642C1030.1 281.047 1031.44 280.584 1033.14 280.255C1036.67 279.571 1039.29 279.065 1040.99 278.735C1042.82 278.381 1044.54 278.117 1046.13 277.944C1047.71 277.64 1049.8 277.235 1052.42 276.728C1055.04 276.222 1057.64 275.65 1060.23 275.012C1062.93 274.218 1065.45 273.528 1067.78 272.941C1070.08 272.224 1072.15 271.687 1073.99 271.333C1088.91 268.445 1101.48 269.204 1111.7 273.609C1122.06 277.989 1128.3 285.676 1130.43 296.673C1131.97 304.658 1131.83 312.358 1130.01 319.773C1128.16 327.057 1124.35 333.361 1118.59 338.686C1112.96 343.985 1105.11 347.61 1095.03 349.56C1092.15 350.117 1089.85 350.155 1088.12 349.673C1086.51 349.036 1085.62 348.324 1085.47 347.539C1085.37 347.015 1085.58 346.363 1086.11 345.581C1086.77 344.775 1087.43 344.308 1088.08 344.182C1088.74 344.055 1089.73 343.931 1091.06 343.808C1092.53 343.661 1094.57 343.333 1097.19 342.827C1105.04 341.307 1110.3 336.895 1112.96 329.59C1115.75 322.259 1116.04 312.834 1113.81 301.314C1111.78 290.842 1107.21 283.714 1100.09 279.93C1092.95 276.015 1084.61 274.982 1075.05 276.831C1071.38 277.54 1068.5 278.777 1066.4 280.542C1064.27 282.176 1063.5 284.499 1064.08 287.509L1082.2 381.172C1083.11 385.885 1084.83 389.491 1087.35 391.991C1089.87 394.491 1093.64 395.731 1098.66 395.71C1100.96 395.672 1102.69 395.814 1103.84 396.135C1104.99 396.456 1105.65 397.074 1105.83 397.991C1105.98 398.776 1105.56 399.401 1104.56 399.866C1103.59 400.461 1102.25 400.923 1100.55 401.252C1097.01 401.936 1094.24 402.337 1092.23 402.455C1090.34 402.548 1088.6 402.681 1087.01 402.854C1085.52 402.871 1083.53 403.12 1081.04 403.601C1077.77 404.234 1074.85 404.935 1072.28 405.704C1069.82 406.316 1067.3 407.006 1064.74 407.774C1062.3 408.517 1059.31 409.231 1055.78 409.915Z" fill="white"/>
<path d="M1260.96 591.653C1249.09 599.808 1236.24 603.945 1222.41 604.065C1208.58 604.186 1195.22 600.749 1182.33 593.755C1169.28 586.541 1158.08 576.121 1148.71 562.495C1139.05 548.429 1133.58 533.416 1132.33 517.457C1130.91 501.278 1133.47 485.93 1140 471.415C1146.53 456.9 1156.6 444.961 1170.23 435.598C1179.68 429.104 1189.69 425.302 1200.25 424.192C1210.81 423.082 1220.82 424.458 1230.26 428.32C1239.56 431.962 1247.23 438.178 1253.27 446.97C1259.16 455.541 1258.7 462.168 1251.89 466.849L1186.61 511.702C1183.53 513.816 1181.83 516.281 1181.5 519.096C1181.39 521.761 1182.77 525.181 1185.64 529.357C1191.07 537.269 1197.82 543.314 1205.86 547.491C1213.76 551.448 1222.07 553.181 1230.79 552.689C1239.51 552.196 1247.94 549.156 1256.07 543.569C1262.44 539.189 1267.44 533.978 1271.05 527.936C1274.88 521.743 1278.11 514.671 1280.74 506.72C1281.1 505.827 1281.56 504.859 1282.14 503.815C1282.57 502.552 1283.11 501.694 1283.77 501.241C1286.19 499.579 1288.38 500.177 1290.34 503.034C1291.7 505.012 1293.08 508.433 1294.48 513.295C1296.58 520.588 1297.03 529.014 1295.83 538.573C1294.48 547.911 1290.92 557.318 1285.13 566.793C1279.57 576.117 1271.51 584.404 1260.96 591.653ZM1176.64 497.196L1194.12 485.19C1200.49 480.811 1204.59 477.831 1206.42 476.253C1208.46 474.523 1210.14 472.724 1211.45 470.856C1212.24 469.662 1212.29 467.849 1211.59 465.418C1210.89 462.987 1209.79 460.672 1208.28 458.474C1204.35 452.76 1199.31 449.428 1193.16 448.479C1187.07 447.159 1181.17 448.462 1175.46 452.389C1171.06 455.409 1167.79 459.597 1165.65 464.953C1163.58 469.938 1162.69 475.239 1162.99 480.856C1163.29 486.474 1165.06 491.405 1168.3 495.649C1170.57 498.946 1173.35 499.462 1176.64 497.196Z" fill="white"/>
<path d="M1497 655.001H1457.8V561.801C1442.6 573.001 1428.07 578.601 1414.2 578.601C1395.53 578.601 1381 572.334 1370.6 559.801C1360.2 547.001 1355 524.868 1355 493.401V370.201H1393.8V493.401C1393.8 500.068 1393.93 505.268 1394.2 509.001C1394.47 512.734 1395.13 517.401 1396.2 523.001C1397.53 528.601 1399.67 532.734 1402.6 535.401C1405.8 538.068 1409.93 539.401 1415 539.401C1425.93 539.401 1440.2 532.468 1457.8 518.601V370.201H1497V655.001Z" fill="white"/>
<path d="M1606.96 569.856C1605.69 570.271 1603.96 570.557 1601.77 570.714C1599.91 571.042 1598.73 570.446 1598.24 568.925C1597.57 566.898 1598 565.214 1599.53 563.872C1601.22 562.194 1602.96 560.643 1604.74 559.219C1608.12 556.706 1611.21 554.15 1614.01 551.55C1616.98 548.614 1617.59 544.485 1615.84 539.163L1581.72 435.012C1580.06 429.943 1577.42 427.02 1573.79 426.243C1570.34 425.129 1566.55 424.688 1562.42 424.92C1560.14 424.824 1557.82 424.601 1555.46 424.252C1553.36 423.819 1552.01 422.716 1551.43 420.942C1550.93 419.422 1551.53 418.244 1553.22 417.409C1555.08 416.238 1556.65 415.445 1557.91 415.03C1562.98 413.37 1566.82 412.251 1569.44 411.674C1572.31 411.014 1574.97 410.564 1577.42 410.323C1580.03 409.747 1583.5 408.752 1587.81 407.341C1592.37 405.846 1595.62 404.64 1597.56 403.723C1599.68 402.468 1601.96 401.299 1604.41 400.216C1606.86 399.132 1610.62 397.76 1615.69 396.099C1616.96 395.684 1618.56 395.439 1620.5 395.365C1622.61 394.954 1623.92 395.509 1624.41 397.029C1625 398.803 1624.44 400.529 1622.74 402.207C1621.3 403.802 1619.69 405.312 1617.91 406.736C1614.44 408.995 1611.52 411.637 1609.14 414.66C1606.94 417.347 1606.67 421.225 1608.33 426.293L1633.24 502.317C1633.57 503.33 1634.32 503.924 1635.5 504.099C1636.85 503.937 1637.61 503.688 1637.78 503.352L1685.85 404.681C1686.03 403.501 1686.2 402.743 1686.37 402.407C1686.79 401.987 1686.8 401.144 1686.38 399.877C1684.72 394.809 1682.37 391.929 1679.34 391.239C1676.23 390.296 1672.6 389.94 1668.47 390.172C1666.19 390.076 1663.87 389.853 1661.52 389.504C1659.41 389.071 1658.07 387.968 1657.48 386.194C1656.99 384.674 1657.58 383.496 1659.27 382.661C1660.88 381.573 1662.45 380.78 1663.97 380.282C1669.03 378.621 1672.88 377.503 1675.49 376.926C1678.11 376.349 1680.64 375.94 1683.09 375.7C1685.45 375.206 1688.79 374.253 1693.1 372.842C1697.66 371.347 1701.04 370.1 1703.24 369.099C1705.35 367.845 1707.63 366.676 1710.08 365.592C1712.79 364.426 1716.68 363.012 1721.74 361.351C1723.26 360.853 1724.99 360.567 1726.93 360.492C1728.79 360.165 1729.97 360.761 1730.47 362.281C1731.05 364.055 1730.49 365.781 1728.8 367.459C1727.35 369.054 1725.74 370.564 1723.97 371.988C1720.5 374.247 1717.45 376.93 1714.82 380.037C1712.1 382.89 1711.58 386.851 1713.24 391.919L1747.36 496.071C1749.02 501.139 1751.92 503.979 1756.05 504.59C1760.43 505.119 1764.73 505.394 1768.95 505.415C1771.22 505.511 1773.41 505.776 1775.52 506.208C1777.8 506.304 1779.27 507.366 1779.93 509.393C1780.43 510.913 1779.71 512.132 1777.76 513.05C1776.15 514.138 1774.72 514.89 1773.45 515.305C1768.38 516.965 1764.24 518.041 1761.04 518.53C1758.17 519.19 1755.42 519.808 1752.8 520.385C1750.19 520.962 1746.6 521.998 1742.04 523.492C1737.73 524.904 1734.22 526.193 1731.52 527.36C1729.07 528.444 1726.36 529.61 1723.4 530.86C1720.78 532.28 1716.94 533.821 1711.87 535.481C1710.6 535.896 1708.87 536.183 1706.68 536.34C1704.82 536.668 1703.65 536.071 1703.15 534.551C1702.48 532.524 1702.91 530.839 1704.44 529.498C1706.13 527.82 1707.87 526.269 1709.65 524.844C1713.03 522.332 1716.08 519.649 1718.8 516.796C1721.76 513.859 1722.42 509.857 1720.76 504.789L1694.23 423.824C1693.9 422.811 1693.56 422.219 1693.22 422.048C1692.81 421.624 1692.43 421.749 1692.08 422.422L1642.22 525.89C1641.71 526.9 1641.79 528.418 1642.45 530.445C1644.2 535.767 1647.13 538.733 1651.26 539.345C1655.56 539.62 1659.82 539.768 1664.03 539.79C1666.31 539.886 1668.5 540.15 1670.61 540.582C1672.88 540.678 1674.35 541.74 1675.02 543.767C1675.52 545.288 1674.79 546.507 1672.85 547.425C1671.24 548.513 1669.8 549.264 1668.54 549.679C1663.47 551.34 1659.33 552.415 1656.12 552.905C1653.25 553.564 1650.51 554.183 1647.89 554.76C1645.28 555.337 1641.69 556.372 1637.12 557.867C1632.82 559.278 1629.31 560.568 1626.61 561.734C1624.16 562.818 1621.45 563.985 1618.49 565.234C1615.87 566.655 1612.03 568.195 1606.96 569.856Z" fill="white"/>
</svg>
