<svg width="1398" height="980" viewBox="0 0 1398 980" fill="none" xmlns="http://www.w3.org/2000/svg">
<path d="M19.2322 488.232C18.2559 489.209 18.2559 490.791 19.2322 491.768L35.1421 507.678C36.1184 508.654 37.7014 508.654 38.6777 507.678C39.654 506.701 39.654 505.118 38.6777 504.142L24.5355 490L38.6777 475.858C39.654 474.882 39.654 473.299 38.6777 472.322C37.7014 471.346 36.1184 471.346 35.1421 472.322L19.2322 488.232ZM1378.77 491.768C1379.74 490.791 1379.74 489.209 1378.77 488.232L1362.86 472.322C1361.88 471.346 1360.3 471.346 1359.32 472.322C1358.35 473.299 1358.35 474.882 1359.32 475.858L1373.46 490L1359.32 504.142C1358.35 505.118 1358.35 506.701 1359.32 507.678C1360.3 508.654 1361.88 508.654 1362.86 507.678L1378.77 491.768ZM21 492.5H1377V487.5H21V492.5Z" fill="black"/>
</svg>
