<svg width="1207" height="66" viewBox="0 0 1207 66" fill="none" xmlns="http://www.w3.org/2000/svg">
<path d="M34.409 0.381186V50H27.5675V6.21446H7.04306V50H0.201569V0.381186H34.409ZM63.6333 50.216C62.145 54.633 60.0566 58.1138 57.368 60.6583C54.7274 63.2509 50.9346 64.8112 45.9895 65.3393L45.2693 60.1542C47.7659 59.7221 49.7583 59.098 51.2466 58.2818C52.735 57.4656 53.9112 56.4094 54.7754 55.1131C55.6876 53.8648 56.5278 52.1605 57.2959 50H55.0635L42.3167 12.0477H49.3742L59.5284 45.1749L69.4666 12.0477H76.3081L63.6333 50.216ZM90.5087 50H83.8832V12.0477H107.576L106.712 17.5209H90.5087V50ZM127.188 11.1835C132.517 11.1835 136.646 12.9599 139.574 16.5127C142.551 20.0655 144.039 24.8905 144.039 30.9879C144.039 34.9247 143.367 38.4055 142.023 41.4301C140.679 44.4068 138.734 46.7353 136.19 48.4157C133.645 50.048 130.62 50.8642 127.116 50.8642C121.787 50.8642 117.634 49.0878 114.657 45.535C111.68 41.9823 110.192 37.1572 110.192 31.0599C110.192 27.123 110.864 23.6663 112.208 20.6896C113.553 17.665 115.497 15.3364 118.042 13.7041C120.586 12.0237 123.635 11.1835 127.188 11.1835ZM127.188 16.5127C120.61 16.5127 117.322 21.3618 117.322 31.0599C117.322 40.71 120.586 45.535 127.116 45.535C133.645 45.535 136.91 40.686 136.91 30.9879C136.91 21.3378 133.669 16.5127 127.188 16.5127ZM175.005 29.4035C181.438 30.0276 184.655 33.0043 184.655 38.3335C184.655 42.3183 183.191 45.271 180.262 47.1914C177.382 49.0638 173.517 50 168.668 50H154.985V12.5518C159.45 11.6396 163.603 11.1835 167.443 11.1835C172.148 11.1835 175.869 12.0717 178.606 13.8481C181.342 15.6245 182.711 18.1691 182.711 21.4818C182.711 23.6423 182.063 25.3946 180.766 26.7389C179.47 28.0832 177.55 28.9714 175.005 29.4035ZM167.515 16.2967C165.499 16.2967 163.531 16.4407 161.61 16.7287V27.4591H168.74C171.044 27.4591 172.821 27.027 174.069 26.1628C175.317 25.2986 175.941 23.8343 175.941 21.7698C175.941 19.8494 175.245 18.4571 173.853 17.5929C172.46 16.7287 170.348 16.2967 167.515 16.2967ZM168.668 44.8149C171.5 44.8149 173.709 44.3348 175.293 43.3746C176.877 42.4143 177.67 40.686 177.67 38.1894C177.67 36.125 176.997 34.6367 175.653 33.7245C174.309 32.8123 172.028 32.3562 168.812 32.3562H161.61V44.8149H168.668ZM225.161 50H218.607V32.8603C218.607 29.9796 218.703 27.243 218.895 24.6505C219.087 22.0579 219.255 20.3535 219.399 19.5374L203.484 50H195.634V12.0477H202.188V29.1875C202.188 31.732 202.092 34.3726 201.9 37.1092C201.707 39.7978 201.563 41.5262 201.467 42.2943L217.167 12.0477H225.161V50ZM267.262 44.6708H273.023V60.8024H267.622L266.541 50H238.815V12.0477H245.441V44.5988H260.636V12.0477H267.262V44.6708ZM291.888 24.2904C297.553 24.2904 301.658 25.3946 304.203 27.6031C306.747 29.8116 308.02 32.9563 308.02 37.0372C308.02 41.3101 306.579 44.5508 303.699 46.7593C300.866 48.9198 297.337 50 293.112 50H280.942V12.0477H287.567V24.2904H291.888ZM313.493 12.0477H320.118V50H313.493V12.0477ZM292.536 44.8149C295.225 44.8149 297.289 44.2147 298.73 43.0145C300.218 41.8142 300.962 39.8218 300.962 37.0372C300.962 34.3966 300.266 32.4522 298.874 31.2039C297.529 29.9556 295.177 29.3315 291.816 29.3315H287.567V44.8149H292.536ZM372.908 29.4035C379.341 30.0276 382.558 33.0043 382.558 38.3335C382.558 42.3183 381.093 45.271 378.165 47.1914C375.284 49.0638 371.419 50 366.57 50H352.887V12.5518C357.352 11.6396 361.505 11.1835 365.346 11.1835C370.051 11.1835 373.772 12.0717 376.508 13.8481C379.245 15.6245 380.613 18.1691 380.613 21.4818C380.613 23.6423 379.965 25.3946 378.669 26.7389C377.373 28.0832 375.452 28.9714 372.908 29.4035ZM365.418 16.2967C363.401 16.2967 361.433 16.4407 359.513 16.7287V27.4591H366.642C368.947 27.4591 370.723 27.027 371.971 26.1628C373.22 25.2986 373.844 23.8343 373.844 21.7698C373.844 19.8494 373.148 18.4571 371.755 17.5929C370.363 16.7287 368.251 16.2967 365.418 16.2967ZM366.57 44.8149C369.403 44.8149 371.611 44.3348 373.196 43.3746C374.78 42.4143 375.572 40.686 375.572 38.1894C375.572 36.125 374.9 34.6367 373.556 33.7245C372.211 32.8123 369.931 32.3562 366.714 32.3562H359.513V44.8149H366.57ZM407.082 11.1835C409.339 11.1835 411.403 11.5196 413.276 12.1918C415.148 12.8159 416.949 13.8481 418.677 15.2884L415.508 19.4653C414.164 18.5051 412.844 17.809 411.547 17.3769C410.299 16.8968 408.907 16.6567 407.37 16.6567C404.298 16.6567 401.897 17.881 400.169 20.3295C398.488 22.7781 397.648 26.4029 397.648 31.2039C397.648 36.0049 398.488 39.5577 400.169 41.8622C401.849 44.1187 404.25 45.247 407.37 45.247C408.859 45.247 410.227 45.0309 411.475 44.5988C412.724 44.1187 414.116 43.3746 415.652 42.3663L418.677 46.6873C415.22 49.4719 411.355 50.8642 407.082 50.8642C401.945 50.8642 397.888 49.1358 394.912 45.6791C391.983 42.2223 390.519 37.4453 390.519 31.3479C390.519 27.3151 391.191 23.7863 392.535 20.7616C393.879 17.737 395.776 15.3845 398.224 13.7041C400.721 12.0237 403.674 11.1835 407.082 11.1835ZM454.901 29.9076C454.901 31.0119 454.853 32.1401 454.757 33.2924H430.56C430.848 37.4693 431.904 40.5419 433.729 42.5104C435.553 44.4788 437.906 45.463 440.786 45.463C442.611 45.463 444.291 45.199 445.827 44.6708C447.364 44.1427 448.972 43.3025 450.652 42.1503L453.533 46.1112C449.5 49.2798 445.083 50.8642 440.282 50.8642C435.001 50.8642 430.872 49.1358 427.895 45.6791C424.967 42.2223 423.503 37.4693 423.503 31.4199C423.503 27.4831 424.127 24.0023 425.375 20.9777C426.671 17.905 428.496 15.5045 430.848 13.7761C433.249 12.0477 436.057 11.1835 439.274 11.1835C444.315 11.1835 448.18 12.8399 450.868 16.1526C453.557 19.4653 454.901 24.0503 454.901 29.9076ZM448.348 27.9632C448.348 24.2184 447.604 21.3618 446.115 19.3933C444.627 17.4249 442.395 16.4407 439.418 16.4407C433.993 16.4407 431.04 20.4256 430.56 28.3953H448.348V27.9632ZM510.178 12.0477L509.386 17.4489H497.216V50H490.59V17.4489H478.059V12.0477H510.178ZM534.46 11.1835C539.309 11.1835 542.862 12.9119 545.118 16.3687C547.375 19.8254 548.503 24.6985 548.503 30.9879C548.503 36.9412 547.207 41.7422 544.614 45.391C542.022 49.0398 538.349 50.8642 533.596 50.8642C529.371 50.8642 526.058 49.4239 523.658 46.5432V64.5472L517.032 65.3393V12.0477H522.722L523.226 17.1608C524.618 15.2404 526.298 13.7761 528.267 12.7679C530.235 11.7117 532.3 11.1835 534.46 11.1835ZM532.012 45.463C538.253 45.463 541.374 40.638 541.374 30.9879C541.374 21.2897 538.517 16.4407 532.804 16.4407C530.931 16.4407 529.227 16.9928 527.691 18.097C526.154 19.2013 524.81 20.6176 523.658 22.346V40.854C524.618 42.3423 525.818 43.4946 527.259 44.3108C528.699 45.0789 530.283 45.463 532.012 45.463ZM589.318 50H582.765V32.8603C582.765 29.9796 582.861 27.243 583.053 24.6505C583.245 22.0579 583.413 20.3535 583.557 19.5374L567.641 50H559.792V12.0477H566.345V29.1875C566.345 31.732 566.249 34.3726 566.057 37.1092C565.865 39.7978 565.721 41.5262 565.625 42.2943L581.324 12.0477H589.318V50ZM631.394 11.1835C633.794 11.1835 636.027 11.5916 638.091 12.4078C640.204 13.176 641.884 14.3282 643.132 15.8646C644.429 17.4009 645.077 19.2493 645.077 21.4098C645.077 23.5222 644.453 25.2506 643.204 26.5949C642.004 27.9392 640.084 28.9714 637.443 29.6916C640.612 30.2197 643.012 31.2039 644.645 32.6442C646.277 34.0845 647.093 36.149 647.093 38.8376C647.093 42.7744 645.557 45.7751 642.484 47.8395C639.46 49.856 635.595 50.8642 630.89 50.8642C625.176 50.8642 620.303 49.2798 616.271 46.1112L619.727 42.0063C621.408 43.2065 623.088 44.0947 624.768 44.6708C626.497 45.247 628.465 45.535 630.674 45.535C636.867 45.535 639.964 43.2785 639.964 38.7656C639.964 36.5571 639.076 35.0207 637.299 34.1565C635.571 33.2443 633.146 32.7882 630.026 32.7882H624.984L625.417 27.6031H629.305C631.994 27.6031 634.154 27.123 635.787 26.1628C637.419 25.2026 638.235 23.7143 638.235 21.6978C638.235 19.8254 637.539 18.4811 636.147 17.665C634.755 16.8008 632.93 16.3687 630.674 16.3687C628.705 16.3687 626.953 16.6327 625.417 17.1608C623.928 17.6409 622.416 18.4091 620.88 19.4653L617.711 15.5045C619.631 14.0642 621.696 12.9839 623.904 12.2638C626.113 11.5436 628.609 11.1835 631.394 11.1835ZM682.902 41.1421C682.902 42.6784 683.166 43.8307 683.694 44.5988C684.222 45.319 685.014 45.8711 686.071 46.2552L684.558 50.8642C682.59 50.6241 681.006 50.072 679.805 49.2078C678.605 48.3436 677.717 46.9993 677.141 45.1749C674.596 48.9678 670.827 50.8642 665.834 50.8642C662.089 50.8642 659.137 49.808 656.976 47.6955C654.816 45.583 653.736 42.8224 653.736 39.4137C653.736 35.3808 655.176 32.2841 658.057 30.1237C660.985 27.9632 665.114 26.883 670.443 26.883H676.276V24.0743C676.276 21.3858 675.628 19.4653 674.332 18.3131C673.036 17.1608 671.043 16.5847 668.355 16.5847C665.57 16.5847 662.161 17.2569 658.129 18.6012L656.472 13.7761C661.177 12.0477 665.546 11.1835 669.579 11.1835C674.044 11.1835 677.381 12.2878 679.589 14.4963C681.798 16.6567 682.902 19.7534 682.902 23.7863V41.1421ZM667.347 45.8951C671.139 45.8951 674.116 43.9267 676.276 39.9898V31.2759H671.307C664.298 31.2759 660.793 33.8685 660.793 39.0536C660.793 41.3101 661.345 43.0145 662.449 44.1667C663.554 45.319 665.186 45.8951 667.347 45.8951ZM710.336 11.1835C712.592 11.1835 714.657 11.5196 716.529 12.1918C718.402 12.8159 720.202 13.8481 721.931 15.2884L718.762 19.4653C717.418 18.5051 716.097 17.809 714.801 17.3769C713.553 16.8968 712.16 16.6567 710.624 16.6567C707.551 16.6567 705.151 17.881 703.422 20.3295C701.742 22.7781 700.902 26.4029 700.902 31.2039C700.902 36.0049 701.742 39.5577 703.422 41.8622C705.103 44.1187 707.503 45.247 710.624 45.247C712.112 45.247 713.481 45.0309 714.729 44.5988C715.977 44.1187 717.37 43.3746 718.906 42.3663L721.931 46.6873C718.474 49.4719 714.609 50.8642 710.336 50.8642C705.199 50.8642 701.142 49.1358 698.165 45.6791C695.237 42.2223 693.772 37.4453 693.772 31.3479C693.772 27.3151 694.445 23.7863 695.789 20.7616C697.133 17.737 699.03 15.3845 701.478 13.7041C703.975 12.0237 706.927 11.1835 710.336 11.1835ZM756.537 12.0477L755.745 17.4489H743.574V50H736.949V17.4489H724.418V12.0477H756.537ZM790.224 29.9076C790.224 31.0119 790.176 32.1401 790.08 33.2924H765.883C766.171 37.4693 767.227 40.5419 769.052 42.5104C770.876 44.4788 773.229 45.463 776.109 45.463C777.934 45.463 779.614 45.199 781.15 44.6708C782.687 44.1427 784.295 43.3025 785.976 42.1503L788.856 46.1112C784.823 49.2798 780.406 50.8642 775.605 50.8642C770.324 50.8642 766.195 49.1358 763.219 45.6791C760.29 42.2223 758.826 37.4693 758.826 31.4199C758.826 27.4831 759.45 24.0023 760.698 20.9777C761.994 17.905 763.819 15.5045 766.171 13.7761C768.572 12.0477 771.38 11.1835 774.597 11.1835C779.638 11.1835 783.503 12.8399 786.192 16.1526C788.88 19.4653 790.224 24.0503 790.224 29.9076ZM783.671 27.9632C783.671 24.2184 782.927 21.3618 781.439 19.3933C779.95 17.4249 777.718 16.4407 774.741 16.4407C769.316 16.4407 766.363 20.4256 765.883 28.3953H783.671V27.9632ZM807.431 50H800.805V12.0477H824.498L823.634 17.5209H807.431V50ZM854.076 50V33.2924H838.304V50H831.679V12.0477H838.304V27.9632H854.076V12.0477H860.701V50H854.076ZM889.563 50.216C888.075 54.633 885.987 58.1138 883.298 60.6583C880.657 63.2509 876.865 64.8112 871.92 65.3393L871.199 60.1542C873.696 59.7221 875.688 59.098 877.177 58.2818C878.665 57.4656 879.841 56.4094 880.705 55.1131C881.618 53.8648 882.458 52.1605 883.226 50H880.993L868.247 12.0477H875.304L885.458 45.1749L895.397 12.0477H902.238L889.563 50.216ZM936.838 12.0477V50H930.212V17.4489H918.474L917.393 30.1237C916.961 35.2608 916.409 39.1016 915.737 41.6462C915.113 44.1907 914.105 46.1592 912.712 47.5515C911.368 48.8958 909.304 50 906.519 50.8642L904.863 45.607C906.495 45.0309 907.647 44.2868 908.319 43.3746C908.992 42.4624 909.496 41.0701 909.832 39.1976C910.168 37.3252 910.528 34.0605 910.912 29.4035L912.424 12.0477H936.838ZM980.06 50H973.506V32.8603C973.506 29.9796 973.602 27.243 973.794 24.6505C973.986 22.0579 974.154 20.3535 974.298 19.5374L958.383 50H950.533V12.0477H957.087V29.1875C957.087 31.732 956.99 34.3726 956.798 37.1092C956.606 39.7978 956.462 41.5262 956.366 42.2943L972.066 12.0477H980.06V50ZM1007.54 11.1835C1009.8 11.1835 1011.86 11.5196 1013.73 12.1918C1015.61 12.8159 1017.41 13.8481 1019.14 15.2884L1015.97 19.4653C1014.62 18.5051 1013.3 17.809 1012.01 17.3769C1010.76 16.8968 1009.37 16.6567 1007.83 16.6567C1004.76 16.6567 1002.36 17.881 1000.63 20.3295C998.947 22.7781 998.107 26.4029 998.107 31.2039C998.107 36.0049 998.947 39.5577 1000.63 41.8622C1002.31 44.1187 1004.71 45.247 1007.83 45.247C1009.32 45.247 1010.69 45.0309 1011.93 44.5988C1013.18 44.1187 1014.57 43.3746 1016.11 42.3663L1019.14 46.6873C1015.68 49.4719 1011.81 50.8642 1007.54 50.8642C1002.4 50.8642 998.347 49.1358 995.371 45.6791C992.442 42.2223 990.978 37.4453 990.978 31.3479C990.978 27.3151 991.65 23.7863 992.994 20.7616C994.338 17.737 996.235 15.3845 998.683 13.7041C1001.18 12.0237 1004.13 11.1835 1007.54 11.1835ZM1039.77 24.2904C1045.44 24.2904 1049.54 25.3946 1052.09 27.6031C1054.63 29.8116 1055.9 32.9563 1055.9 37.0372C1055.9 41.3101 1054.46 44.5508 1051.58 46.7593C1048.75 48.9198 1045.22 50 1041 50H1028.1V12.0477H1034.73V24.2904H1039.77ZM1040.42 44.8149C1043.11 44.8149 1045.17 44.2147 1046.61 43.0145C1048.1 41.8142 1048.85 39.8218 1048.85 37.0372C1048.85 34.3966 1048.15 32.4522 1046.76 31.2039C1045.41 29.9556 1043.06 29.3315 1039.7 29.3315H1034.73V44.8149H1040.42ZM1106.69 50V33.2924H1090.92V50H1084.3V12.0477H1090.92V27.9632H1106.69V12.0477H1113.32V50H1106.69ZM1155.65 29.9076C1155.65 31.0119 1155.6 32.1401 1155.5 33.2924H1131.31C1131.59 37.4693 1132.65 40.5419 1134.48 42.5104C1136.3 44.4788 1138.65 45.463 1141.53 45.463C1143.36 45.463 1145.04 45.199 1146.57 44.6708C1148.11 44.1427 1149.72 43.3025 1151.4 42.1503L1154.28 46.1112C1150.25 49.2798 1145.83 50.8642 1141.03 50.8642C1135.75 50.8642 1131.62 49.1358 1128.64 45.6791C1125.71 42.2223 1124.25 37.4693 1124.25 31.4199C1124.25 27.4831 1124.87 24.0023 1126.12 20.9777C1127.42 17.905 1129.24 15.5045 1131.59 13.7761C1134 12.0477 1136.8 11.1835 1140.02 11.1835C1145.06 11.1835 1148.93 12.8399 1151.61 16.1526C1154.3 19.4653 1155.65 24.0503 1155.65 29.9076ZM1149.09 27.9632C1149.09 24.2184 1148.35 21.3618 1146.86 19.3933C1145.37 17.4249 1143.14 16.4407 1140.16 16.4407C1134.74 16.4407 1131.79 20.4256 1131.31 28.3953H1149.09V27.9632ZM1167.25 40.854C1168.69 40.854 1169.89 41.3341 1170.85 42.2943C1171.81 43.2545 1172.29 44.4308 1172.29 45.8231C1172.29 47.2154 1171.81 48.4157 1170.85 49.4239C1169.89 50.3841 1168.69 50.8642 1167.25 50.8642C1165.86 50.8642 1164.69 50.3841 1163.72 49.4239C1162.76 48.4157 1162.28 47.2154 1162.28 45.8231C1162.28 44.4308 1162.76 43.2545 1163.72 42.2943C1164.69 41.3341 1165.86 40.854 1167.25 40.854ZM1184.55 40.854C1185.99 40.854 1187.19 41.3341 1188.16 42.2943C1189.12 43.2545 1189.6 44.4308 1189.6 45.8231C1189.6 47.2154 1189.12 48.4157 1188.16 49.4239C1187.19 50.3841 1185.99 50.8642 1184.55 50.8642C1183.16 50.8642 1181.99 50.3841 1181.03 49.4239C1180.07 48.4157 1179.59 47.2154 1179.59 45.8231C1179.59 44.4308 1180.07 43.2545 1181.03 42.2943C1181.99 41.3341 1183.16 40.854 1184.55 40.854ZM1201.85 40.854C1203.3 40.854 1204.5 41.3341 1205.46 42.2943C1206.42 43.2545 1206.9 44.4308 1206.9 45.8231C1206.9 47.2154 1206.42 48.4157 1205.46 49.4239C1204.5 50.3841 1203.3 50.8642 1201.85 50.8642C1200.46 50.8642 1199.29 50.3841 1198.33 49.4239C1197.37 48.4157 1196.89 47.2154 1196.89 45.8231C1196.89 44.4308 1197.37 43.2545 1198.33 42.2943C1199.29 41.3341 1200.46 40.854 1201.85 40.854Z" fill="#1D1D1D"/>
</svg>
