<svg width="1664" height="301" viewBox="0 0 1664 301" fill="none" xmlns="http://www.w3.org/2000/svg">
<path d="M0.323242 293V2.0928H27.7978V126.94H199.918V2.0928H227.392V293H199.918V150.375H27.7978V293H0.323242Z" fill="black"/>
<path d="M440.191 173.809C440.191 163.573 438.709 154.011 435.746 145.122C433.053 135.964 428.878 128.153 423.221 121.688C417.834 114.954 410.965 109.701 402.615 105.93C394.265 101.89 384.703 99.8699 373.929 99.8699C363.154 99.8699 353.592 101.89 345.242 105.93C337.161 109.971 330.158 115.358 324.232 122.092C318.575 128.826 313.996 136.637 310.495 145.526C306.993 154.415 304.704 163.843 303.626 173.809H440.191ZM303.626 194.011C303.626 205.324 305.108 216.098 308.07 226.334C311.033 236.3 315.343 245.054 321 252.596C326.926 259.869 334.333 265.795 343.222 270.374C352.111 274.684 362.346 276.838 373.929 276.838C389.821 276.838 403.423 272.663 414.736 264.313C426.049 255.963 433.592 244.111 437.363 228.758H464.433C461.47 238.724 457.564 248.017 452.716 256.637C447.867 264.987 441.807 272.394 434.534 278.859C427.262 285.054 418.642 289.902 408.676 293.404C398.71 296.906 387.127 298.656 373.929 298.656C357.228 298.656 342.818 295.828 330.697 290.172C318.575 284.515 308.609 276.838 300.798 267.141C292.986 257.175 287.195 245.593 283.424 232.394C279.653 218.926 277.768 204.516 277.768 189.162C277.768 173.809 279.923 159.398 284.232 145.93C288.811 132.462 295.141 120.745 303.222 110.779C311.572 100.543 321.673 92.5972 333.525 86.9407C345.377 81.0148 358.845 78.0519 373.929 78.0519C402.75 78.0519 425.376 88.0181 441.807 107.951C458.238 127.614 466.319 156.3 466.049 194.011H303.626Z" fill="black"/>
<path d="M516.822 293V2.0928H541.064V293H516.822Z" fill="black"/>
<path d="M617.065 81.7087L673.488 253.74L732.476 81.7087H771.341L691.638 293H653.759L575.832 81.7087H617.065Z" fill="black"/>
<path d="M889.711 76.9739C904.705 76.9739 919.238 80.525 933.311 87.6273C947.384 94.598 958.103 103.673 965.468 114.852C972.57 125.506 977.305 137.935 979.672 152.139C981.777 161.872 982.829 177.391 982.829 198.698H827.961C828.619 220.136 833.682 237.366 843.152 250.387C852.622 263.276 867.286 269.72 887.146 269.72C905.691 269.72 920.487 263.605 931.535 251.373C937.848 244.271 942.32 236.051 944.951 226.712H979.87C978.949 234.472 975.858 243.153 970.597 252.754C965.468 262.224 959.681 269.983 953.236 276.033C942.452 286.555 929.102 293.657 913.188 297.34C904.639 299.444 894.972 300.497 884.187 300.497C857.882 300.497 835.589 290.961 817.308 271.891C799.026 252.688 789.885 225.858 789.885 191.399C789.885 157.466 799.092 129.912 817.505 108.737C835.918 87.5615 859.987 76.9739 889.711 76.9739ZM946.331 170.487C944.885 155.098 941.531 142.801 936.27 133.594C926.537 116.496 910.294 107.947 887.541 107.947C871.232 107.947 857.554 113.866 846.506 125.703C835.458 137.409 829.605 152.336 828.948 170.487H946.331Z" fill="black"/>
<path d="M1033.73 22.7208H1069.63V81.7087H1103.37V110.709H1069.63V248.611C1069.63 255.976 1072.13 260.908 1077.13 263.407C1079.89 264.854 1084.5 265.577 1090.94 265.577C1092.65 265.577 1094.49 265.577 1096.46 265.577C1098.44 265.446 1100.74 265.249 1103.37 264.986V293C1099.29 294.184 1095.02 295.038 1090.55 295.565C1086.21 296.091 1081.47 296.354 1076.34 296.354C1059.77 296.354 1048.52 292.145 1042.61 283.728C1036.69 275.179 1033.73 264.131 1033.73 250.584V110.709H1005.12V81.7087H1033.73V22.7208Z" fill="black"/>
<path d="M1197.08 77.9603V293H1140.06V77.9603H1197.08ZM1197.08 0.427734V52.3134H1140.06V0.427734H1197.08Z" fill="black"/>
<path d="M1437.77 155.098H1380.16C1379.11 147.075 1376.41 139.842 1372.07 133.397C1365.76 124.717 1355.96 120.376 1342.68 120.376C1323.74 120.376 1310.78 129.78 1303.81 148.588C1300.13 158.584 1298.29 171.868 1298.29 188.439C1298.29 204.222 1300.13 216.914 1303.81 226.515C1310.52 244.402 1323.14 253.346 1341.69 253.346C1354.84 253.346 1364.18 249.795 1369.7 242.692C1375.23 235.59 1378.58 226.384 1379.76 215.073H1437.17C1435.86 232.171 1429.68 248.348 1418.63 263.605C1401.01 288.199 1374.9 300.497 1340.31 300.497C1305.72 300.497 1280.27 290.238 1263.96 269.72C1247.65 249.203 1239.5 222.569 1239.5 189.82C1239.5 152.862 1248.5 124.125 1266.52 103.607C1284.54 83.0897 1309.4 72.8309 1341.1 72.8309C1368.06 72.8309 1390.09 78.881 1407.19 90.9811C1424.42 103.081 1434.61 124.454 1437.77 155.098Z" fill="black"/>
<path d="M1484.72 101.24C1499.58 82.3006 1525.1 72.8309 1561.27 72.8309C1584.81 72.8309 1605.72 77.5 1624 86.8381C1642.28 96.1762 1651.42 113.8 1651.42 139.71V238.352C1651.42 245.191 1651.56 253.477 1651.82 263.21C1652.21 270.575 1653.33 275.573 1655.17 278.204C1657.01 280.834 1659.78 283.004 1663.46 284.714V293H1602.3C1600.59 288.66 1599.41 284.582 1598.75 280.768C1598.09 276.954 1597.57 272.614 1597.17 267.748C1589.41 276.165 1580.47 283.333 1570.34 289.251C1558.24 296.222 1544.56 299.708 1529.31 299.708C1509.84 299.708 1493.73 294.184 1480.97 283.136C1468.34 271.956 1462.03 256.174 1462.03 235.788C1462.03 209.351 1472.22 190.215 1492.61 178.378C1503.79 171.933 1520.23 167.33 1541.93 164.568L1561.07 162.201C1571.46 160.885 1578.89 159.241 1583.36 157.268C1591.38 153.849 1595.4 148.522 1595.4 141.288C1595.4 132.476 1592.3 126.426 1586.12 123.138C1580.07 119.719 1571.13 118.009 1559.29 118.009C1546.01 118.009 1536.61 121.297 1531.08 127.873C1527.14 132.74 1524.51 139.316 1523.19 147.602H1468.94C1470.12 128.794 1475.38 113.34 1484.72 101.24ZM1526.54 252.359C1531.8 256.7 1538.25 258.87 1545.88 258.87C1557.98 258.87 1569.09 255.319 1579.22 248.216C1589.48 241.114 1594.8 228.159 1595.2 209.351V188.439C1591.65 190.675 1588.03 192.517 1584.35 193.963C1580.8 195.279 1575.86 196.528 1569.55 197.712L1556.93 200.079C1545.09 202.183 1536.61 204.748 1531.48 207.773C1522.8 212.903 1518.46 220.86 1518.46 231.645C1518.46 241.246 1521.15 248.151 1526.54 252.359Z" fill="black"/>
</svg>
