<svg width="1208" height="64" viewBox="0 0 1208 64" fill="none" xmlns="http://www.w3.org/2000/svg">
<path d="M36.9425 0.592012V50H30.9595V5.89951H6.0625V50H0.0794986V0.592012H36.9425ZM51.906 63.896C50.941 63.896 50.0806 63.8156 49.3246 63.6547C48.5687 63.51 48.046 63.3652 47.7565 63.2205L49.204 58.2025C50.5872 58.5563 51.8095 58.685 52.871 58.5885C53.9325 58.492 54.8734 58.0175 55.6936 57.1651C56.53 56.3288 57.2939 54.9697 57.9855 53.088L59.047 50.193L45.344 12.944H51.52L61.749 42.473H62.135L72.364 12.944H78.54L62.8105 55.404C62.1028 57.3179 61.2263 58.9021 60.1809 60.1566C59.1355 61.4272 57.9212 62.3681 56.538 62.9792C55.1709 63.5904 53.6269 63.896 51.906 63.896ZM108.925 12.944V18.2515H91.7484V50H86.0549V12.944H108.925ZM130.367 50.772C127.021 50.772 124.086 49.9759 121.561 48.3836C119.052 46.7914 117.09 44.5638 115.674 41.701C114.275 38.8382 113.576 35.4928 113.576 31.665C113.576 27.805 114.275 24.4355 115.674 21.5566C117.09 18.6777 119.052 16.4421 121.561 14.8499C124.086 13.2576 127.021 12.4615 130.367 12.4615C133.712 12.4615 136.639 13.2576 139.148 14.8499C141.673 16.4421 143.635 18.6777 145.035 21.5566C146.45 24.4355 147.158 27.805 147.158 31.665C147.158 35.4928 146.45 38.8382 145.035 41.701C143.635 44.5638 141.673 46.7914 139.148 48.3836C136.639 49.9759 133.712 50.772 130.367 50.772ZM130.367 45.6575C132.908 45.6575 134.999 45.0061 136.639 43.7034C138.28 42.4006 139.494 40.6878 140.282 38.5648C141.07 36.4418 141.464 34.1418 141.464 31.665C141.464 29.1882 141.07 26.8802 140.282 24.7411C139.494 22.602 138.28 20.8731 136.639 19.5543C134.999 18.2354 132.908 17.576 130.367 17.576C127.825 17.576 125.735 18.2354 124.094 19.5543C122.454 20.8731 121.239 22.602 120.451 24.7411C119.663 26.8802 119.269 29.1882 119.269 31.665C119.269 34.1418 119.663 36.4418 120.451 38.5648C121.239 40.6878 122.454 42.4006 124.094 43.7034C125.735 45.0061 127.825 45.6575 130.367 45.6575ZM155.849 50V12.944H170.999C174.988 12.944 178.156 13.8447 180.504 15.646C182.852 17.4473 184.027 19.8277 184.027 22.787C184.027 25.0387 183.359 26.7837 182.024 28.0221C180.689 29.2445 178.976 30.0728 176.886 30.507C178.253 30.7 179.58 31.1825 180.866 31.9545C182.169 32.7265 183.247 33.788 184.099 35.139C184.951 36.4739 185.378 38.1144 185.378 40.0605C185.378 41.9583 184.895 43.6551 183.93 45.1509C182.965 46.6466 181.582 47.8288 179.781 48.6973C177.979 49.5658 175.824 50 173.315 50H155.849ZM161.253 44.789H173.315C175.277 44.789 176.813 44.3226 177.923 43.3898C179.033 42.4569 179.588 41.1863 179.588 39.578C179.588 37.6641 179.033 36.1603 177.923 35.0666C176.813 33.9569 175.277 33.402 173.315 33.402H161.253V44.789ZM161.253 28.4805H170.999C172.527 28.4805 173.838 28.2714 174.931 27.8533C176.025 27.419 176.861 26.8078 177.44 26.0198C178.036 25.2156 178.333 24.2667 178.333 23.173C178.333 21.6129 177.682 20.3906 176.379 19.506C175.076 18.6053 173.283 18.155 170.999 18.155H161.253V28.4805ZM199.69 41.6045L217.542 12.944H224.104V50H218.411V21.3395L200.655 50H193.996V12.944H199.69V41.6045ZM263.675 12.944V44.6925H268.886V61.966H263.193V50H234.532V12.944H240.226V44.6925H257.982V12.944H263.675ZM282.577 26.3575H293.192C297.535 26.3575 300.856 27.4592 303.156 29.6626C305.456 31.866 306.606 34.6565 306.606 38.034C306.606 40.2535 306.091 42.272 305.062 44.0894C304.032 45.8907 302.52 47.3302 300.526 48.4078C298.532 49.4693 296.087 50 293.192 50H277.656V12.944H283.349V44.6925H293.192C295.444 44.6925 297.293 44.0974 298.741 42.9073C300.188 41.7171 300.912 40.1892 300.912 38.3235C300.912 36.3613 300.188 34.761 298.741 33.5226C297.293 32.2842 295.444 31.665 293.192 31.665H282.577V26.3575ZM312.492 50V12.944H318.186V50H312.492ZM347.715 50V12.944H362.865C366.854 12.944 370.022 13.8447 372.37 15.646C374.719 17.4473 375.893 19.8277 375.893 22.787C375.893 25.0387 375.225 26.7837 373.89 28.0221C372.555 29.2445 370.842 30.0728 368.752 30.507C370.119 30.7 371.446 31.1825 372.732 31.9545C374.035 32.7265 375.113 33.788 375.965 35.139C376.817 36.4739 377.244 38.1144 377.244 40.0605C377.244 41.9583 376.761 43.6551 375.796 45.1509C374.831 46.6466 373.448 47.8288 371.647 48.6973C369.845 49.5658 367.69 50 365.181 50H347.715ZM353.119 44.789H365.181C367.143 44.789 368.679 44.3226 369.789 43.3898C370.899 42.4569 371.454 41.1863 371.454 39.578C371.454 37.6641 370.899 36.1603 369.789 35.0666C368.679 33.9569 367.143 33.402 365.181 33.402H353.119V44.789ZM353.119 28.4805H362.865C364.393 28.4805 365.704 28.2714 366.798 27.8533C367.891 27.419 368.727 26.8078 369.306 26.0198C369.902 25.2156 370.199 24.2667 370.199 23.173C370.199 21.6129 369.548 20.3906 368.245 19.506C366.942 18.6053 365.149 18.155 362.865 18.155H353.119V28.4805ZM400.916 50.772C397.442 50.772 394.451 49.9518 391.942 48.3113C389.433 46.6708 387.503 44.411 386.152 41.5321C384.801 38.6532 384.125 35.3642 384.125 31.665C384.125 27.9015 384.817 24.5803 386.2 21.7014C387.599 18.8064 389.545 16.5467 392.038 14.9223C394.547 13.2818 397.474 12.4615 400.82 12.4615C403.425 12.4615 405.773 12.944 407.864 13.909C409.955 14.874 411.668 16.225 413.003 17.962C414.338 19.699 415.166 21.7255 415.488 24.0415H409.794C409.36 22.3528 408.395 20.857 406.899 19.5543C405.42 18.2354 403.425 17.576 400.916 17.576C398.697 17.576 396.751 18.155 395.078 19.313C393.421 20.4549 392.127 22.0713 391.194 24.1621C390.277 26.2369 389.819 28.6735 389.819 31.472C389.819 34.3348 390.269 36.8278 391.17 38.9508C392.087 41.0738 393.373 42.7223 395.03 43.8964C396.702 45.0705 398.665 45.6575 400.916 45.6575C402.396 45.6575 403.739 45.4002 404.945 44.8855C406.151 44.3708 407.173 43.631 408.009 42.666C408.845 41.701 409.44 40.543 409.794 39.192H415.488C415.166 41.3793 414.37 43.3495 413.099 45.1026C411.845 46.8396 410.18 48.2228 408.106 49.2521C406.047 50.2654 403.65 50.772 400.916 50.772ZM439.347 50.772C435.777 50.772 432.697 49.9839 430.108 48.4078C427.534 46.8155 425.548 44.596 424.149 41.7493C422.765 38.8864 422.074 35.5572 422.074 31.7615C422.074 27.9658 422.765 24.6205 424.149 21.7255C425.548 18.8144 427.494 16.5467 429.987 14.9223C432.496 13.2818 435.423 12.4615 438.768 12.4615C440.698 12.4615 442.604 12.7832 444.486 13.4265C446.368 14.0698 448.081 15.1153 449.625 16.5628C451.169 17.9942 452.399 19.892 453.316 22.2563C454.233 24.6205 454.691 27.5316 454.691 30.9895V33.402H426.127V28.4805H448.901C448.901 26.3897 448.483 24.524 447.646 22.8835C446.826 21.243 445.652 19.9483 444.124 18.9994C442.612 18.0505 440.827 17.576 438.768 17.576C436.501 17.576 434.538 18.1389 432.882 19.2648C431.241 20.3745 429.979 21.822 429.094 23.6073C428.21 25.3925 427.767 27.3064 427.767 29.349V32.63C427.767 35.4285 428.25 37.8008 429.215 39.7469C430.196 41.6769 431.555 43.1485 433.292 44.1618C435.029 45.1589 437.047 45.6575 439.347 45.6575C440.843 45.6575 442.194 45.4484 443.4 45.0303C444.623 44.596 445.676 43.9527 446.561 43.1003C447.445 42.2318 448.129 41.1542 448.611 39.8675L454.112 41.4115C453.533 43.2772 452.56 44.9177 451.193 46.333C449.826 47.7323 448.137 48.8259 446.127 49.614C444.116 50.386 441.856 50.772 439.347 50.772ZM480.336 18.2515V12.944H510.444V18.2515H498.285V50H492.591V18.2515H480.336ZM518.749 63.896V12.944H524.249V18.8305H524.925C525.343 18.1872 525.922 17.3669 526.662 16.3698C527.418 15.3565 528.495 14.4558 529.895 13.6678C531.31 12.8636 533.224 12.4615 535.636 12.4615C538.756 12.4615 541.507 13.2416 543.887 14.8016C546.267 16.3617 548.125 18.5732 549.46 21.436C550.795 24.2988 551.462 27.6763 551.462 31.5685C551.462 35.4928 550.795 38.8945 549.46 41.7734C548.125 44.6362 546.275 46.8557 543.911 48.4319C541.547 49.992 538.821 50.772 535.733 50.772C533.352 50.772 531.447 50.378 530.015 49.5899C528.584 48.7857 527.482 47.877 526.71 46.8638C525.938 45.8344 525.343 44.982 524.925 44.3065H524.442V63.896H518.749ZM524.346 31.472C524.346 34.2705 524.756 36.7393 525.576 38.8784C526.396 41.0014 527.595 42.666 529.171 43.8723C530.747 45.0624 532.677 45.6575 534.961 45.6575C537.341 45.6575 539.327 45.0303 540.92 43.7758C542.528 42.5052 543.734 40.8003 544.538 38.6613C545.359 36.5061 545.769 34.1097 545.769 31.472C545.769 28.8665 545.367 26.5183 544.563 24.4275C543.774 22.3206 542.576 20.656 540.968 19.4336C539.376 18.1952 537.373 17.576 534.961 17.576C532.645 17.576 530.699 18.163 529.123 19.3371C527.546 20.4951 526.356 22.1195 525.552 24.2104C524.748 26.2851 524.346 28.7057 524.346 31.472ZM565.841 41.6045L583.693 12.944H590.255V50H584.562V21.3395L566.806 50H560.147V12.944H565.841V41.6045ZM617.474 40.543H623.554C623.682 42.2157 624.438 43.4863 625.822 44.3548C627.221 45.2233 629.038 45.6575 631.274 45.6575C633.558 45.6575 635.512 45.1911 637.136 44.2583C638.761 43.3093 639.573 41.7814 639.573 39.6745C639.573 38.4361 639.267 37.3585 638.656 36.4418C638.045 35.5089 637.184 34.7852 636.075 34.2705C634.965 33.7558 633.654 33.4985 632.142 33.4985H625.773V28.384H632.142C634.41 28.384 636.083 27.8693 637.16 26.84C638.254 25.8107 638.801 24.524 638.801 22.98C638.801 21.3234 638.214 19.9965 637.04 18.9994C635.866 17.9861 634.201 17.4795 632.046 17.4795C629.875 17.4795 628.065 17.9701 626.618 18.9511C625.17 19.9161 624.406 21.1626 624.326 22.6905H618.343C618.407 20.6962 619.018 18.935 620.176 17.4071C621.334 15.8631 622.91 14.6569 624.905 13.7884C626.899 12.9038 629.183 12.4615 631.756 12.4615C634.362 12.4615 636.621 12.9199 638.535 13.8366C640.465 14.7373 641.953 15.9677 642.999 17.5278C644.06 19.0718 644.591 20.8248 644.591 22.787C644.591 24.8778 644.004 26.5666 642.83 27.8533C641.656 29.1399 640.184 30.0567 638.415 30.6035V30.9895C639.814 31.086 641.028 31.5363 642.058 32.3405C643.103 33.1286 643.915 34.166 644.494 35.4526C645.073 36.7232 645.363 38.1305 645.363 39.6745C645.363 41.9262 644.76 43.8883 643.553 45.561C642.347 47.2176 640.691 48.5043 638.584 49.421C636.477 50.3217 634.072 50.772 631.37 50.772C628.749 50.772 626.401 50.3458 624.326 49.4934C622.251 48.6249 620.602 47.4267 619.38 45.8988C618.174 44.3548 617.539 42.5695 617.474 40.543ZM664.265 50.8685C661.917 50.8685 659.786 50.4262 657.872 49.5416C655.958 48.641 654.438 47.3463 653.312 45.6575C652.186 43.9527 651.623 41.894 651.623 39.4815C651.623 37.3585 652.041 35.6376 652.878 34.3188C653.714 32.9838 654.832 31.9384 656.231 31.1825C657.63 30.4266 659.174 29.8637 660.863 29.4938C662.568 29.1078 664.281 28.8022 666.002 28.577C668.253 28.2875 670.079 28.0704 671.478 27.9256C672.893 27.7648 673.923 27.4994 674.566 27.1295C675.226 26.7596 675.555 26.1163 675.555 25.1995V25.0065C675.555 22.6262 674.904 20.7766 673.601 19.4578C672.314 18.1389 670.36 17.4795 667.739 17.4795C665.021 17.4795 662.89 18.0746 661.346 19.2648C659.802 20.4549 658.716 21.7255 658.089 23.0765L652.685 21.1465C653.65 18.8948 654.936 17.1418 656.545 15.8873C658.169 14.6167 659.938 13.7321 661.852 13.2335C663.782 12.7188 665.68 12.4615 667.546 12.4615C668.736 12.4615 670.103 12.6063 671.647 12.8958C673.207 13.1692 674.711 13.7401 676.158 14.6086C677.622 15.4771 678.836 16.7879 679.801 18.541C680.766 20.2941 681.249 22.6423 681.249 25.5855V50H675.555V44.982H675.266C674.88 45.7862 674.236 46.6466 673.336 47.5634C672.435 48.4801 671.237 49.2602 669.741 49.9035C668.245 50.5468 666.42 50.8685 664.265 50.8685ZM665.133 45.754C667.385 45.754 669.283 45.3117 670.827 44.4271C672.387 43.5425 673.561 42.4006 674.349 41.0014C675.153 39.6021 675.555 38.1305 675.555 36.5865V31.3755C675.314 31.665 674.783 31.9304 673.963 32.1716C673.159 32.3968 672.226 32.5978 671.164 32.7748C670.119 32.9356 669.098 33.0803 668.101 33.209C667.12 33.3216 666.323 33.4181 665.712 33.4985C664.233 33.6915 662.849 34.0051 661.563 34.4394C660.292 34.8575 659.263 35.4928 658.475 36.3453C657.703 37.1816 657.317 38.3235 657.317 39.771C657.317 41.7493 658.049 43.245 659.512 44.2583C660.992 45.2554 662.865 45.754 665.133 45.754ZM706.695 50.772C703.221 50.772 700.229 49.9518 697.72 48.3113C695.211 46.6708 693.281 44.411 691.93 41.5321C690.579 38.6532 689.904 35.3642 689.904 31.665C689.904 27.9015 690.595 24.5803 691.978 21.7014C693.378 18.8064 695.324 16.5467 697.817 14.9223C700.326 13.2818 703.253 12.4615 706.598 12.4615C709.204 12.4615 711.552 12.944 713.643 13.909C715.733 14.874 717.446 16.225 718.781 17.962C720.116 19.699 720.944 21.7255 721.266 24.0415H715.573C715.138 22.3528 714.173 20.857 712.678 19.5543C711.198 18.2354 709.204 17.576 706.695 17.576C704.475 17.576 702.529 18.155 700.856 19.313C699.2 20.4549 697.905 22.0713 696.972 24.1621C696.055 26.2369 695.597 28.6735 695.597 31.472C695.597 34.3348 696.047 36.8278 696.948 38.9508C697.865 41.0738 699.151 42.7223 700.808 43.8964C702.481 45.0705 704.443 45.6575 706.695 45.6575C708.174 45.6575 709.517 45.4002 710.723 44.8855C711.93 44.3708 712.951 43.631 713.787 42.666C714.624 41.701 715.219 40.543 715.573 39.192H721.266C720.944 41.3793 720.148 43.3495 718.878 45.1026C717.623 46.8396 715.959 48.2228 713.884 49.2521C711.825 50.2654 709.429 50.772 706.695 50.772ZM726.67 18.2515V12.944H756.778V18.2515H744.619V50H738.926V18.2515H726.67ZM778.696 50.772C775.125 50.772 772.045 49.9839 769.456 48.4078C766.882 46.8155 764.896 44.596 763.497 41.7493C762.114 38.8864 761.422 35.5572 761.422 31.7615C761.422 27.9658 762.114 24.6205 763.497 21.7255C764.896 18.8144 766.842 16.5467 769.335 14.9223C771.844 13.2818 774.771 12.4615 778.117 12.4615C780.047 12.4615 781.952 12.7832 783.834 13.4265C785.716 14.0698 787.429 15.1153 788.973 16.5628C790.517 17.9942 791.747 19.892 792.664 22.2563C793.581 24.6205 794.039 27.5316 794.039 30.9895V33.402H765.475V28.4805H788.249C788.249 26.3897 787.831 24.524 786.995 22.8835C786.174 21.243 785 19.9483 783.472 18.9994C781.96 18.0505 780.175 17.576 778.117 17.576C775.849 17.576 773.887 18.1389 772.23 19.2648C770.59 20.3745 769.327 21.822 768.442 23.6073C767.558 25.3925 767.116 27.3064 767.116 29.349V32.63C767.116 35.4285 767.598 37.8008 768.563 39.7469C769.544 41.6769 770.903 43.1485 772.64 44.1618C774.377 45.1589 776.396 45.6575 778.696 45.6575C780.191 45.6575 781.542 45.4484 782.749 45.0303C783.971 44.596 785.024 43.9527 785.909 43.1003C786.794 42.2318 787.477 41.1542 787.96 39.8675L793.46 41.4115C792.881 43.2772 791.908 44.9177 790.541 46.333C789.174 47.7323 787.485 48.8259 785.475 49.614C783.464 50.386 781.205 50.772 778.696 50.772ZM825.57 12.944V18.2515H808.393V50H802.7V12.944H825.57ZM858.682 28.8665V34.174H838.224V28.8665H858.682ZM839.575 12.944V50H833.881V12.944H839.575ZM863.024 12.944V50H857.331V12.944H863.024ZM875.762 63.896C874.797 63.896 873.937 63.8156 873.181 63.6547C872.425 63.51 871.902 63.3652 871.613 63.2205L873.06 58.2025C874.444 58.5563 875.666 58.685 876.727 58.5885C877.789 58.492 878.73 58.0175 879.55 57.1651C880.386 56.3288 881.15 54.9697 881.842 53.088L882.903 50.193L869.2 12.944H875.376L885.605 42.473H885.991L896.22 12.944H902.396L886.667 55.404C885.959 57.3179 885.083 58.9021 884.037 60.1566C882.992 61.4272 881.778 62.3681 880.394 62.9792C879.027 63.5904 877.483 63.896 875.762 63.896ZM903.512 50V44.6925H904.863C905.973 44.6925 906.898 44.4754 907.638 44.0411C908.377 43.5908 908.973 42.8108 909.423 41.701C909.889 40.5752 910.243 39.0151 910.484 37.0208C910.742 35.0103 910.927 32.4531 911.039 29.349L911.715 12.944H936.419V50H930.725V18.2515H917.119L916.54 31.472C916.411 34.5118 916.138 37.1896 915.72 39.5056C915.317 41.8055 914.698 43.7355 913.862 45.2956C913.042 46.8557 911.948 48.0298 910.581 48.8179C909.214 49.606 907.501 50 905.442 50H903.512ZM952.558 41.6045L970.411 12.944H976.973V50H971.279V21.3395L953.523 50H946.865V12.944H952.558V41.6045ZM1002.45 50.772C998.981 50.772 995.989 49.9518 993.48 48.3113C990.971 46.6708 989.041 44.411 987.69 41.5321C986.339 38.6532 985.664 35.3642 985.664 31.665C985.664 27.9015 986.355 24.5803 987.739 21.7014C989.138 18.8064 991.084 16.5467 993.577 14.9223C996.086 13.2818 999.013 12.4615 1002.36 12.4615C1004.96 12.4615 1007.31 12.944 1009.4 13.909C1011.49 14.874 1013.21 16.225 1014.54 17.962C1015.88 19.699 1016.7 21.7255 1017.03 24.0415H1011.33C1010.9 22.3528 1009.93 20.857 1008.44 19.5543C1006.96 18.2354 1004.96 17.576 1002.45 17.576C1000.24 17.576 998.289 18.155 996.617 19.313C994.96 20.4549 993.665 22.0713 992.733 24.1621C991.816 26.2369 991.357 28.6735 991.357 31.472C991.357 34.3348 991.808 36.8278 992.708 38.9508C993.625 41.0738 994.912 42.7223 996.568 43.8964C998.241 45.0705 1000.2 45.6575 1002.45 45.6575C1003.93 45.6575 1005.28 45.4002 1006.48 44.8855C1007.69 44.3708 1008.71 43.631 1009.55 42.666C1010.38 41.701 1010.98 40.543 1011.33 39.192H1017.03C1016.7 41.3793 1015.91 43.3495 1014.64 45.1026C1013.38 46.8396 1011.72 48.2228 1009.64 49.2521C1007.59 50.2654 1005.19 50.772 1002.45 50.772ZM1030.27 26.3575H1040.89C1045.23 26.3575 1048.55 27.4592 1050.85 29.6626C1053.15 31.866 1054.3 34.6565 1054.3 38.034C1054.3 40.2535 1053.78 42.272 1052.76 44.0894C1051.73 45.8907 1050.21 47.3302 1048.22 48.4078C1046.23 49.4693 1043.78 50 1040.89 50H1025.35V12.944H1031.04V44.6925H1040.89C1043.14 44.6925 1044.99 44.0974 1046.43 42.9073C1047.88 41.7171 1048.61 40.1892 1048.61 38.3235C1048.61 36.3613 1047.88 34.761 1046.43 33.5226C1044.99 32.2842 1043.14 31.665 1040.89 31.665H1030.27V26.3575ZM1106.87 28.8665V34.174H1086.42V28.8665H1106.87ZM1087.77 12.944V50H1082.07V12.944H1087.77ZM1111.22 12.944V50H1105.52V12.944H1111.22ZM1137.15 50.772C1133.58 50.772 1130.5 49.9839 1127.91 48.4078C1125.34 46.8155 1123.35 44.596 1121.95 41.7493C1120.57 38.8864 1119.88 35.5572 1119.88 31.7615C1119.88 27.9658 1120.57 24.6205 1121.95 21.7255C1123.35 18.8144 1125.3 16.5467 1127.79 14.9223C1130.3 13.2818 1133.23 12.4615 1136.57 12.4615C1138.5 12.4615 1140.41 12.7832 1142.29 13.4265C1144.17 14.0698 1145.88 15.1153 1147.43 16.5628C1148.97 17.9942 1150.2 19.892 1151.12 22.2563C1152.04 24.6205 1152.49 27.5316 1152.49 30.9895V33.402H1123.93V28.4805H1146.7C1146.7 26.3897 1146.29 24.524 1145.45 22.8835C1144.63 21.243 1143.46 19.9483 1141.93 18.9994C1140.42 18.0505 1138.63 17.576 1136.57 17.576C1134.3 17.576 1132.34 18.1389 1130.69 19.2648C1129.04 20.3745 1127.78 21.822 1126.9 23.6073C1126.01 25.3925 1125.57 27.3064 1125.57 29.349V32.63C1125.57 35.4285 1126.05 37.8008 1127.02 39.7469C1128 41.6769 1129.36 43.1485 1131.1 44.1618C1132.83 45.1589 1134.85 45.6575 1137.15 45.6575C1138.65 45.6575 1140 45.4484 1141.2 45.0303C1142.43 44.596 1143.48 43.9527 1144.36 43.1003C1145.25 42.2318 1145.93 41.1542 1146.41 39.8675L1151.92 41.4115C1151.34 43.2772 1150.36 44.9177 1149 46.333C1147.63 47.7323 1145.94 48.8259 1143.93 49.614C1141.92 50.386 1139.66 50.772 1137.15 50.772ZM1165.3 50.386C1164.11 50.386 1163.09 49.9598 1162.24 49.1074C1161.39 48.255 1160.96 47.2337 1160.96 46.0435C1160.96 44.8533 1161.39 43.832 1162.24 42.9796C1163.09 42.1272 1164.11 41.701 1165.3 41.701C1166.49 41.701 1167.52 42.1272 1168.37 42.9796C1169.22 43.832 1169.65 44.8533 1169.65 46.0435C1169.65 46.8316 1169.45 47.5553 1169.04 48.2148C1168.66 48.8742 1168.14 49.4049 1167.48 49.807C1166.83 50.193 1166.11 50.386 1165.3 50.386ZM1184.01 50.386C1182.82 50.386 1181.8 49.9598 1180.95 49.1074C1180.1 48.255 1179.67 47.2337 1179.67 46.0435C1179.67 44.8533 1180.1 43.832 1180.95 42.9796C1181.8 42.1272 1182.82 41.701 1184.01 41.701C1185.2 41.701 1186.23 42.1272 1187.08 42.9796C1187.93 43.832 1188.36 44.8533 1188.36 46.0435C1188.36 46.8316 1188.16 47.5553 1187.75 48.2148C1187.37 48.8742 1186.84 49.4049 1186.18 49.807C1185.54 50.193 1184.82 50.386 1184.01 50.386ZM1202.72 50.386C1201.53 50.386 1200.51 49.9598 1199.66 49.1074C1198.81 48.255 1198.38 47.2337 1198.38 46.0435C1198.38 44.8533 1198.81 43.832 1199.66 42.9796C1200.51 42.1272 1201.53 41.701 1202.72 41.701C1203.91 41.701 1204.93 42.1272 1205.79 42.9796C1206.64 43.832 1207.06 44.8533 1207.06 46.0435C1207.06 46.8316 1206.86 47.5553 1206.46 48.2148C1206.08 48.8742 1205.55 49.4049 1204.89 49.807C1204.25 50.193 1203.53 50.386 1202.72 50.386Z" fill="#1D1D1D"/>
</svg>
