<svg width="848" height="299" viewBox="0 0 848 299" fill="none" xmlns="http://www.w3.org/2000/svg">
<path d="M26.857 0.154297V294H0.0263672V0.154297H26.857Z" fill="black"/>
<path d="M119.513 163.147V294H76.6127V73.6157H117.791V109.485H120.517C125.587 97.8158 133.526 88.4419 144.335 81.3636C155.239 74.2853 168.966 70.7461 185.513 70.7461C200.531 70.7461 213.683 73.9026 224.97 80.2157C236.257 86.4332 245.01 95.7115 251.227 108.051C257.444 120.39 260.553 135.647 260.553 153.821V294H217.653V158.986C217.653 143.012 213.492 130.529 205.17 121.538C196.848 112.451 185.418 107.907 170.879 107.907C160.931 107.907 152.083 110.059 144.335 114.364C136.683 118.668 130.609 124.981 126.113 133.303C121.713 141.529 119.513 151.477 119.513 163.147Z" fill="black"/>
<path d="M425.985 73.6157V113.79H299.293V73.6157H425.985ZM330.571 20.8153H382.511V227.712C382.511 234.695 383.563 240.052 385.667 243.782C387.867 247.417 390.737 249.904 394.276 251.243C397.815 252.582 401.737 253.252 406.041 253.252C409.293 253.252 412.259 253.013 414.937 252.534C417.711 252.056 419.815 251.626 421.25 251.243L430.002 291.848C427.228 292.804 423.259 293.856 418.093 295.004C413.024 296.152 406.806 296.822 399.441 297.013C386.432 297.395 374.715 295.435 364.289 291.13C353.862 286.73 345.589 279.939 339.467 270.756C333.441 261.573 330.475 250.095 330.571 236.321V20.8153Z" fill="black"/>
<path d="M567.563 298.304C544.893 298.304 525.38 293.713 509.023 284.53C492.762 275.252 480.232 262.147 471.432 245.217C462.632 228.191 458.232 208.056 458.232 184.812C458.232 162.142 462.632 142.247 471.432 125.125C480.232 108.003 492.619 94.6593 508.593 85.094C524.663 75.5287 543.506 70.7461 565.124 70.7461C579.663 70.7461 593.198 73.0896 605.728 77.7766C618.355 82.3679 629.355 89.3027 638.729 98.5811C648.198 107.859 655.563 119.529 660.824 133.59C666.085 147.555 668.716 163.912 668.716 182.66V199.447H482.623V161.568H611.181C611.181 152.768 609.268 144.973 605.441 138.181C601.615 131.39 596.307 126.081 589.515 122.255C582.82 118.333 575.024 116.373 566.128 116.373C556.85 116.373 548.624 118.525 541.45 122.829C534.371 127.038 528.824 132.729 524.806 139.903C520.789 146.981 518.732 154.873 518.636 163.577V199.59C518.636 210.495 520.645 219.917 524.663 227.856C528.776 235.795 534.563 241.917 542.024 246.221C549.484 250.526 558.332 252.678 568.567 252.678C575.359 252.678 581.576 251.721 587.22 249.808C592.863 247.895 597.694 245.026 601.711 241.199C605.728 237.373 608.789 232.686 610.894 227.139L667.424 230.869C664.555 244.452 658.672 256.313 649.776 266.452C640.976 276.495 629.594 284.339 615.628 289.982C601.759 295.53 585.737 298.304 567.563 298.304Z" fill="black"/>
<path d="M706.451 294V73.6157H774.603V113.79H776.899C780.917 99.2506 787.469 88.4419 796.556 81.3636C805.643 74.1896 816.212 70.6026 828.265 70.6026C831.517 70.6026 834.865 70.8418 838.308 71.32C841.752 71.7026 844.956 72.3244 847.921 73.1853V134.164C844.574 133.016 840.174 132.107 834.721 131.438C829.365 130.768 824.582 130.433 820.373 130.433C812.052 130.433 804.543 132.299 797.847 136.029C791.247 139.664 786.034 144.781 782.208 151.381C778.477 157.886 776.612 165.538 776.612 174.338V294H706.451Z" fill="black"/>
</svg>
