<svg width="1480" height="270" viewBox="0 0 1480 270" fill="none" xmlns="http://www.w3.org/2000/svg">
<g style="mix-blend-mode:luminosity">
<path d="M2.14282 254.801H41.4278L179.639 9.05293H140.354L142.497 5.38502H352.136L349.993 9.05293H310.708L203.21 98.5493V254.801H242.495L240.353 258.469H0L2.14282 254.801ZM167.497 122.024L302.851 9.05293H215.353L77.1414 254.801H167.497V122.024Z" fill="black"/>
<path d="M479.519 254.801H518.804L657.016 9.05293H617.731L619.874 5.38502H692.015C737.015 6.11861 778.799 22.6241 778.799 65.1716C778.799 111.02 731.3 148.066 649.159 148.066H618.088L558.089 254.801H600.946L598.803 258.469H477.377L479.519 254.801ZM743.086 65.1716C743.086 32.5274 732.015 11.9872 695.944 9.41971L620.231 144.398H650.945C685.23 144.398 743.086 129.726 743.086 65.1716Z" fill="black"/>
<path d="M932.46 124.224H937.817C937.817 245.998 861.747 262.137 823.534 262.137C772.463 262.137 757.463 240.13 757.463 207.852C757.463 119.823 863.176 1.71714 952.102 1.71714C978.888 1.71714 994.959 8.68612 1004.96 18.9562L1012.46 5.38502H1017.82L961.388 105.885L964.245 93.4143C980.316 22.9909 971.031 5.38502 949.96 5.38502C877.818 5.38502 788.534 158.703 788.534 232.06C788.534 246.732 793.534 257.736 825.319 257.736C861.033 257.736 932.46 239.396 932.46 124.224Z" fill="black"/>
<path d="M1187.86 254.801H1227.15L1365.36 9.05293H1326.07L1328.22 5.38502H1392.86C1438.21 5.75183 1480 20.0566 1480 56.0018C1480 95.9818 1436.79 121.657 1362.5 129.726C1414.29 137.796 1437.14 158.336 1437.14 188.046C1437.14 234.995 1386.07 258.469 1311.07 258.469H1185.72L1187.86 254.801ZM1440.71 56.0018C1440.71 30.6934 1431.79 14.188 1403.93 10.1533L1338.57 126.058H1352.15C1385 126.058 1440.71 112.854 1440.71 56.0018ZM1396.07 187.679C1396.43 170.44 1391.07 131.927 1336.79 129.726L1266.43 254.801H1297.5C1354.65 254.801 1395 241.23 1396.07 187.679Z" fill="black"/>
<path d="M265.887 135.812L360.305 259.79L328.101 150.551L482.845 5.15475L265.887 135.812ZM369.071 138.254L463.489 262.231L431.286 152.992L586.029 7.59612L369.071 138.254Z" fill="black"/>
<path d="M1262.82 116.163L1159.41 0L1199.69 106.375L1056.27 263.549L1262.82 116.163ZM1159.76 121.868L1056.35 5.70536L1096.63 112.081L953.213 269.254L1159.76 121.868Z" fill="black"/>
</g>
</svg>
