<svg width="1213" height="71" viewBox="0 0 1213 71" fill="none" xmlns="http://www.w3.org/2000/svg">
<path d="M53.0739 1.98076H46.1647V49.0363H53.0739V51H31.9826V49.0363H38.8918V1.98076H14.8186V49.0363H21.7278V51H0.636442V49.0363H7.54568V1.98076H0.636442V0.017078H53.0739V1.98076ZM64.0316 70.7822C62.3346 70.7822 60.9527 70.2974 59.886 69.3277C58.8193 68.4064 58.286 67.1216 58.286 65.473C58.286 64.1154 58.6739 63.0487 59.4496 62.273C60.1769 61.4002 61.0982 60.9639 62.2133 60.9639C63.28 60.9639 64.1528 61.279 64.8316 61.9093C65.5104 62.5396 65.8498 63.3639 65.8498 64.3821C65.8498 66.2246 65.074 67.461 63.5225 68.0913C63.7649 68.3822 64.2013 68.5277 64.8316 68.5277C67.6438 68.5277 70.6741 64.2124 73.9227 55.5819L75.3045 52.0909L60.3224 20.5993H54.8677V18.6357H73.4136V20.5993H67.7407L78.7228 44.3089L88.7594 20.5993H83.6684V18.6357H96.4686V20.5993H91.014L76.7591 54.2001C75.2076 57.788 74.2136 60.0669 73.7772 61.0366C73.0984 62.4427 72.5408 63.5336 72.1045 64.3094C71.6681 65.1336 71.0135 66.1276 70.1408 67.2913C69.3165 68.4549 68.3953 69.3277 67.3771 69.9095C66.3589 70.4913 65.2437 70.7822 64.0316 70.7822ZM98.6329 20.5993V18.6357H125.979V31.0723H124.015L121.252 20.5993H110.997V49.0363H116.815V51H98.6329V49.0363H104.088V20.5993H98.6329ZM148.094 17.9811C153.088 17.9811 157.064 19.5569 160.022 22.7085C162.979 25.8116 164.458 29.8117 164.458 34.7087C164.458 39.6058 162.931 43.6544 159.876 46.8545C156.822 50.006 152.894 51.5818 148.094 51.5818C143.003 51.5818 139.003 50.0545 136.094 46.9999C133.185 43.8968 131.73 39.824 131.73 34.7815C131.73 29.8359 133.233 25.8116 136.239 22.7085C139.294 19.5569 143.246 17.9811 148.094 17.9811ZM148.021 49.6182C149.718 49.6182 151.173 49.1333 152.385 48.1636C153.646 47.1454 154.591 45.8605 155.222 44.3089C155.852 42.7089 156.313 41.1331 156.603 39.5816C156.894 37.9815 157.04 36.3815 157.04 34.7815C157.04 33.1329 156.894 31.5329 156.603 29.9814C156.361 28.4298 155.925 26.854 155.294 25.254C154.712 23.654 153.791 22.3691 152.531 21.3994C151.318 20.4296 149.84 19.9448 148.094 19.9448C146.446 19.9448 144.991 20.4539 143.73 21.4721C142.518 22.4418 141.597 23.7267 140.967 25.3267C140.336 26.8783 139.876 28.4541 139.585 30.0541C139.294 31.6541 139.149 33.2299 139.149 34.7815C139.149 39.1452 139.924 42.6119 141.476 45.1817C143.027 48.1393 145.209 49.6182 148.021 49.6182ZM192.406 34.0542V34.3451C195.121 34.733 197.255 35.436 198.806 36.4542C200.746 37.8603 201.715 39.6301 201.715 41.7634C201.715 43.6059 201.255 45.1817 200.333 46.4908C199.461 47.7514 198.248 48.6969 196.697 49.3272C195.194 49.9091 193.691 50.3454 192.188 50.6364C190.685 50.8788 189.06 51 187.315 51H169.933V49.0363H175.387V20.5993H169.933V18.6357H187.388C196.309 18.6357 200.77 21.1569 200.77 26.1995C200.77 28.3813 199.945 30.1753 198.297 31.5814C196.648 32.939 194.685 33.7633 192.406 34.0542ZM187.024 20.5993H182.297V33.2542H187.315C191.485 33.2542 193.57 31.0238 193.57 26.5631C193.57 22.5873 191.388 20.5993 187.024 20.5993ZM182.297 35.2178V49.0363H186.879C188.333 49.0363 189.545 48.8181 190.515 48.3818C193.133 47.412 194.442 45.2059 194.442 41.7634C194.442 37.3997 192.091 35.2178 187.388 35.2178H182.297ZM246.432 18.6357V20.5993H240.977V49.0363H246.432V51H228.977V49.0363H234.068V26.4904L219.522 47.0726V49.0363H224.613V51H207.158V49.0363H212.613V20.5993H207.158V18.6357H224.613V20.5993H219.522V43.6544L234.068 23.0721V20.5993H228.977V18.6357H246.432ZM291.314 61.2548H289.35L286.659 51H252.258V49.0363H257.713V20.5993H252.258V18.6357H269.713V20.5993H264.622V49.0363H278.804V20.5993H273.713V18.6357H291.168V20.5993H285.714V49.0363H291.314V61.2548ZM342.002 20.5993V49.0363H347.093V51H329.638V49.0363H335.093V20.5993H329.638V18.6357H347.093V20.5993H342.002ZM315.674 18.6357V20.5993H310.22V33.1087C312.014 32.7208 314.099 32.5269 316.475 32.5269C324.669 32.5269 328.766 35.3875 328.766 41.1089C328.766 44.2605 327.626 46.709 325.347 48.4545C323.069 50.1515 320.329 51 317.129 51H297.856V49.0363H303.311V20.5993H297.856V18.6357H315.674ZM310.22 35.0724V49.0363H314.874C319.287 49.0363 321.493 46.4666 321.493 41.3271C321.493 39.1937 320.935 37.4967 319.82 36.236C318.656 35.0724 317.008 34.4906 314.874 34.4906C313.42 34.4906 311.868 34.6845 310.22 35.0724ZM391.771 34.0542V34.3451C394.486 34.733 396.62 35.436 398.171 36.4542C400.111 37.8603 401.08 39.6301 401.08 41.7634C401.08 43.6059 400.62 45.1817 399.698 46.4908C398.826 47.7514 397.614 48.6969 396.062 49.3272C394.559 49.9091 393.056 50.3454 391.553 50.6364C390.05 50.8788 388.426 51 386.68 51H369.298V49.0363H374.752V20.5993H369.298V18.6357H386.753C395.674 18.6357 400.135 21.1569 400.135 26.1995C400.135 28.3813 399.311 30.1753 397.662 31.5814C396.014 32.939 394.05 33.7633 391.771 34.0542ZM386.389 20.5993H381.662V33.2542H386.68C390.85 33.2542 392.935 31.0238 392.935 26.5631C392.935 22.5873 390.753 20.5993 386.389 20.5993ZM381.662 35.2178V49.0363H386.244C387.698 49.0363 388.91 48.8181 389.88 48.3818C392.498 47.412 393.807 45.2059 393.807 41.7634C393.807 37.3997 391.456 35.2178 386.753 35.2178H381.662ZM433.287 42.6362L434.742 43.5817C433.433 46.006 431.687 47.9454 429.505 49.4C427.323 50.8061 424.923 51.5091 422.305 51.5091C417.554 51.5091 413.723 49.9091 410.814 46.709C407.953 43.4604 406.523 39.4846 406.523 34.7815C406.523 29.8359 407.978 25.8116 410.887 22.7085C413.796 19.5569 417.651 17.9811 422.451 17.9811C424.73 17.9811 426.863 18.4417 428.851 19.363C430.839 20.2842 432.366 21.6418 433.433 23.4358C434.063 24.5025 434.378 25.5207 434.378 26.4904C434.378 27.5571 434.015 28.4783 433.287 29.2541C432.608 29.9814 431.736 30.345 430.669 30.345C429.651 30.345 428.802 30.0298 428.124 29.3995C427.493 28.7692 427.178 27.945 427.178 26.9268C427.178 25.2297 428.099 23.8479 429.942 22.7812C428.439 20.9387 426.257 20.0175 423.396 20.0175C421.602 20.0175 420.051 20.5024 418.741 21.4721C417.432 22.3933 416.438 23.6297 415.76 25.1813C415.129 26.6843 414.669 28.2359 414.378 29.8359C414.087 31.3875 413.941 33.0117 413.941 34.7087C413.941 38.5391 414.766 41.8604 416.414 44.6726C418.063 47.4363 420.632 48.8181 424.123 48.8181C427.905 48.8181 430.96 46.7575 433.287 42.6362ZM454.959 17.9811C459.178 17.9811 462.426 19.3145 464.705 21.9812C467.032 24.5994 468.196 28.0177 468.196 32.236H447.323C447.274 32.4784 447.25 32.8905 447.25 33.4723V34.7815C447.299 38.7573 448.074 42.0786 449.577 44.7453C451.129 47.412 453.723 48.7454 457.359 48.7454C461.578 48.7454 464.608 46.612 466.45 42.3453L468.051 43.5089C465.578 48.8909 461.408 51.5818 455.541 51.5818C450.644 51.5818 446.814 50.0303 444.05 46.9272C441.286 43.7756 439.904 39.7755 439.904 34.9269C439.904 30.2238 441.262 26.2237 443.977 22.9267C446.741 19.6296 450.402 17.9811 454.959 17.9811ZM447.541 30.2723H460.923C460.729 27.3631 460.196 25.1085 459.323 23.5085C458.159 21.0842 456.511 19.8721 454.377 19.8721C450.741 19.8721 448.462 23.3388 447.541 30.2723ZM502.046 49.0363V20.8903H493.682L491.355 31.2905H489.391V18.6357H521.61V31.2905H519.647L517.319 20.8903H508.955V49.0363H514.41V51H496.591V49.0363H502.046ZM525.242 70.055V68.0913H530.696V20.5993H525.242V18.6357H530.769L537.605 17.6175V25.3267C539.545 20.4296 543.278 17.9811 548.806 17.9811C553.557 17.9811 557.072 19.4842 559.351 22.4903C561.679 25.4479 562.842 29.3268 562.842 34.1269C562.842 38.7331 561.509 42.8059 558.842 46.3454C556.176 49.8363 552.636 51.5818 548.224 51.5818C543.23 51.5818 539.69 49.4485 537.605 45.1817V68.0913H543.424V70.055H525.242ZM537.605 32.4541V38.8543C537.605 41.2786 538.478 43.5817 540.224 45.7635C542.018 47.8969 544.103 48.9636 546.478 48.9636C548.66 48.9636 550.454 48.1151 551.86 46.4181C553.315 44.7211 554.26 42.8544 554.697 40.818C555.182 38.7816 555.424 36.6724 555.424 34.4906C555.424 32.842 555.303 31.2905 555.06 29.8359C554.818 28.3813 554.382 26.9268 553.751 25.4722C553.169 24.0176 552.272 22.8539 551.06 21.9812C549.848 21.1084 548.369 20.6721 546.624 20.6721C544.006 20.6721 541.848 21.9569 540.151 24.5267C538.454 27.048 537.605 29.6904 537.605 32.4541ZM607.945 18.6357V20.5993H602.49V49.0363H607.945V51H590.49V49.0363H595.581V26.4904L581.035 47.0726V49.0363H586.126V51H568.671V49.0363H574.126V20.5993H568.671V18.6357H586.126V20.5993H581.035V43.6544L595.581 23.0721V20.5993H590.49V18.6357H607.945ZM633.152 29.6177H631.188V18.7084H633.152L634.025 21.9812C636.012 19.3145 639.116 17.9811 643.334 17.9811C644.352 17.9811 645.54 18.1023 646.898 18.3447C649.467 18.9751 651.358 20.1872 652.57 21.9812C653.152 22.9024 653.443 24.0903 653.443 25.5449C653.443 27.9692 652.595 29.8601 650.898 31.2178C649.249 32.5269 647.14 33.3511 644.57 33.6905V33.9814C647.285 34.1754 649.661 34.8784 651.698 36.0906C653.783 37.3027 654.825 39.121 654.825 41.5452C654.825 43.8726 654.098 45.8363 652.643 47.4363C651.189 48.9878 649.467 50.0788 647.479 50.7091C645.54 51.2909 643.407 51.5818 641.079 51.5818C638.316 51.5818 635.794 51 633.515 49.8363C631.285 48.6727 630.17 46.8302 630.17 44.3089C630.17 43.2423 630.509 42.3695 631.188 41.6907C631.915 40.9634 632.812 40.5998 633.879 40.5998C634.994 40.5998 635.843 40.9149 636.425 41.5452C636.958 42.2241 637.225 43.0483 637.225 44.018C637.225 44.8908 637.006 45.6423 636.57 46.2726C636.085 46.9029 635.455 47.3636 634.679 47.6545C635.94 48.9151 637.782 49.5454 640.206 49.5454C642.582 49.5454 644.401 48.8666 645.661 47.509C646.922 46.1029 647.552 44.212 647.552 41.8362C647.552 37.327 645.104 35.0724 640.206 35.0724H638.17V33.036H640.716C642.461 33.036 643.819 32.3572 644.788 30.9996C645.807 29.642 646.316 28.0662 646.316 26.2722C646.316 22.1509 644.497 20.0902 640.861 20.0902C638.679 20.0902 636.958 21.06 635.697 22.9994C634.437 24.8903 633.588 27.0965 633.152 29.6177ZM672.438 33.3269C675.154 33.3269 677.481 33.6905 679.42 34.4178V25.6904C679.42 23.7024 678.96 22.2479 678.039 21.3266C677.166 20.3569 675.736 19.8721 673.748 19.8721C671.372 19.8721 669.384 20.5024 667.784 21.763C668.414 21.9569 669.044 22.3691 669.675 22.9994C670.208 23.6782 670.475 24.5509 670.475 25.6176C670.475 26.6843 670.135 27.5571 669.457 28.2359C668.778 28.9147 667.905 29.2541 666.838 29.2541C665.772 29.2541 664.923 28.8904 664.293 28.1631C663.614 27.4843 663.275 26.5874 663.275 25.4722C663.275 23.1449 664.56 21.3266 667.129 20.0175C669.748 18.6599 672.366 17.9811 674.984 17.9811C682.548 17.9811 686.33 20.7933 686.33 26.4176V45.4726C686.33 47.5575 687.105 48.5999 688.657 48.5999C689.384 48.5999 690.063 48.3333 690.693 47.7999C691.178 47.3151 691.615 46.806 692.003 46.2726L693.166 47.4363C691.275 50.2 688.972 51.5818 686.257 51.5818C684.851 51.5818 683.59 51.2909 682.475 50.7091C681.36 50.1757 680.463 49.1818 679.784 47.7272C676.778 50.3454 673.481 51.6546 669.893 51.6546C667.129 51.6546 664.826 50.8545 662.984 49.2545C661.19 47.606 660.293 45.4241 660.293 42.7089C660.293 39.4604 661.456 37.0845 663.784 35.5815C666.16 34.0784 669.044 33.3269 672.438 33.3269ZM667.566 41.8362C667.566 43.8726 668.075 45.4726 669.093 46.6363C670.16 47.7999 671.687 48.3818 673.675 48.3818C674.839 48.3818 675.881 48.1636 676.802 47.7272C677.723 47.3878 678.596 46.8302 679.42 46.0544V36.236C678.499 35.8966 677.578 35.6057 676.657 35.3633C675.784 35.2178 674.814 35.1451 673.748 35.1451C671.711 35.1451 670.16 35.7512 669.093 36.9633C668.075 38.127 667.566 39.7513 667.566 41.8362ZM722.853 42.6362L724.308 43.5817C722.999 46.006 721.253 47.9454 719.071 49.4C716.889 50.8061 714.489 51.5091 711.871 51.5091C707.12 51.5091 703.289 49.9091 700.38 46.709C697.519 43.4604 696.089 39.4846 696.089 34.7815C696.089 29.8359 697.544 25.8116 700.453 22.7085C703.362 19.5569 707.216 17.9811 712.017 17.9811C714.295 17.9811 716.429 18.4417 718.417 19.363C720.405 20.2842 721.932 21.6418 722.999 23.4358C723.629 24.5025 723.944 25.5207 723.944 26.4904C723.944 27.5571 723.58 28.4783 722.853 29.2541C722.174 29.9814 721.302 30.345 720.235 30.345C719.217 30.345 718.368 30.0298 717.689 29.3995C717.059 28.7692 716.744 27.945 716.744 26.9268C716.744 25.2297 717.665 23.8479 719.508 22.7812C718.005 20.9387 715.823 20.0175 712.962 20.0175C711.168 20.0175 709.617 20.5024 708.307 21.4721C706.998 22.3933 706.004 23.6297 705.326 25.1813C704.695 26.6843 704.235 28.2359 703.944 29.8359C703.653 31.3875 703.507 33.0117 703.507 34.7087C703.507 38.5391 704.332 41.8604 705.98 44.6726C707.629 47.4363 710.198 48.8181 713.689 48.8181C717.471 48.8181 720.526 46.7575 722.853 42.6362ZM741.398 49.0363V20.8903H733.034L730.707 31.2905H728.743V18.6357H760.962V31.2905H758.998L756.671 20.8903H748.307V49.0363H753.762V51H735.943V49.0363H741.398ZM781.103 17.9811C785.321 17.9811 788.57 19.3145 790.848 21.9812C793.176 24.5994 794.339 28.0177 794.339 32.236H773.466C773.418 32.4784 773.394 32.8905 773.394 33.4723V34.7815C773.442 38.7573 774.218 42.0786 775.721 44.7453C777.272 47.412 779.866 48.7454 783.503 48.7454C787.721 48.7454 790.751 46.612 792.594 42.3453L794.194 43.5089C791.721 48.8909 787.551 51.5818 781.685 51.5818C776.788 51.5818 772.957 50.0303 770.193 46.9272C767.43 43.7756 766.048 39.7755 766.048 34.9269C766.048 30.2238 767.405 26.2237 770.121 22.9267C772.884 19.6296 776.545 17.9811 781.103 17.9811ZM773.684 30.2723H787.067C786.873 27.3631 786.339 25.1085 785.466 23.5085C784.303 21.0842 782.654 19.8721 780.521 19.8721C776.884 19.8721 774.606 23.3388 773.684 30.2723ZM799.5 20.5993V18.6357H826.846V31.0723H824.883L822.119 20.5993H811.864V49.0363H817.682V51H799.5V49.0363H804.955V20.5993H799.5ZM871.871 18.6357V20.5993H866.416V49.0363H871.871V51H854.416V49.0363H859.507V35.9451H844.961V49.0363H850.052V51H832.598V49.0363H838.052V20.5993H832.598V18.6357H850.052V20.5993H844.961V33.9814H859.507V20.5993H854.416V18.6357H871.871ZM883.225 70.7822C881.528 70.7822 880.147 70.2974 879.08 69.3277C878.013 68.4064 877.48 67.1216 877.48 65.473C877.48 64.1154 877.868 63.0487 878.643 62.273C879.371 61.4002 880.292 60.9639 881.407 60.9639C882.474 60.9639 883.347 61.279 884.025 61.9093C884.704 62.5396 885.044 63.3639 885.044 64.3821C885.044 66.2246 884.268 67.461 882.716 68.0913C882.959 68.3822 883.395 68.5277 884.025 68.5277C886.838 68.5277 889.868 64.2124 893.116 55.5819L894.498 52.0909L879.516 20.5993H874.062V18.6357H892.607V20.5993H886.935L897.917 44.3089L907.953 20.5993H902.862V18.6357H915.662V20.5993H910.208L895.953 54.2001C894.401 57.788 893.407 60.0669 892.971 61.0366C892.292 62.4427 891.735 63.5336 891.298 64.3094C890.862 65.1336 890.207 66.1276 889.335 67.2913C888.51 68.4549 887.589 69.3277 886.571 69.9095C885.553 70.4913 884.438 70.7822 883.225 70.7822ZM918.932 51.5818C917.38 51.5818 916.12 51.1939 915.15 50.4182C914.229 49.6424 913.768 48.503 913.768 46.9999C913.768 45.8363 914.107 44.8665 914.786 44.0908C915.514 43.2665 916.459 42.8544 917.623 42.8544C918.641 42.8544 919.441 43.1695 920.023 43.7998C920.653 44.3817 920.968 45.1817 920.968 46.1999C920.968 47.6545 920.314 48.6484 919.005 49.1818C919.102 49.2788 919.295 49.3272 919.586 49.3272C921.72 49.3272 923.417 47.8969 924.677 45.0362C924.871 44.4059 925.09 43.5574 925.332 42.4907C925.817 39.0482 926.205 34.5633 926.496 29.0359C926.496 28.5995 926.496 27.9692 926.496 27.1449C926.544 26.3207 926.593 25.7146 926.641 25.3267C926.69 24.8903 926.714 24.2358 926.714 23.363C926.762 22.4418 926.787 21.763 926.787 21.3266L920.386 20.5993V18.6357H950.787V20.5993H945.332V49.0363H950.787V51H933.332V49.0363H938.423V20.5993H929.114C929.065 21.5206 928.993 22.8539 928.896 24.5994C928.847 25.5691 928.774 26.7813 928.677 28.2359C928.677 28.6722 928.653 29.2783 928.605 30.0541C928.605 30.8299 928.581 31.4117 928.532 31.7996C928.387 34.0299 928.241 36.0179 928.096 37.7633C927.95 39.2664 927.805 40.5513 927.659 41.618C927.514 42.6362 927.223 43.8241 926.787 45.1817C926.399 46.5393 925.89 47.6545 925.259 48.5272C924.677 49.3515 923.829 50.0788 922.714 50.7091C921.647 51.2909 920.386 51.5818 918.932 51.5818ZM995.88 18.6357V20.5993H990.425V49.0363H995.88V51H978.425V49.0363H983.516V26.4904L968.97 47.0726V49.0363H974.061V51H956.606V49.0363H962.061V20.5993H956.606V18.6357H974.061V20.5993H968.97V43.6544L983.516 23.0721V20.5993H978.425V18.6357H995.88ZM1028.47 42.6362L1029.93 43.5817C1028.62 46.006 1026.87 47.9454 1024.69 49.4C1022.51 50.8061 1020.11 51.5091 1017.49 51.5091C1012.74 51.5091 1008.91 49.9091 1006 46.709C1003.14 43.4604 1001.71 39.4846 1001.71 34.7815C1001.71 29.8359 1003.16 25.8116 1006.07 22.7085C1008.98 19.5569 1012.83 17.9811 1017.63 17.9811C1019.91 17.9811 1022.05 18.4417 1024.03 19.363C1026.02 20.2842 1027.55 21.6418 1028.62 23.4358C1029.25 24.5025 1029.56 25.5207 1029.56 26.4904C1029.56 27.5571 1029.2 28.4783 1028.47 29.2541C1027.79 29.9814 1026.92 30.345 1025.85 30.345C1024.83 30.345 1023.99 30.0298 1023.31 29.3995C1022.68 28.7692 1022.36 27.945 1022.36 26.9268C1022.36 25.2297 1023.28 23.8479 1025.13 22.7812C1023.62 20.9387 1021.44 20.0175 1018.58 20.0175C1016.79 20.0175 1015.23 20.5024 1013.92 21.4721C1012.62 22.3933 1011.62 23.6297 1010.94 25.1813C1010.31 26.6843 1009.85 28.2359 1009.56 29.8359C1009.27 31.3875 1009.12 33.0117 1009.12 34.7087C1009.12 38.5391 1009.95 41.8604 1011.6 44.6726C1013.25 47.4363 1015.82 48.8181 1019.31 48.8181C1023.09 48.8181 1026.14 46.7575 1028.47 42.6362ZM1052.91 18.6357V20.5993H1047.45V33.1087C1049 32.7208 1051.14 32.5269 1053.85 32.5269C1055.45 32.5269 1056.93 32.6481 1058.29 32.8905C1059.69 33.1329 1061.05 33.5451 1062.36 34.1269C1063.72 34.7087 1064.79 35.6057 1065.56 36.8179C1066.34 37.9815 1066.72 39.4119 1066.72 41.1089C1066.72 44.4544 1065.54 46.9514 1063.16 48.5999C1060.83 50.2 1057.9 51 1054.36 51H1035.09V49.0363H1040.54V20.5993H1035.09V18.6357H1052.91ZM1047.45 35.1451V49.0363H1052.11C1054.48 49.0363 1056.3 48.3575 1057.56 46.9999C1058.82 45.5938 1059.45 43.7029 1059.45 41.3271C1059.45 36.7694 1057.15 34.4906 1052.54 34.4906C1051.23 34.4906 1049.54 34.7087 1047.45 35.1451ZM1127.49 18.6357V20.5993H1122.03V49.0363H1127.49V51H1110.03V49.0363H1115.12V35.9451H1100.58V49.0363H1105.67V51H1088.21V49.0363H1093.67V20.5993H1088.21V18.6357H1105.67V20.5993H1100.58V33.9814H1115.12V20.5993H1110.03V18.6357H1127.49ZM1148.37 17.9811C1152.59 17.9811 1155.84 19.3145 1158.11 21.9812C1160.44 24.5994 1161.61 28.0177 1161.61 32.236H1140.73C1140.68 32.4784 1140.66 32.8905 1140.66 33.4723V34.7815C1140.71 38.7573 1141.48 42.0786 1142.99 44.7453C1144.54 47.412 1147.13 48.7454 1150.77 48.7454C1154.99 48.7454 1158.02 46.612 1159.86 42.3453L1161.46 43.5089C1158.99 48.8909 1154.82 51.5818 1148.95 51.5818C1144.05 51.5818 1140.22 50.0303 1137.46 46.9272C1134.7 43.7756 1133.31 39.7755 1133.31 34.9269C1133.31 30.2238 1134.67 26.2237 1137.39 22.9267C1140.15 19.6296 1143.81 17.9811 1148.37 17.9811ZM1140.95 30.2723H1154.33C1154.14 27.3631 1153.61 25.1085 1152.73 23.5085C1151.57 21.0842 1149.92 19.8721 1147.79 19.8721C1144.15 19.8721 1141.87 23.3388 1140.95 30.2723ZM1168.66 50.4182C1167.88 49.5939 1167.49 48.5515 1167.49 47.2908C1167.49 46.0302 1167.88 45.012 1168.66 44.2362C1169.48 43.412 1170.52 42.9998 1171.78 42.9998C1173.09 42.9998 1174.14 43.3877 1174.91 44.1635C1175.69 44.9393 1176.08 45.9817 1176.08 47.2908C1176.08 48.5515 1175.66 49.5939 1174.84 50.4182C1174.06 51.1939 1173.05 51.5818 1171.78 51.5818C1170.52 51.5818 1169.48 51.1939 1168.66 50.4182ZM1186.69 50.4182C1185.92 49.5939 1185.53 48.5515 1185.53 47.2908C1185.53 46.0302 1185.92 45.012 1186.69 44.2362C1187.52 43.412 1188.56 42.9998 1189.82 42.9998C1191.13 42.9998 1192.17 43.3877 1192.95 44.1635C1193.72 44.9393 1194.11 45.9817 1194.11 47.2908C1194.11 48.5515 1193.7 49.5939 1192.88 50.4182C1192.1 51.1939 1191.08 51.5818 1189.82 51.5818C1188.56 51.5818 1187.52 51.1939 1186.69 50.4182ZM1204.73 50.4182C1203.96 49.5939 1203.57 48.5515 1203.57 47.2908C1203.57 46.0302 1203.96 45.012 1204.73 44.2362C1205.56 43.412 1206.6 42.9998 1207.86 42.9998C1209.17 42.9998 1210.21 43.3877 1210.99 44.1635C1211.76 44.9393 1212.15 45.9817 1212.15 47.2908C1212.15 48.5515 1211.74 49.5939 1210.91 50.4182C1210.14 51.1939 1209.12 51.5818 1207.86 51.5818C1206.6 51.5818 1205.56 51.1939 1204.73 50.4182Z" fill="#1D1D1D"/>
</svg>
