<svg width="1506" height="1019" viewBox="0 0 1506 1019" fill="none" xmlns="http://www.w3.org/2000/svg">
<path d="M927 1007.28V932H991.525V942.754H1002.28V975.016H980.771V985.771H991.525V996.525H1002.28V1007.28H970.016V996.525H959.262V985.771H948.508V1007.28H927ZM948.508 975.016H970.016V964.262H980.771V942.754H948.508V975.016Z" fill="white"/>
<path d="M1021.55 1007.28V996.525H1010.8V964.262H1021.55V953.508H1075.32V964.262H1086.07V985.771H1032.3V996.525H1075.32V1007.28H1021.55ZM1032.3 975.016H1064.57V964.262H1032.3V975.016Z" fill="white"/>
<path d="M1105.35 1018.03V1007.28H1148.36V996.525H1105.35V985.771H1094.59V964.262H1105.35V953.508H1169.87V1007.28H1159.12V1018.03H1105.35ZM1116.1 985.771H1148.36V964.262H1116.1V985.771Z" fill="white"/>
<path d="M1189.14 1007.28V996.525H1178.39V953.508H1199.9V996.525H1232.16V953.508H1253.67V1007.28H1189.14Z" fill="white"/>
<path d="M1272.94 1007.28V996.525H1294.45V942.754H1283.69V932H1315.95V996.525H1337.46V1007.28H1272.94Z" fill="white"/>
<path d="M1356.73 1007.28V996.525H1345.98V985.771H1356.73V975.016H1399.75V964.262H1356.73V953.508H1410.5V964.262H1421.26V1007.28H1356.73ZM1367.49 996.525H1399.75V985.771H1367.49V996.525Z" fill="white"/>
<path d="M1462.04 964.262H1472.79V975.016H1462.04V1007.28H1440.53V953.508H1462.04V964.262ZM1505.05 953.508V964.262H1472.79V953.508H1505.05Z" fill="white"/>
<path d="M101.771 713.23V611.459H0V509.688H101.771V407.916H508.856V306.145H101.771V204.374H610.627V306.145H712.398V713.23H101.771ZM203.542 611.459H508.856V509.688H203.542V611.459Z" fill="white"/>
<path d="M793 713.23V204.374H894.772V102.603H996.543V0.832031H1301.86V102.603H1403.63V204.374H1505.4V713.23H1301.86V509.688H996.543V713.23H793ZM996.543 407.916H1301.86V204.374H1200.08V102.603H1098.31V204.374H996.543V407.916Z" fill="white"/>
</svg>
