<svg width="1202" height="71" viewBox="0 0 1202 71" fill="none" xmlns="http://www.w3.org/2000/svg">
<path d="M32.1238 6.39408H7.0444V55H0.599845V0.648333H38.5684V55H32.1238V6.39408ZM62.5747 41.3344L64.7488 48.7884H65.137L66.8452 41.2568L74.3768 16.1774H80.666L69.1745 51.0401C68.2946 53.5765 67.4146 56.0353 66.5346 58.4164C65.7064 60.7975 64.7746 62.9198 63.7394 64.7833C62.7041 66.6468 61.5394 68.122 60.2453 69.2091C58.9512 70.3479 57.4501 70.9173 55.7419 70.9173C53.8784 70.9173 52.3514 70.6585 51.1608 70.1408L52.2479 64.7833C52.9208 65.0421 53.5678 65.1715 54.189 65.1715C55.6384 65.1715 57.036 64.3951 58.3818 62.8422C59.7277 61.341 60.8406 58.727 61.7206 55L46.1139 16.1774H53.2573L62.5747 41.3344ZM110.002 21.6125H93.5412V55H87.3296V16.1774H110.002V21.6125ZM112.604 35.5887C112.604 29.0147 114.054 23.9937 116.952 20.5255C119.903 17.0056 124.122 15.2456 129.609 15.2456C132.507 15.2456 135.018 15.7374 137.14 16.7209C139.314 17.6526 141.1 19.0244 142.498 20.8361C143.895 22.5961 144.931 24.7442 145.604 27.2806C146.276 29.7653 146.613 32.5346 146.613 35.5887C146.613 42.1627 145.138 47.2096 142.187 50.7295C139.288 54.1977 135.096 55.9317 129.609 55.9317C126.71 55.9317 124.173 55.4659 121.999 54.5341C119.877 53.5506 118.117 52.1789 116.72 50.4189C115.322 48.6072 114.287 46.459 113.614 43.9744C112.941 41.438 112.604 38.6427 112.604 35.5887ZM119.049 35.5887C119.049 37.5557 119.23 39.4451 119.592 41.2568C120.006 43.0685 120.628 44.6473 121.456 45.9932C122.284 47.339 123.371 48.426 124.717 49.2543C126.063 50.0825 127.693 50.4966 129.609 50.4966C136.648 50.5483 140.168 45.579 140.168 35.5887C140.168 33.5699 139.961 31.6547 139.547 29.8429C139.185 28.0312 138.59 26.4524 137.761 25.1066C136.933 23.7607 135.846 22.6996 134.5 21.9231C133.154 21.0949 131.524 20.6808 129.609 20.6808C122.569 20.629 119.049 25.5983 119.049 35.5887ZM156.407 16.255C158.218 16.1515 160.108 16.0221 162.075 15.8668C164.093 15.7115 166.578 15.6339 169.529 15.6339C174.653 15.6339 178.328 16.4362 180.554 18.0409C182.78 19.5938 183.893 21.9749 183.893 25.1842C183.893 26.996 183.349 28.7818 182.262 30.5417C181.227 32.2499 179.493 33.5182 177.06 34.3464V34.6569C180.114 35.2263 182.262 36.2875 183.505 37.8404C184.747 39.3933 185.368 41.4638 185.368 44.052C185.368 48.0896 183.919 51.0142 181.02 52.8259C178.121 54.6377 173.773 55.5435 167.976 55.5435C165.802 55.5435 163.783 55.4659 161.919 55.3106C160.056 55.2071 158.218 55.0776 156.407 54.9224V16.255ZM162.618 49.7978C163.602 49.9013 164.559 49.9789 165.491 50.0307C166.475 50.0825 167.613 50.1084 168.907 50.1084C172.376 50.1084 174.938 49.6166 176.594 48.6331C178.302 47.6496 179.157 45.9673 179.157 43.5862C179.157 41.7227 178.432 40.2215 176.983 39.0827C175.585 37.8922 173.074 37.2969 169.451 37.2969H162.618V49.7978ZM170.227 32.5605C171.159 32.5605 172.065 32.4052 172.945 32.0947C173.825 31.7841 174.601 31.37 175.274 30.8523C175.999 30.2829 176.568 29.6359 176.983 28.9112C177.448 28.1865 177.681 27.4101 177.681 26.5818C177.681 24.5113 177.06 23.0878 175.818 22.3114C174.576 21.4831 172.401 21.069 169.296 21.069C167.639 21.069 166.319 21.0949 165.336 21.1467C164.404 21.1984 163.498 21.2502 162.618 21.302V32.5605H170.227ZM219.379 32.017L219.612 27.203H219.379L216.195 32.1723L198.725 55H195.153V16.1774H201.365V39.8592L201.132 44.4402H201.443L204.471 39.6262L221.941 16.1774H225.59V55H219.379V32.017ZM272.402 64.8609H268.21L267.045 55H237.54V16.1774H243.751V49.5648H260.6V16.1774H266.812V49.5648H272.402V64.8609ZM286.289 49.5648C288.205 49.8754 290.042 50.0307 291.802 50.0307C295.063 50.0307 297.341 49.4095 298.635 48.1672C299.929 46.8731 300.576 45.0614 300.576 42.7321C300.576 40.6615 299.929 38.9533 298.635 37.6075C297.393 36.2616 295.193 35.5887 292.035 35.5887C291.155 35.5887 290.198 35.6146 289.162 35.6663C288.127 35.7181 287.169 35.8734 286.289 36.1322V49.5648ZM286.289 31.0076C287.532 30.8006 288.722 30.6712 289.861 30.6194C291 30.5159 292.087 30.4641 293.122 30.4641C295.762 30.4641 297.962 30.7747 299.722 31.3958C301.534 31.9652 302.983 32.7676 304.07 33.8029C305.157 34.8381 305.908 36.0804 306.322 37.5298C306.788 38.9274 307.021 40.4286 307.021 42.0332C307.021 46.7437 305.701 50.1601 303.061 52.2824C300.473 54.4047 296.254 55.4659 290.405 55.4659C287.092 55.4659 283.649 55.3106 280.078 55V16.1774H286.289V31.0076ZM313.155 16.1774H319.366V55H313.155V16.1774ZM352.036 16.255C353.848 16.1515 355.737 16.0221 357.704 15.8668C359.723 15.7115 362.208 15.6339 365.158 15.6339C370.283 15.6339 373.958 16.4362 376.184 18.0409C378.41 19.5938 379.523 21.9749 379.523 25.1842C379.523 26.996 378.979 28.7818 377.892 30.5417C376.857 32.2499 375.123 33.5182 372.69 34.3464V34.6569C375.744 35.2263 377.892 36.2875 379.134 37.8404C380.377 39.3933 380.998 41.4638 380.998 44.052C380.998 48.0896 379.548 51.0142 376.65 52.8259C373.751 54.6377 369.403 55.5435 363.605 55.5435C361.431 55.5435 359.412 55.4659 357.549 55.3106C355.685 55.2071 353.848 55.0776 352.036 54.9224V16.255ZM358.248 49.7978C359.231 49.9013 360.189 49.9789 361.121 50.0307C362.104 50.0825 363.243 50.1084 364.537 50.1084C368.005 50.1084 370.567 49.6166 372.224 48.6331C373.932 47.6496 374.786 45.9673 374.786 43.5862C374.786 41.7227 374.061 40.2215 372.612 39.0827C371.214 37.8922 368.704 37.2969 365.081 37.2969H358.248V49.7978ZM365.857 32.5605C366.789 32.5605 367.695 32.4052 368.575 32.0947C369.455 31.7841 370.231 31.37 370.904 30.8523C371.629 30.2829 372.198 29.6359 372.612 28.9112C373.078 28.1865 373.311 27.4101 373.311 26.5818C373.311 24.5113 372.69 23.0878 371.447 22.3114C370.205 21.4831 368.031 21.069 364.925 21.069C363.269 21.069 361.949 21.0949 360.965 21.1467C360.034 21.1984 359.128 21.2502 358.248 21.302V32.5605H365.857ZM417.26 52.4377C415.707 53.5765 413.869 54.4306 411.747 55C409.625 55.6212 407.399 55.9317 405.07 55.9317C402.067 55.9317 399.531 55.4659 397.46 54.5341C395.39 53.5506 393.682 52.1789 392.336 50.4189C391.042 48.6072 390.084 46.459 389.463 43.9744C388.894 41.438 388.609 38.6427 388.609 35.5887C388.609 29.0147 390.058 23.9937 392.957 20.5255C395.856 17.0056 400.023 15.2456 405.458 15.2456C407.943 15.2456 410.039 15.4527 411.747 15.8668C413.507 16.2291 415.086 16.7727 416.483 17.4974L414.698 22.8549C413.507 22.1819 412.187 21.6643 410.738 21.302C409.288 20.8879 407.735 20.6808 406.079 20.6808C398.729 20.6808 395.053 25.6501 395.053 35.5887C395.053 37.5557 395.235 39.4451 395.597 41.2568C396.011 43.0168 396.658 44.5955 397.538 45.9932C398.47 47.339 399.66 48.426 401.11 49.2543C402.611 50.0825 404.448 50.4966 406.623 50.4966C408.486 50.4966 410.142 50.2119 411.592 49.6425C413.093 49.0731 414.309 48.426 415.241 47.7013L417.26 52.4377ZM452.335 51.8942C450.782 53.1365 448.815 54.12 446.434 54.8447C444.105 55.5694 441.62 55.9317 438.98 55.9317C436.029 55.9317 433.467 55.4659 431.293 54.5341C429.119 53.5506 427.333 52.1789 425.936 50.4189C424.538 48.6072 423.503 46.459 422.83 43.9744C422.157 41.4897 421.82 38.6945 421.82 35.5887C421.82 28.963 423.296 23.916 426.246 20.4479C429.197 16.9797 433.415 15.2456 438.902 15.2456C440.662 15.2456 442.422 15.4527 444.182 15.8668C445.942 16.2291 447.521 16.9538 448.919 18.0409C450.316 19.1279 451.455 20.6808 452.335 22.6996C453.215 24.6666 453.655 27.2806 453.655 30.5417C453.655 32.2499 453.5 34.1393 453.189 36.2099H428.265C428.265 38.4874 428.498 40.5062 428.964 42.2662C429.43 44.0261 430.154 45.5273 431.138 46.7696C432.121 47.9602 433.39 48.8919 434.942 49.5648C436.547 50.186 438.488 50.4966 440.766 50.4966C442.526 50.4966 444.286 50.186 446.046 49.5648C447.806 48.9437 449.126 48.219 450.006 47.3908L452.335 51.8942ZM438.98 20.6808C435.926 20.6808 433.467 21.4831 431.604 23.0878C429.792 24.6925 428.705 27.4359 428.343 31.3182H447.599C447.599 27.3842 446.848 24.6407 445.347 23.0878C443.846 21.4831 441.723 20.6808 438.98 20.6808ZM506.995 21.6125H494.883V55H488.671V21.6125H476.558V16.1774H506.995V21.6125ZM513.165 16.1774H517.436L518.6 20.8361H518.911C520.101 19.0244 521.628 17.6526 523.492 16.7209C525.407 15.7374 527.581 15.2456 530.014 15.2456C535.191 15.2456 539.047 16.7727 541.583 19.8267C544.12 22.8808 545.388 27.8759 545.388 34.8122C545.388 38.0733 544.948 41.0239 544.068 43.6638C543.24 46.252 542.049 48.4519 540.496 50.2636C538.943 52.0754 537.054 53.473 534.828 54.4565C532.654 55.44 530.221 55.9317 527.53 55.9317C525.614 55.9317 524.087 55.8023 522.948 55.5435C521.861 55.3365 520.671 54.9482 519.377 54.3788V70.529H513.165V16.1774ZM528.849 20.6808C526.21 20.6808 524.113 21.3796 522.56 22.7772C521.059 24.1231 519.998 26.1936 519.377 28.9888V48.2449C520.309 48.9696 521.37 49.539 522.56 49.9531C523.751 50.3154 525.33 50.4966 527.297 50.4966C530.868 50.4966 533.689 49.1766 535.76 46.5367C537.882 43.845 538.943 39.9109 538.943 34.7346C538.943 32.6123 538.762 30.697 538.4 28.9888C538.038 27.2289 537.442 25.7536 536.614 24.5631C535.838 23.3207 534.802 22.3631 533.508 21.6902C532.266 21.0173 530.713 20.6808 528.849 20.6808ZM579.398 32.017L579.631 27.203H579.398L576.214 32.1723L558.744 55H555.172V16.1774H561.384V39.8592L561.151 44.4402H561.462L564.49 39.6262L581.96 16.1774H585.609V55H579.398V32.017ZM621.986 37.6851V32.6382H627.421C628.353 32.6382 629.259 32.4829 630.139 32.1723C631.071 31.8617 631.899 31.4476 632.624 30.93C633.348 30.3606 633.918 29.7135 634.332 28.9888C634.798 28.2124 635.031 27.4101 635.031 26.5818C635.031 24.5631 634.332 23.1396 632.934 22.3114C631.537 21.4831 629.44 21.069 626.645 21.069C624.626 21.069 622.763 21.3796 621.054 22.0008C619.398 22.6219 618.104 23.2172 617.172 23.7866L615.386 18.9726C616.939 18.0926 618.751 17.3162 620.821 16.6433C622.944 15.9703 625.454 15.6339 628.353 15.6339C636.946 15.6339 641.242 18.8173 641.242 25.1842C641.242 26.996 640.647 28.7818 639.456 30.5417C638.318 32.2499 636.661 33.4664 634.487 34.1911V34.5017C637.541 35.0711 639.663 36.1581 640.854 37.7628C642.096 39.3674 642.717 41.4897 642.717 44.1297C642.717 45.7861 642.381 47.3131 641.708 48.7107C641.035 50.1084 640.026 51.3248 638.68 52.3601C637.334 53.3953 635.626 54.2235 633.555 54.8447C631.537 55.4141 629.181 55.6988 626.49 55.6988C623.85 55.6988 621.65 55.4659 619.89 55C618.182 54.5341 616.629 53.9647 615.231 53.2918L617.017 48.1672C618.207 48.8401 619.631 49.3578 621.287 49.7201C622.996 50.0825 624.833 50.2636 626.8 50.2636C629.958 50.2636 632.365 49.7201 634.021 48.6331C635.678 47.5461 636.506 45.8896 636.506 43.6638C636.506 41.8003 635.729 40.3509 634.176 39.3157C632.624 38.2286 630.061 37.6851 626.49 37.6851H621.986ZM651.911 19.0503C653.878 17.8597 656.156 16.9797 658.744 16.4103C661.384 15.8409 664.127 15.5562 666.974 15.5562C669.666 15.5562 671.814 15.9186 673.419 16.6433C675.075 17.3679 676.318 18.3256 677.146 19.5161C678.026 20.6549 678.595 21.9231 678.854 23.3207C679.165 24.7184 679.32 26.116 679.32 27.5136C679.32 30.6194 679.242 33.6476 679.087 36.5981C678.932 39.5486 678.854 42.3438 678.854 44.9838C678.854 46.899 678.932 48.7107 679.087 50.4189C679.242 52.1271 679.527 53.7059 679.941 55.1553H675.36L673.729 49.7201H673.341C672.875 50.4448 672.28 51.1695 671.555 51.8942C670.882 52.5671 670.054 53.1883 669.071 53.7577C668.087 54.2753 666.948 54.7153 665.654 55.0776C664.36 55.44 662.885 55.6212 661.229 55.6212C659.572 55.6212 658.019 55.3623 656.57 54.8447C655.172 54.3271 653.956 53.6024 652.92 52.6706C651.885 51.6871 651.057 50.5225 650.436 49.1766C649.866 47.8308 649.582 46.3037 649.582 44.5955C649.582 42.3179 650.048 40.4286 650.979 38.9274C651.911 37.3745 653.205 36.1581 654.862 35.2781C656.57 34.3464 658.589 33.6993 660.918 33.337C663.299 32.9229 665.913 32.7158 668.76 32.7158C669.485 32.7158 670.184 32.7158 670.857 32.7158C671.581 32.7158 672.306 32.7676 673.031 32.8711C673.186 31.3182 673.264 29.9206 673.264 28.6783C673.264 25.8313 672.694 23.8384 671.555 22.6996C670.417 21.5608 668.346 20.9914 665.344 20.9914C664.464 20.9914 663.506 21.069 662.471 21.2243C661.487 21.3278 660.452 21.509 659.365 21.7678C658.33 21.9749 657.32 22.2596 656.337 22.6219C655.405 22.9325 654.577 23.2949 653.852 23.709L651.911 19.0503ZM662.937 50.186C664.386 50.186 665.68 50.0048 666.819 49.6425C667.958 49.2284 668.941 48.7366 669.77 48.1672C670.598 47.5461 671.271 46.8731 671.788 46.1484C672.358 45.4238 672.772 44.7249 673.031 44.052V37.6075C672.306 37.5557 671.555 37.5298 670.779 37.5298C670.054 37.4781 669.33 37.4522 668.605 37.4522C667 37.4522 665.421 37.5557 663.868 37.7628C662.367 37.918 661.021 38.2545 659.831 38.7721C658.692 39.238 657.76 39.9109 657.036 40.7909C656.363 41.6191 656.026 42.6803 656.026 43.9744C656.026 45.7861 656.673 47.2872 657.967 48.4778C659.262 49.6166 660.918 50.186 662.937 50.186ZM717.529 52.4377C715.976 53.5765 714.138 54.4306 712.016 55C709.893 55.6212 707.668 55.9317 705.338 55.9317C702.336 55.9317 699.8 55.4659 697.729 54.5341C695.659 53.5506 693.95 52.1789 692.604 50.4189C691.31 48.6072 690.353 46.459 689.732 43.9744C689.162 41.438 688.877 38.6427 688.877 35.5887C688.877 29.0147 690.327 23.9937 693.226 20.5255C696.124 17.0056 700.291 15.2456 705.727 15.2456C708.211 15.2456 710.308 15.4527 712.016 15.8668C713.776 16.2291 715.355 16.7727 716.752 17.4974L714.966 22.8549C713.776 22.1819 712.456 21.6643 711.006 21.302C709.557 20.8879 708.004 20.6808 706.348 20.6808C698.997 20.6808 695.322 25.6501 695.322 35.5887C695.322 37.5557 695.503 39.4451 695.866 41.2568C696.28 43.0168 696.927 44.5955 697.807 45.9932C698.738 47.339 699.929 48.426 701.378 49.2543C702.88 50.0825 704.717 50.4966 706.891 50.4966C708.755 50.4966 710.411 50.2119 711.86 49.6425C713.362 49.0731 714.578 48.426 715.51 47.7013L717.529 52.4377ZM749.561 21.6125H737.448V55H731.237V21.6125H719.124V16.1774H749.561V21.6125ZM782.858 51.8942C781.305 53.1365 779.338 54.12 776.957 54.8447C774.628 55.5694 772.143 55.9317 769.503 55.9317C766.552 55.9317 763.99 55.4659 761.816 54.5341C759.642 53.5506 757.856 52.1789 756.459 50.4189C755.061 48.6072 754.026 46.459 753.353 43.9744C752.68 41.4897 752.343 38.6945 752.343 35.5887C752.343 28.963 753.819 23.916 756.769 20.4479C759.72 16.9797 763.938 15.2456 769.425 15.2456C771.185 15.2456 772.945 15.4527 774.705 15.8668C776.465 16.2291 778.044 16.9538 779.442 18.0409C780.839 19.1279 781.978 20.6808 782.858 22.6996C783.738 24.6666 784.178 27.2806 784.178 30.5417C784.178 32.2499 784.023 34.1393 783.712 36.2099H758.788C758.788 38.4874 759.021 40.5062 759.487 42.2662C759.953 44.0261 760.677 45.5273 761.661 46.7696C762.644 47.9602 763.913 48.8919 765.465 49.5648C767.07 50.186 769.011 50.4966 771.289 50.4966C773.049 50.4966 774.809 50.186 776.569 49.5648C778.329 48.9437 779.649 48.219 780.529 47.3908L782.858 51.8942ZM769.503 20.6808C766.449 20.6808 763.99 21.4831 762.127 23.0878C760.315 24.6925 759.228 27.4359 758.866 31.3182H778.122C778.122 27.3842 777.371 24.6407 775.87 23.0878C774.369 21.4831 772.246 20.6808 769.503 20.6808ZM816.619 21.6125H800.158V55H793.947V16.1774H816.619V21.6125ZM846.368 37.8404H828.82V55H822.609V16.1774H828.82V32.4052H846.368V16.1774H852.58V55H846.368V37.8404ZM875.954 41.3344L878.128 48.7884H878.516L880.224 41.2568L887.756 16.1774H894.045L882.554 51.0401C881.674 53.5765 880.794 56.0353 879.914 58.4164C879.086 60.7975 878.154 62.9198 877.119 64.7833C876.083 66.6468 874.919 68.122 873.625 69.2091C872.331 70.3479 870.829 70.9173 869.121 70.9173C867.258 70.9173 865.731 70.6585 864.54 70.1408L865.627 64.7833C866.3 65.0421 866.947 65.1715 867.568 65.1715C869.018 65.1715 870.415 64.3951 871.761 62.8422C873.107 61.341 874.22 58.727 875.1 55L859.493 16.1774H866.637L875.954 41.3344ZM920.534 21.6125H909.275C909.12 23.7866 908.965 26.1419 908.809 28.6783C908.654 31.1629 908.421 33.6734 908.111 36.2099C907.8 38.6945 907.386 41.1015 906.868 43.4309C906.351 45.7085 905.678 47.7272 904.85 49.4872C904.073 51.2471 903.09 52.6706 901.899 53.7577C900.76 54.7929 899.389 55.3106 897.784 55.3106C896.8 55.3106 895.946 55.2588 895.222 55.1553C894.497 55.0518 893.85 54.8706 893.28 54.6118L894.212 49.4095C894.833 49.6166 895.506 49.7201 896.231 49.7201C897.266 49.7201 898.198 49.2801 899.026 48.4002C899.854 47.5202 900.579 45.8637 901.2 43.4309C901.821 40.9462 902.339 37.5298 902.753 33.1817C903.167 28.8336 903.452 23.1655 903.607 16.1774H926.746V55H920.534V21.6125ZM962.923 32.017L963.156 27.203H962.923L959.739 32.1723L942.269 55H938.697V16.1774H944.909V39.8592L944.676 44.4402H944.987L948.015 39.6262L965.485 16.1774H969.134V55H962.923V32.017ZM1007.56 52.4377C1006.01 53.5765 1004.17 54.4306 1002.05 55C999.926 55.6212 997.7 55.9317 995.371 55.9317C992.368 55.9317 989.832 55.4659 987.761 54.5341C985.691 53.5506 983.983 52.1789 982.637 50.4189C981.343 48.6072 980.385 46.459 979.764 43.9744C979.194 41.438 978.91 38.6427 978.91 35.5887C978.91 29.0147 980.359 23.9937 983.258 20.5255C986.157 17.0056 990.324 15.2456 995.759 15.2456C998.243 15.2456 1000.34 15.4527 1002.05 15.8668C1003.81 16.2291 1005.39 16.7727 1006.78 17.4974L1005 22.8549C1003.81 22.1819 1002.49 21.6643 1001.04 21.302C999.589 20.8879 998.036 20.6808 996.38 20.6808C989.03 20.6808 985.354 25.6501 985.354 35.5887C985.354 37.5557 985.536 39.4451 985.898 41.2568C986.312 43.0168 986.959 44.5955 987.839 45.9932C988.771 47.339 989.961 48.426 991.411 49.2543C992.912 50.0825 994.749 50.4966 996.923 50.4966C998.787 50.4966 1000.44 50.2119 1001.89 49.6425C1003.39 49.0731 1004.61 48.426 1005.54 47.7013L1007.56 52.4377ZM1022.33 49.5648C1024.24 49.8754 1026.08 50.0307 1027.84 50.0307C1031.1 50.0307 1033.51 49.4095 1035.06 48.1672C1036.61 46.8731 1037.39 45.0614 1037.39 42.7321C1037.39 40.6615 1036.64 38.9533 1035.14 37.6075C1033.64 36.2616 1031.28 35.5887 1028.07 35.5887C1027.19 35.5887 1026.23 35.6146 1025.2 35.6663C1024.16 35.7181 1023.21 35.8734 1022.33 36.1322V49.5648ZM1022.33 31.0076C1023.57 30.8006 1024.76 30.6712 1025.9 30.6194C1027.04 30.5159 1028.12 30.4641 1029.16 30.4641C1031.85 30.4641 1034.13 30.7747 1035.99 31.3958C1037.86 31.9652 1039.36 32.7676 1040.5 33.8029C1041.69 34.8381 1042.54 36.0804 1043.06 37.5298C1043.58 38.9274 1043.83 40.4286 1043.83 42.0332C1043.83 46.7437 1042.41 50.1601 1039.56 52.2824C1036.77 54.4047 1032.39 55.4659 1026.44 55.4659C1023.13 55.4659 1019.69 55.3106 1016.12 55V16.1774H1022.33V31.0076ZM1093.86 37.8404H1076.31V55H1070.1V16.1774H1076.31V32.4052H1093.86V16.1774H1100.07V55H1093.86V37.8404ZM1140.37 51.8942C1138.82 53.1365 1136.85 54.12 1134.47 54.8447C1132.14 55.5694 1129.66 55.9317 1127.02 55.9317C1124.07 55.9317 1121.51 55.4659 1119.33 54.5341C1117.16 53.5506 1115.37 52.1789 1113.98 50.4189C1112.58 48.6072 1111.54 46.459 1110.87 43.9744C1110.2 41.4897 1109.86 38.6945 1109.86 35.5887C1109.86 28.963 1111.34 23.916 1114.29 20.4479C1117.24 16.9797 1121.46 15.2456 1126.94 15.2456C1128.7 15.2456 1130.46 15.4527 1132.22 15.8668C1133.98 16.2291 1135.56 16.9538 1136.96 18.0409C1138.36 19.1279 1139.49 20.6808 1140.37 22.6996C1141.25 24.6666 1141.69 27.2806 1141.69 30.5417C1141.69 32.2499 1141.54 34.1393 1141.23 36.2099H1116.3C1116.3 38.4874 1116.54 40.5062 1117 42.2662C1117.47 44.0261 1118.19 45.5273 1119.18 46.7696C1120.16 47.9602 1121.43 48.8919 1122.98 49.5648C1124.59 50.186 1126.53 50.4966 1128.81 50.4966C1130.57 50.4966 1132.33 50.186 1134.09 49.5648C1135.85 48.9437 1137.17 48.219 1138.05 47.3908L1140.37 51.8942ZM1127.02 20.6808C1123.97 20.6808 1121.51 21.4831 1119.64 23.0878C1117.83 24.6925 1116.74 27.4359 1116.38 31.3182H1135.64C1135.64 27.3842 1134.89 24.6407 1133.39 23.0878C1131.89 21.4831 1129.76 20.6808 1127.02 20.6808ZM1149.29 51.4283C1149.29 50.0307 1149.68 48.9437 1150.45 48.1672C1151.28 47.339 1152.37 46.9249 1153.72 46.9249C1155.11 46.9249 1156.23 47.339 1157.05 48.1672C1157.88 48.9437 1158.3 50.0307 1158.3 51.4283C1158.3 52.7742 1157.88 53.8612 1157.05 54.6894C1156.23 55.5176 1155.11 55.9317 1153.72 55.9317C1152.37 55.9317 1151.28 55.5176 1150.45 54.6894C1149.68 53.8612 1149.29 52.7742 1149.29 51.4283ZM1170.98 51.4283C1170.98 50.0307 1171.36 48.9437 1172.14 48.1672C1172.97 47.339 1174.06 46.9249 1175.4 46.9249C1176.8 46.9249 1177.91 47.339 1178.74 48.1672C1179.57 48.9437 1179.98 50.0307 1179.98 51.4283C1179.98 52.7742 1179.57 53.8612 1178.74 54.6894C1177.91 55.5176 1176.8 55.9317 1175.4 55.9317C1174.06 55.9317 1172.97 55.5176 1172.14 54.6894C1171.36 53.8612 1170.98 52.7742 1170.98 51.4283ZM1192.66 51.4283C1192.66 50.0307 1193.05 48.9437 1193.83 48.1672C1194.65 47.339 1195.74 46.9249 1197.09 46.9249C1198.49 46.9249 1199.6 47.339 1200.43 48.1672C1201.25 48.9437 1201.67 50.0307 1201.67 51.4283C1201.67 52.7742 1201.25 53.8612 1200.43 54.6894C1199.6 55.5176 1198.49 55.9317 1197.09 55.9317C1195.74 55.9317 1194.65 55.5176 1193.83 54.6894C1193.05 53.8612 1192.66 52.7742 1192.66 51.4283Z" fill="#1D1D1D"/>
</svg>
