<svg width="1444" height="295" viewBox="0 0 1444 295" fill="none" xmlns="http://www.w3.org/2000/svg">
<path d="M0.34375 9.00238C10.5794 6.57815 21.6231 4.962 33.4748 4.15392C45.3266 3.34585 57.0437 2.94182 68.6261 2.94182C81.0166 2.94182 93.5418 4.15393 106.202 6.57814C119.131 9.00237 130.848 13.4468 141.353 19.9114C151.858 26.376 160.343 35.2648 166.807 46.5779C173.541 57.8909 176.908 72.3016 176.908 89.8099C176.908 107.049 173.811 121.594 167.615 133.446C161.42 145.298 153.205 154.995 142.969 162.537C132.733 169.809 121.016 175.062 107.818 178.294C94.6192 181.526 81.0166 183.143 67.0099 183.143C65.6632 183.143 63.3736 183.143 60.1413 183.143C57.1784 183.143 53.9461 183.143 50.4444 183.143C47.2121 182.873 43.9798 182.604 40.7475 182.335C37.5152 182.065 35.2257 181.796 33.8789 181.526V289H0.34375V9.00238ZM69.4342 32.0325C62.4309 32.0325 55.6969 32.1672 49.2323 32.4366C42.7677 32.7059 37.6499 33.3793 33.8789 34.4567V151.628C35.2257 152.166 37.3805 152.57 40.3435 152.84C43.3064 152.84 46.404 152.974 49.6363 153.244C52.8686 153.244 55.9663 153.244 58.9292 153.244C61.8921 153.244 64.047 153.244 65.3938 153.244C74.552 153.244 83.5755 152.436 92.4643 150.82C101.623 148.934 109.838 145.702 117.111 141.123C124.383 136.544 130.175 130.079 134.484 121.729C139.063 113.379 141.353 102.739 141.353 89.8099C141.353 78.7662 139.198 69.608 134.888 62.3353C130.848 54.7933 125.326 48.8674 118.323 44.5577C111.589 39.9786 103.912 36.7463 95.2926 34.8608C86.6731 32.9753 78.0537 32.0325 69.4342 32.0325Z" fill="black"/>
<path d="M402.349 36.0729H314.268V289H280.733V36.0729H192.653V6.1741H402.349V36.0729Z" fill="black"/>
<path d="M663.474 213.041C663.474 204.422 660.241 197.419 653.777 192.031C647.581 186.644 639.635 181.796 629.938 177.486C620.511 172.907 610.141 168.328 598.828 163.749C587.784 158.9 577.414 153.109 567.717 146.375C558.289 139.372 550.343 130.752 543.878 120.517C537.683 110.281 534.586 97.2173 534.586 81.3251C534.586 67.5878 536.875 55.7361 541.454 45.7698C546.033 35.5342 552.498 27.0494 560.848 20.3154C569.467 13.5815 579.568 8.59833 591.151 5.36604C602.733 2.13374 615.662 0.517578 629.938 0.517578C646.369 0.517578 661.857 1.99905 676.403 4.96201C690.948 7.65559 702.935 11.696 712.362 17.0831L694.989 63.5475C689.063 59.7764 680.174 56.4095 668.322 53.4465C656.47 50.2142 643.676 48.5981 629.938 48.5981C617.009 48.5981 607.043 51.157 600.04 56.2748C593.306 61.3926 589.939 68.2612 589.939 76.8807C589.939 84.9614 593.036 91.6954 599.232 97.0826C605.696 102.47 613.642 107.453 623.07 112.032C632.767 116.611 643.137 121.325 654.181 126.173C665.494 131.022 675.864 136.948 685.292 143.951C694.989 150.685 702.935 159.17 709.13 169.405C715.594 179.372 718.827 191.897 718.827 206.981C718.827 222.065 716.268 235.129 711.15 246.172C706.302 256.947 699.298 265.97 690.14 273.243C681.251 280.516 670.342 285.903 657.413 289.404C644.753 292.906 630.747 294.657 615.393 294.657C595.191 294.657 577.414 292.771 562.06 289C546.707 285.229 535.394 281.458 528.121 277.687L545.899 230.415C548.862 232.031 552.633 233.782 557.212 235.667C562.06 237.553 567.447 239.304 573.373 240.92C579.299 242.536 585.494 243.883 591.959 244.96C598.693 246.038 605.562 246.576 612.565 246.576C628.996 246.576 641.521 243.883 650.14 238.496C659.029 232.839 663.474 224.354 663.474 213.041Z" fill="black"/>
<path d="M895.098 226.375H808.23L786.816 289H731.462L833.28 4.15392H874.088L975.905 289H917.724L895.098 226.375ZM822.371 181.93H882.977L861.967 118.901L853.482 74.4565H851.462L842.977 119.305L822.371 181.93Z" fill="black"/>
<path d="M1070.64 141.527L1048.42 97.0826H1046.4L1052.86 141.527V289H1000.34V4.15392H1040.74L1147.81 154.86L1169.22 198.092H1171.24L1164.78 154.86V6.1741H1217.31V291.021H1176.9L1070.64 141.527Z" fill="black"/>
<path d="M1387.9 213.041C1387.9 204.422 1384.67 197.419 1378.2 192.031C1372.01 186.644 1364.06 181.796 1354.37 177.486C1344.94 172.907 1334.57 168.328 1323.25 163.749C1312.21 158.9 1301.84 153.109 1292.14 146.375C1282.72 139.372 1274.77 130.752 1268.31 120.517C1262.11 110.281 1259.01 97.2173 1259.01 81.3251C1259.01 67.5878 1261.3 55.7361 1265.88 45.7698C1270.46 35.5342 1276.92 27.0494 1285.28 20.3154C1293.89 13.5815 1304 8.59833 1315.58 5.36604C1327.16 2.13374 1340.09 0.517578 1354.37 0.517578C1370.8 0.517578 1386.28 1.99905 1400.83 4.96201C1415.38 7.65559 1427.36 11.696 1436.79 17.0831L1419.42 63.5475C1413.49 59.7764 1404.6 56.4095 1392.75 53.4465C1380.9 50.2142 1368.1 48.5981 1354.37 48.5981C1341.44 48.5981 1331.47 51.157 1324.47 56.2748C1317.73 61.3926 1314.37 68.2612 1314.37 76.8807C1314.37 84.9614 1317.46 91.6954 1323.66 97.0826C1330.12 102.47 1338.07 107.453 1347.5 112.032C1357.19 116.611 1367.56 121.325 1378.61 126.173C1389.92 131.022 1400.29 136.948 1409.72 143.951C1419.42 150.685 1427.36 159.17 1433.56 169.405C1440.02 179.372 1443.25 191.897 1443.25 206.981C1443.25 222.065 1440.69 235.129 1435.58 246.172C1430.73 256.947 1423.73 265.97 1414.57 273.243C1405.68 280.516 1394.77 285.903 1381.84 289.404C1369.18 292.906 1355.17 294.657 1339.82 294.657C1319.62 294.657 1301.84 292.771 1286.49 289C1271.13 285.229 1259.82 281.458 1252.55 277.687L1270.33 230.415C1273.29 232.031 1277.06 233.782 1281.64 235.667C1286.49 237.553 1291.87 239.304 1297.8 240.92C1303.73 242.536 1309.92 243.883 1316.39 244.96C1323.12 246.038 1329.99 246.576 1336.99 246.576C1353.42 246.576 1365.95 243.883 1374.57 238.496C1383.46 232.839 1387.9 224.354 1387.9 213.041Z" fill="black"/>
</svg>
