<svg width="27" height="24" viewBox="0 0 27 24" fill="none" xmlns="http://www.w3.org/2000/svg">
<path d="M9.93871 13.8146L7.71046 7.30888L5.24347 13.8146H9.93871ZM1.04561 19.8428L6.5267 4.9911H8.90416L14.2062 19.8428H12.0376L10.4958 15.3664H4.74609L3.1147 19.8428H1.04561ZM15.8376 12.3821C15.8575 11.7322 15.9802 11.1851 16.2057 10.7408C16.4311 10.2898 16.7362 9.92508 17.1208 9.64655C17.5055 9.36802 17.9597 9.16907 18.4836 9.0497C19.0142 8.9237 19.5911 8.86069 20.2145 8.86069C20.7318 8.86069 21.2325 8.91375 21.7166 9.01985C22.2073 9.12596 22.6417 9.29839 23.0197 9.53713C23.3977 9.76924 23.6995 10.0743 23.9249 10.4523C24.1571 10.8237 24.2731 11.2779 24.2731 11.8151V18.0124C24.2731 18.1849 24.3195 18.3341 24.4124 18.4601C24.5052 18.5794 24.6544 18.6391 24.86 18.6391C24.9529 18.6391 25.049 18.6325 25.1485 18.6192C25.248 18.5993 25.3508 18.5794 25.4569 18.5595V19.8229C25.3043 19.8627 25.1518 19.8991 24.9993 19.9323C24.8534 19.9655 24.6776 19.982 24.4721 19.982C24.1537 19.982 23.8785 19.9555 23.6464 19.9025C23.4209 19.8494 23.2286 19.7632 23.0695 19.6438C22.9169 19.5178 22.7976 19.3587 22.7113 19.1663C22.6251 18.9674 22.5688 18.7253 22.5422 18.4402C22.3168 18.6855 22.078 18.9143 21.826 19.1266C21.574 19.3321 21.2922 19.5145 20.9805 19.6737C20.6688 19.8262 20.3206 19.9456 19.936 20.0318C19.5513 20.1246 19.117 20.171 18.6329 20.171C18.2217 20.171 17.8205 20.1047 17.4292 19.9721C17.0446 19.8395 16.6964 19.6438 16.3847 19.3852C16.0797 19.1266 15.8343 18.8082 15.6486 18.4302C15.4629 18.0456 15.3701 17.6013 15.3701 17.0973C15.3701 16.5468 15.4629 16.0727 15.6486 15.6748C15.8343 15.2702 16.0763 14.9353 16.3748 14.6701C16.6732 14.3982 17.0147 14.1893 17.3994 14.0434C17.784 13.8975 18.1753 13.8013 18.5732 13.7549L21.5674 13.3868C21.8525 13.3537 22.0747 13.2442 22.2339 13.0586C22.3997 12.8662 22.4826 12.5612 22.4826 12.1434C22.4826 11.5001 22.2703 11.0392 21.8459 10.7607C21.4281 10.4755 20.8246 10.3329 20.0355 10.3329C19.2264 10.3329 18.6229 10.5054 18.225 10.8502C17.8271 11.1884 17.6016 11.6991 17.5486 12.3821H15.8376ZM22.4428 14.4214C22.2969 14.5275 22.1145 14.617 21.8956 14.69C21.6834 14.7563 21.448 14.8126 21.1894 14.8591C20.9307 14.9055 20.6555 14.9486 20.3637 14.9884C20.0719 15.0215 19.7801 15.058 19.4883 15.0978C19.1568 15.1442 18.8517 15.2105 18.5732 15.2967C18.2946 15.383 18.0526 15.4957 17.847 15.635C17.6414 15.7742 17.4823 15.9433 17.3695 16.1423C17.2568 16.3346 17.2004 16.5634 17.2004 16.8287C17.2004 17.1337 17.2468 17.4023 17.3397 17.6344C17.4391 17.8665 17.5718 18.0622 17.7376 18.2213C17.91 18.3805 18.1156 18.4999 18.3543 18.5794C18.5931 18.659 18.855 18.6988 19.1402 18.6988C19.3192 18.6988 19.5248 18.6789 19.7569 18.6391C19.989 18.5927 20.2278 18.5264 20.4731 18.4402C20.7185 18.354 20.9573 18.2445 21.1894 18.1119C21.4281 17.9726 21.6403 17.8068 21.826 17.6145C22.0117 17.4222 22.1609 17.2034 22.2737 16.958C22.3864 16.7126 22.4428 16.4374 22.4428 16.1323V14.4214Z" fill="#EDEEEA"/>
</svg>
