<svg width="37" height="25" viewBox="0 0 37 25" fill="none" xmlns="http://www.w3.org/2000/svg">
<path d="M0.931641 24.1643H4.6625L8.35643 0L12.0504 24.1643H15.7812L12.0873 0H4.62557L0.931641 24.1643Z" fill="white"/>
<path d="M17.4562 24.1643H23.2556C28.1686 24.1643 29.0182 18.6065 28.7227 15.0854L32.5274 24.1643H36.4799L26.3955 0H22.443C23.2556 1.27726 23.8467 4.5567 23.8467 6.04108C23.8467 13.1523 16.348 14.9128 16.348 20.7468C16.348 21.955 16.6805 23.1632 17.4562 24.1643ZM20.0419 19.9528C20.0419 15.6032 25.1395 12.0131 24.6593 5.31615C26.2108 9.04436 27.7992 12.2893 27.7992 16.3972C27.7992 19.0898 26.9496 23.1287 23.2556 23.1287C21.187 23.1287 20.0419 21.8169 20.0419 19.9528Z" fill="white"/>
</svg>
