<svg width="41" height="25" viewBox="0 0 41 25" fill="none" xmlns="http://www.w3.org/2000/svg">
<path d="M1.08206 23.8505C0.825613 23.8505 0.604142 23.8041 0.417639 23.7111C0.254448 23.6414 0.172852 23.5019 0.172852 23.2927C0.172852 23.0603 0.24279 22.8976 0.382667 22.8047C0.545858 22.6884 0.755675 22.5955 1.01212 22.5258C1.68819 22.3398 2.27102 22.0493 2.76059 21.6542C3.27347 21.2591 3.65814 20.771 3.91458 20.1899C4.4974 18.8884 5.04525 17.6101 5.55814 16.355C6.07102 15.0767 6.57225 13.8217 7.06182 12.5898C7.55139 11.3348 8.04096 10.0681 8.53054 8.78979C9.02011 7.48825 9.50968 6.17508 9.99925 4.85029C10.3489 3.89737 10.5704 3.21174 10.6637 2.79338C10.7569 2.35179 10.8269 2.09613 10.8735 2.0264C11.2931 1.91019 11.6894 1.8056 12.0624 1.71264C12.4355 1.61967 12.8318 1.49184 13.2514 1.32915C13.671 1.16645 14.0207 0.957275 14.3005 0.701613C14.6036 0.445953 14.825 0.248397 14.9649 0.108945C15.0582 0.0392199 15.1514 0.00435776 15.2447 0.00435776C15.3379 -0.0188838 15.4312 0.0508417 15.5244 0.213534C15.5944 0.352985 15.6526 0.504057 15.6993 0.666751C15.7692 0.806202 15.8275 0.968896 15.8741 1.15483C16.3637 2.71204 16.8649 4.30411 17.3778 5.93104C17.8907 7.53473 18.4036 9.13842 18.9164 10.7421C19.4526 12.3458 19.9772 13.9379 20.4901 15.5183C21.003 17.0755 21.5042 18.5979 21.9937 20.0854C22.1336 20.5502 22.3434 20.9453 22.6232 21.2707C22.9263 21.5961 23.2643 21.8517 23.6373 22.0377C24.0103 22.2236 24.4299 22.3863 24.8962 22.5258C25.1526 22.5955 25.3508 22.6884 25.4907 22.8047C25.6539 22.8976 25.7355 23.0487 25.7355 23.2579C25.7355 23.4206 25.6655 23.5484 25.5257 23.6414C25.3858 23.7343 25.2226 23.7808 25.0361 23.7808C24.5698 23.7808 23.987 23.7576 23.2876 23.7111C22.6115 23.6878 21.9238 23.6646 21.2244 23.6414C20.525 23.6181 19.9072 23.6065 19.371 23.6065C18.9281 23.6065 18.3802 23.6181 17.7275 23.6414C17.098 23.6646 16.4569 23.6878 15.8042 23.7111C15.1514 23.7343 14.5919 23.746 14.1256 23.746C13.9158 23.746 13.7293 23.7111 13.5661 23.6414C13.4263 23.5484 13.3563 23.4206 13.3563 23.2579C13.3563 23.0487 13.4379 22.886 13.6011 22.7698C13.7643 22.6536 13.9624 22.5722 14.1956 22.5258C15.0582 22.3398 15.6876 22.0958 16.0839 21.7936C16.4802 21.4915 16.6085 21.0383 16.4686 20.434C16.3753 19.9924 16.2588 19.5275 16.1189 19.0395C15.979 18.5514 15.8391 18.0633 15.6993 17.5752C15.5827 17.0639 15.4545 16.5758 15.3146 16.111C15.268 15.9251 15.2097 15.7856 15.1398 15.6926C15.0698 15.5997 14.9299 15.5532 14.7201 15.5532H8.53054C8.36735 15.5532 8.23912 15.5997 8.14587 15.6926C8.05262 15.7856 7.98268 15.9367 7.93606 16.1459C7.84281 16.4712 7.7379 16.7966 7.62133 17.122C7.50477 17.4474 7.3882 17.7728 7.27164 18.0982C7.17839 18.4236 7.08513 18.7489 6.99188 19.0743C6.89863 19.3997 6.80538 19.7135 6.71213 20.0156C6.54894 20.7129 6.61888 21.2475 6.92194 21.6193C7.22501 21.9912 7.87777 22.2933 8.88023 22.5258C9.43974 22.642 9.7195 22.886 9.7195 23.2579C9.7195 23.4206 9.64956 23.5484 9.50968 23.6414C9.39311 23.7111 9.19495 23.746 8.9152 23.746C8.23912 23.746 7.60967 23.7227 7.02685 23.6762C6.44403 23.653 5.80292 23.6414 5.10354 23.6414C4.40415 23.6414 3.73973 23.6762 3.11028 23.746C2.48083 23.8157 1.80476 23.8505 1.08206 23.8505ZM9.50968 13.6706H14.0557C14.4054 13.6706 14.5802 13.5892 14.5802 13.4266C14.5802 13.3568 14.5686 13.2987 14.5453 13.2522C14.5453 13.2058 14.5336 13.1476 14.5103 13.0779L12.1674 5.19892C12.0974 4.94326 12.0275 4.81543 11.9575 4.81543C11.9109 4.81543 11.8293 4.94326 11.7127 5.19892L8.95017 13.0779C8.90354 13.1709 8.88023 13.2639 8.88023 13.3568C8.88023 13.473 8.93851 13.5544 9.05508 13.6009C9.19495 13.6474 9.34649 13.6706 9.50968 13.6706Z" fill="white"/>
<path d="M29.9922 24.1643C29.3627 24.1643 28.7799 24.0132 28.2437 23.7111C27.7075 23.4089 27.2762 23.0138 26.9498 22.5258C26.6468 22.0377 26.4952 21.5031 26.4952 20.9221C26.4952 20.1318 26.74 19.4694 27.2296 18.9349C27.7425 18.4003 28.4885 17.9239 29.4676 17.5055L32.5799 16.1459C33.0462 15.9367 33.3259 15.7507 33.4192 15.588C33.5357 15.4254 33.594 15.1232 33.594 14.6816L33.629 12.6944C33.6523 12.0437 33.5357 11.5323 33.2793 11.1605C33.0229 10.7654 32.6382 10.5678 32.1253 10.5678C31.8222 10.5678 31.5192 10.6375 31.2161 10.777C30.913 10.8932 30.6799 11.0326 30.5167 11.1953C30.4468 11.2883 30.3885 11.4045 30.3419 11.544C30.3186 11.6602 30.3069 11.788 30.3069 11.9274C30.3069 12.0669 30.3186 12.2412 30.3419 12.4504C30.3652 12.6363 30.3768 12.799 30.3768 12.9385C30.3768 13.0779 30.1903 13.2639 29.8173 13.4963C29.4443 13.7055 29.013 13.903 28.5235 14.0889C28.0339 14.2516 27.6143 14.333 27.2646 14.333C27.1014 14.333 26.9498 14.2633 26.81 14.1238C26.6934 13.9844 26.6351 13.81 26.6351 13.6009C26.6351 13.229 26.7633 12.8687 27.0198 12.5201C27.2762 12.1482 27.6959 11.7299 28.2787 11.2651C28.8848 10.7537 29.5492 10.3005 30.2719 9.90541C30.9946 9.51029 31.7057 9.19653 32.4051 8.96411C33.1278 8.73169 33.7339 8.61548 34.2235 8.61548C35.4824 8.61548 36.4848 9.02221 37.2308 9.83568C37.9769 10.6259 38.3265 11.6834 38.2799 13.0082L38.1051 20.0505C38.0818 20.5851 38.175 21.0383 38.3848 21.4101C38.5946 21.782 38.8511 21.9679 39.1542 21.9679C39.5971 21.9679 39.9818 21.8169 40.3081 21.5147C40.3781 21.445 40.448 21.4101 40.518 21.4101C40.6345 21.4101 40.7278 21.445 40.7977 21.5147C40.891 21.5845 40.9376 21.6774 40.9376 21.7936C40.9376 22.0725 40.7278 22.4328 40.3081 22.8744C39.8652 23.2927 39.3989 23.6065 38.9094 23.8157C38.4198 24.0481 37.9069 24.1643 37.3707 24.1643C36.0652 24.1643 34.9811 23.5019 34.1186 22.1771H34.0486C33.2793 22.8744 32.5799 23.3741 31.9505 23.6762C31.3443 24.0016 30.6916 24.1643 29.9922 24.1643ZM32.0903 21.8982C32.3468 21.8982 32.5566 21.8634 32.7198 21.7936C32.883 21.7007 33.0462 21.5612 33.2094 21.3753C33.2793 21.2823 33.3376 21.1661 33.3842 21.0267C33.4308 20.864 33.4541 20.678 33.4541 20.4688L33.5591 17.9587C33.5591 17.7263 33.5241 17.5752 33.4541 17.5055C33.3842 17.4358 33.3026 17.4009 33.2094 17.4009C33.1627 17.4009 33.1045 17.4125 33.0345 17.4358C32.9646 17.459 32.883 17.4939 32.7897 17.5404C32.1136 17.8658 31.6124 18.2028 31.286 18.5514C30.9597 18.8768 30.7965 19.4113 30.7965 20.1551C30.7965 20.8291 30.9363 21.2939 31.2161 21.5496C31.4959 21.782 31.7873 21.8982 32.0903 21.8982Z" fill="white"/>
</svg>
