<svg width="24" height="24" viewBox="0 0 24 24" fill="none" xmlns="http://www.w3.org/2000/svg">
<path opacity="0.5" d="M2.09255 12.3821C2.11245 11.7322 2.23513 11.1851 2.46061 10.7408C2.68609 10.2898 2.99115 9.92508 3.37579 9.64655C3.76042 9.36802 4.21469 9.16907 4.7386 9.0497C5.26913 8.9237 5.84609 8.86069 6.46947 8.86069C6.98674 8.86069 7.48743 8.91375 7.97155 9.01985C8.46229 9.12596 8.89667 9.29839 9.27467 9.53713C9.65268 9.76924 9.95442 10.0743 10.1799 10.4523C10.412 10.8237 10.5281 11.2779 10.5281 11.8151V18.0124C10.5281 18.1849 10.5745 18.3341 10.6673 18.4601C10.7602 18.5794 10.9094 18.6391 11.115 18.6391C11.2078 18.6391 11.304 18.6325 11.4034 18.6192C11.5029 18.5993 11.6057 18.5794 11.7118 18.5595V19.8229C11.5593 19.8627 11.4068 19.8991 11.2542 19.9323C11.1083 19.9655 10.9326 19.982 10.727 19.982C10.4087 19.982 10.1335 19.9555 9.90137 19.9025C9.67589 19.8494 9.48357 19.7632 9.32441 19.6438C9.17188 19.5178 9.05251 19.3587 8.9663 19.1663C8.88009 18.9674 8.82372 18.7253 8.79719 18.4402C8.57171 18.6855 8.33297 18.9143 8.08097 19.1266C7.82897 19.3321 7.54712 19.5145 7.23543 19.6737C6.92374 19.8262 6.57558 19.9456 6.19094 20.0318C5.8063 20.1246 5.37192 20.171 4.88781 20.171C4.47665 20.171 4.07543 20.1047 3.68416 19.9721C3.29952 19.8395 2.95136 19.6438 2.63967 19.3852C2.33461 19.1266 2.08924 18.8082 1.90355 18.4302C1.71786 18.0456 1.62502 17.6013 1.62502 17.0973C1.62502 16.5468 1.71786 16.0727 1.90355 15.6748C2.08924 15.2702 2.33129 14.9353 2.62972 14.6701C2.92815 14.3982 3.26968 14.1893 3.65432 14.0434C4.03895 13.8975 4.43022 13.8013 4.82813 13.7549L7.82233 13.3868C8.1075 13.3537 8.32966 13.2442 8.48882 13.0586C8.65461 12.8662 8.73751 12.5612 8.73751 12.1434C8.73751 11.5001 8.52529 11.0392 8.10086 10.7607C7.68307 10.4755 7.07958 10.3329 6.29041 10.3329C5.48135 10.3329 4.87786 10.5054 4.47996 10.8502C4.08206 11.1884 3.85658 11.6991 3.80353 12.3821H2.09255ZM8.69772 14.4214C8.55182 14.5275 8.36945 14.617 8.1506 14.69C7.93839 14.7563 7.70296 14.8126 7.44433 14.8591C7.18569 14.9055 6.91048 14.9486 6.61868 14.9884C6.32689 15.0215 6.03509 15.058 5.7433 15.0978C5.41171 15.1442 5.10666 15.2105 4.82813 15.2967C4.54959 15.383 4.30754 15.4957 4.10196 15.635C3.89637 15.7742 3.73721 15.9433 3.62447 16.1423C3.51174 16.3346 3.45537 16.5634 3.45537 16.8287C3.45537 17.1337 3.50179 17.4023 3.59463 17.6344C3.69411 17.8665 3.82674 18.0622 3.99253 18.2213C4.16496 18.3805 4.37054 18.4999 4.60928 18.5794C4.84802 18.659 5.10997 18.6988 5.39514 18.6988C5.57419 18.6988 5.77977 18.6789 6.01188 18.6391C6.24399 18.5927 6.48273 18.5264 6.72811 18.4402C6.97348 18.354 7.21222 18.2445 7.44433 18.1119C7.68307 17.9726 7.89528 17.8068 8.08097 17.6145C8.26666 17.4222 8.41587 17.2034 8.52861 16.958C8.64135 16.7126 8.69772 16.4374 8.69772 16.1323V14.4214ZM13.4327 12.3821C13.4526 11.7322 13.5753 11.1851 13.8008 10.7408C14.0263 10.2898 14.3313 9.92508 14.716 9.64655C15.1006 9.36802 15.5549 9.16907 16.0788 9.0497C16.6093 8.9237 17.1863 8.86069 17.8097 8.86069C18.3269 8.86069 18.8276 8.91375 19.3117 9.01985C19.8025 9.12596 20.2369 9.29839 20.6149 9.53713C20.9929 9.76924 21.2946 10.0743 21.5201 10.4523C21.7522 10.8237 21.8683 11.2779 21.8683 11.8151V18.0124C21.8683 18.1849 21.9147 18.3341 22.0075 18.4601C22.1004 18.5794 22.2496 18.6391 22.4552 18.6391C22.548 18.6391 22.6442 18.6325 22.7436 18.6192C22.8431 18.5993 22.9459 18.5794 23.052 18.5595V19.8229C22.8995 19.8627 22.747 19.8991 22.5944 19.9323C22.4485 19.9655 22.2728 19.982 22.0672 19.982C21.7489 19.982 21.4737 19.9555 21.2416 19.9025C21.0161 19.8494 20.8238 19.7632 20.6646 19.6438C20.5121 19.5178 20.3927 19.3587 20.3065 19.1663C20.2203 18.9674 20.1639 18.7253 20.1374 18.4402C19.9119 18.6855 19.6732 18.9143 19.4212 19.1266C19.1692 19.3321 18.8873 19.5145 18.5756 19.6737C18.2639 19.8262 17.9158 19.9456 17.5311 20.0318C17.1465 20.1246 16.7121 20.171 16.228 20.171C15.8168 20.171 15.4156 20.1047 15.0244 19.9721C14.6397 19.8395 14.2915 19.6438 13.9799 19.3852C13.6748 19.1266 13.4294 18.8082 13.2437 18.4302C13.0581 18.0456 12.9652 17.6013 12.9652 17.0973C12.9652 16.5468 13.0581 16.0727 13.2437 15.6748C13.4294 15.2702 13.6715 14.9353 13.9699 14.6701C14.2683 14.3982 14.6099 14.1893 14.9945 14.0434C15.3791 13.8975 15.7704 13.8013 16.1683 13.7549L19.1625 13.3868C19.4477 13.3537 19.6698 13.2442 19.829 13.0586C19.9948 12.8662 20.0777 12.5612 20.0777 12.1434C20.0777 11.5001 19.8655 11.0392 19.4411 10.7607C19.0233 10.4755 18.4198 10.3329 17.6306 10.3329C16.8215 10.3329 16.2181 10.5054 15.8202 10.8502C15.4223 11.1884 15.1968 11.6991 15.1437 12.3821H13.4327ZM20.0379 14.4214C19.892 14.5275 19.7096 14.617 19.4908 14.69C19.2786 14.7563 19.0432 14.8126 18.7845 14.8591C18.5259 14.9055 18.2507 14.9486 17.9589 14.9884C17.6671 15.0215 17.3753 15.058 17.0835 15.0978C16.7519 15.1442 16.4468 15.2105 16.1683 15.2967C15.8898 15.383 15.6477 15.4957 15.4421 15.635C15.2366 15.7742 15.0774 15.9433 14.9647 16.1423C14.8519 16.3346 14.7956 16.5634 14.7956 16.8287C14.7956 17.1337 14.842 17.4023 14.9348 17.6344C15.0343 17.8665 15.1669 18.0622 15.3327 18.2213C15.5051 18.3805 15.7107 18.4999 15.9495 18.5794C16.1882 18.659 16.4502 18.6988 16.7353 18.6988C16.9144 18.6988 17.12 18.6789 17.3521 18.6391C17.5842 18.5927 17.8229 18.5264 18.0683 18.4402C18.3137 18.354 18.5524 18.2445 18.7845 18.1119C19.0233 17.9726 19.2355 17.8068 19.4212 17.6145C19.6068 17.4222 19.7561 17.2034 19.8688 16.958C19.9815 16.7126 20.0379 16.4374 20.0379 16.1323V14.4214Z" fill="#EDEEEA"/>
</svg>
