<svg width="22" height="12" viewBox="0 0 22 12" fill="none" xmlns="http://www.w3.org/2000/svg">
<path opacity="0.5" d="M1.39172 3.80123C1.41124 3.16363 1.5316 2.62688 1.75281 2.19097C1.97402 1.74855 2.2733 1.39072 2.65065 1.11746C3.02801 0.844205 3.47367 0.649022 3.98766 0.531912C4.50815 0.408296 5.07418 0.346488 5.68575 0.346488C6.19323 0.346488 6.68444 0.398537 7.15939 0.502635C7.64084 0.606732 8.06699 0.775891 8.43784 1.01011C8.80868 1.23782 9.10471 1.53711 9.32592 1.90795C9.55363 2.2723 9.66749 2.71796 9.66749 3.24496V9.32492C9.66749 9.49408 9.71303 9.64047 9.80412 9.76408C9.8952 9.88119 10.0416 9.93975 10.2433 9.93975C10.3344 9.93975 10.4287 9.93324 10.5263 9.92023C10.6239 9.90071 10.7247 9.88119 10.8288 9.86167V11.1011C10.6792 11.1401 10.5295 11.1759 10.3799 11.2084C10.2368 11.241 10.0644 11.2572 9.86267 11.2572C9.55038 11.2572 9.28038 11.2312 9.05266 11.1792C8.83146 11.1271 8.64278 11.0425 8.48663 10.9254C8.33699 10.8018 8.21988 10.6457 8.1353 10.457C8.05072 10.2618 7.99542 10.0243 7.9694 9.74456C7.74819 9.98529 7.51397 10.2098 7.26674 10.4179C7.0195 10.6196 6.74299 10.7986 6.43721 10.9547C6.13142 11.1043 5.78985 11.2215 5.41249 11.306C5.03514 11.3971 4.60899 11.4427 4.13404 11.4427C3.73067 11.4427 3.33705 11.3776 2.95319 11.2475C2.57583 11.1174 2.23426 10.9254 1.92847 10.6717C1.62919 10.4179 1.38847 10.1057 1.20629 9.7348C1.02412 9.35745 0.933038 8.92154 0.933038 8.42708C0.933038 7.88707 1.02412 7.42188 1.20629 7.03152C1.38847 6.63464 1.62594 6.30608 1.91871 6.04584C2.21149 5.77909 2.54655 5.57415 2.92391 5.43101C3.30126 5.28788 3.68512 5.19354 4.07549 5.148L7.013 4.78691C7.29276 4.75438 7.51071 4.64703 7.66686 4.46486C7.82951 4.27618 7.91084 3.9769 7.91084 3.56701C7.91084 2.93592 7.70265 2.48374 7.28625 2.21049C6.87637 1.93073 6.28431 1.79084 5.51009 1.79084C4.71634 1.79084 4.12428 1.96 3.73392 2.29832C3.34355 2.63013 3.12234 3.1311 3.0703 3.80123H1.39172ZM7.8718 5.80186C7.72867 5.90596 7.54975 5.99379 7.33505 6.06536C7.12685 6.13042 6.89589 6.18572 6.64215 6.23126C6.38841 6.27681 6.11841 6.3191 5.83214 6.35813C5.54587 6.39066 5.2596 6.42645 4.97333 6.46548C4.64803 6.51103 4.34875 6.57609 4.07549 6.66067C3.80223 6.74525 3.56476 6.85585 3.36307 6.99248C3.16138 7.12911 3.00523 7.29501 2.89463 7.4902C2.78403 7.67887 2.72872 7.90333 2.72872 8.16358C2.72872 8.46286 2.77427 8.72636 2.86535 8.95407C2.96294 9.18178 3.09307 9.37372 3.25572 9.52986C3.42488 9.68601 3.62657 9.80312 3.86079 9.88119C4.09501 9.95926 4.352 9.9983 4.63176 9.9983C4.80743 9.9983 5.00912 9.97878 5.23683 9.93975C5.46454 9.8942 5.69876 9.82914 5.93949 9.74456C6.18022 9.65998 6.41444 9.55263 6.64215 9.42251C6.87637 9.28588 7.08456 9.12323 7.26674 8.93455C7.44891 8.74588 7.59529 8.53117 7.7059 8.29045C7.8165 8.04972 7.8718 7.77972 7.8718 7.48044V5.80186ZM12.5172 3.80123C12.5367 3.16363 12.657 2.62688 12.8783 2.19097C13.0995 1.74855 13.3987 1.39072 13.7761 1.11746C14.1535 0.844205 14.5991 0.649022 15.1131 0.531912C15.6336 0.408296 16.1996 0.346488 16.8112 0.346488C17.3187 0.346488 17.8099 0.398537 18.2848 0.502635C18.7663 0.606732 19.1924 0.775891 19.5633 1.01011C19.9341 1.23782 20.2302 1.53711 20.4514 1.90795C20.6791 2.2723 20.7929 2.71796 20.7929 3.24496V9.32492C20.7929 9.49408 20.8385 9.64047 20.9296 9.76408C21.0207 9.88119 21.167 9.93975 21.3687 9.93975C21.4598 9.93975 21.5542 9.93324 21.6517 9.92023C21.7493 9.90071 21.8502 9.88119 21.9543 9.86167V11.1011C21.8046 11.1401 21.655 11.1759 21.5054 11.2084C21.3622 11.241 21.1898 11.2572 20.9881 11.2572C20.6758 11.2572 20.4058 11.2312 20.1781 11.1792C19.9569 11.1271 19.7682 11.0425 19.6121 10.9254C19.4624 10.8018 19.3453 10.6457 19.2607 10.457C19.1762 10.2618 19.1209 10.0243 19.0948 9.74456C18.8736 9.98529 18.6394 10.2098 18.3922 10.4179C18.145 10.6196 17.8684 10.7986 17.5627 10.9547C17.2569 11.1043 16.9153 11.2215 16.5379 11.306C16.1606 11.3971 15.7344 11.4427 15.2595 11.4427C14.8561 11.4427 14.4625 11.3776 14.0786 11.2475C13.7013 11.1174 13.3597 10.9254 13.0539 10.6717C12.7546 10.4179 12.5139 10.1057 12.3317 9.7348C12.1496 9.35745 12.0585 8.92154 12.0585 8.42708C12.0585 7.88707 12.1496 7.42188 12.3317 7.03152C12.5139 6.63464 12.7514 6.30608 13.0442 6.04584C13.3369 5.77909 13.672 5.57415 14.0494 5.43101C14.4267 5.28788 14.8106 5.19354 15.2009 5.148L18.1384 4.78691C18.4182 4.75438 18.6362 4.64703 18.7923 4.46486C18.955 4.27618 19.0363 3.9769 19.0363 3.56701C19.0363 2.93592 18.8281 2.48374 18.4117 2.21049C18.0018 1.93073 17.4098 1.79084 16.6355 1.79084C15.8418 1.79084 15.2497 1.96 14.8594 2.29832C14.469 2.63013 14.2478 3.1311 14.1957 3.80123H12.5172ZM18.9973 5.80186C18.8541 5.90596 18.6752 5.99379 18.4605 6.06536C18.2523 6.13042 18.0213 6.18572 17.7676 6.23126C17.5139 6.27681 17.2439 6.3191 16.9576 6.35813C16.6713 6.39066 16.385 6.42645 16.0988 6.46548C15.7735 6.51103 15.4742 6.57609 15.2009 6.66067C14.9277 6.74525 14.6902 6.85585 14.4885 6.99248C14.2868 7.12911 14.1307 7.29501 14.0201 7.4902C13.9095 7.67887 13.8542 7.90333 13.8542 8.16358C13.8542 8.46286 13.8997 8.72636 13.9908 8.95407C14.0884 9.18178 14.2185 9.37372 14.3812 9.52986C14.5503 9.68601 14.752 9.80312 14.9862 9.88119C15.2205 9.95926 15.4774 9.9983 15.7572 9.9983C15.9329 9.9983 16.1346 9.97878 16.3623 9.93975C16.59 9.8942 16.8242 9.82914 17.0649 9.74456C17.3057 9.65998 17.5399 9.55263 17.7676 9.42251C18.0018 9.28588 18.21 9.12323 18.3922 8.93455C18.5744 8.74588 18.7207 8.53117 18.8313 8.29045C18.9419 8.04972 18.9973 7.77972 18.9973 7.48044V5.80186Z" fill="#EDEEEA"/>
</svg>
