<svg width="215" height="63" viewBox="0 0 215 63" fill="none" xmlns="http://www.w3.org/2000/svg">
<path d="M0.527344 1.77732H14.5507C19.4259 1.77732 22.9819 2.92443 25.2188 5.21864C27.4556 7.45549 28.5741 10.9255 28.5741 15.6286V19.328C28.5741 25.5798 26.5093 29.5373 22.3797 31.2006V31.3726C24.6739 32.0609 26.2799 33.4661 27.1975 35.5882C28.1726 37.7104 28.6601 40.5495 28.6601 44.1055V54.6875C28.6601 56.4082 28.7175 57.8134 28.8322 58.9032C28.9469 59.9356 29.2337 60.9679 29.6925 62.0003H20.0568C19.7127 61.0253 19.4833 60.1076 19.3685 59.2473C19.2538 58.387 19.1965 56.8384 19.1965 54.6015V43.5893C19.1965 40.8363 18.7376 38.9148 17.82 37.8251C16.9596 36.7354 15.4397 36.1905 13.2602 36.1905H9.99096V62.0003H0.527344V1.77732ZM13.4323 27.5872C15.325 27.5872 16.7302 27.0997 17.6479 26.1246C18.6229 25.1496 19.1104 23.515 19.1104 21.2208V16.575C19.1104 14.3955 18.709 12.8182 17.906 11.8432C17.1604 10.8681 15.9559 10.3806 14.2926 10.3806H9.99096V27.5872H13.4323Z" fill="white"/>
<path d="M32.9893 1.77732H58.7992V10.3806H42.4529V26.2967H55.4439V34.9H42.4529V53.3971H58.7992V62.0003H32.9893V1.77732Z" fill="white"/>
<path d="M75.4277 62.8607C70.8393 62.8607 67.3406 61.5702 64.9317 58.9892C62.5228 56.3508 61.3183 52.5941 61.3183 47.7189V16.0588C61.3183 11.1836 62.5228 7.45549 64.9317 4.87451C67.3406 2.23616 70.8393 0.916992 75.4277 0.916992C80.0161 0.916992 83.5148 2.23616 85.9237 4.87451C88.3326 7.45549 89.5371 11.1836 89.5371 16.0588V21.2208H80.5897V15.4566C80.5897 11.499 78.955 9.52028 75.6858 9.52028C72.4165 9.52028 70.7819 11.499 70.7819 15.4566V48.4071C70.7819 52.3073 72.4165 54.2574 75.6858 54.2574C78.955 54.2574 80.5897 52.3073 80.5897 48.4071V36.6206H75.8579V28.0174H89.5371V47.7189C89.5371 52.5941 88.3326 56.3508 85.9237 58.9892C83.5148 61.5702 80.0161 62.8607 75.4277 62.8607Z" fill="white"/>
<path d="M107.142 62.8607C102.553 62.8607 99.0545 61.5702 96.6456 58.9892C94.2366 56.3508 93.0322 52.5941 93.0322 47.7189V1.77732H102.496V48.4071C102.496 50.4719 102.897 51.9632 103.7 52.8809C104.561 53.7985 105.765 54.2574 107.314 54.2574C108.862 54.2574 110.038 53.7985 110.841 52.8809C111.701 51.9632 112.131 50.4719 112.131 48.4071V1.77732H121.251V47.7189C121.251 52.5941 120.047 56.3508 117.638 58.9892C115.229 61.5702 111.73 62.8607 107.142 62.8607Z" fill="white"/>
<path d="M125.754 1.77732H135.218V53.3971H150.79V62.0003H125.754V1.77732Z" fill="white"/>
<path d="M160.74 1.77732H173.559L183.367 62.0003H173.903L172.182 50.0418V50.2138H161.428L159.708 62.0003H150.932L160.74 1.77732ZM171.064 42.0407L166.848 12.2733H166.676L162.547 42.0407H171.064Z" fill="white"/>
<path d="M185.721 1.77732H199.745C204.62 1.77732 208.176 2.92443 210.413 5.21864C212.649 7.45549 213.768 10.9255 213.768 15.6286V19.328C213.768 25.5798 211.703 29.5373 207.574 31.2006V31.3726C209.868 32.0609 211.474 33.4661 212.391 35.5882C213.366 37.7104 213.854 40.5495 213.854 44.1055V54.6875C213.854 56.4082 213.911 57.8134 214.026 58.9032C214.141 59.9356 214.428 60.9679 214.886 62.0003H205.251C204.907 61.0253 204.677 60.1076 204.562 59.2473C204.448 58.387 204.39 56.8384 204.39 54.6015V43.5893C204.39 40.8363 203.931 38.9148 203.014 37.8251C202.153 36.7354 200.634 36.1905 198.454 36.1905H195.185V62.0003H185.721V1.77732ZM198.626 27.5872C200.519 27.5872 201.924 27.0997 202.842 26.1246C203.817 25.1496 204.304 23.515 204.304 21.2208V16.575C204.304 14.3955 203.903 12.8182 203.1 11.8432C202.354 10.8681 201.15 10.3806 199.486 10.3806H195.185V27.5872H198.626Z" fill="white"/>
</svg>
