<svg width="1182" height="65" viewBox="0 0 1182 65" fill="none" xmlns="http://www.w3.org/2000/svg">
<path d="M37.7842 0.234375V50H31.2217V5.63477H6.68066V50H0.0839844V0.234375H37.7842ZM59.1807 46.1719L69.4688 13.0176H76.2363L61.4023 55.708C61.0605 56.6195 60.6048 57.5993 60.0352 58.6475C59.4883 59.7184 58.7819 60.7324 57.916 61.6895C57.0501 62.6465 56.002 63.4212 54.7715 64.0137C53.5638 64.6289 52.1169 64.9365 50.4307 64.9365C49.9294 64.9365 49.2913 64.8682 48.5166 64.7314C47.7419 64.5947 47.195 64.4808 46.876 64.3896L46.8418 59.2627C47.0241 59.2855 47.3089 59.3083 47.6963 59.3311C48.1064 59.3766 48.3913 59.3994 48.5508 59.3994C49.9863 59.3994 51.2054 59.2057 52.208 58.8184C53.2106 58.4538 54.0537 57.8271 54.7373 56.9385C55.4437 56.0726 56.0475 54.8763 56.5488 53.3496L59.1807 46.1719ZM51.627 13.0176L61.2314 41.7285L62.8721 48.3936L58.3262 50.7178L44.7227 13.0176H51.627ZM105.836 13.0176V18.2471H88.7461V50H82.4229V13.0176H105.836ZM108.98 31.9189V31.1328C108.98 28.4668 109.368 25.9945 110.143 23.7158C110.917 21.4144 112.034 19.4206 113.492 17.7344C114.951 16.0254 116.716 14.7038 118.79 13.7695C120.864 12.8125 123.188 12.334 125.763 12.334C128.36 12.334 130.696 12.8125 132.77 13.7695C134.866 14.7038 136.643 16.0254 138.102 17.7344C139.583 19.4206 140.711 21.4144 141.485 23.7158C142.26 25.9945 142.647 28.4668 142.647 31.1328V31.9189C142.647 34.585 142.26 37.0573 141.485 39.3359C140.711 41.6146 139.583 43.6084 138.102 45.3174C136.643 47.0036 134.877 48.3252 132.804 49.2822C130.753 50.2165 128.429 50.6836 125.831 50.6836C123.233 50.6836 120.898 50.2165 118.824 49.2822C116.751 48.3252 114.973 47.0036 113.492 45.3174C112.034 43.6084 110.917 41.6146 110.143 39.3359C109.368 37.0573 108.98 34.585 108.98 31.9189ZM115.304 31.1328V31.9189C115.304 33.7646 115.52 35.5078 115.953 37.1484C116.386 38.7663 117.035 40.2018 117.901 41.4551C118.79 42.7083 119.895 43.6995 121.217 44.4287C122.538 45.1351 124.076 45.4883 125.831 45.4883C127.563 45.4883 129.078 45.1351 130.377 44.4287C131.699 43.6995 132.792 42.7083 133.658 41.4551C134.524 40.2018 135.174 38.7663 135.606 37.1484C136.062 35.5078 136.29 33.7646 136.29 31.9189V31.1328C136.29 29.3099 136.062 27.5895 135.606 25.9717C135.174 24.3311 134.513 22.8841 133.624 21.6309C132.758 20.3548 131.664 19.3522 130.343 18.623C129.044 17.8939 127.517 17.5293 125.763 17.5293C124.031 17.5293 122.504 17.8939 121.183 18.623C119.884 19.3522 118.79 20.3548 117.901 21.6309C117.035 22.8841 116.386 24.3311 115.953 25.9717C115.52 27.5895 115.304 29.3099 115.304 31.1328ZM167.94 33.7305H155.807L155.738 28.6719H165.65C167.61 28.6719 169.239 28.4782 170.538 28.0908C171.86 27.7035 172.851 27.1224 173.512 26.3477C174.173 25.5729 174.503 24.6159 174.503 23.4766C174.503 22.5879 174.309 21.8132 173.922 21.1523C173.557 20.4688 172.999 19.9105 172.247 19.4775C171.495 19.0218 170.561 18.6914 169.444 18.4863C168.351 18.2585 167.063 18.1445 165.582 18.1445H157.481V50H151.158V13.0176H165.582C167.929 13.0176 170.037 13.2227 171.905 13.6328C173.797 14.043 175.403 14.6696 176.725 15.5127C178.069 16.333 179.094 17.3812 179.801 18.6572C180.507 19.9333 180.86 21.4372 180.86 23.1689C180.86 24.2855 180.632 25.3451 180.177 26.3477C179.721 27.3503 179.049 28.2389 178.16 29.0137C177.271 29.7884 176.178 30.4264 174.879 30.9277C173.58 31.4062 172.088 31.7139 170.401 31.8506L167.94 33.7305ZM167.94 50H153.517L156.661 44.873H167.94C169.695 44.873 171.153 44.6566 172.315 44.2236C173.478 43.7679 174.343 43.1299 174.913 42.3096C175.506 41.4665 175.802 40.4639 175.802 39.3018C175.802 38.1396 175.506 37.1484 174.913 36.3281C174.343 35.485 173.478 34.847 172.315 34.4141C171.153 33.9583 169.695 33.7305 167.94 33.7305H158.336L158.404 28.6719H170.401L172.691 30.5859C174.719 30.7454 176.44 31.2467 177.853 32.0898C179.265 32.9329 180.336 34.0039 181.065 35.3027C181.795 36.5788 182.159 37.9688 182.159 39.4727C182.159 41.2044 181.829 42.7311 181.168 44.0527C180.53 45.3743 179.596 46.4795 178.365 47.3682C177.135 48.234 175.642 48.8949 173.888 49.3506C172.133 49.7835 170.151 50 167.94 50ZM197.472 39.9854L214.527 13.0176H220.885V50H214.527V23.0322L197.472 50H191.183V13.0176H197.472V39.9854ZM231.583 50V13.0176H237.906V44.8047H254.928V13.0176H261.285V50H231.583ZM265.66 44.8047L265.045 60.9717H259.405V50H254.586V44.8047H265.66ZM277.726 25.7324H288.834C291.819 25.7324 294.337 26.2565 296.388 27.3047C298.438 28.3301 299.988 29.7542 301.036 31.5771C302.107 33.3773 302.643 35.4281 302.643 37.7295C302.643 39.4385 302.346 41.0449 301.754 42.5488C301.161 44.0299 300.273 45.3288 299.088 46.4453C297.926 47.5618 296.479 48.4391 294.747 49.0771C293.038 49.6924 291.067 50 288.834 50H273.111V13.0176H279.435V44.8047H288.834C290.657 44.8047 292.115 44.4743 293.209 43.8135C294.303 43.1527 295.089 42.2982 295.567 41.25C296.046 40.2018 296.285 39.1081 296.285 37.9688C296.285 36.8522 296.046 35.7585 295.567 34.6875C295.089 33.6165 294.303 32.7279 293.209 32.0215C292.115 31.2923 290.657 30.9277 288.834 30.9277H277.726V25.7324ZM315.802 13.0176V50H309.479V13.0176H315.802ZM361.603 33.7305H349.469L349.4 28.6719H359.312C361.272 28.6719 362.901 28.4782 364.2 28.0908C365.522 27.7035 366.513 27.1224 367.174 26.3477C367.835 25.5729 368.165 24.6159 368.165 23.4766C368.165 22.5879 367.971 21.8132 367.584 21.1523C367.219 20.4688 366.661 19.9105 365.909 19.4775C365.157 19.0218 364.223 18.6914 363.106 18.4863C362.013 18.2585 360.725 18.1445 359.244 18.1445H351.144V50H344.82V13.0176H359.244C361.591 13.0176 363.699 13.2227 365.567 13.6328C367.459 14.043 369.065 14.6696 370.387 15.5127C371.731 16.333 372.757 17.3812 373.463 18.6572C374.169 19.9333 374.522 21.4372 374.522 23.1689C374.522 24.2855 374.295 25.3451 373.839 26.3477C373.383 27.3503 372.711 28.2389 371.822 29.0137C370.934 29.7884 369.84 30.4264 368.541 30.9277C367.242 31.4062 365.75 31.7139 364.063 31.8506L361.603 33.7305ZM361.603 50H347.179L350.323 44.873H361.603C363.357 44.873 364.815 44.6566 365.978 44.2236C367.14 43.7679 368.006 43.1299 368.575 42.3096C369.168 41.4665 369.464 40.4639 369.464 39.3018C369.464 38.1396 369.168 37.1484 368.575 36.3281C368.006 35.485 367.14 34.847 365.978 34.4141C364.815 33.9583 363.357 33.7305 361.603 33.7305H351.998L352.066 28.6719H364.063L366.354 30.5859C368.382 30.7454 370.102 31.2467 371.515 32.0898C372.927 32.9329 373.998 34.0039 374.728 35.3027C375.457 36.5788 375.821 37.9688 375.821 39.4727C375.821 41.2044 375.491 42.7311 374.83 44.0527C374.192 45.3743 373.258 46.4795 372.027 47.3682C370.797 48.234 369.304 48.8949 367.55 49.3506C365.795 49.7835 363.813 50 361.603 50ZM399.098 45.4883C400.602 45.4883 401.992 45.1807 403.268 44.5654C404.544 43.9502 405.592 43.1071 406.412 42.0361C407.232 40.9424 407.7 39.7005 407.813 38.3105H413.829C413.715 40.498 412.975 42.5374 411.607 44.4287C410.263 46.2972 408.497 47.8125 406.31 48.9746C404.122 50.1139 401.718 50.6836 399.098 50.6836C396.318 50.6836 393.891 50.1937 391.817 49.2139C389.767 48.234 388.058 46.8896 386.69 45.1807C385.346 43.4717 384.332 41.512 383.648 39.3018C382.988 37.0687 382.657 34.7103 382.657 32.2266V30.791C382.657 28.3073 382.988 25.9603 383.648 23.75C384.332 21.5169 385.346 19.5459 386.69 17.8369C388.058 16.1279 389.767 14.7835 391.817 13.8037C393.891 12.8239 396.318 12.334 399.098 12.334C401.992 12.334 404.521 12.9264 406.686 14.1113C408.85 15.2734 410.548 16.8685 411.778 18.8965C413.032 20.9017 413.715 23.1803 413.829 25.7324H407.813C407.7 24.2057 407.267 22.8271 406.515 21.5967C405.785 20.3662 404.783 19.3864 403.507 18.6572C402.254 17.9053 400.784 17.5293 399.098 17.5293C397.161 17.5293 395.532 17.9167 394.21 18.6914C392.911 19.4434 391.874 20.4688 391.1 21.7676C390.348 23.0436 389.801 24.4678 389.459 26.04C389.14 27.5895 388.98 29.1732 388.98 30.791V32.2266C388.98 33.8444 389.14 35.4395 389.459 37.0117C389.778 38.584 390.313 40.0081 391.065 41.2842C391.84 42.5602 392.877 43.5856 394.176 44.3604C395.497 45.1123 397.138 45.4883 399.098 45.4883ZM436.285 50.6836C433.71 50.6836 431.375 50.2507 429.278 49.3848C427.205 48.4961 425.416 47.2542 423.912 45.6592C422.431 44.0641 421.292 42.1729 420.494 39.9854C419.697 37.7979 419.298 35.4053 419.298 32.8076V31.3721C419.298 28.3643 419.742 25.6868 420.631 23.3398C421.52 20.9701 422.727 18.9648 424.254 17.3242C425.781 15.6836 427.512 14.4417 429.449 13.5986C431.386 12.7555 433.391 12.334 435.465 12.334C438.108 12.334 440.387 12.7897 442.301 13.7012C444.238 14.6126 445.821 15.8887 447.052 17.5293C448.282 19.1471 449.194 21.0612 449.786 23.2715C450.379 25.459 450.675 27.8516 450.675 30.4492V33.2861H423.058V28.125H444.352V27.6465C444.26 26.0059 443.919 24.4108 443.326 22.8613C442.757 21.3118 441.845 20.0358 440.592 19.0332C439.339 18.0306 437.63 17.5293 435.465 17.5293C434.029 17.5293 432.708 17.8369 431.5 18.4521C430.292 19.0446 429.256 19.9333 428.39 21.1182C427.524 22.3031 426.852 23.75 426.373 25.459C425.895 27.168 425.655 29.139 425.655 31.3721V32.8076C425.655 34.5622 425.895 36.2142 426.373 37.7637C426.874 39.2904 427.592 40.6348 428.526 41.7969C429.483 42.959 430.634 43.8704 431.979 44.5312C433.346 45.1921 434.895 45.5225 436.627 45.5225C438.86 45.5225 440.751 45.0667 442.301 44.1553C443.85 43.2438 445.206 42.0247 446.368 40.498L450.196 43.54C449.399 44.7477 448.385 45.8984 447.154 46.9922C445.924 48.0859 444.409 48.9746 442.608 49.6582C440.831 50.3418 438.723 50.6836 436.285 50.6836ZM490.494 13.0176V50H484.137V13.0176H490.494ZM502.901 13.0176V18.1445H471.969V13.0176H502.901ZM515.445 20.127V64.2188H509.088V13.0176H514.898L515.445 20.127ZM540.362 31.2012V31.9189C540.362 34.6077 540.043 37.1029 539.405 39.4043C538.767 41.6829 537.833 43.6654 536.603 45.3516C535.395 47.0378 533.902 48.348 532.125 49.2822C530.348 50.2165 528.308 50.6836 526.007 50.6836C523.66 50.6836 521.586 50.2962 519.786 49.5215C517.986 48.7467 516.459 47.6188 515.206 46.1377C513.953 44.6566 512.95 42.8792 512.198 40.8057C511.469 38.7321 510.968 36.3965 510.694 33.7988V29.9707C510.968 27.2363 511.48 24.7868 512.232 22.6221C512.984 20.4574 513.976 18.6117 515.206 17.085C516.459 15.5355 517.975 14.362 519.752 13.5645C521.529 12.7441 523.58 12.334 525.904 12.334C528.229 12.334 530.291 12.7897 532.091 13.7012C533.891 14.5898 535.406 15.8659 536.637 17.5293C537.867 19.1927 538.79 21.1865 539.405 23.5107C540.043 25.8122 540.362 28.3757 540.362 31.2012ZM534.005 31.9189V31.2012C534.005 29.3555 533.811 27.6237 533.424 26.0059C533.036 24.3652 532.433 22.9297 531.612 21.6992C530.815 20.446 529.789 19.4661 528.536 18.7598C527.283 18.0306 525.79 17.666 524.059 17.666C522.464 17.666 521.074 17.9395 519.889 18.4863C518.727 19.0332 517.735 19.7738 516.915 20.708C516.095 21.6195 515.423 22.6676 514.898 23.8525C514.397 25.0146 514.021 26.2223 513.771 27.4756V36.3281C514.226 37.9232 514.864 39.4271 515.685 40.8398C516.505 42.2298 517.599 43.3577 518.966 44.2236C520.333 45.0667 522.053 45.4883 524.127 45.4883C525.836 45.4883 527.306 45.1351 528.536 44.4287C529.789 43.6995 530.815 42.7083 531.612 41.4551C532.433 40.2018 533.036 38.7663 533.424 37.1484C533.811 35.5078 534.005 33.7646 534.005 31.9189ZM555.265 39.9854L572.32 13.0176H578.678V50H572.32V23.0322L555.265 50H548.976V13.0176H555.265V39.9854ZM620.001 32.3291H613.199V28.4326H619.488C621.243 28.4326 622.633 28.2161 623.658 27.7832C624.684 27.3275 625.413 26.7008 625.846 25.9033C626.279 25.1058 626.495 24.1715 626.495 23.1006C626.495 22.1436 626.244 21.2435 625.743 20.4004C625.265 19.5345 624.49 18.8395 623.419 18.3154C622.348 17.7686 620.912 17.4951 619.112 17.4951C617.654 17.4951 616.332 17.7572 615.147 18.2812C613.963 18.7826 613.017 19.4775 612.311 20.3662C611.627 21.2321 611.285 22.2119 611.285 23.3057H604.962C604.962 21.0498 605.6 19.113 606.876 17.4951C608.175 15.8545 609.895 14.5898 612.037 13.7012C614.202 12.8125 616.56 12.3682 619.112 12.3682C621.254 12.3682 623.168 12.6074 624.854 13.0859C626.563 13.5417 628.01 14.2253 629.195 15.1367C630.38 16.0254 631.28 17.1419 631.896 18.4863C632.534 19.8079 632.853 21.346 632.853 23.1006C632.853 24.3538 632.556 25.5387 631.964 26.6553C631.371 27.7718 630.517 28.763 629.4 29.6289C628.284 30.472 626.928 31.1328 625.333 31.6113C623.761 32.0898 621.983 32.3291 620.001 32.3291ZM613.199 29.9365H620.001C622.211 29.9365 624.16 30.153 625.846 30.5859C627.532 30.9961 628.945 31.6113 630.084 32.4316C631.223 33.252 632.078 34.266 632.647 35.4736C633.24 36.6585 633.536 38.0257 633.536 39.5752C633.536 41.307 633.183 42.8678 632.477 44.2578C631.793 45.625 630.813 46.7871 629.537 47.7441C628.261 48.7012 626.734 49.4303 624.957 49.9316C623.202 50.4329 621.254 50.6836 619.112 50.6836C616.72 50.6836 614.396 50.2734 612.14 49.4531C609.884 48.6328 608.027 47.3682 606.568 45.6592C605.11 43.9274 604.381 41.7285 604.381 39.0625H610.704C610.704 40.179 611.057 41.2386 611.764 42.2412C612.47 43.2438 613.45 44.0527 614.703 44.668C615.979 45.2832 617.449 45.5908 619.112 45.5908C620.89 45.5908 622.371 45.3174 623.556 44.7705C624.741 44.2236 625.629 43.4945 626.222 42.583C626.837 41.6715 627.145 40.6803 627.145 39.6094C627.145 38.2194 626.871 37.1029 626.324 36.2598C625.777 35.4167 624.934 34.8014 623.795 34.4141C622.678 34.0039 621.243 33.7988 619.488 33.7988H613.199V29.9365ZM663.546 43.6768V24.6387C663.546 23.1803 663.25 21.9157 662.657 20.8447C662.088 19.751 661.222 18.9079 660.06 18.3154C658.897 17.723 657.462 17.4268 655.753 17.4268C654.158 17.4268 652.757 17.7002 651.549 18.2471C650.364 18.7939 649.43 19.5117 648.746 20.4004C648.085 21.2891 647.755 22.2461 647.755 23.2715H641.432C641.432 21.9499 641.773 20.6396 642.457 19.3408C643.141 18.042 644.12 16.8685 645.396 15.8203C646.695 14.7493 648.245 13.9062 650.045 13.291C651.868 12.653 653.896 12.334 656.129 12.334C658.818 12.334 661.188 12.7897 663.238 13.7012C665.312 14.6126 666.93 15.9912 668.092 17.8369C669.277 19.6598 669.869 21.9499 669.869 24.707V41.9336C669.869 43.1641 669.972 44.4743 670.177 45.8643C670.405 47.2542 670.735 48.4505 671.168 49.4531V50H664.571C664.252 49.2708 664.002 48.3024 663.819 47.0947C663.637 45.8643 663.546 44.7249 663.546 43.6768ZM664.64 27.5781L664.708 32.0215H658.316C656.516 32.0215 654.91 32.1696 653.497 32.4658C652.084 32.7393 650.899 33.1608 649.942 33.7305C648.985 34.3001 648.256 35.0179 647.755 35.8838C647.254 36.7269 647.003 37.7181 647.003 38.8574C647.003 40.0195 647.265 41.0791 647.789 42.0361C648.313 42.9932 649.099 43.7565 650.147 44.3262C651.218 44.873 652.529 45.1465 654.078 45.1465C656.015 45.1465 657.724 44.7363 659.205 43.916C660.686 43.0957 661.86 42.0931 662.726 40.9082C663.614 39.7233 664.093 38.5726 664.161 37.4561L666.861 40.498C666.702 41.4551 666.269 42.5146 665.562 43.6768C664.856 44.8389 663.91 45.9554 662.726 47.0264C661.563 48.0745 660.174 48.9518 658.556 49.6582C656.961 50.3418 655.16 50.6836 653.155 50.6836C650.649 50.6836 648.45 50.1937 646.559 49.2139C644.69 48.234 643.232 46.9238 642.184 45.2832C641.158 43.6198 640.646 41.7627 640.646 39.7119C640.646 37.7295 641.033 35.9863 641.808 34.4824C642.582 32.9557 643.699 31.6911 645.157 30.6885C646.616 29.6631 648.37 28.8883 650.421 28.3643C652.472 27.8402 654.762 27.5781 657.291 27.5781H664.64ZM694.615 45.4883C696.119 45.4883 697.509 45.1807 698.785 44.5654C700.061 43.9502 701.109 43.1071 701.93 42.0361C702.75 40.9424 703.217 39.7005 703.331 38.3105H709.347C709.233 40.498 708.492 42.5374 707.125 44.4287C705.781 46.2972 704.015 47.8125 701.827 48.9746C699.64 50.1139 697.236 50.6836 694.615 50.6836C691.835 50.6836 689.409 50.1937 687.335 49.2139C685.284 48.234 683.575 46.8896 682.208 45.1807C680.864 43.4717 679.85 41.512 679.166 39.3018C678.505 37.0687 678.175 34.7103 678.175 32.2266V30.791C678.175 28.3073 678.505 25.9603 679.166 23.75C679.85 21.5169 680.864 19.5459 682.208 17.8369C683.575 16.1279 685.284 14.7835 687.335 13.8037C689.409 12.8239 691.835 12.334 694.615 12.334C697.509 12.334 700.038 12.9264 702.203 14.1113C704.368 15.2734 706.065 16.8685 707.296 18.8965C708.549 20.9017 709.233 23.1803 709.347 25.7324H703.331C703.217 24.2057 702.784 22.8271 702.032 21.5967C701.303 20.3662 700.3 19.3864 699.024 18.6572C697.771 17.9053 696.301 17.5293 694.615 17.5293C692.678 17.5293 691.049 17.9167 689.728 18.6914C688.429 19.4434 687.392 20.4688 686.617 21.7676C685.865 23.0436 685.318 24.4678 684.977 26.04C684.658 27.5895 684.498 29.1732 684.498 30.791V32.2266C684.498 33.8444 684.658 35.4395 684.977 37.0117C685.296 38.584 685.831 40.0081 686.583 41.2842C687.358 42.5602 688.395 43.5856 689.693 44.3604C691.015 45.1123 692.656 45.4883 694.615 45.4883ZM731.529 13.0176V50H725.172V13.0176H731.529ZM743.937 13.0176V18.1445H713.004V13.0176H743.937ZM762.77 50.6836C760.195 50.6836 757.859 50.2507 755.763 49.3848C753.689 48.4961 751.9 47.2542 750.396 45.6592C748.915 44.0641 747.776 42.1729 746.979 39.9854C746.181 37.7979 745.782 35.4053 745.782 32.8076V31.3721C745.782 28.3643 746.227 25.6868 747.115 23.3398C748.004 20.9701 749.212 18.9648 750.738 17.3242C752.265 15.6836 753.997 14.4417 755.934 13.5986C757.87 12.7555 759.876 12.334 761.949 12.334C764.592 12.334 766.871 12.7897 768.785 13.7012C770.722 14.6126 772.306 15.8887 773.536 17.5293C774.767 19.1471 775.678 21.0612 776.271 23.2715C776.863 25.459 777.159 27.8516 777.159 30.4492V33.2861H749.542V28.125H770.836V27.6465C770.745 26.0059 770.403 24.4108 769.811 22.8613C769.241 21.3118 768.329 20.0358 767.076 19.0332C765.823 18.0306 764.114 17.5293 761.949 17.5293C760.514 17.5293 759.192 17.8369 757.984 18.4521C756.777 19.0446 755.74 19.9333 754.874 21.1182C754.008 22.3031 753.336 23.75 752.857 25.459C752.379 27.168 752.14 29.139 752.14 31.3721V32.8076C752.14 34.5622 752.379 36.2142 752.857 37.7637C753.359 39.2904 754.076 40.6348 755.011 41.7969C755.968 42.959 757.118 43.8704 758.463 44.5312C759.83 45.1921 761.38 45.5225 763.111 45.5225C765.344 45.5225 767.236 45.0667 768.785 44.1553C770.335 43.2438 771.69 42.0247 772.853 40.498L776.681 43.54C775.883 44.7477 774.869 45.8984 773.639 46.9922C772.408 48.0859 770.893 48.9746 769.093 49.6582C767.315 50.3418 765.208 50.6836 762.77 50.6836ZM808.434 13.0176V18.2471H791.344V50H785.021V13.0176H808.434ZM839.024 29.0479V34.1748H819.474V29.0479H839.024ZM820.807 13.0176V50H814.483V13.0176H820.807ZM844.151 13.0176V50H837.794V13.0176H844.151ZM864.728 46.1719L875.016 13.0176H881.783L866.949 55.708C866.607 56.6195 866.152 57.5993 865.582 58.6475C865.035 59.7184 864.329 60.7324 863.463 61.6895C862.597 62.6465 861.549 63.4212 860.318 64.0137C859.111 64.6289 857.664 64.9365 855.978 64.9365C855.476 64.9365 854.838 64.8682 854.063 64.7314C853.289 64.5947 852.742 64.4808 852.423 64.3896L852.389 59.2627C852.571 59.2855 852.856 59.3083 853.243 59.3311C853.653 59.3766 853.938 59.3994 854.098 59.3994C855.533 59.3994 856.752 59.2057 857.755 58.8184C858.757 58.4538 859.601 57.8271 860.284 56.9385C860.991 56.0726 861.594 54.8763 862.096 53.3496L864.728 46.1719ZM857.174 13.0176L866.778 41.7285L868.419 48.3936L863.873 50.7178L850.27 13.0176H857.174ZM910.768 13.0176V18.2471H892.892V13.0176H910.768ZM916.339 13.0176V50H910.016V13.0176H916.339ZM891.354 13.0176H897.711L896.754 30.8594C896.594 33.6165 896.332 36.0547 895.968 38.1738C895.626 40.2702 895.147 42.0703 894.532 43.5742C893.94 45.0781 893.188 46.3086 892.276 47.2656C891.388 48.1999 890.317 48.8949 889.063 49.3506C887.81 49.7835 886.363 50 884.723 50H882.74V44.4287L884.107 44.3262C885.087 44.2578 885.919 44.0299 886.603 43.6426C887.309 43.2552 887.901 42.6855 888.38 41.9336C888.858 41.1589 889.246 40.1676 889.542 38.96C889.861 37.7523 890.1 36.3167 890.26 34.6533C890.442 32.9899 890.579 31.0531 890.67 28.8428L891.354 13.0176ZM933.36 39.9854L950.416 13.0176H956.773V50H950.416V23.0322L933.36 50H927.071V13.0176H933.36V39.9854ZM981.725 45.4883C983.229 45.4883 984.618 45.1807 985.895 44.5654C987.171 43.9502 988.219 43.1071 989.039 42.0361C989.859 40.9424 990.326 39.7005 990.44 38.3105H996.456C996.342 40.498 995.602 42.5374 994.234 44.4287C992.89 46.2972 991.124 47.8125 988.937 48.9746C986.749 50.1139 984.345 50.6836 981.725 50.6836C978.945 50.6836 976.518 50.1937 974.444 49.2139C972.394 48.234 970.685 46.8896 969.317 45.1807C967.973 43.4717 966.959 41.512 966.275 39.3018C965.615 37.0687 965.284 34.7103 965.284 32.2266V30.791C965.284 28.3073 965.615 25.9603 966.275 23.75C966.959 21.5169 967.973 19.5459 969.317 17.8369C970.685 16.1279 972.394 14.7835 974.444 13.8037C976.518 12.8239 978.945 12.334 981.725 12.334C984.618 12.334 987.148 12.9264 989.312 14.1113C991.477 15.2734 993.175 16.8685 994.405 18.8965C995.659 20.9017 996.342 23.1803 996.456 25.7324H990.44C990.326 24.2057 989.894 22.8271 989.142 21.5967C988.412 20.3662 987.41 19.3864 986.134 18.6572C984.881 17.9053 983.411 17.5293 981.725 17.5293C979.788 17.5293 978.159 17.9167 976.837 18.6914C975.538 19.4434 974.501 20.4688 973.727 21.7676C972.975 23.0436 972.428 24.4678 972.086 26.04C971.767 27.5895 971.607 29.1732 971.607 30.791V32.2266C971.607 33.8444 971.767 35.4395 972.086 37.0117C972.405 38.584 972.94 40.0081 973.692 41.2842C974.467 42.5602 975.504 43.5856 976.803 44.3604C978.124 45.1123 979.765 45.4883 981.725 45.4883ZM1008.76 25.7324H1019.87C1022.85 25.7324 1025.37 26.2565 1027.42 27.3047C1029.47 28.3301 1031.02 29.7542 1032.07 31.5771C1033.14 33.3773 1033.68 35.4281 1033.68 37.7295C1033.68 39.4385 1033.38 41.0449 1032.79 42.5488C1032.2 44.0299 1031.31 45.3288 1030.12 46.4453C1028.96 47.5618 1027.51 48.4391 1025.78 49.0771C1024.07 49.6924 1022.1 50 1019.87 50H1004.15V13.0176H1010.47V44.8047H1019.87C1021.69 44.8047 1023.15 44.4743 1024.24 43.8135C1025.34 43.1527 1026.12 42.2982 1026.6 41.25C1027.08 40.2018 1027.32 39.1081 1027.32 37.9688C1027.32 36.8522 1027.08 35.7585 1026.6 34.6875C1026.12 33.6165 1025.34 32.7279 1024.24 32.0215C1023.15 31.2923 1021.69 30.9277 1019.87 30.9277H1008.76V25.7324ZM1084.02 29.0479V34.1748H1064.47V29.0479H1084.02ZM1065.81 13.0176V50H1059.48V13.0176H1065.81ZM1089.15 13.0176V50H1082.79V13.0176H1089.15ZM1114.68 50.6836C1112.11 50.6836 1109.77 50.2507 1107.68 49.3848C1105.6 48.4961 1103.81 47.2542 1102.31 45.6592C1100.83 44.0641 1099.69 42.1729 1098.89 39.9854C1098.1 37.7979 1097.7 35.4053 1097.7 32.8076V31.3721C1097.7 28.3643 1098.14 25.6868 1099.03 23.3398C1099.92 20.9701 1101.13 18.9648 1102.65 17.3242C1104.18 15.6836 1105.91 14.4417 1107.85 13.5986C1109.78 12.7555 1111.79 12.334 1113.86 12.334C1116.51 12.334 1118.79 12.7897 1120.7 13.7012C1122.64 14.6126 1124.22 15.8887 1125.45 17.5293C1126.68 19.1471 1127.59 21.0612 1128.18 23.2715C1128.78 25.459 1129.07 27.8516 1129.07 30.4492V33.2861H1101.46V28.125H1122.75V27.6465C1122.66 26.0059 1122.32 24.4108 1121.72 22.8613C1121.15 21.3118 1120.24 20.0358 1118.99 19.0332C1117.74 18.0306 1116.03 17.5293 1113.86 17.5293C1112.43 17.5293 1111.11 17.8369 1109.9 18.4521C1108.69 19.0446 1107.65 19.9333 1106.79 21.1182C1105.92 22.3031 1105.25 23.75 1104.77 25.459C1104.29 27.168 1104.05 29.139 1104.05 31.3721V32.8076C1104.05 34.5622 1104.29 36.2142 1104.77 37.7637C1105.27 39.2904 1105.99 40.6348 1106.92 41.7969C1107.88 42.959 1109.03 43.8704 1110.38 44.5312C1111.74 45.1921 1113.29 45.5225 1115.03 45.5225C1117.26 45.5225 1119.15 45.0667 1120.7 44.1553C1122.25 43.2438 1123.6 42.0247 1124.77 40.498L1128.59 43.54C1127.8 44.7477 1126.78 45.8984 1125.55 46.9922C1124.32 48.0859 1122.81 48.9746 1121.01 49.6582C1119.23 50.3418 1117.12 50.6836 1114.68 50.6836ZM1136.56 46.6504C1136.56 45.5794 1136.89 44.6794 1137.55 43.9502C1138.23 43.1982 1139.21 42.8223 1140.49 42.8223C1141.77 42.8223 1142.73 43.1982 1143.39 43.9502C1144.08 44.6794 1144.42 45.5794 1144.42 46.6504C1144.42 47.6986 1144.08 48.5872 1143.39 49.3164C1142.73 50.0456 1141.77 50.4102 1140.49 50.4102C1139.21 50.4102 1138.23 50.0456 1137.55 49.3164C1136.89 48.5872 1136.56 47.6986 1136.56 46.6504ZM1155.02 46.6504C1155.02 45.5794 1155.35 44.6794 1156.01 43.9502C1156.69 43.1982 1157.67 42.8223 1158.95 42.8223C1160.22 42.8223 1161.19 43.1982 1161.85 43.9502C1162.54 44.6794 1162.88 45.5794 1162.88 46.6504C1162.88 47.6986 1162.54 48.5872 1161.85 49.3164C1161.19 50.0456 1160.22 50.4102 1158.95 50.4102C1157.67 50.4102 1156.69 50.0456 1156.01 49.3164C1155.35 48.5872 1155.02 47.6986 1155.02 46.6504ZM1173.47 46.6504C1173.47 45.5794 1173.8 44.6794 1174.46 43.9502C1175.15 43.1982 1176.13 42.8223 1177.4 42.8223C1178.68 42.8223 1179.65 43.1982 1180.31 43.9502C1180.99 44.6794 1181.33 45.5794 1181.33 46.6504C1181.33 47.6986 1180.99 48.5872 1180.31 49.3164C1179.65 50.0456 1178.68 50.4102 1177.4 50.4102C1176.13 50.4102 1175.15 50.0456 1174.46 49.3164C1173.8 48.5872 1173.47 47.6986 1173.47 46.6504Z" fill="#1D1D1D"/>
</svg>
