<svg width="1334" height="958" viewBox="0 0 1334 958" fill="none" xmlns="http://www.w3.org/2000/svg">
<path d="M317.526 530.237L315.083 526.98C325.939 515.039 335.438 503.098 343.579 491.157C351.178 480.844 357.692 469.717 363.119 457.776C369.09 445.835 372.075 434.437 372.075 423.581C372.075 407.298 367.19 394.542 357.42 385.315C347.65 375.545 330.281 370.66 305.313 370.66C284.145 370.66 262.705 375.274 240.994 384.501C219.283 393.728 199.743 405.941 182.374 421.138C165.005 436.336 150.621 453.434 139.223 472.431C128.367 491.428 122.94 510.697 122.94 530.237C122.94 563.347 129.181 590.214 141.665 610.84C154.149 630.923 168.533 646.663 184.816 658.062C201.643 669.46 218.469 677.33 235.295 681.672C252.121 685.472 264.605 687.914 272.747 689H8.95586C8.95586 640.15 16.5548 599.17 31.7526 566.06C46.9504 532.951 65.6763 504.455 87.9302 480.573C110.727 456.148 135.423 434.708 162.02 416.253C188.616 397.256 213.041 378.259 235.295 359.262C258.092 339.722 277.089 318.282 292.287 294.942C307.484 271.603 315.083 242.835 315.083 208.64C315.083 185.301 312.912 166.575 308.57 152.463C304.228 137.808 299.343 126.409 293.915 118.268C287.944 109.04 280.888 102.256 272.747 97.9134C315.083 97.9134 351.721 101.713 382.659 109.312C413.598 116.911 439.923 126.952 461.634 139.436C483.345 151.92 500.714 166.304 513.741 182.587C526.767 198.87 536.809 215.968 543.865 233.88C550.921 251.249 555.263 268.889 556.892 286.801C559.063 304.712 559.605 321.267 558.52 336.465C557.434 354.377 555.263 371.474 552.007 387.758C548.75 403.498 545.222 419.51 541.422 435.793C538.166 451.534 535.18 467.817 532.466 484.644C529.753 500.927 528.396 518.839 528.396 538.379C528.396 553.034 530.295 566.603 534.095 579.087C538.437 591.028 543.865 601.884 550.378 611.654C556.892 621.424 564.219 630.108 572.361 637.707C581.045 645.306 589.73 652.091 598.414 658.062C619.04 671.631 642.379 681.944 668.433 689H284.959C299.614 688.457 315.898 684.929 333.809 678.416C351.721 671.36 369.361 661.861 386.73 649.92C404.642 637.979 421.74 623.866 438.023 607.583C454.849 591.3 469.775 573.659 482.802 554.662C495.829 535.665 506.142 515.311 513.741 493.599C521.34 471.888 525.139 449.906 525.139 427.652C525.139 412.454 522.696 399.699 517.811 389.386C512.926 378.53 502.342 373.102 486.059 373.102C476.832 373.102 467.604 375.545 458.377 380.43C449.693 385.315 441.28 391.286 433.138 398.342C425.539 405.398 418.483 412.725 411.969 420.324C405.456 427.923 400.028 434.437 395.686 439.864C391.887 444.207 385.645 451.534 376.96 461.847C368.819 471.617 360.134 481.658 350.907 491.971C340.594 503.912 329.467 516.668 317.526 530.237ZM328.924 193.985C328.924 212.44 327.839 227.909 325.668 240.393C323.496 252.877 321.054 263.461 318.34 272.146C316.169 280.83 313.998 288.7 311.827 295.756C309.656 302.27 308.57 309.326 308.57 316.925C308.57 330.494 311.827 339.993 318.34 345.421C324.853 350.849 332.724 353.562 341.951 353.562C366.376 353.562 384.288 345.963 395.686 330.766C407.627 315.025 412.512 294.399 410.341 268.889C409.256 256.405 407.627 245.549 405.456 236.322C403.285 227.095 401.114 219.496 398.943 213.525C396.229 205.926 393.244 199.413 389.987 193.985L393.244 192.357C396.5 198.328 400.028 204.841 403.828 211.897C406.542 217.868 409.798 225.466 413.598 234.694C417.397 243.378 420.925 253.148 424.182 264.004C426.896 272.146 429.881 281.644 433.138 292.5C436.395 302.813 440.465 312.583 445.35 321.81C450.778 330.494 457.292 338.093 464.89 344.607C473.032 350.577 483.074 353.562 495.015 353.562C511.841 353.562 523.782 347.049 530.838 334.022C537.894 320.996 541.422 306.341 541.422 290.057C541.422 267.803 536.537 246.906 526.767 227.366C516.997 207.283 504.513 189.914 489.316 175.259C474.118 160.604 457.292 148.935 438.837 140.25C420.383 131.566 402.471 127.223 385.102 127.223H376.146C360.948 128.309 349.278 134.822 341.137 146.764C332.995 158.705 328.924 174.445 328.924 193.985ZM973.771 530.237L971.329 526.98C982.184 515.039 991.683 503.098 999.825 491.157C1007.42 480.844 1013.94 469.717 1019.36 457.776C1025.34 445.835 1028.32 434.437 1028.32 423.581C1028.32 407.298 1023.44 394.542 1013.67 385.315C1003.9 375.545 986.527 370.66 961.559 370.66C940.391 370.66 918.951 375.274 897.24 384.501C875.528 393.728 855.988 405.941 838.619 421.138C821.25 436.336 806.867 453.434 795.468 472.431C784.613 491.428 779.185 510.697 779.185 530.237C779.185 563.347 785.427 590.214 797.911 610.84C810.395 630.923 824.779 646.663 841.062 658.062C857.888 669.46 874.714 677.33 891.54 681.672C908.367 685.472 920.85 687.914 928.992 689H665.201C665.201 640.15 672.8 599.17 687.998 566.06C703.196 532.951 721.922 504.455 744.176 480.573C766.973 456.148 791.669 434.708 818.265 416.253C844.861 397.256 869.286 378.259 891.54 359.262C914.337 339.722 933.334 318.282 948.532 294.942C963.73 271.603 971.329 242.835 971.329 208.64C971.329 185.301 969.158 166.575 964.816 152.463C960.473 137.808 955.588 126.409 950.161 118.268C944.19 109.04 937.134 102.256 928.992 97.9134C971.329 97.9134 1007.97 101.713 1038.9 109.312C1069.84 116.911 1096.17 126.952 1117.88 139.436C1139.59 151.92 1156.96 166.304 1169.99 182.587C1183.01 198.87 1193.05 215.968 1200.11 233.88C1207.17 251.249 1211.51 268.889 1213.14 286.801C1215.31 304.712 1215.85 321.267 1214.77 336.465C1213.68 354.377 1211.51 371.474 1208.25 387.758C1205 403.498 1201.47 419.51 1197.67 435.793C1194.41 451.534 1191.43 467.817 1188.71 484.644C1186 500.927 1184.64 518.839 1184.64 538.379C1184.64 553.034 1186.54 566.603 1190.34 579.087C1194.68 591.028 1200.11 601.884 1206.62 611.654C1213.14 621.424 1220.46 630.108 1228.61 637.707C1237.29 645.306 1245.98 652.091 1254.66 658.062C1275.29 671.631 1298.62 681.944 1324.68 689H941.205C955.86 688.457 972.143 684.929 990.055 678.416C1007.97 671.36 1025.61 661.861 1042.98 649.92C1060.89 637.979 1077.99 623.866 1094.27 607.583C1111.09 591.3 1126.02 573.659 1139.05 554.662C1152.07 535.665 1162.39 515.311 1169.99 493.599C1177.59 471.888 1181.38 449.906 1181.38 427.652C1181.38 412.454 1178.94 399.699 1174.06 389.386C1169.17 378.53 1158.59 373.102 1142.3 373.102C1133.08 373.102 1123.85 375.545 1114.62 380.43C1105.94 385.315 1097.53 391.286 1089.38 398.342C1081.78 405.398 1074.73 412.725 1068.22 420.324C1061.7 427.923 1056.27 434.437 1051.93 439.864C1048.13 444.207 1041.89 451.534 1033.21 461.847C1025.06 471.617 1016.38 481.658 1007.15 491.971C996.84 503.912 985.713 516.668 973.771 530.237ZM985.17 193.985C985.17 212.44 984.084 227.909 981.913 240.393C979.742 252.877 977.299 263.461 974.586 272.146C972.414 280.83 970.243 288.7 968.072 295.756C965.901 302.27 964.816 309.326 964.816 316.925C964.816 330.494 968.072 339.993 974.586 345.421C981.099 350.849 988.969 353.562 998.196 353.562C1022.62 353.562 1040.53 345.963 1051.93 330.766C1063.87 315.025 1068.76 294.399 1066.59 268.889C1065.5 256.405 1063.87 245.549 1061.7 236.322C1059.53 227.095 1057.36 219.496 1055.19 213.525C1052.47 205.926 1049.49 199.413 1046.23 193.985L1049.49 192.357C1052.75 198.328 1056.27 204.841 1060.07 211.897C1062.79 217.868 1066.04 225.466 1069.84 234.694C1073.64 243.378 1077.17 253.148 1080.43 264.004C1083.14 272.146 1086.13 281.644 1089.38 292.5C1092.64 302.813 1096.71 312.583 1101.6 321.81C1107.02 330.494 1113.54 338.093 1121.14 344.607C1129.28 350.577 1139.32 353.562 1151.26 353.562C1168.09 353.562 1180.03 347.049 1187.08 334.022C1194.14 320.996 1197.67 306.341 1197.67 290.057C1197.67 267.803 1192.78 246.906 1183.01 227.366C1173.24 207.283 1160.76 189.914 1145.56 175.259C1130.36 160.604 1113.54 148.935 1095.08 140.25C1076.63 131.566 1058.72 127.223 1041.35 127.223H1032.39C1017.19 128.309 1005.52 134.822 997.382 146.764C989.241 158.705 985.17 174.445 985.17 193.985Z" fill="white"/>
<path d="M871.199 920.182C871.199 921.157 871.571 921.845 872.317 922.247C873.063 922.648 873.866 922.849 874.726 922.849C876.045 922.849 877.364 922.562 878.683 921.989C880.06 921.358 881.408 920.555 882.727 919.58C884.046 918.605 885.337 917.515 886.598 916.311C887.86 915.049 889.036 913.758 890.126 912.439C892.764 909.399 895.288 905.958 897.697 902.115C895.46 906.532 893.051 910.489 890.47 913.988C889.38 915.479 888.176 916.942 886.857 918.375C885.537 919.752 884.132 921.014 882.641 922.161C881.207 923.251 879.716 924.14 878.167 924.828C876.619 925.516 875.013 925.86 873.349 925.86C871.399 925.86 869.879 925.401 868.79 924.484C867.7 923.566 867.155 922.276 867.155 920.612C867.155 919.637 867.614 918.576 868.532 917.429C869.507 916.282 870.568 915.135 871.715 913.988C872.862 912.841 873.894 911.751 874.812 910.719C875.73 909.686 876.189 908.826 876.189 908.138C876.074 906.933 875.586 906.187 874.726 905.901C873.923 905.557 873.034 905.385 872.059 905.385C871.313 905.385 870.31 905.499 869.048 905.729C867.843 905.901 866.524 906.101 865.09 906.331C863.714 906.56 862.309 906.761 860.875 906.933C859.498 907.105 858.265 907.191 857.175 907.191C855.684 907.191 854.508 906.761 853.648 905.901C852.788 904.983 852.357 903.979 852.357 902.89C852.357 901.57 852.874 900.452 853.906 899.534C854.996 898.617 856.372 897.871 858.036 897.297C859.756 896.667 861.649 896.179 863.714 895.835C865.779 895.433 867.815 895.118 869.822 894.888C871.83 894.659 873.665 894.487 875.328 894.372C876.991 894.2 878.282 894.028 879.2 893.856C882.756 893.225 885.853 892.308 888.491 891.103C891.187 889.899 893.424 888.579 895.202 887.146C896.98 885.654 898.299 884.106 899.159 882.5C900.077 880.836 900.536 879.288 900.536 877.854C900.536 874.069 899.446 871.029 897.267 868.734C895.144 866.383 892.076 865.207 888.061 865.207C886.283 865.207 884.562 865.465 882.899 865.981C881.236 866.498 879.572 867.415 877.909 868.734C876.246 870.054 874.554 871.832 872.833 874.069C871.113 876.248 869.249 879.03 867.241 882.414C866.495 883.676 865.578 885.081 864.488 886.629C863.456 888.178 862.28 889.612 860.961 890.931C859.642 892.25 858.208 893.369 856.659 894.286C855.168 895.204 853.591 895.663 851.927 895.663C851.64 896.81 851.325 897.957 850.981 899.104C850.751 900.079 850.493 901.112 850.207 902.201C849.977 903.234 849.748 904.151 849.518 904.954C849.404 905.471 849.203 906.331 848.916 907.535C848.629 908.682 848.285 910.002 847.884 911.493C847.482 912.927 846.966 914.418 846.335 915.967C845.762 917.458 845.102 918.834 844.356 920.096C843.611 921.358 842.779 922.39 841.861 923.193C840.944 923.996 839.94 924.398 838.85 924.398C837.933 924.398 837.13 924.054 836.441 923.365C835.753 922.62 835.409 921.415 835.409 919.752C835.409 918.089 835.839 916.483 836.699 914.934C837.56 913.328 838.535 911.923 839.625 910.719C840.829 909.342 842.206 908.023 843.754 906.761C842.722 907.736 841.833 908.74 841.087 909.772C840.399 910.69 839.768 911.694 839.194 912.783C838.621 913.873 838.334 914.963 838.334 916.053C838.334 917.028 838.506 917.745 838.85 918.203C839.252 918.605 839.711 918.806 840.227 918.806C840.858 918.806 841.431 918.462 841.947 917.773C842.521 917.028 843.008 916.196 843.41 915.278C843.869 914.303 844.242 913.386 844.528 912.525C844.873 911.608 845.102 910.948 845.217 910.546C845.331 910.145 845.647 909.17 846.163 907.621C846.679 906.015 847.195 904.295 847.712 902.459C848.343 900.337 849.059 898.014 849.862 895.491C848.601 895.204 847.482 894.745 846.507 894.114C845.647 893.541 844.844 892.766 844.098 891.791C843.41 890.759 843.066 889.411 843.066 887.748C843.123 885.626 843.783 883.79 845.045 882.242C846.364 880.636 847.769 879.317 849.26 878.284C851.038 877.022 853.046 875.961 855.283 875.101C855.684 872.921 856.258 871 857.003 869.337C857.634 867.845 858.408 866.526 859.326 865.379C860.301 864.175 861.477 863.573 862.853 863.573C863.943 863.573 864.803 863.888 865.434 864.519C866.123 865.15 866.467 866.096 866.467 867.358C866.467 868.849 865.951 870.197 864.918 871.402C863.943 872.549 862.853 873.524 861.649 874.327C860.215 875.244 858.58 876.076 856.745 876.822L852.702 892.91C853.791 892.91 854.881 892.594 855.971 891.963C857.118 891.275 858.208 890.415 859.24 889.382C860.33 888.293 861.333 887.146 862.251 885.941C863.226 884.679 864.087 883.475 864.832 882.328C865.635 881.123 866.295 880.091 866.811 879.231C867.327 878.313 867.7 877.682 867.929 877.338C868.273 876.822 868.904 875.761 869.822 874.155C870.797 872.491 872.116 870.771 873.78 868.993C875.443 867.157 877.479 865.551 879.888 864.175C882.297 862.741 885.107 862.024 888.319 862.024C890.04 862.024 891.818 862.282 893.653 862.798C895.489 863.257 897.152 864.06 898.643 865.207C900.192 866.354 901.453 867.932 902.429 869.939C903.461 871.889 903.977 874.384 903.977 877.424C903.977 880.578 903.174 883.245 901.568 885.425C899.962 887.604 897.955 889.411 895.546 890.845C893.137 892.221 890.527 893.311 887.717 894.114C884.907 894.917 882.297 895.519 879.888 895.921C878.97 896.093 877.737 896.236 876.189 896.351C874.64 896.466 872.977 896.609 871.199 896.781C869.421 896.953 867.614 897.183 865.779 897.469C864.001 897.756 862.395 898.129 860.961 898.588C859.527 898.989 858.351 899.506 857.433 900.136C856.516 900.767 856.057 901.542 856.057 902.459C856.057 902.976 856.2 903.406 856.487 903.75C856.831 904.037 857.233 904.266 857.691 904.438C858.15 904.553 858.638 904.639 859.154 904.696C859.67 904.696 860.129 904.696 860.531 904.696C861.391 904.696 862.452 904.61 863.714 904.438C865.033 904.209 866.381 903.979 867.757 903.75C869.191 903.463 870.625 903.234 872.059 903.062C873.493 902.832 874.812 902.717 876.016 902.717C877.106 902.717 878.053 903.062 878.856 903.75C879.716 904.438 880.146 905.385 880.146 906.589C880.146 907.564 879.687 908.625 878.769 909.772C877.852 910.919 876.819 912.095 875.672 913.3C874.583 914.504 873.55 915.708 872.575 916.913C871.657 918.06 871.199 919.15 871.199 920.182ZM845.561 887.576C845.561 888.723 845.819 889.669 846.335 890.415C846.851 891.103 847.425 891.619 848.056 891.963C848.801 892.365 849.633 892.652 850.551 892.824L854.594 877.768C852.931 878.456 851.44 879.288 850.121 880.263C848.973 881.066 847.912 882.098 846.937 883.36C846.02 884.565 845.561 885.97 845.561 887.576ZM861.391 867.702C860.76 867.702 860.186 868.046 859.67 868.734C859.154 869.423 858.724 870.197 858.38 871.057C857.978 872.032 857.634 873.151 857.347 874.413C858.38 873.954 859.297 873.438 860.1 872.864C860.731 872.405 861.333 871.86 861.907 871.229C862.481 870.599 862.767 869.939 862.767 869.251C862.767 868.792 862.624 868.419 862.337 868.132C862.108 867.845 861.792 867.702 861.391 867.702ZM945.752 898.33C946.612 898.33 947.358 898.186 947.989 897.9C948.62 897.556 949.193 897.211 949.71 896.867C950.283 896.466 950.885 896.122 951.516 895.835C952.147 895.491 952.922 895.319 953.839 895.319C955.33 895.319 956.449 895.777 957.195 896.695C957.997 897.556 958.399 898.617 958.399 899.878C958.399 900.509 958.227 901.226 957.883 902.029C957.539 902.832 957.022 903.578 956.334 904.266C955.703 904.954 954.9 905.528 953.925 905.987C952.95 906.446 951.86 906.675 950.656 906.675C948.878 906.675 947.329 906.302 946.01 905.557C944.748 904.754 943.544 903.75 942.397 902.545C941.307 901.341 940.217 900.05 939.128 898.674C938.038 897.297 936.805 896.007 935.428 894.802C934.109 893.541 932.589 892.508 930.868 891.705C929.148 890.845 927.083 890.357 924.674 890.243C923.814 890.243 922.896 890.329 921.921 890.501C921.003 890.616 920.143 890.874 919.34 891.275C918.537 891.677 917.877 892.221 917.361 892.91C916.845 893.598 916.587 894.458 916.587 895.491C916.587 896.695 916.931 897.699 917.619 898.502C918.308 899.305 919.025 900.079 919.77 900.825C920.573 901.57 921.261 902.316 921.835 903.062C922.466 903.807 922.695 904.725 922.523 905.815C922.351 906.904 921.921 907.736 921.233 908.31C920.602 908.826 919.828 909.227 918.91 909.514C917.992 909.801 917.017 910.002 915.985 910.116C914.952 910.231 914.006 910.403 913.146 910.633C912.285 910.805 911.568 911.091 910.995 911.493C910.421 911.894 910.135 912.525 910.135 913.386C910.135 914.131 910.364 914.762 910.823 915.278C911.339 915.794 912.056 916.053 912.974 916.053C913.777 916.053 914.494 915.938 915.124 915.708C915.813 915.479 916.472 915.221 917.103 914.934C917.734 914.59 918.365 914.303 918.996 914.074C919.684 913.844 920.43 913.73 921.233 913.73C922.38 913.73 923.326 914.074 924.072 914.762C924.817 915.393 925.19 916.225 925.19 917.257C925.19 917.945 924.99 918.576 924.588 919.15C924.244 919.666 923.814 920.182 923.298 920.698C922.839 921.215 922.409 921.731 922.007 922.247C921.663 922.706 921.491 923.251 921.491 923.882C921.491 924.914 922.064 925.774 923.212 926.463C924.416 927.208 925.993 927.581 927.943 927.581C929.893 927.581 931.499 927.151 932.761 926.29C934.023 925.43 935.084 924.369 935.944 923.107C936.862 921.845 937.636 920.469 938.267 918.978C938.898 917.429 939.558 916.024 940.246 914.762C940.992 913.5 941.823 912.439 942.741 911.579C943.716 910.719 944.92 910.288 946.354 910.288H946.785C948.276 910.403 949.48 910.977 950.398 912.009C951.316 912.984 951.774 914.189 951.774 915.622C951.774 917.515 950.971 919.264 949.366 920.87C947.817 922.476 945.752 923.853 943.171 925C940.648 926.204 937.808 927.122 934.654 927.753C931.499 928.384 928.345 928.699 925.19 928.699C922.437 928.699 919.713 928.298 917.017 927.495C914.321 926.749 911.884 925.717 909.704 924.398C907.525 923.079 905.747 921.53 904.37 919.752C903.051 917.974 902.392 916.11 902.392 914.16C902.392 911.98 903.195 910.346 904.8 909.256C906.406 908.166 908.328 907.621 910.565 907.621C911.941 907.621 913.289 907.736 914.608 907.965C915.927 908.195 917.103 908.31 918.136 908.31C919.053 908.31 919.799 908.138 920.372 907.793C921.003 907.449 921.376 906.79 921.491 905.815C921.606 904.954 921.376 904.266 920.803 903.75C920.229 903.176 919.455 902.66 918.48 902.201C917.562 901.742 916.53 901.312 915.383 900.911C914.293 900.509 913.232 900.05 912.199 899.534C911.224 898.961 910.393 898.301 909.704 897.556C909.073 896.81 908.758 895.892 908.758 894.802C908.758 892.68 910.048 891.218 912.629 890.415C915.21 889.554 918.566 889.124 922.695 889.124C925.965 889.124 928.775 889.612 931.127 890.587C933.478 891.505 935.514 892.566 937.235 893.77C939.013 894.917 940.561 895.978 941.881 896.953C943.257 897.871 944.548 898.33 945.752 898.33ZM942.569 881.123C944.462 881.123 946.096 881.639 947.473 882.672C948.907 883.647 949.624 885.167 949.624 887.232C949.624 889.239 949.021 890.816 947.817 891.963C946.612 893.11 945.293 893.684 943.859 893.684C942.196 893.684 940.934 893.254 940.074 892.394C939.214 891.533 938.726 890.329 938.611 888.78C938.554 888.207 938.554 887.633 938.611 887.059C938.726 886.429 938.783 885.884 938.783 885.425C938.783 884.966 938.669 884.593 938.439 884.306C938.267 883.962 937.837 883.79 937.149 883.79C936.633 883.79 935.83 883.991 934.74 884.392C933.65 884.737 932.417 885.138 931.041 885.597C929.721 886.056 928.345 886.486 926.911 886.887C925.477 887.232 924.129 887.404 922.867 887.404C919.598 887.404 916.988 886.457 915.038 884.565C913.088 882.614 912.113 880.177 912.113 877.252C912.113 875.244 912.457 873.38 913.146 871.66C913.891 869.939 914.895 868.448 916.157 867.186C917.419 865.867 918.91 864.834 920.631 864.089C922.409 863.343 924.359 862.97 926.481 862.97C927.972 862.97 929.176 863.2 930.094 863.659C931.069 864.117 931.93 864.634 932.675 865.207C933.478 865.781 934.195 866.297 934.826 866.756C935.514 867.215 936.289 867.444 937.149 867.444C938.009 867.444 938.64 866.899 939.042 865.809C939.5 864.72 939.988 863.515 940.504 862.196C941.078 860.819 941.795 859.586 942.655 858.497C943.573 857.407 944.863 856.862 946.526 856.862C948.362 856.862 949.624 857.321 950.312 858.238C951 859.099 951.488 860.074 951.774 861.164C952.119 862.196 952.463 863.171 952.807 864.089C953.151 864.949 953.925 865.379 955.13 865.379C955.589 865.379 956.019 865.236 956.42 864.949C956.822 864.662 957.252 864.347 957.711 864.003C958.227 863.601 958.772 863.257 959.345 862.97C959.976 862.684 960.722 862.54 961.582 862.54C963.073 862.54 964.135 863.028 964.765 864.003C965.396 864.978 965.712 866.039 965.712 867.186C965.712 868.104 965.425 868.993 964.851 869.853C964.335 870.713 963.647 871.459 962.787 872.09C961.926 872.721 960.951 873.237 959.862 873.638C958.829 873.982 957.797 874.155 956.764 874.155C954.929 874.155 953.552 873.753 952.635 872.95C951.717 872.09 951.086 871.057 950.742 869.853C950.398 868.648 950.197 867.329 950.14 865.895C950.14 864.404 950.082 863.056 949.968 861.852C949.91 860.647 949.652 859.644 949.193 858.841C948.792 857.98 948.018 857.55 946.871 857.55C945.781 857.55 944.978 857.952 944.462 858.755C943.945 859.5 943.573 860.447 943.343 861.594C943.114 862.741 942.97 864.003 942.913 865.379C942.856 866.756 942.741 868.075 942.569 869.337C942.454 870.541 942.167 871.602 941.709 872.52C941.307 873.438 940.619 874.011 939.644 874.241C939.414 874.298 939.07 874.327 938.611 874.327C937.35 874.327 936.346 873.782 935.6 872.692C934.912 871.602 934.195 870.398 933.449 869.079C932.704 867.702 931.815 866.469 930.782 865.379C929.807 864.289 928.402 863.745 926.567 863.745C924.617 863.745 922.867 864.117 921.319 864.863C919.828 865.609 919.082 866.641 919.082 867.96C919.082 868.821 919.311 869.451 919.77 869.853C920.229 870.254 920.803 870.513 921.491 870.627C922.179 870.742 922.925 870.799 923.728 870.799C924.531 870.799 925.276 870.857 925.965 870.971C926.653 871.029 927.226 871.229 927.685 871.574C928.144 871.86 928.373 872.377 928.373 873.122C928.373 874.212 928.001 875.158 927.255 875.961C926.567 876.707 925.793 877.395 924.932 878.026C924.072 878.657 923.269 879.288 922.523 879.919C921.835 880.55 921.491 881.267 921.491 882.07C921.491 883.217 921.921 884.048 922.781 884.565C923.642 885.023 924.789 885.253 926.223 885.253C927.599 885.253 928.947 885.052 930.266 884.651C931.643 884.249 932.991 883.819 934.31 883.36C935.686 882.844 937.034 882.356 938.353 881.898C939.73 881.439 941.135 881.181 942.569 881.123ZM1029.07 888.522V894.802H1028.47V888.522C1028.47 884.851 1027.63 882.184 1025.97 880.521C1024.31 878.8 1021.58 877.94 1017.8 877.94H1013.24V877.424H1017.8C1019.63 877.424 1021.15 877.252 1022.36 876.908C1023.62 876.506 1024.62 875.99 1025.37 875.359C1025.2 875.13 1024.59 874.327 1023.56 872.95C1022.53 871.516 1021.07 869.996 1019.17 868.39C1017.28 866.784 1014.96 865.351 1012.21 864.089C1009.51 862.77 1006.41 862.11 1002.91 862.11C999.358 862.11 996.232 862.626 993.536 863.659C990.84 864.691 988.489 866.067 986.481 867.788C984.531 869.509 982.897 871.488 981.577 873.724C980.316 875.904 979.283 878.169 978.48 880.521C977.735 882.873 977.19 885.195 976.846 887.49C976.501 889.784 976.329 891.877 976.329 893.77C976.329 896.867 976.674 900.28 977.362 904.008C978.107 907.679 979.427 911.149 981.319 914.418C983.212 917.63 985.822 920.326 989.148 922.505C992.475 924.685 996.719 925.774 1001.88 925.774C1005.67 925.774 1008.85 925.459 1011.43 924.828C1014.01 924.14 1016.08 923.165 1017.63 921.903C1019.17 920.584 1020.29 919.006 1020.98 917.171C1021.67 915.278 1022.01 913.156 1022.01 910.805V906.159C1022.01 904.897 1021.98 903.836 1021.93 902.976C1021.87 902.058 1021.64 901.341 1021.24 900.825C1020.89 900.251 1020.32 899.85 1019.52 899.62C1018.77 899.391 1017.71 899.276 1016.33 899.276H1008.76C1008.65 899.276 1008.59 899.219 1008.59 899.104V898.932C1008.59 898.817 1008.65 898.76 1008.76 898.76H1038.88C1038.99 898.76 1039.05 898.817 1039.05 898.932V899.104C1039.05 899.219 1038.99 899.276 1038.88 899.276H1034.83C1033.74 899.276 1032.88 899.391 1032.25 899.62C1031.68 899.792 1031.25 900.108 1030.96 900.567C1030.67 900.968 1030.5 901.513 1030.44 902.201C1030.39 902.832 1030.36 903.635 1030.36 904.61V914.16C1028.87 916.569 1026.83 918.691 1024.25 920.526C1023.16 921.329 1021.87 922.132 1020.38 922.935C1018.89 923.681 1017.22 924.369 1015.39 925C1013.55 925.574 1011.49 926.032 1009.19 926.377C1006.9 926.778 1004.38 926.979 1001.62 926.979C996.977 926.979 992.504 926.262 988.202 924.828C983.958 923.394 980.201 921.301 976.932 918.548C973.72 915.737 971.139 912.267 969.189 908.138C967.296 903.951 966.35 899.161 966.35 893.77C966.35 888.379 967.353 883.618 969.361 879.489C971.368 875.359 974.007 871.918 977.276 869.165C980.545 866.354 984.244 864.232 988.374 862.798C992.504 861.364 996.719 860.647 1001.02 860.647C1005.09 860.647 1008.68 861.393 1011.77 862.884C1014.87 864.318 1017.48 865.924 1019.6 867.702C1022.07 869.824 1024.19 872.204 1025.97 874.843C1026.72 874.097 1027.32 873.093 1027.78 871.832C1028.24 870.57 1028.47 868.907 1028.47 866.842V860.561H1029.07V866.842C1029.07 870.57 1029.93 873.266 1031.65 874.929C1033.37 876.592 1036.06 877.424 1039.74 877.424H1044.3V877.94H1039.74C1036.01 877.997 1033.28 878.858 1031.56 880.521C1029.9 882.127 1029.07 884.794 1029.07 888.522ZM1070.4 865.895C1068.74 865.895 1067.36 866.268 1066.27 867.014C1065.24 867.759 1064.38 868.677 1063.69 869.767C1063.06 870.857 1062.51 872.061 1062.05 873.38C1061.65 874.699 1061.22 875.904 1060.76 876.994C1060.36 878.083 1059.9 879.001 1059.39 879.747C1058.87 880.492 1058.15 880.865 1057.24 880.865C1056.32 880.865 1055.6 880.55 1055.08 879.919C1054.63 879.231 1054.22 878.485 1053.88 877.682C1053.54 876.822 1053.19 876.076 1052.85 875.445C1052.5 874.757 1051.99 874.413 1051.3 874.413C1051.18 874.413 1051.1 874.441 1051.04 874.499C1051.04 874.499 1050.98 874.499 1050.87 874.499C1049.26 874.785 1048.23 875.646 1047.77 877.08C1047.31 878.456 1047.11 879.919 1047.17 881.467C1047.23 883.303 1047.57 885.31 1048.2 887.49C1047.51 886.859 1046.91 886.084 1046.4 885.167C1045.94 884.364 1045.51 883.389 1045.1 882.242C1044.76 881.095 1044.59 879.718 1044.59 878.112C1044.59 875.359 1045.22 873.122 1046.48 871.402C1047.8 869.623 1049.26 868.734 1050.87 868.734C1052.07 868.734 1052.9 869.165 1053.36 870.025C1053.88 870.885 1054.25 871.832 1054.48 872.864C1054.77 873.839 1055.03 874.757 1055.26 875.617C1055.49 876.477 1055.94 876.908 1056.63 876.908C1057.44 876.908 1058.07 876.535 1058.53 875.789C1059.04 875.044 1059.5 874.126 1059.9 873.036C1060.3 871.946 1060.73 870.742 1061.19 869.423C1061.65 868.104 1062.28 866.899 1063.09 865.809C1063.89 864.72 1064.92 863.802 1066.18 863.056C1067.44 862.311 1069.08 861.938 1071.09 861.938C1072.98 861.938 1074.47 862.339 1075.56 863.142C1076.71 863.945 1077.57 864.892 1078.14 865.981C1078.77 867.014 1079.17 868.046 1079.35 869.079C1079.52 870.054 1079.6 870.742 1079.6 871.143C1079.6 873.896 1078.74 876.248 1077.02 878.198C1075.3 880.091 1073.12 881.811 1070.48 883.36C1067.9 884.851 1065.09 886.314 1062.05 887.748C1059.07 889.124 1056.26 890.73 1053.62 892.566C1051.04 894.401 1048.89 896.552 1047.17 899.018C1045.45 901.484 1044.59 904.553 1044.59 908.224C1044.59 910.919 1045.1 913.242 1046.14 915.192C1047.23 917.085 1048.52 918.634 1050.01 919.838C1051.56 921.042 1053.19 921.931 1054.91 922.505C1056.63 923.079 1058.15 923.365 1059.47 923.365C1062.63 923.365 1065.52 922.648 1068.16 921.215C1070.8 919.781 1073.21 917.917 1075.39 915.622C1077.57 913.328 1079.49 910.776 1081.15 907.965C1082.82 905.155 1084.19 902.402 1085.28 899.706C1086.43 896.953 1087.29 894.401 1087.86 892.049C1088.44 889.698 1088.72 887.862 1088.72 886.543C1088.72 883.618 1088.61 880.693 1088.38 877.768C1088.15 874.843 1088.21 872.204 1088.55 869.853C1088.9 867.501 1089.7 865.609 1090.96 864.175C1092.28 862.684 1094.43 861.938 1097.41 861.938C1098.62 861.938 1099.68 862.167 1100.6 862.626C1101.57 863.028 1102.35 863.573 1102.92 864.261C1103.55 864.949 1104.01 865.723 1104.3 866.584C1104.64 867.387 1104.81 868.218 1104.81 869.079C1104.81 871.029 1104.35 872.921 1103.43 874.757C1102.52 876.592 1101.48 878.428 1100.34 880.263C1099.25 882.041 1098.24 883.848 1097.33 885.683C1096.41 887.518 1095.95 889.411 1095.95 891.361C1095.95 892.91 1096.21 894.2 1096.72 895.233C1097.3 896.265 1097.93 897.211 1098.62 898.072C1099.31 898.875 1099.91 899.706 1100.42 900.567C1101 901.37 1101.28 902.345 1101.28 903.492C1101.28 904.409 1100.91 905.241 1100.17 905.987C1099.42 906.675 1098.47 907.363 1097.33 908.052C1096.24 908.682 1095.03 909.342 1093.71 910.03C1092.39 910.719 1091.13 911.464 1089.93 912.267C1088.78 913.07 1087.81 913.959 1087 914.934C1086.26 915.909 1085.83 917.056 1085.71 918.375C1085.65 919.064 1085.77 919.666 1086.06 920.182C1086.34 920.641 1086.72 921.042 1087.17 921.387C1087.69 921.673 1088.24 921.903 1088.81 922.075C1089.38 922.247 1089.96 922.333 1090.53 922.333C1092.65 922.333 1094.54 921.673 1096.21 920.354C1097.87 919.035 1099.28 917.544 1100.42 915.881C1101.8 914.045 1103 911.923 1104.04 909.514C1103.12 912.497 1101.97 915.164 1100.6 917.515C1100.02 918.49 1099.36 919.465 1098.62 920.44C1097.87 921.415 1097.01 922.276 1096.04 923.021C1095.12 923.767 1094.09 924.369 1092.94 924.828C1091.85 925.287 1090.64 925.516 1089.33 925.516C1088.29 925.516 1087.32 925.344 1086.4 925C1085.48 924.713 1084.68 924.283 1083.99 923.71C1083.3 923.136 1082.79 922.419 1082.44 921.559C1082.1 920.641 1081.98 919.637 1082.1 918.548C1082.21 917.171 1082.67 915.967 1083.48 914.934C1084.28 913.844 1085.25 912.869 1086.4 912.009C1087.6 911.149 1088.84 910.346 1090.1 909.6C1091.42 908.854 1092.62 908.138 1093.71 907.449C1094.86 906.761 1095.81 906.044 1096.55 905.298C1097.3 904.553 1097.67 903.75 1097.67 902.89C1097.67 901.857 1097.36 900.968 1096.72 900.223C1096.15 899.42 1095.52 898.617 1094.83 897.814C1094.14 897.011 1093.48 896.093 1092.85 895.061C1092.28 894.028 1091.99 892.766 1091.99 891.275C1091.99 889.669 1092.48 888.006 1093.46 886.285C1094.49 884.507 1095.58 882.758 1096.72 881.037C1097.93 879.259 1099.02 877.567 1099.99 875.961C1101.03 874.298 1101.54 872.807 1101.54 871.488C1101.54 869.767 1101.05 868.505 1100.08 867.702C1099.16 866.899 1098.13 866.498 1096.98 866.498C1094.8 866.498 1093.25 867.186 1092.34 868.562C1091.42 869.882 1090.85 871.631 1090.62 873.81C1090.39 875.933 1090.33 878.284 1090.44 880.865C1090.62 883.446 1090.64 885.998 1090.53 888.522C1090.47 889.669 1090.16 891.39 1089.58 893.684C1089.07 895.921 1088.26 898.416 1087.17 901.169C1086.14 903.922 1084.79 906.732 1083.13 909.6C1081.47 912.468 1079.49 915.078 1077.19 917.429C1074.96 919.781 1072.38 921.731 1069.45 923.279C1066.58 924.771 1063.37 925.516 1059.82 925.516C1056.26 925.516 1053.22 925 1050.7 923.968C1048.23 922.878 1046.22 921.53 1044.67 919.924C1043.13 918.261 1042.01 916.483 1041.32 914.59C1040.57 912.697 1040.2 910.891 1040.2 909.17C1040.2 906.532 1040.63 904.151 1041.49 902.029C1042.35 899.907 1043.44 898.014 1044.76 896.351C1046.08 894.688 1047.51 893.254 1049.06 892.049C1050.67 890.845 1052.22 889.841 1053.71 889.038C1055.2 888.178 1056.52 887.49 1057.67 886.973C1058.87 886.457 1059.7 886.113 1060.16 885.941C1060.85 885.654 1062.08 885.138 1063.86 884.392C1065.7 883.59 1067.53 882.586 1069.37 881.381C1071.26 880.177 1072.92 878.8 1074.36 877.252C1075.79 875.703 1076.51 874.011 1076.51 872.176C1076.51 870.226 1075.93 868.706 1074.79 867.616C1073.64 866.469 1072.18 865.895 1070.4 865.895ZM1106.78 923.882C1107.18 921.415 1107.9 919.035 1108.93 916.741C1109.96 914.389 1111.17 912.181 1112.54 910.116C1113.98 908.052 1115.53 906.187 1117.19 904.524C1118.85 902.804 1120.49 901.341 1122.09 900.136C1123.64 898.989 1125.39 897.9 1127.34 896.867C1129.29 895.835 1131.1 894.86 1132.76 893.942C1134.48 892.967 1135.92 892.078 1137.06 891.275C1138.27 890.415 1138.87 889.612 1138.87 888.866C1138.87 888.063 1138.58 887.518 1138.01 887.232C1137.49 886.945 1136.83 886.801 1136.03 886.801C1135.34 886.801 1134.65 886.887 1133.97 887.059C1133.28 887.232 1132.59 887.432 1131.9 887.662C1131.21 887.834 1130.5 888.006 1129.75 888.178C1129.06 888.35 1128.32 888.436 1127.51 888.436C1126.77 888.436 1126.05 888.149 1125.36 887.576C1124.67 887.002 1124.33 886.228 1124.33 885.253C1124.33 883.819 1124.73 882.385 1125.54 880.951C1126.4 879.517 1127.34 878.169 1128.37 876.908C1129.41 875.588 1130.32 874.384 1131.13 873.294C1131.99 872.147 1132.42 871.201 1132.42 870.455C1132.42 870.111 1132.27 869.796 1131.99 869.509C1131.7 869.165 1131.33 868.993 1130.87 868.993C1129.78 868.993 1128.78 869.308 1127.86 869.939C1127 870.57 1126.19 871.402 1125.45 872.434C1124.7 873.409 1124.02 874.556 1123.38 875.875C1122.81 877.137 1122.29 878.456 1121.84 879.833C1120.75 883.045 1119.89 886.687 1119.25 890.759C1119.03 887.26 1119.4 883.733 1120.37 880.177C1121.41 876.621 1122.78 873.409 1124.5 870.541C1126.22 867.616 1128.14 865.264 1130.27 863.486C1132.39 861.651 1134.45 860.733 1136.46 860.733C1137.26 860.733 1137.92 860.992 1138.44 861.508C1138.96 862.024 1139.21 862.684 1139.21 863.486C1139.21 864.232 1138.93 865.15 1138.35 866.24C1137.84 867.272 1137.15 868.39 1136.29 869.595C1135.49 870.799 1134.6 872.032 1133.62 873.294C1132.7 874.556 1131.82 875.789 1130.96 876.994C1130.15 878.141 1129.46 879.231 1128.89 880.263C1128.37 881.295 1128.12 882.156 1128.12 882.844C1128.12 884.392 1128.92 885.167 1130.53 885.167C1131.1 885.167 1131.73 885.052 1132.42 884.823C1133.16 884.536 1133.94 884.249 1134.74 883.962C1135.54 883.676 1136.4 883.417 1137.32 883.188C1138.24 882.901 1139.19 882.758 1140.16 882.758C1141.48 882.758 1142.54 883.131 1143.34 883.876C1144.2 884.565 1144.63 885.482 1144.63 886.629C1144.63 888.006 1144.26 889.182 1143.52 890.157C1142.77 891.132 1141.65 892.078 1140.16 892.996C1138.73 893.856 1136.95 894.774 1134.83 895.749C1132.7 896.724 1130.27 897.928 1127.51 899.362C1125.11 900.567 1123.04 901.857 1121.32 903.234C1119.66 904.553 1118.28 905.815 1117.19 907.019C1116.16 908.224 1115.38 909.285 1114.87 910.202C1114.41 911.12 1114.18 911.751 1114.18 912.095C1114.18 912.497 1114.32 912.697 1114.61 912.697C1115.07 912.697 1115.67 912.21 1116.42 911.235C1117.22 910.26 1118.22 909.17 1119.43 907.965C1120.63 906.761 1122.04 905.671 1123.64 904.696C1125.31 903.721 1127.23 903.234 1129.41 903.234C1130.44 903.234 1131.3 903.406 1131.99 903.75C1132.68 904.094 1133.22 904.524 1133.62 905.04C1134.02 905.557 1134.31 906.13 1134.48 906.761C1134.65 907.335 1134.74 907.879 1134.74 908.396C1134.74 909.657 1134.57 910.977 1134.22 912.353C1133.94 913.672 1133.71 914.934 1133.54 916.139C1133.36 917.286 1133.39 918.289 1133.62 919.15C1133.85 919.953 1134.51 920.498 1135.6 920.784C1135.72 920.784 1135.8 920.813 1135.86 920.87C1135.92 920.87 1135.97 920.87 1136.03 920.87C1136.89 920.87 1137.78 920.412 1138.7 919.494C1139.67 918.576 1140.65 917.572 1141.62 916.483C1142.66 915.393 1143.72 914.389 1144.81 913.472C1145.9 912.554 1147.04 912.095 1148.25 912.095C1149.51 912.095 1150.54 912.497 1151.35 913.3C1152.15 914.103 1152.92 914.992 1153.67 915.967C1154.41 916.884 1155.22 917.745 1156.08 918.548C1156.99 919.351 1158.14 919.752 1159.52 919.752C1160.32 919.752 1160.98 919.58 1161.5 919.236C1162.07 918.834 1162.53 918.375 1162.87 917.859C1163.28 917.343 1163.56 916.798 1163.73 916.225C1163.91 915.594 1163.99 915.078 1163.99 914.676C1163.99 913.701 1163.76 912.697 1163.3 911.665C1162.9 910.575 1162.27 909.6 1161.41 908.74C1160.55 907.879 1159.49 907.163 1158.23 906.589C1156.97 906.015 1155.47 905.729 1153.75 905.729C1151.92 905.729 1150.2 905.987 1148.59 906.503C1147.04 907.019 1145.7 907.593 1144.55 908.224C1143.17 908.969 1141.91 909.801 1140.76 910.719C1141.85 909.571 1143.09 908.568 1144.46 907.707C1145.67 906.904 1147.1 906.216 1148.76 905.643C1150.48 905.012 1152.41 904.696 1154.53 904.696C1156.59 904.696 1158.51 904.983 1160.29 905.557C1162.13 906.073 1163.73 906.818 1165.11 907.793C1166.49 908.768 1167.55 909.944 1168.29 911.321C1169.1 912.64 1169.5 914.131 1169.5 915.794C1169.5 916.999 1169.3 918.175 1168.9 919.322C1168.49 920.412 1167.92 921.387 1167.18 922.247C1166.49 923.107 1165.63 923.796 1164.59 924.312C1163.62 924.771 1162.5 925 1161.24 925C1159.35 925 1157.8 924.656 1156.59 923.968C1155.45 923.222 1154.44 922.419 1153.58 921.559C1152.72 920.698 1151.89 919.924 1151.09 919.236C1150.34 918.49 1149.42 918.117 1148.33 918.117C1147.19 918.117 1146.13 918.49 1145.15 919.236C1144.23 919.924 1143.29 920.698 1142.31 921.559C1141.34 922.419 1140.28 923.222 1139.13 923.968C1137.98 924.656 1136.6 925 1135 925C1133.16 925 1131.82 924.426 1130.96 923.279C1130.1 922.075 1129.66 920.813 1129.66 919.494C1129.66 918.634 1129.72 917.888 1129.84 917.257C1130.01 916.569 1130.18 915.909 1130.35 915.278C1130.58 914.647 1130.75 914.016 1130.87 913.386C1131.04 912.697 1131.13 911.98 1131.13 911.235C1131.13 909.399 1130.64 908.08 1129.66 907.277C1128.75 906.474 1127.57 906.073 1126.14 906.073C1124.93 906.073 1123.79 906.388 1122.7 907.019C1121.61 907.65 1120.52 908.51 1119.43 909.6C1118.39 910.633 1117.36 911.837 1116.33 913.213C1115.3 914.533 1114.27 915.909 1113.23 917.343C1112.54 918.261 1111.94 919.178 1111.43 920.096C1110.91 920.956 1110.42 921.759 1109.96 922.505C1109.56 923.251 1109.19 923.853 1108.84 924.312C1108.5 924.771 1108.16 925 1107.81 925C1107.41 925 1107.12 924.885 1106.95 924.656C1106.78 924.426 1106.72 924.168 1106.78 923.882ZM1212.87 924.484H1215.79C1217 924.484 1217.94 924.34 1218.63 924.054C1219.38 923.767 1219.89 923.423 1220.18 923.021C1220.52 922.562 1220.7 922.046 1220.7 921.473C1220.75 920.899 1220.72 920.354 1220.61 919.838C1220.32 918.92 1220.04 917.888 1219.75 916.741C1219.52 915.594 1219.18 914.389 1218.72 913.127C1218.03 911.063 1216.94 909.227 1215.45 907.621C1213.96 906.015 1211.83 905.212 1209.08 905.212C1207.36 905.212 1205.75 905.729 1204.26 906.761C1202.83 907.736 1201.45 908.998 1200.13 910.546C1198.81 912.038 1197.52 913.672 1196.26 915.45C1195.06 917.171 1193.77 918.806 1192.39 920.354C1191.07 921.845 1189.67 923.107 1188.17 924.14C1186.68 925.115 1185.02 925.602 1183.18 925.602C1180.95 925.602 1179.08 924.914 1177.59 923.537C1176.1 922.161 1175.36 919.953 1175.36 916.913C1175.36 915.135 1175.61 913.185 1176.13 911.063C1176.7 908.883 1177.42 906.589 1178.28 904.18C1179.14 901.714 1180.12 899.133 1181.21 896.437C1182.35 893.741 1183.47 890.988 1184.56 888.178C1185.08 886.859 1185.68 885.31 1186.37 883.532C1187.06 881.754 1187.77 879.919 1188.52 878.026C1189.26 876.133 1189.98 874.298 1190.67 872.52C1191.42 870.685 1192.05 869.107 1192.56 867.788C1192.85 866.985 1193.05 866.383 1193.16 865.981C1193.28 865.523 1193.34 865.064 1193.34 864.605C1193.34 863.573 1192.76 863.056 1191.62 863.056H1185.25C1185.02 863.056 1184.91 862.97 1184.91 862.798V862.712C1184.91 862.597 1185.02 862.54 1185.25 862.54H1219.66C1219.83 862.54 1219.92 862.597 1219.92 862.712V862.798C1219.92 862.97 1219.83 863.056 1219.66 863.056H1214.5C1213.24 863.056 1212.44 863.458 1212.09 864.261C1211.75 865.064 1211.75 866.067 1212.09 867.272C1214.5 876.219 1216.94 885.109 1219.4 893.942C1221.87 902.775 1224.54 911.608 1227.41 920.44C1227.86 921.874 1228.44 922.907 1229.13 923.537C1229.87 924.168 1231.13 924.484 1232.91 924.484H1235.58C1235.75 924.484 1235.84 924.541 1235.84 924.656V924.828C1235.84 924.943 1235.75 925 1235.58 925H1212.87C1212.75 925 1212.69 924.943 1212.69 924.828V924.656C1212.69 924.541 1212.75 924.484 1212.87 924.484ZM1189.98 889.554H1185.34C1184.88 890.759 1184.3 892.221 1183.61 893.942C1182.93 895.663 1182.24 897.469 1181.55 899.362C1180.92 901.255 1180.35 903.148 1179.83 905.04C1179.37 906.876 1179.14 908.51 1179.14 909.944C1179.14 912.296 1179.8 913.988 1181.12 915.02C1182.44 915.995 1183.9 916.483 1185.51 916.483C1186.6 916.483 1187.69 916.225 1188.78 915.708C1189.87 915.135 1190.99 914.418 1192.13 913.558C1193.28 912.697 1194.46 911.751 1195.66 910.719C1196.86 909.686 1198.1 908.711 1199.36 907.793V898.846C1199.36 895.577 1198.61 893.225 1197.12 891.791C1195.63 890.3 1193.25 889.554 1189.98 889.554ZM1193.34 868.734C1193.16 869.079 1192.82 869.91 1192.3 871.229C1191.85 872.549 1191.24 874.155 1190.5 876.047C1189.75 877.94 1188.95 880.033 1188.09 882.328C1187.23 884.565 1186.37 886.801 1185.51 889.038H1189.98C1193.37 889.038 1195.77 888.293 1197.21 886.801C1198.64 885.31 1199.36 882.873 1199.36 879.489V864.519C1198.15 864.576 1197.01 864.863 1195.92 865.379C1194.89 865.895 1194.02 867.014 1193.34 868.734ZM1214.84 899.276C1214.39 897.67 1213.93 896.064 1213.47 894.458C1213.07 892.795 1212.64 891.16 1212.18 889.554H1209.17C1205.78 889.554 1203.37 890.271 1201.94 891.705C1200.56 893.139 1199.88 895.519 1199.88 898.846V907.449C1201.37 906.474 1202.86 905.671 1204.35 905.04C1205.84 904.352 1207.39 904.008 1208.99 904.008C1210.31 904.008 1211.35 904.151 1212.09 904.438C1212.89 904.668 1213.58 904.782 1214.16 904.782C1214.44 904.782 1214.64 904.754 1214.76 904.696C1215.05 904.524 1215.22 904.237 1215.28 903.836C1215.39 903.377 1215.42 902.89 1215.36 902.373C1215.36 901.857 1215.3 901.312 1215.19 900.739C1215.07 900.165 1214.96 899.678 1214.84 899.276ZM1209.17 889.038H1212.01C1210.86 884.909 1209.8 881.095 1208.82 877.596C1207.85 874.097 1207.04 871.258 1206.41 869.079C1206.01 867.702 1205.32 866.612 1204.35 865.809C1203.37 865.006 1201.88 864.576 1199.88 864.519V879.489C1199.88 882.758 1200.59 885.167 1202.03 886.715C1203.52 888.264 1205.9 889.038 1209.17 889.038ZM1268.95 920.182C1268.95 921.157 1269.33 921.845 1270.07 922.247C1270.82 922.648 1271.62 922.849 1272.48 922.849C1273.8 922.849 1275.12 922.562 1276.44 921.989C1277.82 921.358 1279.16 920.555 1280.48 919.58C1281.8 918.605 1283.09 917.515 1284.35 916.311C1285.62 915.049 1286.79 913.758 1287.88 912.439C1290.52 909.399 1293.04 905.958 1295.45 902.115C1293.22 906.532 1290.81 910.489 1288.23 913.988C1287.14 915.479 1285.93 916.942 1284.61 918.375C1283.29 919.752 1281.89 921.014 1280.4 922.161C1278.96 923.251 1277.47 924.14 1275.92 924.828C1274.37 925.516 1272.77 925.86 1271.1 925.86C1269.15 925.86 1267.63 925.401 1266.55 924.484C1265.46 923.566 1264.91 922.276 1264.91 920.612C1264.91 919.637 1265.37 918.576 1266.29 917.429C1267.26 916.282 1268.32 915.135 1269.47 913.988C1270.62 912.841 1271.65 911.751 1272.57 910.719C1273.49 909.686 1273.94 908.826 1273.94 908.138C1273.83 906.933 1273.34 906.187 1272.48 905.901C1271.68 905.557 1270.79 905.385 1269.81 905.385C1269.07 905.385 1268.07 905.499 1266.8 905.729C1265.6 905.901 1264.28 906.101 1262.85 906.331C1261.47 906.56 1260.06 906.761 1258.63 906.933C1257.25 907.105 1256.02 907.191 1254.93 907.191C1253.44 907.191 1252.26 906.761 1251.4 905.901C1250.54 904.983 1250.11 903.979 1250.11 902.89C1250.11 901.57 1250.63 900.452 1251.66 899.534C1252.75 898.617 1254.13 897.871 1255.79 897.297C1257.51 896.667 1259.4 896.179 1261.47 895.835C1263.53 895.433 1265.57 895.118 1267.58 894.888C1269.59 894.659 1271.42 894.487 1273.08 894.372C1274.75 894.2 1276.04 894.028 1276.96 893.856C1280.51 893.225 1283.61 892.308 1286.25 891.103C1288.94 889.899 1291.18 888.579 1292.96 887.146C1294.74 885.654 1296.05 884.106 1296.91 882.5C1297.83 880.836 1298.29 879.288 1298.29 877.854C1298.29 874.069 1297.2 871.029 1295.02 868.734C1292.9 866.383 1289.83 865.207 1285.82 865.207C1284.04 865.207 1282.32 865.465 1280.65 865.981C1278.99 866.498 1277.33 867.415 1275.66 868.734C1274 870.054 1272.31 871.832 1270.59 874.069C1268.87 876.248 1267 879.03 1265 882.414C1264.25 883.676 1263.33 885.081 1262.24 886.629C1261.21 888.178 1260.04 889.612 1258.72 890.931C1257.4 892.25 1255.96 893.369 1254.41 894.286C1252.92 895.204 1251.35 895.663 1249.68 895.663C1249.4 896.81 1249.08 897.957 1248.74 899.104C1248.51 900.079 1248.25 901.112 1247.96 902.201C1247.73 903.234 1247.5 904.151 1247.27 904.954C1247.16 905.471 1246.96 906.331 1246.67 907.535C1246.38 908.682 1246.04 910.002 1245.64 911.493C1245.24 912.927 1244.72 914.418 1244.09 915.967C1243.52 917.458 1242.86 918.834 1242.11 920.096C1241.37 921.358 1240.53 922.39 1239.62 923.193C1238.7 923.996 1237.7 924.398 1236.61 924.398C1235.69 924.398 1234.89 924.054 1234.2 923.365C1233.51 922.62 1233.16 921.415 1233.16 919.752C1233.16 918.089 1233.59 916.483 1234.45 914.934C1235.32 913.328 1236.29 911.923 1237.38 910.719C1238.58 909.342 1239.96 908.023 1241.51 906.761C1240.48 907.736 1239.59 908.74 1238.84 909.772C1238.15 910.69 1237.52 911.694 1236.95 912.783C1236.38 913.873 1236.09 914.963 1236.09 916.053C1236.09 917.028 1236.26 917.745 1236.61 918.203C1237.01 918.605 1237.47 918.806 1237.98 918.806C1238.61 918.806 1239.19 918.462 1239.7 917.773C1240.28 917.028 1240.76 916.196 1241.17 915.278C1241.62 914.303 1242 913.386 1242.28 912.525C1242.63 911.608 1242.86 910.948 1242.97 910.546C1243.09 910.145 1243.4 909.17 1243.92 907.621C1244.43 906.015 1244.95 904.295 1245.47 902.459C1246.1 900.337 1246.82 898.014 1247.62 895.491C1246.36 895.204 1245.24 894.745 1244.26 894.114C1243.4 893.541 1242.6 892.766 1241.85 891.791C1241.17 890.759 1240.82 889.411 1240.82 887.748C1240.88 885.626 1241.54 883.79 1242.8 882.242C1244.12 880.636 1245.52 879.317 1247.02 878.284C1248.79 877.022 1250.8 875.961 1253.04 875.101C1253.44 872.921 1254.01 871 1254.76 869.337C1255.39 867.845 1256.16 866.526 1257.08 865.379C1258.06 864.175 1259.23 863.573 1260.61 863.573C1261.7 863.573 1262.56 863.888 1263.19 864.519C1263.88 865.15 1264.22 866.096 1264.22 867.358C1264.22 868.849 1263.71 870.197 1262.67 871.402C1261.7 872.549 1260.61 873.524 1259.4 874.327C1257.97 875.244 1256.34 876.076 1254.5 876.822L1250.46 892.91C1251.55 892.91 1252.64 892.594 1253.73 891.963C1254.87 891.275 1255.96 890.415 1257 889.382C1258.09 888.293 1259.09 887.146 1260.01 885.941C1260.98 884.679 1261.84 883.475 1262.59 882.328C1263.39 881.123 1264.05 880.091 1264.57 879.231C1265.08 878.313 1265.46 877.682 1265.68 877.338C1266.03 876.822 1266.66 875.761 1267.58 874.155C1268.55 872.491 1269.87 870.771 1271.54 868.993C1273.2 867.157 1275.23 865.551 1277.64 864.175C1280.05 862.741 1282.86 862.024 1286.07 862.024C1287.8 862.024 1289.57 862.282 1291.41 862.798C1293.24 863.257 1294.91 864.06 1296.4 865.207C1297.95 866.354 1299.21 867.932 1300.18 869.939C1301.22 871.889 1301.73 874.384 1301.73 877.424C1301.73 880.578 1300.93 883.245 1299.32 885.425C1297.72 887.604 1295.71 889.411 1293.3 890.845C1290.89 892.221 1288.28 893.311 1285.47 894.114C1282.66 894.917 1280.05 895.519 1277.64 895.921C1276.73 896.093 1275.49 896.236 1273.94 896.351C1272.4 896.466 1270.73 896.609 1268.95 896.781C1267.18 896.953 1265.37 897.183 1263.53 897.469C1261.76 897.756 1260.15 898.129 1258.72 898.588C1257.28 898.989 1256.11 899.506 1255.19 900.136C1254.27 900.767 1253.81 901.542 1253.81 902.459C1253.81 902.976 1253.96 903.406 1254.24 903.75C1254.59 904.037 1254.99 904.266 1255.45 904.438C1255.91 904.553 1256.39 904.639 1256.91 904.696C1257.43 904.696 1257.88 904.696 1258.29 904.696C1259.15 904.696 1260.21 904.61 1261.47 904.438C1262.79 904.209 1264.14 903.979 1265.51 903.75C1266.95 903.463 1268.38 903.234 1269.81 903.062C1271.25 902.832 1272.57 902.717 1273.77 902.717C1274.86 902.717 1275.81 903.062 1276.61 903.75C1277.47 904.438 1277.9 905.385 1277.9 906.589C1277.9 907.564 1277.44 908.625 1276.53 909.772C1275.61 910.919 1274.57 912.095 1273.43 913.3C1272.34 914.504 1271.31 915.708 1270.33 916.913C1269.41 918.06 1268.95 919.15 1268.95 920.182ZM1243.32 887.576C1243.32 888.723 1243.57 889.669 1244.09 890.415C1244.61 891.103 1245.18 891.619 1245.81 891.963C1246.56 892.365 1247.39 892.652 1248.31 892.824L1252.35 877.768C1250.69 878.456 1249.2 879.288 1247.88 880.263C1246.73 881.066 1245.67 882.098 1244.69 883.36C1243.78 884.565 1243.32 885.97 1243.32 887.576ZM1259.15 867.702C1258.52 867.702 1257.94 868.046 1257.43 868.734C1256.91 869.423 1256.48 870.197 1256.14 871.057C1255.73 872.032 1255.39 873.151 1255.1 874.413C1256.14 873.954 1257.05 873.438 1257.86 872.864C1258.49 872.405 1259.09 871.86 1259.66 871.229C1260.24 870.599 1260.52 869.939 1260.52 869.251C1260.52 868.792 1260.38 868.419 1260.09 868.132C1259.86 867.845 1259.55 867.702 1259.15 867.702Z" fill="white"/>
</svg>
