<svg width="2169" height="958" viewBox="0 0 2169 958" fill="none" xmlns="http://www.w3.org/2000/svg">
<path d="M32.5668 647.574C32.5668 575.113 93.6294 533.59 250.764 526.263C446.979 517.307 524.325 520.563 524.325 476.598C524.325 428.562 456.749 391.111 300.428 391.111C198.657 391.111 111.541 419.607 57.806 461.943V387.04C122.94 345.517 214.941 328.42 302.871 328.42C471.404 328.42 593.529 375.641 593.529 497.767V764H521.882V681.769C469.775 739.575 393.244 776.213 265.419 776.213C123.754 776.213 32.5668 737.947 32.5668 647.574ZM521.882 559.644V550.688C486.873 577.555 394.058 579.184 264.605 583.254C163.648 586.511 110.727 601.98 110.727 647.574C110.727 693.981 170.975 713.522 275.189 713.522C408.713 713.522 521.882 660.601 521.882 559.644ZM1117.81 177.798L1486.63 764H1395.44L1288.78 593.839H834.479L726.194 764H642.335L1016.04 177.798H1117.81ZM1069.77 247.003H1055.93L876.001 528.705H1247.26L1069.77 247.003Z" fill="white"/>
<path d="M1799.8 719.263V727.35C1803.93 722.36 1810.72 717.972 1820.19 717.972C1825.26 717.972 1829.48 718.919 1832.23 720.381V728.21C1829.91 726.146 1825.61 724.597 1819.24 724.597C1811.33 724.597 1799.8 728.727 1799.8 741.459V764H1791.88V719.263H1799.8ZM1832.58 741.631C1832.58 728.554 1845.31 717.972 1864.41 717.972C1883.6 717.972 1896.25 728.382 1896.25 741.201V742.234H1840.41C1840.75 753.934 1851.08 758.838 1869.32 758.838C1878.44 758.838 1887.04 756.687 1892.98 753.16V760.301C1886.78 763.484 1877.83 765.29 1869.32 765.29C1845.14 765.29 1832.58 757.375 1832.58 741.631ZM1841.27 736.642H1887.64C1885.23 729.501 1877.06 723.995 1864.41 723.995C1852.28 723.995 1843.94 729.415 1841.27 736.642ZM1900.92 741.631C1900.92 728.468 1913.05 717.972 1931.89 717.972C1942.99 717.972 1951.08 721.672 1956.75 727.006V719.263H1964.5V758.494C1964.5 773.808 1951.16 782.067 1931.8 782.067C1920.88 782.067 1911.33 779.228 1906.17 775.873V768.044C1912.27 772.431 1920.96 775.442 1932.32 775.442C1947.38 775.442 1956.75 769.85 1956.75 759.698V756.171C1951.25 761.333 1943.5 765.29 1932.32 765.29C1913.48 765.29 1900.92 753.848 1900.92 741.631ZM1908.83 741.631C1908.83 751.267 1918.73 758.666 1933.44 758.666C1948.15 758.666 1958.04 751.267 1958.04 741.631C1958.04 731.996 1948.15 724.597 1933.44 724.597C1918.73 724.597 1908.83 731.996 1908.83 741.631ZM1982.51 719.263V740.857C1982.51 753.418 1989.13 758.666 2001.09 758.666C2011.33 758.666 2022.26 754.881 2022.26 739.653V719.263H2030V764H2022.26V755.311C2018.04 760.473 2010.64 765.29 1999.2 765.29C1986.38 765.29 1974.77 757.978 1974.77 742.148V719.263H1982.51ZM2041.54 764V702.056H2049.28V764H2041.54ZM2057.37 751.697C2057.37 744.04 2063.82 739.653 2080.42 738.878C2101.16 737.932 2109.33 738.276 2109.33 733.63C2109.33 728.554 2102.19 724.597 2085.67 724.597C2074.92 724.597 2065.71 727.608 2060.04 732.082V724.167C2066.92 719.779 2076.64 717.972 2085.93 717.972C2103.74 717.972 2116.64 722.962 2116.64 735.867V764H2109.07V755.311C2103.57 761.419 2095.48 765.29 2081.97 765.29C2067 765.29 2057.37 761.247 2057.37 751.697ZM2109.07 742.406V741.459C2105.37 744.298 2095.57 744.471 2081.89 744.901C2071.22 745.245 2065.63 746.879 2065.63 751.697C2065.63 756.601 2071.99 758.666 2083.01 758.666C2097.12 758.666 2109.07 753.074 2109.07 742.406ZM2134.79 719.263V727.35C2138.92 722.36 2145.72 717.972 2155.18 717.972C2160.26 717.972 2164.47 718.919 2167.23 720.381V728.21C2164.9 726.146 2160.6 724.597 2154.24 724.597C2146.32 724.597 2134.79 728.727 2134.79 741.459V764H2126.88V719.263H2134.79Z" fill="white"/>
</svg>
