<svg width="1664" height="334" viewBox="0 0 1664 334" fill="none" xmlns="http://www.w3.org/2000/svg">
<path d="M85.9369 214.842H195.344V265.754H0.722159V231.813L101.102 139.377C120.239 121.684 129.627 102.547 129.989 82.3261C129.989 62.4667 118.073 50.5511 95.3249 50.5511C71.8548 50.5511 59.217 65.7164 57.4116 96.0471L0 87.3812C1.08324 59.5781 10.1102 37.9133 27.8031 22.748C45.496 7.58268 68.6051 0 96.7693 0C124.572 0 146.598 7.2216 163.208 21.6648C180.179 36.1079 188.483 54.1619 188.483 75.8267C188.483 98.9357 181.262 119.878 166.819 138.654C152.375 157.431 125.295 182.706 85.9369 214.842Z" fill="#EDEEEA"/>
<path d="M409.261 66.7997C416.121 86.659 419.732 109.407 419.732 135.405C419.732 187.4 407.094 227.48 375.319 252.394C359.793 264.671 340.295 270.809 317.186 270.809C270.967 270.809 238.831 243.367 224.749 204.01C217.889 184.15 214.639 161.402 214.639 135.405C214.639 83.4093 227.277 43.3295 258.691 18.7761C274.578 6.13835 294.077 0 317.186 0C363.404 0 395.901 27.442 409.261 66.7997ZM272.773 135.405C272.773 190.65 284.327 219.897 317.186 219.897C350.044 219.897 361.959 190.289 361.959 135.405C361.959 80.5207 350.044 51.2733 317.186 51.2733C284.327 51.2733 272.773 80.5207 272.773 135.405Z" fill="#EDEEEA"/>
<path d="M589.276 112.657L684.962 5.05511H755.733L660.408 110.851L756.817 265.754H687.489L620.329 155.986L589.276 190.289V265.754H530.781V5.05511H589.276V112.657Z" fill="#EDEEEA"/>
<path d="M904.487 246.256C888.599 262.505 866.573 270.809 838.048 270.809C809.523 270.809 787.497 262.505 771.248 246.256C755.361 230.008 747.417 208.704 747.417 183.067C747.417 157.431 755.361 136.127 771.248 119.878C787.497 103.63 809.523 95.3249 838.048 95.3249C866.573 95.3249 888.599 103.63 904.487 119.878C920.374 136.127 928.318 157.431 928.318 183.067C928.318 208.704 920.374 230.008 904.487 246.256ZM877.045 183.067C877.045 149.848 864.046 133.238 838.048 133.238C812.05 133.238 799.052 149.848 799.052 183.067C799.052 216.648 812.05 233.618 838.048 233.618C864.046 233.618 877.045 216.648 877.045 183.067Z" fill="#EDEEEA"/>
<path d="M994.903 240.84V333.637H943.991V100.38H991.293V122.045C1006.1 104.352 1024.51 95.3249 1047.26 95.3249C1071.45 95.3249 1089.87 103.63 1103.23 120.6C1116.59 137.571 1123.09 158.153 1123.09 183.067C1123.09 208.343 1116.59 229.285 1103.95 245.895C1091.31 262.505 1073.26 270.809 1050.51 270.809C1022.71 270.809 1003.93 260.699 994.903 240.84ZM994.181 182.345C994.181 214.481 1010.07 231.091 1032.09 231.091C1054.84 231.091 1072.17 218.092 1072.17 182.345C1072.17 150.931 1059.18 135.044 1032.82 135.044C1010.07 135.044 994.181 150.931 994.181 182.345Z" fill="#EDEEEA"/>
<path d="M1297.17 193.9H1183.43C1183.43 224.23 1194.26 236.146 1217.73 236.146C1236.87 236.146 1244.45 228.202 1247.7 209.426L1293.92 213.037C1289.23 247.7 1262.51 270.809 1214.48 270.809C1159.6 270.809 1131.8 239.757 1131.8 183.067C1131.8 129.627 1163.57 95.3249 1218.1 95.3249C1271.17 95.3249 1297.17 132.877 1297.17 193.9ZM1217.37 127.1C1195.71 127.1 1184.88 138.293 1183.43 163.208H1247.34C1246.98 139.738 1235.79 127.1 1217.37 127.1Z" fill="#EDEEEA"/>
<path d="M1471.38 193.9H1357.64C1357.64 224.23 1368.47 236.146 1391.94 236.146C1411.08 236.146 1418.66 228.202 1421.91 209.426L1468.13 213.037C1463.43 247.7 1436.71 270.809 1388.69 270.809C1333.81 270.809 1306 239.757 1306 183.067C1306 129.627 1337.78 95.3249 1392.3 95.3249C1445.38 95.3249 1471.38 132.877 1471.38 193.9ZM1391.58 127.1C1369.92 127.1 1359.08 138.293 1357.64 163.208H1421.55C1421.19 139.738 1409.99 127.1 1391.58 127.1Z" fill="#EDEEEA"/>
<path d="M1537.62 164.652L1597.56 100.38H1661.11L1595.76 164.652L1664 265.754H1603.34L1559.65 200.038L1537.62 221.703V265.754H1486.71V5.05511H1537.62V164.652Z" fill="#EDEEEA"/>
</svg>
