<svg width="1664" height="219" viewBox="0 0 1664 219" fill="none" xmlns="http://www.w3.org/2000/svg">
<path d="M133.789 102.045C154.435 105.761 169.92 112.368 180.243 121.866C190.567 131.26 195.728 143.544 195.728 158.72C195.728 175.753 189.121 189.173 175.908 198.98C162.694 208.787 140.757 213.691 110.097 213.691H0V196.503C11.0458 196.503 18.3753 194.799 21.9885 191.393C25.6016 187.883 27.4082 181.018 27.4082 170.798V47.6933C27.4082 37.783 25.7048 31.0213 22.2982 27.4082C18.8915 23.795 11.4588 21.9885 0 21.9885V4.8003L80.676 2.47757H92.1347C128.472 2.47757 153.248 7.01979 166.462 16.1042C179.676 25.0854 186.283 37.3701 186.283 52.9581C186.283 64.7266 181.895 74.6885 173.12 82.8439C164.449 90.9992 151.338 97.3996 133.789 102.045ZM82.3793 93.0638H93.0638C104.419 93.0638 112.884 90.4314 118.459 85.1666C124.034 79.7985 126.821 70.5592 126.821 57.4487C126.821 47.6417 125.066 39.8993 121.556 34.2215C118.046 28.5437 113.401 24.879 107.62 23.2272C101.942 21.5755 93.5284 20.7497 82.3793 20.7497V93.0638ZM82.3793 111.955V171.572C82.3793 177.353 82.9471 181.74 84.0826 184.734C85.3214 187.728 87.6441 190.257 91.0508 192.322C94.5607 194.283 99.4642 195.264 105.761 195.264C115.568 195.264 122.898 191.805 127.75 184.889C132.705 177.972 135.183 167.597 135.183 153.764C135.183 142.719 133.582 134.099 130.382 127.905C127.182 121.608 122.795 117.375 117.22 115.207C111.646 113.039 103.387 111.955 92.4444 111.955H82.3793Z" fill="#EDEEEA"/>
<path d="M310.471 200.219C302.935 205.69 295.038 209.819 286.779 212.607C278.624 215.291 270.055 216.633 261.074 216.633C249.203 216.633 240.273 213.949 234.286 208.581C228.401 203.213 225.459 196.554 225.459 188.605C225.459 177.353 231.395 167.391 243.267 158.72C255.138 150.048 276.611 140.447 307.684 129.918V118.459C307.684 110.304 305.722 105.09 301.799 102.819C297.877 100.445 293.231 99.2578 287.863 99.2578C274.856 99.2578 267.63 104.006 266.184 113.504C265.152 120.007 263.087 124.756 259.99 127.75C256.893 130.64 252.093 132.086 245.589 132.086C239.705 132.086 235.008 130.537 231.498 127.44C228.092 124.24 226.388 120.524 226.388 116.291C226.388 106.69 232.737 98.5351 245.435 91.8251C258.132 85.115 275.114 81.7599 296.38 81.7599C308.251 81.7599 318.162 82.4825 326.111 83.9278C334.163 85.373 340.615 88.0571 345.467 91.9799C350.422 95.9027 353.674 100.032 355.222 104.368C356.874 108.704 357.7 114.588 357.7 122.02V180.863C357.7 189.741 360.384 194.18 365.752 194.18C370.397 194.18 373.339 191.289 374.578 185.508H387.43C387.121 196.141 383.198 203.987 375.662 209.045C368.229 214.104 359.3 216.633 348.873 216.633C329.879 216.633 317.078 211.161 310.471 200.219ZM307.684 183.495V147.261C293.334 153.248 283.94 158.668 279.501 163.52C275.165 168.372 272.998 173.379 272.998 178.54C272.998 182.463 274.288 186.024 276.869 189.225C279.45 192.322 282.856 193.87 287.089 193.87C290.805 193.87 294.367 192.993 297.773 191.238C301.18 189.483 304.483 186.902 307.684 183.495Z" fill="#EDEEEA"/>
<path d="M404.154 218.801L403.07 176.682H418.245C426.297 194.128 441.06 202.851 462.532 202.851C471.513 202.851 478.946 201.303 484.83 198.206C490.714 195.109 493.656 191.599 493.656 187.676C493.656 184.269 492.056 181.637 488.856 179.779C485.553 178.024 478.172 175.959 466.713 173.585C448.957 169.972 435.846 166.565 427.381 163.365C418.916 160.062 412.103 155.055 406.941 148.345C401.78 141.531 399.199 133.789 399.199 125.117C399.199 112.213 404.464 101.787 414.993 93.8381C425.523 85.786 439.614 81.7599 457.267 81.7599C470.894 81.7599 484.778 84.4439 498.921 89.812C501.399 87.4377 503.36 84.7536 504.806 81.7599H517.658L519.052 120.162H506.664C498.715 104.368 482.869 96.4705 459.125 96.4705C451.383 96.4705 445.034 97.7609 440.079 100.342C435.124 102.819 432.646 106.019 432.646 109.942C432.646 114.072 434.659 117.117 438.685 119.078C442.608 121.04 452.209 123.517 467.487 126.511C483.385 129.711 495.308 132.963 503.257 136.267C511.309 139.57 517.606 144.422 522.149 150.822C526.794 157.119 529.117 164.449 529.117 172.811C529.117 186.334 523.129 197.38 511.154 205.948C499.179 214.517 484.366 218.801 466.713 218.801C453.189 218.801 439.047 215.91 424.284 210.129C421.497 212.194 419.432 215.084 418.09 218.801H404.154Z" fill="#EDEEEA"/>
<path d="M617.071 163.21V176.682C617.071 184.011 618.154 189.225 620.322 192.322C622.49 195.315 627.032 196.967 633.949 197.277V213.691H545.685V197.277C554.667 197.277 560.448 195.883 563.028 193.096C565.713 190.309 567.055 184.837 567.055 176.682V48.003C567.055 40.1573 565.816 34.7893 563.338 31.8988C560.861 28.905 554.976 27.4082 545.685 27.4082V10.9942L617.071 0V142.77L650.053 119.078C656.35 114.433 659.499 110.871 659.499 108.394C659.499 106.949 658.88 105.761 657.641 104.832C656.505 103.8 652.841 103.284 646.647 103.284V86.8699H717.257V103.284C705.799 103.284 692.895 108.445 678.545 118.769L666.467 127.285L698.676 170.488C706.418 180.914 712.302 187.986 716.328 191.702C720.458 195.419 724.484 197.277 728.406 197.277V213.691H646.647V197.277C653.253 197.277 656.557 195.367 656.557 191.547C656.557 189.999 654.802 186.85 651.292 182.102L630.233 153.764L617.071 163.21Z" fill="#EDEEEA"/>
<path d="M790.965 148.809C790.965 165.636 793.804 178.282 799.482 186.747C805.263 195.212 813.883 199.445 825.342 199.445C837.523 199.445 848.724 193.251 858.944 180.863L873.345 189.534C867.46 197.999 858.995 205.019 847.949 210.594C837.007 216.065 824.877 218.801 811.56 218.801C791.12 218.801 773.622 212.607 759.066 200.219C744.511 187.728 737.233 170.901 737.233 149.738C737.233 128.576 744.253 111.955 758.292 99.8772C772.435 87.799 789.417 81.7599 809.237 81.7599C829.161 81.7599 845.472 87.3345 858.169 98.4835C870.97 109.529 877.371 126.305 877.371 148.809H790.965ZM790.81 133.17H829.987C829.368 110.355 822.709 98.9481 810.012 98.9481C803.611 98.9481 798.811 101.787 795.611 107.465C792.41 113.143 790.81 121.711 790.81 133.17Z" fill="#EDEEEA"/>
<path d="M965.479 113.659C971.467 103.026 978.28 95.0769 985.919 89.812C993.558 84.4439 1001.97 81.7599 1011.16 81.7599C1019.93 81.7599 1026.59 84.5472 1031.13 90.1217C1035.68 95.593 1037.95 101.58 1037.95 108.084C1037.95 114.175 1036.14 119.388 1032.53 123.724C1028.92 128.06 1023.86 130.227 1017.35 130.227C1013.84 130.227 1010.95 129.556 1008.68 128.214C1006.41 126.872 1003.42 124.085 999.701 119.853C995.984 115.723 991.958 113.659 987.623 113.659C980.912 113.659 975.854 117.788 972.447 126.047C969.144 134.202 967.492 146.487 967.492 162.9V176.682C967.492 184.321 968.679 189.689 971.054 192.786C973.428 195.78 978.899 197.277 987.468 197.277H990.565V213.691H896.572V197.277C905.553 197.277 911.231 195.78 913.605 192.786C915.979 189.792 917.167 184.424 917.167 176.682V132.395C917.167 124.55 915.928 119.182 913.45 116.291C911.076 113.297 905.347 111.8 896.262 111.8V95.3866L960.524 81.7599C963.415 90.1217 965.066 100.755 965.479 113.659Z" fill="#EDEEEA"/>
<path d="M1110.57 215.859L1066.29 128.06C1060.5 116.704 1056.27 109.736 1053.59 107.155C1050.9 104.574 1047.03 103.284 1041.97 103.284V86.8699H1124.82V103.284C1115.22 103.284 1110.42 105.348 1110.42 109.478C1110.42 110.51 1111.71 113.504 1114.29 118.459L1141.39 172.811L1169.41 116.291C1170.86 113.297 1171.58 111.129 1171.58 109.787C1171.58 105.452 1167.25 103.284 1158.58 103.284V86.8699H1207.2V103.284C1202.35 103.284 1198.53 104.677 1195.74 107.465C1192.95 110.252 1188.05 118.614 1181.03 132.55L1138.91 215.859H1110.57Z" fill="#EDEEEA"/>
<path d="M1232.9 28.0275C1232.9 20.3884 1235.64 13.8331 1241.11 8.36181C1246.58 2.78727 1253.14 0 1260.78 0C1268.52 0 1275.07 2.73565 1280.44 8.20696C1285.81 13.6783 1288.49 20.2851 1288.49 28.0275C1288.49 35.77 1285.76 42.3768 1280.29 47.8481C1274.92 53.3194 1268.41 56.0551 1260.78 56.0551C1252.83 56.0551 1246.17 53.2678 1240.8 47.6933C1235.53 42.0155 1232.9 35.4603 1232.9 28.0275ZM1285.09 81.7599V176.682C1285.09 184.528 1286.32 189.947 1288.8 192.941C1291.28 195.832 1297.06 197.277 1306.15 197.277V213.691H1211.38V197.277H1214.94C1223.71 197.277 1229.24 195.728 1231.51 192.631C1233.88 189.534 1235.07 184.218 1235.07 176.682V130.537C1235.07 122.898 1233.88 117.581 1231.51 114.588C1229.13 111.491 1223.61 109.942 1214.94 109.942H1211.38V93.5284L1285.09 81.7599Z" fill="#EDEEEA"/>
<path d="M1387.6 0V176.682C1387.6 184.631 1388.83 190.051 1391.31 192.941C1393.79 195.832 1399.73 197.277 1409.12 197.277V213.691H1314.82V197.277C1323.08 197.277 1328.91 196.296 1332.31 194.335C1335.72 192.373 1337.42 186.489 1337.42 176.682V48.3127C1337.42 40.1573 1336.08 34.7376 1333.4 32.0536C1330.82 29.2663 1324.62 27.8727 1314.82 27.8727V11.3039L1387.6 0Z" fill="#EDEEEA"/>
<path d="M1486.7 0V176.682C1486.7 184.631 1487.94 190.051 1490.42 192.941C1492.89 195.832 1498.83 197.277 1508.22 197.277V213.691H1413.92V197.277C1422.18 197.277 1428.01 196.296 1431.42 194.335C1434.82 192.373 1436.53 186.489 1436.53 176.682V48.3127C1436.53 40.1573 1435.19 34.7376 1432.5 32.0536C1429.92 29.2663 1423.73 27.8727 1413.92 27.8727V11.3039L1486.7 0Z" fill="#EDEEEA"/>
<path d="M1577.59 148.809C1577.59 165.636 1580.43 178.282 1586.11 186.747C1591.89 195.212 1600.51 199.445 1611.97 199.445C1624.15 199.445 1635.35 193.251 1645.57 180.863L1659.97 189.534C1654.09 197.999 1645.62 205.019 1634.58 210.594C1623.64 216.065 1611.51 218.801 1598.19 218.801C1577.75 218.801 1560.25 212.607 1545.7 200.219C1531.14 187.728 1523.86 170.901 1523.86 149.738C1523.86 128.576 1530.88 111.955 1544.92 99.8772C1559.06 87.799 1576.05 81.7599 1595.87 81.7599C1615.79 81.7599 1632.1 87.3345 1644.8 98.4835C1657.6 109.529 1664 126.305 1664 148.809H1577.59ZM1577.44 133.17H1616.62C1616 110.355 1609.34 98.9481 1596.64 98.9481C1590.24 98.9481 1585.44 101.787 1582.24 107.465C1579.04 113.143 1577.44 121.711 1577.44 133.17Z" fill="#EDEEEA"/>
</svg>
