<svg width="1664" height="465" viewBox="0 0 1664 465" fill="none" xmlns="http://www.w3.org/2000/svg">
<path d="M0 1.57293H171.318C216.758 1.57293 253.241 6.9034 280.768 17.5644C308.381 28.2253 322.188 47.5811 322.188 75.6316C322.188 93.895 315.547 108.838 302.264 120.46C289.069 132.082 274.126 140.515 257.436 145.758C240.745 150.914 224.535 154.584 208.806 156.768L209.33 159.914C292.084 176.168 333.461 209.287 333.461 259.271C333.461 287.234 324.81 308.163 307.507 322.057C290.205 335.951 271.112 344.646 250.227 348.141C229.429 351.549 207.932 353.253 185.737 353.253H0V341.456H45.0906V13.3699H0V1.57293ZM127.8 341.456H162.143C189.756 341.456 209.549 336.301 221.521 325.989C233.492 315.678 239.478 298.113 239.478 273.296V235.677C239.478 187.004 216.015 162.667 169.09 162.667H127.8V341.456ZM127.8 150.87H165.944C193.033 150.87 210.598 144.709 218.637 132.388C226.764 119.979 230.827 108.576 230.827 98.1769V62.786C230.827 29.8419 209.199 13.3699 165.944 13.3699H127.8V150.87Z" fill="#EDEEEA"/>
<path d="M352.095 236.201C352.095 213.394 357.818 192.378 369.266 173.153C380.8 153.841 395.962 138.68 414.75 127.669C433.625 116.659 453.374 111.154 473.996 111.154C494.27 111.154 513.888 116.746 532.85 127.931C551.813 139.029 567.149 154.191 578.858 173.415C590.568 192.64 596.423 213.569 596.423 236.201C596.423 253.329 593.058 269.495 586.33 284.7C579.601 299.817 570.426 313.1 558.803 324.547C547.269 335.907 534.117 344.777 519.349 351.156C504.581 357.535 489.464 360.725 473.996 360.725C453.811 360.725 434.236 355.176 415.274 344.078C396.399 332.98 381.15 317.906 369.528 298.856C357.906 279.719 352.095 258.834 352.095 236.201ZM434.804 186.785V285.617C434.804 299.337 435.809 310.872 437.819 320.222C439.916 329.485 443.805 336.781 449.485 342.112C455.252 347.355 463.423 349.976 473.996 349.976C489.638 349.976 500.168 344.515 505.586 333.592C511.004 322.581 513.713 306.59 513.713 285.617V186.785C513.713 165.551 511.004 149.428 505.586 138.418C500.168 127.407 489.638 121.902 473.996 121.902C458.529 121.902 448.131 127.407 442.8 138.418C437.47 149.341 434.804 165.463 434.804 186.785Z" fill="#EDEEEA"/>
<path d="M771.956 353.253V316.683C764.703 334.16 755.484 345.869 744.299 351.811C733.114 357.754 719.613 360.725 703.796 360.725C688.329 360.725 674.085 357.448 661.065 350.894C648.044 344.253 636.815 335.077 627.378 323.368C618.028 311.571 610.862 298.157 605.881 283.127C600.988 268.009 598.541 252.193 598.541 235.677C598.541 208.413 604.833 185.387 617.416 166.599C630.087 147.724 645.685 133.786 664.211 124.786C682.736 115.698 700.563 111.154 717.69 111.154C729.312 111.154 740.366 115.173 750.853 123.213C761.426 131.252 768.461 140.646 771.956 151.394V18.2197H744.561V7.47141H801.973C819.362 7.47141 834.436 4.98094 847.194 0V342.505H873.41V353.253H771.956ZM681.251 191.635V272.248C681.251 299.337 685.183 318.736 693.048 330.446C700.912 342.068 710.393 347.879 721.491 347.879C734.337 347.879 744.342 342.723 751.508 332.412C758.674 322.101 763.567 309.08 766.189 293.351C768.898 277.622 770.471 258.921 770.907 237.25V206.185C769.16 153.579 752.862 127.276 722.016 127.276C716.336 127.276 710.35 129.199 704.058 133.043C697.854 136.888 692.48 143.661 687.936 153.36C683.479 163.06 681.251 175.818 681.251 191.635Z" fill="#EDEEEA"/>
<path d="M872.776 236.201C872.776 213.394 878.499 192.378 889.947 173.153C901.481 153.841 916.643 138.68 935.43 127.669C954.306 116.659 974.055 111.154 994.677 111.154C1014.95 111.154 1034.57 116.746 1053.53 127.931C1072.49 139.029 1087.83 154.191 1099.54 173.415C1111.25 192.64 1117.1 213.569 1117.1 236.201C1117.1 253.329 1113.74 269.495 1107.01 284.7C1100.28 299.817 1091.11 313.1 1079.48 324.547C1067.95 335.907 1054.8 344.777 1040.03 351.156C1025.26 357.535 1010.14 360.725 994.677 360.725C974.492 360.725 954.917 355.176 935.955 344.078C917.08 332.98 901.831 317.906 890.209 298.856C878.587 279.719 872.776 258.834 872.776 236.201ZM955.485 186.785V285.617C955.485 299.337 956.49 310.872 958.5 320.222C960.597 329.485 964.486 336.781 970.166 342.112C975.933 347.355 984.104 349.976 994.677 349.976C1010.32 349.976 1020.85 344.515 1026.27 333.592C1031.68 322.581 1034.39 306.59 1034.39 285.617V186.785C1034.39 165.551 1031.68 149.428 1026.27 138.418C1020.85 127.407 1010.32 121.902 994.677 121.902C979.21 121.902 968.812 127.407 963.481 138.418C958.151 149.341 955.485 165.463 955.485 186.785Z" fill="#EDEEEA"/>
<path d="M1220.68 111.154V156.768C1230.72 142 1242.96 130.728 1257.38 122.95C1271.8 115.086 1286.43 111.154 1301.29 111.154C1330.65 111.154 1349.35 118.101 1357.39 131.995C1365.43 145.802 1369.45 161.749 1369.45 179.838V342.505H1395.79V353.253H1271.66V342.505H1294.21V197.009C1294.21 176.823 1292.42 162.754 1288.84 154.802C1285.34 146.763 1278.22 142.743 1267.47 142.743C1259.69 142.743 1252.13 145.146 1244.79 149.952C1237.54 154.759 1231.69 161.094 1227.23 168.959C1222.86 176.823 1220.68 184.906 1220.68 193.208V342.505H1243.75V353.253H1118.17V342.505H1145.57V129.373H1118.17V118.625H1176.11C1193.67 118.625 1208.53 116.134 1220.68 111.154Z" fill="#EDEEEA"/>
<path d="M1522.31 387.071L1404.73 129.373H1383.23V118.625H1513.65V129.373H1485.21L1557.7 284.569L1593.74 175.512C1596.19 168.522 1597.41 162.099 1597.41 156.244C1597.41 138.33 1585.79 129.373 1562.55 129.373H1554.55V118.625H1664V129.373H1657.05C1642.98 129.373 1632.15 133.306 1624.55 141.17C1616.94 148.947 1610.78 160.045 1606.06 174.464L1545.38 359.676C1536.72 386.328 1527.42 407.432 1517.46 422.986C1507.49 438.628 1497.05 449.508 1486.13 455.625C1475.21 461.829 1463.1 464.931 1449.82 464.931C1439.42 464.931 1429.63 462.615 1420.46 457.984C1411.28 453.353 1403.94 447.017 1398.44 438.978C1392.93 430.938 1390.18 422.069 1390.18 412.369C1390.18 400.223 1394.29 390.523 1402.5 383.27C1410.8 376.104 1420.5 372.522 1431.6 372.522C1439.9 372.522 1447.33 375.187 1453.88 380.517C1460.44 385.935 1463.71 393.844 1463.71 404.242C1463.71 409.573 1463.1 413.593 1461.88 416.301C1460.74 419.098 1458.34 423.86 1454.67 430.589C1452.83 434.521 1451.92 438.279 1451.92 441.862C1451.92 443.784 1452.83 445.75 1454.67 447.76C1456.5 449.857 1459.34 450.906 1463.19 450.906C1484.25 450.906 1503.95 429.628 1522.31 387.071Z" fill="#EDEEEA"/>
</svg>
