<svg width="1664" height="241" viewBox="0 0 1664 241" fill="none" xmlns="http://www.w3.org/2000/svg">
<path d="M5.27614 235.667V227.577C12.0765 227.108 17.0009 225.35 20.0493 222.301C23.0978 219.253 24.622 211.983 24.622 200.493V36.933C24.622 25.4427 22.8633 18.1734 19.3458 15.1249C16.0629 11.842 9.61429 10.0833 0 9.84879V1.75871H24.622C37.7537 1.75871 49.2439 1.64147 59.0927 1.40697C68.9415 0.937977 78.6731 0.586231 88.2874 0.351739C97.9016 0.117247 108.806 0 120.999 0C148.904 0 169.54 4.4554 182.906 13.3662C196.272 22.277 202.955 34.119 202.955 48.8922C202.955 62.2584 198.5 73.3969 189.589 82.3077C180.913 91.2185 168.954 97.3154 153.711 100.598V101.302C175.285 103.647 191.934 110.095 203.659 120.648C215.618 130.965 221.598 144.801 221.598 162.153C221.598 175.519 218.08 187.83 211.045 199.086C204.011 210.107 193.224 219.018 178.685 225.819C164.146 232.385 145.387 235.667 122.406 235.667H5.27614ZM80.9008 105.523C83.9492 103.412 86.7631 102.123 89.3426 101.654C92.1565 100.95 95.4395 100.481 99.1914 100.247C113.027 99.0741 123.813 94.267 131.552 85.8251C139.29 77.3833 143.159 66.2448 143.159 52.4096C143.159 43.0298 141.283 35.6432 137.531 30.2498C134.014 24.8565 129.441 20.9873 123.813 18.6423C118.42 16.2974 112.675 15.1249 106.578 15.1249C96.4947 15.1249 89.6943 16.5319 86.1769 19.3458C82.6595 21.9253 80.9008 27.7877 80.9008 36.933V105.523ZM101.654 220.543C116.427 220.543 128.151 217.729 136.828 212.101C145.739 206.473 152.07 199.321 155.822 190.644C159.808 181.734 161.802 172.354 161.802 162.505C161.802 145.856 156.877 133.779 147.028 126.276C137.18 118.772 124.751 115.02 109.744 115.02C100.364 115.02 93.2118 116.661 88.2874 119.944C83.363 122.993 80.9008 128.269 80.9008 135.773V200.493C80.9008 208.701 82.1905 214.094 84.7699 216.673C87.3494 219.253 92.9773 220.543 101.654 220.543Z" fill="#EDEEEA"/>
<path d="M327.016 68.5898C344.134 68.5898 359.142 72.1072 372.039 79.142C385.171 85.9424 395.489 95.674 402.992 108.337C410.496 120.999 414.248 135.773 414.248 152.656C414.248 171.181 409.91 187.01 401.234 200.141C392.557 213.273 381.184 223.356 367.115 230.391C353.279 237.426 338.272 240.944 322.092 240.944C305.208 240.944 290.2 237.426 277.069 230.391C263.937 223.356 253.619 213.625 246.115 201.197C238.611 188.534 234.86 173.761 234.86 156.877C234.86 138.352 239.198 122.524 247.874 109.392C256.55 96.2602 267.806 86.1769 281.641 79.142C295.711 72.1072 310.836 68.5898 327.016 68.5898ZM328.071 225.819C336.748 225.819 343.9 220.894 349.528 211.045C355.155 201.197 357.969 185.955 357.969 165.319C357.969 150.311 356.445 136.711 353.397 124.517C350.348 112.089 346.01 102.24 340.382 94.9705C334.989 87.4666 328.54 83.7147 321.036 83.7147C312.36 83.7147 305.208 88.6391 299.58 98.4879C293.952 108.337 291.138 123.579 291.138 144.214C291.138 159.222 292.663 172.94 295.711 185.368C298.759 197.562 303.098 207.411 308.725 214.915C314.353 222.184 320.802 225.819 328.071 225.819Z" fill="#EDEEEA"/>
<path d="M598.319 196.976C598.319 205.652 598.906 212.218 600.078 216.673C601.251 220.894 603.361 223.708 606.409 225.115C609.458 226.522 613.796 227.343 619.424 227.577V235.667H529.73V227.577C533.716 227.343 536.882 226.522 539.227 225.115C541.572 223.708 543.213 220.894 544.151 216.673C545.089 212.218 545.558 205.652 545.558 196.976V126.979C545.558 120.179 544.503 114.668 542.392 110.447C540.282 105.992 535.123 103.764 526.916 103.764C522.46 103.764 517.419 104.468 511.791 105.874C506.397 107.281 500.066 110.33 492.797 115.02V196.976C492.797 205.652 493.383 212.218 494.555 216.673C495.728 220.894 497.838 223.708 500.887 225.115C503.935 226.522 508.273 227.343 513.901 227.577V235.667H424.207V227.577C428.193 227.343 431.359 226.522 433.704 225.115C436.049 223.708 437.69 220.894 438.628 216.673C439.566 212.218 440.035 205.652 440.035 196.976V116.075C440.035 112.558 439.332 110.213 437.925 109.04C436.752 107.868 434.876 107.281 432.297 107.281C429.483 107.281 426.2 107.75 422.448 108.688L418.931 100.598L492.093 66.4793L494.204 68.5898C493.735 70.7002 493.148 75.1556 492.445 81.956C491.976 88.7563 491.741 95.674 491.741 102.709H492.797C497.487 97.3154 502.997 92.0393 509.328 86.8804C515.66 81.7215 522.695 77.3833 530.433 73.8659C538.406 70.3485 546.965 68.5898 556.11 68.5898C570.649 68.5898 581.318 72.1072 588.119 79.142C594.919 85.9424 598.319 96.9637 598.319 112.206V196.976Z" fill="#EDEEEA"/>
<path d="M664.186 240.944C651.289 240.944 641.674 237.074 635.343 229.336C629.246 221.598 626.198 212.687 626.198 202.604C626.198 187.127 633.233 174.582 647.302 164.967C661.606 155.353 683.649 146.559 713.43 138.587V119.944C713.43 108.923 711.085 101.067 706.395 96.3774C701.94 91.453 695.608 88.9908 687.401 88.9908C676.145 88.9908 666.765 93.2118 659.261 101.654C651.992 110.095 646.95 121.468 644.137 135.773H636.046V85.1217C644.019 81.1353 654.337 77.3833 667 73.8659C679.897 70.3485 693.849 68.5898 708.857 68.5898C749.425 68.5898 769.709 84.3009 769.709 115.723V192.403C769.709 197.796 770.412 202.017 771.819 205.066C773.226 207.88 776.04 209.287 780.261 209.287C782.606 209.287 785.185 208.818 787.999 207.88C791.048 206.707 794.213 204.597 797.496 201.548L803.124 207.176C797.965 217.963 791.165 226.053 782.723 231.447C774.281 236.605 764.667 239.185 753.88 239.185C742.39 239.185 733.479 236.957 727.148 232.502C721.051 227.812 716.713 221.129 714.133 212.452H713.43C708.036 221.832 700.884 228.984 691.974 233.909C683.063 238.599 673.8 240.944 664.186 240.944ZM691.622 209.287C696.312 209.287 700.415 208.232 703.933 206.121C707.685 203.776 710.85 201.197 713.43 198.383V152.656C702.643 155.705 694.436 159.691 688.808 164.615C683.414 169.54 679.78 174.464 677.904 179.389C676.262 184.313 675.442 188.417 675.442 191.7C675.442 196.624 676.849 200.845 679.663 204.362C682.476 207.645 686.463 209.287 691.622 209.287Z" fill="#EDEEEA"/>
<path d="M1093.91 238.481C1090.4 234.729 1086.76 231.095 1083.01 227.577C1079.26 223.825 1073.28 218.315 1065.07 211.045L926.484 84.4182H925.781V200.493C925.781 208.466 927.774 214.915 931.76 219.839C935.981 224.529 943.133 227.108 953.216 227.577V235.667H888.144V227.577C894.945 227.108 899.869 224.529 902.917 219.839C905.966 214.915 907.49 208.466 907.49 200.493V36.933C907.49 25.4427 905.731 18.1734 902.214 15.1249C898.931 11.842 892.482 10.0833 882.868 9.84879V1.75871H925.077C928.595 6.21412 932.346 10.2005 936.333 13.7179C940.319 17.2354 944.892 21.4563 950.051 26.3807L1090.04 153.008H1090.75V36.933C1090.75 28.9601 1088.75 22.5115 1084.77 17.5871C1080.78 12.6627 1073.63 10.0833 1063.31 9.84879V1.75871H1128.38V9.84879C1121.58 10.0833 1116.66 12.6627 1113.61 17.5871C1110.56 22.5115 1109.04 28.9601 1109.04 36.933V200.493C1109.04 207.059 1109.04 213.39 1109.04 219.487C1109.27 225.35 1109.51 231.681 1109.74 238.481H1093.91Z" fill="#EDEEEA"/>
<path d="M1233.23 68.5898C1250.35 68.5898 1265.36 72.1072 1278.26 79.142C1291.39 85.9424 1301.71 95.674 1309.21 108.337C1316.71 120.999 1320.47 135.773 1320.47 152.656C1320.47 171.181 1316.13 187.01 1307.45 200.141C1298.78 213.273 1287.4 223.356 1273.33 230.391C1259.5 237.426 1244.49 240.944 1228.31 240.944C1211.43 240.944 1196.42 237.426 1183.29 230.391C1170.15 223.356 1159.84 213.625 1152.33 201.197C1144.83 188.534 1141.08 173.761 1141.08 156.877C1141.08 138.352 1145.42 122.524 1154.09 109.392C1162.77 96.2602 1174.02 86.1769 1187.86 79.142C1201.93 72.1072 1217.05 68.5898 1233.23 68.5898ZM1234.29 225.819C1242.97 225.819 1250.12 220.894 1255.75 211.045C1261.37 201.197 1264.19 185.955 1264.19 165.319C1264.19 150.311 1262.66 136.711 1259.61 124.517C1256.57 112.089 1252.23 102.24 1246.6 94.9705C1241.21 87.4666 1234.76 83.7147 1227.25 83.7147C1218.58 83.7147 1211.43 88.6391 1205.8 98.4879C1200.17 108.337 1197.36 123.579 1197.36 144.214C1197.36 159.222 1198.88 172.94 1201.93 185.368C1204.98 197.562 1209.32 207.411 1214.94 214.915C1220.57 222.184 1227.02 225.819 1234.29 225.819Z" fill="#EDEEEA"/>
<path d="M1395.85 239.185C1394.21 233.088 1392.45 227.812 1390.57 223.356C1388.7 218.667 1386.35 213.508 1383.54 207.88L1335 109.04C1331.25 101.302 1328.2 95.5567 1325.85 91.8048C1323.51 88.0529 1321.4 85.5907 1319.52 84.4182C1317.88 83.0112 1315.77 82.1905 1313.19 81.956V73.8659H1401.48V81.956C1395.61 82.1905 1391.75 83.7147 1389.87 86.5286C1387.99 89.3426 1387.41 92.7428 1388.11 96.7292C1388.81 100.716 1390.1 104.819 1391.98 109.04L1421.53 170.595H1422.23L1447.91 109.04C1450.49 102.943 1450.6 97.0809 1448.26 91.453C1446.15 85.5906 1441.22 82.425 1433.49 81.956V73.8659H1489.41V81.956C1484.02 82.425 1479.45 85.5906 1475.69 91.453C1471.94 97.0809 1468.78 102.943 1466.2 109.04L1424.34 207.88C1421.76 214.211 1419.88 219.487 1418.71 223.708C1417.54 227.929 1416.25 233.088 1414.84 239.185H1395.85Z" fill="#EDEEEA"/>
<path d="M1525.06 240.944C1512.16 240.944 1502.55 237.074 1496.22 229.336C1490.12 221.598 1487.07 212.687 1487.07 202.604C1487.07 187.127 1494.11 174.582 1508.18 164.967C1522.48 155.353 1544.52 146.559 1574.31 138.587V119.944C1574.31 108.923 1571.96 101.067 1567.27 96.3774C1562.82 91.453 1556.48 88.9908 1548.28 88.9908C1537.02 88.9908 1527.64 93.2118 1520.14 101.654C1512.87 110.095 1507.83 121.468 1505.01 135.773H1496.92V85.1217C1504.9 81.1353 1515.21 77.3833 1527.88 73.8659C1540.77 70.3485 1554.73 68.5898 1569.73 68.5898C1610.3 68.5898 1630.58 84.3009 1630.58 115.723V192.403C1630.58 197.796 1631.29 202.017 1632.69 205.066C1634.1 207.88 1636.92 209.287 1641.14 209.287C1643.48 209.287 1646.06 208.818 1648.87 207.88C1651.92 206.707 1655.09 204.597 1658.37 201.548L1664 207.176C1658.84 217.963 1652.04 226.053 1643.6 231.447C1635.16 236.605 1625.54 239.185 1614.76 239.185C1603.27 239.185 1594.35 236.957 1588.02 232.502C1581.93 227.812 1577.59 221.129 1575.01 212.452H1574.31C1568.91 221.832 1561.76 228.984 1552.85 233.909C1543.94 238.599 1534.68 240.944 1525.06 240.944ZM1552.5 209.287C1557.19 209.287 1561.29 208.232 1564.81 206.121C1568.56 203.776 1571.73 201.197 1574.31 198.383V152.656C1563.52 155.705 1555.31 159.691 1549.68 164.615C1544.29 169.54 1540.66 174.464 1538.78 179.389C1537.14 184.313 1536.32 188.417 1536.32 191.7C1536.32 196.624 1537.72 200.845 1540.54 204.362C1543.35 207.645 1547.34 209.287 1552.5 209.287Z" fill="#EDEEEA"/>
</svg>
