<svg width="1664" height="368" viewBox="0 0 1664 368" fill="none" xmlns="http://www.w3.org/2000/svg">
<path d="M273.866 349.556C257.471 355.445 240.678 359.823 223.486 362.688C206.454 365.712 189.024 367.225 171.196 367.225C153.846 367.225 137.53 365.314 122.249 361.494C106.968 357.833 93.2785 352.341 81.181 345.019C55.7124 329.897 35.8151 309.363 21.4891 283.417C7.16303 257.312 0 228.66 0 197.461C0 172.47 4.29782 149.309 12.8934 127.979C21.6483 106.65 34.3029 88.1052 50.8575 72.3466C66.2978 57.3838 84.285 46.1617 104.819 38.6803C125.512 31.0398 148.593 27.2195 174.062 27.2195C190.457 27.2195 206.932 28.7317 223.486 31.7561C240.2 34.7805 256.994 39.3171 273.866 45.3658V127.024H238.051L228.262 74.7343L221.576 66.3774C214.891 63.9897 208.285 62.1592 201.759 60.8857C195.391 59.6123 189.104 58.9756 182.896 58.9756C148.832 58.9756 121.771 71.3915 101.715 96.2233C81.8177 120.896 71.869 154.483 71.869 196.983C71.869 240.598 82.2952 274.742 103.148 299.415C124 324.087 152.732 336.424 189.343 336.424C193.322 336.424 197.779 336.026 202.714 335.23C207.807 334.434 213.219 333.32 218.95 331.887L226.352 324.485L238.051 265.51H273.866V349.556Z" fill="#EDEEEA"/>
<path d="M367.587 0H390.987V147.558C410.566 136.893 426.881 129.253 439.934 124.637C453.146 120.021 464.686 117.712 474.555 117.712C497.159 117.712 513.952 124.478 524.935 138.008C536.078 151.379 541.649 171.674 541.649 198.893V329.977L548.096 337.379L573.883 339.289V361.255H454.021V339.289L475.033 337.379L481.957 329.977V212.981C481.957 194.834 478.376 181.543 471.213 173.106C464.209 164.511 453.146 160.213 438.024 160.213C431.816 160.213 424.812 160.929 417.012 162.362C409.372 163.795 400.697 165.864 390.987 168.57V329.977L398.388 337.379L419.878 339.289V361.255H299.061V339.289L324.132 337.379L330.817 329.977V42.0231H295.241V22.9217L367.587 0Z" fill="#EDEEEA"/>
<path d="M742.338 313.263V233.515C710.184 240.678 688.217 248.477 676.438 256.914C664.659 265.35 658.769 276.811 658.769 291.296C658.769 302.598 662.032 311.592 668.559 318.277C675.085 324.804 683.919 328.067 695.062 328.067C701.27 328.067 708.274 326.873 716.074 324.485C724.032 321.938 732.787 318.198 742.338 313.263ZM742.338 333.32C725.783 344.621 710.741 352.819 697.211 357.913C683.681 363.006 670.708 365.553 658.292 365.553C639.509 365.553 624.148 359.664 612.21 347.884C600.271 335.946 594.302 320.665 594.302 302.041C594.302 279.119 603.057 261.451 620.566 249.035C638.076 236.619 678.905 223.168 743.054 208.683V194.118C743.054 176.449 739.314 163.556 731.832 155.438C724.351 147.32 712.572 143.261 696.495 143.261C692.993 143.261 689.332 143.499 685.511 143.977C681.691 144.454 677.552 145.171 673.095 146.126V191.969H627.968C620.169 191.969 614.438 190.537 610.777 187.671C607.275 184.806 605.524 180.27 605.524 174.062C605.524 158.78 615.791 145.489 636.325 134.187C656.859 122.886 682.089 117.235 712.014 117.235C745.601 117.235 769.239 123.682 782.928 136.575C796.618 149.469 803.462 171.913 803.462 203.908V330.454L809.909 337.379L835.935 339.766V361.255H748.785L742.338 333.32Z" fill="#EDEEEA"/>
<path d="M849.908 361.255V339.289L875.933 337.379L882.857 329.977V161.168H847.52V141.589L919.389 118.667H943.027L940.878 168.57C949.314 159.656 958.308 151.06 967.859 142.783C977.409 134.347 987.438 126.388 997.943 118.906C1000.65 118.429 1002.8 118.11 1004.39 117.951C1006.14 117.792 1007.65 117.712 1008.93 117.712C1014.18 117.712 1019.43 118.429 1024.69 119.861C1030.1 121.135 1035.59 123.204 1041.16 126.069L1034.95 193.641H1009.4C1005.74 187.592 1001.29 183.135 996.033 180.27C990.94 177.404 984.811 175.972 977.648 175.972C973.51 175.972 968.495 177.166 962.606 179.553C956.875 181.782 950.349 185.124 943.027 189.581V329.977L950.19 337.379L985.05 339.289V361.255H849.908Z" fill="#EDEEEA"/>
<path d="M1077.82 158.78H1046.06V140.157L1082.11 119.623L1107.66 68.7651H1138.46V129.412H1210.81V158.78H1138.46V280.552C1138.46 298.857 1141.41 311.353 1147.3 318.038C1153.19 324.724 1163.77 328.067 1179.05 328.067C1185.1 328.067 1190.67 327.828 1195.77 327.35C1201.02 326.714 1206.03 325.838 1210.81 324.724V348.123C1196.8 353.217 1183.43 357.117 1170.7 359.823C1158.12 362.37 1146.58 363.643 1136.08 363.643C1127.48 363.643 1119.84 362.768 1113.15 361.017C1106.63 359.266 1100.74 356.56 1095.48 352.898C1088.96 348.601 1084.34 343.268 1081.64 336.901C1079.09 330.375 1077.82 318.436 1077.82 301.086V158.78Z" fill="#EDEEEA"/>
<path d="M1383.56 210.593V205.34C1383.56 185.443 1379.9 170.241 1372.58 159.736C1365.26 149.071 1354.75 143.738 1341.06 143.738C1326.1 143.738 1314.08 149.707 1305.01 161.646C1295.93 173.425 1291 189.741 1290.2 210.593H1383.56ZM1447.79 300.608V336.901C1431.08 346.452 1414.2 353.615 1397.17 358.39C1380.14 363.165 1363.11 365.553 1346.08 365.553C1309.62 365.553 1280.34 354.331 1258.21 331.887C1236.24 309.443 1225.26 279.756 1225.26 242.827C1225.26 205.738 1236.48 175.494 1258.93 152.095C1281.53 128.537 1310.58 116.757 1346.08 116.757C1378.23 116.757 1403.22 126.467 1421.05 145.887C1438.88 165.148 1447.79 192.287 1447.79 227.307V236.619H1287.82V238.051C1287.82 265.908 1294.82 287.795 1308.83 303.712C1322.84 319.63 1342.1 327.589 1366.61 327.589C1379.5 327.589 1392.64 325.361 1406.01 320.904C1419.38 316.447 1433.31 309.682 1447.79 300.608Z" fill="#EDEEEA"/>
<path d="M1472.75 361.255V339.289L1498.77 337.379L1505.7 329.977V161.168H1470.36V141.589L1542.23 118.667H1565.87L1563.72 168.57C1572.15 159.656 1581.15 151.06 1590.7 142.783C1600.25 134.347 1610.28 126.388 1620.78 118.906C1623.49 118.429 1625.64 118.11 1627.23 117.951C1628.98 117.792 1630.49 117.712 1631.77 117.712C1637.02 117.712 1642.27 118.429 1647.53 119.861C1652.94 121.135 1658.43 123.204 1664 126.069L1657.79 193.641H1632.24C1628.58 187.592 1624.13 183.135 1618.87 180.27C1613.78 177.404 1607.65 175.972 1600.49 175.972C1596.35 175.972 1591.34 177.166 1585.45 179.553C1579.72 181.782 1573.19 185.124 1565.87 189.581V329.977L1573.03 337.379L1607.89 339.289V361.255H1472.75Z" fill="#EDEEEA"/>
</svg>
