<svg width="1664" height="238" viewBox="0 0 1664 238" fill="none" xmlns="http://www.w3.org/2000/svg">
<path d="M118.211 237.364C100 237.364 83.6215 234.59 69.0741 229.043C54.5266 223.496 42.0724 215.595 31.7113 205.338C21.4548 194.977 13.6055 182.732 8.1633 168.603C2.7211 154.37 0 138.619 0 121.351C0 98.9538 4.55261 78.9642 13.6578 61.3817C22.763 43.6946 35.8452 29.8274 52.9044 19.7803C69.9636 9.73315 90.3719 4.70959 114.129 4.70959C121.351 4.70959 128.467 5.18054 135.479 6.12246C142.596 7.06438 149.399 8.32028 155.888 9.89014C162.376 11.46 168.394 13.2915 173.941 15.3847C179.593 17.3732 184.616 19.5186 189.012 21.8211L185.087 69.859C176.924 64.7307 169.074 60.6491 161.539 57.614C154.004 54.4743 146.73 52.2242 139.718 50.8636C132.811 49.3984 126.217 48.6658 119.938 48.6658C107.169 48.6658 95.8141 51.4916 85.8716 57.1431C75.9291 62.6899 68.0798 70.9055 62.3236 81.7899C56.6721 92.5697 53.8464 105.757 53.8464 121.351C53.8464 131.293 55.3116 140.712 58.242 149.608C61.1724 158.399 65.568 166.196 71.4288 172.999C77.3943 179.802 84.825 185.139 93.7209 189.012C102.617 192.884 113.03 194.82 124.961 194.82C129.88 194.82 134.799 194.506 139.718 193.878C144.742 193.146 149.765 192.047 154.789 190.582C159.812 189.116 164.836 187.128 169.859 184.616C174.883 182 179.906 178.86 184.93 175.197L187.756 222.607C183.256 225.119 178.284 227.316 172.842 229.2C167.4 231.084 161.644 232.602 155.574 233.753C149.608 235.009 143.433 235.898 137.049 236.422C130.77 237.05 124.49 237.364 118.211 237.364Z" fill="#EDEEEA"/>
<path d="M284.803 237.364C270.569 237.364 258.168 235.113 247.597 230.613C237.131 226.113 228.445 219.99 221.537 212.246C214.735 204.501 209.606 195.657 206.153 185.715C202.804 175.668 201.129 165.202 201.129 154.318C201.129 138.724 204.269 124.752 210.548 112.402C216.932 99.948 226.247 90.1626 238.492 83.0458C250.841 75.8245 265.965 72.2138 283.861 72.2138C297.676 72.2138 309.764 74.3069 320.125 78.4932C330.591 82.5749 339.277 88.3834 346.185 95.9187C353.197 103.349 358.43 112.088 361.883 122.135C365.337 132.078 367.064 142.805 367.064 154.318C367.064 170.121 363.872 184.302 357.488 196.861C351.104 209.315 341.789 219.205 329.544 226.531C317.299 233.753 302.385 237.364 284.803 237.364ZM284.646 199.059C292.495 199.059 298.932 196.966 303.955 192.779C309.083 188.488 312.903 182.942 315.415 176.139C318.032 169.336 319.34 162.062 319.34 154.318C319.34 145.108 317.875 137.259 314.944 130.77C312.014 124.176 307.932 119.153 302.699 115.699C297.466 112.245 291.396 110.518 284.489 110.518C276.744 110.518 270.203 112.455 264.866 116.327C259.633 120.199 255.656 125.432 252.935 132.026C250.318 138.619 249.01 146.05 249.01 154.318C249.01 162.062 250.318 169.336 252.935 176.139C255.656 182.942 259.633 188.488 264.866 192.779C270.203 196.966 276.797 199.059 284.646 199.059Z" fill="#EDEEEA"/>
<path d="M384.695 233.125C384.695 221.927 384.695 211.094 384.695 200.629C384.695 190.058 384.695 178.284 384.695 165.307V149.608C384.695 137.572 384.695 125.485 384.695 113.344C384.695 101.204 384.695 88.9067 384.695 76.4524L424.099 74.0976L426.14 101.256H430.064C433.623 96.2327 437.809 91.5231 442.623 87.1275C447.438 82.6272 452.984 79.0165 459.264 76.2954C465.648 73.5743 472.869 72.2138 480.928 72.2138C492.964 72.2138 502.278 75.2488 508.872 81.319C515.57 87.2845 520.07 95.9187 522.372 107.222L525.512 107.693C526.14 110.728 526.611 113.92 526.925 117.269C527.344 120.513 527.553 123.967 527.553 127.63C527.553 134.537 527.553 140.974 527.553 146.939C527.553 152.8 527.553 158.923 527.553 165.307C527.553 178.075 527.553 189.797 527.553 200.472C527.553 211.042 527.553 221.927 527.553 233.125H480.614C480.614 221.927 480.614 211.094 480.614 200.629C480.614 190.163 480.614 179.226 480.614 167.819V142.701C480.614 133.491 479.149 126.583 476.218 121.978C473.393 117.269 468.317 114.914 460.991 114.914C456.7 114.914 452.775 115.856 449.217 117.74C445.658 119.624 442.414 122.135 439.484 125.275C436.553 128.31 433.937 131.659 431.634 135.322V167.819C431.634 179.54 431.634 190.582 431.634 200.943C431.634 211.199 431.634 221.927 431.634 233.125H384.695ZM575.905 233.125C575.905 221.927 575.905 211.094 575.905 200.629C575.905 190.163 575.905 179.226 575.905 167.819V142.701C575.905 133.491 574.492 126.583 571.666 121.978C568.84 117.269 563.712 114.914 556.282 114.914C551.991 114.914 548.066 115.856 544.508 117.74C540.949 119.519 537.652 121.978 534.617 125.118C531.687 128.153 529.071 131.555 526.768 135.322L519.704 101.57H523.785C527.553 96.442 531.949 91.6278 536.972 87.1275C541.996 82.6272 547.752 79.0165 554.241 76.2954C560.834 73.5743 568.213 72.2138 576.376 72.2138C591.97 72.2138 603.587 76.9234 611.227 86.3426C618.971 95.6571 622.844 109.42 622.844 127.63C622.844 134.537 622.844 140.974 622.844 146.939C622.844 152.8 622.844 158.923 622.844 165.307C622.844 178.075 622.844 189.797 622.844 200.472C622.844 211.042 622.844 221.927 622.844 233.125H575.905Z" fill="#EDEEEA"/>
<path d="M646.885 233.125C646.885 221.927 646.885 211.094 646.885 200.629C646.885 190.058 646.885 178.284 646.885 165.307V149.608C646.885 139.247 646.885 129.985 646.885 121.821C646.885 113.554 646.885 105.809 646.885 98.5875C646.885 91.2615 646.885 83.8831 646.885 76.4524L693.824 75.0395C693.824 82.5749 693.824 90.0579 693.824 97.4886C693.824 104.919 693.824 112.821 693.824 121.194C693.824 129.566 693.824 139.038 693.824 149.608V165.307C693.824 178.284 693.824 190.058 693.824 200.629C693.824 211.094 693.824 221.927 693.824 233.125H646.885ZM669.962 52.2765C661.275 52.2765 654.315 50.2357 649.083 46.154C643.954 41.9677 641.39 35.2173 641.39 25.9028C641.39 17.5301 643.954 11.146 649.083 6.75041C654.315 2.25014 661.38 0 670.276 0C679.172 0 686.131 2.35479 691.155 7.06438C696.283 11.6693 698.847 17.9488 698.847 25.9028C698.847 35.2173 696.283 41.9677 691.155 46.154C686.027 50.2357 678.962 52.2765 669.962 52.2765Z" fill="#EDEEEA"/>
<path d="M771.947 237.207C764.202 237.207 756.824 236.736 749.812 235.794C742.799 234.956 736.363 233.753 730.502 232.183C724.641 230.508 719.513 228.625 715.117 226.531L718.1 186.814C722.705 189.64 727.833 192.151 733.485 194.349C739.241 196.442 745.102 198.065 751.067 199.216C757.138 200.367 763.051 200.943 768.807 200.943C772.993 200.943 776.761 200.576 780.11 199.844C783.459 199.006 786.075 197.594 787.959 195.605C789.843 193.512 790.785 190.425 790.785 186.343C790.785 183.413 789.738 181.005 787.645 179.122C785.657 177.238 782.255 175.511 777.441 173.941C772.732 172.266 766.243 170.383 757.975 168.289C748.66 165.882 740.811 162.847 734.427 159.184C728.043 155.417 723.228 150.602 719.984 144.742C716.74 138.881 715.117 131.398 715.117 122.292C715.117 106.489 720.246 94.2442 730.502 85.5576C740.863 76.7664 754.94 72.3708 772.732 72.3708C780.476 72.3708 787.907 72.894 795.024 73.9406C802.14 74.9872 808.577 76.4001 814.333 78.1793C820.194 79.8538 825.113 81.5806 829.09 83.3598L825.95 123.391C821.136 120.356 815.903 117.845 810.251 115.856C804.6 113.763 799.158 112.193 793.925 111.146C788.796 110.1 784.558 109.577 781.209 109.577C777.86 109.577 774.772 110.048 771.947 110.989C769.225 111.827 767.08 113.24 765.51 115.228C763.94 117.217 763.155 119.833 763.155 123.077C763.155 125.798 763.836 128.206 765.196 130.299C766.557 132.287 769.121 134.171 772.889 135.95C776.656 137.625 782.151 139.456 789.372 141.445C800.675 144.48 809.937 147.777 817.159 151.335C824.38 154.789 829.718 159.237 833.171 164.679C836.73 170.121 838.509 177.342 838.509 186.343C838.509 196.39 836.206 205.286 831.601 213.031C827.101 220.671 819.932 226.636 810.094 230.927C800.361 235.113 787.645 237.207 771.947 237.207Z" fill="#EDEEEA"/>
<path d="M904.723 237.207C896.978 237.207 889.6 236.736 882.588 235.794C875.576 234.956 869.139 233.753 863.278 232.183C857.418 230.508 852.289 228.625 847.894 226.531L850.877 186.814C855.481 189.64 860.61 192.151 866.261 194.349C872.017 196.442 877.878 198.065 883.844 199.216C889.914 200.367 895.827 200.943 901.583 200.943C905.769 200.943 909.537 200.576 912.886 199.844C916.235 199.006 918.852 197.594 920.735 195.605C922.619 193.512 923.561 190.425 923.561 186.343C923.561 183.413 922.515 181.005 920.422 179.122C918.433 177.238 915.032 175.511 910.217 173.941C905.508 172.266 899.019 170.383 890.751 168.289C881.437 165.882 873.587 162.847 867.203 159.184C860.819 155.417 856.005 150.602 852.76 144.742C849.516 138.881 847.894 131.398 847.894 122.292C847.894 106.489 853.022 94.2442 863.278 85.5576C873.64 76.7664 887.716 72.3708 905.508 72.3708C913.252 72.3708 920.683 72.894 927.8 73.9406C934.917 74.9872 941.353 76.4001 947.109 78.1793C952.97 79.8538 957.889 81.5806 961.866 83.3598L958.726 123.391C953.912 120.356 948.679 117.845 943.028 115.856C937.376 113.763 931.934 112.193 926.701 111.146C921.573 110.1 917.334 109.577 913.985 109.577C910.636 109.577 907.549 110.048 904.723 110.989C902.002 111.827 899.856 113.24 898.286 115.228C896.717 117.217 895.932 119.833 895.932 123.077C895.932 125.798 896.612 128.206 897.972 130.299C899.333 132.287 901.897 134.171 905.665 135.95C909.432 137.625 914.927 139.456 922.148 141.445C933.451 144.48 942.714 147.777 949.935 151.335C957.156 154.789 962.494 159.237 965.948 164.679C969.506 170.121 971.285 177.342 971.285 186.343C971.285 196.39 968.983 205.286 964.378 213.031C959.877 220.671 952.708 226.636 942.871 230.927C933.137 235.113 920.422 237.207 904.723 237.207Z" fill="#EDEEEA"/>
<path d="M988.183 233.125C988.183 221.927 988.183 211.094 988.183 200.629C988.183 190.058 988.183 178.284 988.183 165.307V149.608C988.183 139.247 988.183 129.985 988.183 121.821C988.183 113.554 988.183 105.809 988.183 98.5875C988.183 91.2615 988.183 83.8831 988.183 76.4524L1035.12 75.0395C1035.12 82.5749 1035.12 90.0579 1035.12 97.4886C1035.12 104.919 1035.12 112.821 1035.12 121.194C1035.12 129.566 1035.12 139.038 1035.12 149.608V165.307C1035.12 178.284 1035.12 190.058 1035.12 200.629C1035.12 211.094 1035.12 221.927 1035.12 233.125H988.183ZM1011.26 52.2765C1002.57 52.2765 995.614 50.2357 990.381 46.154C985.253 41.9677 982.689 35.2173 982.689 25.9028C982.689 17.5301 985.253 11.146 990.381 6.75041C995.614 2.25014 1002.68 0 1011.57 0C1020.47 0 1027.43 2.35479 1032.45 7.06438C1037.58 11.6693 1040.15 17.9488 1040.15 25.9028C1040.15 35.2173 1037.58 41.9677 1032.45 46.154C1027.33 50.2357 1020.26 52.2765 1011.26 52.2765Z" fill="#EDEEEA"/>
<path d="M1137.26 237.364C1123.03 237.364 1110.63 235.113 1100.06 230.613C1089.59 226.113 1080.91 219.99 1074 212.246C1067.2 204.501 1062.07 195.657 1058.61 185.715C1055.26 175.668 1053.59 165.202 1053.59 154.318C1053.59 138.724 1056.73 124.752 1063.01 112.402C1069.39 99.948 1078.71 90.1626 1090.95 83.0458C1103.3 75.8245 1118.43 72.2138 1136.32 72.2138C1150.14 72.2138 1162.22 74.3069 1172.59 78.4932C1183.05 82.5749 1191.74 88.3834 1198.65 95.9187C1205.66 103.349 1210.89 112.088 1214.34 122.135C1217.8 132.078 1219.52 142.805 1219.52 154.318C1219.52 170.121 1216.33 184.302 1209.95 196.861C1203.56 209.315 1194.25 219.205 1182.01 226.531C1169.76 233.753 1154.85 237.364 1137.26 237.364ZM1137.11 199.059C1144.96 199.059 1151.39 196.966 1156.42 192.779C1161.54 188.488 1165.36 182.942 1167.88 176.139C1170.49 169.336 1171.8 162.062 1171.8 154.318C1171.8 145.108 1170.34 137.259 1167.41 130.77C1164.47 124.176 1160.39 119.153 1155.16 115.699C1149.93 112.245 1143.86 110.518 1136.95 110.518C1129.21 110.518 1122.66 112.455 1117.33 116.327C1112.09 120.199 1108.12 125.432 1105.4 132.026C1102.78 138.619 1101.47 146.05 1101.47 154.318C1101.47 162.062 1102.78 169.336 1105.4 176.139C1108.12 182.942 1112.09 188.488 1117.33 192.779C1122.66 196.966 1129.26 199.059 1137.11 199.059Z" fill="#EDEEEA"/>
<path d="M1237.16 233.125C1237.16 221.927 1237.16 211.094 1237.16 200.629C1237.16 190.058 1237.16 178.284 1237.16 165.307V149.608C1237.16 137.572 1237.16 125.485 1237.16 113.344C1237.16 101.204 1237.16 88.9067 1237.16 76.4524L1276.56 74.0976L1278.6 101.413H1282.53C1286.08 96.285 1290.37 91.5231 1295.4 87.1275C1300.42 82.6272 1306.18 79.0165 1312.67 76.2954C1319.26 73.5743 1326.74 72.2138 1335.12 72.2138C1350.81 72.2138 1362.69 76.871 1370.75 86.1856C1378.81 95.3954 1382.84 109.21 1382.84 127.63C1382.84 134.537 1382.84 140.974 1382.84 146.939C1382.84 152.8 1382.84 158.923 1382.84 165.307C1382.84 178.075 1382.84 189.797 1382.84 200.472C1382.84 211.042 1382.84 221.927 1382.84 233.125H1336.06C1336.06 221.927 1336.06 211.094 1336.06 200.629C1336.06 190.163 1336.06 179.226 1336.06 167.819V142.701C1336.06 133.491 1334.54 126.583 1331.51 121.978C1328.47 117.269 1323.03 114.914 1315.18 114.914C1310.68 114.914 1306.54 115.856 1302.78 117.74C1299.01 119.519 1295.56 121.978 1292.42 125.118C1289.28 128.153 1286.5 131.555 1284.1 135.322V167.819C1284.1 179.54 1284.1 190.582 1284.1 200.943C1284.1 211.199 1284.1 221.927 1284.1 233.125H1237.16Z" fill="#EDEEEA"/>
<path d="M1484.61 237.207C1464.41 237.207 1447.87 233.648 1435 226.531C1422.23 219.415 1412.81 209.629 1406.74 197.175C1400.78 184.721 1397.79 170.435 1397.79 154.318C1397.79 138.2 1400.62 123.967 1406.27 111.617C1411.92 99.2678 1420.35 89.6393 1431.54 82.7319C1442.85 75.7198 1456.87 72.2138 1473.62 72.2138C1487.85 72.2138 1500.04 74.7779 1510.2 79.9061C1520.35 84.9297 1528.14 92.5697 1533.59 102.826C1539.03 113.083 1541.75 126.008 1541.75 141.602C1541.75 145.788 1541.64 149.503 1541.44 152.748C1541.23 155.992 1540.86 159.237 1540.34 162.481L1500.15 147.253C1500.36 145.893 1500.51 144.48 1500.62 143.015C1500.72 141.549 1500.78 140.189 1500.78 138.933C1500.78 128.363 1498.26 120.095 1493.24 114.129C1488.32 108.059 1481.94 105.024 1474.09 105.024C1468.12 105.024 1462.84 106.803 1458.23 110.361C1453.63 113.815 1450.02 118.682 1447.4 124.961C1444.78 131.241 1443.48 138.724 1443.48 147.41V155.103C1443.48 164.208 1445.1 172.005 1448.34 178.494C1451.69 184.982 1456.82 189.954 1463.73 193.407C1470.63 196.861 1479.48 198.588 1490.26 198.588C1494.44 198.588 1499.26 198.222 1504.7 197.489C1510.25 196.652 1515.85 195.448 1521.5 193.878C1527.25 192.204 1532.59 190.111 1537.51 187.599L1539.08 227.159C1535 229.043 1530.24 230.77 1524.79 232.34C1519.46 233.805 1513.39 234.956 1506.58 235.794C1499.78 236.736 1492.46 237.207 1484.61 237.207ZM1415.85 162.481V137.363L1513.02 135.322L1540.34 143.015V162.481H1415.85Z" fill="#EDEEEA"/>
<path d="M1558.82 233.125C1558.82 221.927 1558.82 211.094 1558.82 200.629C1558.82 190.058 1558.82 178.284 1558.82 165.307V149.608C1558.82 137.572 1558.82 125.485 1558.82 113.344C1558.82 101.204 1558.82 88.9067 1558.82 76.4524L1598.22 74.0976L1600.26 102.983H1604.19C1608.27 94.5058 1612.77 88.0694 1617.69 83.6738C1622.61 79.1735 1627.63 76.1384 1632.76 74.5686C1637.89 72.9987 1642.81 72.2138 1647.52 72.2138C1649.92 72.2138 1652.59 72.4231 1655.52 72.8417C1658.56 73.2604 1661.38 73.9929 1664 75.0395L1659.92 120.566C1655.84 120.252 1652.17 119.99 1648.93 119.781C1645.68 119.571 1642.23 119.467 1638.57 119.467C1635.64 119.467 1632.6 119.781 1629.46 120.409C1626.43 121.037 1623.45 122.292 1620.51 124.176C1617.58 126.06 1614.86 128.677 1612.35 132.026C1609.84 135.375 1607.64 139.718 1605.76 145.055V167.819C1605.76 179.54 1605.76 190.582 1605.76 200.943C1605.76 211.199 1605.76 221.927 1605.76 233.125H1558.82Z" fill="#EDEEEA"/>
</svg>
