<svg width="1664" height="176" viewBox="0 0 1664 176" fill="none" xmlns="http://www.w3.org/2000/svg">
<path d="M80.5047 72.6185H82.9691C82.9691 127.165 47.9742 134.393 30.3946 134.393C6.9004 134.393 0 124.536 0 110.078C0 70.6469 48.6314 17.7439 89.5409 17.7439C101.863 17.7439 109.256 20.8655 113.857 25.4658L117.307 19.3868H119.771L93.8126 64.4037L95.1269 58.8177C102.52 27.273 98.2485 19.3868 88.5551 19.3868C55.3675 19.3868 14.2937 88.0622 14.2937 120.921C14.2937 127.493 16.5938 132.422 31.2161 132.422C47.6456 132.422 80.5047 124.207 80.5047 72.6185Z" fill="#EDEEEA"/>
<path d="M157.824 17.7439C168.174 17.7439 183.289 20.3726 190.847 30.2303L197.09 19.3868H199.554L173.596 64.4037L174.91 58.8177C182.961 26.4515 170.639 19.7154 157.824 19.7154C149.116 19.7154 138.437 23.1656 138.437 41.5667C138.437 61.775 158.152 77.383 158.152 101.042C158.152 126.179 136.465 134.393 120.364 134.393C110.999 134.393 95.227 132.586 86.5194 120.757L79.619 132.751H77.1546L103.113 87.7336L101.799 93.3197C94.077 126.014 106.563 132.422 120.529 132.422C130.879 132.422 142.051 129.3 142.051 107.449C142.051 85.2692 122.336 70.3184 122.336 49.4529C122.336 24.9729 140.408 17.7439 157.824 17.7439Z" fill="#EDEEEA"/>
<path d="M166.019 131.108H184.091L247.674 21.0298H226.315L185.242 54.0531L205.286 19.3868H305.999L285.955 54.0531V21.0298H265.746L202.164 131.108H220.236L219.251 132.751H165.033L166.019 131.108Z" fill="#EDEEEA"/>
<path d="M241.338 131.108H259.411L322.993 21.0298H304.92L305.906 19.3868H448.022L447.036 21.0298H428.963L365.545 131.108H383.618L382.632 132.751H330.058L331.043 131.108H347.473L410.562 21.687L304.099 134.393L324.964 21.8513L261.875 131.108H279.947L278.962 132.751H240.352L241.338 131.108ZM326.279 107.449L407.933 21.0298H342.38L326.279 107.449Z" fill="#EDEEEA"/>
<path d="M518.553 132.751H421.783L422.769 131.108H441.334L484.051 82.4762V21.0298H465.978L466.964 19.3868H559.791L558.805 21.0298H540.569L500.48 66.7039V131.108H519.539L518.553 132.751ZM500.48 21.0298V63.9108L538.104 21.0298H500.48ZM443.799 131.108H484.051V85.2692L443.799 131.108Z" fill="#EDEEEA"/>
<path d="M554.288 134.393C545.581 134.393 542.295 129.3 542.295 122.071C542.295 115.5 544.595 108.763 547.388 101.534L504.671 175.467H487.585L560.532 48.96H543.281L544.266 47.317H578.604L569.075 63.7465C578.604 52.9031 589.119 45.6741 601.77 45.6741C618.856 45.6741 625.757 54.0531 625.757 67.6896C625.757 96.277 593.226 134.393 554.288 134.393ZM554.288 131.929C586.819 131.929 609.656 81.819 609.656 59.6392C609.656 52.2459 608.342 47.6456 600.948 47.6456C585.176 47.6456 570.225 62.5965 559.71 80.0118L556.917 84.9406C549.36 98.5771 544.759 113.035 544.759 122.071C544.759 128.15 547.388 131.929 554.288 131.929Z" fill="#EDEEEA"/>
<path d="M678.247 47.317L669.868 61.775C679.561 51.0958 688.433 45.6741 698.619 45.6741C711.27 45.6741 716.363 53.7245 716.363 60.1321C716.363 67.1967 710.448 70.1541 703.219 70.1541C700.262 70.1541 696.812 69.6612 693.855 68.0182L705.027 48.6314C703.548 48.1385 701.905 47.6456 697.798 47.6456C681.532 47.6456 667.732 65.8824 654.259 89.048L629.122 132.751H611.871L660.174 48.96H642.923L643.909 47.317H678.247Z" fill="#EDEEEA"/>
<path d="M785.837 77.8759L754.128 132.751H737.041L768.257 78.5331C774.5 67.8539 777.293 56.3533 767.107 56.3533C761.85 56.3533 756.592 59.6392 748.049 65.8824L741.148 70.9755L705.661 132.751H688.41L736.713 48.96H719.462L720.447 47.317H754.785L743.613 66.7039L750.185 61.775C767.107 49.1243 773.515 45.6741 780.908 45.6741C792.737 45.6741 795.53 54.7103 790.601 68.0182L798.816 61.775C815.739 49.1243 822.146 45.6741 829.539 45.6741C844.162 45.6741 844.983 59.4749 834.468 77.8759L803.745 131.108H820.996L820.01 132.751H785.672L816.889 78.5331C823.132 67.8539 825.925 56.3533 815.739 56.3533C810.481 56.3533 805.224 59.6392 796.68 65.8824L789.123 71.4684C788.137 73.6043 787.151 75.7401 785.837 77.8759Z" fill="#EDEEEA"/>
<path d="M898.352 131.108H915.603L914.617 132.751H880.28L911.496 78.5331C917.739 67.8539 920.532 56.3533 910.346 56.3533C905.088 56.3533 899.831 59.6392 891.287 65.8824L875.844 77.2187L843.97 132.751H826.719L875.022 48.96H857.771L858.757 47.317H893.095L878.144 73.2757L893.423 61.775C910.346 49.1243 916.753 45.6741 924.146 45.6741C938.769 45.6741 939.59 59.4749 929.075 77.8759L898.352 131.108Z" fill="#EDEEEA"/>
<path d="M921.388 132.751L969.855 48.96H953.261L1004.03 19.3868L987.928 47.317H1016.68L1015.69 48.96H986.942L939.461 131.108H968.212L967.226 132.751H921.388Z" fill="#EDEEEA"/>
<path d="M975.625 132.751L1045.78 11.1721H1028.53L1029.51 9.52912H1063.85L993.697 131.108H1010.95L1009.96 132.751H975.625Z" fill="#EDEEEA"/>
<path d="M1090.16 134.393C1076.03 134.393 1068.8 129.136 1068.8 114.678C1068.8 70.6469 1114.15 17.7439 1152.6 17.7439C1171.82 17.7439 1173.62 31.709 1173.62 44.6883C1173.62 86.255 1129.76 134.393 1090.16 134.393ZM1091.31 132.751C1123.35 132.751 1159.5 67.6896 1159.5 29.5731C1159.5 22.3441 1157.52 19.3868 1152.1 19.3868C1120.89 19.3868 1083.1 88.0622 1083.1 121.25C1083.1 127.657 1084.41 132.751 1091.31 132.751Z" fill="#EDEEEA"/>
<path d="M1218.01 132.751H1142.6L1194.35 96.1127C1183.67 85.1049 1180.55 70.8112 1180.55 63.0894C1180.55 29.7374 1200.43 17.7439 1224.91 17.7439C1248.08 17.7439 1256.79 26.1229 1256.79 37.4593C1256.79 49.7815 1250.21 59.4749 1206.84 89.7052L1166.26 117.964H1226.56L1218.01 132.751ZM1182.85 63.0894C1182.85 70.8112 1186.3 85.2692 1196.16 94.9626L1205.69 88.2265C1230.5 70.6469 1237.73 56.0247 1237.73 39.4309C1237.73 31.0518 1234.28 20.044 1219.49 20.044C1201.91 20.044 1182.85 31.5447 1182.85 63.0894Z" fill="#EDEEEA"/>
<path d="M1247.89 131.108H1265.96L1329.54 21.0298H1311.47L1312.46 19.3868H1366.84L1365.85 21.0298H1347.62L1284.04 131.108H1302.11L1301.12 132.751H1246.9L1247.89 131.108Z" fill="#EDEEEA"/>
<path d="M1317.57 132.751L1366.04 48.96H1349.44L1400.21 19.3868L1384.11 47.317H1412.86L1411.88 48.96H1383.12L1335.64 131.108H1364.39L1363.41 132.751H1317.57Z" fill="#EDEEEA"/>
<path d="M1401.63 134.393C1385.03 134.393 1377.47 126.507 1377.47 115.007C1377.47 85.2692 1417.23 45.6741 1453.71 45.6741C1462.74 45.6741 1464.55 49.9457 1464.55 57.8319C1464.55 62.9251 1463.56 67.5253 1461.26 73.1114L1476.22 47.317H1493.47L1445 131.108H1462.25L1461.26 132.751H1426.93L1438.76 112.214C1427.91 124.864 1415.76 134.393 1401.63 134.393ZM1402.45 131.929C1430.71 131.929 1462.09 80.9975 1462.09 57.8319C1462.09 51.4244 1461.43 47.6456 1453.21 47.6456C1423.97 47.6456 1393.74 98.7414 1393.74 122.071C1393.74 128.643 1395.05 131.929 1402.45 131.929Z" fill="#EDEEEA"/>
<path d="M1470.49 132.751L1540.64 11.1721H1523.39L1524.38 9.52912H1558.71L1488.56 131.108H1505.81L1504.82 132.751H1470.49Z" fill="#EDEEEA"/>
<path d="M1517.66 132.751L1566.13 48.96H1548.88L1549.87 47.317H1584.2L1535.74 131.108H1552.99L1552 132.751H1517.66ZM1600.47 10.1863C1600.47 16.5938 1595.87 20.5369 1590.28 20.5369C1584.37 20.5369 1580.1 16.5938 1580.1 10.1863C1580.1 4.43597 1584.37 0 1590.28 0C1595.87 0 1600.47 4.43597 1600.47 10.1863Z" fill="#EDEEEA"/>
<path d="M1594.17 134.393C1577.91 134.393 1570.19 126.507 1570.19 115.007C1570.19 86.9122 1608.8 45.6741 1646.26 45.6741C1658.91 45.6741 1664 53.7245 1664 60.1321C1664 67.1967 1658.09 70.1541 1650.86 70.1541C1647.9 70.1541 1644.45 69.6612 1641.49 68.0182L1652.66 48.6314C1651.18 48.1385 1649.54 47.6456 1645.43 47.6456C1616.19 47.6456 1586.45 100.549 1586.45 122.071C1586.45 128.15 1587.93 131.929 1596.31 131.929C1615.04 132.093 1641.49 120.428 1648.39 83.2977H1650.86C1643.63 122.071 1616.85 134.393 1594.17 134.393Z" fill="#EDEEEA"/>
</svg>
