<svg width="1664" height="138" viewBox="0 0 1664 138" fill="none" xmlns="http://www.w3.org/2000/svg">
<path d="M112.811 58.7699V92.951C101.462 99.0306 84.8448 104.029 62.823 104.029C31.2088 104.029 8.91681 92.5457 0 83.764V23.9133C8.6466 15.672 31.479 8.10619 62.823 8.10619C84.5746 8.10619 101.327 11.4838 112.811 16.2124V53.0955C105.245 48.0967 89.1681 40.5309 62.823 40.5309C30.6684 40.5309 14.0507 51.6094 9.18701 55.9327C14.0507 60.256 30.6684 71.6047 62.823 71.6047C89.1681 71.6047 105.245 63.9038 112.811 58.7699Z" fill="#EDEEEA"/>
<path d="M116.864 60.5262C119.701 63.4985 137.535 73.0908 174.418 73.0908C190.901 73.0908 203.465 71.1994 212.787 68.7675L116.864 51.4743V19.9953C125.511 12.9699 149.289 8.10619 174.283 8.10619C200.358 8.10619 222.785 12.9699 231.837 19.9953V51.4743C229.135 48.502 210.896 39.1799 174.283 39.1799C157.936 39.1799 145.371 41.0714 136.184 43.3681L231.702 60.5262V92.0052C223.461 98.7604 200.493 104.165 174.418 104.165C149.154 104.165 125.106 98.7604 116.864 92.0052V60.5262Z" fill="#EDEEEA"/>
<path d="M332.573 9.45722V43.233H291.637V102.678H276.776V43.233H235.839V9.45722H332.573Z" fill="#EDEEEA"/>
<path d="M336.607 102.678V9.45722H375.787L403.213 83.6289L433.882 9.45722H477.115V102.678H462.253V35.6672L434.557 102.678H395.377L370.383 34.9917V102.678H336.607Z" fill="#EDEEEA"/>
<path d="M538.597 9.45722L558.187 34.046L575.075 9.45722H614.255L579.128 60.3911L612.904 102.678H591.287L569.13 74.9823L550.081 102.678H510.901L548.189 48.502L516.981 9.45722H538.597Z" fill="#EDEEEA"/>
<path d="M607.51 137.805V32.4248H622.372V38.6395C631.559 34.4513 645.609 31.0737 663.173 31.0737C688.707 31.0737 705.595 37.5587 712.621 44.1787V90.9244C705.595 97.5445 688.707 104.029 663.173 104.029C645.609 104.029 631.559 100.652 622.372 96.4636V137.805H607.51ZM663.173 78.3598C688.437 78.3598 701.272 70.1185 704.109 67.4165C701.272 64.8495 688.437 56.7433 663.173 56.7433C637.908 56.7433 625.209 64.8495 622.372 67.4165C625.209 70.1185 637.908 78.3598 663.173 78.3598Z" fill="#EDEEEA"/>
<path d="M748.336 54.0413C742.527 54.0413 736.717 54.8519 731.584 56.2029V102.678H716.722V37.8289C723.342 33.6407 735.637 31.0737 748.336 31.0737C761.441 31.0737 774.411 33.6407 779.95 37.8289V59.4454C774.411 55.9327 761.441 54.0413 748.336 54.0413Z" fill="#EDEEEA"/>
<path d="M797.52 102.678H782.659V32.4248H797.52V37.8289C804.14 33.6407 811.706 31.0737 823.055 31.0737C834.809 31.0737 843.05 33.6407 848.589 37.8289C855.209 33.6407 862.775 31.0737 874.124 31.0737C885.878 31.0737 894.119 33.6407 899.658 37.8289V102.678H884.797V64.5793C880.744 62.1475 872.638 61.2017 866.693 61.2017C861.289 61.2017 852.912 61.8772 848.589 64.5793V102.678H833.728V64.5793C829.675 62.1475 821.569 61.2017 815.624 61.2017C810.22 61.2017 801.844 61.8772 797.52 64.5793V102.678Z" fill="#EDEEEA"/>
<path d="M918.606 102.678H903.745V32.4248H918.606V37.8289C925.226 33.6407 936.845 31.0737 948.194 31.0737C959.948 31.0737 972.242 33.6407 977.782 37.8289V102.678H962.92V64.5793C958.867 62.4177 949.41 61.2017 940.763 61.2017C932.657 61.2017 922.93 62.1475 918.606 64.5793V102.678Z" fill="#EDEEEA"/>
<path d="M980.437 58.0944V32.4248H991.245V5.40413L1006.11 17.5634V32.4248H1028.8V58.0944H1006.11V102.678H991.245V58.0944H980.437Z" fill="#EDEEEA"/>
<path d="M1031.53 102.678V0H1046.39V102.678H1031.53Z" fill="#EDEEEA"/>
<path d="M1134.94 104.029C1111.56 104.029 1092.11 95.5179 1082.92 86.466V22.5622C1092.24 14.456 1111.83 8.10619 1134.94 8.10619C1160.6 8.10619 1177.22 14.3209 1186.95 22.5622V86.466C1177.49 95.7881 1160.87 104.029 1134.94 104.029ZM1134.94 71.6047C1162.36 71.6047 1173.84 60.256 1177.9 55.9327C1173.84 51.6094 1162.36 40.5309 1134.94 40.5309C1108.59 40.5309 1096.3 51.6094 1092.11 55.9327C1096.3 60.256 1108.59 71.6047 1134.94 71.6047Z" fill="#EDEEEA"/>
<path d="M1190.94 102.678V78.3598L1264.85 39.9905C1257.15 37.4236 1248.09 36.4778 1237.01 36.4778C1212.7 36.4778 1197.7 42.0171 1190.94 46.3404V16.2124C1201.89 11.754 1218.91 8.10619 1238.1 8.10619C1260.66 8.10619 1279.3 11.8891 1287 17.6985V42.8277L1226.21 74.3067H1286.87V102.678H1190.94Z" fill="#EDEEEA"/>
<path d="M1323.48 102.678V9.45722H1380.9C1403.73 9.45722 1423.59 14.0507 1430.34 20.4006V44.0436C1422.91 49.4478 1415.08 52.9604 1407.51 54.987C1416.02 57.0135 1426.56 60.1209 1434.4 65.6601V89.1681C1427.51 96.1934 1406.7 102.678 1384.95 102.678H1323.48ZM1380.9 38.5044H1338.34V49.8531H1380.76C1395.35 49.8531 1404.67 47.8265 1410.62 44.4489C1404.81 41.0714 1395.35 38.5044 1380.9 38.5044ZM1384.81 62.0123H1338.34V73.6312H1384.95C1399.41 73.6312 1409 71.3345 1414.54 67.8218C1408.59 64.5793 1399.41 62.0123 1384.81 62.0123Z" fill="#EDEEEA"/>
<path d="M1437.04 90.9244V44.1787C1443.8 37.6938 1461.77 31.0737 1486.36 31.0737C1511.89 31.0737 1528.78 37.5587 1535.8 44.1787V90.9244C1528.78 97.5445 1511.89 104.029 1486.36 104.029C1461.77 104.029 1443.8 97.4094 1437.04 90.9244ZM1486.36 78.3598C1511.62 78.3598 1524.46 70.1185 1527.29 67.4165C1524.46 64.8495 1511.62 56.7433 1486.36 56.7433C1461.09 56.7433 1448.39 64.8495 1445.56 67.4165C1448.39 70.1185 1461.09 78.3598 1486.36 78.3598Z" fill="#EDEEEA"/>
<path d="M1539.92 102.678V0H1554.78V102.678H1539.92Z" fill="#EDEEEA"/>
<path d="M1558.89 90.9244V44.1787C1565.64 37.6938 1583.61 31.0737 1608.2 31.0737C1626.31 31.0737 1640.22 34.3162 1649.14 38.6395V0H1664V102.678H1649.14V96.4636C1640.22 100.787 1626.31 104.029 1608.2 104.029C1583.61 104.029 1565.64 97.4094 1558.89 90.9244ZM1608.2 78.3598C1633.47 78.3598 1646.3 70.1185 1649.14 67.4165C1646.3 64.8495 1633.47 56.7433 1608.2 56.7433C1582.94 56.7433 1570.24 64.8495 1567.4 67.4165C1570.24 70.1185 1582.94 78.3598 1608.2 78.3598Z" fill="#EDEEEA"/>
</svg>
