<svg width="1664" height="136" viewBox="0 0 1664 136" fill="none" xmlns="http://www.w3.org/2000/svg">
<path d="M0 67.8368C0 29.5508 30.4801 0 67.8368 0C81.9618 0 95.1574 4.27465 105.937 11.523V124.151C94.9716 131.399 81.9618 135.674 67.8368 135.674C30.4801 135.674 0 106.123 0 67.8368ZM29.7367 67.8368C29.7367 89.7676 46.8353 105.937 67.8368 105.937C88.8384 105.937 105.937 89.7676 105.937 67.8368C105.937 45.906 88.8384 29.7367 67.8368 29.7367C46.8353 29.7367 29.7367 45.906 29.7367 67.8368Z" fill="#EDEEEA"/>
<path d="M218.601 6.69076V71.9256C225.106 77.873 229.381 86.0506 229.381 98.3169C229.566 121.92 207.45 135.674 177.341 135.674C153.552 135.674 141.471 131.585 131.435 125.452V60.7744C127.161 55.1987 124.559 47.5787 124.559 37.5426C124.559 17.842 142.587 0 175.669 0C194.44 0 210.052 2.23026 218.601 6.69076ZM152.251 37.5426C152.251 58.9158 197.414 52.5968 218.601 71.9256C218.415 34.9406 202.989 22.1167 177.155 22.3025C160.986 22.3025 152.251 27.8782 152.251 37.5426ZM201.502 98.3169C201.688 74.1559 150.392 85.6788 131.435 60.7744C131.621 91.6262 147.047 113.371 178.828 113.371C193.139 113.371 201.502 108.167 201.502 98.3169Z" fill="#EDEEEA"/>
<path d="M233.109 26.9489V2.78781H340.905V26.9489H300.946V132.886H273.068V26.9489H233.109Z" fill="#EDEEEA"/>
<path d="M405.975 2.78781L429.765 132.886L451.881 2.78781H476.043L453.926 132.886H401.887L378.097 2.78781H405.975ZM503.921 2.78781V132.886H476.043V2.78781H503.921ZM352.078 132.886V2.78781H378.097V132.886H352.078Z" fill="#EDEEEA"/>
<path d="M559.596 102.406L596.952 68.7661L559.596 36.0557V0L617.025 50.5524L673.153 0V33.4538L635.796 67.0934L673.153 99.9896V135.674L615.724 85.3071L559.596 135.674V102.406Z" fill="#EDEEEA"/>
<path d="M689.868 2.78781H734.659C771.272 2.78781 793.203 15.9835 793.203 47.7646C793.203 75.0851 770.9 93.6706 734.659 93.6706H717.746V132.886H689.868V2.78781ZM739.305 26.9489H717.746V69.5095H739.305C756.404 69.5095 766.254 60.5885 766.254 47.7646C766.254 33.6396 756.404 26.9489 739.305 26.9489Z" fill="#EDEEEA"/>
<path d="M853.051 25.0903H834.094V132.886H806.216V2.78781H852.865C881.858 2.78781 907.692 13.7532 907.692 45.5343C907.692 68.3944 895.054 79.5456 877.955 84.0061L909.922 132.886H878.327L834.094 65.6066H853.98C871.45 65.6066 880.557 58.1724 880.557 45.5343C880.557 31.9669 871.079 25.0903 853.051 25.0903Z" fill="#EDEEEA"/>
<path d="M977.731 2.78781L1001.52 132.886L1023.64 2.78781H1047.8L1025.68 132.886H973.643L949.853 2.78781H977.731ZM1075.68 2.78781V132.886H1047.8V2.78781H1075.68ZM923.834 132.886V2.78781H949.853V132.886H923.834Z" fill="#EDEEEA"/>
<path d="M1151.8 2.78781L1188.59 132.886H1160.72L1123.92 2.78781H1151.8ZM1097.9 132.886V2.78781H1123.92V132.886H1097.9ZM1214.61 2.78781V132.886H1188.59V2.78781H1214.61Z" fill="#EDEEEA"/>
<path d="M1225.78 26.9489V2.78781H1333.58V26.9489H1293.62V132.886H1265.74V26.9489H1225.78Z" fill="#EDEEEA"/>
<path d="M1344.75 132.886V2.78781H1372.63V108.725H1435.82V132.886H1344.75Z" fill="#EDEEEA"/>
<path d="M1480.44 67.8368C1480.44 25.8337 1497.91 0 1533.41 0C1568.91 0 1586.38 25.8337 1586.38 67.8368C1586.38 109.84 1568.91 135.674 1533.41 135.674C1497.91 135.674 1480.44 109.84 1480.44 67.8368ZM1506.46 67.8368C1506.46 95.715 1514.08 111.513 1533.41 111.513C1552.74 111.513 1560.54 95.715 1560.54 67.8368C1560.54 39.9587 1552.74 24.1611 1533.41 24.1611C1514.08 24.1611 1506.46 39.9587 1506.46 67.8368Z" fill="#EDEEEA"/>
<path d="M1636.12 2.78781H1664V132.886H1636.12V2.78781ZM1608.24 2.78781H1636.12L1616.24 40.3304H1588.36L1608.24 2.78781Z" fill="#EDEEEA"/>
</svg>
