<svg width="1664" height="353" viewBox="0 0 1664 353" fill="none" xmlns="http://www.w3.org/2000/svg">
<path d="M0 345.33V50.2453H175.859L168.62 100.065H69.8325V178.413H155.846V228.233H69.8325V345.33H0Z" fill="#EDEEEA"/>
<path d="M256.765 119.226V345.33H189.488V119.226H256.765ZM222.701 0C234.339 0 243.849 3.69034 251.23 11.071C258.894 18.1678 262.727 27.2517 262.727 38.3227C262.727 49.3937 258.894 58.6195 251.23 66.0002C243.849 73.097 234.339 76.6454 222.701 76.6454C211.062 76.6454 201.552 73.097 194.172 66.0002C186.791 58.6195 183.101 49.3937 183.101 38.3227C183.101 27.2517 186.791 18.1678 194.172 11.071C201.552 3.69034 211.062 0 222.701 0Z" fill="#EDEEEA"/>
<path d="M428.037 112.839C436.269 112.839 443.791 113.833 450.604 115.82L439.959 180.968C431.443 178.981 424.63 177.988 419.52 177.988C406.178 177.988 395.959 182.672 388.862 192.039C382.049 201.123 376.656 214.891 372.682 233.343V345.33H305.404V119.226H364.165L369.701 163.084C374.811 147.471 382.475 135.265 392.695 126.465C403.198 117.381 414.978 112.839 428.037 112.839Z" fill="#EDEEEA"/>
<path d="M636.772 279.756C636.772 288.272 637.908 294.517 640.179 298.491C642.733 302.465 646.708 305.446 652.101 307.433L638.05 351.291C624.14 350.156 612.785 347.175 603.985 342.349C595.185 337.24 588.372 329.291 583.546 318.504C568.785 341.214 546.075 352.569 515.417 352.569C492.991 352.569 475.107 346.04 461.765 332.982C448.423 319.924 441.752 302.891 441.752 281.885C441.752 257.188 450.836 238.31 469.004 225.252C487.172 212.194 513.43 205.665 547.778 205.665H570.772V195.872C570.772 182.53 567.933 173.446 562.256 168.62C556.578 163.51 546.643 160.955 532.449 160.955C525.069 160.955 516.127 162.091 505.623 164.362C495.12 166.349 484.333 169.188 473.262 172.878L457.933 128.594C472.127 123.2 486.604 119.084 501.365 116.246C516.411 113.407 530.32 111.987 543.094 111.987C575.456 111.987 599.159 118.658 614.204 132C629.25 145.342 636.772 165.355 636.772 192.039V279.756ZM535.004 304.453C550.333 304.453 562.256 297.214 570.772 282.736V242.71H554.166C538.836 242.71 527.34 245.407 519.675 250.801C512.294 256.194 508.604 264.569 508.604 275.923C508.604 285.007 510.875 292.104 515.417 297.214C520.243 302.04 526.772 304.453 535.004 304.453Z" fill="#EDEEEA"/>
<path d="M879.123 43.0066C901.265 43.0066 920.427 46.1292 936.607 52.3744C953.072 58.6195 967.975 68.1293 981.317 80.9035L948.956 118.8C928.801 102.336 907.227 94.1035 884.233 94.1035C872.026 94.1035 862.375 96.6584 855.278 101.768C848.181 106.594 844.633 113.691 844.633 123.058C844.633 129.587 846.194 134.981 849.317 139.239C852.439 143.213 857.975 147.046 865.923 150.736C873.872 154.426 885.794 158.826 901.691 163.936C931.781 173.588 953.923 185.51 968.117 199.704C982.311 213.614 989.407 233.485 989.407 259.317C989.407 277.769 984.724 294.091 975.356 308.285C965.988 322.195 952.504 333.124 934.904 341.072C917.304 348.737 896.439 352.569 872.31 352.569C848.181 352.569 826.749 348.737 808.013 341.072C789.562 333.407 773.665 323.188 760.323 310.414L795.665 271.665C807.02 281.317 818.659 288.556 830.581 293.382C842.788 298.207 855.988 300.62 870.181 300.62C884.659 300.62 896.014 297.498 904.246 291.253C912.762 284.723 917.02 275.781 917.02 264.427C917.02 257.046 915.459 250.943 912.336 246.117C909.214 241.007 903.82 236.465 896.155 232.491C888.491 228.517 877.42 224.259 862.943 219.717C830.297 209.781 807.02 197.575 793.11 183.097C779.484 168.62 772.671 150.31 772.671 128.168C772.671 111.136 777.213 96.2325 786.297 83.4583C795.381 70.4002 808.013 60.4647 824.194 53.6518C840.375 46.555 858.684 43.0066 879.123 43.0066Z" fill="#EDEEEA"/>
<path d="M1202 279.756C1202 288.272 1203.13 294.517 1205.41 298.491C1207.96 302.465 1211.93 305.446 1217.33 307.433L1203.28 351.291C1189.37 350.156 1178.01 347.175 1169.21 342.349C1160.41 337.24 1153.6 329.291 1148.77 318.504C1134.01 341.214 1111.3 352.569 1080.64 352.569C1058.22 352.569 1040.33 346.04 1026.99 332.982C1013.65 319.924 1006.98 302.891 1006.98 281.885C1006.98 257.188 1016.06 238.31 1034.23 225.252C1052.4 212.194 1078.66 205.665 1113 205.665H1136V195.872C1136 182.53 1133.16 173.446 1127.48 168.62C1121.8 163.51 1111.87 160.955 1097.68 160.955C1090.3 160.955 1081.35 162.091 1070.85 164.362C1060.35 166.349 1049.56 169.188 1038.49 172.878L1023.16 128.594C1037.35 123.2 1051.83 119.084 1066.59 116.246C1081.64 113.407 1095.55 111.987 1108.32 111.987C1140.68 111.987 1164.39 118.658 1179.43 132C1194.48 145.342 1202 165.355 1202 192.039V279.756ZM1100.23 304.453C1115.56 304.453 1127.48 297.214 1136 282.736V242.71H1119.39C1104.06 242.71 1092.57 245.407 1084.9 250.801C1077.52 256.194 1073.83 264.569 1073.83 275.923C1073.83 285.007 1076.1 292.104 1080.64 297.214C1085.47 302.04 1092 304.453 1100.23 304.453Z" fill="#EDEEEA"/>
<path d="M1383.76 111.987C1403.34 111.987 1418.67 117.949 1429.74 129.871C1440.81 141.794 1446.35 158.542 1446.35 180.117V345.33H1379.07V191.613C1379.07 180.259 1377.23 172.452 1373.54 168.194C1370.13 163.652 1364.88 161.381 1357.78 161.381C1344.16 161.381 1331.1 171.175 1318.61 190.762V345.33H1251.33V119.226H1310.09L1314.77 146.052C1324.43 134.697 1334.79 126.181 1345.86 120.504C1357.21 114.826 1369.85 111.987 1383.76 111.987Z" fill="#EDEEEA"/>
<path d="M1572.45 111.987C1588.63 111.987 1603.82 114.4 1618.01 119.226C1632.21 124.052 1644.7 130.865 1655.48 139.665L1630.79 177.562C1612.34 165.923 1593.74 160.104 1575.01 160.104C1566.21 160.104 1559.39 161.665 1554.57 164.788C1550.03 167.626 1547.75 171.742 1547.75 177.136C1547.75 181.394 1548.75 184.942 1550.74 187.781C1553.01 190.336 1557.41 193.033 1563.94 195.872C1570.46 198.71 1580.54 202.117 1594.17 206.091C1617.73 212.904 1635.19 221.846 1646.54 232.917C1658.18 243.704 1664 258.749 1664 278.052C1664 293.382 1659.6 306.724 1650.8 318.078C1642 329.149 1629.94 337.666 1614.61 343.627C1599.28 349.588 1582.24 352.569 1563.51 352.569C1544.49 352.569 1526.75 349.588 1510.28 343.627C1494.1 337.666 1480.33 329.433 1468.98 318.93L1501.77 282.311C1520.79 297.072 1540.8 304.453 1561.81 304.453C1572.03 304.453 1579.97 302.607 1585.65 298.917C1591.61 295.227 1594.59 289.975 1594.59 283.162C1594.59 277.769 1593.46 273.511 1591.19 270.388C1588.92 267.265 1584.52 264.427 1577.99 261.872C1571.46 259.033 1561.1 255.627 1546.9 251.652C1524.48 245.123 1507.73 236.039 1496.66 224.401C1485.59 212.762 1480.05 198.284 1480.05 180.968C1480.05 167.91 1483.74 156.271 1491.12 146.052C1498.79 135.549 1509.57 127.317 1523.48 121.355C1537.68 115.11 1554 111.987 1572.45 111.987Z" fill="#EDEEEA"/>
</svg>
