<svg width="1664" height="252" viewBox="0 0 1664 252" fill="none" xmlns="http://www.w3.org/2000/svg">
<path d="M128.481 251.45C91.9687 251.45 61.3125 239.739 36.8564 216.316C12.4003 192.549 0 162.581 0 126.07C0 89.2131 12.4003 59.2458 36.8564 35.823C61.3125 12.4003 92.6576 0.688897 130.203 0.688897C158.104 0.688897 182.215 6.88904 202.538 18.9449V67.8571C180.149 54.079 157.415 47.1899 133.647 47.1899C109.191 47.1899 89.2131 54.4234 73.7128 69.2349C58.2124 83.7019 50.6345 102.991 50.6345 127.103C50.6345 150.87 58.2124 170.159 73.0239 184.282C87.8353 198.404 106.436 205.638 128.481 205.638C149.492 205.638 165.682 200.471 177.048 189.793V106.78H226.65V213.216C216.66 223.894 202.882 233.194 185.315 240.428C167.748 247.661 148.803 251.45 128.481 251.45Z" fill="#EDEEEA"/>
<path d="M343.201 251.106C316.334 251.106 293.6 242.839 275.344 226.305C257.088 209.771 247.788 187.726 247.788 160.515C247.788 135.025 256.054 113.669 272.588 96.4466C289.122 78.8796 310.822 70.2683 337.345 70.2683C362.49 70.2683 382.124 79.224 396.935 96.7911C411.747 114.358 419.325 135.714 419.325 161.204V173.948H296.011C301.178 197.371 323.223 209.771 353.534 209.771C372.824 209.771 391.08 204.605 408.647 194.615V233.539C393.146 245.25 371.446 251.106 343.201 251.106ZM296.011 142.948H371.446C370.413 124.003 356.979 108.502 335.278 108.502C313.234 108.502 298.422 122.625 296.011 142.948Z" fill="#EDEEEA"/>
<path d="M492.777 194.96C501.732 204.26 513.099 208.738 526.877 208.738C540.655 208.738 552.022 204.26 560.978 194.96C569.934 185.66 574.412 174.293 574.412 160.515C574.412 146.737 569.934 135.37 560.978 126.414C552.022 117.114 540.655 112.636 526.877 112.636C513.099 112.636 501.732 117.114 492.777 126.414C483.821 135.37 479.343 146.737 479.343 160.515C479.343 174.293 483.821 185.66 492.777 194.96ZM431.464 160.515C431.464 135.025 440.42 113.669 458.331 96.4466C476.243 78.8796 498.977 70.2683 526.877 70.2683C554.778 70.2683 577.512 78.8796 595.423 96.4466C613.335 114.014 622.291 135.37 622.291 160.515C622.291 186.349 613.335 207.705 595.423 225.272C577.512 242.494 554.778 251.106 526.877 251.106C498.977 251.106 476.243 242.494 458.331 225.272C440.42 207.705 431.464 186.349 431.464 160.515Z" fill="#EDEEEA"/>
<path d="M692.903 246.628H644.335V74.7461H692.903V95.7577C705.648 78.8795 723.215 70.2683 745.26 70.2683C771.094 70.2683 791.417 83.3574 798.65 99.5467C810.017 82.6685 833.095 70.2683 857.896 70.2683C894.752 70.2683 919.208 94.0354 919.208 139.159V246.628H870.641V150.181C870.641 126.414 860.996 114.703 842.051 114.703C827.24 114.703 812.773 124.692 806.228 138.125V246.628H757.66V150.181C757.66 126.414 748.016 114.703 729.071 114.703C714.948 114.703 699.792 124.692 692.903 137.436V246.628Z" fill="#EDEEEA"/>
<path d="M1033.49 251.106C1006.62 251.106 983.89 242.839 965.634 226.305C947.378 209.771 938.078 187.726 938.078 160.515C938.078 135.025 946.345 113.669 962.878 96.4466C979.412 78.8796 1001.11 70.2683 1027.64 70.2683C1052.78 70.2683 1072.41 79.224 1087.23 96.7911C1102.04 114.358 1109.62 135.714 1109.62 161.204V173.948H986.301C991.468 197.371 1013.51 209.771 1043.82 209.771C1063.11 209.771 1081.37 204.605 1098.94 194.615V233.539C1083.44 245.25 1061.74 251.106 1033.49 251.106ZM986.301 142.948H1061.74C1060.7 124.003 1047.27 108.502 1025.57 108.502C1003.52 108.502 988.712 122.625 986.301 142.948Z" fill="#EDEEEA"/>
<path d="M1149.31 193.238V115.391H1115.55V74.7461H1149.31V27.5562H1197.88V74.7461H1246.79V115.391H1197.88V183.593C1197.88 200.471 1204.77 207.705 1221.3 207.705C1229.91 207.705 1238.18 205.638 1246.45 201.505V241.805C1236.46 248.006 1223.02 251.106 1205.46 251.106C1167.91 251.106 1149.31 231.816 1149.31 193.238Z" fill="#EDEEEA"/>
<path d="M1319.95 246.628H1271.39V74.7461H1319.95V103.68C1325.12 94.7244 1333.04 86.802 1344.07 80.2574C1355.09 73.7128 1367.14 70.2683 1379.89 70.2683C1382.3 70.2683 1384.02 70.2682 1385.4 70.6127V118.147C1381.27 117.114 1376.1 116.425 1370.24 116.425C1346.82 116.425 1326.84 130.892 1319.95 146.392V246.628Z" fill="#EDEEEA"/>
<path d="M1454.24 246.628H1405.67V74.7461H1454.24V246.628ZM1400.85 29.2784C1400.85 12.7447 1413.59 0 1429.78 0C1445.97 0 1458.72 12.7447 1458.72 29.2784C1458.72 45.4677 1445.97 58.2124 1429.78 58.2124C1413.59 58.2124 1400.85 45.4677 1400.85 29.2784Z" fill="#EDEEEA"/>
<path d="M1654.01 209.082C1658.14 209.082 1661.59 208.394 1664 207.016V242.494C1657.8 247.317 1649.19 249.728 1637.82 249.728C1618.19 249.728 1605.44 242.494 1598.9 227.683C1583.74 243.183 1564.11 251.106 1539.65 251.106C1502.45 251.106 1476.27 228.372 1476.27 193.582C1476.27 175.326 1482.82 161.204 1496.25 151.559C1509.69 141.914 1525.53 137.092 1544.13 137.092C1563.42 137.092 1579.95 140.537 1593.73 147.77V142.603C1593.73 120.903 1578.58 110.225 1548.26 110.225C1530.01 110.225 1512.44 115.047 1496.25 124.692V84.0463C1513.82 74.7461 1534.83 70.2683 1559.98 70.2683C1584.43 70.2683 1604.41 76.1239 1619.22 88.1798C1634.38 100.236 1641.96 116.769 1641.96 137.781V195.993C1641.96 204.605 1646.09 209.082 1654.01 209.082ZM1593.73 195.993V178.771C1583.74 172.226 1572.03 168.782 1557.91 168.782C1537.24 168.782 1524.15 177.048 1524.15 191.171C1524.15 206.327 1536.9 213.56 1554.81 213.56C1571.69 213.56 1584.78 207.705 1593.73 195.993Z" fill="#EDEEEA"/>
</svg>
