<svg width="1664" height="254" viewBox="0 0 1664 254" fill="none" xmlns="http://www.w3.org/2000/svg">
<path d="M116.752 253.02C94.6794 253.02 74.8141 248.838 57.1561 240.474C39.4981 231.877 25.5576 218.402 15.3346 200.047C5.11152 181.691 0 157.76 0 128.253V121.283C0 100.139 3.02045 82.0167 9.06134 66.9145C15.1022 51.5799 23.3504 39.0335 33.8058 29.2751C44.4935 19.2844 56.6915 11.9656 70.3996 7.31878C84.3402 2.4396 99.2101 0 115.009 0C128.95 0 141.961 1.62639 154.043 4.87918C166.125 8.13197 176.812 13.2435 186.106 20.2138C195.632 26.9517 203.415 35.6645 209.456 46.3522C215.73 57.04 219.679 69.8188 221.306 84.6887H156.134C154.275 75.8597 151.022 69.1218 146.376 64.4749C141.961 59.8281 136.966 56.6915 131.389 55.0651C126.046 53.2063 120.586 52.277 115.009 52.277C105.251 52.277 96.5381 54.4842 88.8708 58.8987C81.4359 63.0809 75.5112 70.1673 71.0967 80.158C66.9145 90.1487 64.8234 103.857 64.8234 121.283V128.253C64.8234 141.264 66.1013 152.416 68.6571 161.71C71.2128 170.771 74.698 178.206 79.1125 184.015C83.7593 189.823 89.2193 194.122 95.4926 196.91C101.998 199.466 109.085 200.744 116.752 200.744C125.349 200.744 133.481 199.349 141.148 196.561C148.815 193.541 155.204 188.894 160.316 182.621C165.428 176.348 168.099 168.332 168.332 158.573H123.722V118.843H226.534V135.223C226.534 156.134 223.745 174.024 218.169 188.894C212.825 203.764 205.274 215.962 195.516 225.488C185.757 235.014 174.14 241.984 160.665 246.399C147.421 250.813 132.783 253.02 116.752 253.02Z" fill="#EDEEEA"/>
<path d="M331.21 253.02C314.017 253.02 298.217 249.652 283.812 242.914C269.639 236.176 258.255 225.72 249.658 211.547C241.294 197.142 237.111 179.252 237.111 157.876V150.906C237.111 130.925 241.294 114.196 249.658 100.72C258.255 87.0121 269.639 76.6729 283.812 69.7026C298.217 62.7324 314.017 59.2472 331.21 59.2472C348.636 59.2472 364.435 62.7324 378.608 69.7026C392.781 76.6729 404.049 87.0121 412.413 100.72C421.01 114.196 425.308 130.925 425.308 150.906V157.876C425.308 179.02 421.01 196.678 412.413 210.85C404.049 224.791 392.781 235.363 378.608 242.565C364.435 249.535 348.636 253.02 331.21 253.02ZM331.21 208.411C339.574 208.411 346.661 206.436 352.469 202.486C358.278 198.304 362.692 192.379 365.713 184.712C368.733 177.045 370.243 168.099 370.243 157.876V150.906C370.243 141.612 368.733 133.481 365.713 126.51C362.692 119.54 358.278 114.08 352.469 110.13C346.661 105.948 339.574 103.857 331.21 103.857C322.846 103.857 315.759 105.948 309.951 110.13C304.142 114.08 299.728 119.54 296.707 126.51C293.687 133.481 292.176 141.612 292.176 150.906V157.876C292.176 168.564 293.687 177.742 296.707 185.409C299.728 192.844 304.142 198.536 309.951 202.486C315.759 206.436 322.846 208.411 331.21 208.411Z" fill="#EDEEEA"/>
<path d="M505.33 250.581C490.46 250.581 478.262 248.838 468.736 245.353C459.21 241.636 452.124 235.014 447.477 225.488C443.063 215.73 440.855 201.673 440.855 183.318V4.53067H494.526V175.302C494.526 186.687 496.037 194.703 499.057 199.349C502.31 203.764 508.932 205.971 518.922 205.971C521.71 205.971 524.034 205.971 525.893 205.971C527.751 205.739 529.61 205.507 531.469 205.274V249.535C529.145 249.768 526.59 249.884 523.802 249.884C521.246 250.116 518.341 250.232 515.089 250.232C512.068 250.465 508.815 250.581 505.33 250.581Z" fill="#EDEEEA"/>
<path d="M627.337 253.02C610.144 253.02 594.345 249.652 579.939 242.914C565.766 236.176 554.382 225.72 545.785 211.547C537.421 197.142 533.239 179.252 533.239 157.876V150.906C533.239 130.925 537.421 114.196 545.785 100.72C554.382 87.0121 565.766 76.6729 579.939 69.7026C594.345 62.7324 610.144 59.2472 627.337 59.2472C644.763 59.2472 660.562 62.7324 674.735 69.7026C688.908 76.6729 700.176 87.0121 708.541 100.72C717.137 114.196 721.436 130.925 721.436 150.906V157.876C721.436 179.02 717.137 196.678 708.541 210.85C700.176 224.791 688.908 235.363 674.735 242.565C660.562 249.535 644.763 253.02 627.337 253.02ZM627.337 208.411C635.701 208.411 642.788 206.436 648.596 202.486C654.405 198.304 658.82 192.379 661.84 184.712C664.86 177.045 666.371 168.099 666.371 157.876V150.906C666.371 141.612 664.86 133.481 661.84 126.51C658.82 119.54 654.405 114.08 648.596 110.13C642.788 105.948 635.701 103.857 627.337 103.857C618.973 103.857 611.886 105.948 606.078 110.13C600.269 114.08 595.855 119.54 592.834 126.51C589.814 133.481 588.304 141.612 588.304 150.906V157.876C588.304 168.564 589.814 177.742 592.834 185.409C595.855 192.844 600.269 198.536 606.078 202.486C611.886 206.436 618.973 208.411 627.337 208.411Z" fill="#EDEEEA"/>
<path d="M815.398 253.02C800.296 253.02 787.285 251.51 776.365 248.49C765.677 245.237 756.848 240.939 749.878 235.595C742.907 230.019 737.68 223.629 734.195 216.427C730.709 208.992 728.734 201.092 728.27 192.728H781.941C783.335 197.839 786.355 202.37 791.002 206.32C795.649 210.037 803.781 211.896 815.398 211.896C827.247 211.896 835.728 210.27 840.839 207.017C845.951 203.764 848.507 199.466 848.507 194.122C848.507 191.334 847.345 188.894 845.022 186.803C842.931 184.48 838.865 182.389 832.824 180.53C827.015 178.671 818.535 176.812 807.382 174.954C797.159 173.327 787.517 171.236 778.456 168.68C769.627 166.125 761.843 162.756 755.105 158.573C748.367 154.159 743.023 148.583 739.074 141.845C735.356 135.107 733.497 126.626 733.497 116.403C733.497 105.483 736.75 95.7249 743.256 87.1283C749.761 78.5316 759.171 71.7937 771.485 66.9145C783.8 61.803 798.437 59.2472 815.398 59.2472C834.682 59.2472 849.901 62.2677 861.053 68.3086C872.438 74.1171 880.802 81.6682 886.146 90.9619C891.49 100.023 894.627 109.549 895.556 119.54H841.537C840.142 113.731 837.122 109.085 832.475 105.599C828.061 102.114 822.368 100.372 815.398 100.372C804.71 100.372 797.275 101.998 793.093 105.251C789.143 108.504 787.168 112.454 787.168 117.1C787.168 121.747 790.421 125.465 796.927 128.253C803.432 130.809 813.772 133.016 827.944 134.875C838.168 136.269 847.694 138.244 856.523 140.799C865.584 143.355 873.484 146.956 880.221 151.603C887.192 156.018 892.652 161.71 896.602 168.68C900.551 175.418 902.526 183.666 902.526 193.425C902.526 205.042 899.157 215.381 892.419 224.442C885.914 233.504 876.155 240.59 863.144 245.702C850.365 250.581 834.45 253.02 815.398 253.02Z" fill="#EDEEEA"/>
<path d="M1053.98 248.49V56.1106H979.049V4.53067H1191.64V56.1106H1116.71V248.49H1053.98Z" fill="#EDEEEA"/>
<path d="M1263.2 253.02C1245.07 253.02 1228.81 249.652 1214.4 242.914C1200 235.943 1188.5 225.372 1179.9 211.199C1171.54 197.026 1167.36 179.252 1167.36 157.876V150.906C1167.36 130.46 1171.42 113.499 1179.55 100.023C1187.69 86.5474 1198.72 76.4405 1212.66 69.7026C1226.84 62.7324 1242.52 59.2472 1259.71 59.2472C1290.15 59.2472 1313.15 67.1469 1328.72 82.9461C1344.28 98.513 1352.07 121.166 1352.07 150.906V170.423H1222.42C1222.89 179.484 1224.98 187.035 1228.69 193.076C1232.64 199.117 1237.64 203.532 1243.68 206.32C1249.72 208.876 1256.23 210.153 1263.2 210.153C1273.42 210.153 1281.44 208.643 1287.24 205.623C1293.28 202.37 1297.23 198.072 1299.09 192.728H1348.58C1344.86 212.942 1335.69 228.044 1321.05 238.034C1306.41 248.025 1287.13 253.02 1263.2 253.02ZM1261.45 102.114C1254.95 102.114 1248.79 103.16 1242.98 105.251C1237.17 107.342 1232.41 110.827 1228.69 115.706C1225.21 120.353 1223.23 126.743 1222.77 134.875H1299.44C1299.44 126.278 1297.7 119.656 1294.21 115.009C1290.73 110.13 1286.08 106.761 1280.27 104.902C1274.7 103.044 1268.42 102.114 1261.45 102.114Z" fill="#EDEEEA"/>
<path d="M1345.21 248.49L1404.1 152.3L1348.69 63.7779H1407.94L1444.18 119.889L1479.03 63.7779H1536.89L1481.82 150.558L1540.37 248.49H1480.78L1442.09 182.621L1403.41 248.49H1345.21Z" fill="#EDEEEA"/>
<path d="M1630.89 250.581C1615.56 250.581 1603.01 248.606 1593.25 244.656C1583.49 240.474 1576.29 233.736 1571.64 224.442C1567 214.916 1564.67 202.021 1564.67 185.757V107.691H1542.02V63.7779H1564.67V21.9563H1618.34V63.7779H1660.51V107.691H1618.34V177.045C1618.34 187.5 1619.97 194.935 1623.22 199.349C1626.71 203.764 1633.33 205.971 1643.09 205.971C1650.06 205.971 1657.03 205.623 1664 204.926V248.49C1659.59 249.187 1654.94 249.652 1650.06 249.884C1645.18 250.349 1638.79 250.581 1630.89 250.581Z" fill="#EDEEEA"/>
</svg>
