<svg width="1664" height="386" viewBox="0 0 1664 386" fill="none" xmlns="http://www.w3.org/2000/svg">
<path d="M63.1591 377.382H0V0H63.1591V158.815H241.892V0H304.789V377.382H241.892V218.043H63.1591V377.382Z" fill="#EDEEEA"/>
<path d="M580.32 139.16C584.862 148.245 587.745 157.679 588.968 167.463C590.366 177.073 591.065 189.128 591.065 203.629V377.382H535.767V339.382C523.712 355.281 509.735 366.9 493.836 374.238C477.937 381.576 458.806 385.245 436.443 385.245C416.525 385.245 399.403 381.488 385.077 373.975C370.925 366.288 360.092 355.98 352.58 343.051C345.242 330.122 341.573 315.708 341.573 299.809C341.573 279.018 346.727 261.634 357.035 247.657C367.518 233.68 383.854 222.848 406.042 215.16C418.447 211.142 432.686 207.735 448.76 204.94C465.008 201.969 488.158 198.213 518.209 193.671L529.216 192.098C527.993 175.675 522.751 163.62 513.491 155.932C504.406 148.245 490.342 144.401 471.298 144.401C457.321 144.401 444.567 147.633 433.036 154.098C421.679 160.562 413.817 170.521 409.449 183.974L351.794 165.891C358.957 141.082 372.585 121.688 392.677 107.711C412.769 93.5594 438.976 86.4835 471.298 86.4835C497.505 86.4835 519.956 90.764 538.65 99.3249C557.519 107.886 571.409 121.164 580.32 139.16ZM522.14 288.016C525.983 278.756 528.08 264.08 528.429 243.988C500.999 248.356 481.257 251.676 469.201 253.947C457.321 256.043 446.838 258.664 437.753 261.809C426.397 266.002 417.835 271.069 412.07 277.009C406.304 282.949 403.422 290.287 403.422 299.023C403.422 309.681 407.353 318.329 415.215 324.968C423.252 331.607 434.521 334.927 449.022 334.927C462.475 334.927 474.268 332.568 484.402 327.851C494.71 322.959 503.009 316.931 509.298 309.768C515.588 302.605 519.869 295.354 522.14 288.016Z" fill="#EDEEEA"/>
<path d="M829.377 94.3456H892.798V377.382H836.977V345.934C826.32 358.513 813.216 368.297 797.667 375.286C782.117 382.1 764.384 385.507 744.466 385.507C712.843 385.507 688.82 377.557 672.397 361.658C655.973 345.584 645.316 327.764 640.424 308.196C635.532 288.628 633.086 270.021 633.086 252.374V94.3456H697.031V230.623C697.031 294.218 719.045 326.016 763.073 326.016C782.117 326.016 797.929 319.552 810.508 306.623C823.087 293.52 829.377 271.244 829.377 239.795V94.3456Z" fill="#EDEEEA"/>
<path d="M1070.47 385.245C1042.52 385.245 1017.88 378.955 996.566 366.375C975.251 353.621 958.741 335.975 947.035 313.437C935.504 290.724 929.738 264.867 929.738 235.864C929.738 206.512 935.591 180.567 947.297 158.029C959.177 135.316 975.775 117.757 997.09 105.353C1018.41 92.7732 1042.87 86.4835 1070.47 86.4835C1098.6 86.4835 1123.32 92.8605 1144.64 105.615C1165.95 118.194 1182.46 135.84 1194.17 158.553C1205.87 181.091 1211.73 206.861 1211.73 235.864C1211.73 265.041 1205.79 290.986 1193.91 313.699C1182.2 336.237 1165.6 353.796 1144.11 366.375C1122.8 378.955 1098.25 385.245 1070.47 385.245ZM1070.47 326.016C1094.76 326.016 1113.19 317.892 1125.77 301.644C1138.52 285.395 1144.9 263.469 1144.9 235.864C1144.9 207.91 1138.52 185.896 1125.77 169.822C1113.19 153.748 1094.76 145.712 1070.47 145.712C1045.84 145.712 1027.32 153.836 1014.91 170.084C1002.68 186.158 996.566 208.084 996.566 235.864C996.566 263.993 1002.86 286.094 1015.44 302.168C1028.19 318.067 1046.53 326.016 1070.47 326.016Z" fill="#EDEEEA"/>
<path d="M1332.63 109.284C1340.49 103.868 1349.4 99.8491 1359.36 97.2284C1369.32 94.433 1379.54 93.0352 1390.02 93.0352C1395.44 93.0352 1401.38 93.472 1407.84 94.3456V153.312C1401.2 151.564 1394.39 150.691 1387.4 150.691C1372.9 150.691 1360.23 153.836 1349.4 160.125C1336.82 166.939 1327.39 176.636 1321.1 189.215C1314.98 201.795 1311.92 216.558 1311.92 233.505V377.382H1248.5V94.3456H1304.32V139.684C1312.01 126.406 1321.45 116.272 1332.63 109.284Z" fill="#EDEEEA"/>
<path d="M1653.26 139.16C1657.8 148.245 1660.68 157.679 1661.9 167.463C1663.3 177.073 1664 189.128 1664 203.629V377.382H1608.7V339.382C1596.65 355.281 1582.67 366.9 1566.77 374.238C1550.87 381.576 1531.74 385.245 1509.38 385.245C1489.46 385.245 1472.34 381.488 1458.01 373.975C1443.86 366.288 1433.03 355.98 1425.52 343.051C1418.18 330.122 1414.51 315.708 1414.51 299.809C1414.51 279.018 1419.66 261.634 1429.97 247.657C1440.45 233.68 1456.79 222.848 1478.98 215.16C1491.38 211.142 1505.62 207.735 1521.7 204.94C1537.94 201.969 1561.09 198.213 1591.14 193.671L1602.15 192.098C1600.93 175.675 1595.69 163.62 1586.43 155.932C1577.34 148.245 1563.28 144.401 1544.23 144.401C1530.26 144.401 1517.5 147.633 1505.97 154.098C1494.61 160.562 1486.75 170.521 1482.38 183.974L1424.73 165.891C1431.89 141.082 1445.52 121.688 1465.61 107.711C1485.7 93.5594 1511.91 86.4835 1544.23 86.4835C1570.44 86.4835 1592.89 90.764 1611.59 99.3249C1630.45 107.886 1644.34 121.164 1653.26 139.16ZM1595.08 288.016C1598.92 278.756 1601.02 264.08 1601.37 243.988C1573.93 248.356 1554.19 251.676 1542.14 253.947C1530.26 256.043 1519.77 258.664 1510.69 261.809C1499.33 266.002 1490.77 271.069 1485.01 277.009C1479.24 282.949 1476.36 290.287 1476.36 299.023C1476.36 309.681 1480.29 318.329 1488.15 324.968C1496.19 331.607 1507.46 334.927 1521.96 334.927C1535.41 334.927 1547.2 332.568 1557.34 327.851C1567.65 322.959 1575.94 316.931 1582.23 309.768C1588.52 302.605 1592.8 295.354 1595.08 288.016Z" fill="#EDEEEA"/>
</svg>
