<svg width="1664" height="312" viewBox="0 0 1664 312" fill="none" xmlns="http://www.w3.org/2000/svg">
<path d="M0 303.433V1.84147H62.4053V116.831H180.259V1.84147H242.869V303.433H180.259V168.801H62.4053V303.433H0Z" fill="#EDEEEA"/>
<path d="M369.742 122.56C356.238 122.56 345.735 126.789 338.233 135.246C330.867 143.703 326.229 155.161 324.319 169.62H414.961C414.006 154.206 409.3 142.543 400.843 134.632C392.522 126.584 382.155 122.56 369.742 122.56ZM369.742 74.4772C388.293 74.4772 405.003 77.9555 419.871 84.9122C434.739 91.8688 447.016 102.849 456.701 117.854C465.43 131.085 471.091 146.431 473.683 163.891C475.183 174.121 475.797 188.853 475.524 208.086H322.887C323.706 230.456 330.73 246.143 343.962 255.146C352.01 260.738 361.694 263.535 373.016 263.535C385.02 263.535 394.773 260.124 402.275 253.304C406.367 249.621 409.982 244.506 413.119 237.959H472.66C471.159 251.19 464.271 264.626 451.995 278.266C432.898 299.955 406.162 310.799 371.788 310.799C343.416 310.799 318.386 301.66 296.697 283.382C275.009 265.103 264.165 235.367 264.165 194.173C264.165 155.57 273.918 125.97 293.424 105.373C313.066 84.7758 338.506 74.4772 369.742 74.4772Z" fill="#EDEEEA"/>
<path d="M557.793 303.433H499.48V1.84147H557.793V303.433Z" fill="#EDEEEA"/>
<path d="M735.614 80.4108H798.223L717.813 303.433H656.226L576.224 80.4108H641.699L688.145 244.915L735.614 80.4108Z" fill="#EDEEEA"/>
<path d="M902.59 122.56C889.085 122.56 878.582 126.789 871.08 135.246C863.714 143.703 859.076 155.161 857.167 169.62H947.808C946.853 154.206 942.147 142.543 933.69 134.632C925.369 126.584 915.002 122.56 902.59 122.56ZM902.59 74.4772C921.141 74.4772 937.85 77.9555 952.718 84.9122C967.587 91.8688 979.863 102.849 989.548 117.854C998.278 131.085 1003.94 146.431 1006.53 163.891C1008.03 174.121 1008.64 188.853 1008.37 208.086H855.734C856.553 230.456 863.578 246.143 876.809 255.146C884.857 260.738 894.542 263.535 905.863 263.535C917.867 263.535 927.62 260.124 935.122 253.304C939.214 249.621 942.829 244.506 945.966 237.959H1005.51C1004.01 251.19 997.118 264.626 984.842 278.266C965.745 299.955 939.01 310.799 904.636 310.799C876.263 310.799 851.233 301.66 829.545 283.382C807.856 265.103 797.012 235.367 797.012 194.173C797.012 155.57 806.765 125.97 826.271 105.373C845.913 84.7758 871.353 74.4772 902.59 74.4772Z" fill="#EDEEEA"/>
<path d="M1008.18 123.992V82.4569H1039.28V20.2562H1096.98V82.4569H1133.2V123.992H1096.98V241.846C1096.98 250.985 1098.14 256.714 1100.46 259.033C1102.78 261.216 1109.87 262.307 1121.74 262.307C1123.51 262.307 1125.36 262.307 1127.27 262.307C1129.31 262.171 1131.29 262.034 1133.2 261.898V305.479L1105.58 306.502C1078.02 307.457 1059.2 302.683 1049.11 292.18C1042.56 285.496 1039.28 275.197 1039.28 261.284V123.992H1008.18Z" fill="#EDEEEA"/>
<path d="M1213.83 53.8118H1154.7V0H1213.83V53.8118ZM1154.7 80.4108H1213.83V303.433H1154.7V80.4108Z" fill="#EDEEEA"/>
<path d="M1386.94 160.412C1385.85 152.092 1383.06 144.589 1378.56 137.906C1372.01 128.903 1361.85 124.401 1348.07 124.401C1328.43 124.401 1314.99 134.154 1307.76 153.66C1303.94 164.027 1302.03 177.804 1302.03 194.991C1302.03 211.36 1303.94 224.523 1307.76 234.48C1314.72 253.031 1327.81 262.307 1347.05 262.307C1360.69 262.307 1370.37 258.624 1376.1 251.258C1381.83 243.892 1385.31 234.344 1386.54 222.613H1446.08C1444.71 240.346 1438.3 257.124 1426.84 272.947C1408.57 298.454 1381.49 311.208 1345.61 311.208C1309.74 311.208 1283.35 300.569 1266.43 279.289C1249.52 258.01 1241.06 230.388 1241.06 196.423C1241.06 158.093 1250.4 128.289 1269.09 107.01C1287.78 85.7306 1313.56 75.091 1346.43 75.091C1374.4 75.091 1397.24 81.3656 1414.98 93.9149C1432.85 106.464 1443.42 128.63 1446.69 160.412H1386.94Z" fill="#EDEEEA"/>
<path d="M1593.21 194.991C1589.52 197.31 1585.77 199.22 1581.95 200.72C1578.27 202.084 1573.15 203.38 1566.61 204.608L1553.51 207.063C1541.24 209.245 1532.44 211.905 1527.12 215.043C1518.11 220.362 1513.61 228.615 1513.61 239.8C1513.61 249.758 1516.34 256.987 1521.8 261.489C1527.39 265.854 1534.14 268.036 1542.05 268.036C1554.6 268.036 1566.13 264.353 1576.63 256.987C1587.27 249.621 1592.8 236.185 1593.21 216.679V194.991ZM1557.81 167.778C1568.58 166.414 1576.29 164.709 1580.93 162.663C1589.25 159.117 1593.41 153.592 1593.41 146.09C1593.41 136.951 1590.2 130.676 1583.79 127.266C1577.52 123.719 1568.24 121.946 1555.97 121.946C1542.19 121.946 1532.44 125.356 1526.71 132.177C1522.62 137.224 1519.89 144.044 1518.52 152.637H1462.26C1463.48 133.131 1468.94 117.104 1478.63 104.554C1494.04 84.9122 1520.5 75.091 1558.01 75.091C1582.43 75.091 1604.12 79.9334 1623.08 89.6181C1642.04 99.3029 1651.52 117.581 1651.52 144.453V246.757C1651.52 253.85 1651.66 262.443 1651.93 272.537C1652.34 280.176 1653.5 285.359 1655.41 288.088C1657.32 290.816 1660.18 293.066 1664 294.84V303.433H1600.57C1598.8 298.932 1597.57 294.703 1596.89 290.747C1596.21 286.792 1595.66 282.29 1595.25 277.243C1587.2 285.973 1577.93 293.407 1567.43 299.546C1554.88 306.775 1540.69 310.39 1524.87 310.39C1504.68 310.39 1487.97 304.661 1474.74 293.203C1461.64 281.608 1455.1 265.24 1455.1 244.097C1455.1 216.679 1465.67 196.833 1486.81 184.556C1498.4 177.872 1515.45 173.098 1537.96 170.234L1557.81 167.778Z" fill="#EDEEEA"/>
</svg>
