<svg width="1664" height="203" viewBox="0 0 1664 203" fill="none" xmlns="http://www.w3.org/2000/svg">
<path d="M0 199.051V166.504H24.209V43.8451H0V11.2975H89.3042V43.8451H65.0952V166.504H89.3042V199.051H0Z" fill="#EDEEEA"/>
<path d="M112.609 11.2975H203.797C219.398 11.2975 231.502 15.691 240.11 24.4779C248.897 33.2649 253.29 44.9211 253.29 59.4464C253.29 66.6194 252.304 72.7165 250.332 77.7376C248.538 82.7588 246.028 86.8832 242.8 90.1111C239.751 93.339 236.075 95.7599 231.771 97.3738C227.647 98.8084 223.164 99.6154 218.322 99.7947V101.409C222.805 101.409 227.468 102.216 232.309 103.83C237.33 105.443 241.903 108.044 246.028 111.63C250.152 115.037 253.559 119.52 256.249 125.08C259.118 130.639 260.553 137.453 260.553 145.523C260.553 152.875 259.298 159.869 256.787 166.504C254.456 172.96 251.139 178.608 246.835 183.45C242.531 188.292 237.42 192.147 231.502 195.017C225.585 197.706 219.129 199.051 212.135 199.051H112.609V11.2975ZM153.496 164.621H200.569C205.948 164.621 210.163 163.186 213.211 160.317C216.439 157.269 218.053 153.054 218.053 147.675V138.529C218.053 133.149 216.439 129.025 213.211 126.156C210.163 123.107 205.948 121.583 200.569 121.583H153.496V164.621ZM153.496 88.2282H194.113C199.493 88.2282 203.707 86.7039 206.755 83.6554C209.804 80.6068 211.328 76.3927 211.328 71.0129V62.9433C211.328 57.5635 209.804 53.3494 206.755 50.3008C203.707 47.2523 199.493 45.728 194.113 45.728H153.496V88.2282Z" fill="#EDEEEA"/>
<path d="M421.675 75.8547H420.868L407.15 103.292L370.567 169.732L334.792 103.561L320.535 73.9718H319.728V199.051H281.263V11.2975H324.57L370.567 99.2567H371.105L416.564 11.2975H460.14V199.051H421.675V75.8547Z" fill="#EDEEEA"/>
<path d="M543.705 199.051V11.2975H632.472C641.258 11.2975 649.149 12.8218 656.142 15.8703C663.136 18.7395 669.054 22.7743 673.896 27.9748C678.917 33.1752 682.772 39.5413 685.462 47.073C688.152 54.4253 689.497 62.495 689.497 71.2819C689.497 80.2482 688.152 88.4075 685.462 95.7599C682.772 103.112 678.917 109.389 673.896 114.589C669.054 119.789 663.136 123.914 656.142 126.962C649.149 129.832 641.258 131.266 632.472 131.266H584.592V199.051H543.705ZM584.592 95.7599H627.63C633.727 95.7599 638.479 94.2356 641.886 91.1871C645.473 87.9592 647.266 83.2967 647.266 77.1997V65.3642C647.266 59.2671 645.473 54.6943 641.886 51.6458C638.479 48.4179 633.727 46.804 627.63 46.804H584.592V95.7599Z" fill="#EDEEEA"/>
<path d="M746.859 199.051C733.23 199.051 723.188 195.734 716.732 189.099C710.456 182.464 707.318 172.87 707.318 160.317V0H747.128V168.118H764.881V199.051H746.859Z" fill="#EDEEEA"/>
<path d="M836.899 202.279C826.139 202.279 816.545 200.576 808.117 197.168C799.688 193.582 792.515 188.651 786.598 182.374C780.859 175.918 776.466 168.118 773.417 158.972C770.548 149.827 769.113 139.605 769.113 128.307C769.113 117.189 770.548 107.147 773.417 98.1807C776.286 89.0351 780.501 81.2345 786.06 74.7788C791.798 68.323 798.792 63.3916 807.041 59.9844C815.29 56.3979 824.704 54.6047 835.285 54.6047C846.941 54.6047 856.893 56.5772 865.142 60.5224C873.571 64.4675 880.385 69.7577 885.585 76.3927C890.965 83.0277 894.821 90.7387 897.152 99.5257C899.662 108.133 900.918 117.189 900.918 126.694V138.529H810.269V140.681C810.269 150.006 812.779 157.448 817.8 163.007C822.821 168.387 830.712 171.077 841.471 171.077C849.72 171.077 856.445 169.463 861.645 166.235C866.846 162.828 871.688 158.793 876.171 154.13L896.076 178.877C889.8 186.23 881.551 191.968 871.329 196.093C861.287 200.217 849.81 202.279 836.899 202.279ZM836.092 83.9244C828.022 83.9244 821.656 86.6143 816.993 91.994C812.51 97.1945 810.269 104.188 810.269 112.975V115.127H859.763V112.706C859.763 104.098 857.79 97.1945 853.845 91.994C850.079 86.6143 844.161 83.9244 836.092 83.9244Z" fill="#EDEEEA"/>
<path d="M900.352 199.051L946.887 127.232L900.89 57.8325H946.08L972.441 102.216H973.517L999.071 57.8325H1041.03L994.229 128.576L1041.3 199.051H996.112L968.945 153.054H967.868L941.777 199.051H900.352Z" fill="#EDEEEA"/>
<path d="M1169.58 202.279C1153.08 202.279 1139.1 199.5 1127.62 193.941C1116.14 188.202 1106.37 180.85 1098.3 171.884L1125.2 144.716C1137.93 159.062 1153.62 166.235 1172.27 166.235C1182.31 166.235 1189.76 164.173 1194.6 160.048C1199.44 155.924 1201.86 150.454 1201.86 143.64C1201.86 138.439 1200.43 134.136 1197.56 130.728C1194.69 127.142 1188.86 124.721 1180.07 123.466L1161.51 121.045C1141.61 118.534 1126.99 112.527 1117.67 103.023C1108.52 93.5183 1103.95 80.8758 1103.95 65.0952C1103.95 56.6669 1105.56 48.9559 1108.79 41.9622C1112.02 34.9685 1116.59 28.9611 1122.51 23.94C1128.61 18.9188 1135.96 15.0634 1144.57 12.3735C1153.35 9.50425 1163.31 8.06965 1174.42 8.06965C1188.59 8.06965 1201.05 10.3112 1211.81 14.7943C1222.57 19.2775 1231.81 25.8229 1239.52 34.4305L1212.35 61.8673C1207.87 56.6669 1202.4 52.4527 1195.94 49.2249C1189.67 45.8177 1181.69 44.1141 1172 44.1141C1162.86 44.1141 1156.04 45.728 1151.56 48.9559C1147.08 52.1837 1144.84 56.6669 1144.84 62.4053C1144.84 68.861 1146.54 73.5235 1149.95 76.3927C1153.53 79.2619 1159.27 81.3242 1167.16 82.5794L1185.72 85.5383C1205.09 88.5868 1219.44 94.5942 1228.76 103.561C1238.08 112.347 1242.75 124.9 1242.75 141.219C1242.75 150.185 1241.13 158.434 1237.91 165.966C1234.68 173.497 1229.93 179.953 1223.65 185.333C1217.55 190.713 1209.93 194.927 1200.79 197.975C1191.64 200.845 1181.24 202.279 1169.58 202.279Z" fill="#EDEEEA"/>
<path d="M1368.1 199.051C1360.93 199.051 1354.92 196.81 1350.08 192.327C1345.42 187.844 1342.46 181.836 1341.2 174.304H1339.59C1337.44 183.45 1332.69 190.444 1325.33 195.286C1317.98 199.948 1308.92 202.279 1298.17 202.279C1284 202.279 1273.15 198.513 1265.62 190.982C1258.09 183.45 1254.32 173.497 1254.32 161.124C1254.32 146.24 1259.7 135.211 1270.46 128.038C1281.4 120.686 1296.19 117.01 1314.84 117.01H1337.17V108.133C1337.17 101.319 1335.38 95.9392 1331.79 91.994C1328.2 87.8695 1322.19 85.8073 1313.77 85.8073C1305.88 85.8073 1299.6 87.5109 1294.94 90.9181C1290.27 94.3253 1286.42 98.1808 1283.37 102.485L1259.7 81.5035C1265.44 73.0752 1272.61 66.5298 1281.22 61.8673C1290.01 57.0255 1301.84 54.6047 1316.73 54.6047C1336.81 54.6047 1351.87 58.9981 1361.92 67.7851C1371.96 76.572 1376.98 89.3938 1376.98 106.25V168.118H1390.16V199.051H1368.1ZM1312.96 174.573C1319.59 174.573 1325.24 173.139 1329.91 170.27C1334.75 167.4 1337.17 162.738 1337.17 156.282V139.605H1317.8C1302.2 139.605 1294.4 144.895 1294.4 155.475V159.51C1294.4 164.711 1296.01 168.566 1299.24 171.077C1302.47 173.408 1307.04 174.573 1312.96 174.573Z" fill="#EDEEEA"/>
<path d="M1406.12 199.051V57.8325H1445.93V81.7725H1447.54C1450.05 74.4201 1454.45 68.0541 1460.72 62.6743C1467 57.2945 1475.7 54.6047 1486.82 54.6047C1501.34 54.6047 1512.28 59.4464 1519.63 69.13C1527.16 78.8136 1530.93 92.6217 1530.93 110.554V199.051H1491.12V113.782C1491.12 104.636 1489.69 97.9118 1486.82 93.608C1483.95 89.1248 1478.84 86.8832 1471.48 86.8832C1468.26 86.8832 1465.12 87.3316 1462.07 88.2282C1459.02 88.9455 1456.24 90.2008 1453.73 91.994C1451.4 93.7873 1449.52 96.0288 1448.08 98.7187C1446.65 101.229 1445.93 104.188 1445.93 107.595V199.051H1406.12Z" fill="#EDEEEA"/>
<path d="M1603.48 202.279C1589.85 202.279 1578.37 200.127 1569.05 195.824C1559.72 191.34 1551.38 185.064 1544.03 176.994L1567.43 153.323C1572.45 158.882 1578.01 163.276 1584.11 166.504C1590.21 169.732 1597.11 171.346 1604.82 171.346C1612.71 171.346 1618.18 170.18 1621.23 167.849C1624.28 165.338 1625.8 162.021 1625.8 157.896C1625.8 151.261 1621.05 147.316 1611.55 146.061L1596.21 144.178C1564.47 140.233 1548.6 125.707 1548.6 100.602C1548.6 93.7873 1549.86 87.6005 1552.37 82.0414C1555.06 76.303 1558.74 71.4612 1563.4 67.5161C1568.24 63.3916 1573.98 60.2534 1580.61 58.1015C1587.43 55.7703 1595.05 54.6047 1603.48 54.6047C1610.83 54.6047 1617.29 55.1426 1622.84 56.2186C1628.58 57.1152 1633.6 58.5498 1637.91 60.5224C1642.39 62.3156 1646.43 64.6469 1650.01 67.5161C1653.78 70.206 1657.45 73.2545 1661.04 76.6617L1638.18 100.064C1633.69 95.5805 1628.58 92.0837 1622.84 89.5731C1617.29 86.8832 1611.55 85.5383 1605.63 85.5383C1598.82 85.5383 1593.97 86.6142 1591.1 88.7662C1588.23 90.9181 1586.8 93.7873 1586.8 97.3738C1586.8 101.14 1587.79 104.098 1589.76 106.25C1591.91 108.223 1595.86 109.658 1601.59 110.554L1617.47 112.706C1648.49 116.831 1664 130.997 1664 155.206C1664 162.021 1662.57 168.297 1659.7 174.035C1656.83 179.774 1652.7 184.795 1647.32 189.099C1642.12 193.223 1635.76 196.451 1628.22 198.782C1620.87 201.114 1612.62 202.279 1603.48 202.279Z" fill="#EDEEEA"/>
</svg>
