<svg width="1664" height="407" viewBox="0 0 1664 407" fill="none" xmlns="http://www.w3.org/2000/svg">
<path d="M0 304.621V0H45.9047L151.253 215.773L256.601 0H302.505V304.621H254.908V109.367L161.407 304.621H141.099L47.8086 109.367V304.621H0Z" fill="#EDEEEA"/>
<path d="M408.898 310.967C392.398 310.967 378.436 307.864 367.013 301.659C355.589 295.313 346.916 286.922 340.993 276.486C335.211 266.05 332.32 254.556 332.32 242.004C332.32 231.004 334.153 221.132 337.82 212.388C341.486 203.504 347.128 195.888 354.743 189.542C362.359 183.055 372.231 177.766 384.359 173.676C393.526 170.715 404.244 168.035 416.513 165.638C428.924 163.24 442.322 161.054 456.706 159.08C471.232 156.964 486.393 154.708 502.188 152.31L483.995 162.676C484.136 146.881 480.611 135.246 473.418 127.772C466.226 120.297 454.097 116.56 437.033 116.56C426.738 116.56 416.795 118.957 407.206 123.752C397.616 128.547 390.917 136.797 387.109 148.503L340.57 133.906C346.211 114.585 356.929 99.0723 372.724 87.3669C388.66 75.6616 410.097 69.8089 437.033 69.8089C457.341 69.8089 475.181 73.1231 490.553 79.7514C506.066 86.3798 517.56 97.2389 525.035 112.329C529.124 120.368 531.592 128.618 532.439 137.079C533.285 145.4 533.708 154.496 533.708 164.368V304.621H489.072V255.12L496.476 263.159C486.181 279.659 474.123 291.787 460.303 299.544C446.623 307.159 429.488 310.967 408.898 310.967ZM419.052 270.351C430.616 270.351 440.488 268.306 448.668 264.216C456.848 260.126 463.335 255.12 468.13 249.197C473.066 243.274 476.38 237.703 478.072 232.485C480.752 225.998 482.233 218.594 482.515 210.273C482.938 201.811 483.149 194.971 483.149 189.753L498.803 194.407C483.431 196.805 470.245 198.92 459.245 200.754C448.245 202.587 438.796 204.35 430.898 206.042C423.001 207.593 416.02 209.356 409.956 211.331C404.032 213.446 399.026 215.914 394.936 218.735C390.846 221.555 387.673 224.799 385.417 228.466C383.301 232.132 382.244 236.434 382.244 241.37C382.244 247.011 383.654 252.017 386.474 256.389C389.295 260.62 393.385 264.005 398.744 266.543C404.244 269.082 411.013 270.351 419.052 270.351Z" fill="#EDEEEA"/>
<path d="M729.88 304.621V194.619C729.88 187.426 729.387 179.458 728.399 170.715C727.412 161.971 725.085 153.58 721.418 145.541C717.893 137.361 712.534 130.663 705.341 125.445C698.29 120.227 688.7 117.617 676.572 117.617C670.084 117.617 663.667 118.675 657.321 120.791C650.975 122.906 645.193 126.573 639.975 131.791C634.898 136.868 630.808 143.919 627.705 152.945C624.603 161.83 623.051 173.253 623.051 187.215L592.801 174.311C592.801 154.849 596.538 137.22 604.013 121.425C611.628 105.63 622.769 93.0786 637.436 83.7707C652.103 74.3219 670.155 69.5974 691.591 69.5974C708.514 69.5974 722.476 72.418 733.476 78.0591C744.477 83.7002 753.22 90.8926 759.708 99.6364C766.195 108.38 770.99 117.688 774.092 127.56C777.195 137.432 779.17 146.81 780.016 155.695C781.003 164.439 781.496 171.561 781.496 177.061V304.621H729.88ZM571.435 304.621V76.1552H616.917V147.022H623.051V304.621H571.435Z" fill="#EDEEEA"/>
<path d="M819.776 304.621V76.1552H864.834V131.791L859.334 124.598C862.155 116.983 865.892 110.072 870.546 103.867C875.341 97.521 881.052 92.3029 887.681 88.2131C893.322 84.4054 899.527 81.4438 906.297 79.3283C913.207 77.0719 920.258 75.7321 927.451 75.309C934.643 74.7449 941.624 75.027 948.393 76.1552V123.752C941.624 121.778 933.797 121.143 924.912 121.848C916.168 122.553 908.271 125.021 901.219 129.252C894.168 133.06 888.386 137.926 883.873 143.849C879.501 149.772 876.257 156.541 874.142 164.157C872.027 171.631 870.969 179.74 870.969 188.484V304.621H819.776Z" fill="#EDEEEA"/>
<path d="M1068.61 310.967C1045.77 310.967 1025.81 305.82 1008.75 295.525C991.681 285.229 978.425 271.056 968.976 253.005C959.668 234.812 955.014 213.94 955.014 190.388C955.014 166.413 959.809 145.4 969.399 127.348C978.989 109.297 992.316 95.194 1009.38 85.04C1026.44 74.886 1046.19 69.8089 1068.61 69.8089C1091.6 69.8089 1111.63 74.9565 1128.69 85.2515C1145.75 95.5466 1159.01 109.79 1168.46 127.983C1177.91 146.035 1182.63 166.836 1182.63 190.388C1182.63 214.081 1177.84 235.023 1168.25 253.216C1158.8 271.268 1145.54 285.441 1128.48 295.736C1111.41 305.89 1091.46 310.967 1068.61 310.967ZM1068.61 263.159C1088.92 263.159 1104.01 256.389 1113.88 242.851C1123.75 229.312 1128.69 211.824 1128.69 190.388C1128.69 168.247 1123.68 150.618 1113.67 137.502C1103.66 124.246 1088.64 117.617 1068.61 117.617C1054.93 117.617 1043.65 120.72 1034.77 126.925C1026.02 132.99 1019.53 141.522 1015.3 152.522C1011.07 163.381 1008.96 176.003 1008.96 190.388C1008.96 212.529 1013.96 230.228 1023.98 243.485C1034.13 256.601 1049.01 263.159 1068.61 263.159Z" fill="#EDEEEA"/>
<path d="M1322.11 310.967C1299.83 310.967 1281.14 305.679 1266.05 295.101C1250.96 284.524 1239.61 270.139 1231.99 251.947C1224.38 233.613 1220.57 213.094 1220.57 190.388C1220.57 167.4 1224.38 146.81 1231.99 128.618C1239.61 110.425 1250.75 96.1107 1265.42 85.6746C1280.22 75.0975 1298.49 69.8089 1320.21 69.8089C1341.78 69.8089 1360.47 75.0975 1376.26 85.6746C1392.2 96.1107 1404.54 110.425 1413.28 128.618C1422.03 146.669 1426.4 167.259 1426.4 190.388C1426.4 213.235 1422.1 233.754 1413.5 251.947C1404.89 270.139 1392.76 284.524 1377.11 295.101C1361.46 305.679 1343.12 310.967 1322.11 310.967ZM1211.9 406.161V76.1552H1256.95V236.504H1263.3V406.161H1211.9ZM1314.28 265.274C1327.54 265.274 1338.47 261.96 1347.07 255.331C1355.67 248.703 1362.02 239.748 1366.11 228.466C1370.34 217.042 1372.46 204.35 1372.46 190.388C1372.46 176.567 1370.34 164.016 1366.11 152.734C1361.88 141.31 1355.32 132.284 1346.44 125.656C1337.55 118.887 1326.27 115.502 1312.59 115.502C1299.62 115.502 1289.04 118.675 1280.86 125.021C1272.68 131.227 1266.61 139.97 1262.67 151.253C1258.86 162.394 1256.95 175.439 1256.95 190.388C1256.95 205.196 1258.86 218.241 1262.67 229.523C1266.61 240.806 1272.75 249.62 1281.07 255.966C1289.53 262.171 1300.6 265.274 1314.28 265.274Z" fill="#EDEEEA"/>
<path d="M1559.97 310.967C1536.84 310.967 1516.54 305.961 1499.05 295.948C1481.56 285.935 1467.88 272.043 1458.01 254.274C1448.28 236.504 1443.41 216.055 1443.41 192.927C1443.41 167.965 1448.21 146.317 1457.8 127.983C1467.39 109.508 1480.71 95.194 1497.78 85.04C1514.84 74.886 1534.59 69.8089 1557.01 69.8089C1580.7 69.8089 1600.8 75.3796 1617.3 86.5208C1633.94 97.521 1646.28 113.105 1654.32 133.272C1662.36 153.439 1665.39 177.202 1663.42 204.561H1612.86V185.946C1612.72 161.125 1608.34 143.003 1599.74 131.579C1591.14 120.156 1577.6 114.444 1559.13 114.444C1538.25 114.444 1522.74 120.932 1512.59 133.906C1502.43 146.74 1497.36 165.567 1497.36 190.388C1497.36 213.517 1502.43 231.427 1512.59 244.12C1522.74 256.812 1537.55 263.159 1557.01 263.159C1569.56 263.159 1580.35 260.408 1589.38 254.908C1598.54 249.267 1605.59 241.158 1610.53 230.581L1660.88 245.812C1652.13 266.402 1638.59 282.409 1620.26 293.832C1602.07 305.255 1581.97 310.967 1559.97 310.967ZM1481.28 204.561V166.061H1638.45V204.561H1481.28Z" fill="#EDEEEA"/>
</svg>
