<svg width="1664" height="215" viewBox="0 0 1664 215" fill="none" xmlns="http://www.w3.org/2000/svg">
<path d="M0 166.33L13.4986 2.74548H56.9686L80.7628 71.84L88.9992 98.8372H89.4568C92.5073 87.8553 95.2528 78.8562 97.6932 71.84L121.487 2.74548H164.957L178.227 166.33H138.189L133.156 92.6598C132.851 88.9992 132.698 84.881 132.698 80.3052C132.698 75.7294 132.774 72.0688 132.927 69.3233L133.156 65.2051H132.698C129.037 76.6446 125.987 85.7961 123.546 92.6598L106.387 140.019H72.0688L54.9095 92.6598L45.7579 65.2051H45.3004C45.9105 75.2718 45.9105 84.4234 45.3004 92.6598L40.267 166.33H0Z" fill="#EDEEEA"/>
<path d="M191.072 124.919V48.5034H230.652V117.598C230.652 127.97 234.847 133.156 243.236 133.156C251.32 133.156 257.497 130.105 261.768 124.004C266.038 117.75 268.174 109.972 268.174 100.667V48.5034H307.754V166.33H269.775V156.035L270.233 148.713H269.775C266.572 154.967 261.615 159.924 254.904 163.585C248.193 167.245 240.871 169.076 232.94 169.076C220.128 169.076 209.909 165.644 202.282 158.78C194.808 151.764 191.072 140.477 191.072 124.919Z" fill="#EDEEEA"/>
<path d="M316.241 151.688L333.171 125.834C342.628 133.766 353.305 137.731 365.202 137.731C372.371 137.731 375.955 135.672 375.955 131.554C375.955 129.266 374.049 127.283 370.235 125.606C366.422 123.775 361.846 121.945 356.508 120.115C351.17 118.284 345.755 116.073 340.264 113.48C334.925 110.734 330.35 106.769 326.537 101.583C322.723 96.3967 320.817 90.2194 320.817 83.0507C320.817 71.3061 325.393 62.1545 334.544 55.5959C343.848 49.0373 355.593 45.7579 369.778 45.7579C386.708 45.7579 400.741 50.2575 411.875 59.2565L398.376 86.7113C395.021 83.9658 390.445 81.6779 384.649 79.8476C379.006 78.0173 373.667 77.1021 368.634 77.1021C361.313 77.1021 357.652 79.0087 357.652 82.8219C357.652 84.6522 359.025 86.4063 361.77 88.0841C364.516 89.6093 367.871 90.982 371.837 92.2023C375.955 93.2699 380.378 94.8715 385.107 97.0068C389.988 98.9897 394.411 101.278 398.376 103.871C402.495 106.311 405.927 109.895 408.672 114.624C411.418 119.199 412.79 124.462 412.79 130.41C412.79 141.697 408.367 151.001 399.52 158.322C390.826 165.491 379.082 169.076 364.287 169.076C345.221 169.076 329.206 163.28 316.241 151.688Z" fill="#EDEEEA"/>
<path d="M417.069 107.302C417.069 89.6093 422.637 74.9668 433.771 63.3748C444.905 51.6302 459.777 45.7579 478.385 45.7579C495.315 45.7579 508.585 51.0964 518.194 61.7732C527.956 72.2976 532.837 85.9487 532.837 102.727C532.837 105.472 532.532 109.59 531.922 115.081H457.565C458.938 121.945 462.141 127.207 467.174 130.868C472.36 134.376 478.309 136.13 485.02 136.13C494.782 136.13 505.611 132.164 517.508 124.233L532.151 151.916C525.897 157.255 518.194 161.449 509.043 164.5C500.044 167.55 490.968 169.076 481.817 169.076C461.836 169.076 446.049 162.975 434.457 150.772C422.865 138.57 417.069 124.08 417.069 107.302ZM458.48 92.4311H493.714C493.714 87.3977 492.189 83.2032 489.138 79.8476C486.24 76.492 482.351 74.8142 477.47 74.8142C467.403 74.8142 461.073 80.6865 458.48 92.4311Z" fill="#EDEEEA"/>
<path d="M556.947 152.145C544.135 140.706 537.729 125.911 537.729 107.76C537.729 89.6093 544.135 74.738 556.947 63.146C569.76 51.554 585.546 45.7579 604.307 45.7579C623.22 45.7579 639.083 51.554 651.895 63.146C664.86 74.5854 671.342 89.4568 671.342 107.76C671.342 125.911 664.936 140.706 652.124 152.145C639.312 163.432 623.449 169.076 604.536 169.076C585.622 169.076 569.76 163.432 556.947 152.145ZM577.767 107.76C577.767 116.301 580.36 123.165 585.546 128.351C590.732 133.537 597.062 136.13 604.536 136.13C612.009 136.13 618.339 133.537 623.525 128.351C628.711 123.165 631.304 116.301 631.304 107.76C631.304 99.066 628.711 92.0497 623.525 86.7113C618.339 81.3729 612.009 78.7037 604.536 78.7037C597.062 78.7037 590.732 81.3729 585.546 86.7113C580.36 92.0497 577.767 99.066 577.767 107.76Z" fill="#EDEEEA"/>
<path d="M722.729 145.739L743.777 115.31C748.963 119.886 755.141 123.852 762.309 127.207C769.478 130.563 776.418 132.24 783.129 132.24C788.468 132.24 792.586 131.173 795.484 129.037C798.534 126.902 800.06 124.157 800.06 120.801C800.06 117.293 798.229 114.09 794.569 111.192C791.061 108.141 786.637 105.625 781.299 103.642C775.961 101.659 770.165 99.1422 763.911 96.0917C757.657 92.8886 751.861 89.533 746.523 86.0249C741.184 82.5168 736.685 77.7122 733.024 71.6112C729.516 65.3576 727.762 58.1889 727.762 50.105C727.762 35.1574 733.253 23.1078 744.235 13.9562C755.369 4.65206 769.631 0 787.019 0C807.305 0 824.388 6.17732 838.268 18.532L821.337 51.2489C816.609 47.1307 810.965 43.6988 804.407 40.9534C797.848 38.2079 791.442 36.8351 785.188 36.8351C779.392 36.8351 775.045 37.9028 772.147 40.0382C769.249 42.1736 767.8 44.9953 767.8 48.5034C767.8 52.0115 769.554 55.2146 773.063 58.1126C776.723 61.0106 781.223 63.451 786.561 65.4339C791.9 67.2642 797.696 69.7046 803.949 72.7551C810.203 75.6531 815.999 78.8562 821.337 82.3643C826.676 85.7199 831.099 90.5245 834.607 96.778C838.268 102.879 840.098 109.972 840.098 118.056C840.098 132.546 834.912 144.671 824.54 154.433C814.321 164.195 800.136 169.076 781.985 169.076C771.003 169.076 760.25 167.093 749.726 163.127C739.354 159.161 730.355 153.365 722.729 145.739Z" fill="#EDEEEA"/>
<path d="M844.261 133.156C844.261 125.682 846.32 119.199 850.438 113.708C854.556 108.218 859.971 104.023 866.682 101.125C873.546 98.227 880.638 96.1679 887.96 94.9477C895.281 93.575 902.907 92.8886 910.839 92.8886H914.27V90.8295C914.27 82.1355 908.703 77.7885 897.569 77.7885C887.197 77.7885 876.368 81.5254 865.081 88.9992L851.353 61.0869C856.692 56.9686 864.013 53.3843 873.317 50.3337C882.774 47.2832 892.078 45.7579 901.229 45.7579C917.55 45.7579 930.362 50.0287 939.666 58.5702C949.123 67.1117 953.851 78.8562 953.851 93.8038V166.33H917.702V159.238L918.16 151.916H917.702C913.889 157.255 908.78 161.449 902.373 164.5C896.12 167.55 889.561 169.076 882.698 169.076C871.411 169.076 862.183 165.644 855.014 158.78C847.845 151.916 844.261 143.375 844.261 133.156ZM883.384 129.495C883.384 132.393 884.375 134.833 886.358 136.816C888.341 138.647 891.086 139.562 894.595 139.562C900.085 139.562 904.814 137.35 908.78 132.927C912.745 128.504 914.728 123.775 914.728 118.742V115.539H911.067C903.746 115.539 897.264 116.683 891.62 118.971C886.129 121.106 883.384 124.614 883.384 129.495Z" fill="#EDEEEA"/>
<path d="M969.806 166.33V48.5034H1007.78V58.799L1007.33 66.1202H1007.78C1015.87 52.5454 1028.38 45.7579 1045.31 45.7579C1073.52 45.7579 1087.63 60.4768 1087.63 89.9144V166.33H1048.05V97.2356C1048.05 86.8638 1043.7 81.6779 1035.01 81.6779C1026.62 81.6779 1020.22 84.6522 1015.79 90.6007C1011.52 96.5493 1009.39 104.023 1009.39 113.022V166.33H969.806Z" fill="#EDEEEA"/>
<path d="M1094.95 151.688L1111.88 125.834C1121.34 133.766 1132.01 137.731 1143.91 137.731C1151.08 137.731 1154.66 135.672 1154.66 131.554C1154.66 129.266 1152.76 127.283 1148.94 125.606C1145.13 123.775 1140.55 121.945 1135.22 120.115C1129.88 118.284 1124.46 116.073 1118.97 113.48C1113.63 110.734 1109.06 106.769 1105.24 101.583C1101.43 96.3967 1099.52 90.2194 1099.52 83.0507C1099.52 71.3061 1104.1 62.1545 1113.25 55.5959C1122.56 49.0373 1134.3 45.7579 1148.48 45.7579C1165.42 45.7579 1179.45 50.2575 1190.58 59.2565L1177.08 86.7113C1173.73 83.9658 1169.15 81.6779 1163.36 79.8476C1157.71 78.0173 1152.37 77.1021 1147.34 77.1021C1140.02 77.1021 1136.36 79.0087 1136.36 82.8219C1136.36 84.6522 1137.73 86.4063 1140.48 88.0841C1143.22 89.6093 1146.58 90.982 1150.54 92.2023C1154.66 93.2699 1159.09 94.8715 1163.81 97.0068C1168.69 98.9897 1173.12 101.278 1177.08 103.871C1181.2 106.311 1184.63 109.895 1187.38 114.624C1190.12 119.199 1191.5 124.462 1191.5 130.41C1191.5 141.697 1187.07 151.001 1178.23 158.322C1169.53 165.491 1157.79 169.076 1142.99 169.076C1123.93 169.076 1107.91 163.28 1094.95 151.688Z" fill="#EDEEEA"/>
<path d="M1245.65 84.1946C1245.65 60.0954 1253.66 40.0382 1269.68 24.0229C1285.84 8.00764 1306.43 0 1331.45 0C1342.89 0 1354.02 1.98284 1364.85 5.94854C1375.68 9.7617 1384.99 15.4814 1392.76 23.1078L1374.23 53.308C1368.74 48.4272 1362.26 44.4615 1354.79 41.411C1347.46 38.2079 1340.3 36.6064 1333.28 36.6064C1318.03 36.6064 1306.51 41.1822 1298.73 50.3337C1290.95 59.3328 1287.06 70.3147 1287.06 83.2795C1287.06 96.5493 1291.03 108.065 1298.96 117.827C1307.04 127.588 1318.48 132.469 1333.28 132.469C1348.84 132.469 1363.33 125.758 1376.75 112.336L1397.34 141.621C1379.65 159.924 1357.68 169.076 1331.45 169.076C1305.52 169.076 1284.7 161.144 1268.99 145.281C1253.43 129.266 1245.65 108.904 1245.65 84.1946Z" fill="#EDEEEA"/>
<path d="M1402.65 177.083C1406.92 179.981 1410.96 181.43 1414.77 181.43C1424.23 181.43 1430.56 177.465 1433.76 169.533L1436.05 164.042L1385.95 48.5034H1430.79L1448.18 102.727L1452.52 121.03H1452.98C1454.51 113.556 1455.8 107.684 1456.87 103.413L1471.74 48.5034H1514.98L1466.71 178.914C1462.13 191.116 1455.35 200.038 1446.35 205.682C1437.5 211.478 1427.89 214.376 1417.52 214.376C1412.94 214.376 1408.37 213.69 1403.79 212.317C1399.22 210.944 1395.78 209.571 1393.5 208.199L1390.06 206.14L1402.65 177.083Z" fill="#EDEEEA"/>
<path d="M1520.6 166.33V48.5034H1558.58V68.4081L1558.12 75.7294H1558.58C1561.17 67.493 1565.9 60.553 1572.76 54.9095C1579.78 49.2661 1587.56 46.4443 1596.1 46.4443C1597.32 46.4443 1598.84 46.5968 1600.68 46.9019V85.7961C1599.3 85.3386 1596.63 85.1098 1592.67 85.1098C1581.99 85.1098 1573.91 88.2366 1568.42 94.4902C1562.93 100.744 1560.18 109.438 1560.18 120.572V166.33H1520.6Z" fill="#EDEEEA"/>
<path d="M1608.63 122.86V2.74548H1648.21V117.598C1648.21 123.394 1648.9 127.36 1650.27 129.495C1651.8 131.63 1654.77 132.698 1659.2 132.698C1661.18 132.698 1662.78 132.622 1664 132.469V166.788C1658.51 167.245 1654.54 167.474 1652.1 167.474C1646 167.474 1640.66 167.017 1636.09 166.101C1631.66 165.034 1627.16 163.051 1622.59 160.153C1618.17 157.255 1614.73 152.679 1612.29 146.425C1609.85 140.172 1608.63 132.317 1608.63 122.86Z" fill="#EDEEEA"/>
</svg>
