<svg width="1664" height="184" viewBox="0 0 1664 184" fill="none" xmlns="http://www.w3.org/2000/svg">
<path d="M72.7369 183.808C60.1226 183.808 48.1636 179.467 36.8599 170.784C25.72 162.102 16.7917 150.716 10.075 136.627C3.35835 122.375 0 107.467 0 91.904C0 76.341 3.35835 61.5151 10.075 47.4264C16.7917 33.1739 25.72 21.7064 36.8599 13.0238C48.1636 4.34128 60.1226 0 72.7369 0C85.3512 0 97.2282 4.34128 108.368 13.0238C119.672 21.7064 128.682 33.1739 135.399 47.4264C142.115 61.5151 145.474 76.341 145.474 91.904C145.474 107.467 142.115 122.375 135.399 136.627C128.682 150.716 119.672 162.102 108.368 170.784C97.2282 179.467 85.3512 183.808 72.7369 183.808ZM72.7369 175.945C82.73 175.945 90.3477 172.341 95.59 165.132C100.996 157.76 103.699 145.638 103.699 128.764V55.0441C103.699 38.1705 100.996 26.1296 95.59 18.9214C90.3477 11.5494 82.73 7.86345 72.7369 7.86345C62.7438 7.86345 55.0441 11.5494 49.638 18.9214C44.3957 26.1296 41.7746 38.1705 41.7746 55.0441V128.764C41.7746 145.638 44.3957 157.76 49.638 165.132C55.0441 172.341 62.7438 175.945 72.7369 175.945Z" fill="#EDEEEA"/>
<path d="M154.299 173.487H168.06C169.534 173.487 170.517 173.242 171.009 172.75C171.664 172.095 171.992 171.03 171.992 169.556V14.2525C171.992 12.7781 171.664 11.7952 171.009 11.3037C170.517 10.6484 169.534 10.3208 168.06 10.3208H154.299V4.42319H200.497V169.556C200.497 171.03 200.742 172.095 201.234 172.75C201.889 173.242 202.954 173.487 204.428 173.487H218.19V179.385H154.299V173.487Z" fill="#EDEEEA"/>
<path d="M269.699 182.334C261.181 182.334 253.563 179.467 246.846 173.733C240.129 167.835 234.887 160.218 231.119 150.88C227.351 141.378 225.467 131.467 225.467 121.146C225.467 110.662 227.269 100.75 230.874 91.4126C234.478 82.0747 239.556 74.5389 246.109 68.8051C252.662 62.9076 260.198 59.9588 268.716 59.9588C273.959 59.9588 278.628 61.5151 282.723 64.6277C286.819 67.7403 290.177 71.9997 292.798 77.4058L294.273 76.9143V14.2525C294.273 12.7781 293.945 11.7952 293.29 11.3037C292.798 10.6484 291.815 10.3208 290.341 10.3208H276.58V4.42319H322.778V169.556C322.778 171.03 323.023 172.095 323.515 172.75C324.17 173.242 325.235 173.487 326.709 173.487H340.47V179.385H294.273V165.132H292.798C290.669 169.719 287.556 173.733 283.46 177.173C279.529 180.614 274.942 182.334 269.699 182.334ZM273.14 174.47C276.907 174.47 280.348 172.177 283.46 167.59C286.737 162.839 289.358 156.45 291.324 148.423C293.29 140.395 294.273 131.549 294.273 121.883C294.273 110.088 293.126 100.095 290.832 91.904C288.539 83.7129 285.754 77.6515 282.477 73.7198C279.201 69.7881 276.088 67.8222 273.14 67.8222C262.327 67.8222 256.921 85.5969 256.921 121.146C256.921 156.696 262.327 174.47 273.14 174.47Z" fill="#EDEEEA"/>
<path d="M480.381 183.808C473.172 183.808 466.701 182.743 460.968 180.614C455.234 178.648 450.483 176.108 446.715 172.996C442.947 170.211 440.244 168.327 438.606 167.344C436.968 166.197 435.411 165.624 433.937 165.624C430.497 165.624 428.367 168.409 427.548 173.979L426.319 181.842H418.702L417.227 104.191H425.091C427.384 116.641 431.234 128.354 436.64 139.33C442.21 150.306 448.845 159.153 456.544 165.87C464.408 172.586 472.845 175.945 481.855 175.945C494.797 175.945 503.643 173.078 508.394 167.344C513.145 161.61 515.52 155.139 515.52 147.931C515.52 143.672 513.964 139.904 510.851 136.627C507.903 133.187 503.561 129.583 497.828 125.815L445.241 91.904C437.541 86.9894 430.988 80.8461 425.582 73.4741C420.34 66.1021 417.719 57.3376 417.719 47.1807C417.719 31.29 422.306 19.4948 431.48 11.7952C440.818 3.93172 452.285 0 465.882 0C477.514 0 489.145 4.09554 500.776 12.2866C504.544 15.2354 507.493 16.7098 509.623 16.7098C512.572 16.7098 514.374 14.8259 515.029 11.058L516.503 4.42319H524.367L526.824 68.3137H518.961C515.848 57.01 511.507 46.7711 505.937 37.5971C500.367 28.4231 493.896 21.2149 486.524 15.9726C479.316 10.5665 471.78 7.86345 463.916 7.86345C455.234 7.86345 448.763 9.58357 444.504 13.0238C440.408 16.4641 438.36 21.6245 438.36 28.505C438.36 37.8428 445.65 47.2626 460.23 56.7643L513.063 90.9211C519.78 95.3443 525.104 101.406 529.036 109.105C533.131 116.805 535.179 124.832 535.179 133.187C535.179 141.706 533.131 149.815 529.036 157.515C524.94 165.214 518.797 171.521 510.606 176.436C502.415 181.351 492.34 183.808 480.381 183.808Z" fill="#EDEEEA"/>
<path d="M589.76 182.334C579.44 182.334 571.412 179.712 565.679 174.47C560.109 169.064 557.324 161.528 557.324 151.863V69.7881H542.58V62.9076C552.245 61.597 559.863 57.5834 565.433 50.8667C571.167 44.15 574.034 35.3855 574.034 24.5733V15.7269H585.829V62.9076H610.893V69.7881H585.829V153.583C585.829 158.989 586.566 163.33 588.04 166.607C589.515 169.883 592.545 171.521 597.132 171.521C604.013 171.521 608.6 166.853 610.893 157.515C613.187 148.013 614.334 137.446 614.334 125.815H621.214C621.214 135.153 620.559 143.754 619.248 151.617C618.102 159.481 616.218 165.542 613.597 169.801C608.354 178.156 600.409 182.334 589.76 182.334Z" fill="#EDEEEA"/>
<path d="M661.086 182.334C652.076 182.334 644.376 180.122 637.987 175.699C631.762 171.276 628.65 163.822 628.65 153.337C628.65 142.689 632.499 134.334 640.199 128.272C648.062 122.047 657.974 116.887 669.933 112.791L688.117 106.402V89.6924C688.117 81.3375 686.397 75.2761 682.956 71.5082C679.516 67.7403 675.093 65.8564 669.687 65.8564C665.1 65.8564 661.086 66.9212 657.646 69.0509C654.37 71.0167 652.731 73.8017 652.731 77.4058C652.731 78.3887 652.977 79.6174 653.469 81.0918C654.124 82.4024 655.189 83.5491 656.663 84.532C659.12 86.0064 660.841 87.5627 661.823 89.201C662.97 90.8392 663.544 92.9689 663.544 95.59C663.544 99.5217 662.069 102.634 659.12 104.928C656.335 107.058 653.223 108.122 649.783 108.122C645.523 108.122 641.837 106.73 638.725 103.945C635.776 100.996 634.301 96.8187 634.301 91.4126C634.301 85.1873 636.185 79.6993 639.953 74.9485C643.721 70.0338 648.554 66.3478 654.452 63.8905C660.349 61.2693 666.329 59.9588 672.39 59.9588C684.185 59.9588 694.506 63.1533 703.352 69.5423C712.199 75.7676 716.622 85.7607 716.622 99.5217V161.692C716.622 167.59 718.26 170.538 721.537 170.538C724.485 170.538 726.697 168.081 728.171 163.167C729.646 158.252 730.383 152.6 730.383 146.211H737.263C737.263 158.17 735.461 166.934 731.857 172.504C730.055 175.453 727.516 177.829 724.24 179.631C720.963 181.433 717.195 182.334 712.936 182.334C706.219 182.334 701.141 181.351 697.7 179.385C694.26 177.255 691.393 173.815 689.1 169.064H688.608C682.055 177.91 672.881 182.334 661.086 182.334ZM673.127 172.504C679.516 172.504 684.513 168.9 688.117 161.692V113.037L674.356 117.952C668.95 119.918 664.936 123.685 662.315 129.255C659.858 134.662 658.629 141.952 658.629 151.126C658.629 159.153 660.103 164.723 663.052 167.835C666.001 170.948 669.359 172.504 673.127 172.504Z" fill="#EDEEEA"/>
<path d="M742.132 173.487H751.47C752.944 173.487 753.927 173.242 754.419 172.75C755.074 172.095 755.402 171.03 755.402 169.556V72.7369C755.402 71.2625 755.074 70.2795 754.419 69.7881C753.927 69.1328 752.944 68.8051 751.47 68.8051H742.132V62.9076H783.907V84.7778L785.135 85.0235C788.412 77.3239 792.589 71.2625 797.668 66.8393C802.91 62.2523 808.889 59.9588 815.606 59.9588C819.702 59.9588 823.224 60.4502 826.173 61.4332C829.121 62.2523 831.906 63.5629 834.527 65.3649C838.623 68.3137 841.818 72.4092 844.111 77.6515C846.568 82.8938 847.797 88.2999 847.797 93.8699V169.556C847.797 171.03 848.043 172.095 848.534 172.75C849.19 173.242 850.254 173.487 851.729 173.487H861.067V179.385H807.497V173.487H815.36C816.835 173.487 817.818 173.242 818.309 172.75C818.964 172.095 819.292 171.03 819.292 169.556V86.7436C819.292 74.1294 815.524 67.8222 807.988 67.8222C804.548 67.8222 800.944 70.1157 797.176 74.7027C793.408 79.2897 790.214 85.3511 787.593 92.8869C785.135 100.423 783.907 108.45 783.907 116.969V169.556C783.907 171.03 784.152 172.095 784.644 172.75C785.299 173.242 786.364 173.487 787.838 173.487H795.702V179.385H742.132V173.487Z" fill="#EDEEEA"/>
<path d="M915.045 182.334C906.526 182.334 898.909 179.467 892.192 173.733C885.475 167.835 880.233 160.218 876.465 150.88C872.697 141.378 870.813 131.467 870.813 121.146C870.813 110.662 872.615 100.75 876.219 91.4126C879.824 82.0747 884.902 74.5389 891.455 68.8051C898.008 62.9076 905.544 59.9588 914.062 59.9588C919.305 59.9588 923.973 61.5151 928.069 64.6277C932.165 67.7403 935.523 71.9997 938.144 77.4058L939.618 76.9143V14.2525C939.618 12.7781 939.291 11.7952 938.635 11.3037C938.144 10.6484 937.161 10.3208 935.687 10.3208H921.926V4.42319H968.123V169.556C968.123 171.03 968.369 172.095 968.861 172.75C969.516 173.242 970.581 173.487 972.055 173.487H985.816V179.385H939.618V165.132H938.144C936.014 169.719 932.902 173.733 928.806 177.173C924.874 180.614 920.287 182.334 915.045 182.334ZM918.485 174.47C922.253 174.47 925.694 172.177 928.806 167.59C932.083 162.839 934.704 156.45 936.67 148.423C938.636 140.395 939.618 131.549 939.618 121.883C939.618 110.088 938.472 100.095 936.178 91.904C933.885 83.7129 931.1 77.6515 927.823 73.7198C924.547 69.7881 921.434 67.8222 918.485 67.8222C907.673 67.8222 902.267 85.5969 902.267 121.146C902.267 156.696 907.673 174.47 918.485 174.47Z" fill="#EDEEEA"/>
<path d="M1025.15 182.334C1016.14 182.334 1008.44 180.122 1002.06 175.699C995.83 171.276 992.718 163.822 992.718 153.337C992.718 142.689 996.568 134.334 1004.27 128.272C1012.13 122.047 1022.04 116.887 1034 112.791L1052.19 106.402V89.6924C1052.19 81.3375 1050.47 75.2761 1047.02 71.5082C1043.58 67.7403 1039.16 65.8564 1033.76 65.8564C1029.17 65.8564 1025.15 66.9212 1021.71 69.0509C1018.44 71.0167 1016.8 73.8017 1016.8 77.4058C1016.8 78.3887 1017.05 79.6174 1017.54 81.0918C1018.19 82.4024 1019.26 83.5491 1020.73 84.532C1023.19 86.0064 1024.91 87.5627 1025.89 89.201C1027.04 90.8392 1027.61 92.9689 1027.61 95.59C1027.61 99.5217 1026.14 102.634 1023.19 104.928C1020.4 107.058 1017.29 108.122 1013.85 108.122C1009.59 108.122 1005.91 106.73 1002.79 103.945C999.844 100.996 998.37 96.8187 998.37 91.4126C998.37 85.1873 1000.25 79.6993 1004.02 74.9485C1007.79 70.0338 1012.62 66.3478 1018.52 63.8905C1024.42 61.2693 1030.4 59.9588 1036.46 59.9588C1048.25 59.9588 1058.57 63.1533 1067.42 69.5423C1076.27 75.7676 1080.69 85.7607 1080.69 99.5217V161.692C1080.69 167.59 1082.33 170.538 1085.6 170.538C1088.55 170.538 1090.77 168.081 1092.24 163.167C1093.71 158.252 1094.45 152.6 1094.45 146.211H1101.33C1101.33 158.17 1099.53 166.934 1095.93 172.504C1094.12 175.453 1091.58 177.829 1088.31 179.631C1085.03 181.433 1081.26 182.334 1077 182.334C1070.29 182.334 1065.21 181.351 1061.77 179.385C1058.33 177.255 1055.46 173.815 1053.17 169.064H1052.68C1046.12 177.91 1036.95 182.334 1025.15 182.334ZM1037.2 172.504C1043.58 172.504 1048.58 168.9 1052.19 161.692V113.037L1038.42 117.952C1033.02 119.918 1029 123.685 1026.38 129.255C1023.93 134.662 1022.7 141.952 1022.7 151.126C1022.7 159.153 1024.17 164.723 1027.12 167.835C1030.07 170.948 1033.43 172.504 1037.2 172.504Z" fill="#EDEEEA"/>
<path d="M1106.2 173.487H1115.54C1117.01 173.487 1118 173.242 1118.49 172.75C1119.14 172.095 1119.47 171.03 1119.47 169.556V72.7369C1119.47 71.2625 1119.14 70.2795 1118.49 69.7881C1118 69.1328 1117.01 68.8051 1115.54 68.8051H1106.2V62.9076H1147.97V87.2351L1149.2 87.4808C1151.82 79.945 1155.51 73.4741 1160.26 68.068C1165.18 62.6618 1170.58 59.9588 1176.48 59.9588C1182.38 59.9588 1187.21 62.0885 1190.98 66.3478C1194.75 70.6072 1196.63 76.0133 1196.63 82.5662C1196.63 88.6276 1194.91 93.8699 1191.47 98.2931C1188.03 102.552 1183.77 104.682 1178.69 104.682C1174.27 104.682 1170.5 103.372 1167.39 100.75C1164.28 97.9654 1162.72 94.6071 1162.72 90.6754C1162.72 86.7436 1164.68 82.4843 1168.62 77.8973C1170.91 75.2761 1172.06 73.3922 1172.06 72.2454C1172.06 70.6072 1171.16 69.7881 1169.35 69.7881C1166.08 69.7881 1162.72 72.1635 1159.28 76.9143C1156 81.6652 1153.3 87.8904 1151.17 95.59C1149.04 103.29 1147.97 111.481 1147.97 120.163V169.556C1147.97 171.03 1148.22 172.095 1148.71 172.75C1149.37 173.242 1150.43 173.487 1151.91 173.487H1159.77V179.385H1106.2V173.487Z" fill="#EDEEEA"/>
<path d="M1245.19 182.334C1234.86 182.334 1226.84 179.712 1221.1 174.47C1215.53 169.064 1212.75 161.528 1212.75 151.863V69.7881H1198V62.9076C1207.67 61.597 1215.29 57.5834 1220.86 50.8667C1226.59 44.15 1229.46 35.3855 1229.46 24.5733V15.7269H1241.25V62.9076H1266.32V69.7881H1241.25V153.583C1241.25 158.989 1241.99 163.33 1243.47 166.607C1244.94 169.883 1247.97 171.521 1252.56 171.521C1259.44 171.521 1264.02 166.853 1266.32 157.515C1268.61 148.013 1269.76 137.446 1269.76 125.815H1276.64C1276.64 135.153 1275.98 143.754 1274.67 151.617C1273.53 159.481 1271.64 165.542 1269.02 169.801C1263.78 178.156 1255.83 182.334 1245.19 182.334Z" fill="#EDEEEA"/>
<path d="M1378.5 171.521H1398.16C1400.45 171.521 1402.01 171.112 1402.83 170.293C1403.65 169.31 1404.06 167.754 1404.06 165.624V20.6415C1404.06 18.0204 1403.24 15.9726 1401.6 14.4982C1399.96 13.0238 1397.75 12.2866 1394.97 12.2866C1387.27 12.2866 1380.22 16.546 1373.83 25.0647C1367.44 33.4196 1362.69 43.2489 1359.58 54.5527C1357.78 60.6141 1356.47 65.7744 1355.65 70.0338C1354.99 74.1294 1354.58 76.6686 1354.42 77.6515H1346.56L1348.52 4.42319H1495.96L1497.93 77.6515H1490.07C1489.9 76.6686 1489.41 74.1294 1488.59 70.0338C1487.94 65.7744 1486.71 60.6141 1484.91 54.5527C1481.79 43.2489 1477.04 33.4196 1470.65 25.0647C1464.26 16.546 1457.22 12.2866 1449.52 12.2866C1446.73 12.2866 1444.52 13.0238 1442.88 14.4982C1441.25 15.9726 1440.43 18.0204 1440.43 20.6415V165.624C1440.43 167.754 1440.84 169.31 1441.66 170.293C1442.64 171.112 1444.2 171.521 1446.33 171.521H1465.98V179.385H1378.5V171.521Z" fill="#EDEEEA"/>
<path d="M1544.57 171.521H1564.23C1566.53 171.521 1568.08 171.112 1568.9 170.293C1569.72 169.31 1570.13 167.754 1570.13 165.624V20.6415C1570.13 18.0204 1569.31 15.9726 1567.67 14.4982C1566.03 13.0238 1563.82 12.2866 1561.04 12.2866C1553.34 12.2866 1546.29 16.546 1539.91 25.0647C1533.52 33.4196 1528.77 43.2489 1525.65 54.5527C1523.85 60.6141 1522.54 65.7744 1521.72 70.0338C1521.07 74.1294 1520.66 76.6686 1520.49 77.6515H1512.63L1514.59 4.42319H1662.03L1664 77.6515H1656.14C1655.97 76.6686 1655.48 74.1294 1654.66 70.0338C1654.01 65.7744 1652.78 60.6141 1650.98 54.5527C1647.86 43.2489 1643.11 33.4196 1636.72 25.0647C1630.33 16.546 1623.29 12.2866 1615.59 12.2866C1612.81 12.2866 1610.59 13.0238 1608.96 14.4982C1607.32 15.9726 1606.5 18.0204 1606.5 20.6415V165.624C1606.5 167.754 1606.91 169.31 1607.73 170.293C1608.71 171.112 1610.27 171.521 1612.4 171.521H1632.05V179.385H1544.57V171.521Z" fill="#EDEEEA"/>
</svg>
