<svg width="1664" height="333" viewBox="0 0 1664 333" fill="none" xmlns="http://www.w3.org/2000/svg">
<path d="M234.166 126.504C234.166 145.457 231.811 162.728 227.101 178.316C222.391 193.793 215.213 207.138 205.568 218.353C196.036 229.568 183.924 238.204 169.232 244.26C154.541 250.203 137.158 253.175 117.083 253.175C97.0085 253.175 79.6255 250.203 64.934 244.26C50.2426 238.204 38.0744 229.568 28.4297 218.353C18.897 207.138 11.7756 193.737 7.06536 178.148C2.35512 162.559 0 145.232 0 126.167C0 100.709 4.1495 78.5601 12.4485 59.7191C20.8596 40.766 33.7567 26.0745 51.1398 15.6447C68.5228 5.21491 90.6161 0 117.42 0C144.111 0 166.036 5.21491 183.195 15.6447C200.466 26.0745 213.251 40.766 221.55 59.7191C229.961 78.6722 234.166 100.934 234.166 126.504ZM54.6724 126.504C54.6724 143.662 56.8033 158.466 61.0649 170.914C65.4387 183.251 72.2237 192.783 81.4199 199.512C90.6161 206.129 102.504 209.437 117.083 209.437C131.887 209.437 143.887 206.129 153.083 199.512C162.279 192.783 168.952 183.251 173.101 170.914C177.363 158.466 179.494 143.662 179.494 126.504C179.494 100.709 174.671 80.4105 165.027 65.6069C155.382 50.8033 139.513 43.4015 117.42 43.4015C102.728 43.4015 90.7282 46.766 81.4199 53.4949C72.2237 60.1116 65.4387 69.6443 61.0649 82.0928C56.8033 94.4291 54.6724 109.233 54.6724 126.504Z" fill="#EDEEEA"/>
<path d="M371.954 58.2051C393.15 58.2051 410.253 66.448 423.262 82.9339C436.384 99.4197 442.944 123.588 442.944 155.438C442.944 176.746 439.86 194.69 433.692 209.269C427.524 223.736 419.001 234.671 408.122 242.073C397.244 249.474 384.739 253.175 370.608 253.175C361.524 253.175 353.73 252.054 347.225 249.811C340.721 247.456 335.169 244.484 330.571 240.895C325.973 237.194 321.992 233.269 318.628 229.12H315.936C316.833 233.605 317.506 238.204 317.955 242.914C318.403 247.624 318.628 252.222 318.628 256.708V332.577H267.32V61.7378H309.039L316.272 86.1301H318.628C321.992 81.0834 326.085 76.4293 330.908 72.1676C335.73 67.906 341.506 64.5415 348.235 62.0742C355.076 59.4948 362.982 58.2051 371.954 58.2051ZM355.468 99.2515C346.496 99.2515 339.375 101.102 334.104 104.803C328.833 108.504 324.964 114.055 322.497 121.457C320.142 128.859 318.852 138.223 318.628 149.55V155.101C318.628 167.214 319.749 177.475 321.992 185.886C324.347 194.297 328.216 200.69 333.599 205.064C339.095 209.437 346.609 211.624 356.141 211.624C363.992 211.624 370.44 209.437 375.487 205.064C380.534 200.69 384.291 194.297 386.758 185.886C389.337 177.363 390.627 166.989 390.627 154.765C390.627 136.373 387.767 122.522 382.048 113.214C376.328 103.906 367.468 99.2515 355.468 99.2515Z" fill="#EDEEEA"/>
<path d="M549.106 58.2051C566.489 58.2051 581.461 61.5696 594.022 68.2985C606.583 74.9152 616.283 84.56 623.124 97.2328C629.965 109.906 633.386 125.382 633.386 143.662V168.559H512.097C512.658 183.026 516.976 194.41 525.05 202.709C533.237 210.895 544.564 214.989 559.032 214.989C571.031 214.989 582.022 213.755 592.003 211.288C601.984 208.821 612.246 205.12 622.788 200.185V239.886C613.48 244.484 603.723 247.848 593.517 249.979C583.424 252.11 571.144 253.175 556.676 253.175C537.835 253.175 521.125 249.699 506.546 242.746C492.079 235.792 480.696 225.194 472.397 210.951C464.21 196.709 460.116 178.765 460.116 157.12C460.116 135.139 463.817 116.859 471.219 102.279C478.733 87.588 489.163 76.5975 502.509 69.3078C515.854 61.906 531.387 58.2051 549.106 58.2051ZM549.443 94.7095C539.462 94.7095 531.163 97.9057 524.546 104.298C518.041 110.691 514.284 120.728 513.275 134.41H585.274C585.162 126.784 583.76 119.999 581.069 114.055C578.489 108.111 574.564 103.401 569.293 99.9244C564.134 96.4478 557.517 94.7095 549.443 94.7095Z" fill="#EDEEEA"/>
<path d="M768.146 58.2051C788.221 58.2051 804.37 63.7004 816.594 74.6909C828.818 85.5694 834.93 103.065 834.93 127.176V249.811H783.622V139.961C783.622 126.504 781.155 116.354 776.221 109.513C771.398 102.672 763.772 99.2515 753.342 99.2515C737.642 99.2515 726.931 104.579 721.212 115.233C715.492 125.887 712.632 141.251 712.632 161.326V249.811H661.324V61.7378H700.52L707.418 85.7937H710.277C714.315 79.289 719.305 74.0181 725.249 69.9807C731.305 65.9434 737.978 62.9714 745.268 61.0649C752.669 59.1584 760.296 58.2051 768.146 58.2051Z" fill="#EDEEEA"/>
<path d="M1098.9 181.512C1098.9 196.092 1095.37 208.765 1088.3 219.531C1081.24 230.297 1070.92 238.596 1057.35 244.428C1043.89 250.26 1027.52 253.175 1008.23 253.175C999.704 253.175 991.349 252.615 983.162 251.493C975.087 250.372 967.293 248.746 959.779 246.615C952.377 244.372 945.312 241.624 938.583 238.372V189.924C950.246 195.082 962.358 199.737 974.919 203.886C987.48 208.036 999.928 210.11 1012.26 210.11C1020.79 210.11 1027.63 208.989 1032.79 206.746C1038.06 204.503 1041.87 201.419 1044.23 197.494C1046.58 193.568 1047.76 189.082 1047.76 184.036C1047.76 177.868 1045.68 172.597 1041.54 168.223C1037.39 163.849 1031.67 159.756 1024.38 155.943C1017.2 152.13 1009.07 148.036 999.984 143.662C994.264 140.971 988.04 137.718 981.311 133.905C974.582 129.98 968.19 125.214 962.134 119.606C956.078 113.999 951.087 107.214 947.162 99.2515C943.349 91.1768 941.443 81.532 941.443 70.3172C941.443 55.6257 944.807 43.0651 951.536 32.6352C958.265 22.2054 967.854 14.2429 980.302 8.74759C992.863 3.14016 1007.67 0.336446 1024.71 0.336446C1037.5 0.336446 1049.67 1.85045 1061.22 4.87846C1072.88 7.79433 1085.05 12.056 1097.72 17.6634L1080.9 58.2051C1069.57 53.607 1059.42 50.0743 1050.45 47.6071C1041.48 45.0277 1032.34 43.7379 1023.03 43.7379C1016.53 43.7379 1010.97 44.8034 1006.38 46.9342C1001.78 48.9529 998.302 51.8687 995.947 55.6818C993.592 59.3827 992.414 63.7004 992.414 68.6349C992.414 74.4667 994.096 79.4012 997.461 83.4385C1000.94 87.3637 1006.1 91.1768 1012.94 94.8777C1019.89 98.5786 1028.53 102.896 1038.84 107.831C1051.4 113.775 1062.11 119.999 1070.97 126.504C1079.95 132.896 1086.84 140.466 1091.67 149.214C1096.49 157.849 1098.9 168.615 1098.9 181.512Z" fill="#EDEEEA"/>
<path d="M1202.71 57.8687C1227.94 57.8687 1247.29 63.3639 1260.74 74.3545C1274.2 85.3451 1280.93 102.055 1280.93 124.485V249.811H1245.1L1235.17 224.241H1233.83C1228.44 230.97 1222.95 236.465 1217.34 240.727C1211.73 244.989 1205.29 248.129 1198 250.147C1190.71 252.166 1181.85 253.175 1171.42 253.175C1160.31 253.175 1150.33 251.045 1141.47 246.783C1132.73 242.521 1125.83 236.017 1120.78 227.269C1115.73 218.409 1113.21 207.194 1113.21 193.625C1113.21 173.662 1120.22 158.971 1134.24 149.55C1148.26 140.017 1169.29 134.747 1197.32 133.737L1229.96 132.728V124.485C1229.96 114.616 1227.38 107.382 1222.22 102.784C1217.06 98.1861 1209.88 95.887 1200.69 95.887C1191.6 95.887 1182.69 97.1767 1173.94 99.7562C1165.19 102.336 1156.44 105.588 1147.7 109.513L1130.71 74.8592C1140.69 69.5882 1151.85 65.4387 1164.18 62.4107C1176.63 59.3827 1189.47 57.8687 1202.71 57.8687ZM1229.96 162.672L1210.11 163.344C1193.51 163.793 1181.96 166.765 1175.45 172.26C1169.06 177.755 1165.87 184.989 1165.87 193.961C1165.87 201.811 1168.16 207.419 1172.76 210.783C1177.36 214.036 1183.36 215.662 1190.76 215.662C1201.75 215.662 1211.01 212.409 1218.52 205.905C1226.15 199.4 1229.96 190.148 1229.96 178.148V162.672Z" fill="#EDEEEA"/>
<path d="M1426.96 58.2051C1447.04 58.2051 1463.18 63.7004 1475.41 74.6909C1487.63 85.5694 1493.75 103.065 1493.75 127.176V249.811H1442.44V139.961C1442.44 126.504 1439.97 116.354 1435.04 109.513C1430.21 102.672 1422.59 99.2515 1412.16 99.2515C1396.46 99.2515 1385.75 104.579 1380.03 115.233C1374.31 125.887 1371.45 141.251 1371.45 161.326V249.811H1320.14V61.7378H1359.34L1366.23 85.7937H1369.09C1373.13 79.289 1378.12 74.0181 1384.06 69.9807C1390.12 65.9434 1396.79 62.9714 1404.08 61.0649C1411.48 59.1584 1419.11 58.2051 1426.96 58.2051Z" fill="#EDEEEA"/>
<path d="M1664 193.961C1664 206.746 1660.97 217.568 1654.92 226.428C1648.97 235.176 1640.06 241.848 1628.17 246.446C1616.28 250.932 1601.48 253.175 1583.76 253.175C1570.64 253.175 1559.37 252.334 1549.94 250.652C1540.64 248.97 1531.22 246.166 1521.68 242.241V199.849C1531.89 204.447 1542.82 208.26 1554.49 211.288C1566.26 214.204 1576.58 215.662 1585.44 215.662C1595.42 215.662 1602.54 214.204 1606.8 211.288C1611.18 208.26 1613.36 204.335 1613.36 199.512C1613.36 196.372 1612.47 193.568 1610.67 191.101C1608.99 188.522 1605.29 185.662 1599.57 182.522C1593.85 179.269 1584.88 175.064 1572.66 169.905C1560.88 164.971 1551.18 159.98 1543.55 154.933C1536.04 149.887 1530.43 143.943 1526.73 137.102C1523.14 130.148 1521.35 121.345 1521.35 110.691C1521.35 93.3076 1528.08 80.2423 1541.53 71.4947C1555.1 62.635 1573.22 58.2051 1595.87 58.2051C1607.53 58.2051 1618.64 59.3827 1629.18 61.7378C1639.83 64.0929 1650.77 67.8499 1661.98 73.0087L1646.5 110.018C1637.2 105.98 1628.39 102.672 1620.09 100.093C1611.91 97.5132 1603.55 96.2235 1595.03 96.2235C1587.51 96.2235 1581.85 97.2328 1578.04 99.2515C1574.23 101.27 1572.32 104.354 1572.32 108.504C1572.32 111.532 1573.27 114.223 1575.18 116.578C1577.2 118.934 1581.01 121.569 1586.62 124.485C1592.34 127.289 1600.69 130.933 1611.68 135.419C1622.34 139.793 1631.59 144.391 1639.44 149.214C1647.29 153.924 1653.35 159.812 1657.61 166.877C1661.87 173.83 1664 182.858 1664 193.961Z" fill="#EDEEEA"/>
</svg>
