<svg width="1664" height="243" viewBox="0 0 1664 243" fill="none" xmlns="http://www.w3.org/2000/svg">
<path d="M0 18.7106C4.15791 18.8769 9.72951 19.0432 16.7148 19.2096C23.8664 19.3759 30.9349 19.459 37.9202 19.459C45.9033 19.459 53.6371 19.3759 61.1213 19.2096C68.6055 19.0432 73.9277 18.9601 77.0877 18.9601C100.206 18.9601 117.503 23.5338 128.978 32.6812C140.454 41.8286 146.192 53.6371 146.192 68.1066C146.192 74.094 145.028 80.414 142.7 87.0667C140.371 93.553 136.38 99.6236 130.725 105.278C125.236 110.767 117.669 115.257 108.023 118.75C98.3762 122.243 86.2351 123.989 71.5992 123.989H46.1528V118.999H69.1045C78.9172 118.999 86.3182 116.754 91.3077 112.264C96.4636 107.773 99.9562 101.869 101.786 94.5509C103.781 87.233 104.779 79.333 104.779 70.8508C104.779 55.0507 102.451 43.2423 97.7941 35.4254C93.1372 27.6085 85.154 23.7001 73.8445 23.7001C67.3582 23.7001 63.1171 25.1138 61.1213 27.9412C59.2918 30.7686 58.3771 36.5065 58.3771 45.1549V167.398C58.3771 173.884 59.0423 178.707 60.3729 181.867C61.7034 185.027 64.2813 187.106 68.1066 188.104C71.9319 189.102 77.5866 189.684 85.0709 189.85V195.339C79.9151 195.172 73.2624 195.006 65.1129 194.84C56.9634 194.673 48.3981 194.59 39.417 194.59C32.2654 194.59 25.2801 194.673 18.4611 194.84C11.6422 195.006 5.48844 195.172 0 195.339V190.349C5.32213 190.017 9.31372 189.351 11.9748 188.353C14.6358 187.355 16.3822 185.36 17.2138 182.366C18.2117 179.372 18.7106 174.882 18.7106 168.894V45.1549C18.7106 39.0012 18.2117 34.5107 17.2138 31.6833C16.3822 28.6896 14.5527 26.6938 11.7253 25.6959C9.06425 24.5317 5.15581 23.8664 0 23.7001V18.7106Z" fill="#EDEEEA"/>
<path d="M195.803 0V172.138C195.803 179.123 196.967 183.863 199.295 186.358C201.79 188.852 205.948 190.1 211.769 190.1V195.339C208.609 195.172 203.869 195.006 197.549 194.84C191.229 194.507 184.826 194.341 178.339 194.341C171.853 194.341 165.283 194.507 158.631 194.84C152.144 195.006 147.238 195.172 143.912 195.339V190.1C149.733 190.1 153.808 188.852 156.136 186.358C158.631 183.863 159.878 179.123 159.878 172.138V29.937C159.878 22.4527 158.714 16.9643 156.386 13.4716C154.223 9.81267 150.066 7.98319 143.912 7.98319V2.74423C149.234 3.24317 154.39 3.49264 159.379 3.49264C166.198 3.49264 172.685 3.24317 178.838 2.74423C184.992 2.07896 190.647 1.16422 195.803 0Z" fill="#EDEEEA"/>
<path d="M246.832 197.085C239.348 197.085 233.111 195.671 228.121 192.844C223.132 190.017 219.473 186.274 217.144 181.618C214.816 176.794 213.652 171.555 213.652 165.901C213.652 158.749 215.232 152.928 218.392 148.437C221.718 143.947 225.959 140.288 231.115 137.461C236.271 134.633 241.676 132.305 247.331 130.475C253.152 128.646 258.64 126.899 263.796 125.236C269.118 123.407 273.359 121.328 276.519 118.999C279.846 116.505 281.509 113.345 281.509 109.519V90.0604C281.509 85.7361 280.76 81.9109 279.264 78.5845C277.933 75.0919 275.771 72.4308 272.777 70.6013C269.95 68.7719 266.208 67.8571 261.551 67.8571C258.224 67.8571 254.898 68.3561 251.572 69.354C248.246 70.1856 245.501 71.6824 243.339 73.8445C247.996 75.5077 251.572 78.0856 254.067 81.5782C256.728 84.9046 258.058 88.7298 258.058 93.0541C258.058 98.7088 256.062 103.199 252.071 106.526C248.246 109.852 243.672 111.515 238.35 111.515C232.362 111.515 227.789 109.686 224.629 106.027C221.635 102.201 220.138 97.6278 220.138 92.3056C220.138 87.4825 221.302 83.4909 223.631 80.3308C226.125 77.1708 229.535 74.1771 233.859 71.3498C238.516 68.6887 244.088 66.6098 250.574 65.1129C257.227 63.6161 264.378 62.8676 272.029 62.8676C279.679 62.8676 286.581 63.6992 292.735 65.3624C298.889 66.8592 304.045 69.6866 308.203 73.8445C312.028 77.6698 314.523 82.4098 315.687 88.0646C316.851 93.553 317.433 100.538 317.433 109.02V176.878C317.433 181.035 317.849 183.946 318.681 185.609C319.512 187.106 320.926 187.854 322.922 187.854C324.418 187.854 325.832 187.439 327.163 186.607C328.66 185.776 330.24 184.778 331.903 183.613L334.397 187.854C330.905 190.848 326.83 193.177 322.173 194.84C317.683 196.337 312.61 197.085 306.955 197.085C300.801 197.085 295.895 196.253 292.236 194.59C288.577 192.761 285.916 190.349 284.253 187.356C282.756 184.362 282.008 180.869 282.008 176.878C278.016 183.198 273.193 188.187 267.538 191.846C261.883 195.339 254.981 197.085 246.832 197.085ZM264.545 181.119C267.871 181.119 270.865 180.37 273.526 178.873C276.353 177.21 279.014 174.549 281.509 170.89V119.748C280.012 122.243 277.933 124.488 275.272 126.484C272.611 128.479 269.783 130.558 266.79 132.721C263.796 134.716 260.886 136.962 258.058 139.456C255.397 141.951 253.235 145.028 251.572 148.687C249.909 152.346 249.077 156.753 249.077 161.909C249.077 168.395 250.491 173.219 253.318 176.379C256.146 179.539 259.888 181.119 264.545 181.119Z" fill="#EDEEEA"/>
<path d="M451.348 66.3603V71.3498C448.188 72.1814 445.195 74.1771 442.367 77.3372C439.54 80.3309 436.796 85.4867 434.135 92.8046L398.959 191.597L389.728 209.06L335.343 85.5698C332.515 79.0835 329.688 75.175 326.861 73.8445C324.2 72.3477 321.871 71.5992 319.875 71.5992V66.3603C325.364 66.8592 331.018 67.275 336.84 67.6076C342.827 67.774 348.565 67.8571 354.053 67.8571C360.872 67.8571 367.109 67.6908 372.764 67.3582C378.419 67.0255 383.741 66.6929 388.73 66.3603V71.5992C385.404 71.5992 382.244 71.8487 379.25 72.3477C376.423 72.6803 374.427 73.8445 373.263 75.8403C372.265 77.6698 372.764 80.913 374.76 85.5698L406.194 161.41L403.948 162.907L422.409 111.266C425.569 102.285 426.9 94.9667 426.401 89.3119C425.902 83.4909 424.073 79.1666 420.913 76.3393C417.753 73.3456 413.428 71.6824 407.94 71.3498V66.3603C410.601 66.5266 413.345 66.6929 416.173 66.8592C419 66.8592 421.827 66.9424 424.655 67.1087C427.482 67.1087 429.977 67.1087 432.139 67.1087C435.465 67.1087 438.958 67.0255 442.617 66.8592C446.276 66.6929 449.186 66.5266 451.348 66.3603ZM398.959 191.597L389.479 218.29C387.816 222.448 386.069 225.941 384.24 228.768C382.577 231.762 380.664 234.174 378.502 236.003C376.173 237.999 373.18 239.496 369.521 240.494C365.862 241.658 361.621 242.24 356.798 242.24C352.806 242.24 348.648 241.575 344.324 240.244C340.166 238.914 336.673 236.751 333.846 233.758C331.018 230.764 329.605 226.939 329.605 222.282C329.605 217.126 331.434 212.968 335.093 209.808C338.752 206.815 343.575 205.318 349.563 205.318C355.051 205.318 359.542 206.648 363.034 209.309C366.527 211.97 368.273 215.879 368.273 221.035C368.273 224.361 367.192 227.521 365.03 230.515C363.034 233.508 359.958 235.754 355.8 237.25C356.631 237.417 357.629 237.5 358.793 237.5C359.958 237.5 360.872 237.5 361.538 237.5C366.527 237.5 370.934 235.92 374.76 232.76C378.585 229.6 381.745 224.61 384.24 217.791L392.971 192.096L398.959 191.597Z" fill="#EDEEEA"/>
<path d="M511.193 0.249472C517.014 0.249472 522.087 0.997893 526.411 2.49474C530.735 3.99159 534.561 5.98739 537.887 8.48215C540.215 10.3116 542.211 12.8895 543.874 16.2159C545.537 19.3759 546.369 23.0348 546.369 27.1927C546.369 31.6833 544.706 35.6749 541.38 39.1675C538.22 42.6602 533.978 44.4065 528.656 44.4065C523.168 44.4065 518.594 42.8265 514.935 39.6665C511.443 36.5065 509.696 32.1822 509.696 26.6938C509.696 22.3696 510.944 18.5443 513.438 15.2179C515.933 11.8916 519.592 9.5632 524.415 8.23266C523.916 7.23477 522.918 6.40318 521.422 5.73791C519.925 5.07265 517.929 4.74002 515.434 4.74002C512.108 4.74002 509.364 5.32212 507.202 6.48634C505.039 7.65055 503.293 9.23056 501.963 11.2264C500.133 13.7211 498.886 17.3801 498.22 22.2033C497.555 26.8601 497.223 34.0949 497.223 43.9075V66.6097H523.916V71.5992H497.223V169.643C497.223 177.792 499.301 183.281 503.459 186.108C507.617 188.769 513.355 190.1 520.673 190.1V195.339C516.349 195.172 510.278 195.006 502.462 194.84C494.645 194.507 486.412 194.341 477.764 194.341C471.443 194.341 465.207 194.507 459.053 194.84C453.066 195.006 448.492 195.172 445.332 195.339V190.1C451.153 190.1 455.228 188.852 457.556 186.358C460.051 183.863 461.298 179.123 461.298 172.138V71.5992H444.334V66.6097H461.298C461.298 56.7971 461.797 48.6476 462.795 42.1612C463.793 35.5086 465.456 29.8538 467.785 25.1969C470.113 20.5401 473.19 16.3822 477.015 12.7232C480.674 9.23057 485.497 6.32003 491.485 3.9916C497.638 1.49685 504.208 0.249472 511.193 0.249472Z" fill="#EDEEEA"/>
<path d="M557.486 197.085C550.002 197.085 543.765 195.671 538.776 192.844C533.786 190.017 530.127 186.274 527.799 181.618C525.47 176.794 524.306 171.555 524.306 165.901C524.306 158.749 525.886 152.928 529.046 148.437C532.372 143.947 536.614 140.288 541.769 137.461C546.925 134.633 552.33 132.305 557.985 130.475C563.806 128.646 569.295 126.899 574.451 125.236C579.773 123.407 584.014 121.328 587.174 118.999C590.5 116.505 592.163 113.345 592.163 109.519V90.0604C592.163 85.7361 591.415 81.9109 589.918 78.5845C588.587 75.0919 586.425 72.4308 583.432 70.6013C580.604 68.7719 576.862 67.8571 572.205 67.8571C568.879 67.8571 565.553 68.3561 562.226 69.354C558.9 70.1856 556.156 71.6824 553.994 73.8445C558.65 75.5077 562.226 78.0856 564.721 81.5782C567.382 84.9046 568.713 88.7298 568.713 93.0541C568.713 98.7088 566.717 103.199 562.725 106.526C558.9 109.852 554.326 111.515 549.004 111.515C543.017 111.515 538.443 109.686 535.283 106.027C532.289 102.201 530.793 97.6278 530.793 92.3056C530.793 87.4825 531.957 83.4909 534.285 80.3308C536.78 77.1708 540.189 74.1771 544.514 71.3498C549.17 68.6887 554.742 66.6098 561.228 65.1129C567.881 63.6161 575.033 62.8676 582.683 62.8676C590.334 62.8676 597.236 63.6992 603.39 65.3624C609.543 66.8592 614.699 69.6866 618.857 73.8445C622.682 77.6698 625.177 82.4098 626.341 88.0646C627.506 93.553 628.088 100.538 628.088 109.02V176.878C628.088 181.035 628.503 183.946 629.335 185.609C630.167 187.106 631.58 187.854 633.576 187.854C635.073 187.854 636.487 187.439 637.817 186.607C639.314 185.776 640.894 184.778 642.557 183.613L645.052 187.854C641.559 190.848 637.485 193.177 632.828 194.84C628.337 196.337 623.264 197.085 617.61 197.085C611.456 197.085 606.55 196.253 602.891 194.59C599.232 192.761 596.571 190.349 594.908 187.356C593.411 184.362 592.662 180.869 592.662 176.878C588.671 183.198 583.847 188.187 578.193 191.846C572.538 195.339 565.636 197.085 557.486 197.085ZM575.199 181.119C578.525 181.119 581.519 180.37 584.18 178.873C587.007 177.21 589.669 174.549 592.163 170.89V119.748C590.666 122.243 588.587 124.488 585.926 126.484C583.265 128.479 580.438 130.558 577.444 132.721C574.451 134.716 571.54 136.962 568.713 139.456C566.052 141.951 563.889 145.028 562.226 148.687C560.563 152.346 559.732 156.753 559.732 161.909C559.732 168.395 561.145 173.219 563.973 176.379C566.8 179.539 570.542 181.119 575.199 181.119Z" fill="#EDEEEA"/>
<path d="M674.634 1.9958C681.619 1.9958 687.108 3.74212 691.099 7.23477C695.257 10.5611 697.336 15.218 697.336 21.2054C697.336 27.1927 695.257 31.9328 691.099 35.4254C687.108 38.7517 681.619 40.4149 674.634 40.4149C667.649 40.4149 662.077 38.7517 657.919 35.4254C653.928 31.9328 651.932 27.1927 651.932 21.2054C651.932 15.218 653.928 10.5611 657.919 7.23477C662.077 3.74212 667.649 1.9958 674.634 1.9958ZM694.093 63.6161V172.138C694.093 179.123 695.257 183.863 697.586 186.358C700.081 188.852 704.238 190.1 710.06 190.1V195.339C707.066 195.172 702.409 195.006 696.089 194.84C689.769 194.507 683.366 194.341 676.879 194.341C670.393 194.341 663.824 194.507 657.171 194.84C650.518 195.006 645.529 195.172 642.202 195.339V190.1C648.024 190.1 652.098 188.852 654.427 186.358C656.921 183.863 658.169 179.123 658.169 172.138V93.553C658.169 86.0688 657.005 80.5803 654.676 77.0877C652.514 73.4287 648.356 71.5992 642.202 71.5992V66.3603C647.525 66.8592 652.68 67.1087 657.67 67.1087C664.655 67.1087 671.141 66.8592 677.129 66.3603C683.283 65.695 688.937 64.7803 694.093 63.6161Z" fill="#EDEEEA"/>
<path d="M796.734 62.8676C802.057 62.8676 806.381 64.0318 809.707 66.3603C813.033 68.5224 815.445 71.3498 816.942 74.8424C818.605 78.3351 819.437 81.994 819.437 85.8193C819.437 91.973 817.607 97.0457 813.948 101.037C810.456 104.863 805.799 106.775 799.978 106.775C794.157 106.775 789.583 105.361 786.257 102.534C783.097 99.5404 781.516 95.632 781.516 90.8088C781.516 86.1519 782.514 82.3266 784.51 79.3329C786.672 76.1729 789.333 73.5119 792.493 71.3498C790.165 70.6845 787.837 70.7677 785.508 71.5992C782.348 72.0982 779.354 73.4287 776.527 75.5908C773.7 77.5866 771.288 80.1645 769.292 83.3246C767.296 86.3183 765.716 89.6446 764.552 93.3035C763.388 96.7962 762.806 100.206 762.806 103.532V169.643C762.806 177.626 764.719 183.031 768.544 185.859C772.535 188.686 778.44 190.1 786.257 190.1V195.339C782.431 195.172 776.86 195.006 769.542 194.84C762.224 194.507 754.573 194.341 746.59 194.341C739.937 194.341 733.202 194.507 726.383 194.84C719.564 195.006 714.408 195.172 710.915 195.339V190.1C716.736 190.1 720.811 188.852 723.139 186.358C725.634 183.863 726.882 179.123 726.882 172.138V93.553C726.882 86.0688 725.717 80.5803 723.389 77.0877C721.227 73.4287 717.069 71.5992 710.915 71.5992V66.3603C716.237 66.8592 721.393 67.1087 726.383 67.1087C733.368 67.1087 739.854 66.8592 745.842 66.3603C751.995 65.695 757.65 64.7803 762.806 63.6161V86.8172C764.802 82.3267 767.463 78.2519 770.789 74.5929C774.115 70.934 777.941 68.1066 782.265 66.1108C786.589 63.9487 791.412 62.8676 796.734 62.8676Z" fill="#EDEEEA"/>
<path d="M939.861 18.7106C972.625 18.7106 996.991 26.1948 1012.96 41.1633C1028.92 55.9655 1036.91 77.254 1036.91 105.029C1036.91 123.157 1033 139.041 1025.18 152.679C1017.36 166.15 1005.97 176.628 991.003 184.112C976.201 191.597 958.405 195.339 937.616 195.339C934.954 195.339 931.462 195.256 927.138 195.089C922.813 194.923 918.323 194.84 913.666 194.84C909.009 194.673 904.851 194.59 901.192 194.59C893.874 194.59 886.64 194.673 879.488 194.84C872.503 194.84 866.931 195.006 862.773 195.339V190.349C868.095 190.017 872.087 189.351 874.748 188.353C877.409 187.355 879.155 185.36 879.987 182.366C880.985 179.372 881.484 174.882 881.484 168.894V45.1549C881.484 39.0012 880.985 34.5107 879.987 31.6833C879.155 28.6896 877.326 26.6938 874.498 25.6959C871.837 24.5317 867.929 23.8664 862.773 23.7001V18.7106C866.931 18.8769 872.503 19.1264 879.488 19.459C886.64 19.6253 893.708 19.6253 900.693 19.459C906.681 19.2927 913.417 19.1264 920.901 18.9601C928.551 18.7938 934.871 18.7106 939.861 18.7106ZM939.611 23.2011C931.961 23.2011 926.971 24.6148 924.643 27.4422C922.314 30.2696 921.15 36.0075 921.15 44.656V169.393C921.15 178.042 922.314 183.78 924.643 186.607C927.138 189.434 932.21 190.848 939.861 190.848C953.831 190.848 964.808 187.605 972.792 181.119C980.941 174.466 986.762 164.82 990.255 152.18C993.747 139.54 995.494 124.155 995.494 106.027C995.494 87.3993 993.581 72.015 989.756 59.8739C986.097 47.5665 980.193 38.4191 972.043 32.4317C963.894 26.278 953.083 23.2011 939.611 23.2011Z" fill="#EDEEEA"/>
<path d="M1076.42 1.9958C1083.4 1.9958 1088.89 3.74212 1092.88 7.23477C1097.04 10.5611 1099.12 15.218 1099.12 21.2054C1099.12 27.1927 1097.04 31.9328 1092.88 35.4254C1088.89 38.7517 1083.4 40.4149 1076.42 40.4149C1069.43 40.4149 1063.86 38.7517 1059.7 35.4254C1055.71 31.9328 1053.71 27.1927 1053.71 21.2054C1053.71 15.218 1055.71 10.5611 1059.7 7.23477C1063.86 3.74212 1069.43 1.9958 1076.42 1.9958ZM1095.87 63.6161V172.138C1095.87 179.123 1097.04 183.863 1099.37 186.358C1101.86 188.852 1106.02 190.1 1111.84 190.1V195.339C1108.85 195.172 1104.19 195.006 1097.87 194.84C1091.55 194.507 1085.15 194.341 1078.66 194.341C1072.17 194.341 1065.6 194.507 1058.95 194.84C1052.3 195.006 1047.31 195.172 1043.98 195.339V190.1C1049.8 190.1 1053.88 188.852 1056.21 186.358C1058.7 183.863 1059.95 179.123 1059.95 172.138V93.553C1059.95 86.0688 1058.79 80.5803 1056.46 77.0877C1054.3 73.4287 1050.14 71.5992 1043.98 71.5992V66.3603C1049.31 66.8592 1054.46 67.1087 1059.45 67.1087C1066.44 67.1087 1072.92 66.8592 1078.91 66.3603C1085.06 65.695 1090.72 64.7803 1095.87 63.6161Z" fill="#EDEEEA"/>
<path d="M1162.09 62.8676C1169.08 62.8676 1175.15 63.7824 1180.3 65.6118C1185.63 67.275 1189.45 68.9382 1191.78 70.6013C1197.43 74.4266 1200.93 71.9319 1202.26 63.1171H1207.5C1207.16 67.774 1206.91 73.5119 1206.75 80.3308C1206.58 86.9835 1206.5 95.8814 1206.5 107.025H1201.26C1200.43 100.871 1198.85 94.8004 1196.52 88.813C1194.19 82.8256 1190.78 77.9193 1186.29 74.094C1181.97 70.2687 1176.31 68.3561 1169.33 68.3561C1164.5 68.3561 1160.43 69.7698 1157.1 72.5971C1153.78 75.2582 1152.11 79.1666 1152.11 84.3224C1152.11 89.3119 1153.61 93.7193 1156.6 97.5446C1159.6 101.204 1163.42 104.779 1168.08 108.272C1172.9 111.598 1177.89 115.174 1183.05 118.999C1188.54 123.157 1193.53 127.315 1198.02 131.473C1202.51 135.465 1206.08 139.872 1208.74 144.695C1211.4 149.519 1212.74 155.256 1212.74 161.909C1212.74 169.393 1210.57 175.963 1206.25 181.618C1201.92 187.106 1196.19 191.347 1189.04 194.341C1182.05 197.335 1174.23 198.831 1165.58 198.831C1160.6 198.831 1156.1 198.332 1152.11 197.335C1148.29 196.337 1144.96 195.089 1142.13 193.592C1139.97 192.594 1137.89 191.68 1135.9 190.848C1134.07 189.85 1132.32 189.019 1130.66 188.353C1129 187.854 1127.5 188.437 1126.17 190.1C1125 191.763 1124.09 194.091 1123.42 197.085H1118.18C1118.52 191.763 1118.77 185.277 1118.93 177.626C1119.1 169.975 1119.18 159.83 1119.18 147.19H1124.42C1125.42 156.171 1127.25 164.154 1129.91 171.14C1132.57 177.959 1136.15 183.364 1140.64 187.356C1145.29 191.181 1151.12 193.093 1158.1 193.093C1160.93 193.093 1163.67 192.511 1166.33 191.347C1168.99 190.183 1171.16 188.27 1172.82 185.609C1174.65 182.948 1175.56 179.539 1175.56 175.381C1175.56 168.063 1173.15 161.992 1168.33 157.169C1163.67 152.346 1157.68 147.107 1150.37 141.452C1145.04 137.128 1139.97 132.887 1135.15 128.729C1130.49 124.405 1126.67 119.748 1123.67 114.758C1120.68 109.603 1119.18 103.781 1119.18 97.2951C1119.18 89.8109 1121.18 83.4909 1125.17 78.3351C1129.16 73.1793 1134.4 69.354 1140.89 66.8592C1147.54 64.1982 1154.61 62.8676 1162.09 62.8676Z" fill="#EDEEEA"/>
<path d="M1268.85 63.6161V215.796C1268.85 223.612 1270.84 228.768 1274.83 231.263C1278.82 233.924 1284.31 235.255 1291.3 235.255V240.494C1286.97 240.327 1280.99 240.078 1273.34 239.745C1265.85 239.579 1257.87 239.496 1249.39 239.496C1243.23 239.496 1237.16 239.579 1231.18 239.745C1225.35 240.078 1220.95 240.327 1217.95 240.494V235.255C1223.44 235.255 1227.27 234.09 1229.43 231.762C1231.76 229.434 1232.92 224.943 1232.92 218.29V93.553C1232.92 86.0688 1231.76 80.5803 1229.43 77.0877C1227.1 73.4287 1222.94 71.5992 1216.96 71.5992V66.3603C1222.28 66.8592 1227.43 67.1087 1232.42 67.1087C1239.24 67.1087 1245.73 66.8592 1251.88 66.3603C1258.04 65.695 1263.69 64.7803 1268.85 63.6161ZM1307.51 62.8676C1316 62.8676 1323.56 65.1961 1330.22 69.8529C1336.87 74.3435 1342.19 81.2456 1346.18 90.5593C1350.17 99.7067 1352.17 111.183 1352.17 124.987C1352.17 137.128 1350.76 147.772 1347.93 156.92C1345.27 166.067 1341.36 173.801 1336.2 180.121C1331.21 186.274 1325.14 190.931 1317.99 194.091C1311.01 197.251 1303.11 198.831 1294.29 198.831C1287.81 198.831 1281.9 197.667 1276.58 195.339C1271.26 193.177 1267.18 190.017 1264.36 185.859L1266.85 182.615C1268.51 185.609 1270.84 187.938 1273.84 189.601C1277 191.264 1280.57 192.096 1284.56 192.096C1292.05 192.096 1297.95 189.601 1302.28 184.611C1306.6 179.455 1309.68 172.304 1311.51 163.156C1313.5 153.843 1314.5 142.783 1314.5 129.976C1314.5 115.673 1313.58 104.447 1311.76 96.2972C1309.93 88.1477 1307.43 82.3267 1304.27 78.834C1301.11 75.3414 1297.29 73.595 1292.8 73.595C1286.81 73.595 1281.32 75.9235 1276.33 80.5803C1271.51 85.2372 1268.76 91.8898 1268.1 100.538L1266.85 91.8067C1269.84 82.3266 1274.92 75.175 1282.07 70.3519C1289.39 65.3624 1297.87 62.8676 1307.51 62.8676Z" fill="#EDEEEA"/>
<path d="M1408.45 0V172.138C1408.45 179.123 1409.62 183.863 1411.95 186.358C1414.44 188.852 1418.6 190.1 1424.42 190.1V195.339C1421.26 195.172 1416.52 195.006 1410.2 194.84C1403.88 194.507 1397.48 194.341 1390.99 194.341C1384.5 194.341 1377.94 194.507 1371.28 194.84C1364.8 195.006 1359.89 195.172 1356.56 195.339V190.1C1362.38 190.1 1366.46 188.852 1368.79 186.358C1371.28 183.863 1372.53 179.123 1372.53 172.138V29.937C1372.53 22.4527 1371.37 16.9643 1369.04 13.4716C1366.88 9.81267 1362.72 7.98319 1356.56 7.98319V2.74423C1361.89 3.24317 1367.04 3.49264 1372.03 3.49264C1378.85 3.49264 1385.34 3.24317 1391.49 2.74423C1397.64 2.07896 1403.3 1.16422 1408.45 0Z" fill="#EDEEEA"/>
<path d="M1459.48 197.085C1452 197.085 1445.76 195.671 1440.77 192.844C1435.78 190.017 1432.12 186.274 1429.8 181.618C1427.47 176.794 1426.3 171.555 1426.3 165.901C1426.3 158.749 1427.88 152.928 1431.04 148.437C1434.37 143.947 1438.61 140.288 1443.77 137.461C1448.92 134.633 1454.33 132.305 1459.98 130.475C1465.8 128.646 1471.29 126.899 1476.45 125.236C1481.77 123.407 1486.01 121.328 1489.17 118.999C1492.5 116.505 1494.16 113.345 1494.16 109.519V90.0604C1494.16 85.7361 1493.41 81.9109 1491.92 78.5845C1490.58 75.0919 1488.42 72.4308 1485.43 70.6013C1482.6 68.7719 1478.86 67.8571 1474.2 67.8571C1470.88 67.8571 1467.55 68.3561 1464.22 69.354C1460.9 70.1856 1458.15 71.6824 1455.99 73.8445C1460.65 75.5077 1464.22 78.0856 1466.72 81.5782C1469.38 84.9046 1470.71 88.7298 1470.71 93.0541C1470.71 98.7088 1468.71 103.199 1464.72 106.526C1460.9 109.852 1456.32 111.515 1451 111.515C1445.01 111.515 1440.44 109.686 1437.28 106.027C1434.29 102.201 1432.79 97.6278 1432.79 92.3056C1432.79 87.4825 1433.95 83.4909 1436.28 80.3308C1438.78 77.1708 1442.19 74.1771 1446.51 71.3498C1451.17 68.6887 1456.74 66.6098 1463.23 65.1129C1469.88 63.6161 1477.03 62.8676 1484.68 62.8676C1492.33 62.8676 1499.23 63.6992 1505.39 65.3624C1511.54 66.8592 1516.7 69.6866 1520.85 73.8445C1524.68 77.6698 1527.17 82.4098 1528.34 88.0646C1529.5 93.553 1530.08 100.538 1530.08 109.02V176.878C1530.08 181.035 1530.5 183.946 1531.33 185.609C1532.16 187.106 1533.58 187.854 1535.57 187.854C1537.07 187.854 1538.48 187.439 1539.81 186.607C1541.31 185.776 1542.89 184.778 1544.55 183.613L1547.05 187.854C1543.56 190.848 1539.48 193.177 1534.82 194.84C1530.33 196.337 1525.26 197.085 1519.61 197.085C1513.45 197.085 1508.55 196.253 1504.89 194.59C1501.23 192.761 1498.57 190.349 1496.9 187.356C1495.41 184.362 1494.66 180.869 1494.66 176.878C1490.67 183.198 1485.84 188.187 1480.19 191.846C1474.54 195.339 1467.63 197.085 1459.48 197.085ZM1477.2 181.119C1480.52 181.119 1483.52 180.37 1486.18 178.873C1489 177.21 1491.67 174.549 1494.16 170.89V119.748C1492.66 122.243 1490.58 124.488 1487.92 126.484C1485.26 128.479 1482.44 130.558 1479.44 132.721C1476.45 134.716 1473.54 136.962 1470.71 139.456C1468.05 141.951 1465.89 145.028 1464.22 148.687C1462.56 152.346 1461.73 156.753 1461.73 161.909C1461.73 168.395 1463.14 173.219 1465.97 176.379C1468.8 179.539 1472.54 181.119 1477.2 181.119Z" fill="#EDEEEA"/>
<path d="M1664 66.3603V71.3498C1660.84 72.1814 1657.85 74.1771 1655.02 77.3372C1652.19 80.3309 1649.45 85.4867 1646.79 92.8046L1611.61 191.597L1602.38 209.06L1547.99 85.5698C1545.17 79.0835 1542.34 75.175 1539.51 73.8445C1536.85 72.3477 1534.52 71.5992 1532.53 71.5992V66.3603C1538.02 66.8592 1543.67 67.275 1549.49 67.6076C1555.48 67.774 1561.22 67.8571 1566.7 67.8571C1573.52 67.8571 1579.76 67.6908 1585.42 67.3582C1591.07 67.0255 1596.39 66.6929 1601.38 66.3603V71.5992C1598.06 71.5992 1594.9 71.8487 1591.9 72.3477C1589.07 72.6803 1587.08 73.8445 1585.91 75.8403C1584.92 77.6698 1585.42 80.913 1587.41 85.5698L1618.85 161.41L1616.6 162.907L1635.06 111.266C1638.22 102.285 1639.55 94.9667 1639.05 89.3119C1638.55 83.4909 1636.72 79.1666 1633.56 76.3393C1630.4 73.3456 1626.08 71.6824 1620.59 71.3498V66.3603C1623.25 66.5266 1626 66.6929 1628.82 66.8592C1631.65 66.8592 1634.48 66.9424 1637.31 67.1087C1640.13 67.1087 1642.63 67.1087 1644.79 67.1087C1648.12 67.1087 1651.61 67.0255 1655.27 66.8592C1658.93 66.6929 1661.84 66.5266 1664 66.3603ZM1611.61 191.597L1602.13 218.29C1600.47 222.448 1598.72 225.941 1596.89 228.768C1595.23 231.762 1593.32 234.174 1591.15 236.003C1588.83 237.999 1585.83 239.496 1582.17 240.494C1578.51 241.658 1574.27 242.24 1569.45 242.24C1565.46 242.24 1561.3 241.575 1556.98 240.244C1552.82 238.914 1549.32 236.751 1546.5 233.758C1543.67 230.764 1542.26 226.939 1542.26 222.282C1542.26 217.126 1544.09 212.968 1547.74 209.808C1551.4 206.815 1556.23 205.318 1562.21 205.318C1567.7 205.318 1572.19 206.648 1575.69 209.309C1579.18 211.97 1580.92 215.879 1580.92 221.035C1580.92 224.361 1579.84 227.521 1577.68 230.515C1575.69 233.508 1572.61 235.754 1568.45 237.25C1569.28 237.417 1570.28 237.5 1571.45 237.5C1572.61 237.5 1573.52 237.5 1574.19 237.5C1579.18 237.5 1583.59 235.92 1587.41 232.76C1591.24 229.6 1594.4 224.61 1596.89 217.791L1605.62 192.096L1611.61 191.597Z" fill="#EDEEEA"/>
</svg>
