<svg width="1664" height="317" viewBox="0 0 1664 317" fill="none" xmlns="http://www.w3.org/2000/svg">
<path d="M125.557 29.3755C159.354 29.3755 185.097 36.7984 202.786 51.6441C220.79 66.4898 229.792 88.1266 229.792 116.555C229.792 145.298 220.79 167.251 202.786 182.413C185.097 197.574 159.354 205.155 125.557 205.155H81.9672V275.751H138.823V308.443H0V275.751H44.0633V62.0676H0V29.3755H125.557ZM125.083 171.989C168.041 171.989 189.52 153.669 189.52 117.028C189.52 80.3879 168.041 62.0676 125.083 62.0676H82.441V171.989H125.083Z" fill="#EDEEEA"/>
<path d="M347.876 98.0764C369.039 98.0764 387.359 102.498 402.836 111.343C418.63 119.871 430.948 132.348 439.793 148.773C448.637 164.882 453.059 184.308 453.059 207.05C453.059 240.848 443.425 267.38 424.157 286.648C404.89 305.916 379.462 315.55 347.876 315.55C327.66 315.55 309.656 311.286 293.863 302.757C278.385 293.913 266.224 281.436 257.38 265.327C248.852 248.902 244.588 229.477 244.588 207.05C244.588 184.308 248.852 164.882 257.38 148.773C266.224 132.348 278.385 119.871 293.863 111.343C309.656 102.498 327.66 98.0764 347.876 98.0764ZM348.35 128.399C326.555 128.399 310.13 135.349 299.074 149.247C288.019 162.829 282.491 182.097 282.491 207.05C282.491 232.003 288.019 251.271 299.074 264.854C310.13 278.436 326.555 285.227 348.35 285.227C370.776 285.227 387.517 278.436 398.572 264.854C409.627 251.271 415.155 232.003 415.155 207.05C415.155 182.097 409.627 162.829 398.572 149.247C387.517 135.349 370.776 128.399 348.35 128.399Z" fill="#EDEEEA"/>
<path d="M710.088 316.498L647.072 294.703C627.804 308.601 607.273 315.55 585.478 315.55C552.944 315.55 527.517 305.6 509.197 285.701C491.192 265.485 482.19 237.689 482.19 202.312C482.19 169.462 491.192 143.877 509.197 125.557C527.517 107.236 552.944 98.0764 585.478 98.0764C594.007 98.0764 602.851 99.0239 612.011 100.919C621.487 102.498 630.173 104.867 638.07 108.026V45.9585L593.059 30.3231L603.009 0.947582L675.026 25.5851V271.013L719.564 286.174L710.088 316.498ZM585.952 285.227C593.849 285.227 602.535 283.648 612.011 280.489C621.487 277.014 630.173 272.75 638.07 267.696V140.244C631.121 136.77 622.751 133.927 612.959 131.716C603.483 129.505 594.481 128.399 585.952 128.399C566.369 128.399 550.417 135.191 538.099 148.773C526.096 162.039 520.094 179.728 520.094 201.838C520.094 226.792 526.096 247.007 538.099 262.485C550.417 277.646 566.369 285.227 585.952 285.227Z" fill="#EDEEEA"/>
<path d="M735.898 0L807.916 24.6375V190.467H851.032L883.724 134.559H859.086V105.183H958.584V134.559H918.785L879.459 202.312L925.418 279.067H966.165V308.443H903.149L849.61 219.843H807.916V279.067H829.237V308.443H731.16V279.067H770.96V45.0109L725.949 29.3755L735.898 0Z" fill="#EDEEEA"/>
<path d="M1071.33 98.0764C1092.49 98.0764 1110.81 102.498 1126.29 111.343C1142.08 119.871 1154.4 132.348 1163.24 148.773C1172.09 164.882 1176.51 184.308 1176.51 207.05C1176.51 240.848 1166.88 267.38 1147.61 286.648C1128.34 305.916 1102.91 315.55 1071.33 315.55C1051.11 315.55 1033.11 311.286 1017.31 302.757C1001.84 293.913 989.674 281.436 980.83 265.327C972.302 248.902 968.038 229.477 968.038 207.05C968.038 184.308 972.302 164.882 980.83 148.773C989.674 132.348 1001.84 119.871 1017.31 111.343C1033.11 102.498 1051.11 98.0764 1071.33 98.0764ZM1071.8 128.399C1050 128.399 1033.58 135.349 1022.52 149.247C1011.47 162.829 1005.94 182.097 1005.94 207.05C1005.94 232.003 1011.47 251.271 1022.52 264.854C1033.58 278.436 1050 285.227 1071.8 285.227C1094.23 285.227 1110.97 278.436 1122.02 264.854C1133.08 251.271 1138.61 232.003 1138.61 207.05C1138.61 182.097 1133.08 162.829 1122.02 149.247C1110.97 135.349 1094.23 128.399 1071.8 128.399Z" fill="#EDEEEA"/>
<path d="M1168.65 105.183H1268.15V134.559H1246.36L1289 235.478L1306.06 275.751L1323.11 235.478L1365.75 134.559H1344.91V105.183H1439.67V134.559H1402.71L1325.01 308.443H1283.31L1207.98 134.559H1168.65V105.183Z" fill="#EDEEEA"/>
<path d="M1590.56 294.703C1570.03 308.601 1547.76 315.55 1523.76 315.55C1497.22 315.55 1477.01 310.18 1463.11 299.441C1449.53 288.701 1442.58 273.066 1442.26 252.535C1441.63 211.156 1467.85 190.467 1520.91 190.467L1582.03 190.941C1582.03 169.778 1578.08 154.143 1570.19 144.035C1562.29 133.611 1550.29 128.399 1534.18 128.399C1526.6 128.399 1519.18 128.873 1511.91 129.821C1504.65 130.768 1497.85 132.19 1491.54 134.085L1486.8 160.144L1456.48 154.458L1464.06 111.343C1476.06 106.921 1487.75 103.604 1499.12 101.393C1510.81 99.1819 1522.02 98.0764 1532.76 98.0764C1561.19 98.0764 1582.66 105.815 1597.19 121.292C1611.72 136.454 1618.99 159.038 1618.99 189.046V271.487L1664 286.174L1654.52 316.498L1590.56 294.703ZM1522.33 220.316C1508.75 220.316 1498.33 223.001 1491.06 228.371C1483.8 233.741 1480.17 241.637 1480.17 252.061C1480.17 274.172 1495.33 285.227 1525.65 285.227C1547.45 285.227 1566.24 279.225 1582.03 267.223V220.79L1522.33 220.316Z" fill="#EDEEEA"/>
</svg>
