<svg width="1664" height="110" viewBox="0 0 1664 110" fill="none" xmlns="http://www.w3.org/2000/svg">
<path d="M0 109.023V0H93.4482V15.5747H109.023V62.2988H93.4482V77.8734H31.1494V109.023H0ZM31.1494 62.2988H77.8735V15.5747H31.1494V62.2988Z" fill="#EDEEEA"/>
<path d="M166.338 46.7241H181.912V62.2988H166.338V109.023H135.188V31.1494H166.338V46.7241ZM228.636 31.1494V46.7241H181.912V31.1494H228.636Z" fill="#EDEEEA"/>
<path d="M254.802 109.023V93.4481H239.227V46.7241H254.802V31.1494H332.675V46.7241H348.25V77.8734H270.377V93.4481H332.675V109.023H254.802ZM270.377 62.2988H317.101V46.7241H270.377V62.2988Z" fill="#EDEEEA"/>
<path d="M358.841 109.023V93.4481H436.714V77.8734H374.416V62.2988H358.841V46.7241H374.416V31.1494H452.289V46.7241H389.99V62.2988H452.289V77.8734H467.864V93.4481H452.289V109.023H358.841Z" fill="#EDEEEA"/>
<path d="M478.454 109.023V93.4481H556.328V77.8734H494.029V62.2988H478.454V46.7241H494.029V31.1494H571.903V46.7241H509.604V62.2988H571.903V77.8734H587.477V93.4481H571.903V109.023H478.454Z" fill="#EDEEEA"/>
<path d="M733.256 109.023V93.4481H717.682V77.8734H748.831V93.4481H795.555V62.2988H733.256V46.7241H717.682V15.5747H733.256V0H811.13V15.5747H826.705V31.1494H795.555V15.5747H748.831V46.7241H811.13V62.2988H826.705V93.4481H811.13V109.023H733.256Z" fill="#EDEEEA"/>
<path d="M884.019 109.023V46.7241H852.87V31.1494H884.019V0H915.169V31.1494H946.318V46.7241H915.169V109.023H884.019Z" fill="#EDEEEA"/>
<path d="M972.484 109.023V93.4481H956.909V77.8734H972.484V62.2988H1034.78V46.7241H972.484V31.1494H1050.36V46.7241H1065.93V109.023H972.484ZM988.058 93.4481H1034.78V77.8734H988.058V93.4481Z" fill="#EDEEEA"/>
<path d="M1123.25 46.7241H1138.82V62.2988H1123.25V109.023H1092.1V31.1494H1123.25V46.7241ZM1185.55 31.1494V46.7241H1138.82V31.1494H1185.55Z" fill="#EDEEEA"/>
<path d="M1242.86 109.023V46.7241H1211.71V31.1494H1242.86V0H1274.01V31.1494H1305.16V46.7241H1274.01V109.023H1242.86Z" fill="#EDEEEA"/>
<path d="M1435.36 109.023V77.8734H1450.94V62.2988H1466.51V46.7241H1497.66V31.1494H1513.24V15.5747H1466.51V31.1494H1435.36V15.5747H1450.94V0H1528.81V15.5747H1544.39V46.7241H1528.81V62.2988H1513.24V77.8734H1482.09V93.4481H1544.39V109.023H1435.36Z" fill="#EDEEEA"/>
<path d="M1554.98 109.023V0H1648.43V15.5747H1664V62.2988H1648.43V77.8734H1586.13V109.023H1554.98ZM1586.13 62.2988H1632.85V15.5747H1586.13V62.2988Z" fill="#EDEEEA"/>
</svg>
