<svg width="1664" height="203" viewBox="0 0 1664 203" fill="none" xmlns="http://www.w3.org/2000/svg">
<path d="M34.7078 199.347H0V1.48324H86.9178C106.892 1.48324 122.614 7.4162 134.085 19.2821C145.753 31.148 151.587 45.8815 151.587 63.4827C151.587 80.886 145.753 95.6195 134.085 107.683C122.614 119.549 106.892 125.482 86.9178 125.482H34.7078V199.347ZM82.1715 94.9273C92.0597 94.9273 100.168 92.0598 106.497 86.3246C112.825 80.5894 115.989 72.9754 115.989 63.4827C115.989 53.9899 112.825 46.376 106.497 40.6408C100.168 34.9056 92.0597 32.038 82.1715 32.038H34.7078V94.9273H82.1715Z" fill="#EDEEEA"/>
<path d="M198.872 199.347H167.724V56.0665H198.872V77.1285C204.41 70.0089 211.331 64.1748 219.638 59.6262C227.944 55.0776 236.547 52.8033 245.446 52.8033V83.6547C242.677 83.0614 239.414 82.7648 235.657 82.7648C229.13 82.7648 222.11 84.7424 214.595 88.6977C207.277 92.4553 202.037 96.8061 198.872 101.75V199.347Z" fill="#EDEEEA"/>
<path d="M323.369 202.907C301.22 202.907 283.421 195.689 269.973 181.252C256.525 166.617 249.801 148.72 249.801 127.559C249.801 106.398 256.525 88.5989 269.973 74.162C283.421 59.7251 301.22 52.5067 323.369 52.5067C345.717 52.5067 363.615 59.7251 377.063 74.162C390.511 88.5989 397.235 106.398 397.235 127.559C397.235 148.917 390.511 166.815 377.063 181.252C363.615 195.689 345.717 202.907 323.369 202.907ZM323.369 175.319C336.224 175.319 346.31 170.77 353.627 161.673C361.143 152.378 364.9 141.007 364.9 127.559C364.9 114.308 361.143 103.135 353.627 94.0374C346.31 84.7424 336.224 80.095 323.369 80.095C310.712 80.095 300.626 84.7424 293.111 94.0374C285.794 103.135 282.135 114.308 282.135 127.559C282.135 141.007 285.794 152.378 293.111 161.673C300.626 170.77 310.712 175.319 323.369 175.319Z" fill="#EDEEEA"/>
<path d="M531.938 199.347H496.934L459.853 146.544L422.475 199.347H387.767L440.274 125.779L390.734 56.0665H425.738L459.853 104.717L493.671 56.0665H528.675L479.135 125.779L531.938 199.347Z" fill="#EDEEEA"/>
<path d="M557.181 38.5642C552.039 38.5642 547.491 36.6855 543.535 32.9279C539.778 29.1704 537.899 24.6218 537.899 19.2821C537.899 13.9425 539.778 9.39386 543.535 5.63631C547.491 1.87877 552.039 0 557.181 0C562.521 0 567.069 1.87877 570.827 5.63631C574.585 9.39386 576.463 13.9425 576.463 19.2821C576.463 24.6218 574.585 29.1704 570.827 32.9279C567.069 36.6855 562.521 38.5642 557.181 38.5642ZM572.903 199.347H541.755V56.0665H572.903V199.347Z" fill="#EDEEEA"/>
<path d="M808.208 199.347H777.06V105.903C777.06 88.6977 769.248 80.095 753.625 80.095C747.098 80.095 740.77 81.9737 734.639 85.7313C728.509 89.4888 723.762 93.9385 720.4 99.0804V199.347H689.252V105.903C689.252 88.6977 681.342 80.095 665.52 80.095C659.192 80.095 652.962 81.9737 646.831 85.7313C640.899 89.4888 636.152 94.0374 632.592 99.3771V199.347H601.444V56.0665H632.592V75.6452C636.152 70.3056 642.283 65.1637 650.985 60.2195C659.884 55.0776 669.278 52.5067 679.166 52.5067C699.931 52.5067 712.984 61.3072 718.324 78.9084C722.872 71.7888 729.596 65.6581 738.496 60.5162C747.395 55.1765 756.888 52.5067 766.974 52.5067C794.463 52.5067 808.208 66.9436 808.208 95.8173V199.347Z" fill="#EDEEEA"/>
<path d="M955.348 199.347H924.2V183.922C913.125 196.579 897.699 202.907 877.922 202.907C864.87 202.907 853.301 198.754 843.215 190.448C833.129 181.944 828.086 170.276 828.086 155.444C828.086 140.216 833.03 128.646 842.918 120.736C853.004 112.825 864.672 108.87 877.922 108.87C898.292 108.87 913.718 115.001 924.2 127.262V105.903C924.2 97.5972 921.134 91.0709 915.003 86.3246C908.873 81.5782 900.764 79.205 890.678 79.205C874.659 79.205 860.519 85.2368 848.258 97.3005L835.502 75.6452C851.719 60.2195 871.792 52.5067 895.721 52.5067C913.322 52.5067 927.66 56.6598 938.735 64.9659C949.81 73.272 955.348 86.4234 955.348 104.42V199.347ZM890.085 181.549C905.709 181.549 917.08 176.604 924.2 166.716V145.061C917.08 135.173 905.709 130.228 890.085 130.228C881.186 130.228 873.868 132.602 868.133 137.348C862.398 142.094 859.53 148.324 859.53 156.037C859.53 163.75 862.398 169.979 868.133 174.726C873.868 179.274 881.186 181.549 890.085 181.549Z" fill="#EDEEEA"/>
<path d="M1220.54 199.347H1187.02L1083.79 58.143V199.347H1049.08V1.48324H1084.68L1185.83 138.831V1.48324H1220.54V199.347Z" fill="#EDEEEA"/>
<path d="M1314.5 202.907C1292.35 202.907 1274.55 195.689 1261.1 181.252C1247.65 166.617 1240.93 148.72 1240.93 127.559C1240.93 106.398 1247.65 88.5989 1261.1 74.162C1274.55 59.7251 1292.35 52.5067 1314.5 52.5067C1336.85 52.5067 1354.74 59.7251 1368.19 74.162C1381.64 88.5989 1388.36 106.398 1388.36 127.559C1388.36 148.917 1381.64 166.815 1368.19 181.252C1354.74 195.689 1336.85 202.907 1314.5 202.907ZM1314.5 175.319C1327.35 175.319 1337.44 170.77 1344.76 161.673C1352.27 152.378 1356.03 141.007 1356.03 127.559C1356.03 114.308 1352.27 103.135 1344.76 94.0374C1337.44 84.7424 1327.35 80.095 1314.5 80.095C1301.84 80.095 1291.75 84.7424 1284.24 94.0374C1276.92 103.135 1273.26 114.308 1273.26 127.559C1273.26 141.007 1276.92 152.378 1284.24 161.673C1291.75 170.77 1301.84 175.319 1314.5 175.319Z" fill="#EDEEEA"/>
<path d="M1479.21 199.347H1445.69L1387.25 56.0665H1420.47L1462.3 163.453L1504.13 56.0665H1537.65L1479.21 199.347Z" fill="#EDEEEA"/>
<path d="M1664 199.347H1632.85V183.922C1621.78 196.579 1606.35 202.907 1586.57 202.907C1573.52 202.907 1561.95 198.754 1551.87 190.448C1541.78 181.944 1536.74 170.276 1536.74 155.444C1536.74 140.216 1541.68 128.646 1551.57 120.736C1561.66 112.825 1573.32 108.87 1586.57 108.87C1606.94 108.87 1622.37 115.001 1632.85 127.262V105.903C1632.85 97.5972 1629.79 91.0709 1623.66 86.3246C1617.53 81.5782 1609.42 79.205 1599.33 79.205C1583.31 79.205 1569.17 85.2368 1556.91 97.3005L1544.15 75.6452C1560.37 60.2195 1580.44 52.5067 1604.37 52.5067C1621.97 52.5067 1636.31 56.6598 1647.39 64.9659C1658.46 73.272 1664 86.4234 1664 104.42V199.347ZM1598.74 181.549C1614.36 181.549 1625.73 176.604 1632.85 166.716V145.061C1625.73 135.173 1614.36 130.228 1598.74 130.228C1589.84 130.228 1582.52 132.602 1576.79 137.348C1571.05 142.094 1568.18 148.324 1568.18 156.037C1568.18 163.75 1571.05 169.979 1576.79 174.726C1582.52 179.274 1589.84 181.549 1598.74 181.549Z" fill="#EDEEEA"/>
</svg>
