<svg width="1664" height="343" viewBox="0 0 1664 343" fill="none" xmlns="http://www.w3.org/2000/svg">
<path d="M103.871 306.688C111.93 307.881 119.839 309.672 127.6 312.06C135.659 314.15 142.822 316.687 149.09 319.671V336.685H0V319.671C5.67111 316.388 11.6407 313.702 17.9088 311.612C24.4753 309.523 30.7434 307.881 36.713 306.688V53.2786C29.8479 52.0846 23.2814 50.443 17.0133 48.3536C10.7453 45.9658 5.07415 43.2795 0 40.2947V23.2814H56.4126C68.3518 23.2814 81.9326 22.6844 97.155 21.4905C112.676 20.2966 126.854 19.6997 139.688 19.6997C155.508 19.6997 170.879 21.3413 185.803 24.6245C201.026 27.6093 214.457 32.8327 226.098 40.2947C238.037 47.7567 247.589 57.7558 254.752 70.2919C261.916 82.5295 265.497 97.9012 265.497 116.407C265.497 134.017 261.916 149.24 254.752 162.074C247.887 174.909 238.634 185.505 226.994 193.862C215.353 202.22 201.921 208.488 186.699 212.667C171.476 216.547 155.806 218.487 139.688 218.487C138.196 218.487 135.808 218.487 132.525 218.487C129.242 218.487 125.66 218.487 121.78 218.487C118.198 218.188 114.616 218.039 111.034 218.039C107.751 217.741 105.363 217.442 103.871 217.144V306.688ZM128.048 48.8014C122.078 48.8014 117.302 49.0999 113.721 49.6968C110.437 49.9953 107.154 50.5922 103.871 51.4877V187.594C106.557 188.49 110.587 189.087 115.959 189.385C121.332 189.385 125.66 189.385 128.943 189.385C137.002 189.385 144.762 188.042 152.224 185.356C159.686 182.669 166.253 178.491 171.924 172.82C177.894 167.148 182.669 159.836 186.251 150.881C189.833 141.927 191.624 131.182 191.624 118.646C191.624 94.7672 185.803 77.1569 174.163 65.8147C162.522 54.4725 147.15 48.8014 128.048 48.8014Z" fill="#EDEEEA"/>
<path d="M494.572 336.685H340.557V319.671C346.526 317.284 353.242 314.896 360.704 312.508C368.465 309.822 376.225 307.881 383.985 306.688V52.3831H332.05L303.396 128.943H285.04C283.846 122.973 282.652 115.362 281.458 106.109C280.264 96.8566 279.219 87.3052 278.324 77.4554C277.428 67.6056 276.682 57.905 276.085 48.3536C275.488 38.5038 275.19 30.1464 275.19 23.2814H559.939C559.939 30.4449 559.641 38.8023 559.044 48.3536C558.447 57.905 557.7 67.6056 556.805 77.4554C555.91 87.3052 554.865 96.8566 553.671 106.109C552.477 115.064 551.283 122.675 550.089 128.943H531.733L503.079 52.3831H451.143V306.688C458.904 308.18 466.515 309.971 473.977 312.06C481.737 314.15 488.603 316.687 494.572 319.671V336.685Z" fill="#EDEEEA"/>
<path d="M739.719 299.524C743.002 302.807 747.629 305.941 753.599 308.926C759.568 311.612 767.478 312.956 777.328 312.956C793.744 312.956 807.325 308.777 818.07 300.419C829.114 291.764 834.636 279.824 834.636 264.602C834.636 253.558 831.054 244.305 823.89 236.843C817.025 229.381 808.22 222.516 797.475 216.248C786.73 209.98 775.238 203.861 763.001 197.892C750.763 191.624 739.271 184.311 728.526 175.954C717.781 167.596 708.827 157.746 701.663 146.404C694.798 134.763 691.366 120.436 691.366 103.423C691.366 88.7976 694.052 76.1122 699.424 65.367C704.797 54.6217 712.11 45.8166 721.363 38.9516C730.914 31.7881 742.107 26.5647 754.942 23.2814C767.776 19.6996 781.656 17.9088 796.58 17.9088C814.787 17.9088 831.651 19.2519 847.172 21.9382C862.991 24.3261 877.169 28.2063 889.705 33.5789C889.407 39.5485 888.81 46.4135 887.914 54.174C887.317 61.9345 886.422 69.6949 885.228 77.4554C884.034 84.9174 882.691 92.0809 881.198 98.9459C880.004 105.512 878.811 111.034 877.617 115.512H859.26L838.665 54.174C835.083 52.3831 829.711 50.7415 822.547 49.2491C815.682 47.7567 808.519 47.0105 801.057 47.0105C788.521 47.0105 777.925 50.2938 769.269 56.8603C760.613 63.4269 756.285 72.9782 756.285 85.5143C756.285 96.8565 759.867 106.557 767.03 114.616C774.194 122.377 783.148 129.54 793.893 136.107C804.638 142.673 816.279 149.24 828.815 155.806C841.65 162.074 853.44 169.387 864.185 177.744C874.93 186.102 883.885 195.952 891.048 207.294C898.212 218.338 901.794 232.068 901.794 248.484C901.794 278.332 891.645 301.464 871.349 317.881C851.351 333.998 821.801 342.057 782.7 342.057C773.149 342.057 763.448 341.46 753.599 340.266C744.047 339.073 734.944 337.431 726.288 335.342C717.632 333.252 709.871 331.014 703.006 328.626C696.44 326.238 691.515 323.701 688.231 321.015C688.53 314.15 689.276 306.837 690.47 299.076C691.664 291.017 692.858 283.108 694.052 275.347C695.544 267.288 697.037 259.677 698.529 252.514C700.021 245.35 701.514 239.082 703.006 233.709H721.363L739.719 299.524Z" fill="#EDEEEA"/>
<path d="M1127.72 299.076C1125.33 304.15 1121.45 309.374 1116.08 314.746C1111.01 319.821 1104.59 324.447 1096.83 328.626C1089.37 332.506 1080.56 335.64 1070.41 338.028C1060.56 340.714 1049.82 342.057 1038.18 342.057C1019.67 342.057 1003.25 339.371 988.927 333.998C974.6 328.327 962.661 320.418 953.11 310.269C943.559 299.823 936.246 287.436 931.172 273.109C926.396 258.782 924.008 242.664 924.008 224.755C924.008 186.55 934.007 157.448 954.005 137.45C974.003 117.452 1001.76 107.453 1037.28 107.453C1052.5 107.453 1066.68 109.542 1079.81 113.721C1093.25 117.899 1104.29 124.764 1112.95 134.316C1121.9 143.867 1128.02 156.403 1131.3 171.924C1134.88 187.445 1134.73 206.398 1130.85 228.784H993.405C993.703 252.364 999.673 271.168 1011.31 285.197C1023.25 299.226 1040.71 306.24 1063.7 306.24C1073.55 306.24 1083.69 304.747 1094.14 301.763C1104.89 298.778 1113.24 294.898 1119.21 290.122L1127.72 299.076ZM1035.49 132.973C1029.52 132.973 1024.15 134.017 1019.37 136.107C1014.9 138.196 1010.87 142.076 1007.28 147.747C1004 153.12 1001.31 160.582 999.225 170.133C997.136 179.386 995.643 191.176 994.748 205.503H1066.83C1068.92 182.222 1067.58 164.313 1062.8 151.777C1058.03 139.241 1048.92 132.973 1035.49 132.973Z" fill="#EDEEEA"/>
<path d="M1271.49 164.313C1267.91 166.104 1263.73 169.089 1258.95 173.267C1254.18 177.446 1249.85 184.311 1245.97 193.862V308.478C1251.94 309.075 1257.91 310.269 1263.88 312.06C1269.85 313.553 1275.81 315.94 1281.78 319.224V336.685H1151.95V319.224C1157.32 316.239 1162.39 314 1167.17 312.508C1171.94 311.015 1176.72 309.672 1181.5 308.478V144.613L1151.95 141.031V123.57C1156.72 121.481 1162.54 119.541 1169.41 117.75C1176.57 115.959 1183.88 114.467 1191.35 113.273C1198.81 111.781 1205.97 110.587 1212.84 109.691C1220 108.796 1225.97 108.05 1230.74 107.453H1245.97V166.999H1247.76C1250.15 160.433 1253.58 153.568 1258.06 146.404C1262.83 139.241 1268.35 132.674 1274.62 126.704C1280.89 120.735 1287.75 115.959 1295.22 112.377C1302.68 108.796 1310.44 107.154 1318.5 107.453C1321.78 111.631 1324.62 117.601 1327 125.361C1329.39 132.823 1331.33 139.987 1332.82 146.852V164.313H1271.49Z" fill="#EDEEEA"/>
<path d="M1462.96 336.685H1339.39V319.224C1343.87 316.836 1348.49 314.896 1353.27 313.403C1358.04 311.612 1363.27 309.971 1368.94 308.478V144.613L1339.39 141.031V123.57C1343.87 121.78 1349.39 119.989 1355.96 118.198C1362.82 116.407 1369.98 114.915 1377.45 113.721C1384.91 112.228 1392.22 111.034 1399.38 110.139C1406.55 108.945 1412.82 108.05 1418.19 107.453H1433.41V308.478C1439.38 309.971 1444.75 311.612 1449.53 313.403C1454.3 314.896 1458.78 316.836 1462.96 319.224V336.685ZM1361.33 39.3993C1361.33 28.9525 1364.91 20.7443 1372.07 14.7747C1379.24 8.80514 1388.49 5.82035 1399.83 5.82035C1411.17 5.82035 1420.43 8.80514 1427.59 14.7747C1434.75 20.7443 1438.34 28.9525 1438.34 39.3993C1438.34 49.5476 1434.75 57.6065 1427.59 63.5761C1420.43 69.5457 1411.17 72.5305 1399.83 72.5305C1388.49 72.5305 1379.24 69.5457 1372.07 63.5761C1364.91 57.6065 1361.33 49.5476 1361.33 39.3993Z" fill="#EDEEEA"/>
<path d="M1608.93 0C1621.17 0 1632.06 1.19392 1641.61 3.58176C1651.46 5.67111 1658.93 7.76046 1664 9.84983C1663.1 19.6996 1661.16 29.8479 1658.18 40.2947C1655.19 50.7415 1652.51 59.3974 1650.12 66.2624H1634.9L1615.2 23.7291C1607.44 23.7291 1600.87 24.6245 1595.5 26.4154C1590.43 27.9078 1586.25 31.0418 1582.96 35.8175C1579.98 40.5932 1577.74 47.4582 1576.25 56.4126C1574.75 65.0685 1574.01 76.4107 1574.01 90.4392V112.825H1621.47V141.031H1574.01V308.478C1589.53 310.269 1603.86 313.851 1616.99 319.224V336.685H1479.99V319.224C1489.24 313.851 1499.09 310.269 1509.54 308.478V141.031H1475.51V123.57C1485.96 117.004 1497.3 112.079 1509.54 108.796V93.1255C1509.54 74.6198 1512.07 59.3974 1517.15 47.4582C1522.52 35.2206 1529.68 25.6692 1538.64 18.8042C1547.59 11.6407 1558.04 6.71578 1569.98 4.02947C1582.22 1.34315 1595.2 0 1608.93 0Z" fill="#EDEEEA"/>
</svg>
