<svg width="1874" height="703" viewBox="0 0 1874 703" fill="none" xmlns="http://www.w3.org/2000/svg">
<g style="mix-blend-mode:luminosity">
<path d="M3.06748 304.54H41.1275L175.029 72.72H136.969L139.045 69.26H201.671C245.613 69.606 286.096 83.1 286.096 117.008C286.096 154.722 244.229 178.942 172.261 186.554C222.431 194.166 244.576 213.542 244.576 241.568C244.576 285.856 195.097 308 122.437 308H0.991482L3.06748 304.54ZM248.035 117.008C248.035 93.134 239.385 77.564 212.397 73.758L149.079 183.094H162.227C194.059 183.094 248.035 170.638 248.035 117.008ZM204.785 241.222C205.131 224.96 199.941 188.63 147.349 186.554L79.1875 304.54H109.289C164.649 304.54 203.747 291.738 204.785 241.222ZM215.601 304.54H253.661L387.563 72.72H349.503L351.579 69.26H663.325L661.249 72.72H622.843L488.941 304.54H527.001L524.925 308H410.745L412.821 304.54H450.881L584.783 72.72H425.623L368.879 170.638C425.277 176.866 453.649 204.892 453.649 234.648C453.649 283.088 404.171 307.308 331.165 308H213.525L215.601 304.54ZM413.859 234.302C414.205 217.694 406.939 182.748 366.803 174.444L291.721 304.54H314.903C372.339 304.54 412.821 290.354 413.859 234.302ZM540.989 304.54H579.049L712.951 72.72H674.891L676.967 69.26H852.735L810.523 142.266V72.72H751.011L690.807 176.52C754.125 180.326 785.957 208.352 785.957 238.108C785.957 284.818 735.095 308 660.359 308H538.913L540.989 304.54ZM746.167 237.762C746.513 221.154 738.209 183.786 689.077 179.98L617.109 304.54H647.211C704.647 304.54 745.129 291.046 746.167 237.762ZM865.086 311.46C828.756 311.46 818.376 290.7 818.376 260.252C818.376 177.212 920.792 65.8 1006.95 65.8C1044.31 65.8 1052.96 90.712 1052.96 122.544C1052.96 210.082 950.202 311.46 865.086 311.46ZM866.816 308C936.708 308 1023.21 170.984 1023.21 94.172C1023.21 76.872 1020.79 69.26 1004.87 69.26C934.978 69.26 848.478 213.888 848.478 283.088C848.478 297.274 850.9 308 866.816 308ZM985.991 304.54H1024.05L1157.95 72.72H1119.89L1121.97 69.26H1191.86C1235.46 69.952 1275.94 85.522 1275.94 125.658C1275.94 168.908 1229.92 203.854 1150.34 203.854H1120.24L1062.11 304.54H1103.63L1101.56 308H983.915L985.991 304.54ZM1241.34 125.658C1241.34 94.864 1230.61 75.488 1195.67 73.066L1122.32 200.394H1152.07C1185.29 200.394 1241.34 186.554 1241.34 125.658Z" fill="#EDEEEA"/>
</g>
<g style="mix-blend-mode:luminosity">
<path d="M343.215 609.54H381.275L515.177 377.72H477.117L479.193 374.26H815.159L813.083 377.72H774.677L640.775 609.54H678.835L676.759 613H341.139L343.215 609.54ZM419.335 609.54H491.995L625.897 377.72H553.237L419.335 609.54ZM530.055 609.54H602.715L736.617 377.72H663.957L530.055 609.54ZM692.594 609.54H730.654L864.556 377.72H826.496L828.572 374.26H898.464C942.06 374.952 982.542 390.522 982.542 430.658C982.542 473.908 936.524 508.854 856.944 508.854H826.842L768.714 609.54H810.234L808.158 613H690.518L692.594 609.54ZM947.942 430.658C947.942 399.864 937.216 380.488 902.27 378.066L828.918 505.394H858.674C891.89 505.394 947.942 491.554 947.942 430.658ZM898.369 609.54H936.429L1070.33 377.72H1032.27L1034.35 374.26H1273.43L1271.36 377.72H1232.95L1099.05 609.54H1137.11L1135.03 613H896.293L898.369 609.54ZM1108.39 377.72L994.211 575.632L1182.78 398.826L1194.89 377.72H1108.39ZM974.489 609.54H1060.99L1175.17 411.628L986.599 588.434L974.489 609.54ZM1231.04 609.54H1269.1L1285.71 580.476C1234.84 577.708 1207.86 552.104 1207.86 515.774C1207.86 449.342 1280.86 407.476 1387.08 405.054L1403 377.72H1364.94L1367.02 374.26H1481.54L1479.47 377.72H1441.06L1425.14 405.4C1483.62 409.206 1502.3 445.536 1502.3 475.638C1502.3 539.994 1428.95 578.4 1323.77 580.822L1307.16 609.54H1345.22L1343.14 613H1228.96L1231.04 609.54ZM1241.42 531.69C1241.42 546.568 1248.34 573.21 1287.78 577.016L1385.01 408.86C1297.47 412.666 1241.42 466.642 1241.42 531.69ZM1469.09 454.186C1469.09 433.772 1462.17 411.974 1423.07 408.86L1325.84 577.016C1413.38 573.21 1469.09 519.926 1469.09 454.186ZM1480.08 609.54H1518.14L1652.04 377.72H1607.06L1520.56 447.266L1562.78 374.26H1774.87L1732.66 447.266V377.72H1690.1L1556.2 609.54H1594.26L1592.19 613H1478.01L1480.08 609.54ZM1652.54 609.54H1690.95L1828.66 370.8V609.54H1866.72L1864.64 613H1650.47L1652.54 609.54ZM1744.58 524.77H1794.06V439.308L1744.58 524.77ZM1695.79 609.54H1794.06V528.23H1742.5L1695.79 609.54Z" fill="#EDEEEA"/>
</g>
<path d="M1423.54 71.247C1436.21 71.247 1445.28 77.5796 1445.28 89.2051C1445.28 105.084 1428.74 119.072 1409.56 132.966H1447.17V141H1397.84V133.25C1422.03 115.386 1436.21 102.532 1436.21 90.3393C1436.21 83.1561 1431.58 78.4302 1423.35 78.4302C1415.98 78.4302 1408.89 82.4944 1408.61 93.8364H1399.73C1399.44 80.2261 1408.89 71.247 1423.54 71.247ZM1499.43 106.691C1499.43 87.6928 1492.62 78.4302 1481.94 78.4302C1471.07 78.4302 1464.45 87.6928 1464.45 106.691C1464.45 125.877 1471.07 135.045 1481.94 135.045C1492.81 135.045 1499.43 125.877 1499.43 106.691ZM1508.59 106.691C1508.59 128.335 1500.18 142.229 1481.94 142.229C1463.7 142.229 1455.29 128.335 1455.29 106.691C1455.29 85.0464 1463.7 71.247 1481.94 71.247C1500.18 71.247 1508.59 85.0464 1508.59 106.691ZM1541.78 71.247C1554.45 71.247 1563.52 77.5796 1563.52 89.2051C1563.52 105.084 1546.98 119.072 1527.79 132.966H1565.41V141H1516.07V133.25C1540.27 115.386 1554.45 102.532 1554.45 90.3393C1554.45 83.1561 1549.82 78.4302 1541.59 78.4302C1534.22 78.4302 1527.13 82.4944 1526.85 93.8364H1517.96C1517.68 80.2261 1527.13 71.247 1541.78 71.247ZM1595.64 135.045C1604.71 135.045 1611.14 130.414 1611.14 121.813C1611.14 111.984 1602.35 108.77 1591.39 108.77H1589.97V100.925H1591.1C1603.11 100.925 1609.35 97.617 1609.35 89.5832C1609.35 82.3054 1603.3 78.4302 1596.02 78.4302C1586.85 78.4302 1581.84 83.9122 1581.09 91.757H1572.2C1573.24 79.6589 1581.84 71.247 1596.21 71.247C1608.02 71.247 1618.42 76.0673 1618.42 88.638C1618.42 95.7267 1614.45 101.587 1607.27 104.517C1617.47 107.825 1620.31 114.441 1620.31 121.719C1620.31 135.518 1608.68 142.229 1595.55 142.229C1579.29 142.229 1572.2 132.21 1571.16 120.774H1580.05C1581.09 129.185 1585.91 135.045 1595.64 135.045Z" fill="white"/>
<path d="M8.032 352.848C10.984 352.848 13.24 354.936 13.624 357.456H11.128C10.864 355.992 9.544 354.984 7.912 354.984C6.112 354.984 4.456 356.4 4.456 359.544C4.456 362.736 6.112 364.176 7.912 364.176C9.52 364.176 10.864 363.24 11.224 361.704H13.744C13.216 364.416 10.72 366.312 7.864 366.312C4.12 366.312 1.792 363.48 1.792 359.568C1.792 355.752 4.216 352.848 8.032 352.848ZM25.8192 355.08H21.2832V366H18.7872V355.08H14.2272V353.088H25.8192V355.08ZM35.2362 360.792V359.856C31.2282 360.24 29.1162 360.816 29.1162 362.472C29.1162 363.648 30.0282 364.392 31.5642 364.392C33.6042 364.392 35.2362 363.36 35.2362 360.792ZM31.0122 366.312C28.3962 366.312 26.4042 364.872 26.4042 362.52C26.4042 359.376 30.1242 358.512 35.1162 358.008V357.744C35.1162 355.464 33.9162 354.696 32.3322 354.696C30.6042 354.696 29.6202 355.56 29.5242 357.168H27.0042C27.1962 354.408 29.4762 352.776 32.4282 352.776C35.7642 352.776 37.6602 354.384 37.6362 358.248C37.6362 358.56 37.5882 360.792 37.5882 361.344C37.5882 363.288 37.7082 364.848 37.9482 366H35.5482C35.4522 365.496 35.4042 365.136 35.3322 364.296C34.5642 365.616 33.1242 366.312 31.0122 366.312ZM50.5223 355.08H45.9863V366H43.4903V355.08H38.9303V353.088H50.5223V355.08ZM55.171 357.552H58.099C61.531 357.552 63.043 359.112 63.043 361.68C63.043 364.944 60.955 366 57.883 366H52.675V353.088H55.171V357.552ZM55.171 364.008H57.811C59.635 364.008 60.547 363.312 60.547 361.68C60.547 360.072 59.635 359.544 57.787 359.544H55.171V364.008ZM66.8204 366H63.8444L67.4684 360.864C65.9564 360.312 64.9004 359.112 64.9004 357.168C64.9004 354.504 66.6764 353.088 69.7724 353.088H75.0044V366H72.5084V361.536H69.9404L66.8204 366ZM70.0124 359.544H72.5084V355.08H69.9644C68.4284 355.08 67.3964 355.896 67.3964 357.336C67.3964 358.968 68.5004 359.544 70.0124 359.544ZM85.6049 360.624H77.8769V358.32H85.6049V360.624ZM99.6469 353.088V366H97.1509V355.08H91.0069V366H88.5109V353.088H99.6469ZM104.909 359.592C104.909 362.76 106.661 364.2 108.533 364.2C110.453 364.2 112.181 362.736 112.181 359.592C112.181 356.4 110.453 354.96 108.533 354.96C106.661 354.96 104.909 356.328 104.909 359.592ZM108.533 352.848C111.605 352.848 114.821 354.912 114.821 359.592C114.821 364.248 111.605 366.312 108.533 366.312C105.485 366.312 102.269 364.248 102.269 359.592C102.269 354.912 105.485 352.848 108.533 352.848ZM132.169 353.088V366H129.769V355.704L125.737 366H123.865L119.833 355.8V366H117.433V353.088H121.153L124.873 362.688L128.449 353.088H132.169ZM137.417 359.592C137.417 362.76 139.169 364.2 141.041 364.2C142.961 364.2 144.689 362.736 144.689 359.592C144.689 356.4 142.961 354.96 141.041 354.96C139.169 354.96 137.417 356.328 137.417 359.592ZM141.041 352.848C144.113 352.848 147.329 354.912 147.329 359.592C147.329 364.248 144.113 366.312 141.041 366.312C137.993 366.312 134.777 364.248 134.777 359.592C134.777 354.912 137.993 352.848 141.041 352.848ZM168.253 364.008V369.072H165.901V366H149.941V353.088H152.437V364.008H156.925V353.088H159.421V364.008H163.909V353.088H166.405V364.008H168.253ZM182.057 366H179.561V360.384H173.273V366H170.777V353.088H173.273V358.392H179.561V353.088H182.057V366ZM188.107 366H185.659V353.088H188.107V362.424L194.419 353.088H196.867V366H194.419V356.688L188.107 366ZM208.847 366L204.503 360.312H202.991V366H200.495V353.088H202.991V358.32H204.575L208.511 353.088H211.415L206.543 359.256L211.847 366H208.847Z" fill="#EDEEEA"/>
<path d="M728.8 655.088H734.632C737.272 655.088 739.408 655.76 739.408 658.4C739.408 659.744 738.784 660.68 737.656 661.184C738.976 661.568 739.936 662.456 739.936 664.184C739.936 666.92 737.824 668 734.992 668H728.8V655.088ZM731.296 660.44H734.44C735.952 660.44 736.864 660.056 736.864 658.712C736.864 657.392 735.904 657.08 734.392 657.08H731.296V660.44ZM731.296 662.336V666.008H734.632C736.456 666.008 737.368 665.48 737.368 664.136C737.368 662.792 736.432 662.336 734.584 662.336H731.296ZM756.837 668H754.341V655.088H756.837V668ZM745.077 659.552H747.381C750.813 659.552 752.325 661.112 752.325 663.68C752.325 666.944 750.237 668 747.165 668H742.581V655.088H745.077V659.552ZM745.077 666.008H747.093C748.917 666.008 749.829 665.312 749.829 663.68C749.829 662.072 748.917 661.544 747.069 661.544H745.077V666.008ZM766.369 655.832C769.345 655.832 771.913 657.896 771.913 661.952C771.913 666.104 769.129 668.312 765.913 668.312C762.553 668.312 759.769 665.936 759.769 661.112V659.792C759.841 655.112 761.665 652.136 766.585 651.248L770.953 650.48V652.64L766.705 653.456C763.921 653.96 762.289 655.16 761.905 658.352C762.793 656.648 764.521 655.832 766.369 655.832ZM765.937 666.224C767.953 666.224 769.297 664.712 769.297 662C769.297 659.288 767.809 657.92 765.961 657.92C764.041 657.92 762.385 659.192 762.385 661.976C762.385 664.64 763.849 666.224 765.937 666.224ZM776.464 661.592C776.464 664.76 778.216 666.2 780.088 666.2C782.008 666.2 783.736 664.736 783.736 661.592C783.736 658.4 782.008 656.96 780.088 656.96C778.216 656.96 776.464 658.328 776.464 661.592ZM780.088 654.848C783.16 654.848 786.376 656.912 786.376 661.592C786.376 666.248 783.16 668.312 780.088 668.312C777.04 668.312 773.824 666.248 773.824 661.592C773.824 656.912 777.04 654.848 780.088 654.848ZM788.868 655.088H791.364V656.984C792.156 655.64 793.476 654.848 795.396 654.848C798.396 654.848 800.964 657.344 800.964 661.568C800.964 665.792 798.396 668.312 795.396 668.312C793.476 668.312 792.156 667.52 791.364 666.176V672.2H788.868V655.088ZM791.268 661.568C791.268 664.76 792.9 666.224 794.82 666.224C796.908 666.224 798.3 664.472 798.3 661.568C798.3 658.664 796.908 656.936 794.82 656.936C792.9 656.936 791.268 658.376 791.268 661.568ZM809.175 666.176C810.999 666.176 812.007 665.432 812.559 664.208H815.079C814.503 666.344 812.535 668.312 809.271 668.312C805.119 668.312 802.839 665.264 802.839 661.52C802.839 657.512 805.527 654.848 809.199 654.848C813.183 654.848 815.511 658.112 815.247 662.312H805.407C805.671 664.712 807.135 666.176 809.175 666.176ZM809.175 656.888C807.231 656.888 805.815 657.872 805.455 660.344H812.655C812.583 658.448 811.215 656.888 809.175 656.888Z" fill="#EDEEEA"/>
<path d="M981.936 655.088V668H979.44V657.08H973.296V668H970.8V655.088H981.936ZM987.198 661.592C987.198 664.76 988.95 666.2 990.822 666.2C992.742 666.2 994.47 664.736 994.47 661.592C994.47 658.4 992.742 656.96 990.822 656.96C988.95 656.96 987.198 658.328 987.198 661.592ZM990.822 654.848C993.894 654.848 997.11 656.912 997.11 661.592C997.11 666.248 993.894 668.312 990.822 668.312C987.774 668.312 984.558 666.248 984.558 661.592C984.558 656.912 987.774 654.848 990.822 654.848ZM1011.88 666.008V671.072H1009.52V668H1000.33V671.072H997.98V666.008H998.604C999.924 666.008 1000.55 664.112 1000.74 659.216L1000.91 655.088H1010.03V666.008H1011.88ZM1007.53 666.008V657.08H1003.24L1003.07 659.96C1002.9 662.96 1002.52 664.952 1001.48 666.008H1007.53ZM1024.74 655.088L1020.32 661.256L1025.1 668H1022.12L1018.83 663.344L1015.55 668H1012.74L1017.47 661.4L1013.03 655.088H1015.98L1018.95 659.312L1021.98 655.088H1024.74ZM1028.24 661.592C1028.24 664.76 1029.99 666.2 1031.86 666.2C1033.78 666.2 1035.51 664.736 1035.51 661.592C1035.51 658.4 1033.78 656.96 1031.86 656.96C1029.99 656.96 1028.24 658.328 1028.24 661.592ZM1031.86 654.848C1034.93 654.848 1038.15 656.912 1038.15 661.592C1038.15 666.248 1034.93 668.312 1031.86 668.312C1028.81 668.312 1025.6 666.248 1025.6 661.592C1025.6 656.912 1028.81 654.848 1031.86 654.848ZM1052.92 666.008V671.072H1050.56V668H1041.37V671.072H1039.02V666.008H1039.64C1040.96 666.008 1041.59 664.112 1041.78 659.216L1041.95 655.088H1051.07V666.008H1052.92ZM1048.57 666.008V657.08H1044.28L1044.11 659.96C1043.94 662.96 1043.56 664.952 1042.52 666.008H1048.57ZM1056.97 668H1053.99L1057.62 662.864C1056.1 662.312 1055.05 661.112 1055.05 659.168C1055.05 656.504 1056.82 655.088 1059.92 655.088H1065.15V668H1062.66V663.536H1060.09L1056.97 668ZM1060.16 661.544H1062.66V657.08H1060.11C1058.58 657.08 1057.54 657.896 1057.54 659.336C1057.54 660.968 1058.65 661.544 1060.16 661.544ZM1087.06 666.008V671.072H1084.71V668H1068.75V655.088H1071.24V666.008H1075.73V655.088H1078.23V666.008H1082.71V655.088H1085.21V666.008H1087.06ZM1094.49 666.176C1096.31 666.176 1097.32 665.432 1097.87 664.208H1100.39C1099.82 666.344 1097.85 668.312 1094.58 668.312C1090.43 668.312 1088.15 665.264 1088.15 661.52C1088.15 657.512 1090.84 654.848 1094.51 654.848C1098.5 654.848 1100.82 658.112 1100.56 662.312H1090.72C1090.98 664.712 1092.45 666.176 1094.49 666.176ZM1094.49 656.888C1092.54 656.888 1091.13 657.872 1090.77 660.344H1097.97C1097.9 658.448 1096.53 656.888 1094.49 656.888ZM1111.65 657.08H1105.65V668H1103.15V655.088H1111.65V657.08ZM1114.96 661.592C1114.96 664.76 1116.71 666.2 1118.58 666.2C1120.5 666.2 1122.23 664.736 1122.23 661.592C1122.23 658.4 1120.5 656.96 1118.58 656.96C1116.71 656.96 1114.96 658.328 1114.96 661.592ZM1118.58 654.848C1121.65 654.848 1124.87 656.912 1124.87 661.592C1124.87 666.248 1121.65 668.312 1118.58 668.312C1115.53 668.312 1112.32 666.248 1112.32 661.592C1112.32 656.912 1115.53 654.848 1118.58 654.848Z" fill="#EDEEEA"/>
<path d="M1793.26 655.088V668H1776.8V655.088H1779.3V666.008H1783.78V655.088H1786.28V666.008H1790.77V655.088H1793.26ZM1796.74 655.088H1799.24V656.984C1800.03 655.64 1801.35 654.848 1803.27 654.848C1806.27 654.848 1808.84 657.344 1808.84 661.568C1808.84 665.792 1806.27 668.312 1803.27 668.312C1801.35 668.312 1800.03 667.52 1799.24 666.176V672.2H1796.74V655.088ZM1799.14 661.568C1799.14 664.76 1800.77 666.224 1802.69 666.224C1804.78 666.224 1806.17 664.472 1806.17 661.568C1806.17 658.664 1804.78 656.936 1802.69 656.936C1800.77 656.936 1799.14 658.376 1799.14 661.568ZM1813.89 668H1811.44V655.088H1813.89V664.424L1820.2 655.088H1822.65V668H1820.2V658.688L1813.89 668ZM1834.05 650.6V655.112C1837.22 655.112 1840.51 657.2 1840.51 661.616C1840.51 666.2 1837.2 668.12 1834.05 668.12V672.2H1831.65V668.12C1828.48 668.12 1825.29 666.2 1825.29 661.592C1825.29 657.176 1828.48 655.112 1831.65 655.112V650.6H1834.05ZM1831.65 666.056V657.176C1829.83 657.176 1827.79 658.544 1827.79 661.688C1827.79 664.76 1829.83 666.056 1831.65 666.056ZM1834.05 657.176V666.056C1835.88 666.056 1837.92 664.784 1837.92 661.712C1837.92 658.592 1835.88 657.176 1834.05 657.176ZM1852.74 657.08H1848.21V668H1845.71V657.08H1841.15V655.088H1852.74V657.08ZM1862.16 662.792V661.856C1858.15 662.24 1856.04 662.816 1856.04 664.472C1856.04 665.648 1856.95 666.392 1858.49 666.392C1860.53 666.392 1862.16 665.36 1862.16 662.792ZM1857.93 668.312C1855.32 668.312 1853.33 666.872 1853.33 664.52C1853.33 661.376 1857.05 660.512 1862.04 660.008V659.744C1862.04 657.464 1860.84 656.696 1859.25 656.696C1857.53 656.696 1856.54 657.56 1856.45 659.168H1853.93C1854.12 656.408 1856.4 654.776 1859.35 654.776C1862.69 654.776 1864.58 656.384 1864.56 660.248C1864.56 660.56 1864.51 662.792 1864.51 663.344C1864.51 665.288 1864.63 666.848 1864.87 668H1862.47C1862.37 667.496 1862.33 667.136 1862.25 666.296C1861.49 667.616 1860.05 668.312 1857.93 668.312Z" fill="#EDEEEA"/>
</svg>
