<svg width="1664" height="431" viewBox="0 0 1664 431" fill="none" xmlns="http://www.w3.org/2000/svg">
<path d="M0 22.6094H154.453C185.214 22.6094 211.831 27.2155 234.304 36.4277C256.961 45.64 274.368 59.2741 286.525 77.3301C298.682 95.3861 304.761 117.68 304.761 144.211C304.761 166.32 301.169 185.113 293.985 200.59C286.801 216.066 276.67 228.871 263.592 239.005C250.698 249.138 235.593 257.337 218.278 263.602L188.99 279.631H57.4708L56.9182 209.71H154.729C168.176 209.71 179.32 207.315 188.162 202.524C197.003 197.734 203.634 191.009 208.055 182.35C212.66 173.506 214.963 163.188 214.963 151.396C214.963 139.236 212.66 128.734 208.055 119.891C203.45 111.047 196.635 104.322 187.609 99.7158C178.767 94.9255 167.715 92.5303 154.453 92.5303H90.0744V425H0V22.6094ZM222.699 425L132.349 246.19L227.396 245.914L319.129 420.854V425H222.699Z" fill="#EDEEEA"/>
<path d="M326.335 278.525V272.722C326.335 250.797 329.466 230.622 335.729 212.197C341.992 193.589 351.202 177.467 363.359 163.833C375.516 150.199 390.437 139.605 408.12 132.051C425.803 124.312 446.065 120.443 468.906 120.443C492.116 120.443 512.562 124.312 530.245 132.051C548.113 139.605 563.125 150.199 575.282 163.833C587.44 177.467 596.65 193.589 602.913 212.197C609.175 230.622 612.307 250.797 612.307 272.722V278.525C612.307 300.266 609.175 320.441 602.913 339.05C596.65 357.474 587.44 373.596 575.282 387.414C563.125 401.048 548.205 411.642 530.522 419.196C512.838 426.75 492.484 430.527 469.459 430.527C446.618 430.527 426.264 426.75 408.396 419.196C390.529 411.642 375.516 401.048 363.359 387.414C351.202 373.596 341.992 357.474 335.729 339.05C329.466 320.441 326.335 300.266 326.335 278.525ZM412.817 272.722V278.525C412.817 290.317 413.738 301.372 415.58 311.689C417.606 322.007 420.83 331.035 425.251 338.773C429.671 346.512 435.474 352.592 442.658 357.014C450.026 361.251 458.959 363.37 469.459 363.37C479.958 363.37 488.8 361.251 495.984 357.014C503.168 352.592 508.97 346.512 513.391 338.773C517.812 331.035 520.943 322.007 522.785 311.689C524.811 301.372 525.824 290.317 525.824 278.525V272.722C525.824 261.114 524.811 250.244 522.785 240.11C520.943 229.793 517.812 220.673 513.391 212.75C508.97 204.827 503.076 198.655 495.708 194.233C488.524 189.812 479.59 187.601 468.906 187.601C458.591 187.601 449.841 189.812 442.658 194.233C435.474 198.655 429.671 204.827 425.251 212.75C420.83 220.673 417.606 229.793 415.58 240.11C413.738 250.244 412.817 261.114 412.817 272.722Z" fill="#EDEEEA"/>
<path d="M635.262 0.5H721.468V353.974L712.626 425H635.262V0.5ZM907.972 272.169V277.973C907.972 300.635 905.577 321.27 900.788 339.879C896.183 358.488 889.091 374.609 879.513 388.243C869.934 401.693 857.869 412.103 843.317 419.473C828.765 426.842 811.635 430.527 791.925 430.527C773.689 430.527 758.032 426.75 744.954 419.196C731.876 411.458 720.916 400.772 712.074 387.138C703.232 373.504 696.048 357.566 690.522 339.326C685.181 321.086 681.036 301.464 678.089 280.46V270.511C681.036 249.507 685.181 229.885 690.522 211.645C696.048 193.404 703.232 177.467 712.074 163.833C720.916 150.199 731.783 139.605 744.678 132.051C757.756 124.312 773.321 120.443 791.373 120.443C811.266 120.443 828.489 124.22 843.041 131.774C857.777 139.328 869.934 149.923 879.513 163.557C889.091 177.007 896.183 193.036 900.788 211.645C905.577 230.069 907.972 250.244 907.972 272.169ZM821.766 277.973V272.169C821.766 260.746 820.937 249.967 819.279 239.834C817.805 229.701 815.134 220.765 811.266 213.026C807.582 205.104 802.332 198.932 795.517 194.51C788.886 189.904 780.32 187.601 769.821 187.601C759.506 187.601 750.756 189.351 743.572 192.852C736.388 196.352 730.586 201.327 726.165 207.775C721.744 214.04 718.521 221.686 716.495 230.714C714.469 239.742 713.363 249.783 713.179 260.838V290.133C713.363 304.872 715.297 317.77 718.981 328.824C722.665 339.879 728.652 348.446 736.941 354.526C745.23 360.422 756.374 363.37 770.374 363.37C781.057 363.37 789.715 361.343 796.346 357.29C803.161 353.052 808.319 347.157 811.819 339.603C815.503 332.049 818.082 323.021 819.555 312.519C821.029 302.017 821.766 290.501 821.766 277.973Z" fill="#EDEEEA"/>
<path d="M918.77 278.525V272.722C918.77 250.797 921.901 230.622 928.164 212.197C934.427 193.589 943.637 177.467 955.794 163.833C967.952 150.199 982.872 139.605 1000.56 132.051C1018.24 124.312 1038.5 120.443 1061.34 120.443C1084.55 120.443 1105 124.312 1122.68 132.051C1140.55 139.605 1155.56 150.199 1167.72 163.833C1179.88 177.467 1189.09 193.589 1195.35 212.197C1201.61 230.622 1204.74 250.797 1204.74 272.722V278.525C1204.74 300.266 1201.61 320.441 1195.35 339.05C1189.09 357.474 1179.88 373.596 1167.72 387.414C1155.56 401.048 1140.64 411.642 1122.96 419.196C1105.27 426.75 1084.92 430.527 1061.89 430.527C1039.05 430.527 1018.7 426.75 1000.83 419.196C982.964 411.642 967.952 401.048 955.794 387.414C943.637 373.596 934.427 357.474 928.164 339.05C921.901 320.441 918.77 300.266 918.77 278.525ZM1005.25 272.722V278.525C1005.25 290.317 1006.17 301.372 1008.02 311.689C1010.04 322.007 1013.27 331.035 1017.69 338.773C1022.11 346.512 1027.91 352.592 1035.09 357.014C1042.46 361.251 1051.39 363.37 1061.89 363.37C1072.39 363.37 1081.24 361.251 1088.42 357.014C1095.6 352.592 1101.41 346.512 1105.83 338.773C1110.25 331.035 1113.38 322.007 1115.22 311.689C1117.25 301.372 1118.26 290.317 1118.26 278.525V272.722C1118.26 261.114 1117.25 250.244 1115.22 240.11C1113.38 229.793 1110.25 220.673 1105.83 212.75C1101.41 204.827 1095.51 198.655 1088.14 194.233C1080.96 189.812 1072.03 187.601 1061.34 187.601C1051.03 187.601 1042.28 189.812 1035.09 194.233C1027.91 198.655 1022.11 204.827 1017.69 212.75C1013.27 220.673 1010.04 229.793 1008.02 240.11C1006.17 250.244 1005.25 261.114 1005.25 272.722Z" fill="#EDEEEA"/>
<path d="M1379.39 125.971V186.495H1202V125.971H1379.39ZM1242.62 51.9043H1329.1V331.312C1329.1 339.603 1330.11 345.959 1332.14 350.381C1334.17 354.803 1337.48 357.935 1342.09 359.777C1346.69 361.436 1352.59 362.265 1359.77 362.265C1364.93 362.265 1369.35 362.08 1373.03 361.712C1376.72 361.343 1380.12 360.883 1383.26 360.33V422.789C1375.89 425.184 1368.06 427.027 1359.77 428.316C1351.48 429.79 1342.45 430.527 1332.69 430.527C1314.09 430.527 1297.97 427.487 1284.34 421.407C1270.89 415.327 1260.58 405.746 1253.39 392.665C1246.21 379.399 1242.62 362.173 1242.62 340.984V51.9043Z" fill="#EDEEEA"/>
<path d="M1378.03 278.525V272.722C1378.03 250.797 1381.16 230.622 1387.42 212.197C1393.68 193.589 1402.89 177.467 1415.05 163.833C1427.21 150.199 1442.13 139.605 1459.81 132.051C1477.5 124.312 1497.76 120.443 1520.6 120.443C1543.81 120.443 1564.26 124.312 1581.94 132.051C1599.81 139.605 1614.82 150.199 1626.98 163.833C1639.13 177.467 1648.34 193.589 1654.61 212.197C1660.87 230.622 1664 250.797 1664 272.722V278.525C1664 300.266 1660.87 320.441 1654.61 339.05C1648.34 357.474 1639.13 373.596 1626.98 387.414C1614.82 401.048 1599.9 411.642 1582.21 419.196C1564.53 426.75 1544.18 430.527 1521.15 430.527C1498.31 430.527 1477.96 426.75 1460.09 419.196C1442.22 411.642 1427.21 401.048 1415.05 387.414C1402.89 373.596 1393.68 357.474 1387.42 339.05C1381.16 320.441 1378.03 300.266 1378.03 278.525ZM1464.51 272.722V278.525C1464.51 290.317 1465.43 301.372 1467.27 311.689C1469.3 322.007 1472.52 331.035 1476.94 338.773C1481.36 346.512 1487.17 352.592 1494.35 357.014C1501.72 361.251 1510.65 363.37 1521.15 363.37C1531.65 363.37 1540.49 361.251 1547.68 357.014C1554.86 352.592 1560.66 346.512 1565.08 338.773C1569.5 331.035 1572.64 322.007 1574.48 311.689C1576.5 301.372 1577.52 290.317 1577.52 278.525V272.722C1577.52 261.114 1576.5 250.244 1574.48 240.11C1572.64 229.793 1569.5 220.673 1565.08 212.75C1560.66 204.827 1554.77 198.655 1547.4 194.233C1540.22 189.812 1531.28 187.601 1520.6 187.601C1510.28 187.601 1501.53 189.812 1494.35 194.233C1487.17 198.655 1481.36 204.827 1476.94 212.75C1472.52 220.673 1469.3 229.793 1467.27 240.11C1465.43 250.244 1464.51 261.114 1464.51 272.722Z" fill="#EDEEEA"/>
</svg>
