<svg width="1664" height="249" viewBox="0 0 1664 249" fill="none" xmlns="http://www.w3.org/2000/svg">
<path d="M0 244.71V215.063L24.1573 210.2V50.9813L0 46.1185V16.1572H110.277C128.055 16.1572 143.375 18.9807 156.238 24.6279C169.206 30.1705 179.141 38.1707 186.043 48.6284C193.049 58.9815 196.553 71.3216 196.553 85.6487C196.553 99.0345 193.049 111.27 186.043 122.355C179.141 133.336 169.52 142.068 157.179 148.552C144.944 155.036 130.878 158.277 114.983 158.277L74.3543 157.964V210.2L98.3548 215.063V244.71H0ZM145.885 244.71L111.061 150.591L155.611 137.571L186.2 210.2L206.749 215.063V244.71H145.885ZM74.3543 119.375H110.12C122.146 119.375 131.244 116.76 137.414 111.532C143.584 106.198 146.669 98.5117 146.669 88.4722C146.669 78.2237 143.532 70.0667 137.257 64.0012C131.087 57.8312 122.094 54.7461 110.277 54.7461H74.3543V119.375Z" fill="#EDEEEA"/>
<path d="M293.351 248.005C276.201 248.005 261.508 244.397 249.272 237.181C237.141 229.861 227.834 219.717 221.35 206.749C214.971 193.677 211.781 178.565 211.781 161.415V158.277C211.781 141.336 214.971 126.381 221.35 113.414C227.834 100.446 237.141 90.3023 249.272 82.9819C261.403 75.557 275.992 71.8445 293.038 71.8445C310.084 71.8445 324.672 75.5047 336.803 82.8251C348.934 90.1455 358.189 100.289 364.568 113.257C371.052 126.225 374.294 141.231 374.294 158.277V161.415C374.294 178.461 371.052 193.52 364.568 206.592C358.189 219.56 348.934 229.704 336.803 237.024C324.777 244.344 310.293 248.005 293.351 248.005ZM293.351 209.729C300.672 209.729 306.58 207.742 311.077 203.769C315.679 199.795 319.025 194.2 321.117 186.984C323.313 179.768 324.411 171.245 324.411 161.415V158.277C324.411 148.761 323.313 140.447 321.117 133.336C319.025 126.12 315.679 120.473 311.077 116.394C306.476 112.316 300.463 110.277 293.038 110.277C285.717 110.277 279.756 112.316 275.155 116.394C270.554 120.473 267.207 126.12 265.116 133.336C263.024 140.447 261.978 148.761 261.978 158.277V161.415C261.978 171.245 263.024 179.82 265.116 187.141C267.207 194.357 270.554 199.951 275.155 203.925C279.756 207.795 285.822 209.729 293.351 209.729Z" fill="#EDEEEA"/>
<path d="M479.25 248.005C468.897 248.005 460.112 245.965 452.896 241.887C445.681 237.808 439.615 231.9 434.7 224.161L431.249 244.71H387.954V34.6673L363.953 29.8045V0H437.994V92.3939C442.7 85.8055 448.556 80.7335 455.563 77.1779C462.57 73.6223 470.674 71.8445 479.877 71.8445C493.472 71.8445 504.976 75.5047 514.388 82.8251C523.904 90.0409 531.12 100.342 536.035 113.728C541.055 127.009 543.565 142.695 543.565 160.787V164.082C543.565 181.023 541.055 195.821 536.035 208.475C531.12 221.024 523.852 230.749 514.231 237.652C504.714 244.554 493.054 248.005 479.25 248.005ZM463.563 209.259C474.439 209.259 482.126 205.442 486.622 197.808C491.224 190.069 493.525 178.827 493.525 164.082V160.787C493.525 150.225 492.479 141.231 490.387 133.806C488.4 126.381 485.263 120.682 480.975 116.708C476.688 112.63 471.093 110.59 464.191 110.59C458.125 110.59 452.844 112.054 448.347 114.983C443.955 117.806 440.504 121.623 437.994 126.434V196.082C440.922 200.474 444.53 203.769 448.818 205.965C453.105 208.161 458.021 209.259 463.563 209.259Z" fill="#EDEEEA"/>
<path d="M634.403 248.005C617.252 248.005 602.559 244.397 590.323 237.181C578.192 229.861 568.885 219.717 562.401 206.749C556.022 193.677 552.832 178.565 552.832 161.415V158.277C552.832 141.336 556.022 126.381 562.401 113.414C568.885 100.446 578.192 90.3023 590.323 82.9819C602.454 75.557 617.043 71.8445 634.089 71.8445C651.135 71.8445 665.723 75.5047 677.854 82.8251C689.985 90.1455 699.24 100.289 705.62 113.257C712.103 126.225 715.345 141.231 715.345 158.277V161.415C715.345 178.461 712.103 193.52 705.62 206.592C699.24 219.56 689.985 229.704 677.854 237.024C665.828 244.344 651.344 248.005 634.403 248.005ZM634.403 209.729C641.723 209.729 647.632 207.742 652.128 203.769C656.73 199.795 660.076 194.2 662.168 186.984C664.364 179.768 665.462 171.245 665.462 161.415V158.277C665.462 148.761 664.364 140.447 662.168 133.336C660.076 126.12 656.73 120.473 652.128 116.394C647.527 112.316 641.514 110.277 634.089 110.277C626.768 110.277 620.808 112.316 616.206 116.394C611.605 120.473 608.258 126.12 606.167 133.336C604.075 140.447 603.029 148.761 603.029 158.277V161.415C603.029 171.245 604.075 179.82 606.167 187.141C608.258 194.357 611.605 199.951 616.206 203.925C620.808 207.795 626.873 209.729 634.403 209.729Z" fill="#EDEEEA"/>
<path d="M789.085 248.162C772.352 248.162 759.542 243.665 750.652 234.671C741.763 225.573 737.319 211.194 737.319 191.533V109.963H715.044V74.9818H737.319V33.2555H787.202V74.9818H816.85V109.963H787.202V191.376C787.202 197.442 788.509 201.782 791.124 204.396C793.843 206.906 797.503 208.161 802.104 208.161C804.405 208.161 806.758 208.004 809.163 207.69C811.569 207.376 813.765 207.063 815.752 206.749L819.517 243.612C814.811 244.972 809.843 246.07 804.614 246.907C799.49 247.743 794.313 248.162 789.085 248.162Z" fill="#EDEEEA"/>
<path d="M901.099 248.005C883.949 248.005 869.256 244.397 857.02 237.181C844.889 229.861 835.582 219.717 829.098 206.749C822.719 193.677 819.529 178.565 819.529 161.415V158.277C819.529 141.336 822.719 126.381 829.098 113.414C835.582 100.446 844.889 90.3023 857.02 82.9819C869.151 75.557 883.739 71.8445 900.786 71.8445C917.832 71.8445 932.42 75.5047 944.551 82.8251C956.682 90.1455 965.937 100.289 972.316 113.257C978.8 126.225 982.042 141.231 982.042 158.277V161.415C982.042 178.461 978.8 193.52 972.316 206.592C965.937 219.56 956.682 229.704 944.551 237.024C932.525 244.344 918.041 248.005 901.099 248.005ZM901.099 209.729C908.42 209.729 914.328 207.742 918.825 203.769C923.427 199.795 926.773 194.2 928.865 186.984C931.061 179.768 932.159 171.245 932.159 161.415V158.277C932.159 148.761 931.061 140.447 928.865 133.336C926.773 126.12 923.427 120.473 918.825 116.394C914.224 112.316 908.211 110.277 900.786 110.277C893.465 110.277 887.504 112.316 882.903 116.394C878.301 120.473 874.955 126.12 872.863 133.336C870.772 140.447 869.726 148.761 869.726 158.277V161.415C869.726 171.245 870.772 179.82 872.863 187.141C874.955 194.357 878.301 199.951 882.903 203.925C887.504 207.795 893.57 209.729 901.099 209.729Z" fill="#EDEEEA"/>
<path d="M1148.82 248.005C1131.14 248.005 1115.25 246.175 1101.13 242.514C1087.01 238.854 1073.05 232.266 1059.24 222.749V165.493H1097.99L1102.85 197.023C1106.83 200.893 1113 204.082 1121.36 206.592C1129.73 209.102 1138.88 210.357 1148.82 210.357C1156.45 210.357 1162.88 209.363 1168.11 207.376C1173.34 205.285 1177.31 202.357 1180.03 198.592C1182.75 194.723 1184.11 190.174 1184.11 184.945C1184.11 179.925 1182.86 175.48 1180.35 171.611C1177.94 167.637 1173.91 163.977 1168.27 160.63C1162.62 157.284 1154.99 153.99 1145.36 150.748C1126.54 144.996 1111.01 138.931 1098.78 132.552C1086.64 126.068 1077.55 118.434 1071.48 109.649C1065.52 100.76 1062.54 89.884 1062.54 77.0211C1062.54 64.5764 1066.04 53.6481 1073.05 44.2361C1080.16 34.7196 1089.89 27.2423 1102.23 21.8043C1114.57 16.3663 1128.79 13.5427 1144.89 13.3336C1162.99 12.9153 1178.99 14.85 1192.89 19.1376C1206.8 23.4253 1218.93 29.5953 1229.29 37.6478V90.8252H1191.95L1185.68 59.9227C1181.91 57.7266 1176.69 55.7919 1169.99 54.1187C1163.4 52.4454 1156.08 51.6088 1148.03 51.6088C1141.13 51.6088 1135.01 52.6023 1129.68 54.5893C1124.45 56.4716 1120.27 59.3475 1117.13 63.2169C1114.1 66.9816 1112.58 71.6353 1112.58 77.1779C1112.58 81.6747 1113.89 85.701 1116.5 89.2566C1119.12 92.8122 1123.61 96.2632 1129.99 99.6097C1136.37 102.852 1145.21 106.46 1156.5 110.433C1182.02 117.754 1201.37 127.166 1214.54 138.669C1227.82 150.173 1234.46 165.493 1234.46 184.631C1234.46 197.912 1230.86 209.311 1223.64 218.828C1216.53 228.24 1206.54 235.455 1193.68 240.475C1180.82 245.495 1165.86 248.005 1148.82 248.005Z" fill="#EDEEEA"/>
<path d="M1236.2 244.71V215.063L1257.38 210.2V34.6673L1233.06 29.8045V0H1307.58V210.2L1328.6 215.063V244.71H1236.2Z" fill="#EDEEEA"/>
<path d="M1386.18 248.005C1369.45 248.005 1356.01 243.456 1345.86 234.357C1335.82 225.155 1330.8 212.762 1330.8 197.18C1330.8 186.618 1333.63 177.258 1339.28 169.101C1345.03 160.944 1353.6 154.565 1365 149.964C1376.4 145.362 1390.57 143.062 1407.51 143.062H1427.75V131.767C1427.75 124.238 1425.55 118.015 1421.16 113.1C1416.87 108.185 1410.28 105.727 1401.39 105.727C1397.11 105.727 1393.18 106.25 1389.63 107.296C1386.18 108.342 1382.99 109.858 1380.06 111.845L1376.45 133.806H1340.69L1340.06 88.3154C1349.26 83.6094 1359.09 79.6878 1369.55 76.5505C1380.01 73.4131 1391.62 71.8445 1404.37 71.8445C1427.07 71.8445 1445 77.0733 1458.18 87.5311C1471.36 97.9888 1477.94 112.891 1477.94 132.238V198.749C1477.94 201.154 1477.94 203.507 1477.94 205.808C1478.05 208.004 1478.31 210.148 1478.73 212.239L1496.61 215.063V244.71H1436.38C1435.12 242.305 1433.81 239.482 1432.45 236.24C1431.09 232.998 1430.15 229.756 1429.63 226.514C1424.3 233.102 1418.18 238.331 1411.28 242.201C1404.37 246.07 1396.01 248.005 1386.18 248.005ZM1400.61 211.769C1405.84 211.769 1410.91 210.618 1415.83 208.318C1420.74 206.017 1424.71 202.88 1427.75 198.906V173.18H1407.83C1399.04 173.18 1392.3 175.167 1387.59 179.141C1382.99 183.115 1380.69 188.03 1380.69 193.886C1380.69 199.533 1382.47 203.925 1386.02 207.063C1389.68 210.2 1394.54 211.769 1400.61 211.769Z" fill="#EDEEEA"/>
<path d="M1599.68 248.005C1589.33 248.005 1580.55 245.965 1573.33 241.887C1566.12 237.808 1560.05 231.9 1555.14 224.161L1551.68 244.71H1508.39V34.6673L1484.39 29.8045V0H1558.43V92.3939C1563.14 85.8055 1568.99 80.7335 1576 77.1779C1583 73.6223 1591.11 71.8445 1600.31 71.8445C1613.91 71.8445 1625.41 75.5047 1634.82 82.8251C1644.34 90.0409 1651.56 100.342 1656.47 113.728C1661.49 127.009 1664 142.695 1664 160.787V164.082C1664 181.023 1661.49 195.821 1656.47 208.475C1651.56 221.024 1644.29 230.749 1634.67 237.652C1625.15 244.554 1613.49 248.005 1599.68 248.005ZM1584 209.259C1594.87 209.259 1602.56 205.442 1607.06 197.808C1611.66 190.069 1613.96 178.827 1613.96 164.082V160.787C1613.96 150.225 1612.91 141.231 1610.82 133.806C1608.84 126.381 1605.7 120.682 1601.41 116.708C1597.12 112.63 1591.53 110.59 1584.63 110.59C1578.56 110.59 1573.28 112.054 1568.78 114.983C1564.39 117.806 1560.94 121.623 1558.43 126.434V196.082C1561.36 200.474 1564.97 203.769 1569.25 205.965C1573.54 208.161 1578.46 209.259 1584 209.259Z" fill="#EDEEEA"/>
</svg>
