<svg width="1664" height="478" viewBox="0 0 1664 478" fill="none" xmlns="http://www.w3.org/2000/svg">
<path d="M16.0183 470.939C11.3196 470.939 7.47523 469.444 4.48514 466.454C1.49505 463.037 0 459.192 0 454.921V38.444C0 33.7453 1.49505 29.9009 4.48514 26.9108C7.47523 23.9207 11.3196 22.4257 16.0183 22.4257H190.298C245.828 22.4257 289.398 35.2403 321.008 60.8697C352.617 86.0719 368.422 121.953 368.422 168.513C368.422 198.841 361.16 224.47 346.637 245.401C332.114 266.332 312.892 282.136 288.971 292.815L376.751 450.436C378.033 452.999 378.674 455.348 378.674 457.484C378.674 460.901 377.179 464.105 374.188 467.095C371.625 469.658 368.635 470.939 365.218 470.939H280.001C271.885 470.939 265.904 469.017 262.06 465.173C258.216 460.901 255.439 457.057 253.731 453.639L180.687 312.678H115.332V454.921C115.332 459.192 113.623 463.037 110.206 466.454C107.216 469.444 103.372 470.939 98.673 470.939H16.0183ZM115.332 221.694H189.016C209.093 221.694 224.043 216.782 233.868 206.957C244.12 197.132 249.245 183.891 249.245 167.231C249.245 150.572 244.333 137.117 234.509 126.865C225.111 116.613 209.947 111.488 189.016 111.488H115.332V221.694Z" fill="#EDEEEA"/>
<path d="M532.71 477.346C508.362 477.346 486.577 471.793 467.355 460.687C448.56 449.581 433.823 433.349 423.144 411.992C412.466 390.207 407.126 363.723 407.126 332.541V153.776C407.126 149.077 408.621 145.233 411.611 142.243C414.601 139.253 418.446 137.758 423.144 137.758H503.236C507.935 137.758 511.779 139.253 514.769 142.243C518.187 145.233 519.895 149.077 519.895 153.776V328.696C519.895 370.558 538.476 391.488 575.639 391.488C593.152 391.488 607.035 386.149 617.287 375.47C627.966 364.364 633.305 348.773 633.305 328.696V153.776C633.305 149.077 634.8 145.233 637.79 142.243C640.78 139.253 644.625 137.758 649.323 137.758H729.415C734.114 137.758 737.958 139.253 740.948 142.243C743.938 145.233 745.433 149.077 745.433 153.776V454.921C745.433 459.192 743.938 463.037 740.948 466.454C737.958 469.444 734.114 470.939 729.415 470.939H655.09C650.818 470.939 646.974 469.444 643.557 466.454C640.567 463.037 639.072 459.192 639.072 454.921V430.573C627.966 445.951 613.442 457.697 595.502 465.813C577.988 473.502 557.058 477.346 532.71 477.346Z" fill="#EDEEEA"/>
<path d="M998.924 477.346C975.43 477.346 955.567 473.289 939.335 465.173C923.104 457.057 909.862 446.805 899.61 434.417V454.921C899.61 459.192 897.901 463.037 894.484 466.454C891.494 469.444 887.863 470.939 883.592 470.939H811.189C806.49 470.939 802.646 469.444 799.656 466.454C796.665 463.037 795.17 459.192 795.17 454.921V32.0366C795.17 27.3379 796.665 23.4936 799.656 20.5035C802.646 17.5134 806.49 16.0183 811.189 16.0183H889.358C894.057 16.0183 897.901 17.5134 900.891 20.5035C903.881 23.4936 905.377 27.3379 905.377 32.0366V169.154C916.055 158.048 929.084 149.077 944.461 142.243C959.839 134.981 977.993 131.35 998.924 131.35C1020.28 131.35 1039.08 134.981 1055.31 142.243C1071.97 149.077 1086.06 159.116 1097.6 172.357C1109.13 185.172 1118.1 200.977 1124.51 219.772C1130.91 238.139 1134.55 258.643 1135.4 281.282C1135.83 289.825 1136.04 297.514 1136.04 304.348C1136.04 310.756 1135.83 318.231 1135.4 326.774C1134.55 350.695 1130.91 372.053 1124.51 390.847C1118.1 409.215 1108.92 425.02 1096.96 438.262C1085.42 451.076 1071.54 460.901 1055.31 467.736C1039.08 474.143 1020.28 477.346 998.924 477.346ZM964.324 391.488C978.847 391.488 990.167 388.498 998.283 382.518C1006.4 376.538 1012.17 368.422 1015.58 358.17C1019.43 347.918 1021.78 336.599 1022.63 324.211C1023.49 310.969 1023.49 297.728 1022.63 284.486C1021.78 272.098 1019.43 260.779 1015.58 250.527C1012.17 240.275 1006.4 232.159 998.283 226.179C990.167 220.199 978.847 217.209 964.324 217.209C951.082 217.209 940.19 220.199 931.647 226.179C923.104 231.732 916.696 239.207 912.425 248.605C908.153 257.575 905.804 267.399 905.377 278.078C904.949 286.194 904.736 294.097 904.736 301.786C904.736 309.474 904.949 317.59 905.377 326.133C906.231 337.667 908.58 348.345 912.425 358.17C916.269 367.995 922.463 376.111 931.006 382.518C939.549 388.498 950.655 391.488 964.324 391.488Z" fill="#EDEEEA"/>
<path d="M1189.77 470.939C1185.07 470.939 1181.23 469.444 1178.24 466.454C1175.25 463.037 1173.75 459.192 1173.75 454.921V153.776C1173.75 149.077 1175.25 145.233 1178.24 142.243C1181.23 139.253 1185.07 137.758 1189.77 137.758H1265.38C1270.08 137.758 1273.92 139.253 1276.91 142.243C1279.9 145.233 1281.4 149.077 1281.4 153.776V454.921C1281.4 459.192 1279.9 463.037 1276.91 466.454C1273.92 469.444 1270.08 470.939 1265.38 470.939H1189.77ZM1189.13 89.7027C1184.43 89.7027 1180.59 88.2077 1177.6 85.2175C1174.61 82.2275 1173.11 78.3831 1173.11 73.6844V16.0183C1173.11 11.7468 1174.61 8.11594 1177.6 5.12584C1180.59 1.70862 1184.43 0 1189.13 0H1266.02C1270.29 0 1273.92 1.70862 1276.91 5.12584C1280.33 8.11594 1282.04 11.7468 1282.04 16.0183V73.6844C1282.04 78.3831 1280.33 82.2275 1276.91 85.2175C1273.92 88.2077 1270.29 89.7027 1266.02 89.7027H1189.13Z" fill="#EDEEEA"/>
<path d="M1347.48 470.939C1342.78 470.939 1338.93 469.444 1335.94 466.454C1332.95 463.037 1331.46 459.192 1331.46 454.921V32.0366C1331.46 27.3379 1332.95 23.4936 1335.94 20.5035C1338.93 17.5134 1342.78 16.0183 1347.48 16.0183H1421.8C1426.07 16.0183 1429.71 17.5134 1432.7 20.5035C1436.11 23.4936 1437.82 27.3379 1437.82 32.0366V246.682L1526.88 148.65C1529.45 145.66 1532.22 143.097 1535.21 140.961C1538.2 138.826 1542.47 137.758 1548.03 137.758H1633.89C1637.73 137.758 1640.93 139.253 1643.5 142.243C1646.49 144.806 1647.98 148.009 1647.98 151.854C1647.98 153.562 1647.55 155.485 1646.7 157.62C1646.27 159.756 1644.99 161.465 1642.86 162.746L1527.52 287.049L1658.87 446.591C1662.29 450.009 1664 453.212 1664 456.202C1664 460.474 1662.51 464.105 1659.51 467.095C1656.95 469.658 1653.53 470.939 1649.26 470.939H1561.48C1555.08 470.939 1550.38 469.871 1547.39 467.736C1544.4 465.173 1541.62 462.61 1539.06 460.047L1437.82 338.307V454.921C1437.82 459.192 1436.11 463.037 1432.7 466.454C1429.71 469.444 1426.07 470.939 1421.8 470.939H1347.48Z" fill="#EDEEEA"/>
</svg>
