<svg width="1664" height="471" viewBox="0 0 1664 471" fill="none" xmlns="http://www.w3.org/2000/svg">
<path d="M107.539 364.863C86.4149 364.863 67.6917 362.782 51.3688 358.622C35.3661 354.141 19.8434 348.06 4.80083 340.379L0 259.245H8.64149L42.7274 318.295C51.3688 325.336 60.6504 330.777 70.5721 334.618C80.8139 338.458 91.2157 340.379 101.778 340.379C119.06 340.379 133.143 336.378 144.025 328.377C154.907 320.055 160.348 307.893 160.348 291.89C160.348 281.008 157.787 272.047 152.666 265.006C147.865 257.964 139.704 251.403 128.182 245.322C116.66 238.921 100.817 231.24 80.6539 222.278C57.93 212.357 40.487 200.515 28.3249 186.752C16.1628 172.99 10.0817 155.867 10.0817 135.383C10.0817 122.581 13.2823 110.419 19.6834 98.897C26.4045 87.055 35.2061 76.6532 46.0879 67.6917C57.2899 58.4101 69.612 51.2088 83.0543 46.0879C96.8167 40.9671 110.899 38.4066 125.302 38.4066C141.624 38.4066 157.307 40.327 172.35 44.1676C187.392 48.0083 201.315 53.4492 214.117 60.4904L218.918 137.304H210.756L177.15 83.0543C168.829 76.6532 160.668 71.8524 152.666 68.6518C144.985 65.1312 136.183 63.3709 126.262 63.3709C113.139 63.3709 102.258 67.5316 93.6161 75.8531C84.9746 84.1745 80.6539 95.2164 80.6539 108.979C80.6539 122.101 85.2947 132.983 94.5763 141.624C104.178 149.946 120.661 159.387 144.025 169.949C173.15 183.392 194.593 197.154 208.356 211.236C222.118 225.319 228.999 243.882 228.999 266.926C228.999 287.409 223.078 305.012 211.236 319.735C199.394 334.458 184.192 345.659 165.628 353.341C147.065 361.022 127.702 364.863 107.539 364.863Z" fill="#EDEEEA"/>
<path d="M247.85 470.481V462.8L280.016 447.437V193.953L249.29 171.389V165.629L336.665 136.343H342.426L346.267 165.629H349.148C360.99 155.387 372.352 148.025 383.233 143.545C394.435 138.744 406.437 136.343 419.24 136.343C433.322 136.343 446.444 140.664 458.606 149.306C471.089 157.627 481.01 169.629 488.372 185.312C495.733 200.995 499.413 219.718 499.413 241.482C499.413 267.086 494.293 289.17 484.051 307.733C473.809 325.976 460.207 340.059 443.244 349.98C426.281 359.902 407.878 364.863 388.034 364.863C380.673 364.863 373.472 364.543 366.431 363.903C359.709 363.263 353.308 361.982 347.227 360.062V447.437L384.674 462.8V470.481H247.85ZM379.393 175.71C373.632 175.71 368.191 176.51 363.07 178.111C358.269 179.711 352.988 182.111 347.227 185.312V324.056C356.509 334.618 369.151 339.899 385.154 339.899C392.835 339.899 400.196 337.498 407.238 332.697C414.599 327.896 420.52 319.415 425.001 307.253C429.801 295.091 432.202 277.808 432.202 255.404C432.202 227.879 426.761 207.716 415.879 194.914C404.997 182.111 392.835 175.71 379.393 175.71Z" fill="#EDEEEA"/>
<path d="M627.854 364.863C594.889 364.863 568.804 355.421 549.601 336.538C530.718 317.335 521.276 292.05 521.276 260.685C521.276 236.361 526.557 214.917 537.119 196.354C547.68 177.471 561.923 162.748 579.846 152.186C597.769 141.624 617.773 136.343 639.856 136.343C665.781 136.343 685.944 144.985 700.347 162.268C714.749 179.551 722.11 204.035 722.431 235.721L720.51 238.121H586.087V240.521C586.087 253.964 588.648 266.286 593.768 277.488C598.889 288.37 606.891 297.011 617.773 303.412C628.974 309.813 643.377 313.014 660.98 313.014C670.262 313.014 679.863 311.894 689.785 309.653C700.027 307.413 710.589 303.572 721.47 298.131H722.911V305.813C714.909 322.776 702.587 336.858 685.944 348.06C669.621 359.262 650.258 364.863 627.854 364.863ZM628.814 157.947C617.612 157.947 608.331 163.068 600.97 173.31C593.928 183.552 589.448 197.954 587.527 216.517H668.661C666.421 194.433 661.78 179.231 654.739 170.909C648.018 162.268 639.376 157.947 628.814 157.947Z" fill="#EDEEEA"/>
<path d="M849.562 364.863C829.079 364.863 810.996 360.542 795.313 351.901C779.63 343.259 767.468 331.097 758.827 315.414C750.185 299.732 745.865 281.488 745.865 260.685C745.865 236.361 750.825 214.917 760.747 196.354C770.989 177.471 785.071 162.748 802.994 152.186C821.238 141.624 842.361 136.343 866.365 136.343C881.408 136.343 895.01 138.424 907.172 142.585C919.334 146.745 928.456 152.506 934.537 159.868C939.658 165.949 942.218 170.749 942.218 174.27C942.218 178.111 940.138 181.951 935.977 185.792L913.413 204.995H910.053L893.25 181.471C887.809 174.11 882.368 168.349 876.927 164.188C871.486 159.707 864.285 157.467 855.323 157.467C840.601 157.467 829.399 164.828 821.718 179.551C814.356 193.953 810.676 213.317 810.676 237.641C810.676 251.403 813.076 264.045 817.877 275.567C822.678 287.089 830.199 296.211 840.441 302.932C851.003 309.653 864.605 313.014 881.248 313.014C890.209 313.014 899.811 311.894 910.053 309.653C920.295 307.413 930.856 303.572 941.738 298.131H943.178V305.813C935.177 322.776 923.015 336.858 906.692 348.06C890.689 359.262 871.646 364.863 849.562 364.863Z" fill="#EDEEEA"/>
<path d="M1047.06 364.863C1027.53 364.863 1011.53 360.702 999.048 352.381C986.566 344.059 980.325 332.377 980.325 317.335V162.748H945.759V156.027L989.927 141.144L1038.41 88.3352H1047.54V141.144H1114.27V162.748H1047.54V305.333C1047.54 313.654 1051.06 319.735 1058.1 323.576C1065.14 327.416 1073.46 329.337 1083.06 329.337C1089.14 329.337 1094.42 329.017 1098.91 328.377C1103.71 327.416 1108.35 326.456 1112.83 325.496L1114.27 326.456V334.618C1108.83 342.299 1100.03 349.34 1087.86 355.741C1075.7 361.822 1062.1 364.863 1047.06 364.863Z" fill="#EDEEEA"/>
<path d="M1124.66 360.062V352.381L1156.35 337.018V193.953L1126.1 171.389V165.629L1213.48 136.343H1219.24L1223.56 179.551H1225.96C1233.64 167.389 1240.52 158.267 1246.6 152.186C1252.68 145.785 1258.44 141.624 1263.88 139.704C1269.33 137.464 1275.25 136.343 1281.65 136.343C1284.21 136.343 1287.09 136.824 1290.29 137.784C1293.81 138.424 1296.85 139.224 1299.41 140.184C1309.01 143.065 1313.81 147.545 1313.81 153.626C1313.81 156.507 1313.17 159.227 1311.89 161.788L1300.37 192.993H1297.01L1284.53 188.672C1276.21 185.792 1267.73 184.352 1259.08 184.352C1245.64 184.352 1233.96 190.593 1224.04 203.075V337.018L1262.92 352.381V360.062H1124.66Z" fill="#EDEEEA"/>
<path d="M1367.92 364.383C1352.24 364.383 1338.8 359.742 1327.6 350.46C1316.4 340.859 1311.11 327.096 1311.75 309.173C1311.75 297.651 1313.99 287.89 1318.48 279.888C1322.96 271.567 1330.8 264.366 1342 258.284C1353.2 252.203 1368.88 246.602 1389.05 241.482L1434.18 230.44V200.675C1434.18 188.512 1430.49 178.751 1423.13 171.389C1415.77 164.028 1406.33 160.348 1394.81 160.348C1384.57 160.348 1377.21 162.588 1372.72 167.069C1368.24 171.55 1366 178.271 1366 187.232V209.316L1364.08 211.236H1332.4C1327.6 211.236 1324.24 210.116 1322.32 207.876C1320.4 205.635 1319.44 201.795 1319.44 196.354C1319.44 189.313 1322.16 182.431 1327.6 175.71C1333.36 168.989 1340.88 162.748 1350.16 156.987C1361.68 149.626 1372.4 144.345 1382.33 141.144C1392.57 137.944 1403.61 136.343 1415.45 136.343C1431.13 136.343 1445.54 138.424 1458.66 142.585C1471.78 146.745 1482.18 153.466 1489.87 162.748C1497.87 171.71 1501.87 183.392 1501.87 197.794V324.536C1506.99 329.657 1514.67 332.217 1524.91 332.217H1538.83L1540.27 333.657V340.379C1536.75 346.46 1530.67 352.061 1522.03 357.181C1513.71 362.302 1502.83 364.863 1489.39 364.863C1475.94 364.863 1464.9 362.142 1456.26 356.701C1447.94 350.94 1441.54 342.779 1437.06 332.217H1434.18C1426.17 341.179 1416.57 348.86 1405.37 355.261C1394.17 361.342 1381.69 364.383 1367.92 364.383ZM1375.13 295.731C1375.13 305.973 1377.85 313.654 1383.29 318.775C1389.05 323.576 1396.89 325.976 1406.81 325.976C1415.45 325.976 1424.57 324.056 1434.18 320.215V249.643C1418.17 253.164 1405.85 257.004 1397.21 261.165C1388.89 265.326 1383.13 270.127 1379.93 275.567C1376.73 281.008 1375.13 287.73 1375.13 295.731Z" fill="#EDEEEA"/>
<path d="M1535.82 360.062V352.381L1567.98 337.018V54.7294L1537.26 32.1655V26.4045L1629.91 0H1635.68V337.018L1664 352.381V360.062H1535.82Z" fill="#EDEEEA"/>
</svg>
