<svg width="1664" height="116" viewBox="0 0 1664 116" fill="none" xmlns="http://www.w3.org/2000/svg">
<path d="M0 115.802V79.8092L40.8435 85.7558V93.5802H120.027V79.8092L0 60.8741V6.25954H160.87V44.2863L120.027 38.0267V28.4809H40.8435V43.3474L160.87 62.2825V115.802H0Z" fill="#EDEEEA"/>
<path d="M168.696 53.2061V32.8626H188.257V6.25954H227.379V32.8626H265.719V53.2061H227.379V90.7634L236.769 95.4581H297.017V115.802H226.597L188.257 97.023V53.2061H168.696Z" fill="#EDEEEA"/>
<path d="M307.946 115.802V74.3321L408.882 61.813V53.2061H347.069V60.2481L307.946 64.1604V32.8626H448.004V115.802H419.992L412.011 107.977L404.187 115.802H307.946ZM347.069 95.4581H408.882V80.7482L347.069 88.4161V95.4581Z" fill="#EDEEEA"/>
<path d="M469.943 115.802V6.25954H509.065V95.4581H528.626V115.802H469.943Z" fill="#EDEEEA"/>
<path d="M522.342 53.2061V32.8626H581.025V115.802H541.903V53.2061H522.342ZM541.903 21.9084V0H581.025V21.9084H541.903Z" fill="#EDEEEA"/>
<path d="M602.909 115.802V32.8626H630.921L638.902 40.687L646.726 32.8626H704.627L742.967 51.6413V115.802H703.844V57.9008L694.455 53.2061H642.031V115.802H602.909Z" fill="#EDEEEA"/>
<path d="M749.293 53.2061V32.8626H807.977V115.802H768.854V53.2061H749.293ZM768.854 21.9084V0H807.977V21.9084H768.854Z" fill="#EDEEEA"/>
<path d="M829.861 115.802V84.5039L868.983 88.4161V95.4581H929.231V88.4161L829.861 74.3321V32.8626H968.353V64.1604L929.231 60.2481V53.2061H868.983V59.4657L968.353 73.5497V115.802H829.861Z" fill="#EDEEEA"/>
<path d="M976.245 53.2061V32.8626H995.806V6.25954H1034.93V32.8626H1073.27V53.2061H1034.93V90.7634L1044.32 95.4581H1104.57V115.802H1034.15L995.806 97.023V53.2061H976.245Z" fill="#EDEEEA"/>
<path d="M1173.46 115.802V6.25954H1336.05V115.802H1173.46ZM1214.3 93.5802H1295.21V28.4809H1214.3V93.5802Z" fill="#EDEEEA"/>
<path d="M1359.56 115.802V32.8626H1387.57L1395.55 40.687L1403.38 32.8626H1461.28L1499.62 51.6413V115.802H1460.5V57.9008L1451.11 53.2061H1398.68V115.802H1359.56Z" fill="#EDEEEA"/>
<path d="M1505.95 53.2061V32.8626H1664V74.3321L1564.63 88.4161V95.4581H1624.88V88.4161L1664 84.5039V115.802H1525.51V53.2061H1505.95ZM1564.63 68.229L1624.88 60.2481V53.2061H1564.63V68.229Z" fill="#EDEEEA"/>
</svg>
