<svg width="1664" height="121" viewBox="0 0 1664 121" fill="none" xmlns="http://www.w3.org/2000/svg">
<path d="M111.448 1.91054V12.1001H61.7743V93.6167H49.6742V12.1001H0V1.91054H111.448Z" fill="#EDEEEA"/>
<path d="M102.22 27.3845V39.3572C108.334 31.9698 118.396 25.4739 132.407 25.4739C139.922 25.4739 146.163 26.875 150.238 29.0403V40.6309C146.799 37.574 140.431 35.2814 131.006 35.2814C119.288 35.2814 102.22 41.3951 102.22 60.2458V93.6167H90.5021V27.3845H102.22Z" fill="#EDEEEA"/>
<path d="M148.973 75.4028C148.973 64.0669 158.525 57.5711 183.108 56.4248C213.804 55.0237 225.904 55.5332 225.904 48.6552C225.904 41.1404 215.332 35.2814 190.877 35.2814C174.956 35.2814 161.328 39.7393 152.921 46.3626V34.6445C163.111 28.1487 177.504 25.4739 191.259 25.4739C217.625 25.4739 236.73 32.8614 236.73 51.9668V93.6167H225.522V80.7524C217.37 89.7956 205.397 95.5272 185.4 95.5272C163.238 95.5272 148.973 89.5409 148.973 75.4028ZM225.522 61.6469V60.2458C220.045 64.449 205.525 64.7038 185.273 65.3406C169.479 65.8501 161.2 68.2701 161.2 75.4028C161.2 82.6629 170.626 85.7198 186.929 85.7198C207.818 85.7198 225.522 77.4408 225.522 61.6469Z" fill="#EDEEEA"/>
<path d="M261.561 27.3845V40.2488C267.802 32.6066 278.755 25.4739 295.696 25.4739C315.947 25.4739 331.869 34.8993 331.869 59.7364V93.6167H320.405V61.6469C320.405 43.0509 310.598 35.2814 292.893 35.2814C277.737 35.2814 261.561 40.8857 261.561 63.4301V93.6167H250.097V27.3845H261.561Z" fill="#EDEEEA"/>
<path d="M340.798 88.7767V78.4597C347.804 82.6629 361.814 85.9745 378.372 85.9745C397.733 85.9745 408.814 81.1345 408.814 74.6386C408.814 69.0344 401.554 67.5059 376.589 64.7038C351.243 61.9017 340.162 57.4437 340.162 46.6173C340.162 34.8993 355.955 25.4739 383.34 25.4739C399.771 25.4739 411.743 28.1487 417.093 31.715V41.6499C408.814 36.9372 396.714 34.7719 383.34 34.7719C363.98 34.7719 351.625 39.612 351.625 45.8531C351.625 51.8394 359.267 53.2405 383.34 55.9153C411.616 59.0995 420.532 63.6848 420.532 74.3839C420.532 86.9935 404.356 95.5272 377.353 95.5272C361.05 95.5272 347.04 92.0883 340.798 88.7767Z" fill="#EDEEEA"/>
<path d="M425.619 60.5006C425.619 41.013 443.578 25.4739 471.472 25.4739C487.902 25.4739 499.875 30.9508 508.282 38.8477V27.3845H519.745V85.465C519.745 108.137 500.003 120.364 471.344 120.364C455.168 120.364 441.03 116.161 433.388 111.194V99.6031C442.431 106.099 455.296 110.557 472.109 110.557C494.398 110.557 508.282 102.278 508.282 87.2482V82.0261C500.13 89.6682 488.667 95.5272 472.109 95.5272C444.215 95.5272 425.619 78.5871 425.619 60.5006ZM437.337 60.5006C437.337 74.766 451.984 85.7198 473.764 85.7198C495.545 85.7198 510.192 74.766 510.192 60.5006C510.192 46.2352 495.545 35.2814 473.764 35.2814C451.984 35.2814 437.337 46.2352 437.337 60.5006Z" fill="#EDEEEA"/>
<path d="M529.982 60.5006C529.982 41.1404 548.833 25.4739 577.109 25.4739C605.512 25.4739 624.236 40.8857 624.236 59.8637V61.3922H541.573C542.082 78.7145 557.367 85.9745 584.369 85.9745C597.87 85.9745 610.607 82.7903 619.396 77.5681V88.1398C610.225 92.8525 596.979 95.5272 584.369 95.5272C548.578 95.5272 529.982 83.8092 529.982 60.5006ZM542.846 53.1131H611.499C607.932 42.5415 595.832 34.3898 577.109 34.3898C559.15 34.3898 546.795 42.4141 542.846 53.1131Z" fill="#EDEEEA"/>
<path d="M645.928 27.3845V40.2488C652.169 32.6066 663.123 25.4739 680.063 25.4739C700.315 25.4739 716.236 34.8993 716.236 59.7364V93.6167H704.773V61.6469C704.773 43.0509 694.966 35.2814 677.261 35.2814C662.104 35.2814 645.928 40.8857 645.928 63.4301V93.6167H634.465V27.3845H645.928Z" fill="#EDEEEA"/>
<path d="M807.192 93.6167V81.8987C798.913 89.4135 786.686 95.5272 770.382 95.5272C742.488 95.5272 724.529 79.9881 724.529 60.5006C724.529 42.4141 743.125 25.4739 771.019 25.4739C787.195 25.4739 799.041 31.4603 807.192 38.9751V1.91054H818.656V93.6167H807.192ZM809.103 60.5006C809.103 46.2352 794.455 35.2814 772.675 35.2814C750.895 35.2814 736.247 46.2352 736.247 60.5006C736.247 74.766 750.895 85.7198 772.675 85.7198C794.455 85.7198 809.103 74.766 809.103 60.5006Z" fill="#EDEEEA"/>
<path d="M828.893 60.5006C828.893 41.1404 847.744 25.4739 876.02 25.4739C904.423 25.4739 923.146 40.8857 923.146 59.8637V61.3922H840.484C840.993 78.7145 856.277 85.9745 883.28 85.9745C896.781 85.9745 909.518 82.7903 918.306 77.5681V88.1398C909.136 92.8525 895.889 95.5272 883.28 95.5272C847.489 95.5272 828.893 83.8092 828.893 60.5006ZM841.757 53.1131H910.409C906.843 42.5415 894.743 34.3898 876.02 34.3898C858.061 34.3898 845.706 42.4141 841.757 53.1131Z" fill="#EDEEEA"/>
<path d="M945.094 27.3845V39.3572C951.208 31.9698 961.27 25.4739 975.28 25.4739C982.795 25.4739 989.036 26.875 993.112 29.0403V40.6309C989.673 37.574 983.305 35.2814 973.879 35.2814C962.161 35.2814 945.094 41.3951 945.094 60.2458V93.6167H933.376V27.3845H945.094Z" fill="#EDEEEA"/>
<path d="M1030.07 47.7636C1030.07 20.1244 1063.69 0 1103.94 0C1121.52 0 1139.61 3.56635 1150.05 9.55272V22.5444C1142.15 16.1759 1125.47 10.4443 1103.94 10.4443C1070.44 10.4443 1042.17 26.1108 1042.17 47.7636C1042.17 69.4165 1070.44 84.9556 1103.94 84.9556C1120.5 84.9556 1131.96 82.6629 1139.73 79.4787V54.3868H1074.01V44.1973H1151.2V85.9745C1141.77 91.4514 1127.12 95.5272 1103.94 95.5272C1062.8 95.5272 1030.07 75.9123 1030.07 47.7636Z" fill="#EDEEEA"/>
<path d="M1177.58 27.3845V39.3572C1183.7 31.9698 1193.76 25.4739 1207.77 25.4739C1215.28 25.4739 1221.53 26.875 1225.6 29.0403V40.6309C1222.16 37.574 1215.79 35.2814 1206.37 35.2814C1194.65 35.2814 1177.58 41.3951 1177.58 60.2458V93.6167H1165.87V27.3845H1177.58Z" fill="#EDEEEA"/>
<path d="M1272.48 25.4739C1300.76 25.4739 1320.63 41.013 1320.63 60.5006C1320.63 79.9881 1300.76 95.5272 1272.48 95.5272C1244.21 95.5272 1224.34 80.2429 1224.34 60.5006C1224.34 41.013 1244.21 25.4739 1272.48 25.4739ZM1272.48 35.2814C1250.7 35.2814 1236.05 46.2352 1236.05 60.5006C1236.05 74.766 1250.7 85.7198 1272.48 85.7198C1294.26 85.7198 1308.91 74.766 1308.91 60.5006C1308.91 46.2352 1294.26 35.2814 1272.48 35.2814Z" fill="#EDEEEA"/>
<path d="M1337.21 27.3845V1.91054H1348.93V27.3845H1383.57V36.9372H1348.93V66.7417C1348.93 79.9881 1357.84 85.7198 1371.98 85.7198C1379.24 85.7198 1385.86 84.1913 1389.94 81.7713V91.7062C1386.37 94.2536 1379.11 95.5272 1370.96 95.5272C1352.75 95.5272 1337.21 87.3756 1337.21 68.2701V36.9372H1320.65V27.3845H1337.21Z" fill="#EDEEEA"/>
<path d="M1391.27 60.5006C1391.27 41.1404 1410.12 25.4739 1438.4 25.4739C1466.8 25.4739 1485.52 40.8857 1485.52 59.8637V61.3922H1402.86C1403.37 78.7145 1418.65 85.9745 1445.66 85.9745C1459.16 85.9745 1471.89 82.7903 1480.68 77.5681V88.1398C1471.51 92.8525 1458.27 95.5272 1445.66 95.5272C1409.87 95.5272 1391.27 83.8092 1391.27 60.5006ZM1404.13 53.1131H1472.79C1469.22 42.5415 1457.12 34.3898 1438.4 34.3898C1420.44 34.3898 1408.08 42.4141 1404.13 53.1131Z" fill="#EDEEEA"/>
<path d="M1491.29 88.7767V78.4597C1498.3 82.6629 1512.31 85.9745 1528.87 85.9745C1548.23 85.9745 1559.31 81.1345 1559.31 74.6386C1559.31 69.0344 1552.05 67.5059 1527.09 64.7038C1501.74 61.9017 1490.66 57.4437 1490.66 46.6173C1490.66 34.8993 1506.45 25.4739 1533.84 25.4739C1550.27 25.4739 1562.24 28.1487 1567.59 31.715V41.6499C1559.31 36.9372 1547.21 34.7719 1533.84 34.7719C1514.48 34.7719 1502.12 39.612 1502.12 45.8531C1502.12 51.8394 1509.76 53.2405 1533.84 55.9153C1562.11 59.0995 1571.03 63.6848 1571.03 74.3839C1571.03 86.9935 1554.85 95.5272 1527.85 95.5272C1511.55 95.5272 1497.54 92.0883 1491.29 88.7767Z" fill="#EDEEEA"/>
<path d="M1592.67 1.91054V52.8584H1595.48L1655.08 25.4739V35.2814L1605.28 58.2079V60.628L1664 93.6167H1643.88L1595.6 66.487H1592.67V93.6167H1581.21V1.91054H1592.67Z" fill="#EDEEEA"/>
</svg>
