<svg width="1664" height="192" viewBox="0 0 1664 192" fill="none" xmlns="http://www.w3.org/2000/svg">
<path d="M50.4937 106.11C50.4937 114.404 52.0386 121.64 55.1284 127.82C58.3808 133.837 63.0968 138.472 69.2764 141.724C75.6186 144.976 83.3431 146.603 92.4498 146.603C101.719 146.603 109.444 144.976 115.623 141.724C121.803 138.472 126.438 133.837 129.527 127.82C132.617 121.64 134.162 114.404 134.162 106.11V4.87862H184.9V108.549C184.9 125.299 180.997 139.935 173.191 152.457C165.548 164.816 154.815 174.492 140.992 181.485C127.169 188.315 110.989 191.73 92.4498 191.73C74.0737 191.73 57.893 188.315 43.9076 181.485C30.0848 174.492 19.2705 164.816 11.4648 152.457C3.82159 139.935 0 125.299 0 108.549V4.87862H50.4937V106.11Z" fill="#EDEEEA"/>
<path d="M195.168 48.5423H245.174L254.199 104.159V187.827H204.437V96.5967L195.168 48.5423ZM305.424 44.3955C318.759 44.3955 330.143 47.0787 339.575 52.4452C349.007 57.8117 356.162 65.3735 361.041 75.1308C366.082 84.888 368.603 96.4341 368.603 109.769V187.827H318.841V117.087C318.841 106.679 316.157 98.7108 310.791 93.1817C305.587 87.6525 298.025 84.888 288.105 84.888C281.275 84.888 275.258 86.3516 270.054 89.2788C265.013 92.2059 261.11 96.3528 258.346 101.719C255.581 107.086 254.199 113.428 254.199 120.746L238.831 112.696C240.783 97.8976 244.93 85.4572 251.272 75.3747C257.614 65.1296 265.42 57.4051 274.689 52.2012C283.959 46.9974 294.204 44.3955 305.424 44.3955Z" fill="#EDEEEA"/>
<path d="M384.473 0H434.479V89.0348L427.893 101.719V136.845L434.479 149.042V187.827H384.473V0ZM418.38 118.307C420.656 103.183 425.129 90.1732 431.796 79.2776C438.463 68.2194 447.001 59.6818 457.409 53.6648C467.979 47.4852 479.769 44.3955 492.779 44.3955C506.439 44.3955 518.392 47.4852 528.637 53.6648C539.044 59.8444 547.094 68.4633 552.786 79.5215C558.64 90.5797 561.567 103.508 561.567 118.307C561.567 132.78 558.64 145.627 552.786 156.848C547.094 167.906 539.044 176.525 528.637 182.704C518.392 188.721 506.439 191.73 492.779 191.73C479.606 191.73 467.816 188.721 457.409 182.704C447.001 176.525 438.463 167.906 431.796 156.848C425.129 145.789 420.656 132.942 418.38 118.307ZM511.317 118.307C511.317 111.314 509.854 105.134 506.927 99.7678C504.162 94.4013 500.259 90.1732 495.218 87.0834C490.177 83.9936 484.322 82.4487 477.655 82.4487C470.988 82.4487 464.645 83.9936 458.628 87.0834C452.611 90.1732 447.326 94.4013 442.773 99.7678C438.219 105.134 434.723 111.314 432.284 118.307C434.723 125.137 438.219 131.235 442.773 136.601C447.326 141.968 452.611 146.196 458.628 149.286C464.645 152.213 470.988 153.677 477.655 153.677C484.322 153.677 490.177 152.213 495.218 149.286C500.259 146.196 504.162 141.968 506.927 136.601C509.854 131.235 511.317 125.137 511.317 118.307Z" fill="#EDEEEA"/>
<path d="M656.323 191.73C638.435 191.73 622.823 188.721 609.488 182.704C596.153 176.525 585.746 167.906 578.265 156.848C570.785 145.627 567.044 132.78 567.044 118.307C567.044 103.508 570.785 90.5797 578.265 79.5215C585.746 68.4633 596.153 59.8444 609.488 53.6648C622.823 47.4852 638.435 44.3955 656.323 44.3955C674.049 44.3955 689.579 47.4852 702.914 53.6648C716.411 59.8444 726.9 68.4633 734.381 79.5215C741.861 90.5797 745.602 103.508 745.602 118.307C745.602 132.78 741.861 145.627 734.381 156.848C726.9 167.906 716.411 176.525 702.914 182.704C689.579 188.721 674.049 191.73 656.323 191.73ZM656.323 154.896C664.454 154.896 671.365 153.433 677.057 150.505C682.912 147.578 687.384 143.35 690.473 137.821C693.563 132.292 695.108 125.787 695.108 118.307C695.108 110.501 693.563 103.915 690.473 98.5481C687.384 93.019 682.912 88.7909 677.057 85.8637C671.365 82.9365 664.454 81.473 656.323 81.473C648.192 81.473 641.199 82.9365 635.345 85.8637C629.491 88.7909 625.019 93.019 621.929 98.5481C618.839 103.915 617.294 110.419 617.294 118.063C617.294 125.706 618.839 132.292 621.929 137.821C625.019 143.35 629.491 147.578 635.345 150.505C641.199 153.433 648.192 154.896 656.323 154.896Z" fill="#EDEEEA"/>
<path d="M816.828 191.73C803.818 191.73 792.679 189.047 783.409 183.68C774.302 178.314 767.31 170.752 762.431 160.994C757.552 151.075 755.113 139.529 755.113 126.356V48.5423H804.875V119.282C804.875 129.527 807.396 137.414 812.437 142.944C817.478 148.473 824.715 151.237 834.147 151.237C841.14 151.237 846.994 149.855 851.71 147.09C856.426 144.163 860.085 140.016 862.687 134.65C865.289 129.283 866.59 122.86 866.59 115.379L881.957 123.429C880.168 138.228 876.103 150.749 869.761 160.994C863.581 171.077 855.938 178.72 846.831 183.924C837.725 189.128 827.723 191.73 816.828 191.73ZM875.615 187.827L866.59 131.967V48.5423H916.352V139.772L925.377 187.827H875.615Z" fill="#EDEEEA"/>
<path d="M930.096 48.5423H980.101L989.127 104.159V187.827H939.365V96.5967L930.096 48.5423ZM1040.35 44.3955C1053.69 44.3955 1065.07 47.0787 1074.5 52.4452C1083.93 57.8117 1091.09 65.3735 1095.97 75.1308C1101.01 84.888 1103.53 96.4341 1103.53 109.769V187.827H1053.77V117.087C1053.77 106.679 1051.09 98.7108 1045.72 93.1817C1040.52 87.6525 1032.95 84.888 1023.03 84.888C1016.2 84.888 1010.19 86.3516 1004.98 89.2788C999.941 92.2059 996.038 96.3528 993.274 101.719C990.509 107.086 989.127 113.428 989.127 120.746L973.759 112.696C975.711 97.8976 979.858 85.4572 986.2 75.3747C992.542 65.1296 1000.35 57.4051 1009.62 52.2012C1018.89 46.9974 1029.13 44.3955 1040.35 44.3955Z" fill="#EDEEEA"/>
<path d="M1246.25 187.827L1239.66 135.626L1248.2 118.55L1239.9 97.0845L1251.61 0H1303.33L1288.93 114.404L1297.71 187.827H1246.25ZM1256.98 118.307C1254.7 132.942 1250.15 145.789 1243.32 156.848C1236.65 167.906 1228.11 176.525 1217.71 182.704C1207.46 188.721 1195.75 191.73 1182.58 191.73C1168.92 191.73 1156.89 188.721 1146.48 182.704C1136.23 176.525 1128.18 167.906 1122.33 156.848C1116.47 145.627 1113.55 132.78 1113.55 118.307C1113.55 103.508 1116.47 90.5797 1122.33 79.5215C1128.18 68.4633 1136.23 59.8444 1146.48 53.6648C1156.89 47.4852 1168.92 44.3955 1182.58 44.3955C1195.75 44.3955 1207.46 47.4852 1217.71 53.6648C1228.11 59.6818 1236.73 68.2194 1243.56 79.2776C1250.39 90.1732 1254.86 103.183 1256.98 118.307ZM1164.04 118.307C1164.04 125.137 1165.42 131.235 1168.19 136.601C1171.11 141.968 1175.1 146.196 1180.14 149.286C1185.18 152.213 1190.95 153.677 1197.46 153.677C1204.29 153.677 1210.71 152.213 1216.73 149.286C1222.75 146.196 1228.03 141.968 1232.59 136.601C1237.14 131.235 1240.55 125.137 1242.83 118.307C1240.55 111.314 1237.14 105.134 1232.59 99.7678C1228.03 94.4013 1222.75 90.1732 1216.73 87.0834C1210.71 83.9936 1204.29 82.4487 1197.46 82.4487C1190.95 82.4487 1185.18 83.9936 1180.14 87.0834C1175.1 90.1732 1171.11 94.4013 1168.19 99.7678C1165.42 105.134 1164.04 111.314 1164.04 118.307Z" fill="#EDEEEA"/>
<path d="M1392.41 191.73C1375.5 191.73 1360.38 188.64 1347.04 182.46C1333.87 176.281 1323.46 167.662 1315.82 156.604C1308.18 145.383 1304.35 132.373 1304.35 117.575C1304.35 103.102 1308.01 90.4171 1315.33 79.5215C1322.65 68.4633 1332.65 59.8444 1345.33 53.6648C1358.18 47.4852 1372.65 44.3955 1388.75 44.3955C1405.5 44.3955 1419.73 48.0544 1431.44 55.3723C1443.31 62.5276 1452.42 72.6914 1458.76 85.8637C1465.27 99.036 1468.52 114.566 1468.52 132.455H1344.6V102.451H1440.47L1424.12 112.94C1423.47 105.785 1421.69 99.7678 1418.76 94.8892C1415.83 89.8479 1411.93 86.0263 1407.05 83.4244C1402.33 80.8225 1396.64 79.5215 1389.97 79.5215C1382.66 79.5215 1376.4 80.9851 1371.19 83.9123C1365.99 86.8394 1361.92 90.905 1358.99 96.1088C1356.07 101.15 1354.6 107.086 1354.6 113.916C1354.6 122.697 1356.56 130.178 1360.46 136.357C1364.52 142.374 1370.38 147.009 1378.02 150.261C1385.83 153.514 1395.34 155.14 1406.56 155.14C1416.81 155.14 1426.97 153.839 1437.05 151.237C1447.3 148.473 1456.57 144.651 1464.86 139.772V171.483C1455.27 177.988 1444.29 183.03 1431.93 186.607C1419.73 190.022 1406.56 191.73 1392.41 191.73Z" fill="#EDEEEA"/>
<path d="M1606.92 187.827L1600.33 135.626L1608.87 118.55L1600.58 97.0845L1612.29 0H1664L1649.61 114.404L1658.39 187.827H1606.92ZM1617.65 118.307C1615.38 132.942 1610.82 145.789 1603.99 156.848C1597.33 167.906 1588.79 176.525 1578.38 182.704C1568.14 188.721 1556.43 191.73 1543.25 191.73C1529.59 191.73 1517.56 188.721 1507.15 182.704C1496.91 176.525 1488.86 167.906 1483 156.848C1477.15 145.627 1474.22 132.78 1474.22 118.307C1474.22 103.508 1477.15 90.5797 1483 79.5215C1488.86 68.4633 1496.91 59.8444 1507.15 53.6648C1517.56 47.4852 1529.59 44.3955 1543.25 44.3955C1556.43 44.3955 1568.14 47.4852 1578.38 53.6648C1588.79 59.6818 1597.41 68.2194 1604.24 79.2776C1611.07 90.1732 1615.54 103.183 1617.65 118.307ZM1524.72 118.307C1524.72 125.137 1526.1 131.235 1528.86 136.601C1531.79 141.968 1535.77 146.196 1540.81 149.286C1545.86 152.213 1551.63 153.677 1558.13 153.677C1564.96 153.677 1571.39 152.213 1577.4 149.286C1583.42 146.196 1588.71 141.968 1593.26 136.601C1597.81 131.235 1601.23 125.137 1603.51 118.307C1601.23 111.314 1597.81 105.134 1593.26 99.7678C1588.71 94.4013 1583.42 90.1732 1577.4 87.0834C1571.39 83.9936 1564.96 82.4487 1558.13 82.4487C1551.63 82.4487 1545.86 83.9936 1540.81 87.0834C1535.77 90.1732 1531.79 94.4013 1528.86 99.7678C1526.1 105.134 1524.72 111.314 1524.72 118.307Z" fill="#EDEEEA"/>
</svg>
