<svg width="223" height="71" viewBox="0 0 223 71" fill="none" xmlns="http://www.w3.org/2000/svg">
<path d="M25.7084 0C38.3736 0 47.4472 6.33259 47.4472 17.9581C47.4472 33.8368 30.9068 47.8252 11.72 61.7191H49.3375V69.753H0V62.0027C24.1962 44.1391 38.3736 31.2849 38.3736 19.0923C38.3736 11.909 33.7423 7.18323 25.5194 7.18323C18.1471 7.18323 11.0584 11.2474 10.7749 22.5894H1.89032C1.60678 8.97905 11.0584 0 25.7084 0Z" fill="#EDEEEA"/>
<path d="M101.59 35.4436C101.59 16.4458 94.785 7.18323 84.1047 7.18323C73.2353 7.18323 66.6192 16.4458 66.6192 35.4436C66.6192 54.6304 73.2353 63.7985 84.1047 63.7985C94.9741 63.7985 101.59 54.6304 101.59 35.4436ZM110.758 35.4436C110.758 57.0878 102.346 70.9817 84.1047 70.9817C65.8631 70.9817 57.4511 57.0878 57.4511 35.4436C57.4511 13.7994 65.8631 0 84.1047 0C102.346 0 110.758 13.7994 110.758 35.4436Z" fill="#EDEEEA"/>
<path d="M143.946 0C156.611 0 165.685 6.33259 165.685 17.9581C165.685 33.8368 149.144 47.8252 129.958 61.7191H167.575V69.753H118.238V62.0027C142.434 44.1391 156.611 31.2849 156.611 19.0923C156.611 11.909 151.98 7.18323 143.757 7.18323C136.385 7.18323 129.296 11.2474 129.012 22.5894H120.128C119.844 8.97905 129.296 0 143.946 0Z" fill="#EDEEEA"/>
<path d="M197.806 63.7985C206.879 63.7985 213.306 59.1672 213.306 50.5662C213.306 40.7365 204.516 37.523 193.552 37.523H192.135V29.6781H193.269C205.272 29.6781 211.51 26.37 211.51 18.3362C211.51 11.0584 205.461 7.18323 198.184 7.18323C189.016 7.18323 184.006 12.6652 183.25 20.51H174.365C175.405 8.41195 184.006 0 198.373 0C210.187 0 220.584 4.82033 220.584 17.391C220.584 24.4797 216.614 30.3397 209.431 33.2697C219.639 36.5778 222.474 43.1939 222.474 50.4717C222.474 64.2711 210.849 70.9817 197.711 70.9817C181.454 70.9817 174.365 60.963 173.326 49.5265H182.21C183.25 57.9385 188.07 63.7985 197.806 63.7985Z" fill="#EDEEEA"/>
</svg>
