<svg width="42" height="25" viewBox="0 0 42 25" fill="none" xmlns="http://www.w3.org/2000/svg">
<path d="M11.1534 11.604L11.0879 10.8365C8.95966 10.9286 7.94466 11.297 7.42078 11.6654C6.86417 12.0337 4.99788 14.3054 4.99788 14.8273C4.99788 15.3184 5.45627 15.3491 5.75094 15.3491C6.53675 15.3491 6.63498 15.2878 6.89691 15.2571L9.54901 14.9808L5.48901 19.0636H4.08111C2.70594 20.1381 0.479492 22.8702 0.479492 23.914C0.479492 24.0061 0.512234 24.0982 0.577718 24.1289C0.675944 24.1903 0.839654 24.1596 0.970621 24.1289C1.69094 23.9447 3.88465 22.6246 4.44127 22.0721L11.71 14.858L18.4876 14.7966L16.8832 17.5594C16.2611 18.6339 15.9992 19.1557 15.8027 20.1074C15.7045 20.5679 15.639 21.059 15.8027 21.4888C16.0319 22.1642 16.7195 22.5632 17.7018 22.5632C19.1751 22.5632 20.2556 21.4581 21.4671 20.3837C21.86 20.0153 23.6935 18.1734 23.6935 17.8357C23.6935 17.7129 23.5626 17.6515 23.3661 17.6515C22.1547 17.6515 21.5653 19.5548 20.2884 19.5548C20.0592 19.5548 19.7318 19.4013 19.7318 19.0329C19.7318 18.5111 20.1247 17.8664 21.7945 14.7966C23.6935 14.7966 24.6103 15.0729 25.4289 13.5686C25.8872 12.8012 26.4766 11.2663 26.4766 10.8058C26.4766 10.683 26.4439 10.5602 26.3784 10.4988C26.2474 10.3453 26.051 10.4067 25.6908 10.4374L23.6608 10.6523L28.0155 2.64005C28.1792 2.33307 28.2119 2.24097 28.2119 1.53491C28.2119 0.951646 28.1137 0.429776 27.3606 0C23.0387 2.02609 15.77 8.34994 12.8887 11.4505L11.1534 11.604ZM20.2556 10.8672L14.9842 11.3277C17.6363 8.25784 21.4998 5.21871 24.5776 3.13123L20.2556 10.8672Z" fill="white"/>
<path d="M38.1338 12.617C38.4612 12.2793 39.0505 12.003 39.0505 11.5426C39.0505 11.1742 38.5267 10.4374 37.4462 10.4374C35.7436 10.4374 32.5021 12.003 30.6358 13.1696C28.5404 14.4896 26.1175 16.6078 26.1175 18.8488C26.1175 20.1688 26.805 22.5632 28.0165 22.5632C28.6386 22.5632 29.7846 22.287 34.6631 17.6208C33.9755 19.1557 33.3207 20.0153 33.3207 21.5195C33.3207 22.6246 34.2375 23.1465 35.0887 23.1465C36.3002 23.1465 37.6754 22.1335 39.2142 20.7213C40.5567 19.4934 41.2442 18.8795 41.2442 18.6032C41.2442 18.5111 41.1788 18.419 41.0805 18.419C40.7858 18.419 40.4912 18.7567 39.7708 19.1864C38.5594 19.8925 37.97 20.1995 37.4462 20.1995C36.9878 20.1995 36.2675 19.9539 36.2675 19.0022C36.2675 18.1427 36.9878 17.2524 37.6099 16.3315C38.3302 15.2571 38.8213 14.7659 38.8213 14.244C38.8213 13.6914 38.4939 13.2617 38.1338 12.617ZM27.9837 19.0943C27.9837 16.7306 32.2729 13.9063 35.0887 13.9063C35.3179 13.9063 35.7763 13.937 35.7763 14.3054C35.7763 15.5026 30.9633 19.4934 28.8678 19.9539C28.7041 19.9846 28.5404 20.0153 28.4094 19.9539C28.1475 19.8618 27.9837 19.432 27.9837 19.0943Z" fill="white"/>
</svg>
