<svg width="1664" height="222" viewBox="0 0 1664 222" fill="none" xmlns="http://www.w3.org/2000/svg">
<path d="M0 219.32V0H41.9841L135.352 154.777H113.106L204.908 0H246.578L247.205 219.32H199.581L199.268 73.0023H208.041L134.725 196.135H111.853L36.9711 73.0023H47.6238V219.32H0Z" fill="#EDEEEA"/>
<path d="M363.469 221.827C345.506 221.827 329.527 218.067 315.532 210.547C301.746 203.028 290.78 192.793 282.634 179.842C274.697 166.683 270.728 151.749 270.728 135.038C270.728 118.119 274.697 103.185 282.634 90.2345C290.78 77.0753 301.746 66.8404 315.532 59.5297C329.527 52.0102 345.506 48.2504 363.469 48.2504C381.224 48.2504 397.098 52.0102 411.093 59.5297C425.088 66.8404 436.054 76.9709 443.991 89.9212C451.928 102.872 455.897 117.911 455.897 135.038C455.897 151.749 451.928 166.683 443.991 179.842C436.054 192.793 425.088 203.028 411.093 210.547C397.098 218.067 381.224 221.827 363.469 221.827ZM363.469 181.722C371.615 181.722 378.926 179.842 385.401 176.083C391.876 172.323 396.994 166.997 400.753 160.104C404.513 153.002 406.393 144.647 406.393 135.038C406.393 125.221 404.513 116.866 400.753 109.973C396.994 103.08 391.876 97.7541 385.401 93.9943C378.926 90.2345 371.615 88.3546 363.469 88.3546C355.323 88.3546 348.012 90.2345 341.537 93.9943C335.062 97.7541 329.84 103.08 325.871 109.973C322.112 116.866 320.232 125.221 320.232 135.038C320.232 144.647 322.112 153.002 325.871 160.104C329.84 166.997 335.062 172.323 341.537 176.083C348.012 179.842 355.323 181.722 363.469 181.722Z" fill="#EDEEEA"/>
<path d="M578.488 48.2504C591.856 48.2504 603.762 50.9658 614.206 56.3966C624.859 61.6185 633.214 69.7646 639.271 80.8351C645.329 91.6967 648.357 105.691 648.357 122.819V219.32H599.48V130.339C599.48 116.762 596.452 106.736 590.394 100.261C584.546 93.7854 576.191 90.5478 565.329 90.5478C557.601 90.5478 550.603 92.2189 544.337 95.5609C538.28 98.694 533.475 103.603 529.925 110.287C526.583 116.971 524.912 125.535 524.912 135.978V219.32H476.035V50.7569H522.718V97.4408L513.946 83.3416C520.003 72.0623 528.671 63.3939 539.951 57.3365C551.23 51.2791 564.076 48.2504 578.488 48.2504Z" fill="#EDEEEA"/>
<path d="M749.059 221.827C729.215 221.827 713.759 216.813 702.688 206.787C691.618 196.553 686.082 181.409 686.082 161.357V13.4725H734.959V160.73C734.959 167.832 736.839 173.367 740.599 177.336C744.359 181.096 749.476 182.976 755.951 182.976C763.68 182.976 770.259 180.887 775.69 176.709L788.85 211.174C783.836 214.725 777.779 217.44 770.677 219.32C763.784 220.991 756.578 221.827 749.059 221.827ZM660.077 92.1144V54.5167H776.944V92.1144H660.077Z" fill="#EDEEEA"/>
<path d="M860.464 221.827C846.051 221.827 832.161 220.156 818.793 216.813C805.634 213.263 795.19 208.876 787.462 203.654L803.754 168.563C811.482 173.367 820.568 177.336 831.012 180.469C841.665 183.393 852.109 184.855 862.344 184.855C873.623 184.855 881.56 183.498 886.156 180.782C890.96 178.067 893.362 174.307 893.362 169.503C893.362 165.534 891.482 162.61 887.722 160.73C884.171 158.641 879.367 157.075 873.31 156.031C867.252 154.986 860.568 153.942 853.258 152.897C846.156 151.853 838.95 150.495 831.639 148.824C824.328 146.944 817.644 144.229 811.587 140.678C805.529 137.127 800.621 132.323 796.861 126.266C793.31 120.208 791.535 112.375 791.535 102.767C791.535 92.1144 794.563 82.715 800.621 74.5688C806.887 66.4226 815.869 60.0519 827.566 55.4566C839.263 50.6525 853.258 48.2504 869.55 48.2504C881.038 48.2504 892.735 49.5037 904.641 52.0102C916.547 54.5167 926.469 58.172 934.406 62.9762L918.114 97.7541C909.968 92.9499 901.717 89.7123 893.362 88.0413C885.216 86.1614 877.278 85.2215 869.55 85.2215C858.688 85.2215 850.751 86.6836 845.738 89.6079C840.725 92.5322 838.218 96.2919 838.218 100.887C838.218 105.065 839.994 108.198 843.545 110.287C847.305 112.375 852.213 114.046 858.271 115.3C864.328 116.553 870.908 117.702 878.009 118.746C885.32 119.582 892.631 120.939 899.941 122.819C907.252 124.699 913.832 127.414 919.68 130.965C925.738 134.307 930.646 139.007 934.406 145.065C938.166 150.913 940.046 158.641 940.046 168.25C940.046 178.694 936.913 187.989 930.646 196.135C924.38 204.072 915.294 210.338 903.388 214.934C891.691 219.529 877.383 221.827 860.464 221.827Z" fill="#EDEEEA"/>
<path d="M1041.32 221.827C1022.11 221.827 1005.19 218.067 990.568 210.547C976.155 203.028 964.98 192.793 957.043 179.842C949.106 166.683 945.137 151.749 945.137 135.038C945.137 118.119 949.001 103.185 956.73 90.2345C964.667 77.0753 975.424 66.8404 989.001 59.5297C1002.58 52.0102 1017.93 48.2504 1035.06 48.2504C1051.56 48.2504 1066.39 51.8013 1079.55 58.9031C1092.92 65.796 1103.47 75.8221 1111.19 88.9813C1118.92 101.932 1122.79 117.493 1122.79 135.665C1122.79 137.545 1122.68 139.738 1122.47 142.245C1122.26 144.542 1122.06 146.736 1121.85 148.824H984.928V120.313H1096.15L1077.36 128.772C1077.36 119.999 1075.58 112.375 1072.03 105.9C1068.48 99.4251 1063.57 94.412 1057.3 90.8611C1051.04 87.1014 1043.73 85.2215 1035.37 85.2215C1027.02 85.2215 1019.6 87.1014 1013.13 90.8611C1006.86 94.412 1001.95 99.5295 998.401 106.214C994.85 112.689 993.074 120.417 993.074 129.399V136.918C993.074 146.109 995.058 154.255 999.027 161.357C1003.2 168.25 1008.95 173.576 1016.26 177.336C1023.78 180.887 1032.55 182.662 1042.58 182.662C1051.56 182.662 1059.39 181.305 1066.08 178.589C1072.97 175.874 1079.24 171.801 1084.88 166.37L1110.88 194.568C1103.15 203.341 1093.44 210.129 1081.74 214.934C1070.05 219.529 1056.57 221.827 1041.32 221.827Z" fill="#EDEEEA"/>
<path d="M1142.79 219.32V50.7569H1189.48V98.3807L1182.9 84.5949C1187.91 72.6889 1195.95 63.7072 1207.02 57.6498C1218.09 51.3836 1231.57 48.2504 1247.44 48.2504V93.3677C1245.35 93.1588 1243.47 93.0543 1241.8 93.0543C1240.13 92.8455 1238.36 92.741 1236.48 92.741C1223.11 92.741 1212.25 96.6052 1203.89 104.334C1195.74 111.853 1191.67 123.655 1191.67 139.738V219.32H1142.79Z" fill="#EDEEEA"/>
<path d="M1264.28 219.32V50.7569H1310.96V98.3807L1304.38 84.5949C1309.39 72.6889 1317.44 63.7072 1328.51 57.6498C1339.58 51.3836 1353.05 48.2504 1368.92 48.2504V93.3677C1366.84 93.1588 1364.96 93.0543 1363.28 93.0543C1361.61 92.8455 1359.84 92.741 1357.96 92.741C1344.59 92.741 1333.73 96.6052 1325.37 104.334C1317.23 111.853 1313.15 123.655 1313.15 139.738V219.32H1264.28Z" fill="#EDEEEA"/>
<path d="M1477.83 219.32V186.422L1474.7 179.216V120.313C1474.7 109.869 1471.46 101.723 1464.99 95.8742C1458.72 90.0256 1449.01 87.1014 1435.85 87.1014C1426.87 87.1014 1417.99 88.5635 1409.22 91.4878C1400.65 94.2032 1393.34 97.963 1387.28 102.767L1369.74 68.6158C1378.93 62.1407 1390 57.1276 1402.95 53.5767C1415.9 50.0259 1429.06 48.2504 1442.43 48.2504C1468.12 48.2504 1488.07 54.3078 1502.27 66.4226C1516.47 78.5375 1523.58 97.4408 1523.58 123.133V219.32H1477.83ZM1426.45 221.827C1413.29 221.827 1402.01 219.633 1392.61 215.247C1383.21 210.652 1376.01 204.49 1370.99 196.761C1365.98 189.033 1363.47 180.365 1363.47 170.756C1363.47 160.73 1365.87 151.957 1370.68 144.438C1375.69 136.918 1383.52 131.07 1394.18 126.892C1404.83 122.506 1418.72 120.313 1435.85 120.313H1480.65V148.824H1441.17C1429.69 148.824 1421.75 150.704 1417.36 154.464C1413.19 158.224 1411.1 162.923 1411.1 168.563C1411.1 174.829 1413.5 179.842 1418.3 183.602C1423.32 187.153 1430.1 188.929 1438.67 188.929C1446.81 188.929 1454.13 187.049 1460.6 183.289C1467.08 179.32 1471.78 173.576 1474.7 166.057L1482.22 188.615C1478.67 199.477 1472.19 207.727 1462.79 213.367C1453.39 219.007 1441.28 221.827 1426.45 221.827Z" fill="#EDEEEA"/>
<path d="M1624.21 221.827C1604.37 221.827 1588.91 216.813 1577.84 206.787C1566.77 196.553 1561.23 181.409 1561.23 161.357V13.4725H1610.11V160.73C1610.11 167.832 1611.99 173.367 1615.75 177.336C1619.51 181.096 1624.63 182.976 1631.1 182.976C1638.83 182.976 1645.41 180.887 1650.84 176.709L1664 211.174C1658.99 214.725 1652.93 217.44 1645.83 219.32C1638.93 220.991 1631.73 221.827 1624.21 221.827ZM1535.23 92.1144V54.5167H1652.09V92.1144H1535.23Z" fill="#EDEEEA"/>
</svg>
