<svg width="1071" height="536" viewBox="0 0 1071 536" fill="none" xmlns="http://www.w3.org/2000/svg">
<path d="M181 366H343C455.114 366 546 275.114 546 163H292C230.696 163 181 212.696 181 274V366Z" fill="#5552FF"/>
<path d="M246 536H729V366H283C262.565 366 246 382.565 246 403V536Z" fill="#5552FF"/>
<path d="M488 163H913C945.033 163 971 137.033 971 105V0H640C556.053 0 488 68.0527 488 152V163Z" fill="#5552FF"/>
<path d="M1.20187 219.402H18.7754L80.6023 112.364H63.0288L63.9873 110.766H172.783L171.825 112.364H154.092L92.2647 219.402H109.838L108.88 221H0.24331L1.20187 219.402ZM36.3489 219.402H74.6912L136.518 112.364H98.1758L36.3489 219.402ZM163.953 222.598C147.178 222.598 142.385 213.012 142.385 198.953C142.385 160.611 189.674 109.168 229.454 109.168C246.708 109.168 250.702 120.671 250.702 135.369C250.702 175.788 203.254 222.598 163.953 222.598ZM164.752 221C197.023 221 236.963 157.735 236.963 122.269C236.963 114.281 235.845 110.766 228.496 110.766C196.224 110.766 156.285 177.545 156.285 209.497C156.285 216.047 157.403 221 164.752 221ZM219.779 219.402H237.352L299.179 112.364H281.606L282.564 110.766H392.958L392 112.364H374.266L312.439 219.402H330.013L329.054 221H218.82L219.779 219.402ZM316.753 112.364L264.032 203.746L351.101 122.109L356.693 112.364H316.753ZM254.926 219.402H294.866L347.586 128.02L260.518 209.657L254.926 219.402ZM440.961 162.528H443.357C443.357 215.568 409.328 222.598 392.234 222.598C369.389 222.598 362.679 213.012 362.679 198.953C362.679 160.611 409.967 109.168 449.748 109.168C461.73 109.168 468.919 112.204 473.392 116.677L476.747 110.766H479.143L453.901 154.54L455.179 149.108C462.369 118.434 458.215 110.766 448.789 110.766C416.518 110.766 376.578 177.545 376.578 209.497C376.578 215.888 378.814 220.68 393.033 220.68C409.009 220.68 440.961 212.693 440.961 162.528ZM433.832 219.402H451.405L513.232 112.364H495.658L496.617 110.766H590.396L589.437 112.364H571.864L523.776 151.345V219.402H541.35L540.391 221H432.873L433.832 219.402ZM507.8 161.57L568.349 112.364H529.208L467.381 219.402H507.8V161.57ZM1.20187 403.402H18.7754L80.6023 296.364H63.0288L63.9873 294.766H96.2587C116.388 295.086 135.08 302.275 135.08 320.807C135.08 340.777 113.832 356.912 77.0876 356.912H63.1885L36.3489 403.402H55.5201L54.5615 405H0.24331L1.20187 403.402ZM119.104 320.807C119.104 306.588 114.152 297.642 98.0161 296.523L64.1471 355.315H77.8864C93.2233 355.315 119.104 348.924 119.104 320.807ZM96.215 403.402H113.789L175.615 296.364H158.042L159 294.766H241.916L222.425 328.475V296.364H193.189L163.793 347.327H198.461L197.502 348.924H162.835L131.362 403.402H166.03L205.97 371.291L186.479 405H95.2565L96.215 403.402ZM234.217 403.402H251.791L259.459 389.983C235.975 388.705 223.513 376.882 223.513 360.108C223.513 329.434 257.223 310.103 306.269 308.985L313.618 296.364H296.044L297.003 294.766H349.883L348.924 296.364H331.191L323.842 309.144C350.842 310.902 359.469 327.676 359.469 341.576C359.469 371.291 325.6 389.024 277.033 390.142L269.364 403.402H286.938L285.979 405H233.259L234.217 403.402ZM239.01 367.457C239.01 374.326 242.205 386.628 260.418 388.385L305.31 310.742C264.891 312.499 239.01 337.422 239.01 367.457ZM344.132 331.67C344.132 322.245 340.936 312.18 322.884 310.742L277.991 388.385C318.41 386.628 344.132 362.025 344.132 331.67ZM330.082 403.402H347.655L409.482 296.364H391.908L392.867 294.766H475.782L456.291 328.475V296.364H427.055L397.66 347.327H432.328L431.369 348.924H396.701L365.229 403.402H399.896L439.836 371.291L420.346 405H329.123L330.082 403.402ZM429.619 403.402H447.193L509.02 296.364H491.446L492.405 294.766H524.676C544.806 295.086 563.497 302.275 563.497 320.807C563.497 340.777 542.249 356.912 505.505 356.912H491.606L464.766 403.402H483.937L482.979 405H428.661L429.619 403.402ZM547.522 320.807C547.522 306.588 542.569 297.642 526.433 296.523L492.564 355.315H506.304C521.641 355.315 547.522 348.924 547.522 320.807ZM524.632 403.402H542.206L604.033 296.364H586.459L587.418 294.766H670.333L650.842 328.475V296.364H621.606L592.211 347.327H626.878L625.92 348.924H591.252L559.779 403.402H594.447L634.387 371.291L614.896 405H523.674L524.632 403.402ZM624.01 403.402H641.584L703.411 296.364H685.837L686.796 294.766H797.189L796.231 296.364H778.497L716.671 403.402H734.244L733.286 405H623.052L624.01 403.402ZM691.588 347.327H731.528L760.924 296.364H720.984L691.588 347.327ZM659.157 403.402H699.097L730.57 348.924H690.63L659.157 403.402ZM845.04 346.528H847.436C847.436 399.568 813.407 406.598 796.313 406.598C773.468 406.598 766.758 397.012 766.758 382.953C766.758 344.611 814.046 293.168 853.826 293.168C865.808 293.168 872.998 296.204 877.471 300.677L880.826 294.766H883.222L857.98 338.54L859.258 333.108C866.447 302.434 862.294 294.766 852.868 294.766C820.597 294.766 780.657 361.545 780.657 393.497C780.657 399.888 782.893 404.68 797.112 404.68C813.088 404.68 845.04 396.693 845.04 346.528ZM884.118 406.598C867.344 406.598 862.551 397.012 862.551 382.953C862.551 344.611 909.84 293.168 949.62 293.168C966.874 293.168 970.868 304.671 970.868 319.369C970.868 359.788 923.419 406.598 884.118 406.598ZM884.917 405C917.189 405 957.128 341.735 957.128 306.269C957.128 298.281 956.01 294.766 948.661 294.766C916.39 294.766 876.45 361.545 876.45 393.497C876.45 400.047 877.568 405 884.917 405ZM939.944 403.402H957.518L1019.34 296.364H1001.77L1002.73 294.766H1031.65C1051.94 294.926 1070.63 301.156 1070.63 316.813C1070.63 334.227 1051.3 345.41 1018.07 348.924C1041.23 352.439 1051.46 361.386 1051.46 374.326C1051.46 394.775 1028.61 405 995.061 405H938.986L939.944 403.402ZM1053.05 316.813C1053.05 305.789 1049.06 298.6 1036.6 296.843L1007.36 347.327H1013.43C1028.13 347.327 1053.05 341.576 1053.05 316.813ZM1033.08 374.166C1033.24 366.658 1030.85 349.883 1006.56 348.924L975.091 403.402H988.99C1014.55 403.402 1032.6 397.491 1033.08 374.166Z" fill="#161616"/>
<path d="M873.654 92.0455C882.727 92.0455 889.154 87.4142 889.154 78.8132C889.154 68.9835 880.364 65.77 869.4 65.77H867.983V57.9251H869.117C881.12 57.9251 887.358 54.617 887.358 46.5832C887.358 39.3054 881.309 35.4302 874.032 35.4302C864.864 35.4302 859.854 40.9122 859.098 48.757H850.214C851.253 36.6589 859.854 28.247 874.221 28.247C886.035 28.247 896.432 33.0673 896.432 45.638C896.432 52.7267 892.462 58.5867 885.279 61.5167C895.487 64.8248 898.322 71.4409 898.322 78.7187C898.322 92.5181 886.697 99.2287 873.559 99.2287C857.302 99.2287 850.214 89.21 849.174 77.7735H858.058C859.098 86.1855 863.918 92.0455 873.654 92.0455Z" fill="#161616"/>
</svg>
