<svg width="967" height="482" viewBox="0 0 967 482" fill="none" xmlns="http://www.w3.org/2000/svg">
<path d="M177 374H339C451.114 374 542 283.114 542 171H288C226.696 171 177 220.696 177 282V374Z" fill="#5552FF"/>
<path d="M242 482H725V374H279C258.565 374 242 390.565 242 411V482Z" fill="#5552FF"/>
<path d="M484 171H909C941.033 171 967 145.033 967 113V63H592C532.353 63 484 111.353 484 171Z" fill="#5552FF"/>
<path d="M1.16577 332.402H18.7393L80.5662 225.364H59.7975L19.8576 257.475L39.3483 223.766H137.281L117.79 257.475V225.364H98.1397L36.3128 332.402H53.8864L52.9278 334H0.207218L1.16577 332.402ZM93.6515 332.402H111.385L142.378 278.883V225.364H124.805L125.763 223.766H228.169L227.21 225.364H209.477L158.354 281.599L128.958 332.402H146.532L145.573 334H92.6929L93.6515 332.402ZM158.354 225.364V279.362L207.081 225.364H158.354ZM165.2 332.402H182.774L244.6 225.364H227.027L227.985 223.766H260.257C280.386 224.086 299.078 231.275 299.078 249.807C299.078 269.777 277.83 285.912 241.086 285.912H227.187L200.347 332.402H219.518L218.56 334H164.241L165.2 332.402ZM283.102 249.807C283.102 235.588 278.15 226.642 262.014 225.523L228.145 284.315H241.884C257.221 284.315 283.102 277.924 283.102 249.807ZM258.337 332.402H275.911L337.738 225.364H320.164L321.123 223.766H404.038L384.547 257.475V225.364H355.311L325.915 276.327H360.583L359.625 277.924H324.957L293.484 332.402H328.152L368.092 300.291L348.601 334H257.379L258.337 332.402ZM423.342 332.402H440.916L502.743 225.364H481.974L442.034 257.475L461.525 223.766H559.457L539.967 257.475V225.364H520.316L458.49 332.402H476.063L475.104 334H422.384L423.342 332.402ZM550.741 335.598C533.966 335.598 529.173 326.012 529.173 311.953C529.173 273.611 576.462 222.168 616.242 222.168C633.496 222.168 637.49 233.671 637.49 248.369C637.49 288.788 590.041 335.598 550.741 335.598ZM551.539 334C583.811 334 623.751 270.735 623.751 235.269C623.751 227.281 622.632 223.766 615.283 223.766C583.012 223.766 543.072 290.545 543.072 322.497C543.072 329.047 544.19 334 551.539 334ZM648.546 334H607.168L608.127 332.402H625.86L687.687 225.364H670.113L671.072 223.766H706.219C728.585 223.766 739.449 239.582 739.449 259.552C739.449 299.652 697.752 334 648.546 334ZM725.71 246.452C725.71 231.754 719.639 225.364 705.26 225.364L643.433 332.402H649.345C691.361 332.402 725.71 288.788 725.71 246.452ZM710.004 332.402H727.738L791.322 222.168V332.402H808.895L807.937 334H709.046L710.004 332.402ZM752.5 293.261H775.346V253.801L752.5 293.261ZM729.974 332.402H775.346V294.859H751.542L729.974 332.402ZM790.727 332.402H808.46L839.453 278.883V225.364H821.88L822.838 223.766H925.244L924.285 225.364H906.552L855.429 281.599L826.033 332.402H843.607L842.648 334H789.768L790.727 332.402ZM855.429 225.364V279.362L904.156 225.364H855.429Z" fill="#161616"/>
<path d="M632.544 28.247C645.209 28.247 654.283 34.5796 654.283 46.2051C654.283 62.0838 637.742 76.0722 618.556 89.9661H656.173V98H606.835V90.2497C631.032 72.3861 645.209 59.5319 645.209 47.3393C645.209 40.1561 640.578 35.4302 632.355 35.4302C624.983 35.4302 617.894 39.4944 617.61 50.8364H608.726C608.442 37.2261 617.894 28.247 632.544 28.247Z" fill="#161616"/>
</svg>
