<svg width="801" height="502" viewBox="0 0 801 502" fill="none" xmlns="http://www.w3.org/2000/svg">
<g style="mix-blend-mode:luminosity">
<path d="M2.39185 211.594H28.8623L121.99 50.3648H95.5195L96.9634 47.9584H238.219L236.775 50.3648H210.305L137.872 109.081V211.594H164.343L162.899 214H0.948015L2.39185 211.594ZM113.808 124.482L205.011 50.3648H146.054L52.9263 211.594H113.808V124.482ZM324.05 211.594H350.521L443.649 50.3648H417.178L418.622 47.9584H467.231C497.552 48.4397 525.707 59.2685 525.707 87.1827C525.707 117.263 493.702 141.567 438.354 141.567H417.419L376.991 211.594H405.868L404.424 214H322.607L324.05 211.594ZM501.643 87.1827C501.643 65.7658 494.183 52.2899 469.878 50.6054L418.863 139.161H439.558C462.659 139.161 501.643 129.535 501.643 87.1827Z" fill="black"/>
</g>
<g style="mix-blend-mode:luminosity">
<path d="M175.563 134.288L239.469 215.993L217.672 144.001L322.409 48.1799L175.563 134.288ZM245.402 135.897L309.308 217.602L287.511 145.61L392.248 49.7888L245.402 135.897Z" fill="black"/>
</g>
<g style="mix-blend-mode:luminosity">
<path d="M399.184 338.641H403.092C403.092 425.139 347.598 436.602 319.721 436.602C282.464 436.602 271.522 420.97 271.522 398.043C271.522 335.514 348.64 251.622 413.514 251.622C433.054 251.622 444.778 256.572 452.073 263.867L457.544 254.227H461.452L420.288 325.614L422.372 316.756C434.096 266.733 427.322 254.227 411.95 254.227C359.322 254.227 294.188 363.131 294.188 415.238C294.188 425.66 297.836 433.476 321.024 433.476C347.077 433.476 399.184 420.449 399.184 338.641ZM585.504 431.391H614.163L714.99 256.833H686.331L687.894 254.227H735.051C768.139 254.488 798.622 264.649 798.622 290.181C798.622 318.58 767.097 336.817 712.906 342.549C750.683 348.281 767.357 362.871 767.357 383.974C767.357 417.323 730.101 433.997 675.388 433.997H583.941L585.504 431.391ZM769.963 290.181C769.963 272.204 763.449 260.48 743.128 257.614L695.45 339.944H705.35C729.319 339.944 769.963 330.564 769.963 290.181ZM737.396 383.713C737.656 371.468 733.748 344.112 694.147 342.549L642.822 431.391H665.488C707.174 431.391 736.614 421.752 737.396 383.713Z" fill="black"/>
</g>
<g style="mix-blend-mode:luminosity">
<path d="M639.498 333.367L563.72 250.482L593.235 326.383L488.142 438.53L639.498 333.367ZM563.975 337.438L488.196 254.553L517.711 330.454L412.619 442.601L563.975 337.438Z" fill="black"/>
</g>
<path d="M15.8 246.237V256.997H2.54V246.237H4.36V255.417H8.26V246.237H10.08V255.417H13.98V246.237H15.8ZM18.8877 246.237H20.7077V247.937C21.3677 246.797 22.4877 246.057 24.2277 246.057C26.7077 246.057 28.8277 248.137 28.8277 251.657C28.8277 255.237 26.7077 257.257 24.2277 257.257C22.4877 257.257 21.3677 256.517 20.7077 255.377V260.497H18.8877V246.237ZM20.6277 251.657C20.6277 254.497 22.1477 255.697 23.7677 255.697C25.6277 255.697 26.8477 254.237 26.8477 251.657C26.8477 249.077 25.6277 247.617 23.7677 247.617C22.1477 247.617 20.6277 248.817 20.6277 251.657ZM38.4552 256.997V248.877L32.8952 256.997H31.0752V246.237H32.8952V254.357L38.4552 246.237H40.2752V256.997H38.4552ZM49.8803 242.497V246.257C53.0203 246.257 55.4203 247.997 55.4203 251.657C55.4203 255.437 52.9803 257.097 49.8803 257.097V260.497H48.0603V257.097C44.9403 257.097 42.5203 255.437 42.5203 251.657C42.5203 247.997 44.9403 246.257 48.0603 246.257V242.497H49.8803ZM48.0603 255.537V247.817C45.9803 247.817 44.4603 249.077 44.4603 251.717C44.4603 254.337 45.9203 255.537 48.0603 255.537ZM49.8803 247.817V255.537C51.9603 255.537 53.4803 254.337 53.4803 251.717C53.4803 249.077 52.0203 247.817 49.8803 247.817ZM65.2456 247.817H61.5656V256.997H59.7456V247.817H56.0656V246.237H65.2456V247.817ZM67.8792 251.657C67.8792 254.537 69.4392 255.657 71.0992 255.657C72.7592 255.657 74.3192 254.417 74.3192 251.657C74.3192 248.777 72.7592 247.657 71.0992 247.657C69.4392 247.657 67.8792 248.717 67.8792 251.657ZM71.0992 246.057C73.5992 246.057 76.2592 247.757 76.2592 251.657C76.2592 255.557 73.5992 257.257 71.0992 257.257C68.5992 257.257 65.9392 255.557 65.9392 251.657C65.9392 247.757 68.5992 246.057 71.0992 246.057ZM78.5361 246.237H83.2161C85.3761 246.237 87.1361 246.797 87.1361 248.977C87.1361 250.117 86.6361 250.917 85.6361 251.337C86.7561 251.657 87.5761 252.417 87.5761 253.857C87.5761 256.097 85.8361 256.997 83.5361 256.997H78.5361V246.237ZM80.3561 250.757H83.0961C84.4361 250.757 85.2361 250.397 85.2361 249.177C85.2361 248.057 84.3961 247.817 83.0361 247.817H80.3561V250.757ZM80.3561 252.257V255.417H83.2561C84.8561 255.417 85.6761 254.957 85.6761 253.837C85.6761 252.637 84.8761 252.257 83.1961 252.257H80.3561ZM90.848 251.657C90.848 254.537 92.408 255.657 94.068 255.657C95.728 255.657 97.288 254.417 97.288 251.657C97.288 248.777 95.728 247.657 94.068 247.657C92.408 247.657 90.848 248.717 90.848 251.657ZM94.068 246.057C96.568 246.057 99.228 247.757 99.228 251.657C99.228 255.557 96.568 257.257 94.068 257.257C91.568 257.257 88.908 255.557 88.908 251.657C88.908 247.757 91.568 246.057 94.068 246.057ZM111.061 252.217H102.781C102.841 254.537 104.521 255.657 106.101 255.657C107.701 255.657 108.581 254.937 109.041 253.877H110.921C110.441 255.717 108.721 257.257 106.101 257.257C102.701 257.257 100.821 254.817 100.821 251.637C100.821 248.217 103.101 246.057 106.041 246.057C109.341 246.057 111.281 248.797 111.061 252.217ZM106.041 247.617C104.441 247.617 102.961 248.497 102.801 250.657H109.141C109.081 249.137 107.981 247.617 106.041 247.617Z" fill="black"/>
<path d="M205.3 246.237V256.997H203.52V248.357L200.06 256.997H198.76L195.32 248.477V256.997H193.54V246.237H196.14L199.48 254.517L202.7 246.237H205.3ZM217.784 252.217H209.504C209.564 254.537 211.244 255.657 212.824 255.657C214.424 255.657 215.304 254.937 215.764 253.877H217.644C217.164 255.717 215.444 257.257 212.824 257.257C209.424 257.257 207.544 254.817 207.544 251.637C207.544 248.217 209.824 246.057 212.764 246.057C216.064 246.057 218.004 248.797 217.784 252.217ZM212.764 247.617C211.164 247.617 209.684 248.497 209.524 250.657H215.864C215.804 249.137 214.704 247.617 212.764 247.617ZM229.889 255.417V259.377H228.129V256.997H220.249V259.377H218.489V255.417H218.969C220.189 255.417 220.829 253.817 220.989 249.697L221.129 246.237H228.389V255.417H229.889ZM226.569 255.417V247.817H222.889L222.789 249.877C222.629 253.057 222.169 254.617 221.329 255.417H226.569ZM239.104 256.997V248.877L233.544 256.997H231.724V246.237H233.544V254.357L239.104 246.237H240.924V256.997H239.104ZM250.689 252.497V251.817C247.389 252.137 245.289 252.637 245.289 254.117C245.289 255.137 246.069 255.817 247.369 255.817C249.069 255.817 250.689 255.037 250.689 252.497ZM246.969 257.257C244.949 257.257 243.269 256.137 243.269 254.157C243.269 251.617 246.149 250.857 250.549 250.377V250.117C250.549 248.137 249.469 247.497 248.109 247.497C246.589 247.497 245.729 248.297 245.649 249.637H243.769C243.929 247.317 246.009 246.017 248.089 246.017C251.069 246.017 252.389 247.417 252.369 250.457L252.349 252.937C252.329 254.757 252.409 255.977 252.629 256.997H250.789C250.729 256.597 250.669 256.157 250.649 255.517C249.989 256.637 248.889 257.257 246.969 257.257Z" fill="black"/>
<path d="M411.68 474.66C411.68 477.54 413.24 478.66 414.9 478.66C416.56 478.66 418.12 477.42 418.12 474.66C418.12 471.78 416.56 470.66 414.9 470.66C413.24 470.66 411.68 471.72 411.68 474.66ZM414.9 469.06C417.4 469.06 420.06 470.76 420.06 474.66C420.06 478.56 417.4 480.26 414.9 480.26C412.4 480.26 409.74 478.56 409.74 474.66C409.74 470.76 412.4 469.06 414.9 469.06Z" fill="black"/>
<path d="M702.46 480L698.76 475.22H697.38V480H695.54V469.24H697.38V473.64H698.72L702.14 469.24H704.3L700.24 474.32L704.72 480H702.46ZM713.838 480V471.88L708.278 480H706.458V469.24H708.278V477.36L713.838 469.24H715.658V480H713.838ZM718.743 469.24H720.563V470.94C721.223 469.8 722.343 469.06 724.083 469.06C726.563 469.06 728.683 471.14 728.683 474.66C728.683 478.24 726.563 480.26 724.083 480.26C722.343 480.26 721.223 479.52 720.563 478.38V483.5H718.743V469.24ZM720.483 474.66C720.483 477.5 722.003 478.7 723.623 478.7C725.483 478.7 726.703 477.24 726.703 474.66C726.703 472.08 725.483 470.62 723.623 470.62C722.003 470.62 720.483 471.82 720.483 474.66ZM738.311 480V471.88L732.751 480H730.931V469.24H732.751V477.36L738.311 469.24H740.131V480H738.311ZM751.716 469.24V480H749.896V470.82H746.276L746.116 473.42C745.856 477.76 744.916 480 742.416 480H742.076V478.42H742.276C743.236 478.42 744.156 477.38 744.376 472.92L744.536 469.24H751.716ZM763.298 469.24V480H761.478V470.82H757.858L757.698 473.42C757.438 477.76 756.498 480 753.998 480H753.658V478.42H753.858C754.818 478.42 755.738 477.38 755.958 472.92L756.118 469.24H763.298ZM773.76 480V471.88L768.2 480H766.38V469.24H768.2V477.36L773.76 469.24H775.58V480H773.76ZM787.225 478.42H788.725V482.58H787.005V480H778.665V469.24H780.485V478.42H785.405V469.24H787.225V478.42ZM799.96 475.22H791.68C791.74 477.54 793.42 478.66 795 478.66C796.6 478.66 797.48 477.94 797.94 476.88H799.82C799.34 478.72 797.62 480.26 795 480.26C791.6 480.26 789.72 477.82 789.72 474.64C789.72 471.22 792 469.06 794.94 469.06C798.24 469.06 800.18 471.8 799.96 475.22ZM794.94 470.62C793.34 470.62 791.86 471.5 791.7 473.66H798.04C797.98 472.14 796.88 470.62 794.94 470.62Z" fill="black"/>
</svg>
