<svg width="1211" height="81" viewBox="0 0 1211 81" fill="none" xmlns="http://www.w3.org/2000/svg">
<path d="M2.61128 56.4251C1.87444 56.4251 1.27931 56.3401 0.825872 56.17C0.372435 56.0567 0.145716 55.83 0.145716 55.4899C0.145716 54.8097 1.08093 54.2996 2.95136 53.9595C5.10518 53.5628 6.74889 52.911 7.88248 52.0041C9.01607 51.0972 9.58287 49.6519 9.58287 47.6681V9.23935C9.58287 7.25556 9.15777 5.83857 8.30758 4.98838C7.51406 4.13819 6.04039 3.51471 3.88657 3.11795C2.01614 2.77788 1.08093 2.21108 1.08093 1.41757C1.08093 1.07749 1.30765 0.850772 1.76108 0.737411C2.21452 0.567371 2.80966 0.482351 3.54649 0.482351C5.07684 0.482351 6.26711 0.510692 7.1173 0.567374C8.02418 0.624053 8.87437 0.680732 9.66789 0.737411C10.4614 0.79409 11.425 0.822429 12.5585 0.822429C16.5828 0.822429 20.0402 0.85077 22.9309 0.907452C25.8782 0.907452 28.9106 0.907452 32.028 0.907452C35.1454 0.907452 38.1777 0.879111 41.1251 0.822429C44.1291 0.76575 47.6149 0.737411 51.5824 0.737411C52.8294 0.737411 53.8496 0.737411 54.6431 0.737411C55.4366 0.680732 56.2868 0.624053 57.1937 0.567374C58.1006 0.510692 59.3192 0.482351 60.8495 0.482351C61.5864 0.482351 62.1815 0.567371 62.6349 0.737411C63.0884 0.850772 63.3151 1.07749 63.3151 1.41757C63.3151 2.21108 62.3799 2.77788 60.5095 3.11795C58.4123 3.51471 56.882 4.13819 55.9184 4.98838C54.9549 5.83857 54.4731 7.25556 54.4731 9.23935V47.6681C54.4731 49.6519 55.0682 51.0972 56.2585 52.0041C57.4488 52.911 59.0925 53.5628 61.1896 53.9595C63.06 54.2996 63.9953 54.8097 63.9953 55.4899C63.9953 55.83 63.7685 56.0567 63.3151 56.17C62.8617 56.3401 62.2665 56.4251 61.5297 56.4251C59.9994 56.4251 58.7241 56.3684 57.7038 56.2551C56.7403 56.1984 55.8051 56.1417 54.8982 56.085C53.9913 56.0283 52.8861 56 51.5824 56C50.1654 56 48.9185 56.0283 47.8416 56.085C46.8214 56.1417 45.7444 56.1984 44.6108 56.2551C43.5339 56.3684 42.2303 56.4251 40.7 56.4251C39.9631 56.4251 39.368 56.3401 38.9145 56.17C38.4611 56.0567 38.2344 55.83 38.2344 55.4899C38.2344 55.0931 38.4611 54.7814 38.9145 54.5547C39.368 54.328 40.0765 54.1296 41.04 53.9595C43.1939 53.5628 44.8092 52.8543 45.8861 51.8341C46.963 50.7571 47.5298 49.3401 47.5865 47.5831C47.7566 40.4981 47.7849 33.3848 47.6715 26.2432C47.6149 19.1016 47.5865 11.9883 47.5865 4.90336C47.5865 4.61996 47.5015 4.44992 47.3315 4.39324C47.2181 4.33656 47.0764 4.30822 46.9064 4.30822C44.5825 4.30822 42.5137 4.30822 40.7 4.30822C38.9429 4.25154 37.2708 4.19487 35.6838 4.13819C34.0968 4.08151 32.3681 4.05317 30.4976 4.05317C28.2871 4.05317 26.1616 4.08151 24.1212 4.13819C22.0807 4.13819 19.6435 4.19487 16.8095 4.30822C16.5261 4.30822 16.3844 4.61996 16.3844 5.24344C16.1577 12.2717 16.0443 19.3283 16.0443 26.4133C16.0443 33.4415 16.1577 40.4981 16.3844 47.5831C16.4411 49.3401 17.0362 50.7571 18.1698 51.8341C19.3601 52.8543 21.0038 53.5628 23.1009 53.9595C24.0645 54.1296 24.773 54.328 25.2264 54.5547C25.6799 54.7814 25.9066 55.0931 25.9066 55.4899C25.9066 55.83 25.6799 56.0567 25.2264 56.17C24.773 56.3401 24.1779 56.4251 23.441 56.4251C21.9107 56.4251 20.6354 56.3684 19.6152 56.2551C18.6516 56.1984 17.7164 56.1417 16.8095 56.085C15.9026 56.0283 14.7974 56 13.4938 56C12.0768 56 10.8298 56.0283 9.75291 56.085C8.73267 56.1417 7.65576 56.1984 6.52217 56.2551C5.44526 56.3684 4.14163 56.4251 2.61128 56.4251ZM72.8479 80.2305C71.771 80.2305 70.7791 79.9471 69.8722 79.3803C68.9654 78.8702 68.5119 77.9917 68.5119 76.7447C68.5119 75.7245 68.7386 74.8176 69.1921 74.0241C69.7022 73.2873 70.4107 72.9189 71.3176 72.9189C71.941 72.9189 72.5362 73.0039 73.103 73.1739C73.7264 73.344 74.2649 73.429 74.7183 73.429C75.0584 73.429 75.3418 73.344 75.5685 73.1739C75.8519 73.0606 76.107 72.8338 76.3337 72.4938C76.9572 71.4735 77.6657 70.1982 78.4592 68.6679C79.3094 67.1375 80.1596 65.4088 81.0098 63.4817C81.9166 61.5546 82.7668 59.5141 83.5603 57.3603C83.7304 56.8502 83.8154 56.1984 83.8154 55.4049C83.8154 54.9514 83.7871 54.5263 83.7304 54.1296C83.6737 53.6761 83.5887 53.2794 83.4753 52.9393L73.6131 28.0286C73.2163 27.0084 72.6779 26.1299 71.9977 25.393C71.3742 24.5995 70.6374 24.0894 69.7872 23.8627C69.3338 23.6926 68.8803 23.4943 68.4269 23.2675C68.0301 23.0408 67.8318 22.7291 67.8318 22.3323C67.8318 21.9923 68.0301 21.7939 68.4269 21.7372C68.8803 21.6238 69.2487 21.5672 69.5321 21.5672C70.6657 21.5672 71.4876 21.5955 71.9977 21.6522C72.5645 21.7089 73.0746 21.7939 73.5281 21.9072C74.0382 21.9639 74.775 21.9923 75.7386 21.9923C76.7588 21.9923 77.524 21.9639 78.0341 21.9072C78.5442 21.7939 79.0827 21.7089 79.6495 21.6522C80.2162 21.5955 81.0664 21.5672 82.2 21.5672C82.5401 21.5672 82.9085 21.6522 83.3053 21.8222C83.702 21.9356 83.9004 22.1623 83.9004 22.5024C83.9004 22.8991 83.5887 23.2959 82.9652 23.6926C82.3984 24.0327 81.8883 24.2594 81.4349 24.3728C80.8681 24.5428 80.443 24.8546 80.1596 25.308C79.8762 25.7048 79.7345 26.2999 79.7345 27.0934C79.7345 27.4335 79.8195 27.8586 79.9895 28.3687C80.1596 28.8221 80.3013 29.1906 80.4146 29.474L87.3012 46.4778C87.4146 46.8179 87.5846 46.9879 87.8113 46.9879C87.9813 46.9879 88.123 46.8179 88.2364 46.4778L94.1027 30.9193C94.2728 30.5225 94.4145 30.0124 94.5278 29.3889C94.6979 28.7088 94.7829 28.1703 94.7829 27.7736C94.7829 26.6967 94.6129 25.9598 94.2728 25.5631C93.9894 25.1096 93.5926 24.7696 93.0825 24.5428C92.6291 24.3161 92.0906 24.0327 91.4671 23.6926C90.9003 23.2959 90.6169 22.8991 90.6169 22.5024C90.6169 22.1623 90.8153 21.9356 91.2121 21.8222C91.6655 21.6522 92.0339 21.5672 92.3173 21.5672C93.1109 21.5672 93.9044 21.6522 94.6979 21.8222C95.5481 21.9356 96.7667 21.9923 98.3537 21.9923C99.4306 21.9923 100.196 21.9639 100.649 21.9072C101.159 21.7939 101.584 21.7089 101.925 21.6522C102.265 21.5955 102.746 21.5672 103.37 21.5672C103.653 21.5672 103.993 21.6238 104.39 21.7372C104.844 21.7939 105.07 21.9923 105.07 22.3323C105.07 22.7291 104.844 23.0408 104.39 23.2675C103.993 23.4943 103.568 23.6926 103.115 23.8627C102.265 24.0894 101.358 24.7696 100.394 25.9031C99.4306 26.9801 98.6655 28.1987 98.0987 29.559L86.536 57.1053C86.4793 57.2753 86.1676 58.0121 85.6008 59.3158C85.0907 60.6194 84.4389 62.2348 83.6454 64.1619C82.8518 66.089 81.9733 68.1578 81.0098 70.3683C80.1029 72.5788 79.2244 74.7043 78.3742 76.7447C77.864 77.8783 77.1272 78.7285 76.1637 79.2953C75.2001 79.9188 74.0949 80.2305 72.8479 80.2305ZM108.682 56.2551C108.398 56.2551 108.03 56.1984 107.576 56.085C107.18 56.0283 106.981 55.83 106.981 55.4899C106.981 55.0364 107.18 54.7247 107.576 54.5547C108.03 54.328 108.483 54.1296 108.937 53.9595C109.787 53.6761 110.552 53.3644 111.232 53.0243C111.969 52.6276 112.337 51.8624 112.337 50.7288V30.4942C112.337 28.8505 112.026 27.4902 111.402 26.4133C110.835 25.2797 109.844 24.5712 108.427 24.2878C108.2 24.2311 107.888 24.0894 107.491 23.8627C107.151 23.5793 106.981 23.2392 106.981 22.8424C106.981 22.5024 107.236 22.2473 107.746 22.0773C108.313 21.8506 108.682 21.7372 108.852 21.7372C109.929 21.7372 110.779 21.7939 111.402 21.9072C112.026 21.9639 112.819 21.9923 113.783 21.9923H127.981C129.625 21.9923 130.815 21.9356 131.552 21.8222C132.289 21.6522 132.855 21.5672 133.252 21.5672C133.309 21.5672 133.422 21.6522 133.592 21.8222C133.819 21.9356 133.932 22.134 133.932 22.4174C133.932 23.1542 133.876 24.2028 133.762 25.5631C133.649 26.9234 133.592 28.057 133.592 28.9638C133.592 29.7007 133.536 30.4659 133.422 31.2594C133.309 32.0529 132.997 32.4496 132.487 32.4496C131.92 32.4496 131.382 31.3727 130.872 29.2189C130.702 28.4254 130.39 27.6885 129.936 27.0084C129.54 26.3282 129.058 25.7898 128.491 25.393C127.924 24.9396 127.329 24.7129 126.706 24.7129C126.309 24.7129 125.714 24.7129 124.92 24.7129C124.127 24.6562 123.333 24.6279 122.54 24.6279C121.803 24.6279 121.264 24.6279 120.924 24.6279C119.791 24.6279 119.054 25.053 118.714 25.9031C118.43 26.7533 118.289 27.4052 118.289 27.8586V50.7288C118.289 51.8624 118.714 52.6276 119.564 53.0243C120.471 53.3644 121.349 53.6761 122.2 53.9595C122.653 54.1296 123.078 54.328 123.475 54.5547C123.928 54.7247 124.155 55.0364 124.155 55.4899C124.155 55.8866 123.9 56.1134 123.39 56.17C122.936 56.2267 122.54 56.2551 122.2 56.2551C121.123 56.2551 120.273 56.1984 119.649 56.085C119.026 56.0283 118.43 55.9717 117.864 55.915C117.354 55.8583 116.588 55.83 115.568 55.83C114.605 55.83 113.811 55.8583 113.188 55.915C112.621 55.9717 111.997 56.0283 111.317 56.085C110.694 56.1984 109.815 56.2551 108.682 56.2551ZM154.636 57.1903C151.462 57.1903 148.599 56.4534 146.049 54.9798C143.498 53.5061 141.458 51.494 139.928 48.9434C138.454 46.3361 137.717 43.3888 137.717 40.1014C137.717 37.7208 138.17 35.397 139.077 33.1298C140.041 30.8626 141.373 28.7938 143.073 26.9234C144.774 25.0529 146.757 23.5793 149.025 22.5024C151.292 21.3688 153.729 20.802 156.336 20.802C159.624 20.802 162.571 21.5955 165.178 23.1825C167.842 24.7696 169.939 26.8667 171.47 29.474C173.057 32.0245 173.85 34.8302 173.85 37.8909C173.85 41.1783 173.113 44.2957 171.64 47.243C170.223 50.1903 168.097 52.5992 165.263 54.4697C162.429 56.2834 158.887 57.1903 154.636 57.1903ZM156.421 54.6397C158.348 54.6397 160.077 54.2713 161.607 53.5344C163.138 52.7976 164.328 51.6073 165.178 49.9636C165.858 48.66 166.312 47.073 166.539 45.2025C166.765 43.3321 166.879 41.575 166.879 39.9313C166.879 37.2107 166.369 34.6035 165.348 32.1096C164.385 29.559 162.996 27.4902 161.182 25.9031C159.425 24.2594 157.328 23.4376 154.891 23.4376C153.361 23.4376 151.972 23.6926 150.725 24.2028C149.535 24.6562 148.429 25.5347 147.409 26.8384C146.276 28.2553 145.539 29.9841 145.199 32.0245C144.859 34.065 144.689 36.1055 144.689 38.1459C144.689 40.9232 145.199 43.5872 146.219 46.1378C147.239 48.6317 148.628 50.6721 150.385 52.2591C152.142 53.8462 154.154 54.6397 156.421 54.6397ZM180.832 56.2551C180.492 56.2551 180.067 56.2267 179.556 56.17C179.103 56.1134 178.876 55.8866 178.876 55.4899C178.876 55.0364 179.075 54.7247 179.471 54.5547C179.925 54.328 180.378 54.1296 180.832 53.9595C181.682 53.6761 182.504 53.4211 183.297 53.1944C184.091 52.911 184.488 52.1741 184.488 50.9839V27.9436C184.488 26.64 184.176 25.7048 183.552 25.138C182.929 24.5145 182.192 24.0894 181.342 23.8627C180.888 23.6926 180.435 23.4943 179.982 23.2675C179.585 23.0408 179.386 22.7291 179.386 22.3323C179.386 21.8789 179.642 21.6522 180.152 21.6522C180.718 21.5955 181.115 21.5672 181.342 21.5672C182.475 21.5672 183.297 21.5955 183.807 21.6522C184.318 21.6522 184.799 21.6805 185.253 21.7372C185.706 21.7939 186.358 21.8222 187.208 21.8222C188.002 21.8222 188.71 21.7939 189.334 21.7372C189.957 21.6805 190.666 21.6238 191.459 21.5672C192.253 21.5105 193.216 21.4821 194.35 21.4821C198.658 21.4821 202.143 22.134 204.807 23.4376C207.471 24.6845 208.803 26.725 208.803 29.559C208.803 31.8262 208.18 33.6399 206.933 35.0002C205.686 36.3038 204.155 37.1824 202.342 37.6358C202.115 37.6925 201.973 37.7492 201.917 37.8059C201.86 37.8625 202.002 37.9476 202.342 38.0609C203.419 38.231 204.581 38.6277 205.827 39.2512C207.074 39.8747 208.123 40.7532 208.973 41.8868C209.88 42.9637 210.334 44.324 210.334 45.9677C210.334 48.6317 209.625 50.7288 208.208 52.2591C206.791 53.7328 204.864 54.7814 202.427 55.4049C200.046 55.9717 197.326 56.2551 194.265 56.2551C193.698 56.2551 192.734 56.17 191.374 56C190.014 55.83 188.682 55.7449 187.378 55.7449C186.131 55.7449 184.799 55.8016 183.382 55.915C182.022 55.9717 181.03 56.0283 180.407 56.085C179.783 56.1984 179.925 56.2551 180.832 56.2551ZM195.115 53.4494C197.949 53.4494 200.131 52.8826 201.662 51.749C203.249 50.5588 204.042 48.8017 204.042 46.4778C204.042 43.5872 203.079 41.6601 201.151 40.6965C199.224 39.733 196.759 39.2512 193.755 39.2512C192.848 39.2512 192.054 39.3929 191.374 39.6763C190.751 39.9597 190.439 40.5265 190.439 41.3767V49.1985C190.439 50.6154 190.807 51.6924 191.544 52.4292C192.338 53.1093 193.528 53.4494 195.115 53.4494ZM192.905 36.7006C196.475 36.7006 199.026 36.0771 200.556 34.8302C202.143 33.5265 202.937 32.0245 202.937 30.3242C202.937 28.6804 202.342 27.2918 201.151 26.1582C200.018 24.9679 197.751 24.3728 194.35 24.3728C192.763 24.3728 191.714 24.6279 191.204 25.138C190.694 25.5914 190.439 26.2716 190.439 27.1784V34.5751C190.439 35.652 190.751 36.2755 191.374 36.4455C192.054 36.6156 192.564 36.7006 192.905 36.7006ZM216.695 56.2551C216.412 56.2551 216.044 56.1984 215.59 56.085C215.193 56.0283 214.995 55.83 214.995 55.4899C214.995 55.0364 215.193 54.7247 215.59 54.5547C216.044 54.328 216.497 54.1296 216.95 53.9595C217.801 53.6761 218.594 53.3644 219.331 53.0243C220.124 52.6276 220.521 51.8341 220.521 50.6438V27.3485C220.521 26.2149 220.181 25.4497 219.501 25.0529C218.878 24.5995 218.141 24.2594 217.29 24.0327C216.837 23.8627 216.384 23.6643 215.93 23.4376C215.533 23.2109 215.335 22.8991 215.335 22.5024C215.335 22.1623 215.533 21.9639 215.93 21.9072C216.384 21.7939 216.752 21.7372 217.035 21.7372C218.169 21.7372 219.019 21.7655 219.586 21.8222C220.209 21.8789 220.776 21.9639 221.286 22.0773C221.853 22.134 222.618 22.1623 223.582 22.1623C224.602 22.1623 225.339 22.134 225.792 22.0773C226.303 21.9639 226.841 21.8789 227.408 21.8222C227.975 21.7655 228.825 21.7372 229.958 21.7372C230.242 21.7372 230.582 21.7939 230.979 21.9072C231.432 21.9639 231.659 22.1623 231.659 22.5024C231.659 22.8991 231.432 23.2109 230.979 23.4376C230.582 23.6643 230.157 23.8627 229.703 24.0327C228.853 24.2594 228.088 24.5995 227.408 25.0529C226.784 25.4497 226.473 26.2149 226.473 27.3485V44.3523C226.473 44.5791 226.586 44.7491 226.813 44.8625C227.096 44.9191 227.266 44.9191 227.323 44.8625L243.561 28.1136C243.675 27.8869 243.76 27.7452 243.817 27.6886C243.93 27.6319 243.987 27.4618 243.987 27.1784C243.987 26.0448 243.703 25.308 243.136 24.9679C242.57 24.5712 241.861 24.2594 241.011 24.0327C240.557 23.8627 240.104 23.6643 239.651 23.4376C239.254 23.2109 239.055 22.8991 239.055 22.5024C239.055 22.1623 239.254 21.9639 239.651 21.9072C240.047 21.7939 240.416 21.7372 240.756 21.7372C241.889 21.7372 242.74 21.7655 243.306 21.8222C243.873 21.8789 244.412 21.9639 244.922 22.0773C245.432 22.134 246.169 22.1623 247.132 22.1623C248.153 22.1623 248.918 22.134 249.428 22.0773C249.938 21.9639 250.476 21.8789 251.043 21.8222C251.667 21.7655 252.545 21.7372 253.679 21.7372C254.019 21.7372 254.387 21.7939 254.784 21.9072C255.181 21.9639 255.379 22.1623 255.379 22.5024C255.379 22.8991 255.152 23.2109 254.699 23.4376C254.302 23.6643 253.877 23.8627 253.424 24.0327C252.574 24.2594 251.78 24.5995 251.043 25.0529C250.306 25.4497 249.938 26.2149 249.938 27.3485V50.6438C249.938 51.7774 250.335 52.5425 251.128 52.9393C251.978 53.3361 252.829 53.6761 253.679 53.9595C254.132 54.1296 254.557 54.328 254.954 54.5547C255.407 54.7247 255.634 55.0364 255.634 55.4899C255.634 55.83 255.407 56.0283 254.954 56.085C254.557 56.1984 254.217 56.2551 253.934 56.2551C252.8 56.2551 251.893 56.1984 251.213 56.085C250.59 56.0283 249.995 55.9717 249.428 55.915C248.861 55.8583 248.067 55.83 247.047 55.83C246.084 55.83 245.29 55.8583 244.667 55.915C244.1 55.9717 243.476 56.0283 242.796 56.085C242.173 56.1984 241.294 56.2551 240.161 56.2551C239.877 56.2551 239.509 56.1984 239.055 56.085C238.659 56.0283 238.46 55.83 238.46 55.4899C238.46 55.0364 238.659 54.7247 239.055 54.5547C239.509 54.328 239.962 54.1296 240.416 53.9595C241.266 53.6761 242.059 53.3361 242.796 52.9393C243.59 52.5425 243.987 51.7774 243.987 50.6438V32.5347C243.987 32.3079 243.958 32.1662 243.902 32.1096C243.845 31.9962 243.76 31.9962 243.646 32.1096L226.728 49.7086C226.558 49.8786 226.473 50.1903 226.473 50.6438C226.473 51.8341 226.869 52.6276 227.663 53.0243C228.513 53.3644 229.363 53.6761 230.213 53.9595C230.667 54.1296 231.092 54.328 231.489 54.5547C231.942 54.7247 232.169 55.0364 232.169 55.4899C232.169 55.83 231.942 56.0283 231.489 56.085C231.092 56.1984 230.752 56.2551 230.468 56.2551C229.335 56.2551 228.428 56.1984 227.748 56.085C227.124 56.0283 226.529 55.9717 225.962 55.915C225.396 55.8583 224.602 55.83 223.582 55.83C222.618 55.83 221.825 55.8583 221.201 55.915C220.635 55.9717 220.011 56.0283 219.331 56.085C218.707 56.1984 217.829 56.2551 216.695 56.2551ZM297.236 67.8177C296.499 67.8177 296.017 67.4776 295.791 66.7975C295.564 66.174 295.451 65.4938 295.451 64.757C295.451 64.1335 295.451 63.4817 295.451 62.8015C295.507 62.1214 295.536 61.4979 295.536 60.9311C295.536 58.6639 295.28 57.2753 294.77 56.7652C294.26 56.2551 293.353 56 292.05 56H266.884C266.261 56 265.807 56 265.524 56C265.297 56.0567 264.985 56.1134 264.588 56.17C264.248 56.2267 263.512 56.2551 262.378 56.2551C262.151 56.2551 261.754 56.2267 261.188 56.17C260.678 56.1134 260.423 55.8866 260.423 55.4899C260.423 55.0364 260.621 54.7247 261.018 54.5547C261.471 54.328 261.925 54.1296 262.378 53.9595C263.228 53.6761 263.937 53.3644 264.503 53.0243C265.127 52.6276 265.439 51.8624 265.439 50.7288V27.2635C265.439 26.1299 265.127 25.3647 264.503 24.9679C263.937 24.5712 263.228 24.2594 262.378 24.0327C261.925 23.8627 261.471 23.6643 261.018 23.4376C260.621 23.2109 260.423 22.8991 260.423 22.5024C260.423 22.1056 260.649 21.8789 261.103 21.8222C261.613 21.7655 262.038 21.7372 262.378 21.7372C263.512 21.7372 264.333 21.7655 264.844 21.8222C265.41 21.8789 265.949 21.9639 266.459 22.0773C266.969 22.134 267.706 22.1623 268.669 22.1623C269.69 22.1623 270.426 22.134 270.88 22.0773C271.39 21.9639 271.9 21.8789 272.41 21.8222C272.977 21.7655 273.799 21.7372 274.876 21.7372C275.273 21.7372 275.698 21.7655 276.151 21.8222C276.605 21.8789 276.831 22.1056 276.831 22.5024C276.831 22.8991 276.605 23.2109 276.151 23.4376C275.754 23.6643 275.329 23.8627 274.876 24.0327C274.026 24.2594 273.232 24.5712 272.495 24.9679C271.758 25.3647 271.39 26.1299 271.39 27.2635V49.4535C271.39 49.9069 271.447 50.5588 271.56 51.409C271.673 52.2591 272.099 52.6842 272.835 52.6842H286.523C287.204 52.6842 287.6 52.2591 287.714 51.409C287.827 50.5588 287.884 49.9069 287.884 49.4535V27.2635C287.884 26.1299 287.515 25.3647 286.779 24.9679C286.042 24.5712 285.248 24.2594 284.398 24.0327C283.945 23.8627 283.491 23.6643 283.038 23.4376C282.641 23.2109 282.443 22.8991 282.443 22.5024C282.443 22.1056 282.669 21.8789 283.123 21.8222C283.576 21.7655 284.001 21.7372 284.398 21.7372C285.532 21.7372 286.353 21.7655 286.864 21.8222C287.43 21.8789 287.969 21.9639 288.479 22.0773C288.989 22.134 289.726 22.1623 290.689 22.1623C291.71 22.1623 292.446 22.134 292.9 22.0773C293.41 21.9639 293.92 21.8789 294.43 21.8222C294.997 21.7655 295.819 21.7372 296.896 21.7372C297.236 21.7372 297.633 21.7655 298.086 21.8222C298.596 21.8789 298.851 22.1056 298.851 22.5024C298.851 22.8991 298.625 23.2109 298.171 23.4376C297.774 23.6643 297.349 23.8627 296.896 24.0327C296.046 24.2594 295.309 24.5712 294.685 24.9679C294.119 25.3647 293.835 26.1299 293.835 27.2635V51.579C293.835 51.9758 294.26 52.2591 295.11 52.4292C295.961 52.5992 296.754 52.6842 297.491 52.6842C297.831 52.6842 298.256 52.6559 298.766 52.5992C299.276 52.4859 299.73 52.4292 300.127 52.4292C300.92 52.4292 301.317 52.6559 301.317 53.1093C301.317 53.166 301.317 53.251 301.317 53.3644C301.317 53.4211 301.289 53.5061 301.232 53.6195C301.005 54.1863 300.722 54.8664 300.382 55.6599C300.098 56.3968 299.815 57.502 299.531 58.9757C299.248 60.4493 299.05 62.5182 298.936 65.1821C298.88 65.8622 298.653 66.4574 298.256 66.9675C297.859 67.5343 297.519 67.8177 297.236 67.8177ZM305.54 56.2551C305.257 56.2551 304.831 56.1984 304.265 56.085C303.755 56.0283 303.499 55.83 303.499 55.4899C303.499 55.0364 303.698 54.7247 304.095 54.5547C304.548 54.328 305.001 54.1296 305.455 53.9595C306.305 53.6761 307.099 53.3644 307.835 53.0243C308.629 52.6276 309.026 51.8341 309.026 50.6438V27.3485C309.026 26.2149 308.771 25.4497 308.261 25.0529C307.75 24.5995 307.07 24.2594 306.22 24.0327C305.767 23.8627 305.313 23.6643 304.86 23.4376C304.463 23.2109 304.265 22.8991 304.265 22.5024C304.265 22.1623 304.491 21.9639 304.945 21.9072C305.398 21.7939 305.795 21.7372 306.135 21.7372C307.269 21.7372 308.062 21.7655 308.516 21.8222C309.026 21.8789 309.507 21.9639 309.961 22.0773C310.414 22.134 311.123 22.1623 312.086 22.1623C313.107 22.1623 313.843 22.134 314.297 22.0773C314.75 21.9639 315.232 21.8789 315.742 21.8222C316.252 21.7655 317.046 21.7372 318.123 21.7372C318.406 21.7372 318.803 21.7939 319.313 21.9072C319.88 21.9639 320.163 22.1623 320.163 22.5024C320.163 22.8991 319.937 23.2109 319.483 23.4376C319.086 23.6643 318.661 23.8627 318.208 24.0327C317.358 24.2594 316.592 24.5995 315.912 25.0529C315.289 25.4497 314.977 26.2149 314.977 27.3485V35.9354C314.977 36.1621 315.062 36.3322 315.232 36.4455C315.459 36.5022 315.657 36.5022 315.827 36.4455C316.337 36.1621 317.216 35.9921 318.463 35.9354C319.71 35.8221 320.73 35.7654 321.524 35.7654C322.487 35.7654 323.621 35.9354 324.924 36.2755C326.228 36.5589 327.503 37.0974 328.75 37.8909C330.054 38.6277 331.131 39.6479 331.981 40.9516C332.831 42.2552 333.256 43.8706 333.256 45.7977C333.256 48.2916 332.576 50.332 331.216 51.9191C329.912 53.4494 328.155 54.5547 325.945 55.2348C323.734 55.915 321.325 56.2551 318.718 56.2551C317.641 56.2551 316.791 56.1984 316.167 56.085C315.544 56.0283 314.949 55.9717 314.382 55.915C313.872 55.8583 313.107 55.83 312.086 55.83C311.123 55.83 310.358 55.8583 309.791 55.915C309.224 55.9717 308.629 56.0283 308.005 56.085C307.439 56.1984 306.617 56.2551 305.54 56.2551ZM319.568 53.8745C321.495 53.8745 323.224 53.251 324.754 52.0041C326.285 50.7005 327.05 48.8017 327.05 46.3078C327.05 43.4738 326.37 41.405 325.009 40.1014C323.706 38.7977 321.694 38.1459 318.973 38.1459C317.443 38.1459 316.366 38.3443 315.742 38.7411C315.345 39.0245 315.119 39.4212 315.062 39.9313C315.005 40.3848 314.977 40.7249 314.977 40.9516V49.7936C314.977 51.1539 315.487 52.1741 316.507 52.8543C317.528 53.5344 318.548 53.8745 319.568 53.8745ZM335.892 56.2551C335.608 56.2551 335.24 56.1984 334.787 56.085C334.39 56.0283 334.191 55.83 334.191 55.4899C334.191 55.0364 334.39 54.7247 334.787 54.5547C335.24 54.328 335.693 54.1296 336.147 53.9595C336.997 53.6761 337.819 53.3644 338.612 53.0243C339.406 52.6276 339.803 51.8341 339.803 50.6438V27.8586C339.803 26.6116 339.548 25.6764 339.038 25.0529C338.527 24.4295 337.734 24.0327 336.657 23.8627C336.147 23.7493 335.693 23.5793 335.297 23.3526C334.9 23.0692 334.702 22.7291 334.702 22.3323C334.702 21.9923 334.9 21.7939 335.297 21.7372C335.75 21.6238 336.119 21.5672 336.402 21.5672C337.536 21.5672 338.357 21.5955 338.868 21.6522C339.434 21.7089 339.944 21.7939 340.398 21.9072C340.908 21.9639 341.645 21.9923 342.608 21.9923C343.629 21.9923 344.422 21.9639 344.989 21.9072C345.556 21.7939 346.151 21.7089 346.774 21.6522C347.398 21.5955 348.276 21.5672 349.41 21.5672C349.75 21.5672 350.118 21.6238 350.515 21.7372C350.912 21.7939 351.11 21.9923 351.11 22.3323C351.11 22.7291 350.912 23.0692 350.515 23.3526C350.118 23.5793 349.665 23.7493 349.155 23.8627C348.021 24.0894 347.171 24.5428 346.604 25.223C346.037 25.8465 345.754 26.725 345.754 27.8586V50.6438C345.754 51.8341 346.151 52.6276 346.944 53.0243C347.738 53.3644 348.56 53.6761 349.41 53.9595C349.863 54.1296 350.288 54.328 350.685 54.5547C351.139 54.7247 351.365 55.0364 351.365 55.4899C351.365 55.83 351.139 56.0283 350.685 56.085C350.288 56.1984 349.948 56.2551 349.665 56.2551C348.531 56.2551 347.625 56.1984 346.944 56.085C346.321 56.0283 345.726 55.9717 345.159 55.915C344.592 55.8583 343.799 55.83 342.778 55.83C341.815 55.83 341.021 55.8583 340.398 55.915C339.831 55.9717 339.208 56.0283 338.527 56.085C337.904 56.1984 337.025 56.2551 335.892 56.2551ZM374.45 56.2551C374.11 56.2551 373.685 56.2267 373.175 56.17C372.721 56.1134 372.495 55.8866 372.495 55.4899C372.495 55.0364 372.693 54.7247 373.09 54.5547C373.543 54.328 373.997 54.1296 374.45 53.9595C375.3 53.6761 376.122 53.4211 376.916 53.1944C377.709 52.911 378.106 52.1741 378.106 50.9839V27.9436C378.106 26.64 377.794 25.7048 377.171 25.138C376.547 24.5145 375.81 24.0894 374.96 23.8627C374.507 23.6926 374.053 23.4943 373.6 23.2675C373.203 23.0408 373.005 22.7291 373.005 22.3323C373.005 21.8789 373.26 21.6522 373.77 21.6522C374.337 21.5955 374.734 21.5672 374.96 21.5672C376.094 21.5672 376.916 21.5955 377.426 21.6522C377.936 21.6522 378.418 21.6805 378.871 21.7372C379.325 21.7939 379.976 21.8222 380.827 21.8222C381.62 21.8222 382.329 21.7939 382.952 21.7372C383.576 21.6805 384.284 21.6238 385.078 21.5672C385.871 21.5105 386.835 21.4821 387.968 21.4821C392.276 21.4821 395.762 22.134 398.426 23.4376C401.09 24.6845 402.421 26.725 402.421 29.559C402.421 31.8262 401.798 33.6399 400.551 35.0002C399.304 36.3038 397.774 37.1824 395.96 37.6358C395.733 37.6925 395.592 37.7492 395.535 37.8059C395.478 37.8625 395.62 37.9476 395.96 38.0609C397.037 38.231 398.199 38.6277 399.446 39.2512C400.693 39.8747 401.741 40.7532 402.592 41.8868C403.498 42.9637 403.952 44.324 403.952 45.9677C403.952 48.6317 403.243 50.7288 401.826 52.2591C400.409 53.7328 398.482 54.7814 396.045 55.4049C393.664 55.9717 390.944 56.2551 387.883 56.2551C387.316 56.2551 386.353 56.17 384.993 56C383.632 55.83 382.3 55.7449 380.997 55.7449C379.75 55.7449 378.418 55.8016 377.001 55.915C375.64 55.9717 374.648 56.0283 374.025 56.085C373.402 56.1984 373.543 56.2551 374.45 56.2551ZM388.733 53.4494C391.567 53.4494 393.75 52.8826 395.28 51.749C396.867 50.5588 397.66 48.8017 397.66 46.4778C397.66 43.5872 396.697 41.6601 394.77 40.6965C392.843 39.733 390.377 39.2512 387.373 39.2512C386.466 39.2512 385.673 39.3929 384.993 39.6763C384.369 39.9597 384.057 40.5265 384.057 41.3767V49.1985C384.057 50.6154 384.426 51.6924 385.163 52.4292C385.956 53.1093 387.146 53.4494 388.733 53.4494ZM386.523 36.7006C390.094 36.7006 392.644 36.0771 394.175 34.8302C395.762 33.5265 396.555 32.0245 396.555 30.3242C396.555 28.6804 395.96 27.2918 394.77 26.1582C393.636 24.9679 391.369 24.3728 387.968 24.3728C386.381 24.3728 385.333 24.6279 384.822 25.138C384.312 25.5914 384.057 26.2716 384.057 27.1784V34.5751C384.057 35.652 384.369 36.2755 384.993 36.4455C385.673 36.6156 386.183 36.7006 386.523 36.7006ZM424.597 57.2753C421.763 57.2753 419.184 56.5668 416.86 55.1498C414.593 53.6761 412.779 51.6924 411.419 49.1985C410.115 46.6479 409.463 43.8139 409.463 40.6965C409.463 37.0123 410.257 33.6682 411.844 30.6642C413.488 27.6602 415.67 25.2797 418.391 23.5226C421.111 21.7089 424.115 20.802 427.403 20.802C431.087 20.802 434.317 21.7939 437.095 23.7777C437.775 24.2878 438.115 24.8262 438.115 25.393C438.115 25.8465 437.917 26.3566 437.52 26.9234C437.123 27.4902 436.641 27.9719 436.075 28.3687C435.508 28.7088 434.969 28.8788 434.459 28.8788C434.176 28.8788 433.892 28.7938 433.609 28.6238C433.326 28.397 433.014 28.1703 432.674 27.9436C431.427 26.9801 430.038 26.0732 428.508 25.223C426.977 24.3728 425.702 23.9477 424.682 23.9477C421.905 23.9477 419.637 25.2513 417.88 27.8586C416.18 30.4092 415.33 33.7816 415.33 37.9759C415.33 40.6398 415.897 43.0487 417.03 45.2025C418.22 47.3564 419.779 49.0568 421.706 50.3037C423.69 51.5507 425.872 52.1741 428.253 52.1741C429.896 52.1741 431.313 51.9191 432.504 51.409C433.694 50.8422 434.969 49.8786 436.33 48.5183C436.443 48.4049 436.585 48.3199 436.755 48.2632C436.925 48.1499 437.066 48.0932 437.18 48.0932C437.803 48.0932 438.115 48.49 438.115 49.2835C438.115 49.6235 438.002 50.0203 437.775 50.4737C437.605 50.8705 437.293 51.3523 436.84 51.9191C435.933 53.0527 434.856 54.0446 433.609 54.8947C432.362 55.6883 430.973 56.2834 429.443 56.6802C427.969 57.0769 426.354 57.2753 424.597 57.2753ZM457.559 57.2753C454.441 57.2753 451.721 56.5101 449.397 54.9798C447.073 53.4494 445.259 51.2956 443.955 48.5183C442.652 45.6843 442 42.4252 442 38.7411C442 35.4537 442.737 32.478 444.21 29.814C445.741 27.0934 447.753 24.9113 450.247 23.2675C452.741 21.6238 455.461 20.802 458.409 20.802C460.676 20.802 462.688 21.2554 464.445 22.1623C466.202 23.0692 467.562 24.3445 468.526 25.9882C469.546 27.5752 470.056 29.4173 470.056 31.5144C470.056 33.2715 469.206 34.15 467.506 34.15H449.567C448.773 34.15 448.206 34.3767 447.866 34.8302C447.583 35.2269 447.441 36.0488 447.441 37.2957C447.441 40.0164 448.036 42.5103 449.227 44.7774C450.417 46.9879 452.004 48.7734 453.988 50.1337C455.971 51.4373 458.154 52.0891 460.534 52.0891C462.235 52.0891 463.765 51.7774 465.125 51.1539C466.542 50.4737 467.789 49.5102 468.866 48.2632C469.093 47.9798 469.263 47.8098 469.376 47.7531C469.49 47.6398 469.631 47.5831 469.801 47.5831C470.255 47.5831 470.481 47.8665 470.481 48.4333C470.481 49.5102 469.971 50.7005 468.951 52.0041C468.101 53.081 467.081 54.0162 465.89 54.8097C464.7 55.6032 463.397 56.1984 461.98 56.5951C460.563 57.0486 459.089 57.2753 457.559 57.2753ZM449.737 31.5144H457.474C458.834 31.5144 459.996 31.4861 460.959 31.4294C461.923 31.3727 462.858 31.2594 463.765 31.0893C464.048 31.0326 464.218 30.8626 464.275 30.5792C464.388 30.2391 464.445 29.7857 464.445 29.2189C464.445 27.5752 463.708 26.1865 462.235 25.0529C460.818 23.8627 459.117 23.2675 457.133 23.2675C455.83 23.2675 454.526 23.6643 453.223 24.4578C451.919 25.1946 450.842 26.1299 449.992 27.2635C449.142 28.397 448.717 29.5306 448.717 30.6642C448.717 31.231 449.057 31.5144 449.737 31.5144ZM500.225 56.2551C499.942 56.2551 499.545 56.1984 499.035 56.085C498.525 56.0283 498.27 55.83 498.27 55.4899C498.27 55.0364 498.468 54.7247 498.865 54.5547C499.318 54.328 499.772 54.1296 500.225 53.9595C501.075 53.6761 501.869 53.3361 502.605 52.9393C503.399 52.5425 503.796 51.7207 503.796 50.4737V27.4335C503.796 26.9234 503.739 26.3566 503.626 25.7331C503.512 25.0529 503.229 24.7129 502.776 24.7129H497.674C496.824 24.7129 496.144 24.8829 495.634 25.223C495.124 25.5631 494.67 26.1015 494.274 26.8384C493.934 27.5185 493.593 28.4821 493.253 29.729C493.14 30.1825 492.885 30.6642 492.488 31.1743C492.148 31.6278 491.751 31.8545 491.298 31.8545C491.071 31.8545 490.873 31.7411 490.703 31.5144C490.533 31.2877 490.448 30.976 490.448 30.5792C490.448 30.4658 490.448 30.3242 490.448 30.1541C490.504 29.9841 490.561 29.814 490.618 29.644C490.844 28.8505 491.071 27.7169 491.298 26.2432C491.525 24.7129 491.638 23.4092 491.638 22.3323C491.638 21.8789 491.723 21.5105 491.893 21.2271C492.12 20.9437 492.46 20.802 492.913 20.802C493.367 20.802 493.763 20.8587 494.104 20.972C494.444 21.0854 494.954 21.2271 495.634 21.3971C496.257 21.5672 496.853 21.7089 497.419 21.8222C498.043 21.9356 498.865 21.9923 499.885 21.9923H517.399C518.136 21.9923 518.873 21.9639 519.609 21.9072C520.346 21.8506 520.828 21.7372 521.055 21.5672C521.338 21.3404 521.65 21.1704 521.99 21.057C522.33 20.887 522.557 20.802 522.67 20.802C522.84 20.802 523.038 20.9153 523.265 21.1421C523.492 21.3688 523.605 21.6805 523.605 22.0773C523.605 22.6441 523.549 23.2675 523.435 23.9477C523.322 24.6279 523.265 25.3363 523.265 26.0732C523.265 26.7533 523.265 27.4335 523.265 28.1136C523.322 28.7371 523.379 29.3606 523.435 29.9841C523.492 30.3808 523.407 30.8059 523.18 31.2594C523.01 31.6561 522.727 31.8545 522.33 31.8545C521.933 31.8545 521.593 31.5994 521.31 31.0893C521.083 30.5225 520.941 30.0691 520.885 29.729C520.828 28.7088 520.63 27.8302 520.29 27.0934C519.949 26.2999 519.439 25.7048 518.759 25.308C518.079 24.9113 517.2 24.7129 516.124 24.7129H511.022C510.456 24.7129 510.087 25.0246 509.917 25.6481C509.804 26.2716 509.747 26.8667 509.747 27.4335V50.5588C509.747 51.749 510.144 52.5425 510.937 52.9393C511.788 53.3361 512.638 53.6761 513.488 53.9595C513.941 54.1296 514.367 54.328 514.763 54.5547C515.217 54.7247 515.443 55.0364 515.443 55.4899C515.443 55.83 515.188 56.0283 514.678 56.085C514.168 56.1984 513.771 56.2551 513.488 56.2551C512.411 56.2551 511.561 56.1984 510.937 56.085C510.314 56.0283 509.719 55.9717 509.152 55.915C508.642 55.8583 507.877 55.83 506.856 55.83C505.893 55.83 505.128 55.8583 504.561 55.915C503.994 55.9717 503.399 56.0283 502.776 56.085C502.209 56.1984 501.359 56.2551 500.225 56.2551ZM527.87 80.2305C527.586 80.2305 527.218 80.1738 526.764 80.0605C526.311 80.0038 526.084 79.8054 526.084 79.4653C526.084 79.0119 526.282 78.6718 526.679 78.4451C527.133 78.2751 527.586 78.105 528.04 77.935C528.89 77.6516 529.712 77.3115 530.505 76.9148C531.299 76.5747 531.695 75.8379 531.695 74.7043V31.5994C531.695 31.146 531.554 30.4658 531.27 29.559C531.044 28.6521 530.647 27.7736 530.08 26.9234C529.513 26.0732 528.748 25.5631 527.785 25.393C527.558 25.3363 527.388 25.1946 527.274 24.9679C527.161 24.7412 527.104 24.5145 527.104 24.2878C527.104 24.0044 527.161 23.7777 527.274 23.6076C527.388 23.4376 527.529 23.3242 527.699 23.2675C529.853 22.7574 531.695 22.219 533.226 21.6522C534.756 21.0287 536.201 20.4336 537.562 19.8668C537.618 19.8668 537.647 19.8668 537.647 19.8668C537.647 19.8101 537.675 19.7817 537.732 19.7817C537.845 19.7817 537.958 19.8668 538.072 20.0368C538.185 20.2068 538.242 20.3769 538.242 20.5469C538.242 21.057 538.157 21.8789 537.987 23.0125C537.873 24.0894 537.817 24.9679 537.817 25.6481C537.817 26.1015 537.845 26.3566 537.902 26.4133C538.469 25.8465 539.489 25.138 540.963 24.2878C542.493 23.3809 544.222 22.5874 546.149 21.9072C548.076 21.1704 549.918 20.802 551.675 20.802C554.622 20.802 557.116 21.5955 559.157 23.1825C561.254 24.7129 562.841 26.725 563.918 29.2189C565.051 31.6561 565.618 34.2067 565.618 36.8706C565.618 39.4212 565.136 41.9151 564.173 44.3523C563.209 46.7329 561.849 48.8867 560.092 50.8138C558.335 52.7409 556.294 54.2996 553.97 55.4899C551.647 56.6235 549.153 57.1903 546.489 57.1903C545.695 57.1903 544.732 57.0486 543.598 56.7652C542.521 56.5385 541.444 56.2267 540.367 55.83C539.347 55.4332 538.554 54.9798 537.987 54.4697C537.93 54.4697 537.873 54.8097 537.817 55.4899C537.76 56.1134 537.703 56.7652 537.647 57.4453C537.647 58.1822 537.647 58.6356 537.647 58.8056V74.7043C537.647 75.4411 537.93 76.0079 538.497 76.4046C539.12 76.8581 539.801 77.1698 540.537 77.3399C541.331 77.5666 542.011 77.765 542.578 77.935C543.031 78.105 543.456 78.2751 543.853 78.4451C544.307 78.6718 544.533 79.0119 544.533 79.4653C544.533 79.8054 544.307 80.0038 543.853 80.0605C543.4 80.1738 543.003 80.2305 542.663 80.2305C541.019 80.2305 539.631 80.1455 538.497 79.9755C537.42 79.8621 536.145 79.8054 534.671 79.8054C533.708 79.8054 532.914 79.8338 532.291 79.8904C531.724 79.9471 531.129 80.0038 530.505 80.0605C529.882 80.1738 529.003 80.2305 527.87 80.2305ZM547.764 54.5547C548.614 54.5547 549.634 54.2996 550.825 53.7895C552.072 53.2794 553.29 52.4575 554.481 51.3239C555.728 50.1903 556.748 48.66 557.541 46.7329C558.391 44.8058 558.817 42.4252 558.817 39.5913C558.817 36.3038 558.391 33.6682 557.541 31.6845C556.691 29.7007 555.643 28.1987 554.396 27.1784C553.149 26.1582 551.873 25.478 550.57 25.138C549.266 24.7979 548.161 24.6279 547.254 24.6279C545.894 24.6279 544.477 24.9113 543.003 25.478C541.586 26.0448 540.367 26.6967 539.347 27.4335C538.384 28.1136 537.902 28.6521 537.902 29.0489C537.902 30.2958 537.873 31.5711 537.817 32.8747C537.817 34.1217 537.788 35.3403 537.732 36.5306C537.732 37.7208 537.703 38.7977 537.647 39.7613C537.647 40.6682 537.647 41.3767 537.647 41.8868C537.647 44.154 538.157 46.2511 539.177 48.1782C540.254 50.1053 541.558 51.664 543.088 52.8543C544.675 53.9879 546.234 54.5547 547.764 54.5547ZM572.382 56.2551C572.098 56.2551 571.73 56.1984 571.277 56.085C570.88 56.0283 570.681 55.83 570.681 55.4899C570.681 55.0364 570.88 54.7247 571.277 54.5547C571.73 54.328 572.183 54.1296 572.637 53.9595C573.487 53.6761 574.281 53.3644 575.017 53.0243C575.811 52.6276 576.208 51.8341 576.208 50.6438V27.3485C576.208 26.2149 575.868 25.4497 575.187 25.0529C574.564 24.5995 573.827 24.2594 572.977 24.0327C572.524 23.8627 572.07 23.6643 571.617 23.4376C571.22 23.2109 571.022 22.8991 571.022 22.5024C571.022 22.1623 571.22 21.9639 571.617 21.9072C572.07 21.7939 572.439 21.7372 572.722 21.7372C573.856 21.7372 574.706 21.7655 575.272 21.8222C575.896 21.8789 576.463 21.9639 576.973 22.0773C577.54 22.134 578.305 22.1623 579.268 22.1623C580.289 22.1623 581.025 22.134 581.479 22.0773C581.989 21.9639 582.527 21.8789 583.094 21.8222C583.661 21.7655 584.511 21.7372 585.645 21.7372C585.928 21.7372 586.268 21.7939 586.665 21.9072C587.119 21.9639 587.345 22.1623 587.345 22.5024C587.345 22.8991 587.119 23.2109 586.665 23.4376C586.268 23.6643 585.843 23.8627 585.39 24.0327C584.54 24.2594 583.774 24.5995 583.094 25.0529C582.471 25.4497 582.159 26.2149 582.159 27.3485V44.3523C582.159 44.5791 582.272 44.7491 582.499 44.8625C582.783 44.9191 582.953 44.9191 583.009 44.8625L599.248 28.1136C599.361 27.8869 599.446 27.7452 599.503 27.6886C599.616 27.6319 599.673 27.4618 599.673 27.1784C599.673 26.0448 599.39 25.308 598.823 24.9679C598.256 24.5712 597.548 24.2594 596.697 24.0327C596.244 23.8627 595.791 23.6643 595.337 23.4376C594.94 23.2109 594.742 22.8991 594.742 22.5024C594.742 22.1623 594.94 21.9639 595.337 21.9072C595.734 21.7939 596.102 21.7372 596.442 21.7372C597.576 21.7372 598.426 21.7655 598.993 21.8222C599.56 21.8789 600.098 21.9639 600.608 22.0773C601.118 22.134 601.855 22.1623 602.819 22.1623C603.839 22.1623 604.604 22.134 605.114 22.0773C605.624 21.9639 606.163 21.8789 606.73 21.8222C607.353 21.7655 608.232 21.7372 609.365 21.7372C609.705 21.7372 610.074 21.7939 610.471 21.9072C610.867 21.9639 611.066 22.1623 611.066 22.5024C611.066 22.8991 610.839 23.2109 610.385 23.4376C609.989 23.6643 609.564 23.8627 609.11 24.0327C608.26 24.2594 607.466 24.5995 606.73 25.0529C605.993 25.4497 605.624 26.2149 605.624 27.3485V50.6438C605.624 51.7774 606.021 52.5425 606.815 52.9393C607.665 53.3361 608.515 53.6761 609.365 53.9595C609.819 54.1296 610.244 54.328 610.641 54.5547C611.094 54.7247 611.321 55.0364 611.321 55.4899C611.321 55.83 611.094 56.0283 610.641 56.085C610.244 56.1984 609.904 56.2551 609.62 56.2551C608.487 56.2551 607.58 56.1984 606.9 56.085C606.276 56.0283 605.681 55.9717 605.114 55.915C604.548 55.8583 603.754 55.83 602.734 55.83C601.77 55.83 600.977 55.8583 600.353 55.915C599.786 55.9717 599.163 56.0283 598.483 56.085C597.859 56.1984 596.981 56.2551 595.847 56.2551C595.564 56.2551 595.195 56.1984 594.742 56.085C594.345 56.0283 594.147 55.83 594.147 55.4899C594.147 55.0364 594.345 54.7247 594.742 54.5547C595.195 54.328 595.649 54.1296 596.102 53.9595C596.952 53.6761 597.746 53.3361 598.483 52.9393C599.276 52.5425 599.673 51.7774 599.673 50.6438V32.5347C599.673 32.3079 599.645 32.1662 599.588 32.1096C599.531 31.9962 599.446 31.9962 599.333 32.1096L582.414 49.7086C582.244 49.8786 582.159 50.1903 582.159 50.6438C582.159 51.8341 582.556 52.6276 583.349 53.0243C584.2 53.3644 585.05 53.6761 585.9 53.9595C586.353 54.1296 586.778 54.328 587.175 54.5547C587.629 54.7247 587.855 55.0364 587.855 55.4899C587.855 55.83 587.629 56.0283 587.175 56.085C586.778 56.1984 586.438 56.2551 586.155 56.2551C585.021 56.2551 584.115 56.1984 583.434 56.085C582.811 56.0283 582.216 55.9717 581.649 55.915C581.082 55.8583 580.289 55.83 579.268 55.83C578.305 55.83 577.511 55.8583 576.888 55.915C576.321 55.9717 575.698 56.0283 575.017 56.085C574.394 56.1984 573.515 56.2551 572.382 56.2551ZM646.393 56.6802C644.976 56.6802 643.417 56.5101 641.716 56.17C640.016 55.83 638.514 55.3198 637.21 54.6397C635.907 53.9029 635.113 53.0527 634.83 52.0891C634.603 50.9555 634.461 50.077 634.405 49.4535C634.348 48.7734 634.32 47.9798 634.32 47.073C634.32 45.656 634.745 44.9475 635.595 44.9475C635.822 44.9475 636.077 45.2309 636.36 45.7977C636.644 46.3078 636.899 46.8746 637.125 47.4981C637.862 49.0851 638.684 50.3604 639.591 51.3239C640.498 52.2308 641.49 52.911 642.567 53.3644C643.644 53.7612 644.692 53.9595 645.712 53.9595C647.98 53.9595 649.85 53.3077 651.324 52.0041C652.797 50.7005 653.534 48.7734 653.534 46.2228C653.534 44.5791 653.137 43.0204 652.344 41.5467C651.607 40.073 650.388 39.3362 648.688 39.3362C648.065 39.3362 647.469 39.4212 646.903 39.5913C646.393 39.7613 645.656 39.8463 644.692 39.8463C644.012 39.8463 643.36 39.7046 642.737 39.4212C642.113 39.1378 641.801 38.656 641.801 37.9759C641.801 37.1824 642.113 36.6439 642.737 36.3605C643.417 36.0204 644.267 35.8504 645.287 35.8504C645.854 35.8504 646.393 35.9354 646.903 36.1055C647.469 36.2755 648.15 36.3605 648.943 36.3605C649.907 36.3605 650.842 35.8788 651.749 34.9152C652.712 33.9516 653.194 32.6197 653.194 30.9193C653.194 29.7857 652.996 28.6804 652.599 27.6035C652.259 26.4699 651.635 25.5347 650.729 24.7979C649.822 24.0044 648.575 23.6076 646.988 23.6076C645.401 23.6076 643.955 24.0894 642.652 25.0529C641.405 25.9598 640.243 27.2918 639.166 29.0489C638.712 29.7857 638.344 30.6359 638.061 31.5994C637.834 32.5063 637.437 32.9598 636.87 32.9598C636.417 32.9598 636.134 32.7897 636.02 32.4496C635.963 32.0529 635.935 31.5711 635.935 31.0043C635.935 29.8707 635.963 29.1055 636.02 28.7088C636.134 28.2553 636.275 27.4052 636.445 26.1582C636.502 25.7048 636.615 25.223 636.785 24.7129C636.955 24.2028 637.239 23.8627 637.636 23.6926C638.656 23.2392 640.044 22.7007 641.801 22.0773C643.615 21.3971 645.401 21.057 647.158 21.057C650.672 21.057 653.562 21.8222 655.83 23.3526C658.097 24.8262 659.23 26.895 659.23 29.559C659.23 31.146 658.947 32.4496 658.38 33.4699C657.813 34.4901 657.077 35.312 656.17 35.9354C655.32 36.5589 654.413 37.069 653.449 37.4658C653.222 37.5791 653.081 37.6925 653.024 37.8059C653.024 37.8625 653.166 37.9476 653.449 38.0609C655.093 38.4577 656.652 39.2228 658.125 40.3564C659.656 41.49 660.421 43.3038 660.421 45.7977C660.421 48.0649 659.882 49.9069 658.805 51.3239C657.728 52.7409 656.396 53.8462 654.809 54.6397C653.279 55.4332 651.72 55.9717 650.133 56.2551C648.603 56.5385 647.356 56.6802 646.393 56.6802ZM672.905 57.1903C671.884 57.1903 670.836 56.7935 669.759 56C668.739 55.2065 667.86 54.2429 667.123 53.1093C666.443 51.9758 666.103 50.8988 666.103 49.8786C666.103 48.0649 666.585 46.6479 667.548 45.6276C668.512 44.6074 670.042 43.6722 672.139 42.822L680.811 39.2512C681.945 38.7977 682.597 38.401 682.767 38.0609C682.994 37.7208 683.135 36.984 683.192 35.8504L683.362 30.4092C683.419 28.9355 682.994 27.6602 682.087 26.5833C681.237 25.5064 679.99 24.9679 678.346 24.9679C677.496 24.9679 676.645 25.1096 675.795 25.393C674.945 25.6764 674.237 26.0448 673.67 26.4983C673.33 26.725 673.103 27.0651 672.99 27.5185C672.876 27.9719 672.82 28.4537 672.82 28.9638C672.82 29.1906 672.82 29.4456 672.82 29.729C672.876 30.0124 672.905 30.2675 672.905 30.4942C672.905 30.7776 672.536 31.1743 671.799 31.6845C671.119 32.1379 670.326 32.563 669.419 32.9598C668.569 33.2998 667.86 33.4699 667.293 33.4699C667.01 33.4699 666.783 33.4132 666.613 33.2998C666.443 33.1298 666.358 32.9314 666.358 32.7047C666.358 31.7978 666.642 30.8343 667.208 29.814C667.832 28.7371 668.682 27.7452 669.759 26.8384C671.063 25.6481 672.48 24.5995 674.01 23.6926C675.54 22.7858 677.042 22.0773 678.516 21.5672C679.99 21.057 681.293 20.802 682.427 20.802C684.467 20.802 686.139 21.5388 687.443 23.0125C688.803 24.4295 689.455 26.2149 689.398 28.3687L688.973 48.7734C688.917 49.9636 689.172 50.9272 689.738 51.664C690.362 52.4008 691.127 52.7693 692.034 52.7693C693.451 52.7693 694.5 52.4575 695.18 51.8341C695.463 51.5507 695.69 51.409 695.86 51.409C696.143 51.409 696.37 51.494 696.54 51.664C696.71 51.8341 696.795 52.0608 696.795 52.3442C696.795 52.9676 696.483 53.5911 695.86 54.2146C694.953 55.1215 693.961 55.83 692.884 56.3401C691.864 56.9069 690.9 57.1903 689.993 57.1903C687.386 57.1903 685.317 55.7166 683.787 52.7693H683.532C681.662 54.2996 679.876 55.4049 678.176 56.085C676.475 56.8219 674.718 57.1903 672.905 57.1903ZM676.901 53.1093C678.034 53.1093 678.998 52.9393 679.791 52.5992C680.585 52.2025 681.293 51.6924 681.917 51.0689C682.2 50.7855 682.427 50.4171 682.597 49.9636C682.824 49.4535 682.965 48.66 683.022 47.5831L683.192 43.4171C683.249 42.7937 683.22 42.3402 683.107 42.0568C682.994 41.7734 682.767 41.6317 682.427 41.6317C682.313 41.6317 682.115 41.6601 681.832 41.7167C681.548 41.7734 681.18 41.8868 680.726 42.0568C677.722 43.1337 675.625 44.2673 674.435 45.4576C673.301 46.5912 672.735 47.6398 672.735 48.6033C672.735 50.077 673.16 51.2106 674.01 52.0041C674.917 52.7409 675.88 53.1093 676.901 53.1093ZM715.024 57.2753C712.19 57.2753 709.612 56.5668 707.288 55.1498C705.02 53.6761 703.207 51.6924 701.846 49.1985C700.543 46.6479 699.891 43.8139 699.891 40.6965C699.891 37.0123 700.684 33.6682 702.272 30.6642C703.915 27.6602 706.097 25.2797 708.818 23.5226C711.539 21.7089 714.543 20.802 717.83 20.802C721.514 20.802 724.745 21.7939 727.522 23.7777C728.202 24.2878 728.542 24.8262 728.542 25.393C728.542 25.8465 728.344 26.3566 727.947 26.9234C727.551 27.4902 727.069 27.9719 726.502 28.3687C725.935 28.7088 725.397 28.8788 724.887 28.8788C724.603 28.8788 724.32 28.7938 724.036 28.6238C723.753 28.397 723.441 28.1703 723.101 27.9436C721.854 26.9801 720.466 26.0732 718.935 25.223C717.405 24.3728 716.13 23.9477 715.109 23.9477C712.332 23.9477 710.065 25.2513 708.308 27.8586C706.607 30.4092 705.757 33.7816 705.757 37.9759C705.757 40.6398 706.324 43.0487 707.458 45.2025C708.648 47.3564 710.207 49.0568 712.134 50.3037C714.118 51.5507 716.3 52.1741 718.68 52.1741C720.324 52.1741 721.741 51.9191 722.931 51.409C724.121 50.8422 725.397 49.8786 726.757 48.5183C726.87 48.4049 727.012 48.3199 727.182 48.2632C727.352 48.1499 727.494 48.0932 727.607 48.0932C728.231 48.0932 728.542 48.49 728.542 49.2835C728.542 49.6235 728.429 50.0203 728.202 50.4737C728.032 50.8705 727.721 51.3523 727.267 51.9191C726.36 53.0527 725.283 54.0446 724.036 54.8947C722.79 55.6883 721.401 56.2834 719.871 56.6802C718.397 57.0769 716.781 57.2753 715.024 57.2753ZM742.165 56.2551C741.881 56.2551 741.485 56.1984 740.975 56.085C740.464 56.0283 740.209 55.83 740.209 55.4899C740.209 55.0364 740.408 54.7247 740.805 54.5547C741.258 54.328 741.711 54.1296 742.165 53.9595C743.015 53.6761 743.809 53.3361 744.545 52.9393C745.339 52.5425 745.736 51.7207 745.736 50.4737V27.4335C745.736 26.9234 745.679 26.3566 745.566 25.7331C745.452 25.0529 745.169 24.7129 744.715 24.7129H739.614C738.764 24.7129 738.084 24.8829 737.574 25.223C737.064 25.5631 736.61 26.1015 736.213 26.8384C735.873 27.5185 735.533 28.4821 735.193 29.729C735.08 30.1825 734.825 30.6642 734.428 31.1743C734.088 31.6278 733.691 31.8545 733.238 31.8545C733.011 31.8545 732.813 31.7411 732.643 31.5144C732.473 31.2877 732.388 30.976 732.388 30.5792C732.388 30.4658 732.388 30.3242 732.388 30.1541C732.444 29.9841 732.501 29.814 732.558 29.644C732.784 28.8505 733.011 27.7169 733.238 26.2432C733.465 24.7129 733.578 23.4092 733.578 22.3323C733.578 21.8789 733.663 21.5105 733.833 21.2271C734.06 20.9437 734.4 20.802 734.853 20.802C735.307 20.802 735.703 20.8587 736.043 20.972C736.384 21.0854 736.894 21.2271 737.574 21.3971C738.197 21.5672 738.792 21.7089 739.359 21.8222C739.983 21.9356 740.805 21.9923 741.825 21.9923H759.339C760.076 21.9923 760.812 21.9639 761.549 21.9072C762.286 21.8506 762.768 21.7372 762.995 21.5672C763.278 21.3404 763.59 21.1704 763.93 21.057C764.27 20.887 764.497 20.802 764.61 20.802C764.78 20.802 764.978 20.9153 765.205 21.1421C765.432 21.3688 765.545 21.6805 765.545 22.0773C765.545 22.6441 765.488 23.2675 765.375 23.9477C765.262 24.6279 765.205 25.3363 765.205 26.0732C765.205 26.7533 765.205 27.4335 765.205 28.1136C765.262 28.7371 765.318 29.3606 765.375 29.9841C765.432 30.3808 765.347 30.8059 765.12 31.2594C764.95 31.6561 764.667 31.8545 764.27 31.8545C763.873 31.8545 763.533 31.5994 763.25 31.0893C763.023 30.5225 762.881 30.0691 762.825 29.729C762.768 28.7088 762.569 27.8302 762.229 27.0934C761.889 26.2999 761.379 25.7048 760.699 25.308C760.019 24.9113 759.14 24.7129 758.063 24.7129H752.962C752.395 24.7129 752.027 25.0246 751.857 25.6481C751.744 26.2716 751.687 26.8667 751.687 27.4335V50.5588C751.687 51.749 752.084 52.5425 752.877 52.9393C753.727 53.3361 754.578 53.6761 755.428 53.9595C755.881 54.1296 756.306 54.328 756.703 54.5547C757.157 54.7247 757.383 55.0364 757.383 55.4899C757.383 55.83 757.128 56.0283 756.618 56.085C756.108 56.1984 755.711 56.2551 755.428 56.2551C754.351 56.2551 753.501 56.1984 752.877 56.085C752.254 56.0283 751.659 55.9717 751.092 55.915C750.582 55.8583 749.817 55.83 748.796 55.83C747.833 55.83 747.068 55.8583 746.501 55.915C745.934 55.9717 745.339 56.0283 744.715 56.085C744.149 56.1984 743.298 56.2551 742.165 56.2551ZM784.518 57.2753C781.4 57.2753 778.68 56.5101 776.356 54.9798C774.032 53.4494 772.218 51.2956 770.915 48.5183C769.611 45.6843 768.959 42.4252 768.959 38.7411C768.959 35.4537 769.696 32.478 771.17 29.814C772.7 27.0934 774.712 24.9113 777.206 23.2675C779.7 21.6238 782.421 20.802 785.368 20.802C787.635 20.802 789.647 21.2554 791.404 22.1623C793.161 23.0692 794.522 24.3445 795.485 25.9882C796.505 27.5752 797.016 29.4173 797.016 31.5144C797.016 33.2715 796.165 34.15 794.465 34.15H776.526C775.732 34.15 775.166 34.3767 774.826 34.8302C774.542 35.2269 774.4 36.0488 774.4 37.2957C774.4 40.0164 774.996 42.5103 776.186 44.7774C777.376 46.9879 778.963 48.7734 780.947 50.1337C782.931 51.4373 785.113 52.0891 787.493 52.0891C789.194 52.0891 790.724 51.7774 792.084 51.1539C793.501 50.4737 794.748 49.5102 795.825 48.2632C796.052 47.9798 796.222 47.8098 796.335 47.7531C796.449 47.6398 796.591 47.5831 796.761 47.5831C797.214 47.5831 797.441 47.8665 797.441 48.4333C797.441 49.5102 796.931 50.7005 795.91 52.0041C795.06 53.081 794.04 54.0162 792.85 54.8097C791.659 55.6032 790.356 56.1984 788.939 56.5951C787.522 57.0486 786.048 57.2753 784.518 57.2753ZM776.696 31.5144H784.433C785.793 31.5144 786.955 31.4861 787.919 31.4294C788.882 31.3727 789.817 31.2594 790.724 31.0893C791.008 31.0326 791.178 30.8626 791.234 30.5792C791.348 30.2391 791.404 29.7857 791.404 29.2189C791.404 27.5752 790.667 26.1865 789.194 25.0529C787.777 23.8627 786.076 23.2675 784.093 23.2675C782.789 23.2675 781.485 23.6643 780.182 24.4578C778.878 25.1946 777.801 26.1299 776.951 27.2635C776.101 28.397 775.676 29.5306 775.676 30.6642C775.676 31.231 776.016 31.5144 776.696 31.5144ZM803.532 56.2551C803.249 56.2551 802.88 56.1984 802.427 56.085C802.03 56.0283 801.832 55.83 801.832 55.4899C801.832 55.0364 802.03 54.7247 802.427 54.5547C802.88 54.328 803.334 54.1296 803.787 53.9595C804.637 53.6761 805.403 53.3644 806.083 53.0243C806.82 52.6276 807.188 51.8624 807.188 50.7288V30.4942C807.188 28.8505 806.876 27.4902 806.253 26.4133C805.686 25.2797 804.694 24.5712 803.277 24.2878C803.05 24.2311 802.739 24.0894 802.342 23.8627C802.002 23.5793 801.832 23.2392 801.832 22.8424C801.832 22.5024 802.087 22.2473 802.597 22.0773C803.164 21.8506 803.532 21.7372 803.702 21.7372C804.779 21.7372 805.629 21.7939 806.253 21.9072C806.876 21.9639 807.67 21.9923 808.633 21.9923H822.832C824.475 21.9923 825.666 21.9356 826.402 21.8222C827.139 21.6522 827.706 21.5672 828.103 21.5672C828.16 21.5672 828.273 21.6522 828.443 21.8222C828.67 21.9356 828.783 22.134 828.783 22.4174C828.783 23.1542 828.726 24.2028 828.613 25.5631C828.5 26.9234 828.443 28.057 828.443 28.9638C828.443 29.7007 828.386 30.4659 828.273 31.2594C828.16 32.0529 827.848 32.4496 827.338 32.4496C826.771 32.4496 826.232 31.3727 825.722 29.2189C825.552 28.4254 825.241 27.6885 824.787 27.0084C824.39 26.3282 823.909 25.7898 823.342 25.393C822.775 24.9396 822.18 24.7129 821.556 24.7129C821.16 24.7129 820.564 24.7129 819.771 24.7129C818.977 24.6562 818.184 24.6279 817.39 24.6279C816.654 24.6279 816.115 24.6279 815.775 24.6279C814.641 24.6279 813.905 25.053 813.565 25.9031C813.281 26.7533 813.139 27.4052 813.139 27.8586V50.7288C813.139 51.8624 813.565 52.6276 814.415 53.0243C815.322 53.3644 816.2 53.6761 817.05 53.9595C817.504 54.1296 817.929 54.328 818.326 54.5547C818.779 54.7247 819.006 55.0364 819.006 55.4899C819.006 55.8866 818.751 56.1134 818.241 56.17C817.787 56.2267 817.39 56.2551 817.05 56.2551C815.973 56.2551 815.123 56.1984 814.5 56.085C813.876 56.0283 813.281 55.9717 812.714 55.915C812.204 55.8583 811.439 55.83 810.419 55.83C809.455 55.83 808.662 55.8583 808.038 55.915C807.471 55.9717 806.848 56.0283 806.168 56.085C805.544 56.1984 804.666 56.2551 803.532 56.2551ZM833.588 56.2551C833.248 56.2551 832.823 56.2267 832.313 56.17C831.859 56.1134 831.632 55.8866 831.632 55.4899C831.632 55.0364 831.831 54.7247 832.228 54.5547C832.681 54.328 833.134 54.1296 833.588 53.9595C834.438 53.6761 835.232 53.3644 835.968 53.0243C836.762 52.6276 837.159 51.8341 837.159 50.6438V27.3485C837.159 26.2149 836.819 25.4497 836.138 25.0529C835.515 24.5995 834.778 24.2594 833.928 24.0327C833.475 23.8627 833.021 23.6643 832.568 23.4376C832.171 23.2109 831.973 22.8991 831.973 22.5024C831.973 22.1056 832.199 21.8789 832.653 21.8222C833.163 21.7655 833.588 21.7372 833.928 21.7372C835.062 21.7372 835.883 21.7655 836.394 21.8222C836.96 21.8789 837.499 21.9639 838.009 22.0773C838.519 22.134 839.256 22.1623 840.219 22.1623C841.24 22.1623 841.976 22.134 842.43 22.0773C842.883 21.9639 843.365 21.8789 843.875 21.8222C844.442 21.7655 845.264 21.7372 846.341 21.7372C846.681 21.7372 847.078 21.7655 847.531 21.8222C848.041 21.8789 848.296 22.1056 848.296 22.5024C848.296 22.8991 848.07 23.2109 847.616 23.4376C847.219 23.6643 846.794 23.8627 846.341 24.0327C845.491 24.2594 844.725 24.5995 844.045 25.0529C843.422 25.4497 843.11 26.2149 843.11 27.3485V36.2755C843.11 36.5022 843.223 36.6439 843.45 36.7006C843.677 36.7573 843.847 36.7856 843.96 36.7856H859.774C859.887 36.7856 859.972 36.7289 860.029 36.6156C860.142 36.5022 860.199 36.3322 860.199 36.1055V27.3485C860.199 26.2149 859.916 25.4497 859.349 25.0529C858.782 24.5995 858.073 24.2594 857.223 24.0327C856.77 23.8627 856.316 23.6643 855.863 23.4376C855.466 23.2109 855.268 22.8991 855.268 22.5024C855.268 22.1056 855.495 21.8789 855.948 21.8222C856.401 21.7655 856.827 21.7372 857.223 21.7372C858.357 21.7372 859.179 21.7655 859.689 21.8222C860.199 21.8789 860.681 21.9639 861.134 22.0773C861.644 22.134 862.381 22.1623 863.345 22.1623C864.365 22.1623 865.102 22.134 865.555 22.0773C866.065 21.9639 866.604 21.8789 867.171 21.8222C867.737 21.7655 868.559 21.7372 869.636 21.7372C870.033 21.7372 870.458 21.7655 870.911 21.8222C871.365 21.8789 871.592 22.1056 871.592 22.5024C871.592 22.8991 871.365 23.2109 870.911 23.4376C870.515 23.6643 870.09 23.8627 869.636 24.0327C868.786 24.2594 867.992 24.5995 867.256 25.0529C866.519 25.4497 866.15 26.2149 866.15 27.3485V50.6438C866.15 51.7774 866.547 52.5425 867.341 52.9393C868.191 53.3361 869.041 53.6761 869.891 53.9595C870.345 54.1296 870.77 54.328 871.166 54.5547C871.62 54.7247 871.847 55.0364 871.847 55.4899C871.847 55.8866 871.592 56.1134 871.081 56.17C870.628 56.2267 870.231 56.2551 869.891 56.2551C868.814 56.2551 867.964 56.1984 867.341 56.085C866.717 56.0283 866.122 55.9717 865.555 55.915C865.045 55.8583 864.28 55.83 863.26 55.83C862.296 55.83 861.531 55.8583 860.964 55.915C860.397 55.9717 859.802 56.0283 859.179 56.085C858.612 56.1984 857.762 56.2551 856.628 56.2551C856.288 56.2551 855.863 56.2267 855.353 56.17C854.899 56.1134 854.673 55.8866 854.673 55.4899C854.673 55.0364 854.871 54.7247 855.268 54.5547C855.721 54.328 856.175 54.1296 856.628 53.9595C857.478 53.6761 858.272 53.3361 859.009 52.9393C859.802 52.5425 860.199 51.7774 860.199 50.6438V40.0164C860.199 39.7896 860.171 39.6763 860.114 39.6763C860.057 39.6196 859.972 39.5913 859.859 39.5913H843.365C843.252 39.5913 843.167 39.6479 843.11 39.7613C843.11 39.818 843.11 39.9597 843.11 40.1864V50.6438C843.11 51.8341 843.507 52.6276 844.3 53.0243C845.151 53.3644 846.001 53.6761 846.851 53.9595C847.304 54.1296 847.729 54.328 848.126 54.5547C848.58 54.7247 848.806 55.0364 848.806 55.4899C848.806 55.8866 848.551 56.1134 848.041 56.17C847.588 56.2267 847.191 56.2551 846.851 56.2551C845.774 56.2551 844.924 56.1984 844.3 56.085C843.677 56.0283 843.082 55.9717 842.515 55.915C842.005 55.8583 841.24 55.83 840.219 55.83C839.256 55.83 838.491 55.8583 837.924 55.915C837.357 55.9717 836.762 56.0283 836.138 56.085C835.572 56.1984 834.721 56.2551 833.588 56.2551ZM879.369 80.2305C878.293 80.2305 877.301 79.9471 876.394 79.3803C875.487 78.8702 875.033 77.9917 875.033 76.7447C875.033 75.7245 875.26 74.8176 875.714 74.0241C876.224 73.2873 876.932 72.9189 877.839 72.9189C878.463 72.9189 879.058 73.0039 879.625 73.1739C880.248 73.344 880.786 73.429 881.24 73.429C881.58 73.429 881.863 73.344 882.09 73.1739C882.373 73.0606 882.629 72.8338 882.855 72.4938C883.479 71.4735 884.187 70.1982 884.981 68.6679C885.831 67.1375 886.681 65.4088 887.531 63.4817C888.438 61.5546 889.288 59.5141 890.082 57.3603C890.252 56.8502 890.337 56.1984 890.337 55.4049C890.337 54.9514 890.309 54.5263 890.252 54.1296C890.195 53.6761 890.11 53.2794 889.997 52.9393L880.135 28.0286C879.738 27.0084 879.199 26.1299 878.519 25.393C877.896 24.5995 877.159 24.0894 876.309 23.8627C875.855 23.6926 875.402 23.4943 874.948 23.2675C874.552 23.0408 874.353 22.7291 874.353 22.3323C874.353 21.9923 874.552 21.7939 874.948 21.7372C875.402 21.6238 875.77 21.5672 876.054 21.5672C877.187 21.5672 878.009 21.5955 878.519 21.6522C879.086 21.7089 879.596 21.7939 880.05 21.9072C880.56 21.9639 881.297 21.9923 882.26 21.9923C883.28 21.9923 884.046 21.9639 884.556 21.9072C885.066 21.7939 885.604 21.7089 886.171 21.6522C886.738 21.5955 887.588 21.5672 888.722 21.5672C889.062 21.5672 889.43 21.6522 889.827 21.8222C890.224 21.9356 890.422 22.1623 890.422 22.5024C890.422 22.8991 890.11 23.2959 889.487 23.6926C888.92 24.0327 888.41 24.2594 887.956 24.3728C887.39 24.5428 886.965 24.8546 886.681 25.308C886.398 25.7048 886.256 26.2999 886.256 27.0934C886.256 27.4335 886.341 27.8586 886.511 28.3687C886.681 28.8221 886.823 29.1906 886.936 29.474L893.823 46.4778C893.936 46.8179 894.106 46.9879 894.333 46.9879C894.503 46.9879 894.645 46.8179 894.758 46.4778L900.624 30.9193C900.794 30.5225 900.936 30.0124 901.049 29.3889C901.219 28.7088 901.304 28.1703 901.304 27.7736C901.304 26.6967 901.134 25.9598 900.794 25.5631C900.511 25.1096 900.114 24.7696 899.604 24.5428C899.151 24.3161 898.612 24.0327 897.989 23.6926C897.422 23.2959 897.139 22.8991 897.139 22.5024C897.139 22.1623 897.337 21.9356 897.734 21.8222C898.187 21.6522 898.555 21.5672 898.839 21.5672C899.632 21.5672 900.426 21.6522 901.219 21.8222C902.07 21.9356 903.288 21.9923 904.875 21.9923C905.952 21.9923 906.717 21.9639 907.171 21.9072C907.681 21.7939 908.106 21.7089 908.446 21.6522C908.786 21.5955 909.268 21.5672 909.891 21.5672C910.175 21.5672 910.515 21.6238 910.912 21.7372C911.365 21.7939 911.592 21.9923 911.592 22.3323C911.592 22.7291 911.365 23.0408 910.912 23.2675C910.515 23.4943 910.09 23.6926 909.636 23.8627C908.786 24.0894 907.879 24.7696 906.916 25.9031C905.952 26.9801 905.187 28.1987 904.62 29.559L893.058 57.1053C893.001 57.2753 892.689 58.0121 892.122 59.3158C891.612 60.6194 890.96 62.2348 890.167 64.1619C889.373 66.089 888.495 68.1578 887.531 70.3683C886.624 72.5788 885.746 74.7043 884.896 76.7447C884.386 77.8783 883.649 78.7285 882.685 79.2953C881.722 79.9188 880.616 80.2305 879.369 80.2305ZM915.425 57.1903C913.214 57.1903 911.627 56.7368 910.664 55.83C909.7 54.9231 909.219 53.9595 909.219 52.9393C909.219 51.9757 909.53 51.1539 910.154 50.4737C910.834 49.7369 911.712 49.3685 912.789 49.3685C913.47 49.3685 914.008 49.5385 914.405 49.8786C914.858 50.2187 915.283 50.5588 915.68 50.8988C915.963 51.1256 916.218 51.3523 916.445 51.579C916.729 51.749 917.04 51.8341 917.38 51.8341C918.231 51.8341 918.996 51.0972 919.676 49.6235C920.413 48.0932 921.036 46.1378 921.546 43.7572C922.056 41.3767 922.453 38.8544 922.737 36.1905C923.02 33.5265 923.162 31.061 923.162 28.7938C923.162 27.1501 922.765 26.1015 921.971 25.6481C921.178 25.1946 919.959 24.8546 918.316 24.6279C918.089 24.5712 917.777 24.4011 917.38 24.1177C917.04 23.7777 916.87 23.4092 916.87 23.0125C916.87 22.6724 917.125 22.389 917.635 22.1623C918.202 21.8789 918.571 21.7372 918.741 21.7372C919.818 21.7372 920.611 21.7939 921.121 21.9072C921.631 21.9639 922.368 21.9923 923.332 21.9923H941.101C942.234 21.9923 943.056 21.9639 943.566 21.9072C944.133 21.7939 944.955 21.7372 946.032 21.7372C946.202 21.7372 946.542 21.8789 947.052 22.1623C947.619 22.389 947.902 22.6724 947.902 23.0125C947.902 23.4092 947.732 23.7777 947.392 24.1177C947.052 24.4011 946.74 24.5712 946.457 24.6279C945.04 24.9113 944.02 25.393 943.396 26.0732C942.83 26.6967 942.546 28.1703 942.546 30.4942V50.7288C942.546 51.8624 942.83 52.6276 943.396 53.0243C944.02 53.3644 944.757 53.6761 945.607 53.9595C946.06 54.1296 946.485 54.328 946.882 54.5547C947.336 54.7247 947.562 55.0364 947.562 55.4899C947.562 55.83 947.364 56.0283 946.967 56.085C946.57 56.1984 946.202 56.2551 945.862 56.2551C944.785 56.2551 943.935 56.1984 943.311 56.085C942.745 56.0283 942.206 55.9717 941.696 55.915C941.186 55.8583 940.421 55.83 939.4 55.83C938.437 55.83 937.672 55.8583 937.105 55.915C936.538 55.9717 935.943 56.0283 935.32 56.085C934.753 56.1984 933.931 56.2551 932.854 56.2551C932.514 56.2551 932.145 56.1984 931.749 56.085C931.352 56.0283 931.154 55.83 931.154 55.4899C931.154 55.0364 931.352 54.7247 931.749 54.5547C932.202 54.328 932.656 54.1296 933.109 53.9595C933.959 53.6761 934.753 53.3644 935.49 53.0243C936.226 52.6276 936.595 51.8624 936.595 50.7288V27.9436C936.595 27.4902 936.538 26.8384 936.425 25.9882C936.311 25.138 935.915 24.7129 935.234 24.7129H927.668C926.931 24.7129 926.506 25.138 926.392 25.9882C926.279 26.8384 926.222 27.4902 926.222 27.9436C926.222 30.3242 926.081 32.8464 925.797 35.5103C925.571 38.1743 925.174 40.8099 924.607 43.4171C924.097 45.9677 923.417 48.2916 922.567 50.3887C921.716 52.4292 920.696 54.0729 919.506 55.3198C918.316 56.5668 916.955 57.1903 915.425 57.1903ZM953.807 56.2551C953.523 56.2551 953.155 56.1984 952.701 56.085C952.305 56.0283 952.106 55.83 952.106 55.4899C952.106 55.0364 952.305 54.7247 952.701 54.5547C953.155 54.328 953.608 54.1296 954.062 53.9595C954.912 53.6761 955.705 53.3644 956.442 53.0243C957.236 52.6276 957.632 51.8341 957.632 50.6438V27.3485C957.632 26.2149 957.292 25.4497 956.612 25.0529C955.989 24.5995 955.252 24.2594 954.402 24.0327C953.948 23.8627 953.495 23.6643 953.041 23.4376C952.645 23.2109 952.446 22.8991 952.446 22.5024C952.446 22.1623 952.645 21.9639 953.041 21.9072C953.495 21.7939 953.863 21.7372 954.147 21.7372C955.28 21.7372 956.13 21.7655 956.697 21.8222C957.321 21.8789 957.888 21.9639 958.398 22.0773C958.964 22.134 959.73 22.1623 960.693 22.1623C961.713 22.1623 962.45 22.134 962.904 22.0773C963.414 21.9639 963.952 21.8789 964.519 21.8222C965.086 21.7655 965.936 21.7372 967.07 21.7372C967.353 21.7372 967.693 21.7939 968.09 21.9072C968.543 21.9639 968.77 22.1623 968.77 22.5024C968.77 22.8991 968.543 23.2109 968.09 23.4376C967.693 23.6643 967.268 23.8627 966.815 24.0327C965.964 24.2594 965.199 24.5995 964.519 25.0529C963.896 25.4497 963.584 26.2149 963.584 27.3485V44.3523C963.584 44.5791 963.697 44.7491 963.924 44.8625C964.207 44.9191 964.377 44.9191 964.434 44.8625L980.673 28.1136C980.786 27.8869 980.871 27.7452 980.928 27.6886C981.041 27.6319 981.098 27.4618 981.098 27.1784C981.098 26.0448 980.814 25.308 980.248 24.9679C979.681 24.5712 978.972 24.2594 978.122 24.0327C977.669 23.8627 977.215 23.6643 976.762 23.4376C976.365 23.2109 976.167 22.8991 976.167 22.5024C976.167 22.1623 976.365 21.9639 976.762 21.9072C977.159 21.7939 977.527 21.7372 977.867 21.7372C979.001 21.7372 979.851 21.7655 980.418 21.8222C980.984 21.8789 981.523 21.9639 982.033 22.0773C982.543 22.134 983.28 22.1623 984.244 22.1623C985.264 22.1623 986.029 22.134 986.539 22.0773C987.049 21.9639 987.588 21.8789 988.154 21.8222C988.778 21.7655 989.656 21.7372 990.79 21.7372C991.13 21.7372 991.499 21.7939 991.895 21.9072C992.292 21.9639 992.49 22.1623 992.49 22.5024C992.49 22.8991 992.264 23.2109 991.81 23.4376C991.413 23.6643 990.988 23.8627 990.535 24.0327C989.685 24.2594 988.891 24.5995 988.154 25.0529C987.418 25.4497 987.049 26.2149 987.049 27.3485V50.6438C987.049 51.7774 987.446 52.5425 988.239 52.9393C989.09 53.3361 989.94 53.6761 990.79 53.9595C991.243 54.1296 991.669 54.328 992.065 54.5547C992.519 54.7247 992.745 55.0364 992.745 55.4899C992.745 55.83 992.519 56.0283 992.065 56.085C991.669 56.1984 991.328 56.2551 991.045 56.2551C989.911 56.2551 989.005 56.1984 988.324 56.085C987.701 56.0283 987.106 55.9717 986.539 55.915C985.972 55.8583 985.179 55.83 984.158 55.83C983.195 55.83 982.401 55.8583 981.778 55.915C981.211 55.9717 980.588 56.0283 979.908 56.085C979.284 56.1984 978.406 56.2551 977.272 56.2551C976.989 56.2551 976.62 56.1984 976.167 56.085C975.77 56.0283 975.572 55.83 975.572 55.4899C975.572 55.0364 975.77 54.7247 976.167 54.5547C976.62 54.328 977.074 54.1296 977.527 53.9595C978.377 53.6761 979.171 53.3361 979.908 52.9393C980.701 52.5425 981.098 51.7774 981.098 50.6438V32.5347C981.098 32.3079 981.069 32.1662 981.013 32.1096C980.956 31.9962 980.871 31.9962 980.758 32.1096L963.839 49.7086C963.669 49.8786 963.584 50.1903 963.584 50.6438C963.584 51.8341 963.981 52.6276 964.774 53.0243C965.624 53.3644 966.474 53.6761 967.325 53.9595C967.778 54.1296 968.203 54.328 968.6 54.5547C969.053 54.7247 969.28 55.0364 969.28 55.4899C969.28 55.83 969.053 56.0283 968.6 56.085C968.203 56.1984 967.863 56.2551 967.58 56.2551C966.446 56.2551 965.539 56.1984 964.859 56.085C964.236 56.0283 963.64 55.9717 963.074 55.915C962.507 55.8583 961.713 55.83 960.693 55.83C959.73 55.83 958.936 55.8583 958.313 55.915C957.746 55.9717 957.122 56.0283 956.442 56.085C955.819 56.1984 954.94 56.2551 953.807 56.2551ZM1013.01 57.2753C1010.17 57.2753 1007.59 56.5668 1005.27 55.1498C1003 53.6761 1001.19 51.6924 999.829 49.1985C998.526 46.6479 997.874 43.8139 997.874 40.6965C997.874 37.0123 998.667 33.6682 1000.25 30.6642C1001.9 27.6602 1004.08 25.2797 1006.8 23.5226C1009.52 21.7089 1012.53 20.802 1015.81 20.802C1019.5 20.802 1022.73 21.7939 1025.51 23.7777C1026.19 24.2878 1026.53 24.8262 1026.53 25.393C1026.53 25.8465 1026.33 26.3566 1025.93 26.9234C1025.53 27.4902 1025.05 27.9719 1024.48 28.3687C1023.92 28.7088 1023.38 28.8788 1022.87 28.8788C1022.59 28.8788 1022.3 28.7938 1022.02 28.6238C1021.74 28.397 1021.42 28.1703 1021.08 27.9436C1019.84 26.9801 1018.45 26.0732 1016.92 25.223C1015.39 24.3728 1014.11 23.9477 1013.09 23.9477C1010.32 23.9477 1008.05 25.2513 1006.29 27.8586C1004.59 30.4092 1003.74 33.7816 1003.74 37.9759C1003.74 40.6398 1004.31 43.0487 1005.44 45.2025C1006.63 47.3564 1008.19 49.0568 1010.12 50.3037C1012.1 51.5507 1014.28 52.1741 1016.66 52.1741C1018.31 52.1741 1019.72 51.9191 1020.91 51.409C1022.1 50.8422 1023.38 49.8786 1024.74 48.5183C1024.85 48.4049 1025 48.3199 1025.17 48.2632C1025.34 48.1499 1025.48 48.0932 1025.59 48.0932C1026.21 48.0932 1026.53 48.49 1026.53 49.2835C1026.53 49.6235 1026.41 50.0203 1026.19 50.4737C1026.02 50.8705 1025.7 51.3523 1025.25 51.9191C1024.34 53.0527 1023.27 54.0446 1022.02 54.8947C1020.77 55.6883 1019.38 56.2834 1017.85 56.6802C1016.38 57.0769 1014.76 57.2753 1013.01 57.2753ZM1032.36 56.2551C1032.07 56.2551 1031.65 56.1984 1031.08 56.085C1030.57 56.0283 1030.32 55.83 1030.32 55.4899C1030.32 55.0364 1030.51 54.7247 1030.91 54.5547C1031.36 54.328 1031.82 54.1296 1032.27 53.9595C1033.12 53.6761 1033.91 53.3644 1034.65 53.0243C1035.44 52.6276 1035.84 51.8341 1035.84 50.6438V27.3485C1035.84 26.2149 1035.59 25.4497 1035.08 25.0529C1034.57 24.5995 1033.89 24.2594 1033.04 24.0327C1032.58 23.8627 1032.13 23.6643 1031.68 23.4376C1031.28 23.2109 1031.08 22.8991 1031.08 22.5024C1031.08 22.1623 1031.31 21.9639 1031.76 21.9072C1032.21 21.7939 1032.61 21.7372 1032.95 21.7372C1034.08 21.7372 1034.88 21.7655 1035.33 21.8222C1035.84 21.8789 1036.32 21.9639 1036.78 22.0773C1037.23 22.134 1037.94 22.1623 1038.9 22.1623C1039.92 22.1623 1040.66 22.134 1041.11 22.0773C1041.57 21.9639 1042.05 21.8789 1042.56 21.8222C1043.07 21.7655 1043.86 21.7372 1044.94 21.7372C1045.22 21.7372 1045.62 21.7939 1046.13 21.9072C1046.7 21.9639 1046.98 22.1623 1046.98 22.5024C1046.98 22.8991 1046.75 23.2109 1046.3 23.4376C1045.9 23.6643 1045.48 23.8627 1045.02 24.0327C1044.17 24.2594 1043.41 24.5995 1042.73 25.0529C1042.1 25.4497 1041.79 26.2149 1041.79 27.3485V35.9354C1041.79 36.1621 1041.88 36.3322 1042.05 36.4455C1042.27 36.5022 1042.47 36.5022 1042.64 36.4455C1043.15 36.1621 1044.03 35.9921 1045.28 35.9354C1046.53 35.8221 1047.55 35.7654 1048.34 35.7654C1049.3 35.7654 1050.44 35.9354 1051.74 36.2755C1053.04 36.5589 1054.32 37.0974 1055.57 37.8909C1056.87 38.6277 1057.95 39.6479 1058.8 40.9516C1059.65 42.2552 1060.07 43.8706 1060.07 45.7977C1060.07 48.2916 1059.39 50.332 1058.03 51.9191C1056.73 53.4494 1054.97 54.5547 1052.76 55.2348C1050.55 55.915 1048.14 56.2551 1045.53 56.2551C1044.46 56.2551 1043.61 56.1984 1042.98 56.085C1042.36 56.0283 1041.76 55.9717 1041.2 55.915C1040.69 55.8583 1039.92 55.83 1038.9 55.83C1037.94 55.83 1037.17 55.8583 1036.61 55.915C1036.04 55.9717 1035.44 56.0283 1034.82 56.085C1034.25 56.1984 1033.43 56.2551 1032.36 56.2551ZM1046.38 53.8745C1048.31 53.8745 1050.04 53.251 1051.57 52.0041C1053.1 50.7005 1053.87 48.8017 1053.87 46.3078C1053.87 43.4738 1053.19 41.405 1051.83 40.1014C1050.52 38.7977 1048.51 38.1459 1045.79 38.1459C1044.26 38.1459 1043.18 38.3443 1042.56 38.7411C1042.16 39.0245 1041.93 39.4212 1041.88 39.9313C1041.82 40.3848 1041.79 40.7249 1041.79 40.9516V49.7936C1041.79 51.1539 1042.3 52.1741 1043.32 52.8543C1044.34 53.5344 1045.36 53.8745 1046.38 53.8745ZM1083.66 56.2551C1083.32 56.2551 1082.9 56.2267 1082.39 56.17C1081.94 56.1134 1081.71 55.8866 1081.71 55.4899C1081.71 55.0364 1081.91 54.7247 1082.3 54.5547C1082.76 54.328 1083.21 54.1296 1083.66 53.9595C1084.51 53.6761 1085.31 53.3644 1086.04 53.0243C1086.84 52.6276 1087.24 51.8341 1087.24 50.6438V27.3485C1087.24 26.2149 1086.9 25.4497 1086.21 25.0529C1085.59 24.5995 1084.85 24.2594 1084 24.0327C1083.55 23.8627 1083.1 23.6643 1082.64 23.4376C1082.25 23.2109 1082.05 22.8991 1082.05 22.5024C1082.05 22.1056 1082.28 21.8789 1082.73 21.8222C1083.24 21.7655 1083.66 21.7372 1084 21.7372C1085.14 21.7372 1085.96 21.7655 1086.47 21.8222C1087.04 21.8789 1087.58 21.9639 1088.09 22.0773C1088.6 22.134 1089.33 22.1623 1090.3 22.1623C1091.32 22.1623 1092.05 22.134 1092.51 22.0773C1092.96 21.9639 1093.44 21.8789 1093.95 21.8222C1094.52 21.7655 1095.34 21.7372 1096.42 21.7372C1096.76 21.7372 1097.15 21.7655 1097.61 21.8222C1098.12 21.8789 1098.37 22.1056 1098.37 22.5024C1098.37 22.8991 1098.15 23.2109 1097.69 23.4376C1097.3 23.6643 1096.87 23.8627 1096.42 24.0327C1095.57 24.2594 1094.8 24.5995 1094.12 25.0529C1093.5 25.4497 1093.19 26.2149 1093.19 27.3485V36.2755C1093.19 36.5022 1093.3 36.6439 1093.53 36.7006C1093.75 36.7573 1093.92 36.7856 1094.04 36.7856H1109.85C1109.96 36.7856 1110.05 36.7289 1110.11 36.6156C1110.22 36.5022 1110.28 36.3322 1110.28 36.1055V27.3485C1110.28 26.2149 1109.99 25.4497 1109.43 25.0529C1108.86 24.5995 1108.15 24.2594 1107.3 24.0327C1106.85 23.8627 1106.39 23.6643 1105.94 23.4376C1105.54 23.2109 1105.34 22.8991 1105.34 22.5024C1105.34 22.1056 1105.57 21.8789 1106.02 21.8222C1106.48 21.7655 1106.9 21.7372 1107.3 21.7372C1108.43 21.7372 1109.26 21.7655 1109.77 21.8222C1110.28 21.8789 1110.76 21.9639 1111.21 22.0773C1111.72 22.134 1112.46 22.1623 1113.42 22.1623C1114.44 22.1623 1115.18 22.134 1115.63 22.0773C1116.14 21.9639 1116.68 21.8789 1117.25 21.8222C1117.81 21.7655 1118.64 21.7372 1119.71 21.7372C1120.11 21.7372 1120.53 21.7655 1120.99 21.8222C1121.44 21.8789 1121.67 22.1056 1121.67 22.5024C1121.67 22.8991 1121.44 23.2109 1120.99 23.4376C1120.59 23.6643 1120.17 23.8627 1119.71 24.0327C1118.86 24.2594 1118.07 24.5995 1117.33 25.0529C1116.6 25.4497 1116.23 26.2149 1116.23 27.3485V50.6438C1116.23 51.7774 1116.62 52.5425 1117.42 52.9393C1118.27 53.3361 1119.12 53.6761 1119.97 53.9595C1120.42 54.1296 1120.85 54.328 1121.24 54.5547C1121.7 54.7247 1121.92 55.0364 1121.92 55.4899C1121.92 55.8866 1121.67 56.1134 1121.16 56.17C1120.7 56.2267 1120.31 56.2551 1119.97 56.2551C1118.89 56.2551 1118.04 56.1984 1117.42 56.085C1116.79 56.0283 1116.2 55.9717 1115.63 55.915C1115.12 55.8583 1114.36 55.83 1113.34 55.83C1112.37 55.83 1111.61 55.8583 1111.04 55.915C1110.47 55.9717 1109.88 56.0283 1109.26 56.085C1108.69 56.1984 1107.84 56.2551 1106.7 56.2551C1106.36 56.2551 1105.94 56.2267 1105.43 56.17C1104.98 56.1134 1104.75 55.8866 1104.75 55.4899C1104.75 55.0364 1104.95 54.7247 1105.34 54.5547C1105.8 54.328 1106.25 54.1296 1106.7 53.9595C1107.55 53.6761 1108.35 53.3361 1109.09 52.9393C1109.88 52.5425 1110.28 51.7774 1110.28 50.6438V40.0164C1110.28 39.7896 1110.25 39.6763 1110.19 39.6763C1110.13 39.6196 1110.05 39.5913 1109.94 39.5913H1093.44C1093.33 39.5913 1093.24 39.6479 1093.19 39.7613C1093.19 39.818 1093.19 39.9597 1093.19 40.1864V50.6438C1093.19 51.8341 1093.58 52.6276 1094.38 53.0243C1095.23 53.3644 1096.08 53.6761 1096.93 53.9595C1097.38 54.1296 1097.81 54.328 1098.2 54.5547C1098.66 54.7247 1098.88 55.0364 1098.88 55.4899C1098.88 55.8866 1098.63 56.1134 1098.12 56.17C1097.66 56.2267 1097.27 56.2551 1096.93 56.2551C1095.85 56.2551 1095 56.1984 1094.38 56.085C1093.75 56.0283 1093.16 55.9717 1092.59 55.915C1092.08 55.8583 1091.32 55.83 1090.3 55.83C1089.33 55.83 1088.57 55.8583 1088 55.915C1087.43 55.9717 1086.84 56.0283 1086.21 56.085C1085.65 56.1984 1084.8 56.2551 1083.66 56.2551ZM1142.11 57.2753C1139 57.2753 1136.28 56.5101 1133.95 54.9798C1131.63 53.4494 1129.81 51.2956 1128.51 48.5183C1127.21 45.6843 1126.56 42.4252 1126.56 38.7411C1126.56 35.4537 1127.29 32.478 1128.77 29.814C1130.3 27.0934 1132.31 24.9113 1134.8 23.2675C1137.3 21.6238 1140.02 20.802 1142.96 20.802C1145.23 20.802 1147.24 21.2554 1149 22.1623C1150.76 23.0692 1152.12 24.3445 1153.08 25.9882C1154.1 27.5752 1154.61 29.4173 1154.61 31.5144C1154.61 33.2715 1153.76 34.15 1152.06 34.15H1134.12C1133.33 34.15 1132.76 34.3767 1132.42 34.8302C1132.14 35.2269 1132 36.0488 1132 37.2957C1132 40.0164 1132.59 42.5103 1133.78 44.7774C1134.97 46.9879 1136.56 48.7734 1138.54 50.1337C1140.53 51.4373 1142.71 52.0891 1145.09 52.0891C1146.79 52.0891 1148.32 51.7774 1149.68 51.1539C1151.1 50.4737 1152.34 49.5102 1153.42 48.2632C1153.65 47.9798 1153.82 47.8098 1153.93 47.7531C1154.04 47.6398 1154.19 47.5831 1154.36 47.5831C1154.81 47.5831 1155.04 47.8665 1155.04 48.4333C1155.04 49.5102 1154.53 50.7005 1153.51 52.0041C1152.66 53.081 1151.64 54.0162 1150.45 54.8097C1149.26 55.6032 1147.95 56.1984 1146.53 56.5951C1145.12 57.0486 1143.64 57.2753 1142.11 57.2753ZM1134.29 31.5144H1142.03C1143.39 31.5144 1144.55 31.4861 1145.51 31.4294C1146.48 31.3727 1147.41 31.2594 1148.32 31.0893C1148.6 31.0326 1148.77 30.8626 1148.83 30.5792C1148.94 30.2391 1149 29.7857 1149 29.2189C1149 27.5752 1148.26 26.1865 1146.79 25.0529C1145.37 23.8627 1143.67 23.2675 1141.69 23.2675C1140.39 23.2675 1139.08 23.6643 1137.78 24.4578C1136.47 25.1946 1135.4 26.1299 1134.55 27.2635C1133.7 28.397 1133.27 29.5306 1133.27 30.6642C1133.27 31.231 1133.61 31.5144 1134.29 31.5144ZM1166.91 57.1903C1165.66 57.1903 1164.56 56.7368 1163.59 55.83C1162.69 54.8664 1162.23 53.7612 1162.23 52.5142C1162.23 51.2106 1162.69 50.1053 1163.59 49.1985C1164.56 48.2916 1165.66 47.8381 1166.91 47.8381C1168.21 47.8381 1169.32 48.2916 1170.23 49.1985C1171.13 50.1053 1171.59 51.2106 1171.59 52.5142C1171.59 53.7612 1171.13 54.8664 1170.23 55.83C1169.32 56.7368 1168.21 57.1903 1166.91 57.1903ZM1186.5 57.1903C1185.26 57.1903 1184.15 56.7368 1183.19 55.83C1182.28 54.8664 1181.83 53.7612 1181.83 52.5142C1181.83 51.2106 1182.28 50.1053 1183.19 49.1985C1184.15 48.2916 1185.26 47.8381 1186.5 47.8381C1187.81 47.8381 1188.91 48.2916 1189.82 49.1985C1190.73 50.1053 1191.18 51.2106 1191.18 52.5142C1191.18 53.7612 1190.73 54.8664 1189.82 55.83C1188.91 56.7368 1187.81 57.1903 1186.5 57.1903ZM1206.1 57.1903C1204.85 57.1903 1203.75 56.7368 1202.78 55.83C1201.88 54.8664 1201.42 53.7612 1201.42 52.5142C1201.42 51.2106 1201.88 50.1053 1202.78 49.1985C1203.75 48.2916 1204.85 47.8381 1206.1 47.8381C1207.4 47.8381 1208.51 48.2916 1209.41 49.1985C1210.32 50.1053 1210.77 51.2106 1210.77 52.5142C1210.77 53.7612 1210.32 54.8664 1209.41 55.83C1208.51 56.7368 1207.4 57.1903 1206.1 57.1903Z" fill="#1D1D1D"/>
</svg>
