<svg width="1664" height="153" viewBox="0 0 1664 153" fill="none" xmlns="http://www.w3.org/2000/svg">
<path d="M91.7677 56.1542H76.2514C80.3891 29.7026 68.1239 18.4718 49.5043 18.4718C26.8949 18.4718 15.5163 36.5002 15.5163 62.0651C15.5163 87.1867 26.8949 104.181 47.8788 104.181C65.7595 104.181 75.9559 95.3143 73.1482 69.4538H88.6645C91.6199 101.373 74.3304 113.786 47.8788 113.786C19.8017 113.786 0 92.3588 0 62.0651C0 31.1803 19.8017 8.86645 49.5043 8.86645C76.9903 8.86645 97.3831 23.4961 91.7677 56.1542Z" fill="#EDEEEA"/>
<path d="M144.159 113.786C121.107 113.786 100.862 102.703 100.862 80.8324C100.862 76.6948 101.453 70.4882 106.034 64.7251H121.55C117.412 70.636 116.378 76.547 116.378 80.6847C116.378 97.9742 130.121 105.067 146.376 105.067C157.016 105.067 167.36 101.373 167.36 88.8122C167.36 61.7696 105.59 74.7737 105.59 37.3868C105.59 20.9839 119.629 8.86645 143.273 8.86645C168.247 8.86645 183.911 20.2451 183.911 43.4456C183.911 48.6177 182.137 54.2331 179.034 58.3708H163.518C165.882 54.8242 168.394 49.5043 168.394 42.8545C168.394 25.1216 159.232 17.4373 142.386 17.4373C125.835 17.4373 120.368 25.4172 120.368 35.9091C120.368 62.3607 182.137 49.7999 182.137 87.0389C182.137 103.737 167.212 113.786 144.159 113.786Z" fill="#EDEEEA"/>
<path d="M221.751 112.308V20.6884H183.921V10.3442H274.359V20.6884H236.529V112.308H221.751Z" fill="#EDEEEA"/>
<path d="M295.802 30.8848V112.308H283.98V10.3442H299.201L330.381 62.9518L332.45 67.0894L334.371 62.804L363.778 10.3442H378.408V112.308H363.63V29.8504L333.632 83.3446H326.835L295.802 30.8848Z" fill="#EDEEEA"/>
<path d="M434.98 10.3442L463.205 50.0954L491.282 10.3442H504.138L469.559 59.1096L507.389 112.308H491.43L461.579 70.3405L431.877 112.308H419.02L455.225 61.3263L419.02 10.3442H434.98Z" fill="#EDEEEA"/>
<path d="M514.843 150.73V35.4658H528.881V44.7756C533.758 38.7168 542.772 33.988 553.707 33.988C573.657 33.988 587.991 50.6865 587.991 73.8871C587.991 97.2354 572.622 113.786 553.855 113.786C542.772 113.786 534.644 110.239 528.881 104.624V150.73H514.843ZM549.422 104.476C564.938 104.476 573.213 91.62 573.213 73.8871C573.213 56.5975 564.938 43.5934 549.422 43.5934C538.634 43.5934 532.132 48.4699 528.881 52.7554V94.7232C532.723 99.452 539.521 104.476 549.422 104.476Z" fill="#EDEEEA"/>
<path d="M597.538 112.308V35.4658H611.577V45.2189C618.375 38.2735 625.763 33.988 635.369 33.988C647.929 33.988 657.387 45.0711 647.782 69.4538H633.004C640.393 53.0509 637.733 44.3322 627.98 44.3322C622.512 44.3322 617.34 47.1399 611.577 53.7898V112.308H597.538Z" fill="#EDEEEA"/>
<path d="M658.155 112.308V35.4658H672.193V45.5144C677.217 41.0812 686.527 33.988 696.428 33.988C706.181 33.988 711.501 38.1257 714.013 45.6622C718.89 41.3768 729.234 33.988 740.021 33.988C754.651 33.988 759.38 43.4456 759.38 59.553V112.308H745.341V64.134C745.341 49.9477 742.829 45.0711 733.519 45.0711C726.131 45.0711 719.629 49.7999 715.491 53.3465C715.639 55.2675 715.787 57.3364 715.787 59.553V112.308H701.748V64.134C701.748 49.9477 699.236 45.0711 689.926 45.0711C682.685 45.0711 676.331 49.6521 672.193 53.0509V112.308H658.155Z" fill="#EDEEEA"/>
<path d="M771.877 112.308V35.4658H785.916V44.7756C791.383 40.4901 802.023 33.988 813.106 33.988C829.952 33.988 835.42 43.4456 835.42 59.553V112.308H821.381V64.134C821.381 49.9477 818.278 45.0711 806.604 45.0711C798.181 45.0711 790.497 49.5043 785.916 53.1987V112.308H771.877Z" fill="#EDEEEA"/>
<path d="M852.368 88.3689V44.3322H839.068L866.406 13.2997V35.4658H897.439V44.3322H866.406V87.1867C866.406 98.8609 869.805 104.181 878.672 104.181C888.868 104.181 894.631 96.4965 887.095 79.6502H900.394C910 101.669 894.631 113.786 879.115 113.786C861.973 113.786 852.368 105.806 852.368 88.3689Z" fill="#EDEEEA"/>
<path d="M909.272 112.308V0H923.311V112.308H909.272Z" fill="#EDEEEA"/>
<path d="M1005.27 113.786C981.92 113.786 965.369 95.3143 965.369 62.0651C965.369 28.2249 981.92 8.86645 1005.27 8.86645C1029.06 8.86645 1045.17 28.2249 1045.17 62.0651C1045.17 95.3143 1029.06 113.786 1005.27 113.786ZM1005.27 104.181C1021.23 104.181 1029.65 90.1422 1029.65 62.0651C1029.65 33.5447 1021.23 18.4718 1005.27 18.4718C989.456 18.4718 980.885 33.5447 980.885 62.0651C980.885 90.1422 989.456 104.181 1005.27 104.181Z" fill="#EDEEEA"/>
<path d="M1095.36 74.6259C1115.16 58.223 1116.34 48.7655 1116.34 40.9334C1116.34 25.7127 1108.95 17.7329 1094.77 17.7329C1079.84 17.7329 1071.71 26.5993 1071.71 41.229C1071.71 52.1643 1077.33 61.6218 1091.96 69.7494H1070.68C1058.71 63.2473 1056.2 51.4254 1056.2 41.8201C1056.2 20.2451 1073.34 8.86645 1094.77 8.86645C1119.59 8.86645 1131.86 20.0973 1131.86 38.2735C1131.86 48.1744 1129.2 57.9274 1103.34 79.9458L1078.36 101.225H1133.34V112.308H1061.37V102.851L1095.36 74.6259Z" fill="#EDEEEA"/>
<path d="M1177.63 112.308V10.3442H1213.24C1238.81 10.3442 1249.15 23.3483 1249.15 39.4557C1249.15 56.4497 1238.95 68.5672 1213.24 68.5672H1211.61L1228.17 88.2211C1239.54 101.816 1242.5 103.59 1247.67 103.59C1252.1 103.59 1254.32 101.225 1254.32 96.6443C1254.32 93.9843 1253.88 90.29 1250.92 85.8568H1265.7C1267.77 89.2556 1268.8 93.541 1268.8 97.0876C1268.8 106.841 1261.86 113.786 1248.12 113.786C1236.59 113.786 1230.53 110.387 1217.97 95.4621L1192.4 65.1684V112.308H1177.63ZM1210.28 58.223C1228.02 58.223 1234.37 51.2776 1234.37 39.4557C1234.37 28.5204 1227.57 20.6884 1210.28 20.6884H1192.4V58.223H1210.28Z" fill="#EDEEEA"/>
<path d="M1340.79 78.1725C1347.44 102.555 1328.67 113.786 1308.72 113.786C1284.78 113.786 1269.56 98.7131 1269.56 74.6259C1269.56 51.1298 1284.64 33.988 1307.25 33.988C1325.87 33.988 1342.71 43.7411 1342.71 70.7838V73.4437H1284.34V74.6259C1284.34 92.9499 1292.17 105.363 1309.76 105.363C1321.14 105.363 1332.81 98.8609 1326.01 78.1725H1340.79ZM1307.69 42.4112C1294.54 42.4112 1287 49.7999 1284.93 65.3162H1328.23C1326.61 48.0266 1317.74 42.4112 1307.69 42.4112Z" fill="#EDEEEA"/>
<path d="M1382.63 86.8912C1378.05 86.8912 1373.76 86.1523 1369.92 84.9701C1368.3 86.8912 1367.26 89.1078 1367.26 92.9499C1367.26 97.0876 1368.44 99.5998 1370.07 101.521H1388.69C1412.33 101.521 1420.9 113.047 1420.9 125.017C1420.9 140.829 1408.05 152.207 1384.11 152.207C1361.5 152.207 1348.49 142.454 1348.49 128.859C1348.49 119.549 1353.37 113.343 1361.05 109.796C1357.66 106.102 1356.33 101.521 1356.33 96.9398C1356.33 90.5855 1359.13 85.709 1363.27 81.8669C1355.59 76.9903 1351.01 69.3061 1351.01 59.8485C1351.01 44.7756 1364.01 33.988 1382.63 33.988C1389.72 33.988 1395.93 35.6136 1400.95 38.4213C1407.75 33.2492 1415.44 31.4759 1423.56 31.4759V43.5934H1407.6C1411.59 47.8788 1413.81 53.4942 1413.81 59.8485C1413.81 75.6603 1400.95 86.8912 1382.63 86.8912ZM1382.63 79.5025C1394.01 79.5025 1400.07 71.5227 1400.07 59.8485C1400.07 49.061 1394.01 41.3767 1382.63 41.3767C1370.96 41.3767 1364.75 49.061 1364.75 59.8485C1364.75 71.5227 1370.96 79.5025 1382.63 79.5025ZM1384.4 143.341C1398 143.341 1407.6 138.169 1407.6 127.086C1407.6 118.958 1400.66 112.308 1387.21 112.308H1381.3C1368 112.308 1361.05 117.924 1361.05 127.086C1361.05 136.987 1368.74 143.341 1384.4 143.341Z" fill="#EDEEEA"/>
<path d="M1492.36 35.4658V112.308H1478.32V102.999C1472.86 107.284 1462.22 113.786 1451.13 113.786C1434.29 113.786 1428.82 104.329 1428.82 88.2211V35.4658H1442.86V83.6401C1442.86 97.8265 1445.96 102.703 1457.64 102.703C1466.06 102.703 1473.74 98.2698 1478.32 94.5754V35.4658H1492.36Z" fill="#EDEEEA"/>
<path d="M1505.62 112.308V0H1519.65V112.308H1505.62Z" fill="#EDEEEA"/>
<path d="M1533.19 71.966C1530.98 67.8283 1530.68 63.8384 1530.68 60.2918C1530.68 43.8889 1544.13 33.988 1564.08 33.988C1584.03 33.988 1597.33 42.2634 1597.33 65.1684V112.308H1583.29V102.26C1577.23 108.171 1567.92 113.786 1556.54 113.786C1544.57 113.786 1533.04 108.91 1533.04 94.5754C1533.04 74.6259 1552.11 72.4093 1570.14 69.3061L1583.29 67.0894V63.6906C1583.29 48.6177 1576.79 42.4112 1563.49 42.4112C1552.25 42.4112 1545.01 48.6177 1545.01 60.8829C1545.01 64.4295 1546.05 68.2716 1547.97 71.966H1533.19ZM1547.82 93.2455C1547.82 100.93 1553.73 103.885 1559.94 103.885C1569.99 103.885 1578.41 98.2698 1583.29 93.6888V74.9215L1569.84 76.9903C1553.58 79.5025 1547.82 84.5268 1547.82 93.2455Z" fill="#EDEEEA"/>
<path d="M1609.82 112.308V35.4658H1623.86V45.2189C1630.66 38.2735 1638.04 33.988 1647.65 33.988C1660.21 33.988 1669.67 45.0711 1660.06 69.4538H1645.29C1652.67 53.0509 1650.01 44.3322 1640.26 44.3322C1634.79 44.3322 1629.62 47.1399 1623.86 53.7898V112.308H1609.82Z" fill="#EDEEEA"/>
</svg>
