<svg width="272" height="284" viewBox="0 0 272 284" fill="none" xmlns="http://www.w3.org/2000/svg">
<path opacity="0.6" d="M16.966 264.336C16.598 266.24 15.742 267.712 14.398 268.752C13.07 269.792 11.422 270.312 9.45398 270.312C6.97398 270.312 5.02198 269.488 3.59798 267.84C2.18998 266.176 1.48598 263.984 1.48598 261.264C1.48598 258.528 2.21398 256.352 3.66998 254.736C5.14198 253.104 7.12598 252.288 9.62198 252.288C11.51 252.288 13.102 252.816 14.398 253.872C15.71 254.912 16.542 256.376 16.894 258.264H14.254C13.982 257.112 13.43 256.208 12.598 255.552C11.782 254.896 10.75 254.568 9.50199 254.568C7.98198 254.568 6.73398 255.16 5.75798 256.344C4.78198 257.512 4.29398 259.152 4.29398 261.264C4.29398 263.36 4.77398 265.016 5.73398 266.232C6.70998 267.432 7.97398 268.032 9.52598 268.032C10.79 268.032 11.838 267.712 12.67 267.072C13.502 266.416 14.054 265.504 14.326 264.336H16.966ZM21.924 258.96C22.74 257.552 24.092 256.848 25.98 256.848C28.86 256.848 30.3 258.52 30.3 261.864V270H27.804V262.536C27.804 262.008 27.772 261.552 27.708 261.168C27.644 260.784 27.524 260.416 27.348 260.064C27.188 259.696 26.916 259.416 26.532 259.224C26.164 259.032 25.7 258.936 25.14 258.936C24.084 258.936 23.284 259.296 22.74 260.016C22.196 260.736 21.924 261.752 21.924 263.064V270H19.428V252.6H21.924V258.96ZM32.6522 266.52C32.6522 266.008 32.7482 265.552 32.9402 265.152C33.1322 264.736 33.4202 264.376 33.8042 264.072C34.2042 263.768 34.6442 263.504 35.1242 263.28C35.6042 263.056 36.1882 262.864 36.8762 262.704C37.5802 262.544 38.2762 262.416 38.9642 262.32C39.6522 262.208 40.4522 262.104 41.3642 262.008V261.744C41.3642 259.712 40.4362 258.696 38.5802 258.696C37.7162 258.696 37.0442 258.912 36.5642 259.344C36.0842 259.76 35.8202 260.368 35.7722 261.168H33.2522C33.3642 259.824 33.9162 258.76 34.9082 257.976C35.9162 257.176 37.1722 256.776 38.6762 256.776C42.1962 256.776 43.9322 258.6 43.8842 262.248C43.8842 262.328 43.8762 262.816 43.8602 263.712C43.8442 264.592 43.8362 265.136 43.8362 265.344C43.8362 267.296 43.9562 268.848 44.1962 270H41.7962C41.6842 269.408 41.6122 268.84 41.5802 268.296C40.7802 269.64 39.3402 270.312 37.2602 270.312C35.9162 270.312 34.8122 269.968 33.9482 269.28C33.0842 268.592 32.6522 267.672 32.6522 266.52ZM41.4842 263.856C39.3242 264.064 37.7642 264.352 36.8042 264.72C35.8442 265.088 35.3642 265.672 35.3642 266.472C35.3642 267.064 35.5802 267.536 36.0122 267.888C36.4602 268.224 37.0602 268.392 37.8122 268.392C38.9162 268.392 39.8042 268.096 40.4762 267.504C41.1482 266.912 41.4842 266.008 41.4842 264.792V263.856ZM53.6871 259.656C53.2391 259.608 52.8071 259.584 52.3911 259.584C51.3991 259.584 50.6631 259.864 50.1831 260.424C49.7031 260.984 49.4631 261.92 49.4631 263.232V270H46.9671V257.088H49.4151V259.368C50.1191 257.848 51.3111 257.072 52.9911 257.04C53.3111 257.04 53.5431 257.048 53.6871 257.064V259.656ZM56.1664 253.776H58.6624V257.088H61.2064V258.984H58.6624V266.352C58.6624 267.024 58.7504 267.472 58.9264 267.696C59.1184 267.904 59.5184 268.008 60.1264 268.008H61.1824V270H59.3584C58.0624 270 57.2064 269.784 56.7904 269.352C56.3744 268.92 56.1664 268.032 56.1664 266.688V258.984H54.1984V257.088H56.1664V253.776ZM72.346 266.208H74.866C74.546 267.376 73.882 268.352 72.874 269.136C71.882 269.92 70.61 270.312 69.058 270.312C67.042 270.312 65.466 269.672 64.33 268.392C63.194 267.096 62.626 265.472 62.626 263.52C62.626 261.536 63.218 259.928 64.402 258.696C65.602 257.464 67.13 256.848 68.986 256.848C70.938 256.848 72.466 257.56 73.57 258.984C74.674 260.392 75.162 262.168 75.034 264.312H65.194C65.306 265.496 65.706 266.44 66.394 267.144C67.098 267.832 67.954 268.176 68.962 268.176C70.658 268.176 71.786 267.52 72.346 266.208ZM65.242 262.344H72.442C72.41 261.352 72.074 260.528 71.434 259.872C70.794 259.216 69.97 258.888 68.962 258.888C66.802 258.888 65.562 260.04 65.242 262.344ZM84.2027 259.656C83.7547 259.608 83.3227 259.584 82.9067 259.584C81.9147 259.584 81.1787 259.864 80.6987 260.424C80.2187 260.984 79.9787 261.92 79.9787 263.232V270H77.4827V257.088H79.9307V259.368C80.6347 257.848 81.8267 257.072 83.5067 257.04C83.8267 257.04 84.0587 257.048 84.2027 257.064V259.656Z" fill="black"/>
<path d="M0.333984 9H272.001V178H93.334C41.9715 178 0.333984 136.362 0.333984 85V9Z" fill="#5552FF"/>
<path d="M81.3973 80.9602L61.637 136.524H102.038L81.3973 80.9602ZM78.2669 59.9283H91.473L139.504 185.337L151.536 187.783V196H106.049V187.783L118.472 186.805L119.94 183.968L105.462 145.719H58.2132L43.9311 183.968L45.9854 186.805L58.9958 187.783V196H19.7688V187.783L31.3119 185.337L78.2669 59.9283ZM216.393 177.609V142.295C199.633 146.925 188.611 151.164 183.329 155.012C178.112 158.86 175.503 163.914 175.503 170.175C175.503 175.196 176.938 179.207 179.807 182.207C182.742 185.142 186.655 186.609 191.546 186.609C194.676 186.609 198.263 185.859 202.306 184.359C206.415 182.859 211.11 180.609 216.393 177.609ZM216.393 184.359C209.937 188.794 204.002 192.087 198.589 194.239C193.242 196.326 188.22 197.37 183.524 197.37C175.764 197.37 169.536 195.022 164.84 190.326C160.21 185.631 157.895 179.435 157.895 171.74C157.895 163.197 161.384 156.48 168.362 151.588C175.405 146.697 191.415 141.252 216.393 135.252V128.893C216.393 120.481 215.023 114.644 212.284 111.383C209.545 108.122 204.785 106.492 198.002 106.492C195.459 106.492 192.948 106.753 190.47 107.275C187.992 107.796 185.416 108.579 182.742 109.622V126.448H168.949C166.536 126.448 164.873 126.024 163.96 125.176C163.112 124.263 162.688 122.633 162.688 120.285C162.688 113.764 166.438 108.351 173.938 104.046C181.503 99.7422 191.252 97.5901 203.187 97.5901C213.686 97.5901 221.317 99.8727 226.077 104.438C230.838 109.003 233.218 116.34 233.218 126.448V184.555L236.642 187.783L247.207 188.761V196H219.034L216.393 184.359Z" fill="black"/>
</svg>
