<svg width="272" height="268" viewBox="0 0 272 268" fill="none" xmlns="http://www.w3.org/2000/svg">
<path opacity="0.6" d="M1.92 243.6H8.328C12.44 243.6 14.496 245.056 14.496 247.968C14.496 248.784 14.32 249.536 13.968 250.224C13.616 250.912 13.152 251.416 12.576 251.736C14.32 252.52 15.192 253.896 15.192 255.864C15.192 257.608 14.608 258.904 13.44 259.752C12.272 260.584 10.736 261 8.832 261H1.92V243.6ZM4.656 250.968H8.664C10.712 250.968 11.736 250.08 11.736 248.304C11.736 247.504 11.456 246.896 10.896 246.48C10.352 246.064 9.608 245.856 8.664 245.856H4.656V250.968ZM4.656 258.744H8.904C11.224 258.744 12.384 257.784 12.384 255.864C12.384 254.904 12.088 254.2 11.496 253.752C10.904 253.304 9.992 253.08 8.76 253.08H4.656V258.744ZM29.7977 254.592C29.7977 256.768 29.1737 258.432 27.9257 259.584C26.6777 260.736 25.2057 261.312 23.5097 261.312C22.4377 261.312 21.4377 261.088 20.5097 260.64C19.5977 260.176 18.8217 259.424 18.1817 258.384C17.5577 257.328 17.2457 256.064 17.2457 254.592C17.2457 253.104 17.5577 251.84 18.1817 250.8C18.8217 249.744 19.5977 248.992 20.5097 248.544C21.4377 248.08 22.4377 247.848 23.5097 247.848C24.5817 247.848 25.5817 248.08 26.5097 248.544C27.4377 248.992 28.2137 249.744 28.8377 250.8C29.4777 251.84 29.7977 253.104 29.7977 254.592ZM20.9177 258.024C21.6217 258.808 22.4857 259.2 23.5097 259.2C24.5337 259.2 25.3977 258.808 26.1017 258.024C26.8057 257.224 27.1577 256.08 27.1577 254.592C27.1577 253.072 26.8057 251.92 26.1017 251.136C25.3977 250.352 24.5337 249.96 23.5097 249.96C22.4857 249.96 21.6217 250.352 20.9177 251.136C20.2297 251.904 19.8857 253.056 19.8857 254.592C19.8857 256.096 20.2297 257.24 20.9177 258.024ZM41.1889 243.6H43.6849V261H41.1889V259.176C40.3409 260.6 38.9969 261.312 37.1569 261.312C35.6049 261.312 34.2849 260.704 33.1969 259.488C32.1249 258.256 31.5889 256.616 31.5889 254.568C31.5889 252.536 32.1249 250.912 33.1969 249.696C34.2849 248.464 35.6049 247.848 37.1569 247.848C38.9969 247.848 40.3409 248.56 41.1889 249.984V243.6ZM37.7329 249.936C36.6929 249.936 35.8529 250.352 35.2129 251.184C34.5729 252 34.2529 253.128 34.2529 254.568C34.2529 256.008 34.5729 257.144 35.2129 257.976C35.8529 258.808 36.6929 259.224 37.7329 259.224C38.7569 259.224 39.6049 258.832 40.2769 258.048C40.9489 257.248 41.2849 256.088 41.2849 254.568C41.2849 253.048 40.9489 251.896 40.2769 251.112C39.6049 250.328 38.7569 249.936 37.7329 249.936ZM58.743 254.592C58.743 256.768 58.119 258.432 56.871 259.584C55.623 260.736 54.151 261.312 52.455 261.312C51.383 261.312 50.383 261.088 49.455 260.64C48.543 260.176 47.767 259.424 47.127 258.384C46.503 257.328 46.191 256.064 46.191 254.592C46.191 253.104 46.503 251.84 47.127 250.8C47.767 249.744 48.543 248.992 49.455 248.544C50.383 248.08 51.383 247.848 52.455 247.848C53.527 247.848 54.527 248.08 55.455 248.544C56.383 248.992 57.159 249.744 57.783 250.8C58.423 251.84 58.743 253.104 58.743 254.592ZM49.863 258.024C50.567 258.808 51.431 259.2 52.455 259.2C53.479 259.2 54.343 258.808 55.047 258.024C55.751 257.224 56.103 256.08 56.103 254.592C56.103 253.072 55.751 251.92 55.047 251.136C54.343 250.352 53.479 249.96 52.455 249.96C51.431 249.96 50.567 250.352 49.863 251.136C49.175 251.904 48.831 253.056 48.831 254.592C48.831 256.096 49.175 257.24 49.863 258.024ZM63.7307 249.96C64.5467 248.552 65.8987 247.848 67.7867 247.848C70.6667 247.848 72.1067 249.52 72.1067 252.864V261H69.6107V253.536C69.6107 253.008 69.5787 252.552 69.5147 252.168C69.4507 251.784 69.3307 251.416 69.1547 251.064C68.9947 250.696 68.7227 250.416 68.3387 250.224C67.9707 250.032 67.5067 249.936 66.9467 249.936C65.8907 249.936 65.0907 250.296 64.5467 251.016C64.0027 251.736 63.7307 252.752 63.7307 254.064V261H61.2347V248.088H63.7307V249.96ZM77.7229 243.6V246.36H75.2269V243.6H77.7229ZM77.7229 248.088V261H75.2269V248.088H77.7229ZM85.1273 243.6H97.3913V245.88C92.9113 249.816 90.4873 254.856 90.1193 261H87.1913C87.3513 257.992 88.0873 255.208 89.3993 252.648C90.7113 250.072 92.4553 247.816 94.6313 245.88H85.1273V243.6ZM109.964 247.872C109.964 248.8 109.748 249.728 109.316 250.656C108.884 251.584 108.236 252.512 107.372 253.44C106.524 254.352 105.604 255.224 104.612 256.056C103.62 256.872 102.436 257.768 101.06 258.744H110.42V261H97.8199V258.84C101.132 256.328 103.548 254.272 105.068 252.672C106.588 251.056 107.348 249.544 107.348 248.136C107.348 247.256 107.068 246.56 106.508 246.048C105.964 245.536 105.228 245.28 104.3 245.28C103.308 245.28 102.476 245.592 101.804 246.216C101.148 246.824 100.812 247.784 100.796 249.096H98.2519C98.2199 247.352 98.7639 245.952 99.8839 244.896C101.004 243.824 102.5 243.288 104.372 243.288C106.02 243.288 107.364 243.696 108.404 244.512C109.444 245.312 109.964 246.432 109.964 247.872Z" fill="black"/>
<path d="M0 0H131.667C208.986 0 271.667 62.6801 271.667 140V169H169C75.6639 169 0 93.3361 0 0V0Z" fill="#5552FF"/>
<path d="M165.4 178.6C165.4 179.8 164.4 180.4 162.4 180.4C161.067 180.4 159.867 180.333 158.8 180.2L133.4 179.8L108 180.2C107.067 180.333 106.067 180.4 105 180.4C102.333 180.4 101 179.733 101 178.4C101 176.933 102.8 176.2 106.4 176.2C118.133 176.067 124 174.867 124 172.6C124 172.467 123.867 171.933 123.6 171L122 165.6L121 162.8C119.8 158.667 116.867 149.533 112.2 135.4H69.4C61.4 156.733 57.4 169 57.4 172.2C57.4 174.067 58.2 175.2 59.8 175.6C60.2 175.733 63.5333 176 69.8 176.4C73.6667 176.533 75.6 177.2 75.6 178.4C75.6 179.733 73.8667 180.4 70.4 180.4C64.2667 180.4 57.1333 180.133 49 179.6C47 179.467 44.9333 179.4 42.8 179.4C40.6667 179.4 38.6 179.533 36.6 179.8C35.5333 179.933 34.6667 180 34 180C32.1333 180 31.2 179.4 31.2 178.2C31.2 177 33.2667 176.333 37.4 176.2C41.6667 176.067 44.7333 175.467 46.6 174.4C48.4667 173.2 49.9333 171 51 167.8C68.2 118.733 82.2 79.3333 93 49.6C93.2667 48 93.8 46.2 94.6 44.2L95.6 40.6C96 39.1333 96.5333 38.4 97.2 38.4C97.6 38.4 97.9333 38.8 98.2 39.6C99.9333 44.8 103.867 55.6667 110 72.2C114.8 85.1333 126.733 117.6 145.8 169.6C146.867 172.533 148.2 174.4 149.8 175.2C151.533 176 155 176.467 160.2 176.6C163.667 176.733 165.4 177.4 165.4 178.6ZM111 130.8C108.867 124.8 105.333 114.867 100.4 101L90.8 73.6C85.2 88.2667 78.4667 107.333 70.6 130.8H111ZM242.113 171C242.113 173.267 239.713 175.667 234.913 178.2C230.246 180.6 225.713 181.8 221.313 181.8C212.113 181.8 207.313 177.067 206.913 167.6C201.846 177.467 193.979 182.4 183.313 182.4C177.579 182.4 172.846 180.733 169.113 177.4C165.379 173.933 163.513 169.533 163.513 164.2C163.513 153.267 170.113 144.6 183.313 138.2C187.846 136.067 195.713 133.933 206.913 131.8V126.8C206.913 115.067 206.313 107.333 205.113 103.6C202.979 96.8 198.179 93.4 190.713 93.4C186.046 93.4 182.113 94.6667 178.913 97.2C175.846 99.7333 174.313 102.933 174.313 106.8C174.313 107.867 175.113 108.4 176.713 108.4C178.446 108.4 179.979 109.2 181.312 110.8C182.646 112.4 183.313 114.2 183.313 116.2C183.313 122.067 180.379 125 174.513 125C171.446 125 168.913 124 166.913 122C164.913 119.867 163.913 117.2 163.913 114C163.913 107.733 166.379 102.333 171.313 97.8C176.779 92.8667 184.379 90.4 194.113 90.4C208.779 90.4 217.779 94.4 221.113 102.4C222.313 105.467 222.913 111.533 222.913 120.6V158C222.913 164.133 222.979 167.733 223.113 168.8C223.779 173.6 225.713 176 228.913 176C232.646 176 235.713 174.667 238.113 172C239.446 170.533 240.446 169.8 241.113 169.8C241.779 169.8 242.113 170.2 242.113 171ZM206.913 149.8V135.2C196.913 137.467 189.713 140.467 185.313 144.2C181.046 147.8 178.913 152.667 178.913 158.8C178.913 163.067 180.113 166.6 182.513 169.4C185.046 172.067 188.179 173.4 191.913 173.4C197.646 173.4 202.246 170.2 205.713 163.8C206.513 162.333 206.913 157.667 206.913 149.8Z" fill="black"/>
</svg>
