<svg width="46" height="25" viewBox="0 0 46 25" fill="none" xmlns="http://www.w3.org/2000/svg">
<path d="M0.244141 22.3444L2.69918 21.603L12.0796 0.202211H13.1789C14.0828 0.202211 14.8156 0.134807 15.3775 0L23.8052 22.2096L26.187 22.3444V23.8273H15.011V22.3444L18.4188 22.1422L16.3302 16.2443H7.13292L5.00766 21.603L8.96504 22.3444V23.8273H0.244141V22.3444ZM12.0064 4.41496L7.75584 14.7615H15.7805L12.0064 4.41496Z" fill="white"/>
<path d="M44.4398 21.0637L45.1726 22.0748C43.9512 23.4678 42.5222 24.1643 40.8855 24.1643C38.8091 24.1643 37.6731 23.1308 37.4777 21.0637H37.3311C36.8426 22.0299 36.0853 22.7938 35.0593 23.3555C34.0577 23.8947 32.9707 24.1643 31.7981 24.1643C30.2836 24.1643 29.0622 23.8048 28.1339 23.0858C27.23 22.3444 26.7781 21.3109 26.7781 19.9853C26.7781 19.0865 27.0346 18.3114 27.5476 17.6598C28.0606 16.9858 28.7446 16.4915 29.5996 16.1769C30.4546 15.8399 31.3096 15.604 32.1646 15.4692C33.044 15.3344 33.9478 15.267 34.8761 15.267C35.6089 15.267 36.3051 15.3007 36.9647 15.3681L37.0014 11.425C37.0014 10.9082 36.9891 10.5038 36.9647 10.2117C36.9647 9.91961 36.9036 9.57136 36.7815 9.16693C36.6838 8.76251 36.5372 8.45919 36.3418 8.25698C36.1708 8.05477 35.9021 7.87502 35.5357 7.71775C35.1692 7.56047 34.7173 7.48184 34.1799 7.48184C33.0806 7.48184 32.0791 7.75145 31.1752 8.29068C31.1508 8.47043 31.1386 8.74004 31.1386 9.09953V9.97578C31.1386 11.0767 31.1752 12.0428 31.2485 12.8741C30.5645 12.9865 29.9294 13.0427 29.3431 13.0427C28.7324 13.0427 28.1827 12.9865 27.6942 12.8741C27.6697 12.5821 27.6575 12.0765 27.6575 11.3576C27.6331 10.9756 27.6209 10.4027 27.6209 9.63876C27.6209 8.98719 27.6331 8.51536 27.6575 8.22328C27.6575 7.63911 27.6697 7.22345 27.6942 6.97631C27.8896 6.99877 28.2194 7.01001 28.6835 7.01001H29.2332C29.8683 6.96507 30.4179 6.8752 30.8821 6.74039C32.3722 6.2461 33.8745 5.99895 35.3891 5.99895C37.3189 5.99895 38.8823 6.39214 40.0793 7.17852C41.2763 7.94243 41.8748 9.1557 41.8748 10.8183L41.7282 19.0079V19.9179C41.7771 21.1536 42.2046 21.7715 43.0107 21.7715C43.4504 21.7715 43.9268 21.5356 44.4398 21.0637ZM33.8135 22.0748C34.4242 22.0748 35.0105 21.8838 35.5723 21.5019C36.1586 21.0974 36.6349 20.6144 37.0014 20.0527L36.9647 16.5477C36.525 16.4803 36.0975 16.4466 35.6822 16.4466C34.5097 16.4466 33.557 16.6937 32.8241 17.188C32.1157 17.6823 31.7615 18.4462 31.7615 19.4797C31.7615 21.2098 32.4455 22.0748 33.8135 22.0748Z" fill="white"/>
</svg>
