<svg width="1664" height="428" viewBox="0 0 1664 428" fill="none" xmlns="http://www.w3.org/2000/svg">
<path d="M0 325.079V8.90626H139.828C154.375 8.90626 167.735 11.875 179.907 17.8125C192.375 23.75 203.063 31.7657 211.969 41.8594C221.172 51.9532 228.149 63.2345 232.899 75.7033C237.946 88.172 240.469 100.938 240.469 114C240.469 127.36 238.094 140.274 233.344 152.742C228.891 164.914 222.36 175.602 213.75 184.805C205.141 194.008 195.047 201.133 183.469 206.18L255.61 325.079H187.922L122.906 219.094H61.4532V325.079H0ZM61.4532 165.211H138.492C146.211 165.211 153.039 162.985 158.977 158.532C164.914 153.782 169.664 147.547 173.227 139.828C176.789 132.11 178.571 123.5 178.571 114C178.571 103.906 176.493 95.1486 172.336 87.7267C168.18 80.008 162.836 73.922 156.305 69.4689C150.071 65.0157 143.242 62.7892 135.821 62.7892H61.4532V165.211Z" fill="#EDEEEA"/>
<path d="M252.604 256.055C252.604 240.914 256.76 227.704 265.073 216.422C273.682 204.844 285.557 195.938 300.698 189.703C315.838 183.469 333.206 180.352 352.799 180.352C362.596 180.352 372.542 181.094 382.635 182.578C392.729 184.063 401.487 186.438 408.909 189.703V177.235C408.909 162.391 404.456 150.961 395.55 142.946C386.94 134.93 374.026 130.922 356.807 130.922C344.042 130.922 331.87 133.149 320.292 137.602C308.713 142.055 296.542 148.586 283.776 157.196L264.627 118.008C280.065 107.914 295.799 100.344 311.831 95.297C328.159 90.2502 345.229 87.7267 363.042 87.7267C396.292 87.7267 422.12 96.0392 440.526 112.664C459.229 129.289 468.581 153.039 468.581 183.914V258.282C468.581 264.516 469.62 268.969 471.698 271.641C474.073 274.313 477.784 275.946 482.831 276.54V325.079C477.487 325.969 472.589 326.712 468.136 327.305C463.979 327.899 460.417 328.196 457.448 328.196C445.573 328.196 436.518 325.524 430.284 320.18C424.346 314.836 420.636 308.305 419.151 300.586L417.815 288.563C407.721 301.626 395.104 311.719 379.964 318.844C364.823 325.969 349.385 329.532 333.651 329.532C318.213 329.532 304.26 326.415 291.792 320.18C279.62 313.649 269.971 304.891 262.846 293.907C256.018 282.626 252.604 270.008 252.604 256.055ZM397.776 268.079C401.042 264.516 403.714 260.954 405.792 257.391C407.87 253.829 408.909 250.563 408.909 247.594V223.993C401.784 221.024 394.065 218.797 385.753 217.313C377.44 215.532 369.573 214.641 362.151 214.641C346.714 214.641 333.948 218.055 323.854 224.883C314.057 231.414 309.159 240.172 309.159 251.157C309.159 257.094 310.792 262.735 314.057 268.079C317.323 273.422 322.073 277.727 328.307 280.993C334.542 284.258 341.963 285.891 350.573 285.891C359.479 285.891 368.237 284.258 376.846 280.993C385.456 277.43 392.432 273.125 397.776 268.079Z" fill="#EDEEEA"/>
<path d="M506.085 0H565.757V250.266C565.757 260.954 567.538 268.227 571.1 272.086C574.663 275.649 579.561 277.43 585.796 277.43C590.546 277.43 595.444 276.836 600.491 275.649C605.538 274.461 609.991 272.977 613.85 271.196L621.866 316.618C613.85 320.477 604.499 323.446 593.811 325.524C583.124 327.602 573.475 328.641 564.866 328.641C546.163 328.641 531.616 323.743 521.225 313.946C511.132 303.852 506.085 289.602 506.085 271.196V0Z" fill="#EDEEEA"/>
<path d="M738.263 329.532C719.56 329.532 702.638 326.415 687.498 320.18C672.357 313.649 659.443 304.891 648.755 293.907C638.068 282.626 629.755 269.86 623.818 255.61C618.177 241.063 615.357 225.774 615.357 209.743C615.357 187.477 620.255 167.141 630.052 148.735C640.146 130.328 654.396 115.633 672.802 104.649C691.505 93.3673 713.474 87.7267 738.709 87.7267C764.24 87.7267 786.06 93.3673 804.17 104.649C822.279 115.633 836.084 130.328 845.584 148.735C855.381 166.844 860.279 186.438 860.279 207.516C860.279 211.078 860.131 214.789 859.834 218.649C859.537 222.211 859.24 225.18 858.943 227.555H678.591C679.779 239.43 683.193 249.821 688.834 258.727C694.771 267.633 702.193 274.461 711.099 279.211C720.302 283.665 730.099 285.891 740.49 285.891C752.365 285.891 763.498 283.071 773.888 277.43C784.576 271.493 791.849 263.774 795.709 254.274L846.92 268.524C841.279 280.399 833.115 290.938 822.428 300.141C812.037 309.344 799.717 316.618 785.467 321.962C771.217 327.008 755.482 329.532 738.263 329.532ZM677.255 189.703H799.271C798.084 177.828 794.67 167.586 789.029 158.977C783.685 150.071 776.56 143.242 767.654 138.492C758.748 133.446 748.802 130.922 737.818 130.922C727.131 130.922 717.334 133.446 708.427 138.492C699.818 143.242 692.693 150.071 687.052 158.977C681.709 167.586 678.443 177.828 677.255 189.703Z" fill="#EDEEEA"/>
<path d="M1161.75 91.7345H1218.3L1120.78 325.079H1070.91L1031.72 224.883L993.421 325.079H943.1L846.022 91.7345H902.132L971.6 268.079L998.765 191.93L958.241 92.1799H1007.67L1031.72 163.43L1056.21 92.1799H1105.64L1065.12 191.93L1092.73 268.079L1161.75 91.7345Z" fill="#EDEEEA"/>
<path d="M1206.36 256.055C1206.36 240.914 1210.51 227.704 1218.83 216.422C1227.44 204.844 1239.31 195.938 1254.45 189.703C1269.59 183.469 1286.96 180.352 1306.55 180.352C1316.35 180.352 1326.29 181.094 1336.39 182.578C1346.48 184.063 1355.24 186.438 1362.66 189.703V177.235C1362.66 162.391 1358.21 150.961 1349.3 142.946C1340.69 134.93 1327.78 130.922 1310.56 130.922C1297.79 130.922 1285.62 133.149 1274.04 137.602C1262.47 142.055 1250.29 148.586 1237.53 157.196L1218.38 118.008C1233.82 107.914 1249.55 100.344 1265.58 95.297C1281.91 90.2502 1298.98 87.7267 1316.79 87.7267C1350.04 87.7267 1375.87 96.0392 1394.28 112.664C1412.98 129.289 1422.33 153.039 1422.33 183.914V258.282C1422.33 264.516 1423.37 268.969 1425.45 271.641C1427.83 274.313 1431.54 275.946 1436.58 276.54V325.079C1431.24 325.969 1426.34 326.712 1421.89 327.305C1417.73 327.899 1414.17 328.196 1411.2 328.196C1399.33 328.196 1390.27 325.524 1384.04 320.18C1378.1 314.836 1374.39 308.305 1372.9 300.586L1371.57 288.563C1361.47 301.626 1348.86 311.719 1333.72 318.844C1318.58 325.969 1303.14 329.532 1287.4 329.532C1271.97 329.532 1258.01 326.415 1245.54 320.18C1233.37 313.649 1223.72 304.891 1216.6 293.907C1209.77 282.626 1206.36 270.008 1206.36 256.055ZM1351.53 268.079C1354.79 264.516 1357.47 260.954 1359.54 257.391C1361.62 253.829 1362.66 250.563 1362.66 247.594V223.993C1355.54 221.024 1347.82 218.797 1339.51 217.313C1331.19 215.532 1323.33 214.641 1315.9 214.641C1300.47 214.641 1287.7 218.055 1277.61 224.883C1267.81 231.414 1262.91 240.172 1262.91 251.157C1262.91 257.094 1264.54 262.735 1267.81 268.079C1271.08 273.422 1275.83 277.727 1282.06 280.993C1288.29 284.258 1295.72 285.891 1304.33 285.891C1313.23 285.891 1321.99 284.258 1330.6 280.993C1339.21 277.43 1346.19 273.125 1351.53 268.079Z" fill="#EDEEEA"/>
<path d="M1456.48 370.501C1461.83 371.688 1466.73 372.727 1471.18 373.618C1475.93 374.509 1479.94 374.954 1483.2 374.954C1488.84 374.954 1493.45 373.469 1497.01 370.501C1500.87 367.829 1504.58 362.782 1508.14 355.36C1511.7 348.235 1515.41 338.141 1519.27 325.079L1427.09 91.7345H1488.99L1551.78 264.071L1607 91.7345H1664L1566.03 371.391C1562.47 381.782 1556.98 391.134 1549.55 399.446C1542.43 408.055 1533.37 414.735 1522.39 419.485C1511.7 424.532 1499.68 427.055 1486.32 427.055C1481.57 427.055 1476.82 426.61 1472.07 425.72C1467.32 425.126 1462.12 423.938 1456.48 422.157V370.501Z" fill="#EDEEEA"/>
</svg>
