<svg width="1664" height="294" viewBox="0 0 1664 294" fill="none" xmlns="http://www.w3.org/2000/svg">
<path d="M288.497 269.911C282.302 272.252 277.002 274.179 272.596 275.694C268.19 277.208 263.922 278.585 259.792 279.824C255.8 281.063 249.948 282.646 242.239 284.574C229.16 287.603 216.08 289.874 203.001 291.389C190.06 293.041 176.361 293.867 161.905 293.867C132.856 293.867 106.01 288.566 81.3658 277.965C56.722 267.364 36.9657 250.912 22.0968 228.609C7.3656 206.306 0 178.908 0 146.417C0 125.491 3.78605 104.977 11.3582 84.8765C19.0679 64.6383 30.7703 48.4615 46.4652 36.3461C59.4066 26.2959 72.4857 18.6549 85.7025 13.4233C99.057 8.05397 112.067 4.47443 124.733 2.68466C137.399 0.894886 151.373 0 166.655 0C191.85 0 212.639 1.92745 229.022 5.78234C245.405 9.49956 263.372 14.4558 282.922 20.6512V88.3872C269.98 80.8151 256.282 74.482 241.826 69.3881C227.37 64.2941 209.334 61.7471 187.719 61.7471C162.8 61.7471 142.838 66.4969 127.831 75.9964C112.962 85.3583 102.568 96.5788 96.6477 109.658C90.8653 122.737 87.9742 135.403 87.9742 147.656C87.9742 162.112 91.3472 175.466 98.0932 187.719C104.839 199.835 115.027 209.61 128.657 217.044C142.287 224.341 158.739 227.989 178.013 227.989C189.027 227.989 200.73 226.544 213.12 223.653V189.991H174.296V132.374H288.497V269.911Z" fill="#EDEEEA"/>
<path d="M399.617 31.3898C399.617 40.0633 396.52 47.4289 390.324 53.4866C384.129 59.5443 376.763 62.5732 368.228 62.5732C362.445 62.5732 357.145 61.1964 352.326 58.4429C347.645 55.6894 343.928 51.9722 341.174 47.2913C338.421 42.4727 337.044 37.1722 337.044 31.3898C337.044 22.854 340.073 15.4884 346.131 9.29304C352.188 3.09768 359.554 0 368.228 0C376.763 0 384.129 3.09768 390.324 9.29304C396.52 15.4884 399.617 22.854 399.617 31.3898ZM405.606 290.149H331.055V79.9202H405.606V290.149Z" fill="#EDEEEA"/>
<path d="M518.378 290.149H443.828V3.92373H518.378V290.149Z" fill="#EDEEEA"/>
<path d="M631.151 290.149H556.6V3.92373H631.151V290.149Z" fill="#EDEEEA"/>
<path d="M986.591 206.925C986.591 224.823 981.979 240.311 972.755 253.39C963.668 266.469 950.933 276.52 934.55 283.541C918.167 290.425 899.374 293.867 878.172 293.867C872.252 293.867 864.955 293.454 856.282 292.628C847.746 291.939 836.319 289.874 822.001 286.432C807.82 282.99 793.02 277.896 777.601 271.15V200.936C792.057 209.885 806.237 217.32 820.142 223.24C834.185 229.16 849.192 232.12 865.162 232.12C879.893 232.12 889.393 229.71 893.66 224.892C898.066 219.935 900.269 215.323 900.269 211.055C900.269 203.346 896.552 196.875 889.117 191.643C881.683 186.274 870.875 180.767 856.695 175.122C841 168.514 827.232 161.355 815.392 153.645C803.552 145.798 793.846 136.023 786.274 124.32C778.84 112.618 775.123 98.7816 775.123 82.8113C775.123 67.3918 778.909 53.4866 786.481 41.0959C794.053 28.5675 805.617 18.5861 821.175 11.1517C836.732 3.71722 855.731 0 878.172 0C894.142 0 908.874 1.58326 922.366 4.74978C935.995 7.77862 947.216 11.2205 956.027 15.0754C964.838 18.9303 970.896 21.9591 974.2 24.1619V91.2783C962.498 82.8802 949.419 75.3769 934.963 68.7685C920.645 62.1601 905.294 58.8559 888.911 58.8559C878.172 58.8559 870.393 60.9211 865.575 65.0513C860.756 69.1816 858.347 74.2755 858.347 80.3332C858.347 85.9779 860.756 90.8653 865.575 94.9956C870.393 99.1258 878.998 104.151 891.389 110.071C913.417 120.397 931.039 129.69 944.256 137.95C957.473 146.211 967.798 155.779 975.233 166.655C982.805 177.394 986.591 190.817 986.591 206.925Z" fill="#EDEEEA"/>
<path d="M1234.42 279.617C1223.55 283.885 1213.5 287.327 1204.27 289.943C1195.05 292.559 1183.96 293.867 1171.02 293.867C1158.77 293.867 1150.23 291.733 1145.42 287.465C1140.6 283.059 1137.15 277.759 1135.09 271.563C1127.1 278.034 1118.22 283.403 1108.45 287.671C1098.67 291.802 1085.87 293.867 1070.04 293.867C1054.76 293.867 1042.37 291.251 1032.87 286.019C1023.5 280.65 1016.9 273.973 1013.04 265.988C1009.32 257.865 1007.47 249.535 1007.47 241C1007.47 228.058 1010.7 217.388 1017.17 208.99C1023.78 200.454 1032.59 193.502 1043.6 188.133C1054.62 182.763 1069.21 177.187 1087.39 171.405C1097.71 168.101 1105.49 165.623 1110.72 163.971C1116.09 162.181 1120.08 160.804 1122.7 159.84C1125.31 158.877 1128.07 157.638 1130.96 156.123C1130.96 145.935 1128.89 137.95 1124.76 132.168C1120.63 126.385 1111.68 123.494 1097.92 123.494C1081.67 123.494 1066.6 127.074 1052.69 134.233C1038.79 141.392 1026.05 150.616 1014.49 161.905V104.908C1023.71 98.2998 1033.69 92.9304 1044.43 88.8002C1055.17 84.5323 1066.39 81.3658 1078.09 79.3006C1089.79 77.2355 1101.63 76.203 1113.61 76.203C1144.04 76.203 1166.89 82.123 1182.17 93.963C1197.59 105.665 1205.3 121.842 1205.3 142.493V223.653C1205.3 231.362 1205.99 237.145 1207.37 241C1208.88 244.717 1211.57 246.575 1215.42 246.575C1220.1 246.575 1226.44 244.579 1234.42 240.587V279.617ZM1130.96 239.348V189.578C1113.34 196.737 1100.46 203.208 1092.34 208.99C1084.22 214.635 1080.16 222.345 1080.16 232.12C1080.16 239.141 1082.15 244.51 1086.15 248.228C1090.28 251.945 1095.03 253.803 1100.4 253.803C1105.49 253.803 1110.51 252.427 1115.47 249.673C1120.56 246.782 1125.73 243.34 1130.96 239.348Z" fill="#EDEEEA"/>
<path d="M1471.72 290.149H1397.38V176.774C1397.38 165.21 1395.45 155.159 1391.59 146.624C1387.88 137.95 1379.62 133.613 1366.81 133.613C1360.75 133.613 1355.39 134.784 1350.7 137.124C1346.16 139.327 1342.03 142.218 1338.31 145.798C1334.73 149.377 1331.71 152.819 1329.23 156.123C1326.75 159.427 1324.2 162.938 1321.59 166.655V290.149H1247.24V79.9202H1321.59V110.071C1333.29 97.5425 1344.99 88.8002 1356.69 83.8439C1368.53 78.7499 1381.68 76.203 1396.14 76.203C1446.53 76.203 1471.72 106.354 1471.72 166.655V290.149Z" fill="#EDEEEA"/>
<path d="M1664 228.815C1664 248.09 1656.91 263.785 1642.73 275.9C1628.69 287.878 1607.76 293.867 1579.95 293.867C1564.39 293.867 1550.56 292.49 1538.44 289.736C1526.33 286.845 1513.11 282.784 1498.79 277.552V224.685C1511.32 231.844 1522.2 237.282 1531.42 241C1540.64 244.717 1550.76 246.575 1561.78 246.575C1580.36 246.575 1589.66 241.481 1589.66 231.294C1589.66 227.852 1588.28 224.823 1585.53 222.207C1582.91 219.454 1578.23 216.425 1571.48 213.12C1564.87 209.679 1555.99 205.617 1544.84 200.936C1531.08 194.879 1519.37 186.756 1509.74 176.568C1500.1 166.38 1495.28 153.92 1495.28 139.189C1495.28 128.726 1498.45 118.676 1504.78 109.038C1511.25 99.4012 1520.96 91.5537 1533.9 85.496C1546.84 79.3006 1562.46 76.203 1580.78 76.203C1585.18 76.203 1590.76 76.5471 1597.5 77.2355C1604.39 77.7862 1612.99 79.3695 1623.32 81.9853C1633.78 84.6011 1643.69 88.3183 1653.05 93.137V144.558C1648.65 141.943 1644.93 139.74 1641.9 137.95C1639.01 136.16 1635.09 134.164 1630.13 131.961C1625.18 129.758 1619.32 127.831 1612.58 126.179C1605.97 124.389 1599.16 123.494 1592.13 123.494C1583.6 123.494 1577.75 125.146 1574.58 128.451C1571.41 131.755 1569.83 135.059 1569.83 138.363C1569.83 141.805 1571.48 145.04 1574.79 148.069C1578.09 150.96 1585.46 154.609 1596.88 159.014C1613.4 165.347 1626.62 171.887 1636.53 178.633C1646.45 185.241 1653.47 192.538 1657.6 200.523C1661.87 208.508 1664 217.939 1664 228.815Z" fill="#EDEEEA"/>
</svg>
