<svg width="1860" height="859" viewBox="0 0 1860 859" fill="none" xmlns="http://www.w3.org/2000/svg">
<g style="mix-blend-mode:luminosity">
<path d="M399.029 422.2H403.529C403.529 521.8 339.629 535 307.529 535C264.629 535 252.029 517 252.029 490.6C252.029 418.6 340.829 322 415.529 322C438.029 322 451.529 327.7 459.929 336.1L466.229 325H470.729L423.329 407.2L425.729 397C439.229 339.4 431.429 325 413.729 325C353.129 325 278.129 450.4 278.129 510.4C278.129 522.4 282.329 531.4 309.029 531.4C339.029 531.4 399.029 516.4 399.029 422.2ZM385.642 529H418.642L534.742 328H501.742L503.542 325H679.642L677.842 328H644.842L554.542 401.2V529H587.542L585.742 532H383.842L385.642 529ZM524.542 420.4L638.242 328H564.742L448.642 529H524.542V420.4ZM558.786 529H591.786L707.886 328H674.886L676.686 325H883.986L882.186 328H848.886L732.786 529H765.786L763.986 532H556.986L558.786 529ZM740.886 328L641.886 499.6L805.386 346.3L815.886 328H740.886ZM624.786 529H699.786L798.786 357.4L635.286 510.7L624.786 529ZM777.927 529H810.927L927.027 328H894.027L895.827 325H1051.53L1014.93 388.3V328H960.027L904.827 423.7H969.927L968.127 426.7H903.027L843.927 529H909.027L984.027 468.7L947.427 532H776.127L777.927 529Z" fill="#EDEEEA"/>
</g>
<g style="mix-blend-mode:luminosity">
<path d="M782.406 671.2H786.906C786.906 770.8 723.006 784 690.906 784C648.006 784 635.406 766 635.406 739.6C635.406 667.6 724.206 571 798.906 571C821.406 571 834.906 576.7 843.306 585.1L849.606 574H854.106L806.706 656.2L809.106 646C822.606 588.4 814.806 574 797.106 574C736.506 574 661.506 699.4 661.506 759.4C661.506 771.4 665.706 780.4 692.406 780.4C722.406 780.4 782.406 765.4 782.406 671.2ZM807.866 778H840.866L956.966 577H917.966L842.966 637.3L879.566 574H1063.47L1026.87 637.3V577H989.966L873.866 778H906.866L905.066 781H806.066L807.866 778ZM1075.53 784C1062.93 805.9 1041.93 822.1 1014.63 822.1C987.627 822.1 970.527 811 970.527 784C970.527 765.1 986.727 708.7 1075.53 708.7V577H1042.53L1044.33 574H1230.03L1228.23 577H1194.93L1075.53 784ZM1105.53 577V725.2L1190.43 577H1105.53ZM974.427 784C974.427 804.4 984.327 819.1 1014.63 819.1C1032.63 819.1 1056.93 811 1075.53 776.8V711.7C989.727 712.9 974.427 763.9 974.427 784ZM1419.52 577H1386.22L1270.12 778H1318.72L1282.12 841.3V781H1148.32L1073.32 841.3L1109.92 778H1146.22C1175.02 750.7 1211.32 708.7 1291.72 577H1233.22L1235.02 574H1421.32L1419.52 577ZM1296.22 577C1226.32 692.5 1183.42 748.3 1151.62 778H1237.12L1353.22 577H1296.22ZM1315.11 778H1348.11L1464.21 577H1431.21L1433.01 574H1640.31L1638.51 577H1605.21L1489.11 778H1522.11L1520.31 781H1313.31L1315.11 778ZM1497.21 577L1398.21 748.6L1561.71 595.3L1572.21 577H1497.21ZM1381.11 778H1456.11L1555.11 606.4L1391.61 759.7L1381.11 778ZM1534.25 778H1567.25L1683.35 577H1650.35L1652.15 574H1859.45L1857.65 577H1824.35L1708.25 778H1741.25L1739.45 781H1532.45L1534.25 778ZM1716.35 577L1617.35 748.6L1780.85 595.3L1791.35 577H1716.35ZM1600.25 778H1675.25L1774.25 606.4L1610.75 759.7L1600.25 778Z" fill="#EDEEEA"/>
</g>
<g style="mix-blend-mode:luminosity">
<path d="M7.25312 280H40.2531L156.353 79H123.353L125.153 76H185.753C223.553 76.6 258.653 90.1 258.653 124.9C258.653 162.4 218.753 192.7 149.753 192.7H123.653L73.2531 280H109.253L107.453 283H5.45312L7.25312 280ZM228.653 124.9C228.653 98.2 219.353 81.4 189.053 79.3L125.453 189.7H151.253C180.053 189.7 228.653 177.7 228.653 124.9ZM281.23 286C249.73 286 240.73 268 240.73 241.6C240.73 169.6 329.53 73 404.23 73C436.63 73 444.13 94.6 444.13 122.2C444.13 198.1 355.03 286 281.23 286ZM282.73 283C343.33 283 418.33 164.2 418.33 97.6C418.33 82.6 416.23 76 402.43 76C341.83 76 266.83 201.4 266.83 261.4C266.83 273.7 268.93 283 282.73 283ZM585.191 173.2H589.691C589.691 272.8 525.791 286 493.691 286C450.791 286 438.191 268 438.191 241.6C438.191 169.6 526.991 73 601.691 73C624.191 73 637.691 78.7 646.091 87.1L652.391 76H656.891L609.491 158.2L611.891 148C625.391 90.4 617.591 76 599.891 76C539.291 76 464.291 201.4 464.291 261.4C464.291 273.4 468.491 282.4 495.191 282.4C525.191 282.4 585.191 267.4 585.191 173.2ZM765.074 173.2H769.574C769.574 272.8 705.674 286 673.574 286C630.674 286 618.074 268 618.074 241.6C618.074 169.6 706.874 73 781.574 73C804.074 73 817.574 78.7 825.974 87.1L832.274 76H836.774L789.374 158.2L791.774 148C805.274 90.4 797.474 76 779.774 76C719.174 76 644.174 201.4 644.174 261.4C644.174 273.4 648.374 282.4 675.074 282.4C705.074 282.4 765.074 267.4 765.074 173.2ZM751.687 280H784.687L900.787 79H867.787L869.587 76H1076.89L1075.09 79H1041.79L925.687 280H958.687L956.887 283H749.887L751.687 280ZM933.787 79L834.787 250.6L998.287 97.3L1008.79 79H933.787ZM817.687 280H892.687L991.687 108.4L828.187 261.7L817.687 280ZM970.827 280H1003.83L1119.93 79H1086.93L1088.73 76H1296.03L1294.23 79H1260.93L1144.83 280H1177.83L1176.03 283H969.027L970.827 280ZM1152.93 79L1053.93 250.6L1217.43 97.3L1227.93 79H1152.93ZM1036.83 280H1111.83L1210.83 108.4L1047.33 261.7L1036.83 280ZM1194.93 60.1C1208.43 60.1 1234.53 56.2 1242.33 33.7C1239.03 36.7 1234.83 38.2 1230.03 38.2C1219.23 38.2 1211.43 31 1211.43 19.3C1211.43 8.79999 1219.23 0.699987 1230.03 0.699987C1240.23 0.699987 1248.63 8.79999 1248.63 19.3C1248.63 58 1212.33 63.1 1194.93 63.1C1177.23 63.1 1141.23 58 1141.23 19.3C1141.23 8.79999 1149.03 0.699987 1159.83 0.699987C1170.03 0.699987 1178.43 8.79999 1178.43 19.3C1178.43 31 1170.03 38.2 1159.83 38.2C1155.03 38.2 1150.83 36.7 1147.53 34C1155.33 56.2 1181.13 60.1 1194.93 60.1ZM1237.29 199.9L1239.09 196.9H1337.49L1335.69 199.9H1237.29Z" fill="#EDEEEA"/>
</g>
<path d="M1479.54 70.247C1492.21 70.247 1501.28 76.5796 1501.28 88.2051C1501.28 104.084 1484.74 118.072 1465.56 131.966H1503.17V140H1453.84V132.25C1478.03 114.386 1492.21 101.532 1492.21 89.3393C1492.21 82.1561 1487.58 77.4302 1479.35 77.4302C1471.98 77.4302 1464.89 81.4944 1464.61 92.8364H1455.73C1455.44 79.2261 1464.89 70.247 1479.54 70.247ZM1555.43 105.691C1555.43 86.6928 1548.62 77.4302 1537.94 77.4302C1527.07 77.4302 1520.45 86.6928 1520.45 105.691C1520.45 124.877 1527.07 134.045 1537.94 134.045C1548.81 134.045 1555.43 124.877 1555.43 105.691ZM1564.59 105.691C1564.59 127.335 1556.18 141.229 1537.94 141.229C1519.7 141.229 1511.29 127.335 1511.29 105.691C1511.29 84.0464 1519.7 70.247 1537.94 70.247C1556.18 70.247 1564.59 84.0464 1564.59 105.691ZM1597.78 70.247C1610.45 70.247 1619.52 76.5796 1619.52 88.2051C1619.52 104.084 1602.98 118.072 1583.79 131.966H1621.41V140H1572.07V132.25C1596.27 114.386 1610.45 101.532 1610.45 89.3393C1610.45 82.1561 1605.82 77.4302 1597.59 77.4302C1590.22 77.4302 1583.13 81.4944 1582.85 92.8364H1573.96C1573.68 79.2261 1583.13 70.247 1597.78 70.247ZM1651.64 134.045C1660.71 134.045 1667.14 129.414 1667.14 120.813C1667.14 110.984 1658.35 107.77 1647.39 107.77H1645.97V99.9251H1647.1C1659.11 99.9251 1665.35 96.617 1665.35 88.5832C1665.35 81.3054 1659.3 77.4302 1652.02 77.4302C1642.85 77.4302 1637.84 82.9122 1637.09 90.757H1628.2C1629.24 78.6589 1637.84 70.247 1652.21 70.247C1664.02 70.247 1674.42 75.0673 1674.42 87.638C1674.42 94.7267 1670.45 100.587 1663.27 103.517C1673.47 106.825 1676.31 113.441 1676.31 120.719C1676.31 134.518 1664.68 141.229 1651.55 141.229C1635.29 141.229 1628.2 131.21 1627.16 119.774H1636.05C1637.09 128.185 1641.91 134.045 1651.64 134.045Z" fill="white"/>
<path d="M7.032 341.848C9.984 341.848 12.24 343.936 12.624 346.456H10.128C9.864 344.992 8.544 343.984 6.912 343.984C5.112 343.984 3.456 345.4 3.456 348.544C3.456 351.736 5.112 353.176 6.912 353.176C8.52 353.176 9.864 352.24 10.224 350.704H12.744C12.216 353.416 9.72 355.312 6.864 355.312C3.12 355.312 0.792 352.48 0.792 348.568C0.792 344.752 3.216 341.848 7.032 341.848ZM24.8192 344.08H20.2832V355H17.7872V344.08H13.2272V342.088H24.8192V344.08ZM34.2362 349.792V348.856C30.2282 349.24 28.1162 349.816 28.1162 351.472C28.1162 352.648 29.0282 353.392 30.5642 353.392C32.6042 353.392 34.2362 352.36 34.2362 349.792ZM30.0122 355.312C27.3962 355.312 25.4042 353.872 25.4042 351.52C25.4042 348.376 29.1242 347.512 34.1162 347.008V346.744C34.1162 344.464 32.9162 343.696 31.3322 343.696C29.6042 343.696 28.6202 344.56 28.5242 346.168H26.0042C26.1962 343.408 28.4762 341.776 31.4282 341.776C34.7642 341.776 36.6602 343.384 36.6362 347.248C36.6362 347.56 36.5882 349.792 36.5882 350.344C36.5882 352.288 36.7082 353.848 36.9482 355H34.5482C34.4522 354.496 34.4042 354.136 34.3322 353.296C33.5642 354.616 32.1242 355.312 30.0122 355.312ZM49.5223 344.08H44.9863V355H42.4903V344.08H37.9303V342.088H49.5223V344.08ZM54.171 346.552H57.099C60.531 346.552 62.043 348.112 62.043 350.68C62.043 353.944 59.955 355 56.883 355H51.675V342.088H54.171V346.552ZM54.171 353.008H56.811C58.635 353.008 59.547 352.312 59.547 350.68C59.547 349.072 58.635 348.544 56.787 348.544H54.171V353.008ZM65.8204 355H62.8444L66.4684 349.864C64.9564 349.312 63.9004 348.112 63.9004 346.168C63.9004 343.504 65.6764 342.088 68.7724 342.088H74.0044V355H71.5084V350.536H68.9404L65.8204 355ZM69.0124 348.544H71.5084V344.08H68.9644C67.4284 344.08 66.3964 344.896 66.3964 346.336C66.3964 347.968 67.5004 348.544 69.0124 348.544Z" fill="#EDEEEA"/>
<path d="M413.032 586.848C415.984 586.848 418.24 588.936 418.624 591.456H416.128C415.864 589.992 414.544 588.984 412.912 588.984C411.112 588.984 409.456 590.4 409.456 593.544C409.456 596.736 411.112 598.176 412.912 598.176C414.52 598.176 415.864 597.24 416.224 595.704H418.744C418.216 598.416 415.72 600.312 412.864 600.312C409.12 600.312 406.792 597.48 406.792 593.568C406.792 589.752 409.216 586.848 413.032 586.848Z" fill="#EDEEEA"/>
<path d="M496.936 587.088V600H494.44V589.08H488.296V600H485.8V587.088H496.936ZM502.198 593.592C502.198 596.76 503.95 598.2 505.822 598.2C507.742 598.2 509.47 596.736 509.47 593.592C509.47 590.4 507.742 588.96 505.822 588.96C503.95 588.96 502.198 590.328 502.198 593.592ZM505.822 586.848C508.894 586.848 512.11 588.912 512.11 593.592C512.11 598.248 508.894 600.312 505.822 600.312C502.774 600.312 499.558 598.248 499.558 593.592C499.558 588.912 502.774 586.848 505.822 586.848ZM526.876 598.008V603.072H524.524V600H515.332V603.072H512.98V598.008H513.604C514.924 598.008 515.548 596.112 515.74 591.216L515.908 587.088H525.028V598.008H526.876ZM522.532 598.008V589.08H518.236L518.068 591.96C517.9 594.96 517.516 596.952 516.484 598.008H522.532ZM535.134 587.832C538.11 587.832 540.678 589.896 540.678 593.952C540.678 598.104 537.894 600.312 534.678 600.312C531.318 600.312 528.534 597.936 528.534 593.112V591.792C528.606 587.112 530.43 584.136 535.35 583.248L539.718 582.48V584.64L535.47 585.456C532.686 585.96 531.054 587.16 530.67 590.352C531.558 588.648 533.286 587.832 535.134 587.832ZM534.702 598.224C536.718 598.224 538.062 596.712 538.062 594C538.062 591.288 536.574 589.92 534.726 589.92C532.806 589.92 531.15 591.192 531.15 593.976C531.15 596.64 532.614 598.224 534.702 598.224ZM545.229 593.592C545.229 596.76 546.981 598.2 548.853 598.2C550.773 598.2 552.501 596.736 552.501 593.592C552.501 590.4 550.773 588.96 548.853 588.96C546.981 588.96 545.229 590.328 545.229 593.592ZM548.853 586.848C551.925 586.848 555.141 588.912 555.141 593.592C555.141 598.248 551.925 600.312 548.853 600.312C545.805 600.312 542.589 598.248 542.589 593.592C542.589 588.912 545.805 586.848 548.853 586.848ZM557.633 587.088H560.129V588.984C560.921 587.64 562.241 586.848 564.161 586.848C567.161 586.848 569.729 589.344 569.729 593.568C569.729 597.792 567.161 600.312 564.161 600.312C562.241 600.312 560.921 599.52 560.129 598.176V604.2H557.633V587.088ZM560.033 593.568C560.033 596.76 561.665 598.224 563.585 598.224C565.673 598.224 567.065 596.472 567.065 593.568C567.065 590.664 565.673 588.936 563.585 588.936C561.665 588.936 560.033 590.376 560.033 593.568ZM580.683 600L576.339 594.312H574.827V600H572.331V587.088H574.827V592.32H576.411L580.347 587.088H583.251L578.379 593.256L583.683 600H580.683ZM586.948 593.592C586.948 596.76 588.7 598.2 590.572 598.2C592.492 598.2 594.22 596.736 594.22 593.592C594.22 590.4 592.492 588.96 590.572 588.96C588.7 588.96 586.948 590.328 586.948 593.592ZM590.572 586.848C593.644 586.848 596.86 588.912 596.86 593.592C596.86 598.248 593.644 600.312 590.572 600.312C587.524 600.312 584.308 598.248 584.308 593.592C584.308 588.912 587.524 586.848 590.572 586.848ZM605.232 585.504C602.592 585.504 601.512 584.136 601.392 582.6H603.288C603.384 583.44 603.912 583.992 605.256 583.992C606.6 583.992 607.176 583.44 607.272 582.6H609.144C608.952 584.136 607.968 585.504 605.232 585.504ZM601.92 600H599.472V587.088H601.92V596.424L608.232 587.088H610.68V600H608.232V590.688L601.92 600Z" fill="#EDEEEA"/>
<path d="M784.264 836.088V849H767.8V836.088H770.296V847.008H774.784V836.088H777.28V847.008H781.768V836.088H784.264ZM787.743 836.088H790.239V837.984C791.031 836.64 792.351 835.848 794.271 835.848C797.271 835.848 799.839 838.344 799.839 842.568C799.839 846.792 797.271 849.312 794.271 849.312C792.351 849.312 791.031 848.52 790.239 847.176V853.2H787.743V836.088ZM790.143 842.568C790.143 845.76 791.775 847.224 793.695 847.224C795.783 847.224 797.175 845.472 797.175 842.568C797.175 839.664 795.783 837.936 793.695 837.936C791.775 837.936 790.143 839.376 790.143 842.568ZM804.889 849H802.441V836.088H804.889V845.424L811.201 836.088H813.649V849H811.201V839.688L804.889 849ZM825.053 831.6V836.112C828.221 836.112 831.509 838.2 831.509 842.616C831.509 847.2 828.197 849.12 825.053 849.12V853.2H822.653V849.12C819.485 849.12 816.293 847.2 816.293 842.592C816.293 838.176 819.485 836.112 822.653 836.112V831.6H825.053ZM822.653 847.056V838.176C820.829 838.176 818.789 839.544 818.789 842.688C818.789 845.76 820.829 847.056 822.653 847.056ZM825.053 838.176V847.056C826.877 847.056 828.917 845.784 828.917 842.712C828.917 839.592 826.877 838.176 825.053 838.176ZM843.741 838.08H839.205V849H836.709V838.08H832.149V836.088H843.741V838.08ZM847.011 842.592C847.011 845.76 848.763 847.2 850.635 847.2C852.555 847.2 854.283 845.736 854.283 842.592C854.283 839.4 852.555 837.96 850.635 837.96C848.763 837.96 847.011 839.328 847.011 842.592ZM850.635 835.848C853.707 835.848 856.923 837.912 856.923 842.592C856.923 847.248 853.707 849.312 850.635 849.312C847.587 849.312 844.371 847.248 844.371 842.592C844.371 837.912 847.587 835.848 850.635 835.848ZM859.534 836.088H865.366C868.006 836.088 870.142 836.76 870.142 839.4C870.142 840.744 869.518 841.68 868.39 842.184C869.71 842.568 870.67 843.456 870.67 845.184C870.67 847.92 868.558 849 865.726 849H859.534V836.088ZM862.03 841.44H865.174C866.686 841.44 867.598 841.056 867.598 839.712C867.598 838.392 866.638 838.08 865.126 838.08H862.03V841.44ZM862.03 843.336V847.008H865.366C867.19 847.008 868.102 846.48 868.102 845.136C868.102 843.792 867.166 843.336 865.318 843.336H862.03ZM887.572 849H885.076V836.088H887.572V849ZM875.812 840.552H878.116C881.548 840.552 883.06 842.112 883.06 844.68C883.06 847.944 880.972 849 877.9 849H873.316V836.088H875.812V840.552ZM875.812 847.008H877.828C879.652 847.008 880.564 846.312 880.564 844.68C880.564 843.072 879.652 842.544 877.804 842.544H875.812V847.008ZM901.519 836.088L897.103 842.256L901.879 849H898.903L895.615 844.344L892.327 849H889.519L894.247 842.4L889.807 836.088H892.759L895.735 840.312L898.759 836.088H901.519Z" fill="#EDEEEA"/>
<path d="M1458.03 835.848C1460.98 835.848 1463.24 837.936 1463.62 840.456H1461.13C1460.86 838.992 1459.54 837.984 1457.91 837.984C1456.11 837.984 1454.46 839.4 1454.46 842.544C1454.46 845.736 1456.11 847.176 1457.91 847.176C1459.52 847.176 1460.86 846.24 1461.22 844.704H1463.74C1463.22 847.416 1460.72 849.312 1457.86 849.312C1454.12 849.312 1451.79 846.48 1451.79 842.568C1451.79 838.752 1454.22 835.848 1458.03 835.848ZM1475.82 838.08H1471.28V849H1468.79V838.08H1464.23V836.088H1475.82V838.08ZM1478.4 853.2H1477.2V851.208H1478.19C1479.53 851.208 1480.11 851.088 1480.73 849.264L1480.83 848.976L1476.17 836.088H1478.93L1482.05 845.712L1485.1 836.088H1487.69L1483.13 849.288C1482.05 852.336 1481.33 853.2 1478.4 853.2ZM1500.88 847.008V852.072H1498.53V849H1489.34V852.072H1486.99V847.008H1487.61C1488.93 847.008 1489.56 845.112 1489.75 840.216L1489.92 836.088H1499.04V847.008H1500.88ZM1496.54 847.008V838.08H1492.24L1492.08 840.96C1491.91 843.96 1491.52 845.952 1490.49 847.008H1496.54ZM1505.85 849H1503.4V836.088H1505.85V845.424L1512.16 836.088H1514.61V849H1512.16V839.688L1505.85 849ZM1524 834.504C1521.36 834.504 1520.28 833.136 1520.16 831.6H1522.05C1522.15 832.44 1522.68 832.992 1524.02 832.992C1525.37 832.992 1525.94 832.44 1526.04 831.6H1527.91C1527.72 833.136 1526.73 834.504 1524 834.504ZM1520.69 849H1518.24V836.088H1520.69V845.424L1527 836.088H1529.45V849H1527V839.688L1520.69 849Z" fill="#EDEEEA"/>
</svg>
