<svg width="1328" height="579" viewBox="0 0 1328 579" fill="none" xmlns="http://www.w3.org/2000/svg">
<path d="M244 297H538C606.483 297 662 352.517 662 421H368C299.517 421 244 365.483 244 297Z" fill="#5552FF"/>
<path d="M421 73H680.678C804.015 73 904 173.663 904 297H421V73Z" fill="#5552FF"/>
<path d="M4 579H263C350.261 579 421 508.261 421 421H4V579Z" fill="#5552FF"/>
<path d="M12.1658 307.402H29.7393L91.5662 200.364H70.7975L30.8576 232.475L50.3483 198.766H148.281L128.79 232.475V200.364H109.14L47.3128 307.402H64.8864L63.9278 309H11.2072L12.1658 307.402ZM91.7958 307.402H109.369L171.196 200.364H153.623L154.581 198.766H264.975L264.016 200.364H246.283L184.456 307.402H202.03L201.071 309H90.8373L91.7958 307.402ZM159.374 251.327H199.314L228.71 200.364H188.77L159.374 251.327ZM126.943 307.402H166.883L198.355 252.924H158.416L126.943 307.402ZM208.335 307.402H225.909L287.736 200.364H270.162L271.121 198.766H354.036L334.545 232.475V200.364H305.309L275.914 251.327H310.581L309.623 252.924H274.955L243.482 307.402H278.15L318.09 275.291L298.599 309H207.377L208.335 307.402ZM373.341 307.402H390.914L452.741 200.364H431.972L392.032 232.475L411.523 198.766H509.456L489.965 232.475V200.364H470.314L408.488 307.402H426.061L425.103 309H372.382L373.341 307.402ZM452.811 307.402H470.384L532.211 200.364H514.638L515.596 198.766H598.511L579.021 232.475V200.364H549.785L520.389 251.327H555.057L554.098 252.924H519.431L487.958 307.402H522.626L562.566 275.291L543.075 309H451.852L452.811 307.402ZM549.076 307.402H566.649L628.476 200.364H610.903L611.861 198.766H750.053L749.095 200.364H731.521L669.854 307.402H687.428L686.469 309H635.346L636.305 307.402H652.28L713.628 201.003L610.104 310.598L630.393 201.162L569.046 307.402H586.619L585.661 309H548.117L549.076 307.402ZM631.671 284.397L711.072 200.364H647.328L631.671 284.397ZM693.546 307.402H711.119L772.946 200.364H755.373L756.331 198.766H788.603C808.732 199.086 827.424 206.275 827.424 224.807C827.424 244.777 806.176 260.912 769.432 260.912H755.532L728.693 307.402H747.864L746.905 309H692.587L693.546 307.402ZM811.448 224.807C811.448 210.588 806.496 201.642 790.36 200.523L756.491 259.315H770.23C785.567 259.315 811.448 252.924 811.448 224.807ZM839.447 310.598C822.673 310.598 817.88 301.012 817.88 286.953C817.88 248.611 865.169 197.168 904.949 197.168C922.203 197.168 926.197 208.671 926.197 223.369C926.197 263.788 878.748 310.598 839.447 310.598ZM840.246 309C872.517 309 912.457 245.735 912.457 210.269C912.457 202.281 911.339 198.766 903.99 198.766C871.719 198.766 831.779 265.545 831.779 297.497C831.779 304.047 832.897 309 840.246 309ZM896.833 307.402H914.407L976.234 200.364H958.66L959.619 198.766H990.772C1011.38 198.766 1030.71 204.837 1030.71 220.813C1030.71 235.511 1016.01 247.972 989.973 251.806V307.402H1007.55L1006.59 309H895.875L896.833 307.402ZM1013.14 220.813C1013.14 208.991 1008.51 201.482 993.648 200.523L964.252 251.327H973.518C988.216 251.327 1013.14 245.576 1013.14 220.813ZM973.997 252.924H963.453L931.98 307.402H973.997V252.924ZM998.867 307.402H1016.6L1080.18 197.168V307.402H1097.76L1096.8 309H997.909L998.867 307.402ZM1041.36 268.261H1064.21V228.801L1041.36 268.261ZM1018.84 307.402H1064.21V269.859H1040.4L1018.84 307.402ZM1073.13 307.402H1090.7L1152.53 200.364H1134.96L1135.92 198.766H1167.07C1187.68 198.766 1207.01 204.837 1207.01 220.813C1207.01 235.511 1192.31 247.972 1166.27 251.806V307.402H1183.84L1182.89 309H1072.17L1073.13 307.402ZM1189.44 220.813C1189.44 208.991 1184.8 201.482 1169.94 200.523L1140.55 251.327H1149.81C1164.51 251.327 1189.44 245.576 1189.44 220.813ZM1150.29 252.924H1139.75L1108.28 307.402H1150.29V252.924ZM1188.02 307.402H1205.75L1236.75 253.883V200.364H1219.17L1220.13 198.766H1322.54L1321.58 200.364H1303.85L1252.72 256.599L1223.33 307.402H1240.9L1239.94 309H1187.06L1188.02 307.402ZM1252.72 200.364V254.362L1301.45 200.364H1252.72ZM78.4659 381.168C88.5308 381.168 103.229 383.725 110.578 393.31L116.648 382.766H119.045L93.8028 426.54L95.0809 421.108C102.909 389.636 90.9272 383.086 78.4659 383.086C69.9987 383.086 59.6143 386.44 59.6143 404.334C59.6143 423.984 78.7854 439.161 78.7854 462.166C78.7854 486.61 57.6972 494.598 42.0408 494.598C32.9345 494.598 17.5976 492.84 9.13035 481.338L2.42045 493H0.0240613L25.266 449.226L23.988 454.658C16.4793 486.45 28.621 492.68 42.2005 492.68C52.2654 492.68 63.129 489.645 63.129 468.397C63.129 446.83 43.9579 432.291 43.9579 412.002C43.9579 388.198 61.5314 381.168 78.4659 381.168ZM92.8255 491.402H110.399L172.226 384.364H151.457L111.517 416.475L131.008 382.766H228.941L209.45 416.475V384.364H189.799L127.973 491.402H145.546L144.588 493H91.867L92.8255 491.402ZM169.335 491.402H187.069L250.653 381.168V491.402H268.226L267.268 493H168.377L169.335 491.402ZM211.831 452.261H234.677V412.801L211.831 452.261ZM189.305 491.402H234.677V453.859H210.873L189.305 491.402ZM258.045 491.402H275.619L337.446 384.364H316.677L276.737 416.475L296.228 382.766H394.16L374.67 416.475V384.364H355.019L293.193 491.402H310.766L309.807 493H257.087L258.045 491.402ZM337.516 491.402H355.089L416.916 384.364H399.343L400.301 382.766H483.216L463.726 416.475V384.364H434.49L405.094 435.327H439.762L438.803 436.924H404.135L372.663 491.402H407.331L447.27 459.291L427.78 493H336.557L337.516 491.402Z" fill="#161616"/>
<path d="M509.654 92.0455C518.727 92.0455 525.154 87.4142 525.154 78.8132C525.154 68.9835 516.364 65.77 505.4 65.77H503.983V57.9251H505.117C517.12 57.9251 523.358 54.617 523.358 46.5832C523.358 39.3054 517.309 35.4302 510.032 35.4302C500.864 35.4302 495.854 40.9122 495.098 48.757H486.214C487.253 36.6589 495.854 28.247 510.221 28.247C522.035 28.247 532.432 33.0673 532.432 45.638C532.432 52.7267 528.462 58.5867 521.279 61.5167C531.487 64.8248 534.322 71.4409 534.322 78.7187C534.322 92.5181 522.697 99.2287 509.559 99.2287C493.302 99.2287 486.214 89.21 485.174 77.7735H494.058C495.098 86.1855 499.918 92.0455 509.654 92.0455Z" fill="#161616"/>
</svg>
