<svg width="1664" height="324" viewBox="0 0 1664 324" fill="none" xmlns="http://www.w3.org/2000/svg">
<path d="M0 5.17349H120.283C201.334 5.17349 262.123 25.0052 262.123 106.919C262.123 189.263 201.334 209.526 120.283 209.526H73.722V317.738H0V5.17349ZM122.439 67.2552H73.722V147.444H122.439C156.929 147.444 184.09 139.684 184.09 106.919C184.09 74.1532 156.929 67.2552 122.439 67.2552Z" fill="white"/>
<path d="M361.177 317.738V69.8419H261.156V5.17349H535.781V69.8419H435.33V317.738H361.177Z" fill="white"/>
<path d="M894.607 95.7093H821.747C814.418 71.9975 791.569 59.0639 760.097 59.0639C731.212 59.0639 710.518 69.8419 710.518 89.2425C710.518 104.763 724.745 115.972 746.732 120.714L789.413 129.337C839.855 139.684 903.661 155.204 903.661 220.735C903.661 286.266 837.699 323.342 772.599 323.342C691.979 323.342 640.245 283.679 628.604 215.993H701.895C710.087 248.758 735.954 263.847 774.324 263.847C799.76 263.847 827.783 255.656 827.783 229.789C827.783 209.526 804.071 199.61 769.582 192.281L731.643 184.521C680.77 174.174 634.64 149.6 634.64 93.5537C634.64 29.7475 703.189 0 764.408 0C825.196 0 884.26 26.7296 894.607 95.7093Z" fill="white"/>
<path d="M1075.18 172.88V163.827C1075.18 136.235 1061.82 126.75 1035.95 126.75C1013.1 126.75 997.582 138.39 994.564 160.809H928.171C931.62 117.265 973.008 78.4644 1041.99 78.4644C1108.81 78.4644 1146.75 105.625 1145.46 175.898L1144.59 226.34V250.482C1144.59 275.919 1146.32 303.079 1149.77 317.738H1079.93L1079.06 289.715C1061.82 314.289 1034.23 323.342 1001.03 323.342C957.056 323.342 920.842 297.475 920.842 255.225C920.842 198.317 985.079 179.778 1075.18 172.88ZM1076.91 220.304V214.699C1027.33 219.442 994.133 225.046 994.133 250.051C994.133 265.141 1008.36 275.056 1026.9 275.056C1055.35 275.056 1076.91 262.985 1076.91 220.304Z" fill="white"/>
<path d="M1257.41 85.7935V116.403C1267.76 99.1583 1292.76 80.62 1329.41 80.62C1388.9 80.62 1407.44 115.541 1407.44 178.485V317.738H1336.31V196.161C1336.31 162.964 1335.01 135.804 1300.52 135.804C1269.91 135.804 1257.41 155.635 1257.41 198.748V317.738H1186.28V85.7935H1257.41Z" fill="white"/>
<path d="M1658.83 153.911H1592.43C1587.69 136.666 1569.58 131.493 1547.17 131.493C1522.59 131.493 1510.09 137.097 1510.09 148.737C1510.09 159.516 1518.28 165.551 1538.54 169.431L1581.66 177.192C1637.27 187.539 1664 203.921 1664 244.878C1664 297.044 1616.15 323.342 1551.91 323.342C1490.69 323.342 1446.28 296.613 1438.09 242.291H1504.05C1510.52 264.71 1528.2 271.607 1552.77 271.607C1578.21 271.607 1595.88 264.71 1595.88 250.914C1595.88 240.567 1586.83 234.1 1559.67 229.357L1518.28 222.459C1473.44 215.13 1442.83 192.712 1442.83 151.324C1442.83 105.194 1491.55 79.7577 1548.89 79.7577C1601.92 79.7577 1649.77 100.883 1658.83 153.911Z" fill="white"/>
</svg>
