<svg width="920" height="987" viewBox="0 0 920 987" fill="none" xmlns="http://www.w3.org/2000/svg">
<path d="M76.6669 69.454H78.6565C78.6565 113.49 50.4043 119.326 36.2119 119.326C17.2445 119.326 11.6736 111.368 11.6736 99.6958C11.6736 67.8623 50.9349 25.1525 83.9621 25.1525C93.91 25.1525 99.8788 27.6726 103.593 31.3865L106.378 26.4788H108.368L87.4107 62.822L88.4718 58.3123C94.4406 32.8455 90.9919 26.4788 83.1662 26.4788C56.3731 26.4788 23.2132 81.9221 23.2132 108.45C23.2132 113.756 25.0702 117.735 36.8751 117.735C50.139 117.735 76.6669 111.103 76.6669 69.454ZM144.394 25.1525C152.75 25.1525 164.953 27.2747 171.054 35.233L176.095 26.4788H178.084L157.127 62.822L158.188 58.3123C164.688 32.1823 154.74 26.7441 144.394 26.7441C137.364 26.7441 128.742 29.5296 128.742 44.3852C128.742 60.6998 144.659 73.3005 144.659 92.4006C144.659 112.694 127.151 119.326 114.152 119.326C106.592 119.326 93.8582 117.867 86.8283 108.317L81.2574 118H79.2679L100.225 81.6568L99.1638 86.1666C92.9297 112.562 103.01 117.735 114.285 117.735C122.641 117.735 131.66 115.215 131.66 97.5735C131.66 79.6672 115.744 67.597 115.744 50.7518C115.744 30.9886 130.334 25.1525 144.394 25.1525ZM156.316 116.674H170.906L222.238 27.8052H204.994L171.835 54.4658L188.017 26.4788H269.325L253.142 54.4658V27.8052H236.828L185.496 116.674H200.087L199.291 118H155.52L156.316 116.674ZM222.428 116.674H237.019L288.35 27.8052H273.76L274.555 26.4788H389.289L388.493 27.8052H373.902L322.704 116.674H337.294L336.498 118H294.053L294.849 116.674H308.113L359.047 28.3358L273.096 119.326L289.942 28.4684L239.008 116.674H253.598L252.803 118H221.632L222.428 116.674ZM291.003 97.5735L356.924 27.8052H304.001L291.003 97.5735ZM414.529 119.326C403.122 119.326 397.286 115.082 397.286 103.41C397.286 67.8623 433.895 25.1525 464.932 25.1525C480.451 25.1525 481.91 36.4268 481.91 46.9053C481.91 80.4631 446.495 119.326 414.529 119.326ZM415.458 118C441.322 118 470.503 65.4748 470.503 34.7025C470.503 28.8664 468.911 26.4788 464.534 26.4788C439.333 26.4788 408.826 81.9221 408.826 108.715C408.826 113.888 409.887 118 415.458 118ZM523.05 118H462.169L503.95 88.4214C495.328 79.5346 492.808 67.995 492.808 61.7609C492.808 34.8351 508.858 25.1525 528.621 25.1525C547.323 25.1525 554.353 31.9171 554.353 41.0692C554.353 51.0171 549.047 58.8429 514.031 83.2485L481.269 106.062H529.947L523.05 118ZM494.665 61.7609C494.665 67.995 497.451 79.6672 505.409 87.493L513.102 82.0547C533.131 67.8623 538.967 56.0574 538.967 42.6609C538.967 35.8962 536.181 27.0094 524.244 27.0094C510.051 27.0094 494.665 36.2942 494.665 61.7609ZM570.251 118L609.38 50.3539H595.453L596.248 49.0275H623.97L584.841 116.674H598.768L597.973 118H570.251ZM637.101 19.051C637.101 24.224 633.387 27.4073 628.878 27.4073C624.103 27.4073 620.654 24.224 620.654 19.051C620.654 14.4087 624.103 10.8274 628.878 10.8274C633.387 10.8274 637.101 14.4087 637.101 19.051ZM610.665 118L649.793 50.3539H636.397L677.382 26.4788L664.384 49.0275H687.595L686.8 50.3539H663.588L625.255 116.674H648.467L647.671 118H610.665ZM683.83 119.326C670.433 119.326 664.332 112.96 664.332 103.675C664.332 79.6672 696.43 47.7011 725.876 47.7011C733.172 47.7011 734.631 51.1498 734.631 57.5165C734.631 61.6283 733.835 65.3422 731.978 69.8519L744.048 49.0275H757.975L718.846 116.674H732.774L731.978 118H704.256L713.806 101.42C705.052 111.633 695.237 119.326 683.83 119.326ZM684.493 117.337C707.307 117.337 732.641 76.2186 732.641 57.5165C732.641 52.3435 732.11 49.2928 725.478 49.2928C701.869 49.2928 677.463 90.5437 677.463 109.378C677.463 114.684 678.524 117.337 684.493 117.337ZM744.729 118L801.366 19.8469H787.439L788.234 18.5205H815.956L759.319 116.674H773.246L772.45 118H744.729ZM788.122 118L827.25 50.3539H813.323L814.119 49.0275H841.84L802.712 116.674H816.639L815.843 118H788.122ZM854.972 19.051C854.972 24.224 851.258 27.4073 846.748 27.4073C841.973 27.4073 838.524 24.224 838.524 19.051C838.524 14.4087 841.973 10.8274 846.748 10.8274C851.258 10.8274 854.972 14.4087 854.972 19.051ZM855.196 119.326C842.064 119.326 835.83 112.96 835.83 103.675C835.83 80.9936 867.001 47.7011 897.242 47.7011C907.456 47.7011 911.567 54.2005 911.567 59.3734C911.567 65.0769 906.792 67.4644 900.956 67.4644C898.569 67.4644 895.783 67.0665 893.396 65.7401L902.415 50.0887C901.221 49.6907 899.895 49.2928 896.579 49.2928C872.969 49.2928 848.962 92.0027 848.962 109.378C848.962 114.286 850.155 117.337 856.92 117.337C872.041 117.469 893.396 108.052 898.967 78.0756H900.956C895.12 109.378 873.5 119.326 855.196 119.326Z" fill="#161616"/>
<path d="M1.22874 221.323H8.73799L35.6631 174.644V221.323H43.1047L42.6988 222H0.822832L1.22874 221.323ZM19.2239 204.749H28.898V188.039L19.2239 204.749ZM9.6851 221.323H28.898V205.426H18.818L9.6851 221.323ZM32.6759 221.323H40.1175L66.2984 175.997H58.8568L59.2627 175.321H93.6293L85.3759 189.595V175.997H73.74L61.9687 196.293C74.3488 197.037 80.5727 202.517 80.5727 208.335C80.5727 217.467 70.628 222 56.0154 222H32.2699L32.6759 221.323ZM72.7929 208.267C72.8605 205.02 71.2369 197.713 61.6305 196.969L47.5591 221.323H53.4447C64.6747 221.323 72.5899 218.685 72.7929 208.267ZM76.4772 221.323H83.9188L110.1 175.997H102.658L103.064 175.321H115.309C123.9 175.389 131.816 178.027 131.816 184.657C131.816 192.031 123.63 196.766 109.558 198.255C119.368 199.743 123.698 203.531 123.698 209.011C123.698 217.67 114.023 222 99.8168 222H76.0713L76.4772 221.323ZM124.374 184.657C124.374 179.989 122.683 176.944 117.406 176.2L105.026 197.578H107.597C113.82 197.578 124.374 195.143 124.374 184.657ZM115.918 208.943C115.985 205.764 114.971 198.66 104.688 198.255L91.3604 221.323H97.246C108.07 221.323 115.715 218.82 115.918 208.943ZM117.965 221.323H125.406L151.587 175.997H144.146L144.551 175.321H178.986L170.732 189.595V175.997H159.029L132.848 221.323H147.122L146.716 222H117.559L117.965 221.323ZM222.507 175.997H214.998L188.817 221.323H199.776L191.523 235.598V222H161.351L144.438 235.598L152.691 221.323H160.877C167.371 215.167 175.557 205.696 193.688 175.997H180.496L180.902 175.321H222.913L222.507 175.997ZM194.702 175.997C178.94 202.043 169.266 214.626 162.095 221.323H181.375L207.556 175.997H194.702ZM198.962 221.323H206.404L232.585 175.997H225.143L225.549 175.321H260.66L252.407 189.595V175.997H240.026L227.579 197.578H242.259L241.853 198.255H227.173L213.846 221.323H228.526L245.439 207.726L237.185 222H198.556L198.962 221.323ZM241.112 221.323H248.554L274.735 175.997H267.293L267.699 175.321H302.81L294.556 189.595V175.997H282.176L269.728 197.578H284.409L284.003 198.255H269.323L255.995 221.323H270.676L287.588 207.726L279.335 222H240.706L241.112 221.323ZM285.491 165.985C285.491 168.623 283.597 170.247 281.297 170.247C278.861 170.247 277.102 168.623 277.102 165.985C277.102 163.617 278.861 161.791 281.297 161.791C283.597 161.791 285.491 163.617 285.491 165.985ZM297.668 165.985C297.668 168.623 295.774 170.247 293.474 170.247C291.038 170.247 289.28 168.623 289.28 165.985C289.28 163.617 291.038 161.791 293.474 161.791C295.774 161.791 297.668 163.617 297.668 165.985ZM275.804 221.323H283.178L321.198 187.498V175.997H313.351L313.756 175.321H366.998L366.592 175.997H359.15L338.787 192.504V221.323H346.229L345.823 222H275.398L275.804 221.323ZM321.875 195.413L292.311 221.323H308.818L334.999 175.997H321.875V195.413ZM332.022 196.834L357.662 175.997H341.764L315.583 221.323H332.022V196.834ZM367.029 222C372.645 222 379.139 218.82 379.342 208.943C379.41 205.696 378.395 198.255 367.909 198.255H358.911L359.317 197.578H363.918C364.188 175.997 374.945 174.644 380.492 174.644C388.34 174.644 393.887 177.418 393.887 183.642C393.887 191.557 386.107 197.172 372.847 198.255C382.725 199.743 387.122 203.531 387.122 209.011C387.122 217.67 377.515 222.677 366.962 222.677C362.023 222.677 353.296 221.729 349.305 216.994L346.464 222H345.449L356.138 203.464L355.596 205.764C352.485 218.956 360.4 222 367.029 222ZM379.545 175.456C374.809 175.456 364.797 176.809 364.797 197.578H371.021C376.704 197.578 386.445 194.94 386.445 183.642C386.445 178.771 384.483 175.456 379.545 175.456ZM380.774 221.323H388.216L414.397 175.997H406.955L407.361 175.321H454.108L453.702 175.997H446.193L420.012 221.323H427.453L427.047 222H380.368L380.774 221.323ZM421.838 175.997L399.514 214.694L436.383 180.124L438.751 175.997H421.838ZM395.657 221.323H412.57L434.895 182.627L398.025 217.197L395.657 221.323ZM430.191 221.323H437.633L463.814 175.997H456.372L456.778 175.321H503.525L503.119 175.997H495.61L469.429 221.323H476.87L476.464 222H429.785L430.191 221.323ZM471.255 175.997L448.93 214.694L485.8 180.124L488.168 175.997H471.255ZM445.074 221.323H461.987L484.312 182.627L447.442 217.197L445.074 221.323ZM480.726 171.735C483.771 171.735 489.656 170.856 491.415 165.782C490.671 166.459 489.724 166.797 488.642 166.797C486.206 166.797 484.447 165.173 484.447 162.535C484.447 160.167 486.206 158.34 488.642 158.34C490.942 158.34 492.836 160.167 492.836 162.535C492.836 171.262 484.65 172.412 480.726 172.412C476.735 172.412 468.617 171.262 468.617 162.535C468.617 160.167 470.376 158.34 472.811 158.34C475.111 158.34 477.006 160.167 477.006 162.535C477.006 165.173 475.111 166.797 472.811 166.797C471.729 166.797 470.782 166.459 470.038 165.85C471.796 170.856 477.614 171.735 480.726 171.735ZM479.608 221.323H487.05L513.231 175.997H505.789L506.195 175.321H545.906L545.5 175.997H538.058L517.696 192.504V221.323H525.137L524.731 222H479.202L479.608 221.323ZM510.93 196.834L536.57 175.997H519.996L493.815 221.323H510.93V196.834ZM526.755 221.729C533.791 221.729 537.376 216.791 561.933 175.997H546.712L547.118 175.321H591.159L590.753 175.997H583.243L557.063 221.323H564.504L564.098 222H541.773L542.179 221.323H549.621L575.802 175.997H562.948C538.053 217.467 534.399 222.677 526.89 222.677C521.749 222.677 520.26 219.835 520.26 217.535C520.26 213.679 522.831 212.055 525.943 212.055C527.228 212.055 528.649 212.258 529.935 213.002L525.064 221.526C525.605 221.729 526.146 221.729 526.755 221.729ZM567.211 221.323H574.652L600.833 175.997H593.392L593.798 175.321H652.316L651.91 175.997H644.468L618.355 221.323H625.796L625.391 222H603.742L604.148 221.323H610.913L636.891 176.268L593.053 222.677L601.645 176.336L575.667 221.323H583.109L582.703 222H566.805L567.211 221.323ZM602.186 211.582L635.809 175.997H608.816L602.186 211.582ZM628.32 221.323H635.761L661.942 175.997H654.501L654.906 175.321H701.653L701.247 175.997H693.738L667.557 221.323H674.999L674.593 222H627.914L628.32 221.323ZM656.936 197.578H673.849L686.296 175.997H669.384L656.936 197.578ZM643.203 221.323H660.116L673.443 198.255H656.53L643.203 221.323ZM697.9 222.677C690.796 222.677 688.767 218.617 688.767 212.664C688.767 196.428 708.791 174.644 725.636 174.644C732.943 174.644 734.634 179.515 734.634 185.739C734.634 202.855 714.542 222.677 697.9 222.677ZM698.238 222C711.903 222 728.816 195.21 728.816 180.192C728.816 176.809 728.343 175.321 725.231 175.321C711.565 175.321 694.652 203.599 694.652 217.129C694.652 219.903 695.126 222 698.238 222ZM721.539 221.323H728.981L755.162 175.997H747.72L748.126 175.321H794.197L793.791 175.997H786.281L760.1 221.323H767.542L767.136 222H721.134L721.539 221.323ZM736.423 221.323H752.659L778.84 175.997H762.604L736.423 221.323ZM770.23 221.323H777.671L803.852 175.997H796.411L796.816 175.321H810.482C819.006 175.456 826.921 178.5 826.921 186.348C826.921 194.804 817.924 201.637 802.364 201.637H796.478L785.113 221.323H793.231L792.825 222H769.824L770.23 221.323ZM820.156 186.348C820.156 180.327 818.059 176.539 811.226 176.065L796.884 200.961H802.702C809.197 200.961 820.156 198.255 820.156 186.348ZM856.028 197.24H857.043C857.043 219.7 842.634 222.677 835.395 222.677C825.721 222.677 822.879 218.617 822.879 212.664C822.879 196.428 842.904 174.644 859.749 174.644C864.823 174.644 867.867 175.93 869.762 177.824L871.182 175.321H872.197L861.508 193.857L862.049 191.557C865.094 178.568 863.335 175.321 859.343 175.321C845.678 175.321 828.765 203.599 828.765 217.129C828.765 219.835 829.712 221.865 835.733 221.865C842.498 221.865 856.028 218.482 856.028 197.24ZM861.77 221.323H869.211L895.392 175.997H886.598L869.685 189.595L877.938 175.321H919.408L911.155 189.595V175.997H902.834L876.653 221.323H884.095L883.689 222H861.364L861.77 221.323ZM27.2067 300.677C24.3654 305.615 19.6298 309.268 13.4736 309.268C7.38497 309.268 3.52887 306.765 3.52887 300.677C3.52887 296.415 7.18202 283.696 27.2067 283.696V253.997H19.7651L20.171 253.321H62.0469L61.641 253.997H54.1318L27.2067 300.677ZM33.9718 253.997V287.417L53.117 253.997H33.9718ZM4.40833 300.677C4.40833 305.277 6.64081 308.592 13.4736 308.592C17.5326 308.592 23.0123 306.765 27.2067 299.053V284.373C7.85853 284.643 4.40833 296.144 4.40833 300.677ZM53.7206 299.323H61.1622L64.4094 293.641C54.4647 293.1 49.188 288.093 49.188 280.99C49.188 268.001 63.4623 259.815 84.2311 259.342L87.3431 253.997H79.9015L80.3074 253.321H102.7L102.294 253.997H94.7847L91.6727 259.409C103.106 260.154 106.759 267.257 106.759 273.143C106.759 285.726 92.4169 293.235 71.851 293.708L68.6038 299.323H76.0454L75.6395 300H53.3147L53.7206 299.323ZM55.7501 284.102C55.7501 287.011 57.1031 292.22 64.8153 292.964L83.8252 260.086C66.7096 260.83 55.7501 271.384 55.7501 284.102ZM100.264 268.948C100.264 264.957 98.9114 260.695 91.2668 260.086L72.2569 292.964C89.3726 292.22 100.264 281.802 100.264 268.948ZM134.464 300H94.6171L95.0231 299.323H102.668L120.257 279.299V253.997H112.815L113.221 253.321H151.444L151.038 253.997H143.529L127.022 272.804V299.323H134.869L134.464 300ZM127.022 253.997V271.654L142.514 253.997H127.022ZM103.682 299.323H120.257V280.449L103.682 299.323ZM129.528 299.323H136.969L163.15 253.997H155.709L156.114 253.321H202.185L201.779 253.997H194.27L168.089 299.323H179.048L170.795 313.598V300H129.122L129.528 299.323ZM144.411 299.323H160.647L186.828 253.997H170.592L144.411 299.323ZM196.452 299.323H203.893L216.68 277.202C214.041 278.013 211.403 278.487 207.75 278.487C200.173 278.487 194.152 275.172 199.834 265.363L206.397 253.997H198.955L199.361 253.321H245.431L245.025 253.997H237.516L211.335 299.323H218.777L218.371 300H196.046L196.452 299.323ZM206.87 266.175C203.555 271.857 202.743 277.608 209.644 277.608C212.553 277.608 214.65 277.269 217.153 276.39L230.074 253.997H213.838L206.87 266.175ZM221.491 299.323H228.932L255.113 253.997H247.672L248.077 253.321H313.767L313.361 253.997H305.851L279.67 299.323H287.112L286.706 300H221.085L221.491 299.323ZM236.374 299.323H250.581L276.761 253.997H262.555L236.374 299.323ZM258.022 299.323H272.229L298.41 253.997H284.203L258.022 299.323ZM289.802 299.323H297.244L323.425 253.997H315.983L316.389 253.321H382.078L381.672 253.997H374.163L347.982 299.323H358.942L350.688 313.598V300H289.396L289.802 299.323ZM304.685 299.323H318.892L345.073 253.997H330.866L304.685 299.323ZM326.334 299.323H340.54L366.721 253.997H352.515L326.334 299.323ZM366.908 299.323H374.35L400.531 253.997H393.089L376.177 267.595L384.43 253.321H415.82L415.414 253.997H407.973L396.878 273.143C407.905 274.36 413.452 279.84 413.452 285.658C413.452 295.129 403.778 299.865 389.504 300H366.503L366.908 299.323ZM405.672 285.59C405.74 282.343 404.319 275.51 396.472 273.887L381.792 299.323H386.324C397.554 299.323 405.469 296.55 405.672 285.59ZM409.447 299.323H416.888L443.069 253.997H435.628L436.033 253.321H496.987L496.581 253.997H489.072L462.891 299.323H470.332L469.927 300H447.602L448.008 299.323H455.449L481.63 253.997H450.511L439.416 273.143C450.443 274.36 455.99 279.84 455.99 285.658C455.99 295.129 446.316 299.865 432.042 300H409.041L409.447 299.323ZM448.211 285.59C448.278 282.343 446.858 275.51 439.01 273.887L424.33 299.323H428.862C440.092 299.323 448.008 296.55 448.211 285.59ZM473.068 299.323H480.509L506.69 253.997H499.248L499.654 253.321H521.979L521.573 253.997H514.132L503.037 273.143C514.064 274.36 519.611 279.84 519.611 285.658C519.611 295.129 509.937 299.865 495.663 300H472.662L473.068 299.323ZM511.832 285.59C511.899 282.343 510.479 275.51 502.631 273.887L487.951 299.323H492.483C503.713 299.323 511.629 296.55 511.832 285.59ZM534.385 300C543.72 300 552.786 288.296 557.724 276.255H531.949L532.355 275.578H537.361C538.376 260.154 546.427 252.644 555.695 252.644C565.436 252.644 567.398 258.124 567.398 265.092C567.398 281.599 551.027 300.677 534.046 300.677C530.934 300.677 525.861 300 523.087 295.197L520.313 300H519.299L529.987 281.464L529.446 283.764C526.402 296.685 530.19 300 534.385 300ZM555.627 253.456C547.035 253.456 538.985 260.492 538.105 275.578H557.995C560.227 269.895 561.58 264.145 561.58 259.545C561.58 255.283 560.092 253.456 555.627 253.456ZM554.262 299.323H561.703L587.884 253.997H580.443L580.849 253.321H603.241L602.835 253.997H595.326L582.878 275.578H590.117C596.882 263.536 610.345 252.644 622.183 252.644C629.896 252.644 630.843 257.651 630.843 264.077C630.843 281.058 610.953 300.677 594.447 300.677C587.614 300.677 585.652 296.482 585.652 290.326C585.652 285.861 587.208 280.99 589.711 276.255H582.472L569.145 299.323H576.587L576.181 300H553.856L554.262 299.323ZM594.785 300C608.315 300 625.025 273.413 625.025 258.53C625.025 254.944 624.619 253.321 621.778 253.321C608.247 253.321 591.538 281.396 591.538 294.791C591.538 297.768 591.943 300 594.785 300ZM613.676 299.323H621.05L647.366 275.916C643.78 273.413 642.36 270.437 642.36 267.054C642.36 258.395 651.763 253.321 668.541 253.321H687.483L687.077 253.997H679.635L653.455 299.323H660.896L660.49 300H613.27L613.676 299.323ZM654.672 277.878L654.131 278.352L630.183 299.323H646.689L672.87 253.997H668.135C655.078 253.997 648.922 260.762 648.922 269.489C648.922 271.519 649.598 275.849 654.672 277.878Z" fill="#161616"/>
<path d="M21.1181 431.677C15.3001 431.677 12.3235 429.512 12.3235 423.558C12.3235 405.428 30.9951 383.644 46.8255 383.644C54.7406 383.644 55.4848 389.395 55.4848 394.739C55.4848 411.855 37.422 431.677 21.1181 431.677ZM21.5917 431C34.7836 431 49.6668 404.21 49.6668 388.515C49.6668 385.539 48.855 384.321 46.6225 384.321C33.7688 384.321 18.2091 412.599 18.2091 426.264C18.2091 428.903 18.7503 431 21.5917 431ZM43.0481 430.323H50.4897L75.5206 387.027L61.9227 391.154L62.3963 390.342L84.924 383.644L84.5181 384.321L57.9313 430.323H65.3729L64.967 431H42.6422L43.0481 430.323ZM102.497 431H71.4456L92.7557 415.914C88.3584 411.381 87.073 405.496 87.073 402.316C87.073 388.583 95.2588 383.644 105.339 383.644C114.878 383.644 118.463 387.095 118.463 391.762C118.463 396.836 115.757 400.828 97.8972 413.275L81.1874 424.911H106.015L102.497 431ZM88.0201 402.316C88.0201 405.496 89.4408 411.449 93.4999 415.44L97.4236 412.667C107.639 405.428 110.616 399.407 110.616 392.574C110.616 389.124 109.195 384.591 103.106 384.591C95.8676 384.591 88.0201 389.327 88.0201 402.316ZM124.948 431.677C118.251 431.677 110.538 428.091 112.568 417.876H113.515C111.485 427.009 118.318 430.797 124.948 430.797C133.743 430.797 139.561 424.641 139.561 414.967C139.561 408.472 136.584 405.969 131.916 405.969C130.766 405.969 129.142 405.969 122.648 408.337L122.377 407.593L129.481 405.157C129.684 405.09 129.954 405.022 130.157 404.954C129.007 404.075 126.842 400.557 126.842 395.348C126.842 386.892 132.796 383.644 138.952 383.644C147.138 383.644 151.332 386.689 151.332 390.951C151.332 395.754 146.799 400.219 132.322 404.954C143.078 405.157 147.34 410.231 147.34 415.711C147.34 425.25 137.193 431.677 124.948 431.677ZM127.789 395.348C127.789 400.151 129.616 403.331 131.172 404.548C139.019 401.437 143.89 396.498 143.89 390.206C143.89 387.568 143.078 384.456 138.343 384.456C133.404 384.456 127.789 387.433 127.789 395.348ZM157.195 430.323H164.636L172.687 416.32H147.25L199.071 383.644L183.714 410.231H192.306L188.788 416.32H180.196L172.078 430.323H179.52L179.114 431H156.789L157.195 430.323ZM158.412 410.231H176.205L186.488 392.507L158.412 410.231ZM202.186 430.797C210.237 430.594 215.108 423.017 215.108 413.614C215.108 406.51 211.996 402.045 206.516 402.045C204.96 402.045 202.119 402.316 200.292 404.075H199.277L214.025 384.321H232.697L229.179 390.409H210.507L201.51 402.451C203.607 401.369 206.178 400.895 209.222 400.895C219.505 400.895 222.888 407.322 222.888 413.343C222.888 423.626 214.431 431.677 202.322 431.677C194.677 431.677 188.521 428.159 188.521 419.499C188.521 410.569 194.88 406.307 198.871 405.022L199.007 405.766C194.677 407.322 189.468 411.517 189.468 419.499C189.468 427.212 194.948 431 202.186 430.797ZM264.321 408.202C264.321 418.755 249.776 431.677 234.555 431.677C227.248 431.677 223.933 428.429 223.933 423.694C223.933 420.244 225.151 416.32 227.384 412.464C240.576 389.327 262.9 384.321 274.333 384.321V385.2C264.118 385.2 250.182 387.974 236.584 410.366C241.59 403.737 247.138 399.204 254.241 399.204C261.953 399.204 264.321 402.925 264.321 408.202ZM234.893 431C246.935 431 257.691 413.343 257.691 404.887C257.691 401.91 257.015 400.016 253.429 400.016C242.064 400.016 230.631 418.214 230.631 426.603C230.631 429.309 231.307 431 234.893 431ZM308.762 384.321L265.195 431H264.181L302.065 390.409H275.952L279.47 384.321H308.762ZM322.859 417.943C322.859 428.768 313.523 431.677 307.3 431.677C298.573 431.677 294.581 427.415 294.581 421.191C294.581 414.223 299.384 407.322 310.006 404.278C308.923 401.842 308.111 399.407 308.111 396.701C308.111 387.297 314.876 383.644 322.047 383.644C327.73 383.644 332.06 386.35 332.06 392.371C332.06 397.039 329.083 403.398 319.883 407.255C321.506 410.502 322.859 413.952 322.859 417.943ZM314.741 393.454C314.741 398.122 317.312 402.181 319.544 406.578C327.662 403.331 331.113 398.054 331.113 392.371C331.113 387.162 327.595 384.456 322.318 384.456C318.733 384.456 314.741 385.877 314.741 393.454ZM295.528 421.191C295.528 426.806 299.249 430.797 306.217 430.797C311.223 430.797 316.229 428.7 316.229 420.582C316.229 414.628 312.712 409.893 310.344 404.954C301.482 407.322 295.528 413.073 295.528 421.191ZM333.987 407.796C333.987 397.242 348.532 384.321 363.754 384.321C371.06 384.321 374.375 387.568 374.375 392.304C374.375 395.754 373.157 399.678 370.925 403.534C357.733 426.67 335.408 431.677 323.975 431.677V430.797C334.19 430.797 348.126 428.023 361.724 405.631C356.718 412.261 351.171 416.793 344.067 416.793C336.355 416.793 333.987 413.073 333.987 407.796ZM363.415 384.997C351.374 384.997 340.617 402.654 340.617 411.111C340.617 414.087 341.294 415.981 344.879 415.981C356.244 415.981 367.677 397.783 367.677 389.395C367.677 386.689 367.001 384.997 363.415 384.997Z" fill="#161616"/>
<path d="M20.4278 592.375C20.4278 573.938 39.6605 566.112 55.1793 566.112C72.5551 566.112 87.8086 573.938 91.6551 592.375H78.5238C75.3405 581.366 64.1988 577.519 54.6488 577.519C47.221 577.519 34.2223 580.835 34.2223 591.579C34.2223 600.068 40.8543 604.312 49.8737 606.302L61.0154 608.822C75.7384 612.005 93.3794 617.576 93.3794 636.942C93.3794 655.644 75.8711 665.724 56.771 665.724C34.0897 665.724 19.7646 653.256 17.2445 634.156H30.5084C33.0285 647.42 42.1807 654.317 57.0363 654.317C71.3613 654.317 79.4523 647.685 79.4523 638.135C79.4523 627.922 70.6981 623.943 58.7606 621.157L46.823 618.637C33.5591 615.719 20.4278 608.291 20.4278 592.375ZM152.339 664V653.787C148.227 660.551 141.728 665.724 129.923 665.724C113.475 665.724 107.109 654.583 107.109 638.268V592.64H119.179V634.687C119.179 645.696 120.903 655.246 134.167 655.246C145.707 655.246 152.339 647.287 152.339 631.901V592.64H164.409V664H152.339ZM183.557 592.64H195.627V664H183.557V592.64ZM183.557 567.836H195.627V582.427H183.557V567.836ZM268.227 613.464H255.626C253.637 604.975 247.27 601.66 238.781 601.66C231.751 601.66 223.793 604.18 223.793 610.679C223.793 616.382 227.772 618.903 234.669 620.362L244.75 622.351C257.749 624.739 269.156 629.912 269.156 643.574C269.156 657.766 256.422 665.724 240.108 665.724C221.405 665.724 210.927 653.389 209.468 640.921H222.201C224.191 650.073 229.762 655.511 240.373 655.511C249.525 655.511 256.953 651.665 256.953 644.9C256.953 637.605 250.188 634.819 242.495 633.095L231.884 630.973C222.201 628.851 211.59 624.606 211.59 611.21C211.59 598.609 224.324 591.314 240.108 591.314C255.626 591.314 265.972 599.803 268.227 613.464ZM337.915 613.464H325.314C323.324 604.975 316.958 601.66 308.469 601.66C301.439 601.66 293.48 604.18 293.48 610.679C293.48 616.382 297.46 618.903 304.357 620.362L314.437 622.351C327.436 624.739 338.843 629.912 338.843 643.574C338.843 657.766 326.11 665.724 309.795 665.724C291.093 665.724 280.614 653.389 279.155 640.921H291.889C293.878 650.073 299.449 655.511 310.06 655.511C319.212 655.511 326.64 651.665 326.64 644.9C326.64 637.605 319.876 634.819 312.183 633.095L301.571 630.973C291.889 628.851 281.278 624.606 281.278 611.21C281.278 598.609 294.011 591.314 309.795 591.314C325.314 591.314 335.66 599.803 337.915 613.464ZM417.152 632.299H362.239C362.637 647.685 373.779 655.113 384.258 655.113C394.869 655.113 400.705 650.338 403.756 643.308H416.224C413.04 655.511 401.633 665.724 384.258 665.724C361.709 665.724 349.241 649.542 349.241 628.453C349.241 605.771 364.362 591.446 383.86 591.446C405.745 591.446 418.611 609.618 417.152 632.299ZM383.86 601.792C373.248 601.792 363.433 607.628 362.372 621.953H404.419C404.021 611.873 396.726 601.792 383.86 601.792ZM478.081 567.836V664H464.552V567.836H478.081ZM511.163 592.64V603.384C515.275 596.619 522.172 591.446 534.243 591.446C551.486 591.446 557.72 602.588 557.72 618.903V664H545.65V622.484C545.65 611.475 543.793 601.925 529.998 601.925C518.326 601.925 511.163 609.883 511.163 625.269V664H499.093V592.64H511.163ZM579.224 592.64V574.734H591.294V592.64H604.823V602.323H591.294V644.635C591.294 652.062 591.825 653.919 598.722 653.919H604.823V664H596.069C582.407 664 579.224 660.949 579.224 646.094V602.323H567.95V592.64H579.224ZM632.274 567.836V664H620.204V567.836H632.274Z" fill="#161616"/>
<path d="M13.3383 764L31.5364 714.953H39.5192L57.9879 764H50.5463L46.6902 753.379H24.1624L20.374 764H13.3383ZM35.3248 721.921L26.2596 747.493H44.5253L35.3248 721.921ZM71.7157 720.906V734.301H83.2164C94.1082 734.301 100.738 738.766 100.738 748.779C100.738 759.535 93.4317 764 82.8781 764H64.8153V714.953H97.7613V720.906H71.7157ZM71.7157 758.047H82.9458C89.7109 758.047 93.6346 754.799 93.6346 748.846C93.6346 742.284 89.7109 739.984 82.6752 739.984H71.7157V758.047ZM109.938 764V714.953H127.595C136.728 714.953 144.846 717.321 144.846 727.063C144.846 731.731 142.884 735.925 139.434 737.887C144.102 739.849 146.875 743.502 146.875 749.523C146.875 759.941 139.096 764 129.286 764H109.938ZM116.838 741.405V758.182H129.354C136.389 758.182 139.772 755.205 139.772 749.59C139.772 743.84 136.322 741.405 128.948 741.405H116.838ZM116.838 720.771V735.925H128.677C134.36 735.925 137.878 733.76 137.878 728.01C137.878 722.936 134.157 720.771 128.677 720.771H116.838ZM186.762 714.953V720.906H163.084V764H156.184V714.953H186.762ZM230.704 758.047V774.215H224.345V764H190.046V774.215H183.686V758.047H185.784C191.466 758.047 193.428 744.922 193.631 729.295L193.834 714.953H224.751V758.047H230.704ZM217.85 758.047V720.906H200.464L200.329 731.528C200.126 745.058 197.623 753.92 194.578 758.047H217.85ZM239.228 764V714.953H272.512V720.906H246.128V735.79H270.956V741.743H246.128V758.047H272.512V764H239.228ZM282.369 764V714.953H315.653V720.906H289.269V735.79H314.097V741.743H289.269V758.047H315.653V764H282.369ZM288.525 704.535H294.681V711.232H288.525V704.535ZM304.017 704.535H310.241V711.232H304.017V704.535ZM348.984 764V741.675H343.64L328.215 764H320.03L337.619 738.225L321.112 714.953H329.298L343.707 735.722H348.984V714.953H355.885V735.722H361.161L375.571 714.953H383.621L367.182 738.293L384.839 764H376.653L361.364 741.675H355.885V764H348.984ZM416.789 738.09C422.134 739.646 425.449 743.164 425.449 750.132C425.449 760.415 416.451 764.812 406.777 764.812C396.223 764.812 390.135 759.061 388.241 749.929H395.006C396.156 755.882 400.485 758.994 407.251 758.994C414.625 758.994 418.413 755.408 418.413 749.929C418.413 744.449 414.895 741.472 407.318 741.472H401.5V735.857H406.912C412.663 735.857 416.586 733.151 416.586 728.01C416.586 722.665 413.001 719.892 407.115 719.892C401.703 719.892 396.968 723.206 396.223 729.769H389.391C390.676 720.297 397.103 714.074 407.454 714.074C416.316 714.074 423.622 718.877 423.622 727.266C423.622 732.339 421.119 735.925 416.789 738.09ZM468.066 764V725.033L441.682 764H434.781V714.953H441.682V753.852L468.066 714.953H474.966V764H468.066ZM515.498 704.061H520.707C520.166 708.729 516.242 712.247 508.192 712.247C500.344 712.247 496.623 708.729 495.879 704.061H501.088C501.562 706.7 503.93 708.12 508.259 708.12C512.589 708.12 514.957 706.564 515.498 704.061ZM521.248 764V725.033L494.864 764H487.964V714.953H494.864V753.852L521.248 714.953H528.149V764H521.248ZM570.236 764L553.188 741.675H548.047V764H541.147V714.953H548.047V735.722H552.986L569.492 714.953H577.813L558.871 738.157L578.49 764H570.236ZM622.401 764H615.501V720.906H598.182L597.844 729.43C596.964 750.74 593.65 764 583.57 764H581.54V758.047H582.555C589.049 758.047 590.741 744.111 591.282 727.333L591.62 714.953H622.401V764ZM663.159 764H655.852L642.322 721.245V764H635.422V714.953H646.99L659.506 755.814L672.021 714.953H683.589V764H676.689V721.245L663.159 764ZM729.274 714.953H736.174V764H729.274V741.743H703.499V764H696.598V714.953H703.499V735.79H729.274V714.953ZM753.178 739.443C753.178 752.093 760.214 759.061 769.143 759.061C778.073 759.061 785.109 752.093 785.109 739.443C785.109 726.792 778.073 719.892 769.143 719.892C760.214 719.892 753.178 726.792 753.178 739.443ZM792.145 739.443C792.145 754.258 783.283 764.879 769.143 764.879C755.004 764.879 746.142 754.258 746.142 739.443C746.142 724.627 755.004 714.074 769.143 714.074C783.283 714.074 792.145 724.627 792.145 739.443ZM840.395 764H833.495V720.906H809.005V764H802.105V714.953H840.395V764ZM853.372 714.953H868.728C880.702 714.953 889.091 717.659 889.091 729.769C889.091 741.946 880.702 744.584 868.728 744.584H860.272V764H853.372V714.953ZM869.269 720.771H860.272V738.563H869.269C876.508 738.563 882.056 737.819 882.056 729.769C882.056 721.786 876.508 720.771 869.269 720.771ZM53.2523 826.373H59.9497C57.7849 837.197 49.3286 842.879 38.7074 842.879C24.636 842.879 16.4502 832.258 16.4502 817.375C16.4502 802.221 25.4478 792.074 39.2486 792.074C49.3962 792.074 57.5143 798.095 59.6791 808.58H52.9817C51.561 802.424 46.6902 797.892 38.9103 797.892C30.251 797.892 23.4859 804.657 23.4859 817.375C23.4859 829.823 29.9804 837.061 39.1133 837.061C46.9608 837.061 51.6963 832.664 53.2523 826.373ZM77.0612 842V798.906H61.0956V792.953H99.9272V798.906H83.9616V842H77.0612ZM112.525 842.947H107.451V836.994H112.052C114.487 836.994 116.584 836.25 117.937 833.747L118.884 831.988L100.619 792.953H108.06L122.334 824.817L135.459 792.953H143.103L125.041 833.95C122.402 839.632 118.208 842.947 112.525 842.947ZM171.764 790.247V796.336C185.497 796.877 193.615 805.536 193.615 817.443C193.615 828.943 185.497 837.467 171.764 838.009V843.759H164.864V838.009C151.131 837.467 142.945 828.876 142.945 817.172C142.945 805.536 151.131 796.877 164.864 796.336V790.247H171.764ZM164.864 832.258V802.086C156.272 802.627 149.98 807.904 149.98 817.307C149.98 826.373 156.272 831.717 164.864 832.258ZM171.764 802.086V832.258C180.22 831.717 186.58 826.373 186.58 817.307C186.58 808.039 180.22 802.627 171.764 802.086ZM194.836 842L213.034 816.766L196.053 792.953H204.239L217.16 811.084L230.217 792.953H237.997L221.017 816.496L239.215 842H231.097L216.89 822.178L202.616 842H194.836ZM289.855 836.047V852.215H283.495V842H246.693V792.953H253.594V836.047H277.069V792.953H283.969V836.047H289.855ZM332.317 792.953V842H325.417V822.787C321.29 823.667 316.757 824.343 312.766 824.343C301.536 824.343 295.921 819.337 295.921 809.392V792.953H302.821V807.633C302.821 815.819 306.948 818.255 314.796 818.255C317.975 818.255 321.899 817.781 325.417 816.969V792.953H332.317ZM402.697 842H345.329V792.953H352.229V836.047H370.224V792.953H377.125V836.047H395.796V792.953H402.697V842ZM479.01 836.047V852.215H472.515V842H415.688V792.953H422.589V836.047H440.652V792.953H447.484V836.047H466.224V792.953H473.056V836.047H479.01ZM501.186 811.016H507.613C519.79 811.016 528.517 813.857 528.517 826.508C528.517 838.956 519.79 842 507.613 842H494.353V798.906H480.214V792.953H501.186V811.016ZM501.186 836.047H507.951C515.325 836.047 521.278 834.423 521.278 826.508C521.278 818.39 515.325 816.969 507.951 816.969H501.186V836.047ZM584.076 842H577.175V792.953H584.076V842ZM536.72 842V792.953H543.621V811.016H549.506C561.616 811.016 570.41 813.857 570.41 826.508C570.41 838.956 561.616 842 549.506 842H536.72ZM543.621 836.047H549.777C557.151 836.047 563.172 834.423 563.172 826.508C563.172 818.39 557.151 816.969 549.777 816.969H543.621V836.047ZM597.038 842V792.953H603.938V811.016H611.177C623.286 811.016 632.081 813.857 632.081 826.508C632.081 838.956 623.286 842 611.177 842H597.038ZM603.938 836.047H611.448C618.821 836.047 624.842 834.423 624.842 826.508C624.842 818.39 618.821 816.969 611.448 816.969H603.938V836.047ZM636.11 825.696H642.943C644.566 833.476 650.587 837.061 657.894 837.061C666.824 837.061 672.98 830.499 673.724 819.946H650.655V813.993H673.656C672.574 804.048 666.485 797.892 657.961 797.892C650.993 797.892 644.837 801.342 643.213 809.325H636.313C638.343 798.771 646.325 792.074 657.691 792.074C672.371 792.074 681.03 802.492 681.03 817.443C681.03 832.529 672.574 842.879 657.961 842.879C646.461 842.879 637.937 836.317 636.11 825.696ZM730.694 792.074C744.968 792.074 754.507 802.221 754.507 817.443C754.507 832.732 744.968 842.879 730.694 842.879C717.502 842.879 708.64 833.476 707.896 819.675H697.883V842H690.983V792.953H697.883V813.722H708.031C709.316 800.733 717.976 792.074 730.694 792.074ZM730.694 837.061C740.233 837.061 747.471 830.093 747.471 817.443C747.471 804.86 740.233 797.892 730.694 797.892C721.493 797.892 714.796 804.86 714.796 817.443C714.796 830.093 721.493 837.061 730.694 837.061ZM797.282 792.953V842H790.382V823.599H783.211C782.196 823.599 780.64 823.464 780.099 823.464L767.921 842H759.939L773.198 821.84C766.974 819.743 762.645 815.346 762.645 808.039C762.645 796.471 771.439 792.953 783.617 792.953H797.282ZM790.382 798.906H783.143C775.228 798.906 769.68 800.598 769.68 808.242C769.68 815.548 775.566 817.646 783.143 817.646H790.382V798.906Z" fill="#161616"/>
<path d="M47.8402 948.443C47.8402 934.845 42.9694 928.215 35.3248 928.215C27.545 928.215 22.8094 934.845 22.8094 948.443C22.8094 962.176 27.545 968.738 35.3248 968.738C43.1047 968.738 47.8402 962.176 47.8402 948.443ZM54.4024 948.443C54.4024 963.935 48.3814 973.879 35.3248 973.879C22.2682 973.879 16.2472 963.935 16.2472 948.443C16.2472 932.951 22.2682 923.074 35.3248 923.074C48.3814 923.074 54.4024 932.951 54.4024 948.443ZM76.0597 973H69.9034V934.642H58.5381V930.448C65.5061 930.245 69.2269 929.23 71.8653 923.953H76.0597V973ZM103.063 923.074C112.129 923.074 118.623 927.606 118.623 935.927C118.623 947.293 106.784 957.305 93.0511 967.25H119.976V973H84.6624V967.453C101.981 954.667 112.129 945.466 112.129 936.739C112.129 931.598 108.814 928.215 102.928 928.215C97.6514 928.215 92.5776 931.124 92.3746 939.242H86.0154C85.8125 929.5 92.5776 923.074 103.063 923.074ZM141.614 968.738C148.108 968.738 152.709 965.423 152.709 959.267C152.709 952.231 146.417 949.931 138.57 949.931H137.555V944.316H138.367C146.958 944.316 151.423 941.948 151.423 936.198C151.423 930.989 147.094 928.215 141.885 928.215C135.322 928.215 131.737 932.139 131.196 937.754H124.837C125.581 929.095 131.737 923.074 142.02 923.074C150.476 923.074 157.918 926.524 157.918 935.521C157.918 940.595 155.076 944.79 149.935 946.887C157.241 949.255 159.271 953.99 159.271 959.199C159.271 969.076 150.95 973.879 141.546 973.879C129.91 973.879 124.837 966.708 124.092 958.523H130.452C131.196 964.544 134.646 968.738 141.614 968.738ZM187.746 932.409L170.224 955.073H187.746V932.409ZM202.968 955.073V960.89H193.97V973H187.746V960.89H163.392V955.073L187.678 923.953H193.97V955.073H202.968ZM224.888 968.738C230.774 968.738 235.847 964.476 235.847 956.899C235.847 948.781 230.165 945.263 224.82 945.263C219.747 945.263 216.432 948.24 215.349 950.675L209.193 950.337L212.373 923.953H240.515V929.703H217.379L215.687 943.639C218.326 941.136 222.182 939.919 226.241 939.919C234.833 939.919 242.342 946.007 242.342 956.831C242.342 968.061 234.021 973.879 224.888 973.879C213.59 973.879 208.314 966.708 207.434 958.793H213.793C214.808 965.017 218.055 968.738 224.888 968.738ZM255.901 957.305C255.901 964.07 260.095 968.738 266.59 968.738C272.813 968.738 277.346 964.002 277.346 957.305C277.346 950.608 272.949 945.669 266.657 945.669C260.23 945.669 255.901 950.608 255.901 957.305ZM267.198 928.215C259.554 928.215 255.495 935.792 255.157 947.157C257.389 943.301 261.583 940.325 268.078 940.325C277.211 940.325 283.908 947.157 283.908 956.967C283.908 966.1 277.143 973.879 266.657 973.879C254.412 973.879 248.797 965.355 248.797 950.202C248.797 936.401 253.668 923.074 267.943 923.074C277.549 923.074 282.014 929.095 283.096 935.318H276.399C275.587 930.921 272.272 928.215 267.198 928.215ZM287.915 929.703V923.953H321.876V929.703C309.699 939.513 302.257 954.599 301.107 973H293.666C294.748 955.343 302.46 940.325 314.705 929.703H287.915ZM343.03 923.074C353.043 923.074 359.402 928.35 359.402 935.589C359.402 939.648 357.508 944.181 352.637 946.887C358.928 949.39 360.89 954.734 360.89 959.199C360.89 968.603 353.043 973.879 343.03 973.879C332.95 973.879 325.103 968.603 325.103 959.199C325.103 954.802 326.997 949.39 333.424 946.887C328.553 944.181 326.659 939.648 326.659 935.589C326.659 928.35 333.018 923.074 343.03 923.074ZM343.03 949.457C335.995 949.457 331.665 953.449 331.665 959.199C331.665 964.95 335.995 968.738 343.03 968.738C349.998 968.738 354.396 964.95 354.396 959.199C354.396 953.449 349.998 949.457 343.03 949.457ZM353.178 936.333C353.178 931.462 349.187 928.215 343.03 928.215C336.806 928.215 332.815 931.462 332.815 936.333C332.815 941.272 336.874 944.925 343.03 944.925C349.187 944.925 353.178 941.272 353.178 936.333ZM394.985 939.648C394.985 932.883 390.858 928.215 384.363 928.215C378.004 928.215 373.607 932.951 373.607 939.648C373.607 946.346 378.004 951.216 384.296 951.216C390.723 951.216 394.985 946.346 394.985 939.648ZM383.687 968.738C391.264 968.738 395.458 961.161 395.796 949.796C393.564 953.652 389.302 956.628 382.807 956.628C373.742 956.628 367.045 949.863 367.045 939.919C367.045 930.853 373.81 923.074 384.296 923.074C396.541 923.074 402.156 931.598 402.156 946.751C402.156 960.552 397.082 973.879 383.01 973.879C373.404 973.879 368.939 967.859 367.857 961.635H374.554C375.366 966.032 378.613 968.738 383.687 968.738Z" fill="#161616"/>
</svg>
