<svg width="1436" height="332" viewBox="0 0 1436 332" fill="none" xmlns="http://www.w3.org/2000/svg">
<path d="M33.1952 254.117H64.9091L176.484 60.9505H144.77L146.5 58.0674H293.249L258.075 118.9V60.9505H208.198L155.149 152.921H214.829L213.099 155.804H153.42L96.623 254.117H157.456L155.726 257H31.4653L33.1952 254.117ZM400.383 147.443L386.544 171.661C378.471 248.927 323.693 259.883 295.15 259.883C253.922 259.883 241.813 242.585 241.813 217.213C241.813 148.019 327.152 55.1843 398.941 55.1843C420.564 55.1843 433.538 60.6621 441.611 68.7348L447.665 58.0674H451.99L406.437 137.064L408.744 127.261C421.717 71.9062 414.221 58.0674 397.211 58.0674C338.973 58.0674 266.896 178.58 266.896 236.242C266.896 247.774 270.932 256.423 296.592 256.423C322.828 256.423 373.282 244.603 381.931 173.391H317.35L332.342 147.443H400.383ZM407.552 254.117H439.266L550.841 60.9505H513.361L441.284 118.9L476.458 58.0674H653.191L618.017 118.9V60.9505H582.555L470.98 254.117H502.694L500.964 257H405.822L407.552 254.117ZM613.011 159.27H632.04L652.625 123.462H587.583L720.089 39.9106L680.821 107.894H702.791L693.795 123.462H671.826L651.068 159.27H670.096L669.058 161H611.973L613.011 159.27ZM616.125 107.894H661.62L687.914 62.5716L616.125 107.894Z" fill="#E4E5E0"/>
<path d="M6.6275 277.46C9.56826 277.46 11.6751 278.931 11.6751 281.63C11.6751 285.317 7.83453 288.565 3.3795 291.791H12.114V293.656H0.658203V291.857C6.27637 287.709 9.56826 284.724 9.56826 281.893C9.56826 280.225 8.49291 279.128 6.58361 279.128C4.87183 279.128 3.22588 280.072 3.16004 282.705H1.09712C1.03128 279.545 3.22588 277.46 6.6275 277.46ZM19.1333 292.274C21.2401 292.274 22.7324 291.198 22.7324 289.201C22.7324 286.919 20.6914 286.173 18.1457 286.173H17.8165V284.351H18.0798C20.867 284.351 22.3154 283.583 22.3154 281.718C22.3154 280.028 20.9109 279.128 19.221 279.128C17.0923 279.128 15.9291 280.401 15.7536 282.222H13.6907C13.9321 279.413 15.9291 277.46 19.2649 277.46C22.0082 277.46 24.4222 278.579 24.4222 281.498C24.4222 283.144 23.5005 284.505 21.8326 285.185C24.2028 285.953 24.8612 287.489 24.8612 289.179C24.8612 292.383 22.1618 293.942 19.1113 293.942C15.3366 293.942 13.6907 291.615 13.4492 288.96H15.5122C15.7536 290.913 16.8728 292.274 19.1333 292.274ZM27.405 281.849H29.4021V283.715C30.1263 282.464 31.3553 281.652 33.2646 281.652C35.9859 281.652 38.3121 283.934 38.3121 287.797C38.3121 291.725 35.9859 293.942 33.2646 293.942C31.3553 293.942 30.1263 293.13 29.4021 291.879V297.497H27.405V281.849ZM29.3143 287.797C29.3143 290.913 30.9822 292.23 32.7598 292.23C34.8008 292.23 36.1395 290.628 36.1395 287.797C36.1395 284.966 34.8008 283.364 32.7598 283.364C30.9822 283.364 29.3143 284.68 29.3143 287.797ZM41.1132 281.849V278.887H43.1103V281.849H45.3487V283.451H43.1103V290.452C43.1103 291.681 43.198 291.988 44.3392 291.988H45.3487V293.656H43.9003C41.6399 293.656 41.1132 293.151 41.1132 290.694V283.451H39.2478V281.849H41.1132Z" fill="#E4E5E0"/>
<path d="M55.2285 13.5918V302.734" stroke="#E4E5E0" stroke-width="2.4713"/>
<path d="M652.047 13.5918V302.734" stroke="#E4E5E0" stroke-width="2.4713"/>
<path d="M401.067 13.5918V302.734" stroke="#E4E5E0" stroke-width="2.4713" stroke-dasharray="4.94 4.94"/>
<path d="M159.241 13.5918V302.734" stroke="#E4E5E0" stroke-width="2.4713" stroke-dasharray="4.94 4.94"/>
<path d="M470.435 13.5918V302.734" stroke="#E4E5E0" stroke-width="2.4713" stroke-dasharray="4.94 4.94"/>
<path d="M587.013 13.5918V302.734" stroke="#E4E5E0" stroke-width="2.4713" stroke-dasharray="4.94 4.94"/>
<path d="M243.061 13.5918V302.734" stroke="#E4E5E0" stroke-width="2.4713" stroke-dasharray="4.94 4.94"/>
<path d="M14.4517 48.1899L679.231 48.19" stroke="#E4E5E0" stroke-width="2.4713"/>
<path d="M14.4517 265.665H679.231" stroke="#E4E5E0" stroke-width="2.4713"/>
<g opacity="0.4">
<path d="M1354.26 174.568L1368.25 136.868H1374.38L1388.58 174.568H1382.86L1379.9 166.404H1362.58L1359.67 174.568H1354.26ZM1371.16 142.224L1364.19 161.88H1378.23L1371.16 142.224ZM1410.21 162.868V161.1C1401.63 161.932 1396.17 163.232 1396.17 167.08C1396.17 169.732 1398.2 171.5 1401.58 171.5C1406 171.5 1410.21 169.472 1410.21 162.868ZM1400.54 175.244C1395.28 175.244 1390.92 172.332 1390.92 167.184C1390.92 160.58 1398.4 158.604 1409.84 157.356V156.68C1409.84 151.532 1407.04 149.868 1403.5 149.868C1399.55 149.868 1397.31 151.948 1397.1 155.432H1392.22C1392.63 149.4 1398.04 146.02 1403.45 146.02C1411.2 146.02 1414.63 149.66 1414.58 157.564L1414.52 164.012C1414.47 168.744 1414.68 171.916 1415.25 174.568H1410.47C1410.31 173.528 1410.16 172.384 1410.1 170.72C1408.39 173.632 1405.53 175.244 1400.54 175.244Z" fill="#E4E5E0"/>
<path d="M1354 159.488H1417.9V163.128H1354V159.488Z" fill="#E4E5E0"/>
</g>
<path d="M1066.26 174.707L1080.25 137.007H1086.38L1100.58 174.707H1094.86L1091.9 166.543H1074.58L1071.67 174.707H1066.26ZM1083.16 142.363L1076.19 162.019H1090.23L1083.16 142.363ZM1101.1 174.707L1115.08 137.007H1121.22L1135.42 174.707H1129.7L1126.73 166.543H1109.42L1106.5 174.707H1101.1ZM1118 142.363L1111.03 162.019H1125.07L1118 142.363Z" fill="#E4E5E0"/>
<path opacity="0.4" d="M985.85 173.762L999.838 136.062H1005.97L1020.17 173.762H1014.45L1011.49 165.598H994.17L991.258 173.762H985.85ZM1002.75 141.418L995.782 161.074H1009.82L1002.75 141.418ZM1041.39 162.062V160.294C1032.81 161.126 1027.35 162.426 1027.35 166.274C1027.35 168.926 1029.38 170.694 1032.76 170.694C1037.18 170.694 1041.39 168.666 1041.39 162.062ZM1031.72 174.438C1026.47 174.438 1022.1 171.526 1022.1 166.378C1022.1 159.774 1029.59 157.798 1041.03 156.55V155.874C1041.03 150.726 1038.22 149.062 1034.68 149.062C1030.73 149.062 1028.5 151.142 1028.29 154.626H1023.4C1023.82 148.594 1029.22 145.214 1034.63 145.214C1042.38 145.214 1045.81 148.854 1045.76 156.758L1045.71 163.206C1045.66 167.938 1045.86 171.11 1046.44 173.762H1041.65C1041.5 172.722 1041.34 171.578 1041.29 169.914C1039.57 172.826 1036.71 174.438 1031.72 174.438Z" fill="#E4E5E0"/>
<path opacity="0.4" d="M1169.37 161.269V159.501C1160.79 160.333 1155.33 161.633 1155.33 165.481C1155.33 168.133 1157.36 169.901 1160.74 169.901C1165.16 169.901 1169.37 167.873 1169.37 161.269ZM1159.7 173.645C1154.45 173.645 1150.08 170.733 1150.08 165.585C1150.08 158.981 1157.57 157.005 1169.01 155.757V155.081C1169.01 149.933 1166.2 148.269 1162.66 148.269C1158.71 148.269 1156.48 150.349 1156.27 153.833H1151.38C1151.8 147.801 1157.2 144.421 1162.61 144.421C1170.36 144.421 1173.79 148.061 1173.74 155.965L1173.69 162.413C1173.64 167.145 1173.84 170.317 1174.42 172.969H1169.63C1169.48 171.929 1169.32 170.785 1169.27 169.121C1167.55 172.033 1164.69 173.645 1159.7 173.645ZM1198.42 161.269V159.501C1189.84 160.333 1184.38 161.633 1184.38 165.481C1184.38 168.133 1186.41 169.901 1189.79 169.901C1194.21 169.901 1198.42 167.873 1198.42 161.269ZM1188.75 173.645C1183.5 173.645 1179.13 170.733 1179.13 165.585C1179.13 158.981 1186.62 157.005 1198.06 155.757V155.081C1198.06 149.933 1195.25 148.269 1191.71 148.269C1187.76 148.269 1185.52 150.349 1185.32 153.833H1180.43C1180.84 147.801 1186.25 144.421 1191.66 144.421C1199.41 144.421 1202.84 148.061 1202.79 155.965L1202.74 162.413C1202.68 167.145 1202.89 170.317 1203.46 172.969H1198.68C1198.52 171.929 1198.37 170.785 1198.32 169.121C1196.6 172.033 1193.74 173.645 1188.75 173.645Z" fill="#E4E5E0"/>
<g opacity="0.4">
<path d="M1261.26 172.568L1275.25 134.868H1281.38L1295.58 172.568H1289.86L1286.9 164.404H1269.58L1266.67 172.568H1261.26ZM1278.16 140.224L1271.19 159.88H1285.23L1278.16 140.224ZM1317.21 160.868V159.1C1308.63 159.932 1303.17 161.232 1303.17 165.08C1303.17 167.732 1305.2 169.5 1308.58 169.5C1313 169.5 1317.21 167.472 1317.21 160.868ZM1307.54 173.244C1302.28 173.244 1297.92 170.332 1297.92 165.184C1297.92 158.58 1305.4 156.604 1316.84 155.356V154.68C1316.84 149.532 1314.04 147.868 1310.5 147.868C1306.55 147.868 1304.31 149.948 1304.1 153.432H1299.22C1299.63 147.4 1305.04 144.02 1310.45 144.02C1318.2 144.02 1321.63 147.66 1321.58 155.564L1321.52 162.012C1321.47 166.744 1321.68 169.916 1322.25 172.568H1317.47C1317.31 171.528 1317.16 170.384 1317.1 168.72C1315.39 171.632 1312.53 173.244 1307.54 173.244Z" fill="#E4E5E0"/>
<path d="M1261 178.288H1324.9V181.928H1261V178.288Z" fill="#E4E5E0"/>
</g>
<path d="M1216.65 120.568H978.355C974.845 120.568 972 123.413 972 126.923V187.213C972 190.723 974.845 193.568 978.355 193.568H1216.65C1220.15 193.568 1223 190.723 1223 187.213V126.923C1223 123.413 1220.15 120.568 1216.65 120.568Z" stroke="#E4E5E0" stroke-width="2"/>
<path d="M1428.65 120.568H1245.35C1241.85 120.568 1239 123.413 1239 126.923V187.213C1239 190.723 1241.85 193.568 1245.35 193.568H1428.65C1432.15 193.568 1435 190.723 1435 187.213V126.923C1435 123.413 1432.15 120.568 1428.65 120.568Z" stroke="#E4E5E0" stroke-width="2"/>
<path d="M1031.17 74.9999H1025.59L1021.84 63.7923H1007.03L1002.97 74.9999H997.807L1011.88 37.624H1017.62L1031.17 74.9999ZM1008.49 59.6742H1020.17L1014.49 43.1496L1008.49 59.6742Z" fill="#E4E5E0"/>
<path d="M993.297 74.0694H989.655L987.204 66.7505H977.536L974.881 74.0694H971.511L980.702 49.6616H984.447L993.297 74.0694ZM978.489 64.0612H986.115L982.404 53.27L978.489 64.0612Z" fill="#E4E5E0"/>
<path d="M1054 59.5685L1436 59.5684" stroke="#E4E5E0" stroke-width="2"/>
<path d="M1323 72.0684C1329.9 72.0684 1335.5 66.4719 1335.5 59.5684C1335.5 52.6648 1329.9 47.0684 1323 47.0684C1316.1 47.0684 1310.5 52.6648 1310.5 59.5684C1310.5 66.4719 1316.1 72.0684 1323 72.0684Z" fill="black" stroke="#E4E5E0" stroke-width="3"/>
</svg>
