<svg width="1664" height="215" viewBox="0 0 1664 215" fill="none" xmlns="http://www.w3.org/2000/svg">
<path d="M40.5194 39.229L12.6462 35.8739V19.8726H93.1689L123.881 130.849L131.107 161.045L137.301 130.849L167.756 19.8726H247.504V35.8739L219.373 39.229L240.019 193.306L260.924 196.145V211.63H178.595V196.145L201.307 193.564L189.951 80.5227L185.047 33.293L175.498 73.0382L138.076 203.629H110.719L72.522 79.7484L59.3597 33.293L55.4884 80.5227L45.6811 193.564L71.7478 196.145V211.63H0V196.145L21.6792 193.564L40.5194 39.229Z" fill="#EDEEEA"/>
<path d="M327.924 214.469C305.212 214.469 288.265 207.845 277.081 194.596C266.069 181.176 260.563 162.938 260.563 139.882C260.563 124.397 263.402 110.977 269.08 99.621C274.93 88.2652 283.103 79.5764 293.598 73.5544C304.094 67.5324 316.224 64.5214 329.988 64.5214C347.194 64.5214 360.443 69.0809 369.734 78.1999C379.025 87.1469 383.842 99.9651 384.186 116.655C384.186 128.01 383.498 136.441 382.122 141.947H298.244C298.932 157.604 302.631 169.82 309.342 178.595C316.052 187.198 325.601 191.499 337.989 191.499C344.699 191.499 351.582 190.381 358.636 188.144C365.862 185.908 371.54 183.241 375.67 180.144L382.122 194.338C377.476 199.328 369.906 203.974 359.41 208.275C349.087 212.404 338.591 214.469 327.924 214.469ZM348.054 126.462C348.399 121.644 348.571 117.945 348.571 115.364C348.571 92.4806 340.914 81.0388 325.601 81.0388C317.17 81.0388 310.632 84.394 305.987 91.1042C301.341 97.8144 298.76 109.6 298.244 126.462H348.054Z" fill="#EDEEEA"/>
<path d="M394.459 196.403L411.493 194.338V92.6527L394.976 88.0071V70.1993L434.979 64.7795H435.753L442.205 69.9412V75.619L441.431 96.524H442.205C443.41 93.0828 446.249 88.8674 450.722 83.8778C455.196 78.7161 460.787 74.2426 467.498 70.4573C474.38 66.5 481.778 64.5214 489.693 64.5214C493.478 64.5214 496.747 65.0375 499.5 66.0699V104.783C494.339 101.17 488.058 99.3629 480.66 99.3629C468.1 99.3629 457.174 102.718 447.883 109.428V194.08L477.821 196.403V211.63H394.459V196.403Z" fill="#EDEEEA"/>
<path d="M505.618 196.403L522.651 194.338V92.6527L506.134 88.0071V70.1993L546.137 64.7795H546.911L553.363 69.9412V75.619L552.589 96.524H553.363C554.568 93.0828 557.407 88.8674 561.88 83.8778C566.354 78.7161 571.946 74.2426 578.656 70.4573C585.538 66.5 592.937 64.5214 600.851 64.5214C604.636 64.5214 607.906 65.0375 610.658 66.0699V104.783C605.497 101.17 599.217 99.3629 591.818 99.3629C579.258 99.3629 568.332 102.718 559.041 109.428V194.08L588.979 196.403V211.63H505.618V196.403Z" fill="#EDEEEA"/>
<path d="M647.488 44.6488C641.294 44.6488 636.39 42.8422 632.777 39.229C629.164 35.6158 627.357 30.9703 627.357 25.2924C627.357 18.7542 629.422 13.3344 633.551 9.033C637.681 4.73157 643.187 2.58085 650.069 2.58085C656.951 2.58085 662.199 4.47348 665.812 8.25874C669.425 11.8719 671.232 16.4315 671.232 21.9373C671.232 28.8195 669.167 34.3254 665.038 38.4548C660.908 42.5841 655.145 44.6488 647.746 44.6488H647.488ZM633.81 92.6527L615.485 87.7491V70.4573L662.715 64.7795H663.231L670.458 69.9412V194.08L687.749 196.145V211.63H615.744V196.145L633.81 193.822V92.6527Z" fill="#EDEEEA"/>
<path d="M680.698 68.3927H747.284V83.1035L729.219 86.2005L748.317 154.851L754.511 182.983L760.189 154.593L783.416 68.3927H814.645L840.195 154.593L846.389 182.983L852.583 154.851L870.649 86.4586L851.809 83.1035V68.3927H907.039V83.1035L893.877 85.9425L854.648 213.695H824.968L798.902 130.075L792.966 99.3629L788.32 130.075L764.318 213.695H734.38L693.087 85.9425L680.698 83.1035V68.3927Z" fill="#EDEEEA"/>
<path d="M967.391 214.469C944.68 214.469 927.732 207.845 916.548 194.596C905.537 181.176 900.031 162.938 900.031 139.882C900.031 124.397 902.87 110.977 908.548 99.621C914.398 88.2652 922.57 79.5764 933.066 73.5544C943.561 67.5324 955.691 64.5214 969.456 64.5214C986.661 64.5214 999.91 69.0809 1009.2 78.1999C1018.49 87.1469 1023.31 99.9651 1023.65 116.655C1023.65 128.01 1022.97 136.441 1021.59 141.947H937.711C938.4 157.604 942.099 169.82 948.809 178.595C955.519 187.198 965.068 191.499 977.456 191.499C984.167 191.499 991.049 190.381 998.103 188.144C1005.33 185.908 1011.01 183.241 1015.14 180.144L1021.59 194.338C1016.94 199.328 1009.37 203.974 998.877 208.275C988.554 212.404 978.059 214.469 967.391 214.469ZM987.522 126.462C987.866 121.644 988.038 117.945 988.038 115.364C988.038 92.4806 980.381 81.0388 965.068 81.0388C956.637 81.0388 950.099 84.394 945.454 91.1042C940.808 97.8144 938.227 109.6 937.711 126.462H987.522Z" fill="#EDEEEA"/>
<path d="M1031.09 171.369C1031.09 155.712 1038.92 143.926 1054.57 136.011C1070.4 128.096 1090.79 124.053 1115.74 123.881V117.945C1115.74 110.891 1114.97 105.385 1113.42 101.428C1112.04 97.4703 1109.37 94.5453 1105.42 92.6527C1101.63 90.588 1096.04 89.5557 1088.64 89.5557C1080.21 89.5557 1072.64 90.674 1065.93 92.9108C1059.22 94.9755 1052.25 97.7284 1045.02 101.17L1037.02 84.652C1039.6 82.4153 1043.91 79.7484 1049.93 76.6514C1056.12 73.5544 1063.43 70.8875 1071.87 68.6507C1080.3 66.2419 1088.98 65.0375 1097.93 65.0375C1111.18 65.0375 1121.5 66.7581 1128.9 70.1993C1136.47 73.6404 1141.89 79.1462 1145.16 86.7167C1148.43 94.2872 1150.07 104.439 1150.07 117.171V196.145H1164V210.598C1160.56 211.458 1155.66 212.318 1149.29 213.179C1142.92 214.039 1137.33 214.469 1132.52 214.469C1126.67 214.469 1122.71 213.609 1120.64 211.888C1118.75 210.168 1117.8 206.64 1117.8 201.307V194.338C1113.16 199.5 1107.14 204.146 1099.74 208.275C1092.34 212.404 1084 214.469 1074.7 214.469C1066.79 214.469 1059.48 212.834 1052.77 209.565C1046.23 206.124 1040.98 201.221 1037.02 194.855C1033.07 188.316 1031.09 180.488 1031.09 171.369ZM1091.22 193.048C1094.83 193.048 1098.96 192.016 1103.61 189.951C1108.26 187.714 1112.3 185.047 1115.74 181.95V139.624C1100.25 139.624 1088.64 142.291 1080.9 147.625C1073.33 152.787 1069.54 159.497 1069.54 167.756C1069.54 176.014 1071.44 182.294 1075.22 186.596C1079.18 190.897 1084.51 193.048 1091.22 193.048Z" fill="#EDEEEA"/>
<path d="M1213.14 213.953C1202.3 213.953 1194.3 211.458 1189.14 206.468C1183.98 201.479 1181.4 193.564 1181.4 182.725V88.0071H1164.62V74.5867C1166 74.0705 1168.49 73.2103 1172.11 72.0059C1175.72 70.6294 1178.47 69.511 1180.37 68.6507C1183.29 66.414 1185.79 62.5427 1187.85 57.0369C1189.4 53.4237 1192.24 44.4767 1196.37 30.196H1217.01L1218.05 68.1346H1257.53V88.0071H1218.3V160.529C1218.3 170.164 1218.56 176.961 1219.08 180.918C1219.59 184.875 1220.71 187.456 1222.43 188.66C1224.15 189.693 1227.17 190.209 1231.47 190.209C1235.77 190.209 1240.24 189.779 1244.89 188.919C1249.53 187.886 1253.4 186.682 1256.5 185.305L1261.4 199.758C1256.59 203.371 1249.53 206.64 1240.24 209.565C1230.95 212.49 1221.92 213.953 1213.14 213.953Z" fill="#EDEEEA"/>
<path d="M1276.94 22.9696L1257.33 19.6145V5.67789L1305.33 0H1306.11L1312.82 4.90362L1313.07 62.4567L1311.27 84.9101C1316.6 80.0925 1323.83 75.619 1332.95 71.4897C1342.24 67.3603 1351.96 65.2956 1362.11 65.2956C1372.95 65.2956 1381.38 67.3603 1387.4 71.4897C1393.43 75.447 1397.64 81.555 1400.05 89.8137C1402.46 98.0725 1403.66 109.084 1403.66 122.849V193.822L1420.18 196.145V211.63H1352.3V196.145L1367.27 193.822V122.849C1367.27 113.902 1366.67 106.933 1365.47 101.944C1364.26 96.9541 1362.02 93.2549 1358.76 90.8461C1355.66 88.4373 1351.01 87.2329 1344.82 87.2329C1339.49 87.2329 1333.98 88.5233 1328.3 91.1042C1322.8 93.513 1317.89 96.4379 1313.59 99.8791V193.822L1329.33 196.145V211.63H1262.49V196.145L1276.94 194.08V22.9696Z" fill="#EDEEEA"/>
<path d="M1492.42 214.469C1469.71 214.469 1452.76 207.845 1441.58 194.596C1430.57 181.176 1425.06 162.938 1425.06 139.882C1425.06 124.397 1427.9 110.977 1433.58 99.621C1439.43 88.2652 1447.6 79.5764 1458.1 73.5544C1468.59 67.5324 1480.72 64.5214 1494.49 64.5214C1511.69 64.5214 1524.94 69.0809 1534.23 78.1999C1543.52 87.1469 1548.34 99.9651 1548.69 116.655C1548.69 128.01 1548 136.441 1546.62 141.947H1462.74C1463.43 157.604 1467.13 169.82 1473.84 178.595C1480.55 187.198 1490.1 191.499 1502.49 191.499C1509.2 191.499 1516.08 190.381 1523.14 188.144C1530.36 185.908 1536.04 183.241 1540.17 180.144L1546.62 194.338C1541.98 199.328 1534.41 203.974 1523.91 208.275C1513.59 212.404 1503.09 214.469 1492.42 214.469ZM1512.55 126.462C1512.9 121.644 1513.07 117.945 1513.07 115.364C1513.07 92.4806 1505.41 81.0388 1490.1 81.0388C1481.67 81.0388 1475.13 84.394 1470.49 91.1042C1465.84 97.8144 1463.26 109.6 1462.74 126.462H1512.55Z" fill="#EDEEEA"/>
<path d="M1558.96 196.403L1575.99 194.338V92.6527L1559.48 88.0071V70.1993L1599.48 64.7795H1600.25L1606.71 69.9412V75.619L1605.93 96.524H1606.71C1607.91 93.0828 1610.75 88.8674 1615.22 83.8778C1619.7 78.7161 1625.29 74.2426 1632 70.4573C1638.88 66.5 1646.28 64.5214 1654.19 64.5214C1657.98 64.5214 1661.25 65.0375 1664 66.0699V104.783C1658.84 101.17 1652.56 99.3629 1645.16 99.3629C1632.6 99.3629 1621.67 102.718 1612.38 109.428V194.08L1642.32 196.403V211.63H1558.96V196.403Z" fill="#EDEEEA"/>
</svg>
