<svg width="903" height="488" viewBox="0 0 903 488" fill="none" xmlns="http://www.w3.org/2000/svg">
<path d="M354 329C354 416.813 425.187 488 513 488H769V329H354Z" fill="#5552FF"/>
<path d="M489 329H903V169H489V329Z" fill="#5552FF"/>
<path d="M178 169H514C559.287 169 596 132.287 596 87V63H178V169Z" fill="#5552FF"/>
<path d="M1.20187 297.402H18.7754L80.6023 190.364H63.0288L63.9873 188.766H157.766L156.808 190.364H139.234L91.1464 229.345V297.402H108.72L107.761 299H0.24331L1.20187 297.402ZM75.1705 239.57L135.719 190.364H96.5782L34.7513 297.402H75.1705V239.57ZM139.459 300.598C122.684 300.598 117.891 291.012 117.891 276.953C117.891 238.611 165.18 187.168 204.96 187.168C222.214 187.168 226.208 198.671 226.208 213.369C226.208 253.788 178.759 300.598 139.459 300.598ZM140.257 299C172.529 299 212.469 235.735 212.469 200.269C212.469 192.281 211.35 188.766 204.001 188.766C171.73 188.766 131.79 255.545 131.79 287.497C131.79 294.047 132.909 299 140.257 299ZM195.125 297.402H212.698L274.525 190.364H256.952L257.91 188.766H368.304L367.345 190.364H349.612L287.785 297.402H305.359L304.4 299H194.166L195.125 297.402ZM262.703 241.327H302.643L332.039 190.364H292.099L262.703 241.327ZM230.272 297.402H270.212L301.684 242.924H261.744L230.272 297.402ZM335.636 297.402H353.209L415.036 190.364H394.267L354.328 222.475L373.818 188.766H471.751L452.26 222.475V190.364H432.61L370.783 297.402H388.356L387.398 299H334.677L335.636 297.402ZM415.266 297.402H432.839L494.666 190.364H477.093L478.051 188.766H560.966L541.476 222.475V190.364H512.24L482.844 241.327H517.512L516.553 242.924H481.885L450.413 297.402H485.081L525.02 265.291L505.53 299H414.307L415.266 297.402ZM514.803 297.402H532.377L594.204 190.364H576.63L577.589 188.766H671.368L670.409 190.364H652.835L604.748 229.345V297.402H622.321L621.363 299H513.845L514.803 297.402ZM588.772 239.57L649.321 190.364H610.18L548.353 297.402H588.772V239.57ZM709.775 240.528H712.171C712.171 293.568 678.142 300.598 661.048 300.598C638.203 300.598 631.493 291.012 631.493 276.953C631.493 238.611 678.781 187.168 718.561 187.168C730.543 187.168 737.733 190.204 742.206 194.677L745.561 188.766H747.957L722.715 232.54L723.993 227.108C731.182 196.434 727.029 188.766 717.603 188.766C685.332 188.766 645.392 255.545 645.392 287.497C645.392 293.888 647.628 298.68 661.847 298.68C677.823 298.68 709.775 290.693 709.775 240.528ZM723.333 297.402H740.907L802.733 190.364H781.965L742.025 222.475L761.516 188.766H859.448L839.957 222.475V190.364H820.307L758.48 297.402H776.054L775.095 299H722.374L723.333 297.402Z" fill="#161616"/>
<path d="M751.614 98H743.013V44.4093H727.134V38.5493C736.869 38.2657 742.068 36.848 745.754 29.4757H751.614V98Z" fill="#161616"/>
</svg>
