<svg width="1664" height="395" viewBox="0 0 1664 395" fill="none" xmlns="http://www.w3.org/2000/svg">
<path d="M0 1.71933H187.264C236.934 1.71933 276.813 7.54597 306.901 19.1992C337.085 30.8525 352.177 52.0099 352.177 82.6713C352.177 102.635 344.917 118.968 330.399 131.672C315.975 144.376 299.642 153.594 281.398 159.325C263.154 164.961 245.435 168.972 228.242 171.36L228.815 174.799C319.271 192.565 364.499 228.767 364.499 283.404C364.499 313.969 355.042 336.846 336.13 352.034C317.217 367.221 296.346 376.725 273.517 380.546C250.784 384.271 227.286 386.134 203.025 386.134H0V373.239H49.2876V14.6143H0V1.71933ZM139.696 373.239H177.235C207.419 373.239 229.053 367.603 242.14 356.332C255.226 345.061 261.769 325.862 261.769 298.734V257.614C261.769 204.41 236.122 177.808 184.828 177.808H139.696V373.239ZM139.696 164.913H181.39C211 164.913 230.2 158.179 238.987 144.711C247.871 131.147 252.312 118.682 252.312 107.315V68.6301C252.312 32.6196 228.671 14.6143 181.39 14.6143H139.696V164.913Z" fill="#EDEEEA"/>
<path d="M384.867 258.187C384.867 233.256 391.124 210.284 403.637 189.27C416.245 168.16 432.817 151.588 453.354 139.553C473.986 127.517 495.573 121.5 518.116 121.5C540.276 121.5 561.72 127.613 582.447 139.839C603.175 151.97 619.938 168.542 632.738 189.557C645.537 210.571 651.937 233.447 651.937 258.187C651.937 276.908 648.26 294.579 640.905 311.199C633.55 327.724 623.52 342.243 610.816 354.756C598.208 367.173 583.832 376.868 567.69 383.841C551.547 390.814 535.022 394.301 518.116 394.301C496.051 394.301 474.655 388.235 453.927 376.104C433.295 363.973 416.627 347.496 403.923 326.673C391.219 305.755 384.867 282.926 384.867 258.187ZM475.275 204.171V312.202C475.275 327.199 476.374 339.807 478.571 350.028C480.863 360.153 485.114 368.128 491.323 373.955C497.627 379.686 506.558 382.552 518.116 382.552C535.213 382.552 546.723 376.582 552.645 364.642C558.568 352.607 561.529 335.127 561.529 312.202V204.171C561.529 180.96 558.568 163.337 552.645 151.301C546.723 139.266 535.213 133.248 518.116 133.248C501.209 133.248 489.842 139.266 484.015 151.301C478.189 163.241 475.275 180.864 475.275 204.171Z" fill="#EDEEEA"/>
<path d="M843.809 386.134V346.159C835.881 365.263 825.804 378.062 813.577 384.558C801.351 391.053 786.593 394.301 769.305 394.301C752.398 394.301 736.828 390.719 722.596 383.555C708.364 376.295 696.09 366.266 685.774 353.466C675.553 340.571 667.721 325.909 662.276 309.48C656.927 292.955 654.252 275.667 654.252 257.614C654.252 227.812 661.13 202.643 674.884 182.106C688.735 161.474 705.785 146.239 726.035 136.4C746.285 126.467 765.77 121.5 784.492 121.5C797.196 121.5 809.279 125.893 820.741 134.681C832.299 143.469 839.988 153.737 843.809 165.486V19.9156H813.864V8.16684H876.62C895.628 8.16684 912.105 5.44456 926.05 0V374.385H954.706V386.134H843.809ZM744.661 209.472V297.588C744.661 327.199 748.959 348.404 757.556 361.203C766.152 373.907 776.516 380.259 788.647 380.259C802.688 380.259 813.625 374.624 821.458 363.353C829.29 352.081 834.639 337.849 837.505 320.656C840.466 303.462 842.185 283.021 842.663 259.333V225.376C840.752 167.874 822.938 139.123 789.22 139.123C783.011 139.123 776.468 141.224 769.591 145.427C762.809 149.63 756.935 157.032 751.968 167.635C747.096 178.238 744.661 192.183 744.661 209.472Z" fill="#EDEEEA"/>
<path d="M954.013 258.187C954.013 233.256 960.269 210.284 972.782 189.27C985.39 168.16 1001.96 151.588 1022.5 139.553C1043.13 127.517 1064.72 121.5 1087.26 121.5C1109.42 121.5 1130.87 127.613 1151.59 139.839C1172.32 151.97 1189.08 168.542 1201.88 189.557C1214.68 210.571 1221.08 233.447 1221.08 258.187C1221.08 276.908 1217.4 294.579 1210.05 311.199C1202.7 327.724 1192.67 342.243 1179.96 354.756C1167.35 367.173 1152.98 376.868 1136.84 383.841C1120.69 390.814 1104.17 394.301 1087.26 394.301C1065.2 394.301 1043.8 388.235 1023.07 376.104C1002.44 363.973 985.772 347.496 973.069 326.673C960.365 305.755 954.013 282.926 954.013 258.187ZM1044.42 204.171V312.202C1044.42 327.199 1045.52 339.807 1047.72 350.028C1050.01 360.153 1054.26 368.128 1060.47 373.955C1066.77 379.686 1075.7 382.552 1087.26 382.552C1104.36 382.552 1115.87 376.582 1121.79 364.642C1127.71 352.607 1130.67 335.127 1130.67 312.202V204.171C1130.67 180.96 1127.71 163.337 1121.79 151.301C1115.87 139.266 1104.36 133.248 1087.26 133.248C1070.35 133.248 1058.99 139.266 1053.16 151.301C1047.33 163.241 1044.42 180.864 1044.42 204.171Z" fill="#EDEEEA"/>
<path d="M1334.29 121.5V171.36C1345.28 155.218 1358.65 142.896 1374.41 134.395C1390.17 125.798 1406.17 121.5 1422.41 121.5C1454.5 121.5 1474.95 129.093 1483.73 144.281C1492.52 159.373 1496.92 176.805 1496.92 196.577V374.385H1525.71V386.134H1390.03V374.385H1414.67V215.347C1414.67 193.282 1412.72 177.903 1408.8 169.211C1404.98 160.423 1397.19 156.03 1385.45 156.03C1376.94 156.03 1368.68 158.656 1360.66 163.91C1352.73 169.163 1346.33 176.088 1341.46 184.685C1336.68 193.282 1334.29 202.117 1334.29 211.192V374.385H1359.51V386.134H1222.25V374.385H1252.2V141.415H1222.25V129.666H1285.58C1304.78 129.666 1321.02 126.944 1334.29 121.5Z" fill="#EDEEEA"/>
<path d="M1553.1 141.415H1523.73V129.666H1585.91C1605.49 129.666 1621.92 126.944 1635.2 121.5V374.385H1664V386.134H1524.3V374.385H1553.1V141.415ZM1550.67 41.1207C1550.67 30.2316 1554.49 20.6798 1562.13 12.4652C1569.77 4.15506 1579.66 0 1591.79 0C1603.92 0 1613.81 4.15506 1621.45 12.4652C1629.09 20.6798 1632.91 30.2316 1632.91 41.1207C1632.91 53.1561 1628.71 62.9945 1620.3 70.636C1611.99 78.2775 1602.49 82.0982 1591.79 82.0982C1579.75 82.0982 1569.87 77.9431 1562.13 69.633C1554.49 61.3229 1550.67 51.8188 1550.67 41.1207Z" fill="#EDEEEA"/>
</svg>
