<svg width="1664" height="162" viewBox="0 0 1664 162" fill="none" xmlns="http://www.w3.org/2000/svg">
<path d="M19.6152 158.816H0V2.229H19.6152V158.816Z" fill="#EDEEEA"/>
<path d="M97.1935 19.3923V158.816H77.5782V19.3923H33.1096V2.229H141.662V19.3923H97.1935Z" fill="#EDEEEA"/>
<path d="M248.775 106.101L266.607 110.001C262.669 125.827 255.945 138.31 246.434 147.449C236.924 156.513 224.293 161.045 208.541 161.045C199.774 161.045 191.786 159.448 184.579 156.253C177.372 152.984 171.354 148.675 166.524 143.325C161.695 137.901 157.608 131.623 154.265 124.49C150.996 117.283 148.618 109.89 147.132 102.311C145.646 94.6583 144.903 86.8568 144.903 78.9067C144.903 70.6594 145.683 62.7464 147.244 55.1678C148.878 47.5892 151.404 40.4564 154.822 33.7694C158.314 27.0081 162.549 21.1384 167.527 16.1603C172.506 11.1822 178.635 7.24426 185.917 4.34656C193.272 1.44885 201.371 0 210.213 0C225.37 0 237.704 4.53231 247.214 13.5969C256.799 22.6615 263.263 34.7725 266.607 49.9297L248.106 53.3846C246.62 47.9607 244.911 43.2055 242.979 39.119C241.047 35.0325 238.595 31.206 235.623 27.6396C232.651 23.9989 228.936 21.2127 224.478 19.2809C220.095 17.3491 215.117 16.3832 209.544 16.3832C203.006 16.3832 197.173 17.7577 192.046 20.5068C186.92 23.2559 182.759 26.7852 179.564 31.0946C176.443 35.404 173.843 40.4936 171.763 46.3633C169.756 52.1587 168.345 57.8426 167.527 63.4151C166.784 68.9876 166.413 74.7088 166.413 80.5785C166.413 96.1072 168.828 109.11 173.657 119.586C177.075 127.016 181.793 133.071 187.811 137.752C193.83 142.359 200.74 144.662 208.541 144.662C229.048 144.662 242.459 131.808 248.775 106.101Z" fill="#EDEEEA"/>
<path d="M365.369 158.816H345.754V2.229H441.601V19.1694H365.369V68.8762H428.562V84.5907H365.369V158.816Z" fill="#EDEEEA"/>
<path d="M437.041 42.9083H453.09V69.9907H453.535C460.594 49.7811 471.925 39.6763 487.528 39.6763L494.103 40.1221V57.2854H490.537C477.386 57.2854 467.392 63.3408 460.557 75.4518C456.767 82.1388 454.873 90.4604 454.873 100.417V158.816H437.041V42.9083Z" fill="#EDEEEA"/>
<path d="M574.356 107.884V100.417H559.533C528.179 100.417 512.501 109.221 512.501 126.83C512.501 133.592 514.916 138.681 519.746 142.099C524.575 145.517 530.519 147.226 537.578 147.226C544.636 147.226 551.026 145.368 556.747 141.653C562.468 137.938 566.815 133.109 569.787 127.165C572.833 121.146 574.356 114.719 574.356 107.884ZM559.31 86.9311H574.356V81.9159C574.356 71.8854 572.016 64.7154 567.335 60.406C562.728 56.0223 555.261 53.8304 544.933 53.8304C526.507 53.8304 515.919 60.666 513.17 74.3373L496.453 71.6625C497.196 65.867 499.202 60.8518 502.471 56.6167C505.814 52.3073 509.938 49.0009 514.842 46.6976C519.746 44.32 524.835 42.6111 530.111 41.5709C535.386 40.4564 540.847 39.8992 546.494 39.8992C554.295 39.8992 561.168 40.6793 567.112 42.2396C573.13 43.7256 578.108 46.7348 582.046 51.2671C584.35 53.719 586.207 56.4309 587.619 59.4029C589.031 62.3749 589.996 65.7556 590.517 69.5449C591.037 73.2599 591.371 76.4177 591.52 79.0182C591.668 81.5444 591.742 84.9993 591.742 89.383V134.409C591.742 145.108 592.56 153.244 594.194 158.816H576.362L574.356 137.084C566.48 153.058 552.921 161.045 533.677 161.045C522.235 161.045 512.65 157.962 504.923 151.795C497.196 145.628 493.332 137.009 493.332 125.939C493.332 119.029 495.264 112.639 499.127 106.769C503.065 100.9 508.266 96.553 514.73 93.7296C524.389 89.1973 539.249 86.9311 559.31 86.9311Z" fill="#EDEEEA"/>
<path d="M631.428 42.9083V64.3067H631.873C635.291 56.8767 640.158 50.9699 646.473 46.5862C652.789 42.1282 659.959 39.8992 667.983 39.8992C682.546 39.8992 693.468 45.9175 700.75 57.9541C702.161 60.2574 703.276 62.8579 704.093 65.7556C704.91 68.6533 705.468 72.1826 705.765 76.3434C706.062 80.4299 706.211 83.3647 706.211 85.1479C706.285 86.8568 706.322 90.0517 706.322 94.7326V158.816H688.49V87.154C688.49 86.9311 688.49 86.5596 688.49 86.0395C688.49 76.1576 687.413 69.3591 685.258 65.6441C683.326 62.4492 680.503 59.923 676.788 58.0655C673.147 56.1337 669.358 55.1678 665.42 55.1678C655.91 55.1678 647.922 59.0686 641.458 66.8701C637.966 71.1052 635.551 75.749 634.214 80.8014C632.951 85.7795 632.319 91.5377 632.319 98.0761V158.816H614.487V42.9083H631.428Z" fill="#EDEEEA"/>
<path d="M825.248 158.816H806.302L772.532 94.1754L747.568 122.93V158.816H729.847V2.229H747.568V102.423L801.287 43.3541H820.456L784.346 83.922L825.248 158.816Z" fill="#EDEEEA"/>
<path d="M854.234 158.816H836.402V2.229H854.234V158.816Z" fill="#EDEEEA"/>
<path d="M899.938 42.9083V158.816H882.106V42.9083H899.938ZM900.829 2.229V22.29H881.214V2.229H900.829Z" fill="#EDEEEA"/>
<path d="M941.963 42.9083V64.3067H942.409C945.827 56.8767 950.694 50.9699 957.009 46.5862C963.325 42.1282 970.495 39.8992 978.519 39.8992C993.082 39.8992 1004 45.9175 1011.29 57.9541C1012.7 60.2574 1013.81 62.8579 1014.63 65.7556C1015.45 68.6533 1016 72.1826 1016.3 76.3434C1016.6 80.4299 1016.75 83.3647 1016.75 85.1479C1016.82 86.8568 1016.86 90.0517 1016.86 94.7326V158.816H999.026V87.154C999.026 86.9311 999.026 86.5596 999.026 86.0395C999.026 76.1576 997.949 69.3591 995.794 65.6441C993.862 62.4492 991.039 59.923 987.324 58.0655C983.683 56.1337 979.894 55.1678 975.956 55.1678C966.445 55.1678 958.458 59.0686 951.994 66.8701C948.502 71.1052 946.087 75.749 944.75 80.8014C943.487 85.7795 942.855 91.5377 942.855 98.0761V158.816H925.023V42.9083H941.963Z" fill="#EDEEEA"/>
<path d="M1219.72 79.7983V159.931H1207.57L1202.33 140.539C1197.65 147.449 1191.48 152.612 1183.83 156.03C1176.25 159.374 1167.97 161.045 1158.97 161.045C1148.5 161.045 1139.32 159.114 1131.45 155.25C1123.57 151.312 1116.48 145.182 1110.16 136.861C1099.16 121.852 1093.66 103.612 1093.66 82.1388C1093.66 73.7429 1094.52 65.6441 1096.23 57.8426C1097.94 49.9668 1100.61 42.5368 1104.25 35.5526C1107.89 28.4941 1112.31 22.3643 1117.52 17.1633C1122.79 11.888 1129.18 7.72721 1136.68 4.68091C1144.26 1.5603 1152.55 0 1161.54 0C1176.25 0 1188.4 3.93791 1197.98 11.8137C1207.64 19.6152 1214.33 30.6488 1218.04 44.9144L1199.65 49.4839C1197.65 39.5277 1193.08 31.5404 1185.95 25.5221C1178.81 19.4295 1170.19 16.3832 1160.09 16.3832C1154.37 16.3832 1149.17 17.3119 1144.49 19.1694C1139.81 21.0269 1135.87 23.5903 1132.67 26.8595C1129.48 30.1287 1126.69 33.8437 1124.31 38.0045C1121.94 42.1653 1120.08 46.7348 1118.74 51.7129C1117.4 56.691 1116.44 61.5948 1115.84 66.4243C1115.25 71.2538 1114.95 76.1948 1114.95 81.2472C1114.95 97.5189 1117.92 111.339 1123.87 122.707C1127.43 129.468 1132.49 134.892 1139.03 138.978C1145.56 143.065 1152.66 145.108 1160.31 145.108C1172.27 145.108 1181.82 141.43 1188.95 134.075C1196.09 126.645 1199.65 116.948 1199.65 104.986V96.2929H1160.54V79.7983H1219.72Z" fill="#EDEEEA"/>
<path d="M1233.88 99.9708C1233.88 91.7978 1235.03 84.1449 1237.33 77.0121C1239.64 69.805 1242.94 63.4523 1247.25 57.9541C1251.64 52.3816 1257.25 47.9979 1264.08 44.803C1270.92 41.5338 1278.57 39.8992 1287.04 39.8992C1295.21 39.8992 1302.61 41.6081 1309.22 45.0259C1315.83 48.3694 1321.18 52.9017 1325.27 58.6228C1329.43 64.3439 1332.59 70.7709 1334.74 77.9037C1336.9 84.9622 1337.97 92.3922 1337.97 100.194C1337.97 108.367 1336.78 116.094 1334.41 123.375C1332.1 130.657 1328.72 137.121 1324.26 142.768C1319.88 148.414 1314.23 152.872 1307.32 156.142C1300.41 159.411 1292.69 161.045 1284.14 161.045C1277.46 161.045 1271.29 159.894 1265.64 157.591C1259.99 155.287 1255.24 152.204 1251.38 148.34C1247.59 144.477 1244.32 139.944 1241.57 134.743C1238.89 129.468 1236.92 123.933 1235.66 118.137C1234.47 112.267 1233.88 106.212 1233.88 99.9708ZM1253.72 99.9708C1253.72 112.973 1255.95 123.524 1260.4 131.623C1262.93 136.081 1266.46 139.647 1270.99 142.322C1275.6 144.922 1280.5 146.223 1285.7 146.223C1291.57 146.223 1296.81 144.774 1301.42 141.876C1306.02 138.978 1309.7 134.892 1312.45 129.617C1316.24 122.409 1318.13 112.528 1318.13 99.9708C1318.13 86.5968 1315.68 76.009 1310.78 68.2075C1308.03 63.9724 1304.43 60.6289 1299.97 58.177C1295.51 55.7251 1290.75 54.4991 1285.7 54.4991C1280.13 54.4991 1274.97 55.9851 1270.21 58.9571C1265.53 61.9291 1261.93 65.9413 1259.4 70.9938C1255.61 78.3495 1253.72 88.0085 1253.72 99.9708Z" fill="#EDEEEA"/>
<path d="M1409.64 145.554V159.708L1392.48 161.045C1380.44 161.045 1371.94 157.851 1366.96 151.461C1362.05 144.997 1359.6 135.598 1359.6 123.264V56.0594H1339.1V41.9053H1359.6V13.1511L1377.43 11.3679V41.9053H1403.29V56.0594H1377.43V126.162C1377.43 133.294 1378.77 138.495 1381.45 141.765C1384.12 145.034 1388.95 146.668 1395.94 146.668L1409.64 145.554Z" fill="#EDEEEA"/>
<path d="M1509.74 158.816H1491.9V91.2777C1491.9 80.4299 1491.05 72.7398 1489.34 68.2075C1487.78 63.8981 1485.1 60.5546 1481.32 58.177C1477.6 55.7251 1473.37 54.4991 1468.61 54.4991C1464.23 54.4991 1459.95 55.6508 1455.79 57.9541C1451.71 60.2574 1448.14 63.2294 1445.09 66.8701C1441.45 71.2538 1439.04 75.9347 1437.85 80.9128C1436.74 85.8909 1436.18 91.9835 1436.18 99.1906V158.816H1418.35V2.229H1436.18V64.3067H1436.85C1440.71 56.208 1445.5 50.1154 1451.22 46.0289C1457.02 41.9424 1464.26 39.8992 1472.96 39.8992C1479.27 39.8992 1485.1 41.3109 1490.45 44.1343C1495.88 46.9577 1500.22 50.9327 1503.49 56.0594C1504.39 57.4711 1505.13 58.9571 1505.72 60.5174C1506.39 62.0034 1506.95 63.3408 1507.39 64.5296C1507.84 65.6441 1508.21 67.1301 1508.51 68.9876C1508.81 70.7709 1509.03 72.1083 1509.18 72.9999C1509.4 73.8915 1509.55 75.4518 1509.62 77.6808C1509.7 79.8355 1509.74 81.2472 1509.74 81.9159C1509.74 82.5103 1509.74 84.1077 1509.74 86.7082C1509.74 89.3087 1509.74 90.8319 1509.74 91.2777V158.816Z" fill="#EDEEEA"/>
<path d="M1552.88 42.9083V158.816H1535.04V42.9083H1552.88ZM1553.77 2.229V22.29H1534.15V2.229H1553.77Z" fill="#EDEEEA"/>
<path d="M1647.62 117.468L1664 120.478C1661.85 132.663 1656.87 142.47 1649.07 149.9C1641.26 157.33 1631.35 161.045 1619.31 161.045C1612.62 161.045 1606.49 159.931 1600.92 157.702C1595.42 155.473 1590.78 152.464 1586.99 148.675C1583.27 144.811 1580.12 140.316 1577.51 135.189C1574.91 129.988 1573.02 124.527 1571.83 118.806C1570.64 113.01 1570.05 107.029 1570.05 100.862C1570.05 94.6955 1570.64 88.7515 1571.83 83.0304C1573.02 77.235 1574.91 71.6996 1577.51 66.4243C1580.19 61.149 1583.42 56.5795 1587.21 52.7159C1591 48.778 1595.64 45.6574 1601.14 43.3541C1606.71 41.0508 1612.84 39.8992 1619.53 39.8992C1631.79 39.8992 1641.75 43.5027 1649.4 50.7098C1657.13 57.9169 1661.99 67.6874 1664 80.0212L1647.62 83.0304C1646.8 74.9317 1643.98 68.2446 1639.15 62.9693C1634.32 57.6197 1627.93 54.9449 1619.98 54.9449C1614.26 54.9449 1609.28 56.3566 1605.04 59.18C1600.81 61.9291 1597.58 65.607 1595.35 70.2136C1593.12 74.8202 1591.48 79.5754 1590.44 84.4792C1589.48 89.383 1588.99 94.4726 1588.99 99.7479C1588.99 103.834 1589.22 107.847 1589.66 111.785C1590.18 115.722 1591.15 119.809 1592.56 124.044C1593.97 128.205 1595.72 131.846 1597.8 134.966C1599.95 138.087 1602.85 140.687 1606.49 142.768C1610.13 144.774 1614.26 145.777 1618.86 145.777C1627.04 145.777 1633.46 143.213 1638.14 138.087C1642.82 132.886 1645.98 126.013 1647.62 117.468Z" fill="#EDEEEA"/>
</svg>
