<svg width="1665" height="431" viewBox="0 0 1665 431" fill="none" xmlns="http://www.w3.org/2000/svg">
<path d="M0.164062 22.6094H154.653C185.422 22.6094 212.046 27.2155 234.523 36.4277C257.186 45.64 274.597 59.2741 286.757 77.3301C298.917 95.3861 304.997 117.68 304.997 144.211C304.997 166.32 301.404 185.113 294.219 200.59C287.033 216.066 276.9 228.871 263.818 239.005C250.921 249.138 235.813 257.337 218.494 263.602L189.199 279.631H57.6484L57.0957 209.71H154.93C168.38 209.71 179.526 207.315 188.37 202.524C197.214 197.734 203.847 191.009 208.269 182.35C212.875 173.506 215.178 163.188 215.178 151.396C215.178 139.236 212.875 128.734 208.269 119.891C203.662 111.047 196.845 104.322 187.817 99.7158C178.974 94.9255 167.919 92.5303 154.653 92.5303H90.2598V425H0.164062V22.6094ZM222.916 425L132.544 246.19L227.614 245.914L319.368 420.854V425H222.916Z" fill="#EDEEEA"/>
<path d="M326.576 278.525V272.722C326.576 250.797 329.708 230.622 335.972 212.197C342.237 193.589 351.449 177.467 363.609 163.833C375.769 150.199 390.693 139.605 408.38 132.051C426.068 124.312 446.335 120.443 469.181 120.443C492.396 120.443 512.847 124.312 530.535 132.051C548.407 139.605 563.422 150.199 575.583 163.833C587.743 177.467 596.955 193.589 603.219 212.197C609.484 230.622 612.616 250.797 612.616 272.722V278.525C612.616 300.266 609.484 320.441 603.219 339.05C596.955 357.474 587.743 373.596 575.583 387.414C563.422 401.048 548.499 411.642 530.811 419.196C513.124 426.75 492.765 430.527 469.734 430.527C446.888 430.527 426.529 426.75 408.657 419.196C390.785 411.642 375.769 401.048 363.609 387.414C351.449 373.596 342.237 357.474 335.972 339.05C329.708 320.441 326.576 300.266 326.576 278.525ZM413.079 272.722V278.525C413.079 290.317 414 301.372 415.842 311.689C417.869 322.007 421.093 331.035 425.515 338.773C429.937 346.512 435.741 352.592 442.926 357.014C450.296 361.251 459.232 363.37 469.734 363.37C480.236 363.37 489.08 361.251 496.265 357.014C503.451 352.592 509.255 346.512 513.676 338.773C518.098 331.035 521.23 322.007 523.073 311.689C525.1 301.372 526.113 290.317 526.113 278.525V272.722C526.113 261.114 525.1 250.244 523.073 240.11C521.23 229.793 518.098 220.673 513.676 212.75C509.255 204.827 503.359 198.655 495.989 194.233C488.803 189.812 479.867 187.601 469.181 187.601C458.864 187.601 450.112 189.812 442.926 194.233C435.741 198.655 429.937 204.827 425.515 212.75C421.093 220.673 417.869 229.793 415.842 240.11C414 250.244 413.079 261.114 413.079 272.722Z" fill="#EDEEEA"/>
<path d="M635.576 0.5H721.803V353.974L712.959 425H635.576V0.5ZM908.351 272.169V277.973C908.351 300.635 905.956 321.27 901.165 339.879C896.559 358.488 889.466 374.609 879.885 388.243C870.304 401.693 858.236 412.103 843.681 419.473C829.126 426.842 811.991 430.527 792.277 430.527C774.036 430.527 758.376 426.75 745.294 419.196C732.213 411.458 721.25 400.772 712.406 387.138C703.563 373.504 696.377 357.566 690.85 339.326C685.507 321.086 681.361 301.464 678.413 280.46V270.511C681.361 249.507 685.507 229.885 690.85 211.645C696.377 193.404 703.563 177.467 712.406 163.833C721.25 150.199 732.121 139.605 745.018 132.051C758.099 124.312 773.668 120.443 791.724 120.443C811.622 120.443 828.849 124.22 843.405 131.774C858.144 139.328 870.304 149.923 879.885 163.557C889.466 177.007 896.559 193.036 901.165 211.645C905.956 230.069 908.351 250.244 908.351 272.169ZM822.124 277.973V272.169C822.124 260.746 821.295 249.967 819.637 239.834C818.163 229.701 815.491 220.765 811.622 213.026C807.937 205.104 802.686 198.932 795.869 194.51C789.237 189.904 780.669 187.601 770.167 187.601C759.85 187.601 751.098 189.351 743.912 192.852C736.727 196.352 730.923 201.327 726.501 207.775C722.079 214.04 718.855 221.686 716.828 230.714C714.802 239.742 713.696 249.783 713.512 260.838V290.133C713.696 304.872 715.631 317.77 719.316 328.824C723.001 339.879 728.989 348.446 737.28 354.526C745.571 360.422 756.717 363.37 770.72 363.37C781.406 363.37 790.066 361.343 796.698 357.29C803.516 353.052 808.674 347.157 812.175 339.603C815.86 332.049 818.439 323.021 819.913 312.519C821.387 302.017 822.124 290.501 822.124 277.973Z" fill="#EDEEEA"/>
<path d="M919.151 278.525V272.722C919.151 250.797 922.283 230.622 928.548 212.197C934.812 193.589 944.024 177.467 956.185 163.833C968.345 150.199 983.269 139.605 1000.96 132.051C1018.64 124.312 1038.91 120.443 1061.76 120.443C1084.97 120.443 1105.42 124.312 1123.11 132.051C1140.98 139.605 1156 150.199 1168.16 163.833C1180.32 177.467 1189.53 193.589 1195.79 212.197C1202.06 230.622 1205.19 250.797 1205.19 272.722V278.525C1205.19 300.266 1202.06 320.441 1195.79 339.05C1189.53 357.474 1180.32 373.596 1168.16 387.414C1156 401.048 1141.07 411.642 1123.39 419.196C1105.7 426.75 1085.34 430.527 1062.31 430.527C1039.46 430.527 1019.1 426.75 1001.23 419.196C983.361 411.642 968.345 401.048 956.185 387.414C944.024 373.596 934.812 357.474 928.548 339.05C922.283 320.441 919.151 300.266 919.151 278.525ZM1005.65 272.722V278.525C1005.65 290.317 1006.58 301.372 1008.42 311.689C1010.44 322.007 1013.67 331.035 1018.09 338.773C1022.51 346.512 1028.32 352.592 1035.5 357.014C1042.87 361.251 1051.81 363.37 1062.31 363.37C1072.81 363.37 1081.66 361.251 1088.84 357.014C1096.03 352.592 1101.83 346.512 1106.25 338.773C1110.67 331.035 1113.81 322.007 1115.65 311.689C1117.68 301.372 1118.69 290.317 1118.69 278.525V272.722C1118.69 261.114 1117.68 250.244 1115.65 240.11C1113.81 229.793 1110.67 220.673 1106.25 212.75C1101.83 204.827 1095.93 198.655 1088.56 194.233C1081.38 189.812 1072.44 187.601 1061.76 187.601C1051.44 187.601 1042.69 189.812 1035.5 194.233C1028.32 198.655 1022.51 204.827 1018.09 212.75C1013.67 220.673 1010.44 229.793 1008.42 240.11C1006.58 250.244 1005.65 261.114 1005.65 272.722Z" fill="#EDEEEA"/>
<path d="M1379.88 125.971V186.495H1202.45V125.971H1379.88ZM1243.08 51.9043H1329.58V331.312C1329.58 339.603 1330.59 345.959 1332.62 350.381C1334.65 354.803 1337.96 357.935 1342.57 359.777C1347.17 361.436 1353.07 362.265 1360.26 362.265C1365.41 362.265 1369.84 362.08 1373.52 361.712C1377.21 361.343 1380.61 360.883 1383.75 360.33V422.789C1376.38 425.184 1368.55 427.027 1360.26 428.316C1351.96 429.79 1342.94 430.527 1333.17 430.527C1314.56 430.527 1298.44 427.487 1284.81 421.407C1271.36 415.327 1261.04 405.746 1253.85 392.665C1246.67 379.399 1243.08 362.173 1243.08 340.984V51.9043Z" fill="#EDEEEA"/>
<path d="M1378.52 278.525V272.722C1378.52 250.797 1381.65 230.622 1387.91 212.197C1394.18 193.589 1403.39 177.467 1415.55 163.833C1427.71 150.199 1442.64 139.605 1460.32 132.051C1478.01 124.312 1498.28 120.443 1521.12 120.443C1544.34 120.443 1564.79 124.312 1582.48 132.051C1600.35 139.605 1615.36 150.199 1627.52 163.833C1639.68 177.467 1648.9 193.589 1655.16 212.197C1661.43 230.622 1664.56 250.797 1664.56 272.722V278.525C1664.56 300.266 1661.43 320.441 1655.16 339.05C1648.9 357.474 1639.68 373.596 1627.52 387.414C1615.36 401.048 1600.44 411.642 1582.75 419.196C1565.07 426.75 1544.71 430.527 1521.68 430.527C1498.83 430.527 1478.47 426.75 1460.6 419.196C1442.73 411.642 1427.71 401.048 1415.55 387.414C1403.39 373.596 1394.18 357.474 1387.91 339.05C1381.65 320.441 1378.52 300.266 1378.52 278.525ZM1465.02 272.722V278.525C1465.02 290.317 1465.94 301.372 1467.78 311.689C1469.81 322.007 1473.04 331.035 1477.46 338.773C1481.88 346.512 1487.68 352.592 1494.87 357.014C1502.24 361.251 1511.17 363.37 1521.68 363.37C1532.18 363.37 1541.02 361.251 1548.21 357.014C1555.39 352.592 1561.2 346.512 1565.62 338.773C1570.04 331.035 1573.17 322.007 1575.01 311.689C1577.04 301.372 1578.05 290.317 1578.05 278.525V272.722C1578.05 261.114 1577.04 250.244 1575.01 240.11C1573.17 229.793 1570.04 220.673 1565.62 212.75C1561.2 204.827 1555.3 198.655 1547.93 194.233C1540.75 189.812 1531.81 187.601 1521.12 187.601C1510.81 187.601 1502.05 189.812 1494.87 194.233C1487.68 198.655 1481.88 204.827 1477.46 212.75C1473.04 220.673 1469.81 229.793 1467.78 240.11C1465.94 250.244 1465.02 261.114 1465.02 272.722Z" fill="#EDEEEA"/>
</svg>
