<svg width="164" height="19" viewBox="0 0 164 19" fill="none" xmlns="http://www.w3.org/2000/svg">
<rect x="117" width="47" height="18.3162" rx="9.15809" fill="#DFDEFF"/>
<circle cx="127.011" cy="9.15803" r="6.39338" fill="#5552FF"/>
<path d="M3.332 13.7393V5.07326H0.14V3.58926H8.302V5.07326H5.11V13.7393H3.332ZM8.77538 5.14326V3.58926H10.2454V5.14326H8.77538ZM12.0794 3.58926H13.5494V5.14326H12.0794V3.58926ZM14.8514 10.4493H9.23738C9.34938 11.8493 10.3294 12.5353 11.2814 12.5353C12.1634 12.5353 12.8354 12.1993 13.1294 11.4853H14.7674C14.4314 12.6893 13.2834 13.9213 11.3514 13.9213C8.92938 13.9213 7.54338 12.0873 7.54338 9.91726C7.54338 7.64926 9.09738 6.03926 11.2394 6.03926C13.5494 6.03926 15.0054 7.92926 14.8514 10.4493ZM11.2394 7.34126C10.4554 7.34126 9.39138 7.81726 9.23738 9.23126H13.1574C13.1154 8.05526 12.2194 7.34126 11.2394 7.34126ZM25.2388 6.20726V13.7393H23.6288V7.77526L21.4168 13.7393H20.1288L17.9168 7.80326V13.7393H16.3068V6.20726H18.8268L20.8008 11.5833L22.7188 6.20726H25.2388ZM34.0867 13.7393H32.4207V10.5333H29.0607V13.7393H27.3947V6.20726H29.0607V9.21726H32.4207V6.20726H34.0867V13.7393ZM38.9737 13.7393H36.1037V6.20726H37.7697V8.74126H38.9317C41.0037 8.74126 41.8857 9.52526 41.8857 11.1913C41.8857 13.0953 40.8217 13.7393 38.9737 13.7393ZM37.7697 10.0573V12.4233H38.7357C39.7437 12.4233 40.2197 12.1293 40.2197 11.1773C40.2197 10.3233 39.7297 10.0573 38.7217 10.0573H37.7697ZM44.6297 13.7393H42.9637V6.20726H44.6297V13.7393ZM51.2647 3.58926H52.4687C52.3567 4.58326 51.7407 5.28326 50.1447 5.28326C48.5907 5.28326 47.9187 4.58326 47.8487 3.58926H49.0667C49.1227 4.09326 49.4307 4.35926 50.1587 4.35926C50.8727 4.35926 51.2087 4.09326 51.2647 3.58926ZM53.5607 6.20726V13.7393H51.8947V8.51726L48.3107 13.7393H46.6447V6.20726H48.3107V11.4573L51.8947 6.20726H53.5607ZM60.1883 9.97326C60.1883 11.7093 61.0423 12.5633 62.1343 12.5633C63.3103 12.5633 63.9963 11.5833 63.9963 9.97326C63.9963 8.39126 63.3103 7.39726 62.1343 7.39726C61.0423 7.39726 60.1883 8.23726 60.1883 9.97326ZM58.5923 6.20726H60.2583V7.21526C60.7063 6.47326 61.4903 6.03926 62.4983 6.03926C64.3463 6.03926 65.7323 7.56526 65.7323 9.97326C65.7323 12.3953 64.3463 13.9213 62.4983 13.9213C61.4903 13.9213 60.7063 13.4873 60.2583 12.7453V16.1893H58.5923V6.20726ZM73.9822 10.4493H68.3682C68.4802 11.8493 69.4602 12.5353 70.4122 12.5353C71.2942 12.5353 71.9662 12.1993 72.2602 11.4853H73.8982C73.5622 12.6893 72.4142 13.9213 70.4822 13.9213C68.0602 13.9213 66.6742 12.0873 66.6742 9.91726C66.6742 7.64926 68.2282 6.03926 70.3702 6.03926C72.6802 6.03926 74.1362 7.92926 73.9822 10.4493ZM70.3702 7.34126C69.5862 7.34126 68.5222 7.81726 68.3682 9.23126H72.2882C72.2462 8.05526 71.3502 7.34126 70.3702 7.34126ZM79.4277 13.7393V10.4493H78.7697L76.5577 13.7393H74.5977L77.3697 9.77726L74.8217 6.20726H76.6837L78.6717 9.13326H79.4277V6.20726H81.0937V9.13326H81.8217L83.8377 6.20726H85.7557L83.1797 9.76326L85.9377 13.7393H83.9917L81.7797 10.4493H81.0937V13.7393H79.4277ZM94.0295 6.20726V13.7393H92.3635V8.51726L88.7795 13.7393H87.1135V6.20726H88.7795V11.4573L92.3635 6.20726H94.0295ZM104.836 6.20726V13.7393H103.226V7.77526L101.014 13.7393H99.7265L97.5145 7.80326V13.7393H95.9045V6.20726H98.4245L100.398 11.5833L102.316 6.20726H104.836Z" fill="white"/>
</svg>
