<svg width="1664" height="584" viewBox="0 0 1664 584" fill="none" xmlns="http://www.w3.org/2000/svg">
<path d="M139.072 0V575.393H0V0H139.072Z" fill="#EDEEEA"/>
<path d="M332.118 329.277V575.393H194.732V143.848H325.375V223.077H330.151C339.704 196.667 355.999 175.971 379.037 160.986C402.075 145.815 429.515 138.229 461.356 138.229C491.699 138.229 518.015 145.066 540.304 158.739C562.781 172.224 580.2 191.142 592.562 215.491C605.111 239.653 611.292 267.936 611.105 300.339V575.393H473.718V327.311C473.906 303.336 467.818 284.606 455.456 271.12C443.282 257.634 426.331 250.891 404.604 250.891C390.182 250.891 377.445 254.076 366.394 260.444C355.531 266.625 347.102 275.522 341.108 287.134C335.302 298.747 332.305 312.795 332.118 329.277Z" fill="#EDEEEA"/>
<path d="M908.103 143.848V244.991H635.859V143.848H908.103ZM692.893 40.4573H830.279V439.692C830.279 448.121 831.59 454.957 834.212 460.202C837.022 465.259 841.049 468.911 846.294 471.159C851.538 473.219 857.813 474.249 865.117 474.249C870.362 474.249 875.887 473.781 881.694 472.845C887.687 471.721 892.183 470.784 895.179 470.035L915.97 569.212C909.414 571.085 900.143 573.426 888.156 576.236C876.356 579.045 862.214 580.824 845.732 581.574C813.516 583.072 785.889 579.326 762.85 570.335C739.999 561.158 722.487 546.923 710.312 527.631C698.325 508.339 692.518 484.083 692.893 454.864V40.4573Z" fill="#EDEEEA"/>
<path d="M1143.64 583.54C1098.5 583.54 1059.54 574.643 1026.77 556.85C994.176 538.869 969.078 513.302 951.471 480.149C934.052 446.81 925.343 407.195 925.343 361.306C925.343 316.728 934.146 277.769 951.752 244.43C969.359 210.902 994.176 184.867 1026.2 166.324C1058.23 147.594 1095.97 138.229 1139.43 138.229C1170.15 138.229 1198.24 143.005 1223.72 152.558C1249.19 162.11 1271.2 176.251 1289.74 194.982C1308.28 213.712 1322.7 236.844 1333.01 264.377C1343.31 291.723 1348.46 323.096 1348.46 358.497V392.773H973.386V312.982H1220.62C1220.44 298.373 1216.97 285.355 1210.23 273.93C1203.49 262.504 1194.22 253.607 1182.41 247.239C1170.8 240.683 1157.41 237.406 1142.24 237.406C1126.88 237.406 1113.11 240.871 1100.94 247.801C1088.76 254.544 1079.12 263.815 1072 275.615C1064.88 287.228 1061.14 300.433 1060.76 315.23V396.425C1060.76 414.032 1064.23 429.484 1071.16 442.783C1078.09 455.894 1087.92 466.102 1100.66 473.407C1113.39 480.711 1128.57 484.364 1146.17 484.364C1158.35 484.364 1169.4 482.678 1179.32 479.307C1189.25 475.935 1197.77 470.972 1204.89 464.416C1212.01 457.86 1217.35 449.806 1220.91 440.254L1347.05 443.906C1341.81 472.189 1330.29 496.819 1312.5 517.797C1294.89 538.588 1271.76 554.789 1243.1 566.402C1214.44 577.828 1181.29 583.54 1143.64 583.54Z" fill="#EDEEEA"/>
<path d="M1386.98 575.393V143.848H1520.43V222.515H1524.93C1532.79 194.045 1545.62 172.88 1563.42 159.02C1581.21 144.972 1601.91 137.948 1625.51 137.948C1631.88 137.948 1638.43 138.416 1645.18 139.353C1651.92 140.102 1658.19 141.32 1664 143.005V262.411C1657.44 260.163 1648.83 258.384 1638.15 257.072C1627.66 255.761 1618.3 255.106 1610.06 255.106C1593.76 255.106 1579.06 258.758 1565.95 266.063C1553.02 273.18 1542.82 283.201 1535.32 296.125C1528.02 308.861 1524.37 323.846 1524.37 341.077V575.393H1386.98Z" fill="#EDEEEA"/>
</svg>
