<svg width="1408" height="342" viewBox="0 0 1408 342" fill="none" xmlns="http://www.w3.org/2000/svg">
<g clip-path="url(#clip0_3906_95300)">
<path d="M181.337 70.52H154.872C148.917 70.52 144.09 75.3473 144.09 81.302V89.1435C144.09 95.0983 148.917 99.9255 154.872 99.9255H181.337C187.292 99.9255 192.119 95.0983 192.119 89.1435V81.302C192.119 75.3473 187.292 70.52 181.337 70.52Z" fill="#5552FF" stroke="#5552FF" stroke-width="1.96037"/>
<path d="M169.138 92.4987H167.922V80.9914H164.668V80.168C167.158 80.168 167.785 79.9132 168.314 78.1685H169.138V92.4987Z" fill="white"/>
<path d="M654.763 70.52H628.298C622.343 70.52 617.516 75.3473 617.516 81.302V89.1435C617.516 95.0983 622.343 99.9255 628.298 99.9255H654.763C660.717 99.9255 665.545 95.0983 665.545 89.1435V81.302C665.545 75.3473 660.717 70.52 654.763 70.52Z" fill="#5552FF" stroke="#5552FF" stroke-width="1.96037"/>
<path d="M643.016 79.9735L636.822 87.5797H643.016V79.9735ZM646.996 87.5797V88.7755H644.232V92.5002H643.016V88.7755H635.371V87.6777L643.036 78.2876H644.232V87.5797H646.996Z" fill="white"/>
<path d="M1241.89 70.52H1215.42C1209.47 70.52 1204.64 75.3473 1204.64 81.302V89.1435C1204.64 95.0983 1209.47 99.9255 1215.42 99.9255H1241.89C1247.84 99.9255 1252.67 95.0983 1252.67 89.1435V81.302C1252.67 75.3473 1247.84 70.52 1241.89 70.52Z" fill="#5552FF" stroke="#5552FF" stroke-width="1.96037"/>
<path d="M1223.36 79.4638V78.2876H1233.07V79.4638C1229.3 82.2279 1226.87 86.4819 1226.66 92.5002H1225.3C1225.68 86.0898 1228.21 81.9535 1231.58 79.4638H1223.36Z" fill="white"/>
<path d="M890.985 70.52H864.52C858.566 70.52 853.738 75.3473 853.738 81.302V89.1435C853.738 95.0983 858.566 99.9255 864.52 99.9255H890.985C896.94 99.9255 901.767 95.0983 901.767 89.1435V81.302C901.767 75.3473 896.94 70.52 890.985 70.52Z" fill="#5552FF" stroke="#5552FF" stroke-width="1.96037"/>
<path d="M877.206 91.6769C879.186 91.6769 880.872 90.3242 880.872 87.8542C880.872 85.1881 878.97 84.0903 877.167 84.0903C875.559 84.0903 874.226 84.9528 873.815 85.9134L872.619 85.7958L873.54 78.2876H881.578V79.4638H874.599L873.971 84.3255C874.658 83.5414 876.069 82.9925 877.461 82.9925C880.088 82.9925 882.166 84.698 882.166 87.8346C882.166 91.0692 879.794 92.7551 877.206 92.7551C874.383 92.7551 872.482 90.9123 872.227 88.5011H873.521C873.932 90.6967 875.52 91.6769 877.206 91.6769Z" fill="white"/>
<path d="M1005.67 70.52H979.204C973.249 70.52 968.422 75.3473 968.422 81.302V89.1435C968.422 95.0983 973.249 99.9255 979.204 99.9255H1005.67C1011.62 99.9255 1016.45 95.0983 1016.45 89.1435V81.302C1016.45 75.3473 1011.62 70.52 1005.67 70.52Z" fill="#5552FF" stroke="#5552FF" stroke-width="1.96037"/>
<path d="M988.377 87.9904C988.377 90.1664 989.886 91.6759 992.003 91.6759C994.14 91.6759 995.63 90.1664 995.63 87.9904C995.63 85.6576 994.199 84.1481 992.003 84.1481C989.808 84.1481 988.377 85.6576 988.377 87.9904ZM992.239 79.1099C989.749 79.1099 988.141 81.2467 988.141 85.3439C988.788 84.0109 990.259 83.0699 992.141 83.0699C994.964 83.0699 996.924 85.1087 996.924 87.9316C996.924 90.5977 995.003 92.7541 992.003 92.7541C988.494 92.7541 986.906 90.2448 986.906 85.9516C986.906 81.482 988.338 78.0317 992.435 78.0317C994.983 78.0317 996.434 79.5216 996.689 81.5604H995.395C995.14 79.8941 993.905 79.1099 992.239 79.1099Z" fill="white"/>
<path d="M531.263 310.665H504.798C498.843 310.665 494.016 315.492 494.016 321.447V329.288C494.016 335.243 498.843 340.07 504.798 340.07H531.263C537.217 340.07 542.045 335.243 542.045 329.288V321.447C542.045 315.492 537.217 310.665 531.263 310.665Z" fill="#5552FF" stroke="#5552FF" stroke-width="1.96037"/>
<path d="M517.948 331.822C520.105 331.822 521.673 330.705 521.673 328.725C521.673 326.549 520.026 325.667 517.36 325.667H517.243V324.589H517.36C520.026 324.589 521.301 323.608 521.301 321.883C521.301 320.413 520.144 319.256 518.046 319.256C516.556 319.256 514.851 320.06 514.537 322.256H513.243C513.557 319.825 515.302 318.178 518.144 318.178C520.869 318.178 522.594 319.551 522.594 321.766C522.594 323.177 521.849 324.53 520.262 325.079C521.771 325.49 522.967 326.51 522.967 328.705C522.967 331.528 520.614 332.901 517.968 332.901C515.125 332.901 513.224 331.058 512.969 328.647H514.263C514.674 330.842 516.262 331.822 517.948 331.822Z" fill="white"/>
<path d="M295.04 70.52H268.575C262.62 70.52 257.793 75.3473 257.793 81.302V89.1435C257.793 95.0983 262.62 99.9255 268.575 99.9255H295.04C300.995 99.9255 305.822 95.0983 305.822 89.1435V81.302C305.822 75.3473 300.995 70.52 295.04 70.52Z" fill="#5552FF" stroke="#5552FF" stroke-width="1.96037"/>
<path d="M282.101 78.0317C284.708 78.0317 286.394 79.404 286.394 81.6976C286.394 84.5794 283.924 87.3827 278.69 91.323H286.826V92.4992H277.004V91.2838C282.238 87.3043 285.1 84.4813 285.1 81.8349C285.1 80.0117 283.709 79.1099 282.101 79.1099C280.317 79.1099 278.69 79.9529 278.631 82.6778H277.337C277.475 79.6392 279.278 78.0317 282.101 78.0317Z" fill="white"/>
<path d="M101.889 133.694C91.2702 133.694 82.7255 138.505 76.2548 148.128C69.867 157.668 66.6731 170.444 66.6731 186.455C66.6731 202.466 69.9085 215.283 76.3792 224.906C82.85 234.446 91.3532 239.216 101.889 239.216C112.591 239.216 121.177 234.446 127.648 224.906C134.118 215.366 137.354 202.549 137.354 186.455C137.354 170.527 134.077 157.751 127.523 148.128C121.053 138.505 112.508 133.694 101.889 133.694ZM101.889 122.743C119.227 122.743 133.455 128.716 144.571 140.662C155.688 152.525 161.246 167.789 161.246 186.455C161.246 205.121 155.646 220.426 144.447 232.372C133.33 244.235 119.144 250.167 101.889 250.167C84.6336 250.167 70.4477 244.235 59.3313 232.372C48.2979 220.509 42.7812 205.204 42.7812 186.455C42.7812 167.706 48.2564 152.401 59.2069 140.538C70.2403 128.675 84.4677 122.743 101.889 122.743Z" fill="#5A70EF"/>
<path d="M269.51 234.098C273.658 235.509 277.517 236.546 281.084 237.209C284.734 237.873 288.134 238.205 291.287 238.205C303.896 238.205 314.1 233.518 321.898 224.143C329.696 214.686 333.596 202.201 333.596 186.688C333.596 172.336 330.194 160.929 323.391 152.468C316.672 144.006 307.672 139.775 296.39 139.775C292.325 139.775 288.135 140.48 283.821 141.89C279.508 143.301 274.737 145.499 269.51 148.486V234.098ZM230.312 304.406V295.322L244.126 293.953L248.107 289.971V142.139H230.312V134.175L259.928 125.091H269.51V139.028C276.479 133.802 282.992 129.944 289.048 127.456C295.187 124.967 301.201 123.723 307.09 123.723C321.359 123.723 333.057 129.281 342.183 140.397C351.391 151.514 355.994 165.865 355.994 183.452C355.994 203.445 350.27 219.498 338.822 231.61C327.373 243.639 312.192 249.653 293.278 249.653C290.042 249.653 286.475 249.446 282.576 249.031C278.677 248.699 274.363 248.16 269.635 247.413L269.51 289.971L273.865 293.953L290.167 295.322V304.406H230.312Z" fill="black"/>
<mask id="mask0_3906_95300" style="mask-type:alpha" maskUnits="userSpaceOnUse" x="269" y="102" width="95" height="181">
<path d="M269.551 102.866H363.586V282.24H269.551V102.866Z" fill="#D9D9D9"/>
</mask>
<g mask="url(#mask0_3906_95300)">
<path d="M269.507 234.098C273.655 235.509 277.513 236.546 281.08 237.209C284.73 237.873 288.131 238.205 291.284 238.205C303.893 238.205 314.097 233.518 321.895 224.143C329.693 214.686 333.592 202.201 333.592 186.688C333.592 172.336 330.191 160.929 323.389 152.468C316.669 144.006 307.668 139.775 296.386 139.775C292.321 139.775 288.131 140.48 283.818 141.89C279.504 143.301 274.734 145.499 269.507 148.486V234.098ZM230.309 304.406V295.322L244.122 293.953L248.104 289.971V142.139H230.309V134.175L259.926 125.091H269.507V139.028C276.476 133.802 282.988 129.944 289.044 127.456C295.183 124.967 301.197 123.723 307.087 123.723C321.356 123.723 333.053 129.281 342.179 140.397C351.387 151.514 355.991 165.865 355.991 183.452C355.991 203.445 350.267 219.498 338.819 231.61C327.371 243.639 312.189 249.653 293.275 249.653C290.039 249.653 286.472 249.446 282.573 249.031C278.674 248.699 274.36 248.16 269.632 247.413L269.507 289.971L273.863 293.953L290.164 295.322V304.406H230.309Z" fill="#5A70EF"/>
</g>
<path d="M2.94141 248.913H1385" stroke="#5A70EF" stroke-width="2.94055"/>
<path d="M0 124.43H1382.06" stroke="#5A70EF" stroke-width="2.94055"/>
<path d="M416.328 125.356H471.578V134.813L458.139 135.809L455.028 139.915L485.64 219.182L517.496 139.915L515.505 135.809L501.692 134.813V125.356H547.112V134.813L532.304 136.804L481.285 260.62C475.063 275.635 468.716 286.503 462.246 293.222C455.775 300.025 448.558 303.426 440.594 303.426C435.284 303.426 431.012 302.099 427.776 299.444C424.541 296.872 422.923 293.471 422.923 289.24C422.923 286.751 423.463 284.346 424.541 282.023C425.703 279.7 427.362 277.502 429.519 275.428L454.033 285.134C457.766 281.152 461.375 275.884 464.859 269.33C468.426 262.777 471.703 255.31 474.689 246.932L431.883 136.307L416.328 134.813V125.356Z" fill="#5A70EF"/>
<path d="M824.894 243.277C818.009 245.351 812.617 248.586 808.718 252.983C804.901 257.38 802.993 262.44 802.993 268.164C802.993 275.796 806.229 282.101 812.699 287.079C819.17 292.139 827.466 294.669 837.587 294.669C848.454 294.669 857.497 292.056 864.714 286.83C871.932 281.603 875.54 275.216 875.54 267.666C875.54 261.942 873.964 257.711 870.812 254.974C867.659 252.236 860.608 249.83 849.657 247.756L824.894 243.277ZM835.098 135.638C827.466 135.638 821.369 138.501 816.806 144.225C812.326 149.866 810.086 157.456 810.086 166.997C810.086 176.454 812.368 184.045 816.93 189.769C821.576 195.493 827.632 198.355 835.098 198.355C842.564 198.355 848.579 195.493 853.142 189.769C857.787 184.045 860.11 176.454 860.11 166.997C860.11 157.539 857.829 149.949 853.266 144.225C848.703 138.501 842.647 135.638 835.098 135.638ZM866.456 132.901H902.917V144.847H874.794C877.282 148.58 879.108 152.355 880.269 156.171C881.43 159.987 882.011 164.093 882.011 168.49C882.011 180.187 877.49 189.769 868.447 197.235C859.405 204.618 847.666 208.31 833.232 208.31H829.001C828.005 210.218 827.259 212.126 826.761 214.034C826.346 215.942 826.139 217.85 826.139 219.758C826.139 220.339 826.222 221.583 826.388 223.491C826.554 224.57 826.636 225.358 826.636 225.856L851.151 229.713C867.079 232.119 878.278 235.728 884.749 240.539C891.219 245.268 894.455 252.112 894.455 261.071C894.455 265.966 893.086 270.943 890.348 276.004C887.694 281.147 883.961 285.668 879.149 289.567C872.429 295.043 864.756 299.191 856.128 302.011C847.5 304.915 838.375 306.366 828.752 306.366C814.234 306.366 802.91 303.463 794.781 297.656C786.651 291.849 782.586 283.802 782.586 273.515C782.586 265.302 785.033 258.375 789.927 252.734C794.822 247.093 801.542 243.484 810.086 241.908C809.257 239.917 808.635 237.967 808.22 236.059C807.805 234.151 807.598 232.285 807.598 230.46C807.598 227.224 808.593 223.616 810.584 219.634C812.575 215.652 815.645 211.213 819.792 206.319C810.086 204.162 802.371 199.641 796.647 192.755C791.006 185.787 788.185 177.449 788.185 167.743C788.185 155.217 792.707 145.096 801.749 137.381C810.874 129.583 822.82 125.684 837.587 125.684C842.481 125.684 847.293 126.306 852.022 127.55C856.833 128.711 861.645 130.495 866.456 132.901Z" fill="#5A70EF"/>
<path d="M1252.26 243.277C1245.37 245.351 1239.98 248.586 1236.08 252.983C1232.27 257.38 1230.36 262.44 1230.36 268.164C1230.36 275.796 1233.59 282.101 1240.06 287.079C1246.53 292.139 1254.83 294.669 1264.95 294.669C1275.82 294.669 1284.86 292.056 1292.08 286.83C1299.3 281.603 1302.9 275.216 1302.9 267.666C1302.9 261.942 1301.33 257.711 1298.18 254.974C1295.02 252.236 1287.97 249.83 1277.02 247.756L1252.26 243.277ZM1262.46 135.638C1254.83 135.638 1248.73 138.501 1244.17 144.225C1239.69 149.866 1237.45 157.456 1237.45 166.997C1237.45 176.454 1239.73 184.045 1244.29 189.769C1248.94 195.493 1255 198.355 1262.46 198.355C1269.93 198.355 1275.94 195.493 1280.51 189.769C1285.15 184.045 1287.47 176.454 1287.47 166.997C1287.47 157.539 1285.19 149.949 1280.63 144.225C1276.07 138.501 1270.01 135.638 1262.46 135.638ZM1293.82 132.901H1330.28V144.847H1302.16C1304.65 148.58 1306.47 152.355 1307.63 156.171C1308.79 159.987 1309.38 164.093 1309.38 168.49C1309.38 180.187 1304.85 189.769 1295.81 197.235C1286.77 204.618 1275.03 208.31 1260.6 208.31H1256.37C1255.37 210.218 1254.62 212.126 1254.13 214.034C1253.71 215.942 1253.5 217.85 1253.5 219.758C1253.5 220.339 1253.59 221.583 1253.75 223.491C1253.92 224.57 1254 225.358 1254 225.856L1278.51 229.713C1294.44 232.119 1305.64 235.728 1312.11 240.539C1318.58 245.268 1321.82 252.112 1321.82 261.071C1321.82 265.966 1320.45 270.943 1317.71 276.004C1315.06 281.147 1311.32 285.668 1306.51 289.567C1299.79 295.043 1292.12 299.191 1283.49 302.011C1274.86 304.915 1265.74 306.366 1256.12 306.366C1241.6 306.366 1230.27 303.463 1222.14 297.656C1214.01 291.849 1209.95 283.802 1209.95 273.515C1209.95 265.302 1212.4 258.375 1217.29 252.734C1222.19 247.093 1228.91 243.484 1237.45 241.908C1236.62 239.917 1236 237.967 1235.58 236.059C1235.17 234.151 1234.96 232.285 1234.96 230.46C1234.96 227.224 1235.96 223.616 1237.95 219.634C1239.94 215.652 1243.01 211.213 1247.16 206.319C1237.45 204.162 1229.74 199.641 1224.01 192.755C1218.37 185.787 1215.55 177.449 1215.55 167.743C1215.55 155.217 1220.07 145.096 1229.11 137.381C1238.24 129.583 1250.18 125.684 1264.95 125.684C1269.85 125.684 1274.66 126.306 1279.39 127.55C1284.2 128.711 1289.01 130.495 1293.82 132.901Z" fill="#5A70EF"/>
<path d="M1079.93 125.355V134.564L1067.11 135.808L1062.76 139.914V179.112H1071.47C1077.44 179.112 1082.25 177.577 1085.9 174.508C1089.55 171.439 1092.21 167.705 1093.87 163.309L1101.33 143.896C1102.16 141.905 1103.16 139.666 1104.32 137.177C1105.56 134.688 1107.06 132.448 1108.8 130.457C1110.62 128.383 1112.78 126.641 1115.27 125.231C1117.84 123.738 1120.91 122.991 1124.48 122.991C1128.71 122.991 1132.44 124.235 1135.68 126.724C1138.91 129.213 1140.53 132.656 1140.53 137.052C1140.53 138.794 1140.07 140.951 1139.16 143.523C1138.25 146.012 1136.34 148.003 1133.44 149.496L1116.02 139.417C1114.69 141.076 1113.82 142.486 1113.4 143.648C1112.99 144.726 1112.53 146.012 1112.03 147.505L1105.06 165.549C1104.57 166.959 1103.94 168.535 1103.2 170.277C1102.45 171.936 1101.41 173.595 1100.09 175.255C1098.84 176.831 1097.18 178.324 1095.11 179.734C1093.12 181.062 1090.59 182.057 1087.52 182.721V183.219C1091.92 183.716 1096.48 185.707 1101.21 189.192C1106.02 192.676 1110.46 198.732 1114.52 207.359L1127.09 233.865L1131.32 236.976L1146.63 238.718V247.926H1108.92V239.713L1096.48 210.47C1095.4 208.065 1094.24 205.7 1092.99 203.377C1091.75 200.972 1090.26 198.815 1088.51 196.907C1086.86 194.916 1084.86 193.34 1082.54 192.178C1080.3 190.934 1077.65 190.312 1074.58 190.312H1062.76V233.367L1067.11 237.473L1079.93 238.718V247.926H1026.42V238.718L1039.11 237.473L1043.47 233.367V190.312H1031.77C1028.7 190.312 1026.01 190.934 1023.68 192.178C1021.36 193.34 1019.33 194.916 1017.59 196.907C1015.93 198.815 1014.47 200.972 1013.23 203.377C1011.99 205.7 1010.82 208.065 1009.75 210.47L997.302 239.713V247.926H959.598V238.718L974.903 236.976L979.259 233.865L991.702 207.359C995.767 198.732 1000.16 192.676 1004.89 189.192C1009.7 185.707 1014.31 183.716 1018.71 183.219V182.721C1015.64 182.057 1013.06 181.062 1010.99 179.734C1009 178.324 1007.34 176.831 1006.01 175.255C1004.77 173.595 1003.77 171.936 1003.03 170.277C1002.28 168.535 1001.66 166.959 1001.16 165.549L994.316 147.505C993.735 146.012 993.237 144.726 992.822 143.648C992.408 142.486 991.537 141.076 990.209 139.417L972.788 149.496C969.967 148.003 968.059 146.012 967.064 143.523C966.151 140.951 965.695 138.794 965.695 137.052C965.695 132.656 967.313 129.213 970.548 126.724C973.784 124.235 977.517 122.991 981.747 122.991C985.315 122.991 988.384 123.738 990.956 125.231C993.528 126.641 995.684 128.383 997.427 130.457C999.252 132.448 1000.74 134.688 1001.91 137.177C1003.07 139.666 1004.1 141.905 1005.02 143.896L1012.36 163.309C1014.02 167.705 1016.67 171.439 1020.32 174.508C1023.97 177.577 1028.78 179.112 1034.76 179.112H1043.47V139.914L1039.11 135.808L1026.42 134.564V125.355H1079.93Z" fill="#5A70EF"/>
<path d="M675.186 225.512V180.59C653.866 186.48 639.846 191.873 633.127 196.767C626.49 201.662 623.172 208.091 623.172 216.055C623.172 222.443 624.997 227.545 628.647 231.361C632.38 235.094 637.357 236.961 643.579 236.961C647.561 236.961 652.124 236.006 657.267 234.098C662.494 232.19 668.467 229.328 675.186 225.512ZM675.186 234.098C666.974 239.74 659.424 243.929 652.539 246.667C645.736 249.321 639.348 250.649 633.375 250.649C623.503 250.649 615.581 247.662 609.608 241.689C603.718 235.716 600.773 227.835 600.773 218.046C600.773 207.179 605.211 198.634 614.088 192.412C623.047 186.19 643.413 179.263 675.186 171.631V163.543C675.186 152.841 673.444 145.416 669.96 141.268C666.476 137.12 660.42 135.046 651.792 135.046C648.557 135.046 645.363 135.378 642.211 136.042C639.058 136.706 635.781 137.701 632.38 139.028V160.432H614.834C611.765 160.432 609.649 159.892 608.488 158.814C607.41 157.652 606.87 155.579 606.87 152.592C606.87 144.296 611.64 137.411 621.181 131.935C630.804 126.46 643.206 123.723 658.387 123.723C671.744 123.723 681.45 126.626 687.506 132.433C693.562 138.24 696.59 147.573 696.59 160.432V234.347L700.945 238.454L714.384 239.698V248.906H678.546L675.186 234.098Z" fill="#5A70EF"/>
<mask id="mask1_3906_95300" style="mask-type:alpha" maskUnits="userSpaceOnUse" x="416" y="125" width="132" height="179">
<path d="M416.324 125.356H471.575V134.813L458.135 135.809L455.024 139.915L485.636 219.182L517.492 139.915L515.501 135.809L501.688 134.813V125.356H547.108V134.813L532.3 136.804L481.281 260.62C475.059 275.635 468.712 286.503 462.242 293.222C455.771 300.025 448.554 303.426 440.59 303.426C435.28 303.426 431.008 302.099 427.773 299.444C424.537 296.872 422.92 293.471 422.92 289.24C422.92 286.751 423.459 284.346 424.537 282.023C425.699 279.7 427.358 277.502 429.515 275.428L454.029 285.134C457.762 281.152 461.371 275.884 464.855 269.33C468.422 262.777 471.699 255.31 474.685 246.932L431.879 136.307L416.324 134.813V125.356Z" fill="black"/>
</mask>
<g mask="url(#mask1_3906_95300)">
<path d="M1156.61 125.411H-22.5469V247.934H1156.61V125.411Z" fill="black"/>
</g>
<mask id="mask2_3906_95300" style="mask-type:alpha" maskUnits="userSpaceOnUse" x="782" y="125" width="121" height="182">
<path d="M824.894 243.277C818.009 245.351 812.617 248.586 808.718 252.983C804.901 257.38 802.993 262.44 802.993 268.164C802.993 275.796 806.229 282.101 812.699 287.079C819.17 292.139 827.466 294.669 837.587 294.669C848.454 294.669 857.497 292.056 864.714 286.83C871.932 281.603 875.54 275.216 875.54 267.666C875.54 261.942 873.964 257.711 870.812 254.974C867.659 252.236 860.608 249.83 849.657 247.756L824.894 243.277ZM835.098 135.638C827.466 135.638 821.369 138.501 816.806 144.225C812.326 149.866 810.086 157.456 810.086 166.997C810.086 176.454 812.368 184.045 816.93 189.769C821.576 195.493 827.632 198.355 835.098 198.355C842.564 198.355 848.579 195.493 853.142 189.769C857.787 184.045 860.11 176.454 860.11 166.997C860.11 157.539 857.829 149.949 853.266 144.225C848.703 138.501 842.647 135.638 835.098 135.638ZM866.456 132.901H902.917V144.847H874.794C877.282 148.58 879.108 152.355 880.269 156.171C881.43 159.987 882.011 164.093 882.011 168.49C882.011 180.187 877.49 189.769 868.447 197.235C859.405 204.618 847.666 208.31 833.232 208.31H829.001C828.005 210.218 827.259 212.126 826.761 214.034C826.346 215.942 826.139 217.85 826.139 219.758C826.139 220.339 826.222 221.583 826.388 223.491C826.554 224.57 826.636 225.358 826.636 225.856L851.151 229.713C867.079 232.119 878.278 235.728 884.749 240.539C891.219 245.268 894.455 252.112 894.455 261.071C894.455 265.966 893.086 270.943 890.348 276.004C887.694 281.147 883.961 285.668 879.149 289.567C872.429 295.043 864.756 299.191 856.128 302.011C847.5 304.915 838.375 306.366 828.752 306.366C814.234 306.366 802.91 303.463 794.781 297.656C786.651 291.849 782.586 283.802 782.586 273.515C782.586 265.302 785.033 258.375 789.927 252.734C794.822 247.093 801.542 243.484 810.086 241.908C809.257 239.917 808.635 237.967 808.22 236.059C807.805 234.151 807.598 232.285 807.598 230.46C807.598 227.224 808.593 223.616 810.584 219.634C812.575 215.652 815.645 211.213 819.792 206.319C810.086 204.162 802.371 199.641 796.647 192.755C791.006 185.787 788.185 177.449 788.185 167.743C788.185 155.217 792.707 145.096 801.749 137.381C810.874 129.583 822.82 125.684 837.587 125.684C842.481 125.684 847.293 126.306 852.022 127.55C856.833 128.711 861.645 130.495 866.456 132.901Z" fill="black"/>
</mask>
<g mask="url(#mask2_3906_95300)">
<path d="M841.056 98.9255L714.152 191.139L822.372 340.07L949.276 247.857L841.056 98.9255Z" fill="black"/>
</g>
<mask id="mask3_3906_95300" style="mask-type:alpha" maskUnits="userSpaceOnUse" x="1209" y="125" width="122" height="182">
<path d="M1252.25 243.277C1245.37 245.351 1239.98 248.586 1236.08 252.983C1232.26 257.38 1230.35 262.44 1230.35 268.164C1230.35 275.796 1233.59 282.101 1240.06 287.079C1246.53 292.139 1254.83 294.669 1264.95 294.669C1275.81 294.669 1284.86 292.056 1292.07 286.83C1299.29 281.603 1302.9 275.216 1302.9 267.666C1302.9 261.942 1301.32 257.711 1298.17 254.974C1295.02 252.236 1287.97 249.83 1277.02 247.756L1252.25 243.277ZM1262.46 135.638C1254.83 135.638 1248.73 138.501 1244.17 144.225C1239.69 149.866 1237.45 157.456 1237.45 166.997C1237.45 176.454 1239.73 184.045 1244.29 189.769C1248.94 195.493 1254.99 198.355 1262.46 198.355C1269.92 198.355 1275.94 195.493 1280.5 189.769C1285.15 184.045 1287.47 176.454 1287.47 166.997C1287.47 157.539 1285.19 149.949 1280.63 144.225C1276.06 138.501 1270.01 135.638 1262.46 135.638ZM1293.82 132.901H1330.28V144.847H1302.15C1304.64 148.58 1306.47 152.355 1307.63 156.171C1308.79 159.987 1309.37 164.093 1309.37 168.49C1309.37 180.187 1304.85 189.769 1295.81 197.235C1286.77 204.618 1275.03 208.31 1260.59 208.31H1256.36C1255.37 210.218 1254.62 212.126 1254.12 214.034C1253.71 215.942 1253.5 217.85 1253.5 219.758C1253.5 220.339 1253.58 221.583 1253.75 223.491C1253.91 224.57 1254 225.358 1254 225.856L1278.51 229.713C1294.44 232.119 1305.64 235.728 1312.11 240.539C1318.58 245.268 1321.82 252.112 1321.82 261.071C1321.82 265.966 1320.45 270.943 1317.71 276.004C1315.05 281.147 1311.32 285.668 1306.51 289.567C1299.79 295.043 1292.12 299.191 1283.49 302.011C1274.86 304.915 1265.74 306.366 1256.11 306.366C1241.59 306.366 1230.27 303.463 1222.14 297.656C1214.01 291.849 1209.95 283.802 1209.95 273.515C1209.95 265.302 1212.39 258.375 1217.29 252.734C1222.18 247.093 1228.9 243.484 1237.45 241.908C1236.62 239.917 1235.99 237.967 1235.58 236.059C1235.17 234.151 1234.96 232.285 1234.96 230.46C1234.96 227.224 1235.95 223.616 1237.94 219.634C1239.94 215.652 1243 211.213 1247.15 206.319C1237.45 204.162 1229.73 199.641 1224.01 192.755C1218.37 185.787 1215.55 177.449 1215.55 167.743C1215.55 155.217 1220.07 145.096 1229.11 137.381C1238.23 129.583 1250.18 125.684 1264.95 125.684C1269.84 125.684 1274.65 126.306 1279.38 127.55C1284.19 128.711 1289.01 130.495 1293.82 132.901Z" fill="black"/>
</mask>
<g mask="url(#mask3_3906_95300)">
<path d="M1342.04 226.216L1188.5 194.29L1167.35 296.013L1320.89 327.94L1342.04 226.216Z" fill="black"/>
</g>
<mask id="mask4_3906_95300" style="mask-type:alpha" maskUnits="userSpaceOnUse" x="959" y="122" width="188" height="126">
<path d="M1079.93 125.355V134.564L1067.12 135.808L1062.76 139.914V179.112H1071.47C1077.44 179.112 1082.26 177.577 1085.91 174.508C1089.56 171.439 1092.21 167.705 1093.87 163.309L1101.34 143.896C1102.17 141.905 1103.16 139.666 1104.32 137.177C1105.57 134.688 1107.06 132.448 1108.8 130.457C1110.63 128.383 1112.78 126.641 1115.27 125.231C1117.84 123.738 1120.91 122.991 1124.48 122.991C1128.71 122.991 1132.44 124.235 1135.68 126.724C1138.92 129.213 1140.53 132.656 1140.53 137.052C1140.53 138.794 1140.08 140.951 1139.16 143.523C1138.25 146.012 1136.34 148.003 1133.44 149.496L1116.02 139.417C1114.69 141.076 1113.82 142.486 1113.41 143.648C1112.99 144.726 1112.54 146.012 1112.04 147.505L1105.07 165.549C1104.57 166.959 1103.95 168.535 1103.2 170.277C1102.46 171.936 1101.42 173.595 1100.09 175.255C1098.85 176.831 1097.19 178.324 1095.11 179.734C1093.12 181.062 1090.59 182.057 1087.52 182.721V183.219C1091.92 183.716 1096.48 185.707 1101.21 189.192C1106.02 192.676 1110.46 198.732 1114.53 207.359L1127.09 233.865L1131.33 236.976L1146.63 238.718V247.926H1108.93V239.713L1096.48 210.47C1095.4 208.065 1094.24 205.7 1093 203.377C1091.75 200.972 1090.26 198.815 1088.52 196.907C1086.86 194.916 1084.87 193.34 1082.55 192.178C1080.31 190.934 1077.65 190.312 1074.58 190.312H1062.76V233.367L1067.12 237.473L1079.93 238.718V247.926H1026.42V238.718L1039.12 237.473L1043.47 233.367V190.312H1031.78C1028.71 190.312 1026.01 190.934 1023.69 192.178C1021.36 193.34 1019.33 194.916 1017.59 196.907C1015.93 198.815 1014.48 200.972 1013.23 203.377C1011.99 205.7 1010.83 208.065 1009.75 210.47L997.306 239.713V247.926H959.602V238.718L974.907 236.976L979.263 233.865L991.706 207.359C995.771 198.732 1000.17 192.676 1004.9 189.192C1009.71 185.707 1014.31 183.716 1018.71 183.219V182.721C1015.64 182.057 1013.07 181.062 1010.99 179.734C1009 178.324 1007.34 176.831 1006.02 175.255C1004.77 173.595 1003.78 171.936 1003.03 170.277C1002.28 168.535 1001.66 166.959 1001.16 165.549L994.32 147.505C993.739 146.012 993.241 144.726 992.826 143.648C992.412 142.486 991.54 141.076 990.213 139.417L972.792 149.496C969.971 148.003 968.063 146.012 967.068 143.523C966.155 140.951 965.699 138.794 965.699 137.052C965.699 132.656 967.317 129.213 970.552 126.724C973.787 124.235 977.521 122.991 981.751 122.991C985.319 122.991 988.388 123.738 990.96 125.231C993.531 126.641 995.688 128.383 997.431 130.457C999.256 132.448 1000.75 134.688 1001.91 137.177C1003.07 139.666 1004.11 141.905 1005.02 143.896L1012.36 163.309C1014.02 167.705 1016.68 171.439 1020.33 174.508C1023.98 177.577 1028.79 179.112 1034.76 179.112H1043.47V139.914L1039.12 135.808L1026.42 134.564V125.355H1079.93Z" fill="black"/>
</mask>
<g mask="url(#mask4_3906_95300)">
<path d="M1146.82 167.557H959.602V203.824H1146.82V167.557Z" fill="black"/>
</g>
<mask id="mask5_3906_95300" style="mask-type:alpha" maskUnits="userSpaceOnUse" x="600" y="123" width="115" height="128">
<path d="M675.186 225.514V180.592C653.866 186.482 639.846 191.875 633.127 196.769C626.49 201.664 623.172 208.093 623.172 216.057C623.172 222.445 624.997 227.547 628.647 231.363C632.38 235.096 637.357 236.962 643.579 236.962C647.561 236.962 652.124 236.008 657.267 234.1C662.494 232.192 668.467 229.33 675.186 225.514ZM675.186 234.1C666.974 239.742 659.424 243.931 652.539 246.669C645.736 249.323 639.348 250.651 633.375 250.651C623.503 250.651 615.581 247.664 609.608 241.691C603.718 235.718 600.773 227.837 600.773 218.048C600.773 207.18 605.211 198.636 614.088 192.414C623.047 186.192 643.413 179.265 675.186 171.633V163.544C675.186 152.843 673.444 145.418 669.96 141.27C666.476 137.122 660.42 135.048 651.792 135.048C648.557 135.048 645.363 135.38 642.211 136.044C639.058 136.707 635.781 137.703 632.38 139.03V160.434H614.834C611.765 160.434 609.649 159.894 608.488 158.816C607.41 157.654 606.87 155.58 606.87 152.594C606.87 144.298 611.64 137.413 621.181 131.937C630.804 126.462 643.206 123.725 658.387 123.725C671.744 123.725 681.45 126.628 687.506 132.435C693.562 138.242 696.59 147.575 696.59 160.434V234.349L700.945 238.456L714.384 239.7V248.908H678.546L675.186 234.1Z" fill="black"/>
</mask>
<g mask="url(#mask5_3906_95300)">
<path d="M718.908 168.725L596.934 169.52L597.482 253.63L719.456 252.836L718.908 168.725Z" fill="black"/>
<path d="M667.503 95.0252L623.078 126.444L668.042 190.022L712.467 158.603L667.503 95.0252Z" fill="black"/>
</g>
</g>
<defs>
<clipPath id="clip0_3906_95300">
<rect width="1408" height="341" fill="white" transform="translate(0 0.463379)"/>
</clipPath>
</defs>
</svg>
