<svg width="1205" height="66" viewBox="0 0 1205 66" fill="none" xmlns="http://www.w3.org/2000/svg">
<path d="M0.727375 48V46.8363L6.54568 43.9272V4.07178L0.727375 1.16262V-0.00103874H48.0011V1.16262L42.1828 4.07178V43.9272L48.0011 46.8363V48H29.8189V46.8363L35.6372 43.9272V3.99905H13.0913V43.9272L18.9096 46.8363V48H0.727375ZM58.7849 65.5277C57.6697 65.5277 56.9667 65.358 56.6757 65.0186C56.4333 64.7276 56.3121 64.1943 56.3121 63.4185V59.7821L56.603 59.4912H59.9485C61.1607 59.4912 62.0819 59.3699 62.7122 59.1275C63.3426 58.9336 63.9244 58.376 64.4577 57.4548C64.9911 56.582 65.7426 55.1274 66.7123 53.091L69.2578 47.4182L55.9485 18.6903L51.0756 16.4357V15.272H68.4578V16.4357L62.4941 18.6903V19.0539L72.167 40.1453H72.3852L80.5308 19.4903V19.0539L75.0761 16.4357V15.272H89.331V16.4357L83.8763 18.9085L69.5487 53.7456C69.1124 54.8608 68.7245 55.782 68.3851 56.5093C68.0942 57.285 67.7548 58.0123 67.3669 58.6911C66.979 59.4184 66.4214 60.2912 65.6941 61.3094C64.7244 62.7155 63.6335 63.7579 62.4213 64.4367C61.2092 65.164 59.997 65.5277 58.7849 65.5277ZM95.7652 18.763L91.1833 16.4357V15.272H118.602V27.7087H117.438L112.493 18.6903H101.584V44.509L107.62 46.8363V48H91.1833V46.8363L95.7652 44.509V18.763ZM140.426 48.7273C137.226 48.7273 134.414 47.9758 131.99 46.4727C129.614 44.9696 127.747 42.9332 126.39 40.3635C125.081 37.7937 124.426 34.8846 124.426 31.636C124.426 28.3875 125.081 25.4783 126.39 22.9085C127.747 20.3388 129.614 18.3024 131.99 16.7993C134.414 15.2963 137.226 14.5447 140.426 14.5447C143.626 14.5447 146.414 15.2963 148.79 16.7993C151.215 18.3024 153.081 20.3388 154.39 22.9085C155.748 25.4783 156.427 28.3875 156.427 31.636C156.427 34.8846 155.748 37.7937 154.39 40.3635C153.081 42.9332 151.215 44.9696 148.79 46.4727C146.414 47.9758 143.626 48.7273 140.426 48.7273ZM141.445 45.5999C143.384 45.5999 144.984 44.9939 146.245 43.7817C147.505 42.5696 148.427 41.018 149.008 39.1271C149.59 37.1876 149.881 35.1755 149.881 33.0906C149.881 30.5208 149.518 28.0481 148.79 25.6722C148.111 23.2964 146.996 21.357 145.445 19.8539C143.942 18.3509 141.978 17.5993 139.554 17.5993C137.566 17.5993 135.941 18.2054 134.681 19.4176C133.42 20.6297 132.475 22.1813 131.844 24.0722C131.263 25.9632 130.972 27.9753 130.972 30.1087C130.972 32.6785 131.335 35.1512 132.063 37.527C132.79 39.9029 133.929 41.8423 135.481 43.3454C137.032 44.8484 139.02 45.5999 141.445 45.5999ZM168.139 18.763L163.557 16.4357V15.272H177.085C181.497 15.272 185.061 15.8054 187.776 16.8721C190.539 17.9387 191.921 19.8782 191.921 22.6904C191.921 24.4359 191.339 26.0116 190.176 27.4177C189.061 28.8238 187 29.7935 183.994 30.3269C186.612 30.6178 188.648 31.1754 190.103 31.9997C191.606 32.8239 192.673 33.7936 193.303 34.9088C193.933 35.9755 194.249 37.0664 194.249 38.1816C194.249 41.4302 192.794 43.8787 189.885 45.5272C186.976 47.1757 182.515 48 176.503 48H163.557V46.8363L168.139 44.509V18.763ZM179.266 18.3994H173.957V29.236H179.048C181.424 29.236 183.121 28.7269 184.139 27.7087C185.206 26.6904 185.739 25.4298 185.739 23.9268C185.739 22.4237 185.254 21.1388 184.285 20.0721C183.315 18.9569 181.642 18.3994 179.266 18.3994ZM178.976 31.9997H173.957V44.8727H178.685C181.836 44.8727 184.115 44.3636 185.521 43.3454C186.976 42.2787 187.703 40.7756 187.703 38.8362C187.703 36.7028 187 35.03 185.594 33.8179C184.236 32.6057 182.03 31.9997 178.976 31.9997ZM204.503 18.763L199.921 16.4357V15.272H214.904V16.4357L210.322 18.763V37.527L226.322 21.3085V18.763L221.74 16.4357V15.272H236.722V16.4357L232.14 18.763V44.509L236.722 46.8363V48H221.74V46.8363L226.322 44.509V25.745L210.322 41.9635V44.509L214.904 46.8363V48H199.921V46.8363L204.503 44.509V18.763ZM248.254 44.509V18.763L243.672 16.4357V15.272H258.655V16.4357L254.073 18.763V44.5817H268.618V18.763L264.036 16.4357V15.272H279.019V16.4357L274.437 18.763V44.5817H279.6V57.0184H278.437L273.491 48H243.672V46.8363L248.254 44.509ZM328.395 18.763V44.509L332.977 46.8363V48H317.995V46.8363L322.577 44.509V18.763L317.995 16.4357V15.272H332.977V16.4357L328.395 18.763ZM299.886 27.8541C304.443 27.8541 307.958 28.3632 310.431 29.3814C312.904 30.3511 314.625 31.5875 315.595 33.0906C316.565 34.5936 317.05 36.0967 317.05 37.5998C317.05 40.9938 315.595 43.5878 312.686 45.3818C309.777 47.1273 305.316 48 299.304 48H286.358V46.8363L290.94 44.509V18.763L286.358 16.4357V15.272H302.795V16.4357L296.758 18.763V27.8541H299.886ZM301.777 31.3451H296.758V44.5817H301.486C304.637 44.5817 306.916 44.0242 308.322 42.909C309.777 41.7453 310.504 40.1938 310.504 38.2543C310.504 36.024 309.801 34.327 308.395 33.1633C307.037 31.9512 304.831 31.3451 301.777 31.3451ZM362.745 18.763L358.164 16.4357V15.272H371.691C376.103 15.272 379.667 15.8054 382.382 16.8721C385.146 17.9387 386.528 19.8782 386.528 22.6904C386.528 24.4359 385.946 26.0116 384.782 27.4177C383.667 28.8238 381.606 29.7935 378.6 30.3269C381.219 30.6178 383.255 31.1754 384.71 31.9997C386.213 32.8239 387.279 33.7936 387.91 34.9088C388.54 35.9755 388.855 37.0664 388.855 38.1816C388.855 41.4302 387.4 43.8787 384.491 45.5272C381.582 47.1757 377.121 48 371.109 48H358.164V46.8363L362.745 44.509V18.763ZM373.873 18.3994H368.564V29.236H373.655C376.031 29.236 377.728 28.7269 378.746 27.7087C379.812 26.6904 380.346 25.4298 380.346 23.9268C380.346 22.4237 379.861 21.1388 378.891 20.0721C377.922 18.9569 376.249 18.3994 373.873 18.3994ZM373.582 31.9997H368.564V44.8727H373.291C376.443 44.8727 378.722 44.3636 380.128 43.3454C381.582 42.2787 382.309 40.7756 382.309 38.8362C382.309 36.7028 381.606 35.03 380.2 33.8179C378.843 32.6057 376.637 31.9997 373.582 31.9997ZM409.874 48.7273C405.171 48.7273 401.461 47.297 398.746 44.4363C396.031 41.5756 394.673 37.7937 394.673 33.0906C394.673 29.4541 395.401 26.2541 396.855 23.4904C398.358 20.6782 400.37 18.4963 402.892 16.9448C405.413 15.3447 408.249 14.5447 411.401 14.5447C413.34 14.5447 415.231 14.8841 417.074 15.5629C418.916 16.1933 420.322 17.0418 421.292 18.1084C422.068 19.0297 422.456 19.757 422.456 20.2903C422.456 20.9691 422.141 21.5509 421.51 22.0358L418.747 24.3631H418.238L415.765 21.0176C415.037 20.0479 414.116 19.2721 413.001 18.6903C411.934 18.06 410.601 17.7448 409.001 17.7448C406.334 17.7448 404.225 18.8115 402.674 20.9449C401.171 23.0298 400.419 25.9632 400.419 29.7451C400.419 32.0724 400.807 34.2785 401.583 36.3634C402.358 38.3998 403.643 40.0726 405.437 41.3817C407.28 42.6423 409.801 43.2726 413.001 43.2726C415.668 43.2726 418.795 42.3029 422.383 40.3635H422.601V41.0908C421.486 43.1757 419.813 44.9696 417.583 46.4727C415.401 47.9758 412.831 48.7273 409.874 48.7273ZM444.676 48.7273C439.972 48.7273 436.263 47.297 433.548 44.4363C430.833 41.5756 429.475 37.7937 429.475 33.0906C429.475 29.4541 430.178 26.2541 431.584 23.4904C433.039 20.6782 434.93 18.4963 437.257 16.9448C439.633 15.3447 442.203 14.5447 444.967 14.5447C448.797 14.5447 451.803 15.8781 453.985 18.5448C456.215 21.2115 457.33 25.0419 457.33 30.036L456.967 30.3996H435.221C435.269 32.63 435.706 34.7391 436.53 36.727C437.354 38.6665 438.663 40.2423 440.457 41.4544C442.3 42.6666 444.748 43.2726 447.803 43.2726C450.47 43.2726 453.597 42.3029 457.185 40.3635H457.403V41.0908C456.288 43.1757 454.615 44.9696 452.385 46.4727C450.203 47.9758 447.633 48.7273 444.676 48.7273ZM443.803 17.7448C441.476 17.7448 439.56 18.5691 438.057 20.2176C436.603 21.8176 435.706 24.0965 435.366 27.0541H451.803C451.27 23.7571 450.324 21.3812 448.967 19.9267C447.657 18.4721 445.936 17.7448 443.803 17.7448ZM481.431 27.7087V15.272H512.85V27.7087H511.686L506.741 18.6903H500.05V44.509L505.65 46.8363V48H488.631V46.8363L494.231 44.509V18.6903H487.54L482.595 27.7087H481.431ZM518.536 64.7276V63.564L523.118 61.2367V22.8358L518.754 19.0539V18.5448L527.773 14.5447H528.209L528.791 18.9812H529.3C531.143 17.4296 532.912 16.3145 534.609 15.6357C536.306 14.9084 538.149 14.5447 540.137 14.5447C542.61 14.5447 544.791 15.175 546.682 16.4357C548.573 17.6963 550.052 19.4903 551.119 21.8176C552.234 24.0965 552.792 26.8359 552.792 30.036C552.792 34.0118 552.04 37.4058 550.537 40.218C549.082 42.9817 547.094 45.0908 544.573 46.5454C542.052 48 539.288 48.7273 536.282 48.7273C533.567 48.7273 531.118 48.4849 528.936 48V61.2367L534.1 63.564V64.7276H518.536ZM536.137 19.563C534.973 19.563 533.761 19.757 532.5 20.1449C531.288 20.4843 530.1 21.0176 528.936 21.7449V42.1817C530.391 43.3454 531.87 44.1454 533.373 44.5817C534.876 45.0181 536.549 45.2363 538.391 45.2363C540.719 45.2363 542.731 44.2666 544.428 42.3272C546.125 40.3392 546.973 37.0422 546.973 32.436C546.973 29.4299 546.488 26.9814 545.519 25.0904C544.549 23.1995 543.24 21.8176 541.591 20.9449C539.943 20.0236 538.125 19.563 536.137 19.563ZM564.383 18.763L559.801 16.4357V15.272H574.784V16.4357L570.202 18.763V37.527L586.202 21.3085V18.763L581.62 16.4357V15.272H596.602V16.4357L592.02 18.763V44.509L596.602 46.8363V48H581.62V46.8363L586.202 44.509V25.745L570.202 41.9635V44.509L574.784 46.8363V48H559.801V46.8363L564.383 44.509V18.763ZM633.226 46.1091C635.456 46.1091 637.25 45.503 638.608 44.2908C639.965 43.0787 640.644 41.2847 640.644 38.9089C640.644 36.9695 640.014 35.3694 638.753 34.1088C637.492 32.8482 635.48 32.2178 632.717 32.2178H628.571V29.4541H632.789C635.02 29.4541 636.62 28.8723 637.589 27.7087C638.608 26.4965 639.117 24.9934 639.117 23.1995C639.117 21.4055 638.608 19.9994 637.589 18.9812C636.571 17.9145 634.971 17.3812 632.789 17.3812C631.238 17.3812 630.026 17.6963 629.153 18.3266C628.28 18.9085 627.456 19.8297 626.68 21.0903L624.28 24.945H623.262V17.0175C624.668 16.3387 626.219 15.7569 627.916 15.272C629.613 14.7872 631.626 14.5447 633.953 14.5447C635.892 14.5447 637.711 14.7872 639.408 15.272C641.153 15.7569 642.559 16.5811 643.626 17.7448C644.741 18.86 645.299 20.4358 645.299 22.4722C645.299 24.2662 644.741 25.9389 643.626 27.4905C642.511 28.9935 640.45 30.0117 637.444 30.5451C640.644 30.933 643.068 31.8542 644.717 33.3088C646.365 34.7149 647.19 36.5088 647.19 38.6907C647.19 41.9393 645.88 44.4363 643.262 46.1818C640.693 47.8788 637.395 48.7273 633.371 48.7273C630.801 48.7273 628.741 48.5091 627.189 48.0727C625.686 47.6364 624.159 47.0303 622.607 46.2545V38.1089H623.625L625.953 42.109C626.729 43.4181 627.65 44.412 628.716 45.0908C629.783 45.7696 631.286 46.1091 633.226 46.1091ZM664.107 48.7273C661.828 48.7273 659.937 48.0727 658.434 46.7636C656.931 45.406 656.18 43.5393 656.18 41.1635C656.18 38.7877 657.052 36.727 658.798 34.9815C660.592 33.236 663.574 31.8784 667.743 30.9087L674.653 29.3087V23.9995C674.653 22.351 673.974 20.9449 672.616 19.7812C671.307 18.5691 669.804 17.963 668.107 17.963C666.265 17.963 664.98 18.4721 664.253 19.4903C663.525 20.46 663.162 21.7691 663.162 23.4176V25.4541L662.798 25.8177H659.016C658.289 25.8177 657.78 25.6965 657.489 25.4541C657.246 25.2116 657.125 24.654 657.125 23.7813C657.125 22.7146 657.44 21.6237 658.071 20.5085C658.701 19.3933 659.671 18.4236 660.98 17.5993C662.337 16.7266 663.743 15.9993 665.198 15.4175C666.701 14.8356 668.301 14.5447 669.998 14.5447C671.695 14.5447 673.344 14.7872 674.944 15.272C676.592 15.7569 677.926 16.5811 678.944 17.7448C679.962 18.86 680.471 20.4358 680.471 22.4722V43.1272C680.81 43.4666 681.295 43.7575 681.926 43.9999C682.556 44.2423 683.429 44.3636 684.544 44.3636H687.308L687.526 44.509V44.7272C686.944 45.7939 686.071 46.7394 684.908 47.5636C683.792 48.3394 682.41 48.7273 680.762 48.7273C679.259 48.7273 678.023 48.3394 677.053 47.5636C676.132 46.7394 675.477 45.6727 675.089 44.3636H674.653C673.392 45.6242 671.816 46.6666 669.925 47.4909C668.083 48.3152 666.143 48.7273 664.107 48.7273ZM661.852 39.7089C661.852 42.715 663.671 44.2181 667.307 44.2181C668.471 44.2181 669.61 44.0969 670.725 43.8545C671.889 43.612 673.198 43.1757 674.653 42.5453V31.7815C670.774 32.5088 667.937 33.2845 666.143 34.1088C664.349 34.8846 663.186 35.7331 662.652 36.6543C662.119 37.5755 661.852 38.5937 661.852 39.7089ZM707.181 48.7273C702.478 48.7273 698.769 47.297 696.054 44.4363C693.339 41.5756 691.981 37.7937 691.981 33.0906C691.981 29.4541 692.708 26.2541 694.163 23.4904C695.666 20.6782 697.678 18.4963 700.199 16.9448C702.721 15.3447 705.557 14.5447 708.709 14.5447C710.648 14.5447 712.539 14.8841 714.381 15.5629C716.224 16.1933 717.63 17.0418 718.6 18.1084C719.375 19.0297 719.763 19.757 719.763 20.2903C719.763 20.9691 719.448 21.5509 718.818 22.0358L716.054 24.3631H715.545L713.072 21.0176C712.345 20.0479 711.424 19.2721 710.309 18.6903C709.242 18.06 707.909 17.7448 706.309 17.7448C703.642 17.7448 701.533 18.8115 699.981 20.9449C698.478 23.0298 697.727 25.9632 697.727 29.7451C697.727 32.0724 698.114 34.2785 698.89 36.3634C699.666 38.3998 700.951 40.0726 702.745 41.3817C704.587 42.6423 707.109 43.2726 710.309 43.2726C712.975 43.2726 716.103 42.3029 719.691 40.3635H719.909V41.0908C718.794 43.1757 717.121 44.9696 714.891 46.4727C712.709 47.9758 710.139 48.7273 707.181 48.7273ZM725.328 27.7087V15.272H756.747V27.7087H755.583L750.638 18.6903H743.947V44.509L749.547 46.8363V48H732.528V46.8363L738.129 44.509V18.6903H731.437L726.492 27.7087H725.328ZM777.779 48.7273C773.076 48.7273 769.367 47.297 766.652 44.4363C763.937 41.5756 762.579 37.7937 762.579 33.0906C762.579 29.4541 763.282 26.2541 764.688 23.4904C766.143 20.6782 768.034 18.4963 770.361 16.9448C772.737 15.3447 775.307 14.5447 778.07 14.5447C781.901 14.5447 784.907 15.8781 787.089 18.5448C789.319 21.2115 790.434 25.0419 790.434 30.036L790.071 30.3996H768.325C768.373 32.63 768.81 34.7391 769.634 36.727C770.458 38.6665 771.767 40.2423 773.561 41.4544C775.404 42.6666 777.852 43.2726 780.907 43.2726C783.573 43.2726 786.701 42.3029 790.289 40.3635H790.507V41.0908C789.392 43.1757 787.719 44.9696 785.489 46.4727C783.307 47.9758 780.737 48.7273 777.779 48.7273ZM776.907 17.7448C774.579 17.7448 772.664 18.5691 771.161 20.2176C769.706 21.8176 768.81 24.0965 768.47 27.0541H784.907C784.373 23.7571 783.428 21.3812 782.07 19.9267C780.761 18.4721 779.04 17.7448 776.907 17.7448ZM802.244 18.763L797.662 16.4357V15.272H825.08V27.7087H823.917L818.971 18.6903H808.062V44.509L814.098 46.8363V48H797.662V46.8363L802.244 44.509V18.763ZM835.341 18.763L830.759 16.4357V15.272H845.741V16.4357L841.159 18.763V29.5269H856.432V18.763L851.85 16.4357V15.272H866.832V16.4357L862.251 18.763V44.509L866.832 46.8363V48H851.85V46.8363L856.432 44.509V32.9451H841.159V44.509L845.741 46.8363V48H830.759V46.8363L835.341 44.509V18.763ZM876.345 65.5277C875.23 65.5277 874.527 65.358 874.236 65.0186C873.994 64.7276 873.872 64.1943 873.872 63.4185V59.7821L874.163 59.4912H877.509C878.721 59.4912 879.642 59.3699 880.273 59.1275C880.903 58.9336 881.485 58.376 882.018 57.4548C882.551 56.582 883.303 55.1274 884.273 53.091L886.818 47.4182L873.509 18.6903L868.636 16.4357V15.272H886.018V16.4357L880.054 18.6903V19.0539L889.727 40.1453H889.945L898.091 19.4903V19.0539L892.636 16.4357V15.272H906.891V16.4357L901.437 18.9085L887.109 53.7456C886.673 54.8608 886.285 55.782 885.945 56.5093C885.654 57.285 885.315 58.0123 884.927 58.6911C884.539 59.4184 883.982 60.2912 883.254 61.3094C882.285 62.7155 881.194 63.7579 879.982 64.4367C878.769 65.164 877.557 65.5277 876.345 65.5277ZM919.726 20.5085C919.726 26.2298 919.435 31.0784 918.853 35.0543C918.32 39.0301 917.423 42.1574 916.162 44.4363C915.386 45.8424 914.465 46.9091 913.398 47.6364C912.332 48.3636 911.071 48.7273 909.616 48.7273C908.598 48.7273 907.944 48.5818 907.653 48.2909C907.362 48 907.216 47.4424 907.216 46.6182V42.9817L907.507 42.6908H908.598C910.732 42.6908 912.332 41.818 913.398 40.0726C914.465 38.3271 915.168 35.8058 915.507 32.5088C915.895 29.2117 916.089 25.2116 916.089 20.5085V18.763L911.071 16.4357V15.272H940.817V16.4357L936.235 18.763V44.509L940.817 46.8363V48H925.835V46.8363L930.417 44.509V18.6903H919.726V20.5085ZM952.389 18.763L947.807 16.4357V15.272H962.789V16.4357L958.207 18.763V37.527L974.207 21.3085V18.763L969.626 16.4357V15.272H984.608V16.4357L980.026 18.763V44.509L984.608 46.8363V48H969.626V46.8363L974.207 44.509V25.745L958.207 41.9635V44.509L962.789 46.8363V48H947.807V46.8363L952.389 44.509V18.763ZM1006.9 48.7273C1002.2 48.7273 998.491 47.297 995.776 44.4363C993.061 41.5756 991.703 37.7937 991.703 33.0906C991.703 29.4541 992.431 26.2541 993.885 23.4904C995.388 20.6782 997.4 18.4963 999.922 16.9448C1002.44 15.3447 1005.28 14.5447 1008.43 14.5447C1010.37 14.5447 1012.26 14.8841 1014.1 15.5629C1015.95 16.1933 1017.35 17.0418 1018.32 18.1084C1019.1 19.0297 1019.49 19.757 1019.49 20.2903C1019.49 20.9691 1019.17 21.5509 1018.54 22.0358L1015.78 24.3631H1015.27L1012.79 21.0176C1012.07 20.0479 1011.15 19.2721 1010.03 18.6903C1008.96 18.06 1007.63 17.7448 1006.03 17.7448C1003.36 17.7448 1001.26 18.8115 999.704 20.9449C998.2 23.0298 997.449 25.9632 997.449 29.7451C997.449 32.0724 997.837 34.2785 998.613 36.3634C999.388 38.3998 1000.67 40.0726 1002.47 41.3817C1004.31 42.6423 1006.83 43.2726 1010.03 43.2726C1012.7 43.2726 1015.83 42.3029 1019.41 40.3635H1019.63V41.0908C1018.52 43.1757 1016.84 44.9696 1014.61 46.4727C1012.43 47.9758 1009.86 48.7273 1006.9 48.7273ZM1039.89 27.8541C1044.44 27.8541 1047.96 28.3632 1050.43 29.3814C1052.91 30.3511 1054.63 31.5875 1055.6 33.0906C1056.57 34.5936 1057.05 36.0967 1057.05 37.5998C1057.05 40.9938 1055.6 43.5878 1052.69 45.3818C1049.78 47.1273 1045.32 48 1039.31 48H1026.36V46.8363L1030.94 44.509V18.763L1026.36 16.4357V15.272H1042.8V16.4357L1036.76 18.763V27.8541H1039.89ZM1041.78 31.3451H1036.76V44.5817H1041.49C1044.64 44.5817 1046.92 44.0242 1048.32 42.909C1049.78 41.7453 1050.51 40.1938 1050.51 38.2543C1050.51 36.024 1049.8 34.327 1048.4 33.1633C1047.04 31.9512 1044.83 31.3451 1041.78 31.3451ZM1085.49 18.763L1080.91 16.4357V15.272H1095.89V16.4357L1091.31 18.763V29.5269H1106.58V18.763L1102 16.4357V15.272H1116.98V16.4357L1112.4 18.763V44.509L1116.98 46.8363V48H1102V46.8363L1106.58 44.509V32.9451H1091.31V44.509L1095.89 46.8363V48H1080.91V46.8363L1085.49 44.509V18.763ZM1139.29 48.7273C1134.59 48.7273 1130.88 47.297 1128.17 44.4363C1125.45 41.5756 1124.09 37.7937 1124.09 33.0906C1124.09 29.4541 1124.8 26.2541 1126.2 23.4904C1127.66 20.6782 1129.55 18.4963 1131.87 16.9448C1134.25 15.3447 1136.82 14.5447 1139.58 14.5447C1143.41 14.5447 1146.42 15.8781 1148.6 18.5448C1150.83 21.2115 1151.95 25.0419 1151.95 30.036L1151.58 30.3996H1129.84C1129.89 32.63 1130.32 34.7391 1131.15 36.727C1131.97 38.6665 1133.28 40.2423 1135.07 41.4544C1136.92 42.6666 1139.37 43.2726 1142.42 43.2726C1145.09 43.2726 1148.21 42.3029 1151.8 40.3635H1152.02V41.0908C1150.91 43.1757 1149.23 44.9696 1147 46.4727C1144.82 47.9758 1142.25 48.7273 1139.29 48.7273ZM1138.42 17.7448C1136.09 17.7448 1134.18 18.5691 1132.67 20.2176C1131.22 21.8176 1130.32 24.0965 1129.98 27.0541H1146.42C1145.89 23.7571 1144.94 21.3812 1143.58 19.9267C1142.27 18.4721 1140.55 17.7448 1138.42 17.7448ZM1164.06 48.3636C1162.85 48.3636 1161.81 47.9273 1160.94 47.0545C1160.06 46.1818 1159.63 45.1393 1159.63 43.9272C1159.63 42.715 1160.06 41.6726 1160.94 40.7998C1161.81 39.9271 1162.85 39.4907 1164.06 39.4907C1165.28 39.4907 1166.32 39.9271 1167.19 40.7998C1168.07 41.6726 1168.5 42.715 1168.5 43.9272C1168.5 45.1393 1168.07 46.1818 1167.19 47.0545C1166.32 47.9273 1165.28 48.3636 1164.06 48.3636ZM1182.25 48.3636C1181.04 48.3636 1179.99 47.9273 1179.12 47.0545C1178.25 46.1818 1177.81 45.1393 1177.81 43.9272C1177.81 42.715 1178.25 41.6726 1179.12 40.7998C1179.99 39.9271 1181.04 39.4907 1182.25 39.4907C1183.46 39.4907 1184.5 39.9271 1185.37 40.7998C1186.25 41.6726 1186.68 42.715 1186.68 43.9272C1186.68 45.1393 1186.25 46.1818 1185.37 47.0545C1184.5 47.9273 1183.46 48.3636 1182.25 48.3636ZM1200.43 48.3636C1199.22 48.3636 1198.17 47.9273 1197.3 47.0545C1196.43 46.1818 1195.99 45.1393 1195.99 43.9272C1195.99 42.715 1196.43 41.6726 1197.3 40.7998C1198.17 39.9271 1199.22 39.4907 1200.43 39.4907C1201.64 39.4907 1202.68 39.9271 1203.56 40.7998C1204.43 41.6726 1204.87 42.715 1204.87 43.9272C1204.87 45.1393 1204.43 46.1818 1203.56 47.0545C1202.68 47.9273 1201.64 48.3636 1200.43 48.3636Z" fill="#1D1D1D"/>
</svg>
