<svg width="39" height="25" viewBox="0 0 39 25" fill="none" xmlns="http://www.w3.org/2000/svg">
<path d="M15.2291 16.7617L17.577 23.6752H21.0663L12.5224 0H8.90264L0 23.6752H3.29365L5.77204 16.7617H15.2291ZM6.75035 13.9573L10.5332 3.52192H10.5984L14.0877 13.9573H6.75035Z" fill="white"/>
<path d="M26.2132 11.6745C26.3762 10.3701 26.8328 8.34826 30.1264 8.34826C32.8657 8.34826 34.1375 9.22874 34.1375 11.1201C34.1375 12.9137 33.8114 13.2724 29.2785 13.6311C23.213 14.0877 22.6912 17.1205 22.6912 19.1749C22.6912 22.1751 24.9087 24.1643 28.072 24.1643C31.4308 24.1643 33.1592 22.5664 34.3005 21.3598C34.431 22.6642 34.7897 24.0013 37.3659 24.0013C38.0181 24.0013 38.4421 23.8056 38.9312 23.6752V21.5555C38.6051 21.6207 38.2464 21.6859 37.9855 21.6859C37.3985 21.6859 37.0398 21.3272 37.0398 20.6098V10.7614C37.0398 6.32642 32.0178 5.93509 30.6482 5.93509C26.3762 5.93509 23.5391 7.533 23.5391 11.6745H26.2132ZM34.1375 17.7074C34.1375 20.0228 31.5287 21.7511 28.822 21.7511C26.6697 21.7511 25.6588 20.6098 25.6588 18.7184C25.6588 16.5335 27.9415 16.1422 29.3764 15.9465C32.9635 15.4899 33.6809 15.2291 34.1375 14.8703V17.7074Z" fill="white"/>
</svg>
