<svg width="2400" height="724" viewBox="0 0 2400 724" fill="none" xmlns="http://www.w3.org/2000/svg">
<path d="M1821 712.248V636.969H1885.52V647.723H1896.28V679.985H1874.77V690.739H1885.52V701.493H1896.28V712.248H1864.02V701.493H1853.26V690.739H1842.51V712.248H1821ZM1842.51 679.985H1864.02V669.231H1874.77V647.723H1842.51V679.985Z" fill="white"/>
<path d="M1915.55 712.248V701.493H1904.8V669.231H1915.55V658.477H1969.32V669.231H1980.07V690.739H1926.3V701.493H1969.32V712.248H1915.55ZM1926.3 679.985H1958.57V669.231H1926.3V679.985Z" fill="white"/>
<path d="M1999.35 723.002V712.248H2042.36V701.493H1999.35V690.739H1988.59V669.231H1999.35V658.477H2063.87V712.248H2053.12V723.002H1999.35ZM2010.1 690.739H2042.36V669.231H2010.1V690.739Z" fill="white"/>
<path d="M2083.14 712.248V701.493H2072.39V658.477H2093.9V701.493H2126.16V658.477H2147.67V712.248H2083.14Z" fill="white"/>
<path d="M2166.94 712.248V701.493H2188.45V647.723H2177.69V636.969H2209.95V701.493H2231.46V712.248H2166.94Z" fill="white"/>
<path d="M2250.73 712.248V701.493H2239.98V690.739H2250.73V679.985H2293.75V669.231H2250.73V658.477H2304.5V669.231H2315.26V712.248H2250.73ZM2261.49 701.493H2293.75V690.739H2261.49V701.493Z" fill="white"/>
<path d="M2356.04 669.231H2366.79V679.985H2356.04V712.248H2334.53V658.477H2356.04V669.231ZM2399.05 658.477V669.231H2366.79V658.477H2399.05Z" fill="white"/>
<path d="M101.771 713.23V611.459H0V509.688H101.771V407.916H508.856V306.145H101.771V204.374H610.627V306.145H712.398V713.23H101.771ZM203.542 611.459H508.856V509.688H203.542V611.459Z" fill="white"/>
<path d="M793 713.23V204.374H894.772V102.603H996.543V0.832031H1301.86V102.603H1403.63V204.374H1505.4V713.23H1301.86V509.688H996.543V713.23H793ZM996.543 407.916H1301.86V204.374H1200.08V102.603H1098.31V204.374H996.543V407.916Z" fill="white"/>
</svg>
