<svg width="1664" height="222" viewBox="0 0 1664 222" fill="none" xmlns="http://www.w3.org/2000/svg">
<path d="M6.41384 216.849C4.3777 216.849 2.74879 216.34 1.5271 215.322C0.509035 214.507 0 213.489 0 212.268C0 209.213 2.23975 207.075 6.71926 205.854C13.6421 204.021 18.5289 201.883 21.3795 199.44C24.4337 196.996 25.9608 192.517 25.9608 186.001V47.0348C25.9608 40.5192 24.6373 35.8361 21.9903 32.9855C19.3433 30.1349 14.3548 27.8951 7.02468 26.2662C4.3777 25.6554 2.54517 24.8409 1.5271 23.8228C0.509035 22.6012 0 21.2777 0 19.8524C0 18.6307 0.610842 17.6126 1.83253 16.7982C3.05421 15.7801 4.68312 15.2711 6.71926 15.2711C11.8096 15.2711 17.0018 15.3729 22.2957 15.5765C27.5897 15.7801 32.7818 16.0855 37.8722 16.4927C42.9625 16.6963 47.8493 16.7982 52.5324 16.7982C63.1203 16.7982 74.4209 16.6963 86.4341 16.4927C98.4473 16.2891 109.137 16.0855 118.503 15.8819C125.019 15.8819 130.415 15.5765 134.691 14.9656C138.967 14.1512 141.512 13.7439 142.326 13.7439C143.751 13.7439 145.279 14.253 146.907 15.2711C148.74 16.0855 149.758 17.5108 149.962 19.5469C150.776 26.877 151.794 34.0035 153.016 40.9264C154.238 47.8493 154.848 53.9577 154.848 59.2517C154.848 61.0842 154.441 62.5095 153.627 63.5276C152.812 64.5456 151.896 65.0547 150.878 65.0547C149.86 65.0547 148.74 64.6474 147.518 63.833C146.5 63.0185 145.686 61.7968 145.075 60.1679C143.039 55.0776 141.206 50.6999 139.577 47.0348C137.948 43.3698 136.116 40.4174 134.08 38.1776C131.636 35.9379 128.684 33.7999 125.223 31.7638C121.761 29.7277 117.383 28.7096 112.089 28.7096H89.1829C84.7034 28.7096 80.8347 29.9313 77.5769 32.3746C74.3191 34.6144 72.6902 37.8722 72.6902 42.1481V99.8726C72.6902 102.316 73.4028 104.149 74.8281 105.37C76.2534 106.592 78.086 107.203 80.3257 107.203H107.203C112.497 107.203 116.264 105.472 118.503 102.011C120.947 98.3455 123.085 93.9678 124.917 88.8775C126.342 85.0088 128.379 83.0745 131.026 83.0745C132.044 83.0745 132.96 83.6853 133.774 84.907C134.589 85.9251 134.894 87.554 134.691 89.7938C134.487 92.2371 134.283 94.8841 134.08 97.7347C133.876 100.585 133.673 103.436 133.469 106.286C133.469 109.137 133.469 111.886 133.469 114.533C133.469 116.976 133.469 119.623 133.469 122.474C133.673 125.324 133.774 128.175 133.774 131.026C133.978 133.876 134.182 136.625 134.385 139.272C134.792 142.123 134.691 144.26 134.08 145.686C133.469 146.907 132.553 147.518 131.331 147.518C128.073 147.518 125.732 144.871 124.306 139.577C122.474 133.469 120.438 128.786 118.198 125.528C115.958 122.27 112.802 120.641 108.73 120.641H80.3257C77.8823 120.641 75.948 121.252 74.5227 122.474C73.301 123.492 72.6902 125.223 72.6902 127.666V185.696C72.6902 191.804 74.0137 196.08 76.6607 198.524C79.3076 200.967 83.3799 202.189 88.8775 202.189H115.144C119.623 202.189 123.899 201.68 127.971 200.662C132.044 199.643 135.505 197.913 138.356 195.469C141.817 192.619 144.973 189.056 147.824 184.78C150.674 180.504 153.321 175.922 155.765 171.036C156.579 169.61 157.394 168.694 158.208 168.287C159.226 167.676 160.346 167.371 161.568 167.371C162.586 167.371 163.298 167.982 163.706 169.203C164.316 170.425 164.622 171.748 164.622 173.174C164.622 176.635 164.113 180.504 163.095 184.78C162.077 189.056 160.753 193.637 159.124 198.524C157.699 203.207 156.274 207.89 154.848 212.573C154.441 213.998 153.525 215.016 152.1 215.627C150.878 216.238 149.554 216.543 148.129 216.543C145.482 216.543 140.494 216.442 133.164 216.238C126.037 216.238 117.587 216.136 107.814 215.933C98.0401 215.729 87.9612 215.525 77.5769 215.322C67.1926 215.322 57.5209 215.322 48.5619 215.322C44.4897 215.322 40.0101 215.424 35.1234 215.627C30.2367 215.831 25.2481 216.034 20.1578 216.238C15.271 216.645 10.6897 216.849 6.41384 216.849Z" fill="#EDEEEA"/>
<path d="M168.652 216.849C166.819 216.849 165.292 216.34 164.071 215.322C163.053 214.507 162.544 213.489 162.544 212.268C162.544 209.213 164.783 207.075 169.263 205.854C176.186 204.021 181.072 201.883 183.923 199.44C186.977 196.996 188.504 192.517 188.504 186.001V47.0348C188.504 40.5192 187.181 35.8361 184.534 32.9855C181.887 29.9313 177 27.6915 169.874 26.2662C167.227 25.6554 165.394 24.8409 164.376 23.8228C163.358 22.6012 162.849 21.2777 162.849 19.8524C162.849 18.6307 163.46 17.6126 164.682 16.7982C165.903 15.7801 167.43 15.2711 169.263 15.2711C175.778 15.2711 181.174 15.4747 185.45 15.8819C189.726 16.2891 193.697 16.6963 197.362 17.1036C201.23 17.3072 205.71 17.409 210.8 17.409C215.483 17.409 219.759 17.2054 223.628 16.7982C227.496 16.1873 231.772 15.6783 236.455 15.2711C241.342 14.8638 247.247 14.6602 254.17 14.6602C278.4 14.6602 296.725 18.1217 309.146 25.0445C321.77 31.7638 328.082 43.4716 328.082 60.1679C328.082 66.48 326.656 72.4866 323.806 78.1878C320.955 83.6853 317.29 88.2667 312.811 91.9317C309.553 94.7823 306.091 97.1239 302.426 98.9564C298.965 100.789 294.994 102.316 290.515 103.538C289.7 103.741 289.293 104.25 289.293 105.065C289.293 105.879 289.7 106.388 290.515 106.592C295.809 107.814 301.306 109.442 307.008 111.479C312.709 113.311 318.003 116.06 322.89 119.725C327.98 123.39 331.95 128.175 334.801 134.08C337.855 139.781 339.382 147.111 339.382 156.07C339.382 167.472 337.55 176.533 333.885 183.253C330.423 189.768 326.147 194.757 321.057 198.218C316.17 201.68 311.589 204.53 307.313 206.77C300.594 210.028 292.958 212.471 284.407 214.1C275.855 215.729 265.674 216.543 253.864 216.543C247.145 216.543 240.324 216.34 233.401 215.933C226.682 215.525 219.555 215.322 212.022 215.322C207.746 215.322 203.063 215.424 197.972 215.627C192.882 215.831 187.792 216.034 182.701 216.238C177.815 216.645 173.131 216.849 168.652 216.849ZM254.17 199.745C260.278 199.745 265.979 197.913 271.273 194.248C276.771 190.583 281.047 185.696 284.101 179.587C287.359 173.275 288.988 166.149 288.988 158.208C288.988 151.285 288.072 145.482 286.239 140.799C284.61 136.116 282.574 132.349 280.131 129.498C277.891 126.648 275.753 124.51 273.717 123.085C272.088 121.659 269.135 120.234 264.86 118.809C260.787 117.18 255.697 116.365 249.589 116.365C246.127 116.365 242.869 117.282 239.815 119.114C236.964 120.743 235.539 123.186 235.539 126.444V180.198C235.539 186.918 237.168 191.906 240.426 195.164C243.684 198.218 248.265 199.745 254.17 199.745ZM247.756 102.621C252.643 102.621 257.122 102.112 261.195 101.094C265.267 99.8726 269.441 97.6329 273.717 94.3751C275.142 92.9498 277.076 90.0992 279.52 85.8233C282.167 81.3438 283.49 74.9299 283.49 66.5818C283.49 58.03 282.37 50.9035 280.131 45.2023C277.891 39.5011 274.429 35.2252 269.746 32.3746C265.267 29.524 259.26 28.0987 251.726 28.0987C246.025 28.0987 241.851 29.2186 239.204 31.4584C236.761 33.4945 235.539 36.6505 235.539 40.9264V91.9317C235.539 96.004 236.964 98.8546 239.815 100.483C242.666 101.909 245.313 102.621 247.756 102.621Z" fill="#EDEEEA"/>
<path d="M512.336 219.598C497.676 219.598 483.831 217.256 470.799 212.573C457.972 207.686 446.569 200.763 436.592 191.804C426.819 182.845 419.183 172.257 413.685 160.041C408.188 147.824 405.439 134.283 405.439 119.42C405.439 105.37 408.086 91.9317 413.38 79.104C418.878 66.2763 426.615 54.874 436.592 44.8969C446.773 34.9198 458.99 27.0806 473.243 21.3795C487.496 15.4747 503.276 12.5223 520.583 12.5223C524.859 12.5223 529.745 12.8277 535.243 13.4385C540.944 14.0494 546.747 14.8638 552.652 15.8819C558.557 16.9 564.054 18.1217 569.145 19.5469C574.439 20.7686 578.715 22.0921 581.972 23.5174C583.805 24.1283 585.23 25.0445 586.248 26.2662C587.266 27.2843 587.877 28.8114 588.081 30.8475C589.099 37.974 589.913 44.6933 590.524 51.0053C591.339 57.3173 591.746 62.6113 591.746 66.8872C591.746 68.9233 591.237 70.4504 590.219 71.4685C589.404 72.4866 588.183 72.9956 586.554 72.9956C584.11 72.9956 582.278 72.3848 581.056 71.1631C580.038 69.9414 579.122 68.4143 578.307 66.5818C576.475 62.7131 574.337 58.7426 571.894 54.6704C569.654 50.3945 566.905 46.5258 563.647 43.0644C561.204 40.621 558.251 38.2794 554.79 36.0397C551.532 33.7999 547.46 31.9674 542.573 30.5421C537.686 29.1168 531.782 28.4041 524.859 28.4041C513.864 28.4041 504.09 30.6439 495.538 35.1234C486.987 39.6029 479.758 45.8131 473.853 53.7541C468.152 61.4914 463.775 70.3486 460.72 80.3257C457.87 90.0992 456.444 100.483 456.444 111.479C456.444 125.121 457.768 137.643 460.415 149.045C463.062 160.244 466.931 169.916 472.021 178.06C477.111 186.205 483.423 192.517 490.957 196.996C498.491 201.272 507.246 203.41 517.223 203.41C522.517 203.41 526.793 202.494 530.051 200.662C533.512 198.829 536.261 197.2 538.297 195.775C540.333 194.146 541.962 191.601 543.184 188.139C544.609 184.474 545.322 180.402 545.322 175.922C545.526 174.09 545.627 171.545 545.627 168.287C545.627 165.029 545.627 161.771 545.627 158.513C545.831 155.256 545.933 152.71 545.933 150.878C545.933 148.638 545.424 146.602 544.406 144.77C543.591 142.733 541.86 141.206 539.214 140.188C537.381 138.967 535.243 137.948 532.8 137.134C530.56 136.32 528.218 135.709 525.775 135.301C523.535 134.691 521.499 134.182 519.667 133.774C518.038 133.571 516.409 132.858 514.78 131.636C513.151 130.415 512.336 128.888 512.336 127.055C512.336 125.63 513.049 124.51 514.474 123.695C515.9 122.881 517.325 122.474 518.75 122.474C523.433 122.474 528.524 122.576 534.021 122.779C539.723 122.983 545.322 123.288 550.82 123.695C556.317 123.899 561.204 124.001 565.48 124.001C571.385 124.001 577.595 123.797 584.11 123.39C590.83 122.983 597.244 122.779 603.352 122.779C604.777 122.779 605.999 123.186 607.017 124.001C608.035 124.612 608.544 125.732 608.544 127.361C608.544 129.397 607.933 130.924 606.712 131.942C605.693 132.756 604.268 133.367 602.436 133.774C596.735 135.2 592.866 137.032 590.83 139.272C588.794 141.512 587.368 144.668 586.554 148.74C585.739 153.219 585.129 157.19 584.721 160.651C584.518 163.909 584.416 167.574 584.416 171.647V181.42C584.416 182.438 584.823 183.456 585.638 184.474C586.452 185.492 587.368 186.51 588.386 187.528C589.201 188.547 589.913 189.565 590.524 190.583C591.135 191.601 591.44 192.721 591.44 193.942C591.44 195.164 591.033 196.487 590.219 197.913C589.404 199.134 587.877 199.949 585.638 200.356C584.009 200.56 581.158 201.68 577.086 203.716C573.013 205.548 567.923 207.788 561.815 210.435C555.706 212.878 548.478 215.016 540.13 216.849C531.782 218.681 522.517 219.598 512.336 219.598Z" fill="#EDEEEA"/>
<path d="M643.286 219.598C637.788 219.598 632.698 218.274 628.015 215.627C623.331 212.98 619.565 209.519 616.714 205.243C614.067 200.967 612.744 196.284 612.744 191.194C612.744 184.271 614.882 178.468 619.157 173.784C623.637 169.101 630.153 164.927 638.704 161.262L665.887 149.351C669.959 147.518 672.402 145.889 673.217 144.464C674.235 143.039 674.744 140.392 674.744 136.523L675.049 119.114C675.253 113.413 674.235 108.933 671.995 105.676C669.755 102.214 666.396 100.483 661.916 100.483C659.269 100.483 656.622 101.094 653.975 102.316C651.328 103.334 649.292 104.556 647.867 105.981C647.256 106.796 646.747 107.814 646.34 109.035C646.136 110.053 646.034 111.173 646.034 112.395C646.034 113.617 646.136 115.144 646.34 116.976C646.543 118.605 646.645 120.03 646.645 121.252C646.645 122.474 645.016 124.103 641.759 126.139C638.501 127.971 634.734 129.702 630.458 131.331C626.182 132.756 622.517 133.469 619.463 133.469C618.038 133.469 616.714 132.858 615.492 131.636C614.474 130.415 613.965 128.888 613.965 127.055C613.965 123.797 615.085 120.641 617.325 117.587C619.565 114.329 623.23 110.664 628.32 106.592C633.614 102.112 639.417 98.1419 645.729 94.6805C652.041 91.219 658.251 88.4703 664.36 86.4341C670.672 84.398 675.966 83.3799 680.242 83.3799C691.237 83.3799 699.992 86.9432 706.508 94.0697C713.023 100.993 716.078 110.257 715.67 121.863L714.143 183.558C713.94 188.241 714.754 192.212 716.587 195.469C718.419 198.727 720.659 200.356 723.306 200.356C727.175 200.356 730.534 199.033 733.385 196.386C733.996 195.775 734.607 195.469 735.217 195.469C736.235 195.469 737.05 195.775 737.661 196.386C738.475 196.997 738.882 197.811 738.882 198.829C738.882 201.272 737.05 204.428 733.385 208.297C729.516 211.962 725.444 214.711 721.168 216.543C716.892 218.58 712.413 219.598 707.729 219.598C696.327 219.598 686.859 213.795 679.325 202.189H678.715C671.995 208.297 665.887 212.675 660.389 215.322C655.095 218.172 649.394 219.598 643.286 219.598ZM661.611 199.745C663.851 199.745 665.683 199.44 667.108 198.829C668.534 198.015 669.959 196.793 671.384 195.164C671.995 194.35 672.504 193.331 672.912 192.11C673.319 190.684 673.522 189.056 673.522 187.223L674.439 165.233C674.439 163.197 674.133 161.873 673.522 161.262C672.911 160.651 672.199 160.346 671.384 160.346C670.977 160.346 670.468 160.448 669.857 160.651C669.246 160.855 668.534 161.16 667.719 161.568C661.815 164.418 657.437 167.371 654.586 170.425C651.736 173.275 650.31 177.959 650.31 184.474C650.31 190.379 651.532 194.451 653.975 196.691C656.419 198.727 658.964 199.745 661.611 199.745Z" fill="#EDEEEA"/>
<path d="M738.417 216.238C736.788 216.238 735.363 215.933 734.141 215.322C732.92 214.507 732.309 213.387 732.309 211.962C732.309 210.333 732.92 209.112 734.141 208.297C735.363 207.279 737.094 206.465 739.333 205.854C743.813 204.428 746.765 202.901 748.191 201.272C749.82 199.643 750.634 197.302 750.634 194.248V124.001C750.634 119.725 750.023 116.264 748.801 113.617C747.783 110.766 745.34 108.832 741.471 107.814C740.453 107.406 739.537 106.897 738.723 106.286C737.908 105.472 737.501 104.149 737.501 102.316C737.501 99.4654 738.723 97.7347 741.166 97.1238C747.682 95.4949 754.808 93.357 762.545 90.71C770.486 88.063 777.206 85.416 782.703 82.7691C783.721 81.9546 784.943 81.242 786.368 80.6311C787.997 79.8167 789.117 79.4094 789.728 79.4094C791.56 79.4094 792.477 80.5293 792.477 82.7691C792.477 83.7871 792.375 85.9251 792.171 89.1829C792.171 92.2371 792.069 95.3931 791.866 98.651C791.866 101.909 791.764 104.658 791.56 106.897C791.56 108.73 791.968 109.646 792.782 109.646C795.836 105.37 799.4 101.196 803.472 97.1238C807.748 93.0516 812.329 89.692 817.216 87.045C822.103 84.398 826.887 83.0745 831.571 83.0745C838.697 83.0745 843.686 84.398 846.536 87.045C849.59 89.692 851.118 93.1534 851.118 97.4293C851.118 100.483 850.201 103.843 848.369 107.508C846.74 111.173 844.602 114.329 841.955 116.976C839.308 119.623 836.457 120.947 833.403 120.947C831.571 120.947 829.636 120.539 827.6 119.725C825.564 118.707 823.528 117.689 821.492 116.671C819.456 115.856 817.419 115.042 815.383 114.227C813.551 113.209 811.82 112.7 810.191 112.7C804.897 112.7 800.316 114.635 796.447 118.503C792.579 122.372 790.644 130.109 790.644 141.715V191.499C790.644 195.571 791.866 198.625 794.309 200.662C796.956 202.494 801.13 204.225 806.831 205.854C809.071 206.465 810.7 207.279 811.718 208.297C812.94 209.112 813.551 210.333 813.551 211.962C813.551 214.813 811.82 216.238 808.359 216.238C802.25 216.238 795.938 215.933 789.422 215.322C782.907 214.915 777.002 214.711 771.708 214.711C768.247 214.711 764.683 214.813 761.018 215.016C757.557 215.22 753.892 215.424 750.023 215.627C746.358 216.034 742.489 216.238 738.417 216.238Z" fill="#EDEEEA"/>
<path d="M879.235 219.598C873.738 219.598 868.647 218.274 863.964 215.627C859.281 212.98 855.514 209.519 852.664 205.243C850.017 200.967 848.693 196.284 848.693 191.194C848.693 184.271 850.831 178.468 855.107 173.784C859.587 169.101 866.102 164.927 874.654 161.262L901.836 149.351C905.909 147.518 908.352 145.889 909.167 144.464C910.185 143.039 910.694 140.392 910.694 136.523L910.999 119.114C911.203 113.413 910.185 108.933 907.945 105.676C905.705 102.214 902.346 100.483 897.866 100.483C895.219 100.483 892.572 101.094 889.925 102.316C887.278 103.334 885.242 104.556 883.817 105.981C883.206 106.796 882.697 107.814 882.29 109.035C882.086 110.053 881.984 111.173 881.984 112.395C881.984 113.617 882.086 115.144 882.29 116.976C882.493 118.605 882.595 120.03 882.595 121.252C882.595 122.474 880.966 124.103 877.708 126.139C874.45 127.971 870.684 129.702 866.408 131.331C862.132 132.756 858.467 133.469 855.412 133.469C853.987 133.469 852.664 132.858 851.442 131.636C850.424 130.415 849.915 128.888 849.915 127.055C849.915 123.797 851.035 120.641 853.275 117.587C855.514 114.329 859.179 110.664 864.27 106.592C869.564 102.112 875.367 98.1419 881.679 94.6805C887.991 91.219 894.201 88.4703 900.309 86.4341C906.621 84.398 911.915 83.3799 916.191 83.3799C927.186 83.3799 935.942 86.9432 942.457 94.0697C948.973 100.993 952.027 110.257 951.62 121.863L950.093 183.558C949.889 188.241 950.704 192.212 952.536 195.469C954.369 198.727 956.609 200.356 959.256 200.356C963.124 200.356 966.484 199.033 969.334 196.386C969.945 195.775 970.556 195.469 971.167 195.469C972.185 195.469 973 195.775 973.61 196.386C974.425 196.997 974.832 197.811 974.832 198.829C974.832 201.272 973 204.428 969.334 208.297C965.466 211.962 961.394 214.711 957.118 216.543C952.842 218.58 948.362 219.598 943.679 219.598C932.277 219.598 922.809 213.795 915.275 202.189H914.664C907.945 208.297 901.836 212.675 896.339 215.322C891.045 218.172 885.344 219.598 879.235 219.598ZM897.561 199.745C899.8 199.745 901.633 199.44 903.058 198.829C904.483 198.015 905.909 196.793 907.334 195.164C907.945 194.35 908.454 193.331 908.861 192.11C909.268 190.684 909.472 189.056 909.472 187.223L910.388 165.233C910.388 163.197 910.083 161.873 909.472 161.262C908.861 160.651 908.149 160.346 907.334 160.346C906.927 160.346 906.418 160.448 905.807 160.651C905.196 160.855 904.483 161.16 903.669 161.568C897.764 164.418 893.387 167.371 890.536 170.425C887.685 173.275 886.26 177.959 886.26 184.474C886.26 190.379 887.482 194.451 889.925 196.691C892.368 198.727 894.914 199.745 897.561 199.745Z" fill="#EDEEEA"/>
<path d="M974.061 216.238C972.636 216.238 971.211 215.933 969.785 215.322C968.564 214.507 967.953 213.387 967.953 211.962C967.953 210.333 968.666 209.112 970.091 208.297C971.516 207.279 973.145 206.465 974.978 205.854C978.032 204.836 980.679 203.716 982.919 202.494C985.362 201.069 986.584 198.32 986.584 194.248V124.306C986.584 119.827 985.973 116.06 984.751 113.006C983.529 109.748 980.984 107.814 977.116 107.203C976.301 106.999 975.487 106.49 974.672 105.676C974.061 104.861 973.756 103.538 973.756 101.705C973.756 98.8546 974.774 97.1239 976.81 96.513C981.901 95.2913 987.194 93.866 992.692 92.2371C998.393 90.4046 1003.79 88.5721 1008.88 86.7395C1014.17 84.7034 1018.75 82.5655 1022.62 80.3257C1023.23 80.1221 1023.84 79.8167 1024.46 79.4094C1025.07 79.0022 1025.68 78.7986 1026.29 78.7986C1028.12 78.7986 1029.04 79.9185 1029.04 82.1582C1029.04 83.7871 1028.73 86.5359 1028.12 90.4046C1027.71 94.2733 1027.51 97.6329 1027.51 100.483C1027.51 102.52 1027.71 103.741 1028.12 104.149H1028.73C1035.04 98.0401 1041.86 93.0516 1049.19 89.1829C1056.53 85.3143 1064.87 83.3799 1074.24 83.3799C1080.55 83.3799 1086.35 85.6197 1091.65 90.0992C1096.94 94.3751 1100.91 99.9744 1103.56 106.897H1104.78C1110.89 99.5672 1117.71 93.866 1125.24 89.7938C1132.98 85.5179 1141.64 83.3799 1151.21 83.3799C1157.52 83.3799 1163.22 85.2124 1168.31 88.8775C1173.4 92.3389 1177.47 97.3275 1180.53 103.843C1183.58 110.359 1185.11 118.096 1185.11 127.055V194.248C1185.11 198.32 1186.23 201.069 1188.47 202.494C1190.91 203.716 1193.66 204.836 1196.71 205.854C1198.34 206.465 1199.77 207.279 1200.99 208.297C1202.21 209.112 1202.82 210.333 1202.82 211.962C1202.82 213.387 1202.31 214.507 1201.29 215.322C1200.28 215.933 1199.05 216.238 1197.63 216.238C1193.56 216.238 1189.69 216.034 1186.02 215.627C1182.56 215.424 1179.1 215.22 1175.64 215.016C1172.38 214.813 1168.92 214.711 1165.25 214.711C1161.79 214.711 1158.54 214.813 1155.48 215.016C1152.43 215.22 1149.37 215.424 1146.32 215.627C1143.26 216.034 1139.7 216.238 1135.63 216.238C1134.2 216.238 1132.98 215.933 1131.96 215.322C1130.95 214.507 1130.44 213.387 1130.44 211.962C1130.44 210.333 1130.95 209.01 1131.96 207.992C1133.19 206.974 1134.71 206.261 1136.55 205.854C1139.19 205.039 1141.23 204.021 1142.65 202.799C1144.08 201.374 1144.79 199.134 1144.79 196.08V133.469C1144.79 128.379 1144.08 124.001 1142.65 120.336C1141.23 116.671 1139.19 113.82 1136.55 111.784C1134.1 109.544 1131.25 108.424 1127.99 108.424C1125.35 108.424 1122.39 109.035 1119.14 110.257C1116.08 111.275 1113.03 113.108 1109.97 115.755C1107.12 118.198 1105.7 122.474 1105.7 128.582V194.248C1105.7 198.32 1106.51 201.069 1108.14 202.494C1109.77 203.716 1112.11 204.836 1115.17 205.854C1116.79 206.261 1118.22 206.974 1119.44 207.992C1120.66 209.01 1121.27 210.333 1121.27 211.962C1121.27 213.387 1120.66 214.507 1119.44 215.322C1118.42 215.933 1117.3 216.238 1116.08 216.238C1112.01 216.238 1108.34 216.034 1105.09 215.627C1101.83 215.424 1098.67 215.22 1095.62 215.016C1092.77 214.813 1089.51 214.711 1085.85 214.711C1082.38 214.711 1079.13 214.813 1076.07 215.016C1073.22 215.22 1070.17 215.424 1066.91 215.627C1063.86 216.034 1060.29 216.238 1056.22 216.238C1055 216.238 1053.88 215.933 1052.86 215.322C1051.84 214.507 1051.33 213.387 1051.33 211.962C1051.33 210.333 1051.84 209.112 1052.86 208.297C1054.08 207.279 1055.51 206.465 1057.14 205.854C1059.99 204.836 1062.12 203.716 1063.55 202.494C1064.98 201.272 1065.69 199.134 1065.69 196.08V133.469C1065.69 128.379 1064.98 124.103 1063.55 120.641C1062.12 116.976 1060.19 114.126 1057.75 112.089C1055.3 109.85 1052.35 108.73 1048.89 108.73C1046.45 108.73 1043.6 109.239 1040.34 110.257C1037.28 111.275 1034.03 113.006 1030.56 115.449C1027.92 117.282 1026.59 121.252 1026.59 127.361V194.248C1026.59 197.913 1027.2 200.56 1028.43 202.189C1029.85 203.614 1032.09 204.836 1035.15 205.854C1036.77 206.465 1038.1 207.279 1039.12 208.297C1040.34 209.112 1040.95 210.333 1040.95 211.962C1040.95 213.184 1040.44 214.202 1039.42 215.016C1038.4 215.831 1037.28 216.238 1036.06 216.238C1031.99 216.238 1028.32 216.034 1025.07 215.627C1022.01 215.424 1018.96 215.22 1015.9 215.016C1013.05 214.813 1009.8 214.711 1006.13 214.711C1002.67 214.711 999.208 214.813 995.746 215.016C992.488 215.22 989.027 215.424 985.362 215.627C981.9 216.034 978.134 216.238 974.061 216.238Z" fill="#EDEEEA"/>
<path d="M1268.07 219.598C1255.86 219.598 1244.86 216.849 1235.09 211.351C1225.31 205.854 1217.47 198.32 1211.57 188.75C1205.87 178.977 1203.02 167.982 1203.02 155.765C1203.02 145.991 1204.85 136.727 1208.51 127.971C1212.18 119.216 1217.27 111.479 1223.79 104.759C1230.3 98.0401 1237.94 92.7462 1246.69 88.8775C1255.45 85.0088 1264.81 83.0745 1274.79 83.0745C1287.42 83.0745 1298.82 86.0269 1309 91.9317C1319.18 97.8365 1327.22 105.676 1333.13 115.449C1339.23 125.019 1342.29 135.505 1342.29 146.907C1342.29 159.939 1339.44 172.054 1333.74 183.253C1328.24 194.248 1319.99 203.105 1309 209.824C1298.21 216.34 1284.56 219.598 1268.07 219.598ZM1274.18 206.159C1278.46 206.159 1282.12 205.345 1285.18 203.716C1288.43 201.883 1291.08 199.236 1293.12 195.775C1295.56 191.703 1297.19 186.205 1298 179.282C1299.02 172.156 1299.53 163.807 1299.53 154.238C1299.53 143.242 1298.31 133.469 1295.87 124.917C1293.42 116.162 1289.96 109.239 1285.48 104.149C1281.2 99.0582 1276.11 96.513 1270.21 96.513C1266.95 96.513 1264 97.1238 1261.35 98.3455C1258.71 99.3636 1256.36 100.891 1254.33 102.927C1250.87 106.999 1248.42 112.802 1247 120.336C1245.78 127.87 1245.17 137.134 1245.17 148.129C1245.17 157.903 1246.39 167.269 1248.83 176.228C1251.48 184.983 1254.94 192.212 1259.21 197.913C1263.69 203.41 1268.68 206.159 1274.18 206.159Z" fill="#EDEEEA"/>
<path d="M1349.6 216.238C1348.17 216.238 1346.75 215.933 1345.32 215.322C1344.1 214.507 1343.49 213.387 1343.49 211.962C1343.49 210.333 1344.2 209.112 1345.63 208.297C1347.05 207.279 1348.68 206.465 1350.51 205.854C1353.57 204.836 1356.22 203.716 1358.46 202.494C1360.9 201.069 1362.12 198.32 1362.12 194.248V124.306C1362.12 119.827 1361.41 116.06 1359.98 113.006C1358.76 109.952 1356.32 108.017 1352.65 107.203C1351.84 106.999 1351.02 106.49 1350.21 105.676C1349.6 104.861 1349.29 103.538 1349.29 101.705C1349.29 98.8546 1350.31 97.1239 1352.35 96.513C1359.27 94.8841 1366.8 92.7461 1374.95 90.0992C1383.3 87.2486 1390.42 84.2962 1396.33 81.242C1397.14 80.8347 1398.06 80.3257 1399.08 79.7149C1400.09 79.104 1401.01 78.7986 1401.82 78.7986C1403.05 78.7986 1403.76 79.2058 1403.96 80.0203C1404.37 80.6311 1404.57 81.4456 1404.57 82.4636C1404.57 84.0926 1404.27 86.7395 1403.66 90.4046C1403.25 93.866 1403.05 97.0221 1403.05 99.8726C1403.05 100.687 1403.05 101.603 1403.05 102.621C1403.25 103.64 1403.45 104.25 1403.66 104.454C1410.58 97.7347 1417.6 92.5425 1424.73 88.8775C1431.86 85.2124 1440.1 83.3799 1449.47 83.3799C1460.06 83.3799 1468.92 87.3504 1476.04 95.2913C1483.37 103.029 1487.04 113.617 1487.04 127.055V194.248C1487.04 198.32 1488.16 201.069 1490.4 202.494C1492.84 203.716 1495.59 204.836 1498.64 205.854C1500.27 206.465 1501.7 207.279 1502.92 208.297C1504.14 209.112 1504.75 210.333 1504.75 211.962C1504.75 213.387 1504.14 214.507 1502.92 215.322C1501.9 215.933 1500.78 216.238 1499.56 216.238C1495.49 216.238 1491.62 216.034 1487.95 215.627C1484.49 215.424 1481.03 215.22 1477.57 215.016C1474.31 214.813 1470.85 214.711 1467.18 214.711C1463.72 214.711 1460.26 214.813 1456.8 215.016C1453.34 215.22 1449.88 215.424 1446.42 215.627C1442.95 216.034 1439.19 216.238 1435.12 216.238C1433.89 216.238 1432.67 215.933 1431.45 215.322C1430.43 214.507 1429.92 213.387 1429.92 211.962C1429.92 210.333 1430.53 209.112 1431.76 208.297C1432.98 207.279 1434.4 206.465 1436.03 205.854C1439.09 204.836 1441.63 203.716 1443.67 202.494C1445.7 201.069 1446.72 198.32 1446.72 194.248V133.469C1446.72 125.732 1444.89 119.725 1441.22 115.449C1437.76 110.97 1433.08 108.628 1427.17 108.424C1422.7 108.424 1418.72 109.137 1415.26 110.562C1411.8 111.988 1408.24 113.922 1404.57 116.365C1403.76 117.18 1403.15 118.096 1402.74 119.114C1402.33 120.132 1402.13 121.15 1402.13 122.168V194.248C1402.13 198.32 1403.25 201.069 1405.49 202.494C1407.73 203.716 1410.27 204.836 1413.13 205.854C1417.2 207.075 1419.23 209.112 1419.23 211.962C1419.23 213.184 1418.72 214.202 1417.71 215.016C1416.69 215.831 1415.47 216.238 1414.04 216.238C1409.97 216.238 1406.2 216.034 1402.74 215.627C1399.28 215.424 1396.02 215.22 1392.97 215.016C1389.91 214.813 1386.55 214.711 1382.89 214.711C1379.43 214.711 1375.86 214.813 1372.2 215.016C1368.74 215.22 1365.07 215.424 1361.2 215.627C1357.54 216.034 1353.67 216.238 1349.6 216.238Z" fill="#EDEEEA"/>
<path d="M1607.19 221.125C1606.58 221.125 1605.66 220.412 1604.44 218.987C1603.42 217.765 1602.92 216.747 1602.92 215.933C1603.32 212.878 1603.63 210.028 1603.83 207.381C1604.24 204.53 1604.44 201.985 1604.44 199.745V197.913C1600.37 204.225 1594.67 209.417 1587.34 213.489C1580.21 217.562 1572.48 219.598 1564.13 219.598C1552.73 219.598 1542.54 216.747 1533.59 211.046C1524.83 205.345 1517.91 197.607 1512.82 187.834C1507.73 178.06 1505.18 167.371 1505.18 155.765C1505.18 141.919 1508.24 129.6 1514.34 118.809C1520.45 108.017 1529 99.5672 1540 93.4588C1550.99 87.1468 1563.72 83.9908 1578.18 83.9908C1581.23 83.9908 1584.39 84.2962 1587.64 84.907C1591.11 85.3142 1594.26 85.9251 1597.11 86.7395C1599.96 87.3504 1601.29 87.6558 1601.08 87.6558C1601.9 87.6558 1602.31 86.3323 1602.31 83.6853V47.3402C1602.31 40.0101 1601.39 34.7162 1599.56 31.4584C1597.72 28.2005 1594.67 26.1644 1590.39 25.3499C1587.95 24.7391 1586.73 23.212 1586.73 20.7686C1586.73 18.1216 1587.85 16.5945 1590.09 16.1873C1597.62 14.5584 1605.36 12.5223 1613.3 10.0789C1621.44 7.4319 1628.06 4.98854 1633.15 2.74879C1635.8 1.52711 1637.63 0.814463 1638.65 0.610852C1639.67 0.203617 1640.28 0 1640.48 0C1642.72 0 1643.84 1.22169 1643.84 3.66506C1643.84 3.05422 1643.74 3.86866 1643.54 6.10841C1643.33 8.14456 1643.13 10.8934 1642.93 14.3548C1642.72 17.8162 1642.52 21.2777 1642.32 24.7391L1640.79 178.671C1640.79 185.594 1641.3 190.583 1642.32 193.637C1643.33 196.691 1645.17 198.218 1647.81 198.218C1648.83 198.218 1649.85 198.116 1650.87 197.913C1652.09 197.709 1655.04 197.506 1659.72 197.302C1662.57 197.098 1664 198.116 1664 200.356C1664 201.985 1663.39 203.716 1662.17 205.548C1660.95 207.381 1659.83 208.297 1658.81 208.297C1651.48 209.112 1643.74 210.435 1635.6 212.268C1627.66 214.1 1619.92 216.442 1612.38 219.292C1611.16 219.903 1610.14 220.31 1609.33 220.514C1608.52 220.921 1607.8 221.125 1607.19 221.125ZM1579.7 198.829C1582.76 198.829 1586.52 198.015 1591 196.386C1595.69 194.757 1599.45 192.415 1602.31 189.361L1602 121.863C1602 118.198 1600.57 114.635 1597.72 111.173C1595.08 107.508 1591.62 104.454 1587.34 102.011C1583.27 99.5672 1579.19 98.3455 1575.12 98.3455C1570.24 98.3455 1565.65 100.382 1561.38 104.454C1557.31 108.323 1553.95 113.922 1551.3 121.252C1548.86 128.379 1547.63 137.134 1547.63 147.518C1547.63 155.866 1548.45 163.197 1550.08 169.509C1551.91 175.821 1554.35 181.216 1557.41 185.696C1560.46 189.972 1563.92 193.23 1567.79 195.469C1571.66 197.709 1575.63 198.829 1579.7 198.829Z" fill="#EDEEEA"/>
</svg>
