<svg width="1664" height="318" viewBox="0 0 1664 318" fill="none" xmlns="http://www.w3.org/2000/svg">
<path d="M129.843 316.838C114.984 276.924 99.8343 237.883 84.393 199.717C69.243 161.551 54.6758 126.444 40.6912 94.3958C34.2816 80.7026 29.1831 70.3598 25.3956 63.3675C21.8994 56.0839 18.4033 51.1311 14.9072 48.509C11.7024 45.8869 7.7692 44.1388 3.10768 43.2647C0.77692 36.2725 -0.242788 27.3864 0.0485575 16.6067C4.41873 16.898 10.537 17.1894 18.4033 17.4807C26.2696 17.4807 34.2816 17.6264 42.4393 17.9177C50.5969 17.9177 57.2979 17.9177 62.5421 17.9177C70.6997 17.9177 80.6055 17.9177 92.2593 17.9177C103.913 17.6264 115.421 17.1893 126.784 16.6067C126.492 22.1422 126.055 27.2408 125.473 31.9023C125.181 36.2725 124.599 40.0599 123.725 43.2647C110.905 44.7215 103.476 48.3633 101.437 54.1902C99.6886 60.0171 102.602 71.6709 110.177 89.1516C119.791 112.751 128.969 135.912 137.709 158.637C146.449 181.362 155.044 206.127 163.493 232.93C174.564 207.583 184.616 183.547 193.647 160.822C202.97 138.098 212.293 113.188 221.617 86.0925C225.695 74.1473 226.715 64.3873 224.676 56.8123C222.636 49.2373 216.081 44.7215 205.01 43.2647C202.679 36.5638 201.659 27.6778 201.951 16.6067C207.778 16.898 214.77 17.1894 222.928 17.4807C231.085 17.772 238.66 17.9177 245.652 17.9177C252.645 17.9177 260.365 17.772 268.814 17.4807C277.555 17.1894 284.547 16.898 289.791 16.6067C289.791 21.8509 289.5 26.6581 288.917 31.0282C288.335 35.3984 287.46 39.4772 286.295 43.2647C277.846 45.3042 271.145 49.9657 266.192 57.2493C261.239 64.5329 255.704 75.7497 249.586 90.8997C235.31 127.9 220.597 164.756 205.447 201.465C190.588 238.175 175.147 275.612 159.123 313.779C155.044 315.235 150.383 316.109 145.138 316.401C140.186 316.692 135.087 316.838 129.843 316.838Z" fill="#EDEEEA"/>
<path d="M360.001 317.275C325.331 317.275 298.527 308.097 279.59 289.743C260.944 271.388 251.62 246.624 251.62 215.45C251.62 193.016 256.428 173.933 266.042 158.2C275.656 142.468 288.767 130.377 305.374 121.928C321.98 113.479 340.772 109.254 361.749 109.254C385.639 109.254 405.596 113.625 421.62 122.365C437.936 131.105 450.172 143.196 458.33 158.637C466.779 173.787 471.003 191.414 471.003 211.517C471.003 233.076 466.487 251.722 457.456 267.455C448.424 283.187 435.459 295.424 418.561 304.164C401.955 312.905 382.434 317.275 360.001 317.275ZM365.682 289.743C379.375 289.743 389.572 283.333 396.273 270.514C403.266 257.403 406.762 241.088 406.762 221.568C406.762 193.599 401.663 172.331 391.466 157.763C381.56 143.196 369.907 135.912 356.505 135.912C342.811 135.912 332.614 142.322 325.913 155.141C319.213 167.669 315.862 183.402 315.862 202.339C315.862 228.269 320.232 249.391 328.973 265.707C337.713 281.731 349.949 289.743 365.682 289.743Z" fill="#EDEEEA"/>
<path d="M479.037 314.653C479.037 309.408 479.183 304.601 479.474 300.231C480.057 295.57 480.931 291.491 482.096 287.995C493.459 287.703 501.179 284.935 505.258 279.691C509.337 274.447 511.376 264.541 511.376 249.974V68.1747C511.376 58.8517 509.191 52.0051 504.821 47.6349C500.742 42.9734 492.002 40.2056 478.6 39.3316C478.6 34.9614 478.891 30.7369 479.474 26.6581C480.057 22.2879 481.368 18.2091 483.407 14.4216C493.022 14.4216 502.927 13.8389 513.124 12.6735C523.613 11.2168 533.081 9.32304 541.53 6.99227C550.271 4.6615 556.68 2.33075 560.759 0C564.547 1.45672 567.606 4.07882 569.937 7.8663C572.267 11.3624 573.433 16.461 573.433 23.1619V249.974C573.433 264.541 575.326 274.447 579.114 279.691C582.901 284.935 590.185 287.703 600.965 287.995C601.839 291.491 602.422 295.715 602.713 300.668C603.296 305.33 603.587 309.991 603.587 314.653C597.177 314.07 588.146 313.633 576.492 313.342C564.838 313.342 553.184 313.342 541.53 313.342C529.585 313.342 517.64 313.342 505.695 313.342C494.041 313.633 485.155 314.07 479.037 314.653Z" fill="#EDEEEA"/>
<path d="M610.074 314.653C610.074 309.408 610.22 304.601 610.511 300.231C611.094 295.57 611.968 291.491 613.133 287.995C624.496 287.703 632.216 284.935 636.295 279.691C640.374 274.447 642.413 264.541 642.413 249.974V68.1747C642.413 58.8517 640.228 52.0051 635.858 47.6349C631.779 42.9734 623.039 40.2056 609.637 39.3316C609.637 34.9614 609.928 30.7369 610.511 26.6581C611.094 22.2879 612.405 18.2091 614.444 14.4216C624.059 14.4216 633.964 13.8389 644.161 12.6735C654.65 11.2168 664.119 9.32304 672.568 6.99227C681.308 4.6615 687.717 2.33075 691.796 0C695.584 1.45672 698.643 4.07882 700.974 7.8663C703.304 11.3624 704.47 16.461 704.47 23.1619V249.974C704.47 264.541 706.364 274.447 710.151 279.691C713.938 284.935 721.222 287.703 732.002 287.995C732.876 291.491 733.459 295.715 733.75 300.668C734.333 305.33 734.624 309.991 734.624 314.653C728.214 314.07 719.183 313.633 707.529 313.342C695.875 313.342 684.221 313.342 672.568 313.342C660.622 313.342 648.677 313.342 636.732 313.342C625.078 313.633 616.192 314.07 610.074 314.653Z" fill="#EDEEEA"/>
<path d="M741.111 314.653C741.111 309.408 741.257 304.601 741.548 300.231C742.131 295.57 743.005 291.491 744.17 287.995C755.533 287.703 763.253 284.935 767.332 279.691C771.411 274.447 773.45 264.541 773.45 249.974V70.3598C773.45 60.1628 771.411 52.7335 767.332 48.0719C763.545 43.1191 754.659 40.2056 740.674 39.3316C740.674 34.9614 740.965 30.7369 741.548 26.6581C742.131 22.2879 743.442 18.2091 745.481 14.4216C755.096 14.4216 765.001 13.8389 775.198 12.6735C785.687 11.2168 795.155 9.32304 803.604 6.99227C812.345 4.6615 818.754 2.33075 822.833 0C826.621 1.45672 829.68 4.07882 832.011 7.8663C834.341 11.3624 835.507 16.461 835.507 23.1619V200.154L866.098 172.622C874.256 165.047 879.791 159.22 882.705 155.141C885.909 151.062 887.512 147.858 887.512 145.527C887.512 141.157 883.579 138.826 875.712 138.535C873.964 134.164 872.799 129.94 872.216 125.861C871.634 121.491 871.342 116.975 871.342 112.314C878.626 112.605 887.949 112.896 899.311 113.188C910.674 113.188 921.454 113.188 931.651 113.188C938.352 113.188 945.198 113.188 952.191 113.188C959.183 112.896 966.029 112.605 972.73 112.314C972.73 116.975 972.439 121.491 971.856 125.861C971.274 130.231 970.254 134.456 968.797 138.535C958.017 139.409 948.694 141.594 940.828 145.09C932.962 148.586 923.784 155.287 913.296 165.193L884.89 190.977C895.961 201.174 906.595 212.245 916.792 224.19C926.989 235.844 937.769 249.1 949.131 263.959C955.832 272.699 961.514 278.672 966.175 281.876C971.128 284.79 977.829 286.538 986.278 287.121C986.278 291.782 985.841 296.444 984.967 301.105C984.384 305.475 983.364 309.554 981.908 313.342C971.128 313.342 959.183 313.633 946.072 314.216C932.962 314.798 921.599 315.818 911.985 317.275C906.449 308.826 899.457 298.92 891.008 287.558C882.559 276.195 873.382 264.541 863.476 252.596C853.862 240.36 844.539 229.143 835.507 218.946V249.974C835.507 264.25 837.109 274.01 840.314 279.254C843.519 284.498 849.491 287.412 858.232 287.995C859.397 291.491 860.125 295.715 860.417 300.668C860.708 305.33 860.854 309.991 860.854 314.653C854.444 314.07 845.85 313.633 835.07 313.342C824.29 313.342 813.365 313.342 802.293 313.342C790.931 313.342 779.423 313.342 767.769 313.342C756.115 313.633 747.229 314.07 741.111 314.653Z" fill="#EDEEEA"/>
<path d="M1093.7 317.275C1059.03 317.275 1032.22 308.097 1013.28 289.743C994.638 271.388 985.315 246.624 985.315 215.45C985.315 193.016 990.122 173.933 999.737 158.2C1009.35 142.468 1022.46 130.377 1039.07 121.928C1055.67 113.479 1074.47 109.254 1095.44 109.254C1119.33 109.254 1139.29 113.625 1155.31 122.365C1171.63 131.105 1183.87 143.196 1192.02 158.637C1200.47 173.787 1204.7 191.414 1204.7 211.517C1204.7 233.076 1200.18 251.722 1191.15 267.455C1182.12 283.187 1169.15 295.424 1152.26 304.164C1135.65 312.905 1116.13 317.275 1093.7 317.275ZM1099.38 289.743C1113.07 289.743 1123.27 283.333 1129.97 270.514C1136.96 257.403 1140.46 241.088 1140.46 221.568C1140.46 193.599 1135.36 172.331 1125.16 157.763C1115.26 143.196 1103.6 135.912 1090.2 135.912C1076.51 135.912 1066.31 142.322 1059.61 155.141C1052.91 167.669 1049.56 183.402 1049.56 202.339C1049.56 228.269 1053.93 249.391 1062.67 265.707C1071.41 281.731 1083.64 289.743 1099.38 289.743Z" fill="#EDEEEA"/>
<path d="M1310.19 237.738C1310.19 256.675 1313.39 269.494 1319.8 276.195C1326.21 282.896 1337.43 286.829 1353.45 287.995C1354.91 291.491 1355.78 295.715 1356.07 300.668C1356.36 305.33 1356.51 309.991 1356.51 314.653C1348.94 314.07 1338.74 313.633 1325.92 313.342C1313.39 313.342 1301.15 313.342 1289.21 313.342C1276.1 313.342 1262.55 313.342 1248.57 313.342C1234.58 313.633 1223.51 314.07 1215.35 314.653C1215.35 302.708 1216.23 293.822 1217.98 287.995C1225.84 287.412 1231.96 285.955 1236.33 283.624C1240.7 281.294 1243.61 277.069 1245.07 270.951C1246.82 264.833 1247.69 255.947 1247.69 244.293V183.984C1247.69 175.827 1246.96 169.271 1245.51 164.319C1244.34 159.366 1241.43 155.724 1236.77 153.393C1232.4 150.771 1225.41 149.169 1215.79 148.586C1215.79 144.216 1216.08 139.991 1216.66 135.912C1217.54 131.542 1219 127.463 1221.03 123.676C1236.48 123.385 1251.33 121.782 1265.61 118.869C1280.18 115.955 1290.81 112.751 1297.51 109.254C1301.3 110.711 1304.36 113.333 1306.69 117.121C1309.02 120.617 1310.19 125.861 1310.19 132.853C1310.19 139.554 1309.46 146.11 1308 152.519C1306.84 158.929 1305.23 166.358 1303.19 174.807C1305.23 169.563 1307.13 164.464 1308.88 159.511C1310.62 154.267 1312.37 150.334 1314.12 147.712C1320.53 137.515 1328.4 129.066 1337.72 122.365C1347.04 115.664 1357.53 112.314 1369.18 112.314C1380.55 112.314 1390.89 115.81 1400.21 122.802C1399.05 131.542 1398.03 142.031 1397.15 154.267C1396.28 166.212 1396.13 176.846 1396.72 186.17C1392.35 187.918 1386.52 189.229 1379.24 190.103C1372.24 190.977 1365.98 191.414 1360.44 191.414C1360.15 179.76 1358.26 171.748 1354.76 167.378C1351.56 162.716 1347.19 160.385 1341.65 160.385C1336.99 160.385 1332.18 163.008 1327.23 168.252C1322.57 173.205 1318.49 179.906 1314.99 188.355C1311.79 196.512 1310.19 205.398 1310.19 215.013V237.738Z" fill="#EDEEEA"/>
<path d="M1638.65 249.974C1638.65 264.541 1640.26 274.593 1643.46 280.128C1646.96 285.373 1652.64 287.995 1660.5 287.995C1661.96 291.782 1662.83 295.861 1663.13 300.231C1663.71 304.31 1664 309.117 1664 314.653C1657.59 314.361 1649.29 314.07 1639.09 313.779C1629.18 313.487 1619.42 313.342 1609.81 313.342C1603.4 313.342 1596.12 313.342 1587.96 313.342C1580.09 313.633 1572.52 313.779 1565.23 313.779C1557.95 314.07 1552.12 314.361 1547.75 314.653C1547.75 309.7 1547.9 305.038 1548.19 300.668C1548.48 296.007 1549.36 291.782 1550.81 287.995C1558.97 287.995 1565.23 285.081 1569.6 279.254C1573.97 273.427 1576.16 262.793 1576.16 247.352V199.717C1576.16 181.362 1573.25 168.689 1567.42 161.697C1561.59 154.413 1553.29 150.771 1542.51 150.771C1531.73 150.771 1521.97 156.744 1513.23 168.689C1504.49 180.634 1500.12 198.115 1500.12 221.131V249.974C1500.12 264.833 1502.01 274.884 1505.8 280.128C1509.88 285.373 1516.29 287.995 1525.03 287.995C1526.49 292.073 1527.36 296.298 1527.65 300.668C1528.23 304.747 1528.52 309.408 1528.52 314.653C1522.11 314.361 1512.94 314.07 1500.99 313.779C1489.34 313.487 1478.7 313.342 1469.09 313.342C1462.39 313.342 1454.81 313.342 1446.37 313.342C1438.21 313.633 1430.34 313.779 1422.77 313.779C1415.48 314.07 1409.66 314.361 1405.29 314.653C1405.29 309.117 1405.58 304.164 1406.16 299.794C1406.74 295.133 1407.62 291.199 1408.78 287.995C1420.14 287.995 1427.72 285.373 1431.51 280.128C1435.59 274.593 1437.62 264.541 1437.62 249.974V183.984C1437.62 175.827 1436.9 169.271 1435.44 164.319C1434.27 159.366 1431.36 155.724 1426.7 153.393C1422.33 150.771 1415.34 149.169 1405.72 148.586C1405.72 144.216 1406.01 139.991 1406.6 135.912C1407.47 131.542 1408.93 127.463 1410.97 123.676C1426.41 123.385 1441.27 121.782 1455.54 118.869C1470.11 115.955 1480.74 112.751 1487.44 109.254C1491.23 110.711 1494.29 113.333 1496.62 117.121C1498.95 120.617 1500.12 125.861 1500.12 132.853C1500.12 140.72 1498.66 149.46 1495.75 159.074C1497.5 155.578 1499.24 152.082 1500.99 148.586C1502.74 145.09 1505.07 141.739 1507.98 138.535C1513.81 131.542 1521.97 125.278 1532.46 119.743C1542.95 114.207 1555.04 111.439 1568.73 111.439C1580.97 111.439 1592.33 113.77 1602.82 118.432C1613.6 123.093 1622.19 130.668 1628.6 141.157C1635.3 151.645 1638.65 165.484 1638.65 182.673V249.974Z" fill="#EDEEEA"/>
</svg>
