<svg width="1664" height="331" viewBox="0 0 1664 331" fill="none" xmlns="http://www.w3.org/2000/svg">
<path d="M195.807 148.428C201.678 148.428 207.827 147.589 214.256 145.912C220.685 144.235 227.254 142.418 233.963 140.461C240.951 138.505 248.079 136.688 255.346 135.011C262.894 133.334 270.581 132.495 278.407 132.495C290.986 132.495 301.608 135.849 310.273 142.558C318.938 149.267 323.271 158.631 323.271 170.65C323.271 178.197 321.454 184.906 317.82 190.776C314.466 196.367 309.994 201.258 304.403 205.451C298.813 209.644 292.384 213.138 285.116 215.933C278.128 218.729 270.86 221.105 263.313 223.061C255.207 225.018 247.24 226.416 239.413 227.254C231.866 227.813 225.018 228.512 218.868 229.351C212.998 229.91 208.107 230.888 204.193 232.286C200.28 233.683 198.044 236.059 197.485 239.413C196.646 244.165 198.603 247.939 203.355 250.734C208.386 253.25 213.977 255.905 220.126 258.701C226.555 261.216 232.425 264.431 237.736 268.344C243.327 272.258 246.122 277.848 246.122 285.116C246.122 291.824 243.047 297.974 236.898 303.565C230.748 309.155 223.201 314.047 214.256 318.24C205.311 322.153 195.807 325.088 185.745 327.045C175.961 329.281 167.296 330.399 159.749 330.399C152.481 330.399 143.396 329.56 132.495 327.883C121.873 326.206 110.552 323.69 98.5327 320.336C86.7926 316.982 75.0526 312.789 63.3125 307.757C51.5724 302.726 40.9505 296.996 31.4466 290.567C22.2223 283.858 14.6751 276.311 8.80505 267.925C2.93502 259.539 0 250.455 0 240.671C0 233.963 1.1181 228.372 3.3543 223.9C5.59051 219.148 8.38576 215.374 11.7401 212.579C15.3739 209.504 19.427 207.408 23.8994 206.29C28.3718 204.892 32.7045 204.193 36.8973 204.193C45.2831 204.193 52.1315 207.268 57.4425 213.418C62.7534 219.288 67.0861 226.276 70.4404 234.382C74.0742 242.488 77.0092 250.874 79.2454 259.539C81.7612 267.925 84.2769 274.494 86.7926 279.246C89.5879 284.277 93.0819 289.309 97.2748 294.34C101.468 299.372 106.639 303.984 112.788 308.177C118.938 312.09 126.066 315.444 134.172 318.24C142.278 320.755 151.503 322.013 161.845 322.013C164.081 322.013 167.575 321.734 172.327 321.175C177.359 320.616 182.67 319.777 188.26 318.659C194.13 317.541 200.14 316.143 206.29 314.466C212.439 312.509 218.03 310.133 223.061 307.338C228.372 304.543 232.565 301.328 235.64 297.694C238.994 293.781 240.671 289.448 240.671 284.697C240.671 280.783 238.156 277.569 233.124 275.053C228.093 272.537 221.803 270.161 214.256 267.925C206.709 265.689 198.463 263.592 189.518 261.636C180.573 259.399 172.327 256.744 164.78 253.669C157.233 250.594 150.944 246.961 145.912 242.768C140.881 238.575 138.365 233.264 138.365 226.835C138.365 223.201 139.343 220.126 141.3 217.61C143.536 215.095 146.332 212.998 149.686 211.321C153.04 209.644 156.534 208.386 160.168 207.548C164.081 206.709 167.715 206.29 171.07 206.29C174.424 206.29 179.875 206.429 187.422 206.709C195.248 206.709 203.494 206.849 212.16 207.128C221.105 207.408 229.63 207.687 237.736 207.967C246.122 207.967 252.411 207.967 256.604 207.967C263.872 207.967 271.14 207.268 278.407 205.87C285.675 204.473 292.244 202.376 298.114 199.581C303.984 196.506 308.736 192.733 312.37 188.26C316.283 183.788 318.24 178.477 318.24 172.327C318.24 164.221 315.165 157.652 309.015 152.621C302.866 147.589 293.921 145.074 282.181 145.074C269.602 145.074 255.905 147.869 241.091 153.459C226.276 159.05 211.601 165.199 197.065 171.908C182.53 178.617 168.833 184.766 155.975 190.357C143.117 195.947 132.215 198.743 123.271 198.743C118.239 198.743 114.046 197.345 110.692 194.55C107.338 191.754 105.661 187.841 105.661 182.81C105.661 177.499 107.477 172.467 111.111 167.715C115.025 162.963 119.777 158.351 125.367 153.879C131.237 149.406 137.526 145.074 144.235 140.881C150.944 136.688 157.093 132.775 162.684 129.141C168.554 125.227 173.306 121.594 176.94 118.239C180.853 114.605 182.81 111.251 182.81 108.176C182.81 106.779 182.111 105.102 180.713 103.145C179.595 100.909 176.52 99.7905 171.489 99.7905C162.264 99.7905 153.879 103.005 146.332 109.434C138.784 115.584 131.097 122.572 123.271 130.399C115.723 137.946 107.477 144.934 98.5327 151.363C89.8674 157.513 79.525 160.587 67.5054 160.587C56.8834 160.587 47.6591 158.072 39.8324 153.04C32.2852 148.009 25.9959 141.859 20.9644 134.591C15.9329 127.044 12.1594 119.218 9.64362 111.111C7.1279 102.726 5.87003 95.1784 5.87003 88.4698C5.87003 60.2377 13.4172 38.4347 28.5116 23.0608C43.8855 7.68695 64.1511 0 89.3084 0C99.0917 0 107.058 1.53739 113.208 4.61216C119.357 7.40741 124.529 10.622 128.721 14.2558C132.914 17.6101 136.688 20.8246 140.042 23.8994C143.676 26.6947 147.589 28.232 151.782 28.5116H152.621C156.814 28.5116 159.749 27.2537 161.426 24.738C163.383 22.2222 165.06 19.5668 166.457 16.7715C168.134 13.6967 169.951 10.9015 171.908 8.38575C174.144 5.87002 177.638 4.61216 182.39 4.61216C187.701 4.61216 194.41 6.42907 202.516 10.0629C210.622 13.4172 218.449 18.1691 225.996 24.3187C233.543 30.1887 239.972 37.0371 245.283 44.8638C250.594 52.6905 253.25 60.9365 253.25 69.6018C253.25 76.8695 251.433 83.019 247.799 88.0505C244.165 93.0819 239.134 95.5977 232.705 95.5977C225.717 95.5977 220.545 93.641 217.191 89.7276C214.116 85.5347 212.02 80.6431 210.902 75.0525C209.784 69.1825 209.225 63.1727 209.225 57.0232C209.225 50.5941 208.666 45.0036 207.548 40.2516C205.591 31.8659 202.516 24.5982 198.323 18.4487C194.13 12.2991 188.819 9.22432 182.39 9.22432C178.477 9.22432 175.961 10.622 174.843 13.4172C173.725 16.2125 173.306 19.7065 173.585 23.8994C174.144 28.0923 174.843 32.7044 175.682 37.7359C176.8 42.4878 177.359 47.2398 177.359 51.9917C177.638 56.4641 177.079 60.5172 175.682 64.1511C174.564 67.5054 171.768 69.7415 167.296 70.8597C165.06 71.4187 163.383 71.6982 162.264 71.6982C157.513 71.6982 153.599 70.0211 150.524 66.6668C147.45 63.3125 144.515 59.2594 141.719 54.5074C139.204 49.476 136.548 44.165 133.753 38.5745C131.237 32.7045 128.162 27.3935 124.529 22.6415C120.895 17.6101 116.422 13.4172 111.111 10.0629C105.8 6.70859 99.2315 5.03144 91.4048 5.03144C82.1805 5.03144 74.6333 6.84836 68.7632 10.4822C62.8932 13.8365 59.9582 18.7282 59.9582 25.1573C59.9582 30.4683 62.6137 34.2418 67.9247 36.478C73.2356 38.4347 78.9659 40.1119 85.1155 41.5095C91.5445 42.9071 97.4146 44.724 102.726 46.9603C108.037 48.9169 110.692 52.5507 110.692 57.8617C110.692 63.1727 107.617 67.9247 101.468 72.1175C95.5977 76.3104 89.0288 80.5033 81.7612 84.6962C74.4935 88.889 67.7849 93.5012 61.6353 98.5327C55.7653 103.285 52.8303 109.294 52.8303 116.562C52.8303 122.432 54.787 126.904 58.7003 129.979C62.6137 132.775 67.5054 134.172 73.3754 134.172C85.395 134.172 95.3181 132.076 103.145 127.883C111.251 123.69 118.659 119.218 125.367 114.466C132.355 109.434 139.483 104.822 146.751 100.629C154.018 96.4362 162.824 94.3398 173.166 94.3398C176.52 94.3398 180.154 95.3181 184.067 97.2748C187.981 98.952 189.937 102.726 189.937 108.596C189.937 111.111 189.378 113.348 188.26 115.304C187.422 117.261 186.443 119.357 185.325 121.594C184.487 123.55 183.508 125.786 182.39 128.302C181.552 130.538 181.132 133.334 181.132 136.688C181.132 140.322 182.53 143.257 185.325 145.493C188.121 147.45 191.615 148.428 195.807 148.428Z" fill="#EDEEEA"/>
<path d="M525.145 317.401H539.401C545.271 317.401 549.883 316.702 553.237 315.305C556.871 313.907 559.387 312.23 560.785 310.273C562.462 308.037 563.3 305.521 563.3 302.726C563.58 299.931 563.44 297.275 562.881 294.759C561.483 290.287 560.086 285.256 558.688 279.665C557.57 274.075 555.893 268.205 553.657 262.055C550.302 251.992 544.991 243.047 537.724 235.221C530.456 227.394 520.114 223.481 506.696 223.481C498.311 223.481 490.484 225.996 483.216 231.028C476.228 235.78 469.52 241.929 463.09 249.476C456.661 256.744 450.372 264.71 444.223 273.376C438.352 281.762 432.063 289.728 425.355 297.275C418.925 304.543 412.077 310.692 404.809 315.724C397.542 320.476 389.436 322.852 380.491 322.852C369.589 322.852 360.505 319.497 353.237 312.789C345.969 306.08 342.336 295.319 342.336 280.504C342.336 271.838 343.593 262.335 346.109 251.992C348.904 241.37 352.398 230.189 356.591 218.449C360.784 206.429 365.536 193.851 370.847 180.713C376.438 167.575 381.888 154.158 387.199 140.461C389.715 134.032 392.65 126.485 396.004 117.82C399.359 109.155 402.853 100.21 406.487 90.9855C410.12 81.7611 413.614 72.8163 416.969 64.1511C420.603 55.2062 423.677 47.5193 426.193 41.0902C427.591 37.1769 428.569 34.2418 429.128 32.2852C429.687 30.049 429.967 27.8128 429.967 25.5766C429.967 20.5451 427.171 18.0294 421.581 18.0294H390.554C389.436 18.0294 388.876 17.6101 388.876 16.7715V16.3522C388.876 15.7932 389.436 15.5137 390.554 15.5137H558.269C559.107 15.5137 559.527 15.7932 559.527 16.3522V16.7715C559.527 17.6101 559.107 18.0294 558.269 18.0294H533.112C526.962 18.0294 523.049 19.9861 521.371 23.8994C519.694 27.8128 519.694 32.7045 521.371 38.5745C533.112 82.1804 544.991 125.507 557.011 168.554C569.031 211.601 582.028 254.648 596.005 297.694C598.241 304.683 601.036 309.714 604.391 312.789C608.024 315.864 614.174 317.401 622.839 317.401H635.837C636.676 317.401 637.095 317.681 637.095 318.24V319.078C637.095 319.637 636.676 319.917 635.837 319.917H525.145C524.586 319.917 524.307 319.637 524.307 319.078V318.24C524.307 317.681 524.586 317.401 525.145 317.401ZM413.614 147.17H390.973C388.737 153.04 385.941 160.168 382.587 168.554C379.233 176.94 375.879 185.745 372.524 194.969C369.449 204.193 366.654 213.418 364.138 222.642C361.902 231.587 360.784 239.553 360.784 246.541C360.784 258.002 363.999 266.248 370.428 271.279C376.857 276.031 383.985 278.407 391.812 278.407C397.122 278.407 402.433 277.149 407.744 274.634C413.055 271.838 418.506 268.344 424.097 264.151C429.687 259.959 435.417 255.346 441.287 250.315C447.158 245.283 453.167 240.532 459.317 236.059V192.453C459.317 176.52 455.683 165.06 448.415 158.072C441.148 150.804 429.547 147.17 413.614 147.17ZM429.967 45.7024C429.128 47.3795 427.451 51.4327 424.935 57.8617C422.699 64.2908 419.764 72.1175 416.13 81.3419C412.496 90.5662 408.583 100.769 404.39 111.95C400.197 122.851 396.004 133.753 391.812 144.654H413.614C430.106 144.654 441.847 141.021 448.835 133.753C455.823 126.485 459.317 114.605 459.317 98.1134V25.1573C453.447 25.4368 447.856 26.8344 442.545 29.3502C437.514 31.8659 433.321 37.3166 429.967 45.7024ZM534.789 194.55C532.553 186.723 530.316 178.896 528.08 171.069C526.123 162.963 524.027 154.997 521.791 147.17H507.116C490.624 147.17 478.884 150.664 471.896 157.652C465.187 164.64 461.833 176.241 461.833 192.453V234.382C469.1 229.63 476.368 225.717 483.636 222.642C490.903 219.288 498.45 217.61 506.277 217.61C512.706 217.61 517.738 218.309 521.371 219.707C525.285 220.825 528.639 221.384 531.434 221.384C532.832 221.384 533.81 221.244 534.369 220.965C535.767 220.126 536.606 218.729 536.885 216.772C537.444 214.536 537.584 212.16 537.304 209.644C537.304 207.128 537.025 204.473 536.466 201.678C535.907 198.882 535.348 196.506 534.789 194.55ZM507.116 144.654H520.952C515.362 124.529 510.19 105.94 505.439 88.8891C500.687 71.838 496.773 58.0015 493.698 47.3795C491.742 40.6709 488.387 35.3599 483.636 31.4466C478.884 27.5332 471.616 25.4368 461.833 25.1573V98.1134C461.833 114.046 465.327 125.786 472.315 133.334C479.582 140.881 491.183 144.654 507.116 144.654Z" fill="#EDEEEA"/>
<path d="M659.32 306.08H733.115C740.383 306.08 746.672 303.425 751.983 298.114C757.294 292.803 759.95 286.513 759.95 279.246V56.6039C759.95 49.0567 757.294 42.6276 751.983 37.3166C746.672 32.0056 740.383 29.3502 733.115 29.3502H659.32L712.57 96.0169L615.715 15.5137H738.566C744.436 15.5137 749.328 16.6318 753.241 18.8679C757.434 20.8246 760.648 22.9211 762.885 25.1573C765.68 28.2321 767.916 31.5864 769.593 35.2202C771.55 31.5864 774.066 28.2321 777.14 25.1573C779.936 22.9211 783.43 20.8246 787.623 18.8679C791.815 16.6318 797.127 15.5137 803.556 15.5137H923.891L827.036 96.0169L880.285 29.3502H806.491C799.223 29.3502 792.934 32.0056 787.623 37.3166C782.312 42.6276 779.656 49.0567 779.656 56.6039V279.246C779.656 286.513 782.312 292.803 787.623 298.114C792.934 303.425 799.223 306.08 806.491 306.08H880.285L827.036 239.833L923.891 319.917H801.04C795.17 319.917 790.138 318.938 785.946 316.982C782.032 314.746 778.957 312.37 776.721 309.854C773.646 307.059 771.27 303.844 769.593 300.21C767.916 303.844 765.54 307.059 762.465 309.854C759.67 312.37 756.176 314.746 751.983 316.982C747.79 318.938 742.479 319.917 736.05 319.917H615.715L712.57 239.833L659.32 306.08Z" fill="#EDEEEA"/>
<path d="M1224.28 42.7674V292.663C1224.28 301.608 1226.24 307.618 1230.15 310.692C1234.35 313.488 1240.5 314.885 1248.6 314.885H1256.99C1266.49 314.885 1272.08 310.832 1273.76 302.726C1274.6 298.533 1273.48 291.964 1270.41 283.019C1267.61 274.075 1263.98 264.85 1259.51 255.346C1255.03 245.563 1250.56 236.478 1246.09 228.093C1241.62 219.427 1238.4 213.278 1236.44 209.644C1236.44 208.805 1236.72 208.246 1237.28 207.967C1237.84 207.408 1238.26 207.408 1238.54 207.967C1238.54 207.967 1238.68 207.967 1238.96 207.967L1299.76 315.724C1299.76 316.003 1299.9 316.423 1300.18 316.982C1300.46 317.261 1300.6 317.681 1300.6 318.24C1300.6 319.358 1299.76 319.917 1298.08 319.917H1202.48L1011.71 37.3166V288.47C1011.71 298.813 1013.52 305.801 1017.16 309.435C1020.79 313.068 1027.08 314.885 1036.02 314.885H1043.99C1044.83 314.885 1045.25 315.584 1045.25 316.982V318.24C1045.25 319.358 1044.83 319.917 1043.99 319.917H965.584C963.907 319.917 963.068 319.358 963.068 318.24V316.982C963.068 315.584 963.907 314.885 965.584 314.885H973.551C981.657 314.885 987.667 312.929 991.58 309.015C995.493 305.102 997.45 298.254 997.45 288.47V42.7674C997.45 34.6611 995.913 29.0706 992.838 25.9958C990.043 22.6415 985.011 20.9644 977.743 20.9644H965.165C961.252 20.9644 957.618 21.803 954.263 23.4801C951.189 25.1573 949.232 28.3718 948.393 33.1237C947.555 38.4347 948.673 45.7024 951.748 54.9267C954.822 63.8715 958.596 72.9561 963.068 82.1804C967.541 91.4048 972.013 100.07 976.486 108.176C980.958 116.283 984.033 122.153 985.71 125.786C985.99 126.625 985.71 127.464 984.871 128.302C983.753 128.861 983.054 128.582 982.775 127.464L922.397 19.7065C922.397 19.427 922.258 19.1475 921.978 18.8679C921.699 18.5884 921.559 18.3089 921.559 18.0294C921.559 16.3522 922.397 15.5137 924.075 15.5137H1035.19L1210.45 270.441V42.7674C1210.45 34.3816 1208.63 28.6513 1205 25.5766C1201.36 22.5018 1195.07 20.9644 1186.13 20.9644H1178.58C1176.91 20.9644 1176.07 20.1258 1176.07 18.4487V17.1908C1176.07 16.0727 1176.91 15.5137 1178.58 15.5137H1256.57C1257.69 15.5137 1258.25 16.0727 1258.25 17.1908V18.4487C1258.25 20.1258 1257.69 20.9644 1256.57 20.9644H1248.6C1240.5 20.9644 1234.35 22.5018 1230.15 25.5766C1226.24 28.6513 1224.28 34.3816 1224.28 42.7674Z" fill="#EDEEEA"/>
<path d="M1447.63 153.879C1438.13 185.465 1428.21 213.697 1417.86 238.575C1413.39 249.197 1408.64 259.679 1403.61 270.021C1398.58 280.084 1393.27 289.169 1387.68 297.275C1382.37 305.102 1376.77 311.531 1370.9 316.562C1365.03 321.314 1359.16 323.69 1353.29 323.69C1344.63 323.69 1337.92 321.035 1333.17 315.724C1328.7 310.413 1325.9 304.263 1324.78 297.275C1322.83 287.212 1323.39 276.451 1326.46 264.99C1329.53 253.529 1334.15 242.209 1340.3 231.028C1346.45 219.567 1353.85 208.666 1362.52 198.323C1371.18 187.701 1380.13 178.197 1389.35 169.812C1398.86 161.146 1408.22 154.018 1417.45 148.428C1426.95 142.558 1435.61 138.784 1443.44 137.107C1446.8 129.28 1449.87 121.873 1452.67 114.885C1455.46 109.015 1458.12 103.285 1460.63 97.6941C1463.43 91.8241 1465.52 87.6312 1466.92 85.1155C1468.88 82.0407 1471.11 78.6864 1473.63 75.0525C1476.43 71.4187 1479.08 68.0644 1481.6 64.9896C1484.67 61.3558 1487.75 57.8617 1490.82 54.5074C1476.01 49.7555 1461.05 45.4229 1445.96 41.5095C1433.1 38.4347 1419.26 35.6395 1404.45 33.1237C1389.63 30.3285 1375.94 28.9309 1363.36 28.9309C1361.68 28.9309 1360 28.9309 1358.33 28.9309C1356.65 28.9309 1355.11 29.0706 1353.71 29.3502C1347.01 29.9092 1344.07 32.2852 1344.91 36.478C1345.47 38.7142 1347.14 40.3914 1349.94 41.5095C1353.02 42.6276 1356.23 43.6059 1359.58 44.4445C1362.94 45.2831 1366.01 46.4012 1368.81 47.7988C1371.6 49.1964 1373.28 51.4327 1373.84 54.5074C1374.68 58.9798 1372.72 62.7534 1367.97 65.8282C1363.5 68.6235 1358.47 71.4187 1352.88 74.214C1347.28 76.7297 1342.11 79.5249 1337.36 82.5997C1332.61 85.395 1330.65 88.889 1331.49 93.0819C1332.05 95.8772 1333.17 98.1134 1334.85 99.7905C1336.8 101.468 1338.9 102.726 1341.14 103.564C1343.65 104.403 1346.03 104.962 1348.26 105.241C1350.78 105.521 1352.88 105.661 1354.55 105.661C1367.13 105.661 1377.89 103.285 1386.84 98.5327C1396.06 93.7807 1403.75 88.6095 1409.9 83.019C1417.17 76.3104 1423.32 68.7632 1428.35 60.3775C1424.43 71.838 1418.42 82.1804 1410.32 91.4048C1403.33 99.2315 1393.83 106.359 1381.81 112.788C1369.79 119.218 1354.27 122.432 1335.27 122.432C1324.92 122.432 1316.26 120.196 1309.27 115.723C1302.56 110.972 1299.21 105.102 1299.21 98.1134C1299.21 90.8457 1302 85.395 1307.59 81.7612C1313.18 77.8478 1319.33 74.6333 1326.04 72.1175C1332.75 69.6018 1338.76 67.5054 1344.07 65.8282C1349.66 63.8715 1352.18 61.4956 1351.62 58.7003C1351.06 55.6255 1348.96 53.8086 1345.33 53.2496C1341.97 52.411 1338.2 51.7122 1334.01 51.1531C1329.81 50.5941 1325.76 49.476 1321.85 47.7988C1318.21 45.8421 1315.98 42.0686 1315.14 36.478C1314.02 30.608 1316.4 25.9958 1322.27 22.6415C1328.14 19.2872 1334.85 17.3306 1342.39 16.7715C1344.35 16.492 1346.31 16.3522 1348.26 16.3522C1350.22 16.3522 1352.18 16.3522 1354.13 16.3522C1370.9 16.3522 1387.82 17.8896 1404.87 20.9644C1421.92 23.7596 1437.57 26.8344 1451.83 30.1887C1468.04 34.3816 1483.83 39.1335 1499.21 44.4445C1506.75 38.5745 1515.56 33.2635 1525.62 28.5116C1534.01 24.5982 1544.07 21.1041 1555.81 18.0294C1567.83 14.6751 1581.25 12.9979 1596.06 12.9979C1605.57 12.9979 1614.37 13.6967 1622.48 15.0943C1630.86 16.2125 1637.99 18.0294 1643.86 20.5451C1650.01 23.0608 1654.9 26.1356 1658.54 29.7694C1662.17 33.1237 1663.99 37.1769 1663.99 41.9288C1664.27 50.3146 1660.07 57.3027 1651.41 62.8932C1643.02 68.2042 1628.49 70.8597 1607.8 70.8597C1592.71 70.8597 1578.73 70.1608 1565.87 68.7632C1553.02 67.3656 1541.69 65.8282 1531.91 64.1511C1520.73 62.1944 1510.39 59.9582 1500.88 57.4424C1496.13 61.0763 1491.24 66.3873 1486.21 73.3754C1481.74 78.9659 1476.84 86.7926 1471.53 96.8555C1466.22 106.639 1460.77 119.218 1455.18 134.591C1463.57 134.871 1471.39 136.129 1478.66 138.365C1484.53 140.322 1490.12 143.396 1495.43 147.589C1501.02 151.782 1504.52 157.792 1505.92 165.619C1507.03 171.489 1506.89 176.94 1505.5 181.971C1504.38 187.002 1502.42 191.615 1499.63 195.807C1497.11 200 1493.9 203.914 1489.98 207.548C1486.35 210.902 1482.44 213.977 1478.24 216.772C1468.46 222.921 1457 228.093 1443.86 232.286C1453.36 227.254 1461.75 221.943 1469.02 216.353C1472.09 213.837 1475.03 211.181 1477.82 208.386C1480.9 205.591 1483.41 202.656 1485.37 199.581C1487.61 196.227 1489.14 192.872 1489.98 189.518C1491.1 186.164 1491.38 182.81 1490.82 179.455C1489.7 173.865 1487.89 169.392 1485.37 166.038C1483.13 162.404 1480.34 159.609 1476.98 157.652C1473.91 155.696 1470.7 154.438 1467.34 153.879C1463.99 153.04 1460.91 152.621 1458.12 152.621C1456.72 152.621 1455.32 152.761 1453.92 153.04C1452.81 153.04 1451.69 153.04 1450.57 153.04C1449.45 153.32 1448.47 153.599 1447.63 153.879ZM1435.06 157.233C1430.58 157.792 1424.99 160.168 1418.28 164.361C1411.86 168.554 1405.15 173.865 1398.16 180.294C1391.17 186.443 1384.18 193.571 1377.19 201.678C1370.49 209.504 1364.48 217.61 1359.16 225.996C1354.13 234.102 1350.22 242.209 1347.42 250.315C1344.63 258.421 1343.79 265.829 1344.91 272.537C1345.75 277.289 1347.98 281.063 1351.62 283.858C1355.53 286.374 1359.44 287.632 1363.36 287.632C1367.27 287.632 1371.32 285.815 1375.52 282.181C1379.71 278.267 1383.76 273.236 1387.68 267.086C1391.87 260.937 1395.92 253.949 1399.84 246.122C1403.75 238.295 1407.52 230.329 1411.16 222.223C1419.26 203.215 1427.23 181.552 1435.06 157.233ZM1630.86 41.5095C1630.02 37.0371 1626.39 33.1237 1619.96 29.7694C1613.53 26.4151 1604.03 24.738 1591.45 24.738C1580.27 24.738 1569.93 25.9958 1560.42 28.5116C1550.92 30.7478 1542.67 33.4033 1535.68 36.478C1527.58 39.8323 1520.17 43.7457 1513.46 48.2181C1526.6 52.1315 1540.16 54.9267 1554.13 56.6039C1568.11 58.0015 1581.95 58.7003 1595.64 58.7003C1599.84 58.7003 1604.03 58.4208 1608.22 57.8617C1612.69 57.3027 1616.61 56.4641 1619.96 55.346C1623.6 53.9484 1626.39 52.1315 1628.35 49.8953C1630.58 47.6591 1631.42 44.8638 1630.86 41.5095Z" fill="#EDEEEA"/>
</svg>
