<svg width="1144" height="478" viewBox="0 0 1144 478" fill="none" xmlns="http://www.w3.org/2000/svg">
<path d="M485 319C485 406.813 556.187 478 644 478H1011V319H485Z" fill="#5552FF"/>
<path d="M730 215C730 272.438 776.562 319 834 319H1144C1144 230.634 1072.37 159 984 159H730V215Z" fill="#5552FF"/>
<path d="M420 159H756C801.287 159 838 122.287 838 77V53H420V159Z" fill="#5552FF"/>
<path d="M1.20187 297.402H18.7754L80.6023 190.364H63.0288L63.9873 188.766H96.2587C116.388 189.086 135.08 196.275 135.08 214.807C135.08 234.777 113.832 250.912 77.0876 250.912H63.1885L36.3489 297.402H55.5201L54.5615 299H0.24331L1.20187 297.402ZM119.104 214.807C119.104 200.588 114.152 191.642 98.0161 190.523L64.1471 249.315H77.8864C93.2233 249.315 119.104 242.924 119.104 214.807ZM96.215 297.402H113.948L177.533 187.168V297.402H195.106L194.148 299H95.2565L96.215 297.402ZM138.711 258.261H161.557V218.801L138.711 258.261ZM116.185 297.402H161.557V259.859H137.752L116.185 297.402ZM170.478 297.402H188.052L249.879 190.364H232.305L233.264 188.766H264.417C285.026 188.766 304.357 194.837 304.357 210.813C304.357 225.511 289.659 237.972 263.618 241.806V297.402H281.191L280.233 299H169.52L170.478 297.402ZM286.783 210.813C286.783 198.991 282.15 191.482 267.292 190.523L237.897 241.327H247.163C261.861 241.327 286.783 235.576 286.783 210.813ZM247.642 242.924H237.098L205.625 297.402H247.642V242.924ZM272.512 297.402H290.245L353.83 187.168V297.402H371.403L370.444 299H271.553L272.512 297.402ZM315.008 258.261H337.854V218.801L315.008 258.261ZM292.482 297.402H337.854V259.859H314.049L292.482 297.402ZM361.222 297.402H378.796L440.623 190.364H419.854L379.914 222.475L399.405 188.766H497.337L477.846 222.475V190.364H458.196L396.369 297.402H413.943L412.984 299H360.264L361.222 297.402ZM453.708 297.402H471.441L502.434 243.883V190.364H484.861L485.819 188.766H588.225L587.267 190.364H569.533L518.41 246.599L489.015 297.402H506.588L505.63 299H452.749L453.708 297.402ZM518.41 190.364V244.362L567.137 190.364H518.41ZM525.256 297.402H542.83L604.657 190.364H587.083L588.042 188.766H620.313C640.443 189.086 659.135 196.275 659.135 214.807C659.135 234.777 637.887 250.912 601.142 250.912H587.243L560.403 297.402H579.575L578.616 299H524.298L525.256 297.402ZM643.159 214.807C643.159 200.588 638.206 191.642 622.07 190.523L588.202 249.315H601.941C617.278 249.315 643.159 242.924 643.159 214.807ZM618.394 297.402H635.967L697.794 190.364H680.22L681.179 188.766H764.094L744.603 222.475V190.364H715.367L685.972 241.327H720.64L719.681 242.924H685.013L653.541 297.402H688.208L728.148 265.291L708.658 299H617.435L618.394 297.402Z" fill="#161616"/>
<path d="M751.614 98H743.013V44.4093H727.134V38.5493C736.869 38.2657 742.068 36.848 745.754 29.4757H751.614V98Z" fill="#161616"/>
</svg>
