<svg width="1216" height="581" viewBox="0 0 1216 581" fill="none" xmlns="http://www.w3.org/2000/svg">
<path d="M727 366C727 484.741 630.741 581 512 581H312V366H727Z" fill="#5552FF"/>
<path d="M592 366H178V174H592V366Z" fill="#5552FF"/>
<path d="M903 174H567C521.713 174 485 137.287 485 92V71H903V174Z" fill="#5552FF"/>
<path d="M1.85498 296.602H19.0156L79.3899 192.078H62.2293L63.1653 190.518H214.647L213.711 192.078H196.394L136.02 296.602H153.181L152.245 298.162H0.918944L1.85498 296.602ZM36.1763 296.602H68.9375L129.312 192.078H96.5505L36.1763 296.602ZM86.0981 296.602H118.859L179.234 192.078H146.472L86.0981 296.602ZM159.384 296.602H176.545L236.919 192.078H219.759L220.695 190.518H248.932C268.744 190.674 286.997 196.758 286.997 212.047C286.997 229.052 268.12 239.972 235.671 243.404C258.292 246.836 268.276 255.573 268.276 268.209C268.276 288.178 245.968 298.162 213.206 298.162H158.448L159.384 296.602ZM269.836 212.047C269.836 201.282 265.936 194.262 253.768 192.546L225.219 241.844H231.147C245.5 241.844 269.836 236.228 269.836 212.047ZM250.336 268.053C250.492 260.721 248.152 244.34 224.439 243.404L193.706 296.602H207.278C232.239 296.602 249.868 290.83 250.336 268.053ZM255.212 296.602H272.373L332.747 192.078H315.586L316.522 190.518H397.49L378.457 223.435V192.078H349.908L321.203 241.844H355.056L354.12 243.404H320.267L289.533 296.602H323.387L362.388 265.245L343.355 298.162H254.276L255.212 296.602ZM352.411 296.602H369.572L429.946 192.078H412.785L413.721 190.518H521.521L520.585 192.078H503.269L442.895 296.602H460.055L459.119 298.162H351.475L352.411 296.602ZM447.107 192.078L395.625 281.313L480.648 201.594L486.108 192.078H447.107ZM386.732 296.602H425.734L477.216 207.367L392.193 287.086L386.732 296.602ZM468.948 182.25C475.968 182.25 489.54 180.222 493.596 168.521C491.88 170.081 489.696 170.861 487.2 170.861C481.584 170.861 477.528 167.117 477.528 161.033C477.528 155.573 481.584 151.361 487.2 151.361C492.504 151.361 496.873 155.573 496.873 161.033C496.873 181.158 477.996 183.81 468.948 183.81C459.743 183.81 441.022 181.158 441.022 161.033C441.022 155.573 445.079 151.361 450.695 151.361C455.999 151.361 460.367 155.573 460.367 161.033C460.367 167.117 455.999 170.861 450.695 170.861C448.199 170.861 446.015 170.081 444.299 168.677C448.355 180.222 461.771 182.25 468.948 182.25ZM466.369 296.602H483.529L543.903 192.078H526.743L527.679 190.518H633.919L632.983 192.078H615.666L555.292 296.602H580.565L561.532 329.519V298.162H465.432L466.369 296.602ZM500.69 296.602H538.131L598.505 192.078H561.064L500.69 296.602ZM578.65 296.602H595.967L658.057 188.958V296.602H675.218L674.282 298.162H577.714L578.65 296.602ZM620.148 258.381H642.456V219.847L620.148 258.381ZM598.151 296.602H642.456V259.941H619.212L598.151 296.602ZM651.168 296.602H668.329L728.703 192.078H711.543L712.479 190.518H743.992C763.649 190.83 781.901 197.85 781.901 215.947C781.901 235.448 761.153 251.204 725.271 251.204H711.699L685.49 296.602H704.21L703.274 298.162H650.232L651.168 296.602ZM766.301 215.947C766.301 202.062 761.465 193.326 745.708 192.234L712.635 249.644H726.051C741.028 249.644 766.301 243.404 766.301 215.947ZM849.024 241.064H851.364C851.364 292.858 818.135 299.722 801.442 299.722C779.133 299.722 772.581 290.362 772.581 276.633C772.581 239.192 818.759 188.958 857.604 188.958C869.305 188.958 876.325 191.922 880.693 196.29L883.969 190.518H886.31L861.661 233.264L862.909 227.959C869.929 198.006 865.873 190.518 856.668 190.518C825.155 190.518 786.154 255.729 786.154 286.93C786.154 293.17 788.338 297.85 802.222 297.85C817.823 297.85 849.024 290.05 849.024 241.064ZM842.062 296.602H859.223L919.597 192.078H902.437L903.373 190.518H994.948L994.012 192.078H976.851L929.894 230.144V296.602H947.054L946.118 298.162H841.126L842.062 296.602ZM914.293 240.128L973.419 192.078H935.198L874.824 296.602H914.293V240.128ZM932.101 296.602H949.261L1009.64 192.078H992.475L993.411 190.518H1101.21L1100.28 192.078H1082.96L1022.58 296.602H1039.74L1038.81 298.162H931.165L932.101 296.602ZM1026.8 192.078L975.314 281.313L1060.34 201.594L1065.8 192.078H1026.8ZM966.422 296.602H1005.42L1056.91 207.367L971.882 287.086L966.422 296.602ZM1046.06 296.602H1063.22L1123.59 192.078H1106.43L1107.37 190.518H1215.17L1214.23 192.078H1196.92L1136.54 296.602H1153.7L1152.77 298.162H1045.12L1046.06 296.602ZM1140.75 192.078L1089.27 281.313L1174.3 201.594L1179.76 192.078H1140.75ZM1080.38 296.602H1119.38L1170.86 207.367L1085.84 287.086L1080.38 296.602ZM1162.59 182.25C1169.61 182.25 1183.19 180.222 1187.24 168.521C1185.53 170.081 1183.34 170.861 1180.85 170.861C1175.23 170.861 1171.17 167.117 1171.17 161.033C1171.17 155.573 1175.23 151.361 1180.85 151.361C1186.15 151.361 1190.52 155.573 1190.52 161.033C1190.52 181.158 1171.64 183.81 1162.59 183.81C1153.39 183.81 1134.67 181.158 1134.67 161.033C1134.67 155.573 1138.73 151.361 1144.34 151.361C1149.65 151.361 1154.01 155.573 1154.01 161.033C1154.01 167.117 1149.65 170.861 1144.34 170.861C1141.85 170.861 1139.66 170.081 1137.95 168.677C1142 180.222 1155.42 182.25 1162.59 182.25ZM103.883 420.064H106.223C106.223 471.858 72.9937 478.722 56.301 478.722C33.9922 478.722 27.4399 469.362 27.4399 455.633C27.4399 418.192 73.6177 367.958 112.463 367.958C124.164 367.958 131.184 370.922 135.552 375.29L138.828 369.518H141.168L116.519 412.264L117.767 406.959C124.788 377.006 120.731 369.518 111.527 369.518C80.0139 369.518 41.0125 434.729 41.0125 465.93C41.0125 472.17 43.1965 476.85 57.0811 476.85C72.6816 476.85 103.883 469.05 103.883 420.064ZM117.123 475.602H134.283L194.658 371.078H174.377L135.375 402.435L154.408 369.518H250.04L231.007 402.435V371.078H211.818L151.444 475.602H168.605L167.668 477.162H116.187L117.123 475.602ZM194.882 475.602H212.042L272.417 371.078H255.256L256.192 369.518H363.992L363.056 371.078H345.739L285.365 475.602H302.526L301.59 477.162H193.946L194.882 475.602ZM289.577 371.078L238.095 460.313L323.119 380.594L328.579 371.078H289.577ZM229.203 475.602H268.205L319.686 386.367L234.663 466.086L229.203 475.602ZM324.476 476.538C340.701 476.538 348.969 465.15 405.599 371.078H370.498L371.434 369.518H472.994L472.058 371.078H454.741L394.367 475.602H411.528L410.592 477.162H359.11L360.046 475.602H377.206L437.581 371.078H407.939C350.529 466.71 342.105 478.722 324.788 478.722C312.932 478.722 309.5 472.17 309.5 466.866C309.5 457.973 315.428 454.229 322.604 454.229C325.568 454.229 328.844 454.697 331.809 456.413L320.576 476.07C321.824 476.538 323.072 476.538 324.476 476.538ZM417.769 475.602H434.93L495.304 371.078H478.143L479.079 369.518H530.561L529.625 371.078H512.465L486.88 415.228C512.309 418.036 525.101 430.672 525.101 444.089C525.101 465.93 502.792 476.85 469.875 477.162H416.833L417.769 475.602ZM507.16 443.933C507.316 436.445 504.04 420.688 485.944 416.944L452.09 475.602H462.543C488.44 475.602 506.692 469.206 507.16 443.933Z" fill="#161616"/>
<path d="M257.461 76.0722C257.461 85.5239 263.321 92.0455 272.395 92.0455C281.09 92.0455 287.423 85.4293 287.423 76.0722C287.423 66.7151 281.279 59.8154 272.489 59.8154C263.51 59.8154 257.461 66.7151 257.461 76.0722ZM273.245 35.4302C262.565 35.4302 256.894 46.0161 256.421 61.8948C259.54 56.5074 265.4 52.3486 274.474 52.3486C287.234 52.3486 296.591 61.8948 296.591 75.5996C296.591 88.3593 287.139 99.2287 272.489 99.2287C255.382 99.2287 247.537 87.3197 247.537 66.148C247.537 46.8667 254.342 28.247 274.285 28.247C287.706 28.247 293.944 36.6589 295.457 45.3544H286.099C284.965 39.2109 280.334 35.4302 273.245 35.4302Z" fill="#161616"/>
</svg>
