<svg width="1664" height="164" viewBox="0 0 1664 164" fill="none" xmlns="http://www.w3.org/2000/svg">
<path d="M138.555 159.229H107.545L98.5283 128.879H40.2471L31.23 159.229H0L52.5631 3.95873H85.5525L138.555 159.229ZM90.8308 103.367L69.4976 31.8897L47.9446 103.367H90.8308Z" fill="#EDEEEA"/>
<path d="M253.025 159.229H220.915L187.706 109.965L172.311 125.14V159.229H146.14V3.95873H172.311V91.2706L215.197 49.2642H248.847L206.84 91.2706L253.025 159.229Z" fill="#EDEEEA"/>
<path d="M343.414 159.229H249.285V138.995L308.666 72.7966H255.223V49.2642H343.414V69.7176L285.353 135.916H343.414V159.229Z" fill="#EDEEEA"/>
<path d="M384.101 32.1097H357.93V5.49823H384.101V32.1097ZM384.101 159.229H357.93V49.2642H384.101V159.229Z" fill="#EDEEEA"/>
<path d="M503.303 159.229H477.131V148.672C469.36 157.909 459.17 162.528 446.561 162.528C433.512 162.528 422.076 157.836 412.252 148.452C402.575 138.922 397.737 124.92 397.737 106.446C397.737 87.6785 402.575 72.9432 412.252 62.24C422.076 51.3901 433.879 45.9652 447.661 45.9652C452.939 45.9652 458.291 46.9915 463.716 49.0442C469.287 51.0969 473.759 54.1759 477.131 58.2813V3.95873H503.303V159.229ZM425.228 103.587C425.228 112.97 427.354 121.181 431.606 128.219C435.858 135.11 442.456 138.555 451.4 138.555C458.731 138.555 464.815 135.696 469.654 129.978C474.492 124.113 476.911 116.196 476.911 106.226C476.911 96.1091 475.005 87.6052 471.193 80.714C467.381 73.8229 460.857 70.3774 451.62 70.3774C443.555 70.3774 437.104 73.5297 432.266 79.8343C427.574 86.139 425.228 94.0564 425.228 103.587Z" fill="#EDEEEA"/>
<path d="M626.025 109.525H544.651C544.798 110.991 545.091 112.677 545.531 114.583C545.971 116.489 546.924 118.835 548.39 121.621C549.856 124.26 551.616 126.679 553.668 128.879C555.868 131.078 558.873 132.984 562.686 134.597C566.498 136.063 570.823 136.796 575.661 136.796C588.857 136.796 598.461 131.738 604.472 121.621L626.905 134.597C613.123 153.217 595.235 162.528 573.242 162.528C556.528 162.528 542.892 157.249 532.335 146.693C521.925 135.99 516.72 121.621 516.72 103.587C516.72 84.966 522.072 70.7439 532.775 60.9204C543.478 50.9503 556.528 45.9652 571.923 45.9652C581.893 45.9652 590.543 47.8713 597.874 51.6834C605.352 55.3489 610.997 60.4072 614.809 66.8585C618.768 73.1631 621.627 79.8343 623.386 86.8721C625.145 93.9098 626.025 101.461 626.025 109.525ZM545.531 90.171H596.995C596.848 88.2649 596.408 86.2856 595.675 84.2329C595.088 82.0336 593.989 79.5411 592.376 76.7553C590.763 73.9695 588.197 71.6969 584.679 69.9375C581.306 68.0314 577.201 67.0784 572.362 67.0784C567.377 67.0784 562.979 68.0314 559.167 69.9375C555.501 71.6969 552.715 74.1162 550.809 77.1952C549.05 80.2742 547.804 82.7667 547.071 84.6728C546.484 86.4322 545.971 88.2649 545.531 90.171Z" fill="#EDEEEA"/>
<path d="M637.797 49.2642H664.408V62.24C667.34 57.6948 671.446 54.1026 676.724 51.4635C682.002 48.8243 686.254 47.2848 689.48 46.8449C692.706 46.2585 695.638 45.9652 698.277 45.9652C709.713 45.9652 718.511 49.3375 724.669 56.082C730.827 62.6798 733.906 71.5503 733.906 82.6934V159.229H707.954V97.4287C707.954 80.2742 701.503 71.6969 688.6 71.6969C683.322 71.6969 678.703 73.3831 674.745 76.7553C670.786 79.9809 668.073 84.1596 666.607 89.2913C665.141 94.423 664.408 101.827 664.408 111.504V159.229H637.797V49.2642Z" fill="#EDEEEA"/>
<path d="M839.587 159.229H745.457V138.995L804.838 72.7966H751.395V49.2642H839.587V69.7176L781.525 135.916H839.587V159.229Z" fill="#EDEEEA"/>
<path d="M912.383 104.906H848.824V80.0543H912.383V104.906Z" fill="#EDEEEA"/>
<path d="M1072.73 159.229H1047.65V146.033C1035.34 157.469 1021.12 163.188 1004.99 163.188C995.604 163.188 986.587 161.501 977.936 158.129C969.285 154.61 961.515 149.625 954.624 143.174C947.879 136.576 942.454 128.145 938.349 117.882C934.243 107.472 932.191 95.8892 932.191 83.1333C932.191 75.6557 933.07 68.1048 934.83 60.4806C936.736 52.8563 939.668 45.3787 943.627 38.0478C947.586 30.7168 952.424 24.2655 958.142 18.694C963.861 13.1224 970.972 8.65055 979.476 5.2783C987.979 1.75944 997.29 0 1007.41 0C1023.24 0 1036.8 4.32528 1048.09 12.9758C1059.53 21.6264 1067.74 32.5495 1072.73 45.7453L1045.01 56.7418C1037.83 36.3616 1025.22 26.1716 1007.19 26.1716C993.991 26.1716 983.434 31.23 975.517 41.3467C967.746 51.4635 963.861 65.0991 963.861 82.2535C963.861 84.7461 964.007 87.5318 964.3 90.6109C964.594 93.5432 965.547 97.9418 967.159 103.807C968.919 109.525 971.191 114.583 973.977 118.982C976.763 123.38 981.088 127.266 986.953 130.638C992.964 134.01 999.929 135.696 1007.85 135.696C1018.26 135.696 1026.83 132.691 1033.58 126.679C1040.47 120.521 1044.65 111.577 1046.11 99.8479H1007.41V74.3361H1072.73V159.229Z" fill="#EDEEEA"/>
<path d="M1092.3 49.2642H1117.81V64.8791C1123.53 52.8563 1134.45 46.8449 1150.58 46.8449H1152.78V73.8962C1135.04 73.8962 1124.04 80.6407 1119.79 94.1297C1118.47 98.2351 1117.81 104.246 1117.81 112.164V159.229H1092.3V49.2642Z" fill="#EDEEEA"/>
<path d="M1263.62 103.807C1263.62 119.788 1258.71 133.57 1248.89 145.153C1239.06 156.736 1225.35 162.528 1207.76 162.528C1199.99 162.528 1192.88 161.355 1186.43 159.009C1179.97 156.663 1174.55 153.584 1170.15 149.772C1165.9 145.813 1162.23 141.268 1159.15 136.136C1156.22 131.005 1154.02 125.726 1152.56 120.301C1151.24 114.876 1150.58 109.378 1150.58 103.807C1150.58 94.423 1152.48 85.4792 1156.3 76.9752C1160.11 68.4713 1166.41 61.2136 1175.21 55.2022C1184.01 49.0442 1194.56 45.9652 1206.88 45.9652C1213.18 45.9652 1219.49 47.0649 1225.79 49.2642C1232.24 51.4635 1238.33 54.7624 1244.05 59.161C1249.77 63.4129 1254.46 69.4243 1258.12 77.1952C1261.79 84.966 1263.62 93.8365 1263.62 103.807ZM1178.07 103.147C1178.07 113.264 1180.71 121.694 1185.99 128.439C1191.41 135.037 1198.67 138.336 1207.76 138.336C1216.85 138.336 1223.81 135.11 1228.65 128.659C1233.64 122.061 1236.13 114.217 1236.13 105.126C1236.13 95.4493 1233.56 87.1653 1228.43 80.2742C1223.3 73.2365 1215.97 69.7176 1206.44 69.7176C1198.37 69.7176 1191.63 72.65 1186.21 78.5147C1180.78 84.2329 1178.07 92.4436 1178.07 103.147Z" fill="#EDEEEA"/>
<path d="M1263.18 67.9581V49.2642H1279.24V10.1167H1305.63V49.2642H1329.16V67.9581H1305.63V122.501C1305.63 128.365 1306.51 132.251 1308.27 134.157C1310.32 136.356 1313.62 137.456 1318.16 137.456C1322.27 137.456 1325.94 137.016 1329.16 136.136V158.349C1319.78 159.522 1313.47 160.108 1310.25 160.108C1298.81 160.108 1290.75 157.983 1286.06 153.731C1281.51 149.479 1279.24 142.734 1279.24 133.497V67.9581H1263.18Z" fill="#EDEEEA"/>
<path d="M1439.23 109.525H1357.86C1358 110.991 1358.3 112.677 1358.74 114.583C1359.18 116.489 1360.13 118.835 1361.6 121.621C1363.06 124.26 1364.82 126.679 1366.87 128.879C1369.07 131.078 1372.08 132.984 1375.89 134.597C1379.7 136.063 1384.03 136.796 1388.87 136.796C1402.06 136.796 1411.67 131.738 1417.68 121.621L1440.11 134.597C1426.33 153.217 1408.44 162.528 1386.45 162.528C1369.73 162.528 1356.1 157.249 1345.54 146.693C1335.13 135.99 1329.93 121.621 1329.93 103.587C1329.93 84.966 1335.28 70.7439 1345.98 60.9204C1356.68 50.9503 1369.73 45.9652 1385.13 45.9652C1395.1 45.9652 1403.75 47.8713 1411.08 51.6834C1418.56 55.3489 1424.2 60.4072 1428.01 66.8585C1431.97 73.1631 1434.83 79.8343 1436.59 86.8721C1438.35 93.9098 1439.23 101.461 1439.23 109.525ZM1358.74 90.171H1410.2C1410.05 88.2649 1409.61 86.2856 1408.88 84.2329C1408.29 82.0336 1407.19 79.5411 1405.58 76.7553C1403.97 73.9695 1401.4 71.6969 1397.88 69.9375C1394.51 68.0314 1390.41 67.0784 1385.57 67.0784C1380.58 67.0784 1376.18 68.0314 1372.37 69.9375C1368.71 71.6969 1365.92 74.1162 1364.01 77.1952C1362.26 80.2742 1361.01 82.7667 1360.28 84.6728C1359.69 86.4322 1359.18 88.2649 1358.74 90.171Z" fill="#EDEEEA"/>
<path d="M1541.39 66.4186L1522.7 83.7931C1516.98 72.65 1507.01 67.0784 1492.79 67.0784C1490.44 67.0784 1488.02 67.2984 1485.53 67.7382C1483.19 68.1781 1480.77 69.351 1478.27 71.2571C1475.78 73.0165 1474.53 75.4357 1474.53 78.5147C1474.53 81.887 1476.15 84.4528 1479.37 86.2123C1482.6 87.8251 1488.46 89.3646 1496.97 90.8308L1514.78 94.1297C1523.58 95.7425 1530.69 99.1881 1536.11 104.466C1541.54 109.598 1544.25 116.416 1544.25 124.92C1544.25 135.33 1539.71 144.2 1530.62 151.531C1521.53 158.862 1509.58 162.528 1494.77 162.528C1472.34 162.528 1454.74 155.93 1441.98 142.734L1461.78 126.679C1468.82 136.063 1479.37 140.755 1493.45 140.755C1500.63 140.755 1505.98 139.362 1509.5 136.576C1513.17 133.79 1515 130.858 1515 127.779C1515 124.847 1513.68 122.647 1511.04 121.181C1508.4 119.568 1504.3 118.249 1498.73 117.222L1485.09 114.803C1459.58 110.258 1446.82 99.2614 1446.82 81.8137C1446.82 71.1105 1451.3 62.4599 1460.24 55.862C1469.33 49.2642 1480.62 45.9652 1494.11 45.9652C1513.9 45.9652 1529.66 52.783 1541.39 66.4186Z" fill="#EDEEEA"/>
<path d="M1664 159.229H1631.89L1598.68 109.965L1583.29 125.14V159.229H1557.11V3.95873H1583.29V91.2706L1626.17 49.2642H1659.82L1617.81 91.2706L1664 159.229Z" fill="#EDEEEA"/>
</svg>
