<svg width="2061" height="958" viewBox="0 0 2061 958" fill="none" xmlns="http://www.w3.org/2000/svg">
<path d="M317.526 530.237L315.083 526.98C325.939 515.039 335.438 503.098 343.579 491.157C351.178 480.844 357.692 469.717 363.119 457.776C369.09 445.835 372.075 434.437 372.075 423.581C372.075 407.298 367.19 394.542 357.42 385.315C347.65 375.545 330.281 370.66 305.313 370.66C284.145 370.66 262.705 375.274 240.994 384.501C219.283 393.728 199.743 405.941 182.374 421.138C165.005 436.336 150.621 453.434 139.223 472.431C128.367 491.428 122.94 510.697 122.94 530.237C122.94 563.347 129.181 590.214 141.665 610.84C154.149 630.923 168.533 646.663 184.816 658.062C201.643 669.46 218.469 677.33 235.295 681.672C252.121 685.472 264.605 687.914 272.747 689H8.95586C8.95586 640.15 16.5548 599.17 31.7526 566.06C46.9504 532.951 65.6763 504.455 87.9302 480.573C110.727 456.148 135.423 434.708 162.02 416.253C188.616 397.256 213.041 378.259 235.295 359.262C258.092 339.722 277.089 318.282 292.287 294.942C307.484 271.603 315.083 242.835 315.083 208.64C315.083 185.301 312.912 166.575 308.57 152.463C304.228 137.808 299.343 126.409 293.915 118.268C287.944 109.04 280.888 102.256 272.747 97.9134C315.083 97.9134 351.721 101.713 382.659 109.312C413.598 116.911 439.923 126.952 461.634 139.436C483.345 151.92 500.714 166.304 513.741 182.587C526.767 198.87 536.809 215.968 543.865 233.88C550.921 251.249 555.263 268.889 556.892 286.801C559.063 304.712 559.605 321.267 558.52 336.465C557.434 354.377 555.263 371.474 552.007 387.758C548.75 403.498 545.222 419.51 541.422 435.793C538.166 451.534 535.18 467.817 532.466 484.644C529.753 500.927 528.396 518.839 528.396 538.379C528.396 553.034 530.295 566.603 534.095 579.087C538.437 591.028 543.865 601.884 550.378 611.654C556.892 621.424 564.219 630.108 572.361 637.707C581.045 645.306 589.73 652.091 598.414 658.062C619.04 671.631 642.379 681.944 668.433 689H284.959C299.614 688.457 315.898 684.929 333.809 678.416C351.721 671.36 369.361 661.861 386.73 649.92C404.642 637.979 421.74 623.866 438.023 607.583C454.849 591.3 469.775 573.659 482.802 554.662C495.829 535.665 506.142 515.311 513.741 493.599C521.34 471.888 525.139 449.906 525.139 427.652C525.139 412.454 522.696 399.699 517.811 389.386C512.926 378.53 502.342 373.102 486.059 373.102C476.832 373.102 467.604 375.545 458.377 380.43C449.693 385.315 441.28 391.286 433.138 398.342C425.539 405.398 418.483 412.725 411.969 420.324C405.456 427.923 400.028 434.437 395.686 439.864C391.887 444.207 385.645 451.534 376.96 461.847C368.819 471.617 360.134 481.658 350.907 491.971C340.594 503.912 329.467 516.668 317.526 530.237ZM328.924 193.985C328.924 212.44 327.839 227.909 325.668 240.393C323.496 252.877 321.054 263.461 318.34 272.146C316.169 280.83 313.998 288.7 311.827 295.756C309.656 302.27 308.57 309.326 308.57 316.925C308.57 330.494 311.827 339.993 318.34 345.421C324.853 350.849 332.724 353.562 341.951 353.562C366.376 353.562 384.288 345.963 395.686 330.766C407.627 315.025 412.512 294.399 410.341 268.889C409.256 256.405 407.627 245.549 405.456 236.322C403.285 227.095 401.114 219.496 398.943 213.525C396.229 205.926 393.244 199.413 389.987 193.985L393.244 192.357C396.5 198.328 400.028 204.841 403.828 211.897C406.542 217.868 409.798 225.466 413.598 234.694C417.397 243.378 420.925 253.148 424.182 264.004C426.896 272.146 429.881 281.644 433.138 292.5C436.395 302.813 440.465 312.583 445.35 321.81C450.778 330.494 457.292 338.093 464.89 344.607C473.032 350.577 483.074 353.562 495.015 353.562C511.841 353.562 523.782 347.049 530.838 334.022C537.894 320.996 541.422 306.341 541.422 290.057C541.422 267.803 536.537 246.906 526.767 227.366C516.997 207.283 504.513 189.914 489.316 175.259C474.118 160.604 457.292 148.935 438.837 140.25C420.383 131.566 402.471 127.223 385.102 127.223H376.146C360.948 128.309 349.278 134.822 341.137 146.764C332.995 158.705 328.924 174.445 328.924 193.985ZM973.771 530.237L971.329 526.98C982.184 515.039 991.683 503.098 999.825 491.157C1007.42 480.844 1013.94 469.717 1019.36 457.776C1025.34 445.835 1028.32 434.437 1028.32 423.581C1028.32 407.298 1023.44 394.542 1013.67 385.315C1003.9 375.545 986.527 370.66 961.559 370.66C940.391 370.66 918.951 375.274 897.24 384.501C875.528 393.728 855.988 405.941 838.619 421.138C821.25 436.336 806.867 453.434 795.468 472.431C784.613 491.428 779.185 510.697 779.185 530.237C779.185 563.347 785.427 590.214 797.911 610.84C810.395 630.923 824.779 646.663 841.062 658.062C857.888 669.46 874.714 677.33 891.54 681.672C908.367 685.472 920.85 687.914 928.992 689H665.201C665.201 640.15 672.8 599.17 687.998 566.06C703.196 532.951 721.922 504.455 744.176 480.573C766.973 456.148 791.669 434.708 818.265 416.253C844.861 397.256 869.286 378.259 891.54 359.262C914.337 339.722 933.334 318.282 948.532 294.942C963.73 271.603 971.329 242.835 971.329 208.64C971.329 185.301 969.158 166.575 964.816 152.463C960.473 137.808 955.588 126.409 950.161 118.268C944.19 109.04 937.134 102.256 928.992 97.9134C971.329 97.9134 1007.97 101.713 1038.9 109.312C1069.84 116.911 1096.17 126.952 1117.88 139.436C1139.59 151.92 1156.96 166.304 1169.99 182.587C1183.01 198.87 1193.05 215.968 1200.11 233.88C1207.17 251.249 1211.51 268.889 1213.14 286.801C1215.31 304.712 1215.85 321.267 1214.77 336.465C1213.68 354.377 1211.51 371.474 1208.25 387.758C1205 403.498 1201.47 419.51 1197.67 435.793C1194.41 451.534 1191.43 467.817 1188.71 484.644C1186 500.927 1184.64 518.839 1184.64 538.379C1184.64 553.034 1186.54 566.603 1190.34 579.087C1194.68 591.028 1200.11 601.884 1206.62 611.654C1213.14 621.424 1220.46 630.108 1228.61 637.707C1237.29 645.306 1245.98 652.091 1254.66 658.062C1275.29 671.631 1298.62 681.944 1324.68 689H941.205C955.86 688.457 972.143 684.929 990.055 678.416C1007.97 671.36 1025.61 661.861 1042.98 649.92C1060.89 637.979 1077.99 623.866 1094.27 607.583C1111.09 591.3 1126.02 573.659 1139.05 554.662C1152.07 535.665 1162.39 515.311 1169.99 493.599C1177.59 471.888 1181.38 449.906 1181.38 427.652C1181.38 412.454 1178.94 399.699 1174.06 389.386C1169.17 378.53 1158.59 373.102 1142.3 373.102C1133.08 373.102 1123.85 375.545 1114.62 380.43C1105.94 385.315 1097.53 391.286 1089.38 398.342C1081.78 405.398 1074.73 412.725 1068.22 420.324C1061.7 427.923 1056.27 434.437 1051.93 439.864C1048.13 444.207 1041.89 451.534 1033.21 461.847C1025.06 471.617 1016.38 481.658 1007.15 491.971C996.84 503.912 985.713 516.668 973.771 530.237ZM985.17 193.985C985.17 212.44 984.084 227.909 981.913 240.393C979.742 252.877 977.299 263.461 974.586 272.146C972.414 280.83 970.243 288.7 968.072 295.756C965.901 302.27 964.816 309.326 964.816 316.925C964.816 330.494 968.072 339.993 974.586 345.421C981.099 350.849 988.969 353.562 998.196 353.562C1022.62 353.562 1040.53 345.963 1051.93 330.766C1063.87 315.025 1068.76 294.399 1066.59 268.889C1065.5 256.405 1063.87 245.549 1061.7 236.322C1059.53 227.095 1057.36 219.496 1055.19 213.525C1052.47 205.926 1049.49 199.413 1046.23 193.985L1049.49 192.357C1052.75 198.328 1056.27 204.841 1060.07 211.897C1062.79 217.868 1066.04 225.466 1069.84 234.694C1073.64 243.378 1077.17 253.148 1080.43 264.004C1083.14 272.146 1086.13 281.644 1089.38 292.5C1092.64 302.813 1096.71 312.583 1101.6 321.81C1107.02 330.494 1113.54 338.093 1121.14 344.607C1129.28 350.577 1139.32 353.562 1151.26 353.562C1168.09 353.562 1180.03 347.049 1187.08 334.022C1194.14 320.996 1197.67 306.341 1197.67 290.057C1197.67 267.803 1192.78 246.906 1183.01 227.366C1173.24 207.283 1160.76 189.914 1145.56 175.259C1130.36 160.604 1113.54 148.935 1095.08 140.25C1076.63 131.566 1058.72 127.223 1041.35 127.223H1032.39C1017.19 128.309 1005.52 134.822 997.382 146.764C989.241 158.705 985.17 174.445 985.17 193.985Z" fill="white"/>
<path d="M1626.2 679.182C1626.2 680.157 1626.57 680.845 1627.32 681.247C1628.06 681.648 1628.87 681.849 1629.73 681.849C1631.05 681.849 1632.36 681.562 1633.68 680.989C1635.06 680.358 1636.41 679.555 1637.73 678.58C1639.05 677.605 1640.34 676.515 1641.6 675.311C1642.86 674.049 1644.04 672.758 1645.13 671.439C1647.76 668.399 1650.29 664.958 1652.7 661.115C1650.46 665.532 1648.05 669.489 1645.47 672.988C1644.38 674.479 1643.18 675.942 1641.86 677.375C1640.54 678.752 1639.13 680.014 1637.64 681.161C1636.21 682.251 1634.72 683.14 1633.17 683.828C1631.62 684.516 1630.01 684.86 1628.35 684.86C1626.4 684.86 1624.88 684.401 1623.79 683.484C1622.7 682.566 1622.16 681.276 1622.16 679.612C1622.16 678.637 1622.61 677.576 1623.53 676.429C1624.51 675.282 1625.57 674.135 1626.71 672.988C1627.86 671.841 1628.89 670.751 1629.81 669.719C1630.73 668.686 1631.19 667.826 1631.19 667.138C1631.07 665.933 1630.59 665.187 1629.73 664.901C1628.92 664.557 1628.03 664.385 1627.06 664.385C1626.31 664.385 1625.31 664.499 1624.05 664.729C1622.84 664.901 1621.52 665.101 1620.09 665.331C1618.71 665.56 1617.31 665.761 1615.87 665.933C1614.5 666.105 1613.26 666.191 1612.18 666.191C1610.68 666.191 1609.51 665.761 1608.65 664.901C1607.79 663.983 1607.36 662.979 1607.36 661.89C1607.36 660.57 1607.87 659.452 1608.91 658.534C1610 657.617 1611.37 656.871 1613.04 656.297C1614.76 655.667 1616.65 655.179 1618.71 654.835C1620.78 654.433 1622.81 654.118 1624.82 653.888C1626.83 653.659 1628.66 653.487 1630.33 653.372C1631.99 653.2 1633.28 653.028 1634.2 652.856C1637.76 652.225 1640.85 651.308 1643.49 650.103C1646.19 648.899 1648.42 647.579 1650.2 646.146C1651.98 644.654 1653.3 643.106 1654.16 641.5C1655.08 639.836 1655.54 638.288 1655.54 636.854C1655.54 633.069 1654.45 630.029 1652.27 627.734C1650.14 625.383 1647.08 624.207 1643.06 624.207C1641.28 624.207 1639.56 624.465 1637.9 624.981C1636.24 625.498 1634.57 626.415 1632.91 627.734C1631.25 629.054 1629.55 630.832 1627.83 633.069C1626.11 635.248 1624.25 638.03 1622.24 641.414C1621.5 642.676 1620.58 644.081 1619.49 645.629C1618.46 647.178 1617.28 648.612 1615.96 649.931C1614.64 651.25 1613.21 652.369 1611.66 653.286C1610.17 654.204 1608.59 654.663 1606.93 654.663C1606.64 655.81 1606.33 656.957 1605.98 658.104C1605.75 659.079 1605.49 660.112 1605.21 661.201C1604.98 662.234 1604.75 663.151 1604.52 663.954C1604.4 664.471 1604.2 665.331 1603.92 666.535C1603.63 667.682 1603.29 669.002 1602.88 670.493C1602.48 671.927 1601.97 673.418 1601.34 674.967C1600.76 676.458 1600.1 677.834 1599.36 679.096C1598.61 680.358 1597.78 681.39 1596.86 682.193C1595.94 682.996 1594.94 683.398 1593.85 683.398C1592.93 683.398 1592.13 683.054 1591.44 682.365C1590.75 681.62 1590.41 680.415 1590.41 678.752C1590.41 677.089 1590.84 675.483 1591.7 673.934C1592.56 672.328 1593.53 670.923 1594.62 669.719C1595.83 668.342 1597.21 667.023 1598.75 665.761C1597.72 666.736 1596.83 667.74 1596.09 668.772C1595.4 669.69 1594.77 670.694 1594.19 671.783C1593.62 672.873 1593.33 673.963 1593.33 675.053C1593.33 676.028 1593.51 676.745 1593.85 677.203C1594.25 677.605 1594.71 677.806 1595.23 677.806C1595.86 677.806 1596.43 677.462 1596.95 676.773C1597.52 676.028 1598.01 675.196 1598.41 674.278C1598.87 673.303 1599.24 672.386 1599.53 671.525C1599.87 670.608 1600.1 669.948 1600.22 669.546C1600.33 669.145 1600.65 668.17 1601.16 666.621C1601.68 665.015 1602.2 663.295 1602.71 661.459C1603.34 659.337 1604.06 657.014 1604.86 654.491C1603.6 654.204 1602.48 653.745 1601.51 653.114C1600.65 652.541 1599.84 651.766 1599.1 650.791C1598.41 649.759 1598.07 648.411 1598.07 646.748C1598.12 644.626 1598.78 642.79 1600.04 641.242C1601.36 639.636 1602.77 638.317 1604.26 637.284C1606.04 636.022 1608.05 634.961 1610.28 634.101C1610.68 631.921 1611.26 630 1612 628.337C1612.63 626.845 1613.41 625.526 1614.33 624.379C1615.3 623.175 1616.48 622.573 1617.85 622.573C1618.94 622.573 1619.8 622.888 1620.43 623.519C1621.12 624.15 1621.47 625.096 1621.47 626.358C1621.47 627.849 1620.95 629.197 1619.92 630.402C1618.94 631.549 1617.85 632.524 1616.65 633.327C1615.22 634.244 1613.58 635.076 1611.75 635.822L1607.7 651.91C1608.79 651.91 1609.88 651.594 1610.97 650.963C1612.12 650.275 1613.21 649.415 1614.24 648.382C1615.33 647.293 1616.33 646.146 1617.25 644.941C1618.23 643.679 1619.09 642.475 1619.83 641.328C1620.64 640.123 1621.29 639.091 1621.81 638.231C1622.33 637.313 1622.7 636.682 1622.93 636.338C1623.27 635.822 1623.9 634.761 1624.82 633.155C1625.8 631.491 1627.12 629.771 1628.78 627.993C1630.44 626.157 1632.48 624.551 1634.89 623.175C1637.3 621.741 1640.11 621.024 1643.32 621.024C1645.04 621.024 1646.82 621.282 1648.65 621.798C1650.49 622.257 1652.15 623.06 1653.64 624.207C1655.19 625.354 1656.45 626.932 1657.43 628.939C1658.46 630.889 1658.98 633.384 1658.98 636.424C1658.98 639.578 1658.17 642.245 1656.57 644.425C1654.96 646.604 1652.95 648.411 1650.55 649.845C1648.14 651.221 1645.53 652.311 1642.72 653.114C1639.91 653.917 1637.3 654.519 1634.89 654.921C1633.97 655.093 1632.74 655.236 1631.19 655.351C1629.64 655.466 1627.98 655.609 1626.2 655.781C1624.42 655.953 1622.61 656.183 1620.78 656.469C1619 656.756 1617.39 657.129 1615.96 657.588C1614.53 657.989 1613.35 658.506 1612.43 659.136C1611.52 659.767 1611.06 660.542 1611.06 661.459C1611.06 661.976 1611.2 662.406 1611.49 662.75C1611.83 663.037 1612.23 663.266 1612.69 663.438C1613.15 663.553 1613.64 663.639 1614.15 663.696C1614.67 663.696 1615.13 663.696 1615.53 663.696C1616.39 663.696 1617.45 663.61 1618.71 663.438C1620.03 663.209 1621.38 662.979 1622.76 662.75C1624.19 662.463 1625.63 662.234 1627.06 662.062C1628.49 661.832 1629.81 661.717 1631.02 661.717C1632.11 661.717 1633.05 662.062 1633.86 662.75C1634.72 663.438 1635.15 664.385 1635.15 665.589C1635.15 666.564 1634.69 667.625 1633.77 668.772C1632.85 669.919 1631.82 671.095 1630.67 672.3C1629.58 673.504 1628.55 674.708 1627.58 675.913C1626.66 677.06 1626.2 678.15 1626.2 679.182ZM1600.56 646.576C1600.56 647.723 1600.82 648.669 1601.34 649.415C1601.85 650.103 1602.42 650.619 1603.06 650.963C1603.8 651.365 1604.63 651.652 1605.55 651.824L1609.59 636.768C1607.93 637.456 1606.44 638.288 1605.12 639.263C1603.97 640.066 1602.91 641.098 1601.94 642.36C1601.02 643.565 1600.56 644.97 1600.56 646.576ZM1616.39 626.702C1615.76 626.702 1615.19 627.046 1614.67 627.734C1614.15 628.423 1613.72 629.197 1613.38 630.057C1612.98 631.032 1612.63 632.151 1612.35 633.413C1613.38 632.954 1614.3 632.438 1615.1 631.864C1615.73 631.405 1616.33 630.86 1616.91 630.229C1617.48 629.599 1617.77 628.939 1617.77 628.251C1617.77 627.792 1617.62 627.419 1617.34 627.132C1617.11 626.845 1616.79 626.702 1616.39 626.702ZM1700.75 657.33C1701.61 657.33 1702.36 657.186 1702.99 656.9C1703.62 656.556 1704.19 656.211 1704.71 655.867C1705.28 655.466 1705.89 655.122 1706.52 654.835C1707.15 654.491 1707.92 654.319 1708.84 654.319C1710.33 654.319 1711.45 654.777 1712.19 655.695C1713 656.556 1713.4 657.617 1713.4 658.878C1713.4 659.509 1713.23 660.226 1712.88 661.029C1712.54 661.832 1712.02 662.578 1711.33 663.266C1710.7 663.954 1709.9 664.528 1708.93 664.987C1707.95 665.446 1706.86 665.675 1705.66 665.675C1703.88 665.675 1702.33 665.302 1701.01 664.557C1699.75 663.754 1698.54 662.75 1697.4 661.545C1696.31 660.341 1695.22 659.05 1694.13 657.674C1693.04 656.297 1691.8 655.007 1690.43 653.802C1689.11 652.541 1687.59 651.508 1685.87 650.705C1684.15 649.845 1682.08 649.357 1679.67 649.243C1678.81 649.243 1677.9 649.329 1676.92 649.501C1676 649.616 1675.14 649.874 1674.34 650.275C1673.54 650.677 1672.88 651.221 1672.36 651.91C1671.85 652.598 1671.59 653.458 1671.59 654.491C1671.59 655.695 1671.93 656.699 1672.62 657.502C1673.31 658.305 1674.02 659.079 1674.77 659.825C1675.57 660.57 1676.26 661.316 1676.84 662.062C1677.47 662.807 1677.7 663.725 1677.52 664.815C1677.35 665.904 1676.92 666.736 1676.23 667.31C1675.6 667.826 1674.83 668.227 1673.91 668.514C1672.99 668.801 1672.02 669.002 1670.98 669.116C1669.95 669.231 1669.01 669.403 1668.15 669.633C1667.29 669.805 1666.57 670.091 1665.99 670.493C1665.42 670.894 1665.13 671.525 1665.13 672.386C1665.13 673.131 1665.36 673.762 1665.82 674.278C1666.34 674.794 1667.06 675.053 1667.97 675.053C1668.78 675.053 1669.49 674.938 1670.12 674.708C1670.81 674.479 1671.47 674.221 1672.1 673.934C1672.73 673.59 1673.37 673.303 1674 673.074C1674.68 672.844 1675.43 672.73 1676.23 672.73C1677.38 672.73 1678.33 673.074 1679.07 673.762C1679.82 674.393 1680.19 675.225 1680.19 676.257C1680.19 676.945 1679.99 677.576 1679.59 678.15C1679.24 678.666 1678.81 679.182 1678.3 679.698C1677.84 680.215 1677.41 680.731 1677.01 681.247C1676.66 681.706 1676.49 682.251 1676.49 682.882C1676.49 683.914 1677.06 684.774 1678.21 685.463C1679.42 686.208 1680.99 686.581 1682.94 686.581C1684.89 686.581 1686.5 686.151 1687.76 685.29C1689.02 684.43 1690.08 683.369 1690.94 682.107C1691.86 680.845 1692.64 679.469 1693.27 677.978C1693.9 676.429 1694.56 675.024 1695.25 673.762C1695.99 672.5 1696.82 671.439 1697.74 670.579C1698.72 669.719 1699.92 669.288 1701.35 669.288H1701.78C1703.28 669.403 1704.48 669.977 1705.4 671.009C1706.32 671.984 1706.77 673.189 1706.77 674.622C1706.77 676.515 1705.97 678.264 1704.37 679.87C1702.82 681.476 1700.75 682.853 1698.17 684C1695.65 685.204 1692.81 686.122 1689.65 686.753C1686.5 687.384 1683.34 687.699 1680.19 687.699C1677.44 687.699 1674.71 687.298 1672.02 686.495C1669.32 685.749 1666.88 684.717 1664.7 683.398C1662.52 682.079 1660.75 680.53 1659.37 678.752C1658.05 676.974 1657.39 675.11 1657.39 673.16C1657.39 670.98 1658.19 669.346 1659.8 668.256C1661.41 667.166 1663.33 666.621 1665.56 666.621C1666.94 666.621 1668.29 666.736 1669.61 666.965C1670.93 667.195 1672.1 667.31 1673.14 667.31C1674.05 667.31 1674.8 667.138 1675.37 666.793C1676 666.449 1676.38 665.79 1676.49 664.815C1676.61 663.954 1676.38 663.266 1675.8 662.75C1675.23 662.176 1674.45 661.66 1673.48 661.201C1672.56 660.742 1671.53 660.312 1670.38 659.911C1669.29 659.509 1668.23 659.05 1667.2 658.534C1666.22 657.961 1665.39 657.301 1664.7 656.556C1664.07 655.81 1663.76 654.892 1663.76 653.802C1663.76 651.68 1665.05 650.218 1667.63 649.415C1670.21 648.554 1673.57 648.124 1677.7 648.124C1680.96 648.124 1683.77 648.612 1686.13 649.587C1688.48 650.505 1690.51 651.566 1692.23 652.77C1694.01 653.917 1695.56 654.978 1696.88 655.953C1698.26 656.871 1699.55 657.33 1700.75 657.33ZM1697.57 640.123C1699.46 640.123 1701.1 640.639 1702.47 641.672C1703.91 642.647 1704.62 644.167 1704.62 646.232C1704.62 648.239 1704.02 649.816 1702.82 650.963C1701.61 652.11 1700.29 652.684 1698.86 652.684C1697.2 652.684 1695.93 652.254 1695.07 651.394C1694.21 650.533 1693.73 649.329 1693.61 647.78C1693.55 647.207 1693.55 646.633 1693.61 646.059C1693.73 645.429 1693.78 644.884 1693.78 644.425C1693.78 643.966 1693.67 643.593 1693.44 643.306C1693.27 642.962 1692.84 642.79 1692.15 642.79C1691.63 642.79 1690.83 642.991 1689.74 643.392C1688.65 643.737 1687.42 644.138 1686.04 644.597C1684.72 645.056 1683.34 645.486 1681.91 645.887C1680.48 646.232 1679.13 646.404 1677.87 646.404C1674.6 646.404 1671.99 645.457 1670.04 643.565C1668.09 641.614 1667.11 639.177 1667.11 636.252C1667.11 634.244 1667.46 632.38 1668.15 630.66C1668.89 628.939 1669.9 627.448 1671.16 626.186C1672.42 624.867 1673.91 623.834 1675.63 623.089C1677.41 622.343 1679.36 621.97 1681.48 621.97C1682.97 621.97 1684.18 622.2 1685.09 622.659C1686.07 623.117 1686.93 623.634 1687.68 624.207C1688.48 624.781 1689.2 625.297 1689.83 625.756C1690.51 626.215 1691.29 626.444 1692.15 626.444C1693.01 626.444 1693.64 625.899 1694.04 624.809C1694.5 623.72 1694.99 622.515 1695.5 621.196C1696.08 619.819 1696.79 618.586 1697.65 617.497C1698.57 616.407 1699.86 615.862 1701.53 615.862C1703.36 615.862 1704.62 616.321 1705.31 617.238C1706 618.099 1706.49 619.074 1706.77 620.164C1707.12 621.196 1707.46 622.171 1707.81 623.089C1708.15 623.949 1708.93 624.379 1710.13 624.379C1710.59 624.379 1711.02 624.236 1711.42 623.949C1711.82 623.662 1712.25 623.347 1712.71 623.003C1713.23 622.601 1713.77 622.257 1714.35 621.97C1714.98 621.684 1715.72 621.54 1716.58 621.54C1718.07 621.54 1719.13 622.028 1719.77 623.003C1720.4 623.978 1720.71 625.039 1720.71 626.186C1720.71 627.104 1720.42 627.993 1719.85 628.853C1719.34 629.713 1718.65 630.459 1717.79 631.09C1716.93 631.721 1715.95 632.237 1714.86 632.638C1713.83 632.982 1712.8 633.155 1711.76 633.155C1709.93 633.155 1708.55 632.753 1707.63 631.95C1706.72 631.09 1706.09 630.057 1705.74 628.853C1705.4 627.648 1705.2 626.329 1705.14 624.895C1705.14 623.404 1705.08 622.056 1704.97 620.852C1704.91 619.647 1704.65 618.644 1704.19 617.841C1703.79 616.98 1703.02 616.55 1701.87 616.55C1700.78 616.55 1699.98 616.952 1699.46 617.755C1698.95 618.5 1698.57 619.447 1698.34 620.594C1698.11 621.741 1697.97 623.003 1697.91 624.379C1697.86 625.756 1697.74 627.075 1697.57 628.337C1697.45 629.541 1697.17 630.602 1696.71 631.52C1696.31 632.438 1695.62 633.011 1694.64 633.241C1694.41 633.298 1694.07 633.327 1693.61 633.327C1692.35 633.327 1691.35 632.782 1690.6 631.692C1689.91 630.602 1689.2 629.398 1688.45 628.079C1687.7 626.702 1686.81 625.469 1685.78 624.379C1684.81 623.289 1683.4 622.745 1681.57 622.745C1679.62 622.745 1677.87 623.117 1676.32 623.863C1674.83 624.609 1674.08 625.641 1674.08 626.96C1674.08 627.821 1674.31 628.451 1674.77 628.853C1675.23 629.254 1675.8 629.513 1676.49 629.627C1677.18 629.742 1677.92 629.799 1678.73 629.799C1679.53 629.799 1680.28 629.857 1680.96 629.971C1681.65 630.029 1682.23 630.229 1682.69 630.574C1683.14 630.86 1683.37 631.377 1683.37 632.122C1683.37 633.212 1683 634.158 1682.26 634.961C1681.57 635.707 1680.79 636.395 1679.93 637.026C1679.07 637.657 1678.27 638.288 1677.52 638.919C1676.83 639.55 1676.49 640.267 1676.49 641.07C1676.49 642.217 1676.92 643.048 1677.78 643.565C1678.64 644.023 1679.79 644.253 1681.22 644.253C1682.6 644.253 1683.95 644.052 1685.27 643.651C1686.64 643.249 1687.99 642.819 1689.31 642.36C1690.69 641.844 1692.03 641.356 1693.35 640.898C1694.73 640.439 1696.14 640.181 1697.57 640.123ZM1784.07 647.522V653.802H1783.47V647.522C1783.47 643.851 1782.63 641.184 1780.97 639.521C1779.31 637.8 1776.58 636.94 1772.8 636.94H1768.24V636.424H1772.8C1774.63 636.424 1776.15 636.252 1777.36 635.908C1778.62 635.506 1779.62 634.99 1780.37 634.359C1780.2 634.13 1779.59 633.327 1778.56 631.95C1777.53 630.516 1776.07 628.996 1774.17 627.39C1772.28 625.784 1769.96 624.351 1767.21 623.089C1764.51 621.77 1761.41 621.11 1757.91 621.11C1754.36 621.11 1751.23 621.626 1748.54 622.659C1745.84 623.691 1743.49 625.067 1741.48 626.788C1739.53 628.509 1737.9 630.488 1736.58 632.724C1735.32 634.904 1734.28 637.169 1733.48 639.521C1732.73 641.873 1732.19 644.195 1731.85 646.49C1731.5 648.784 1731.33 650.877 1731.33 652.77C1731.33 655.867 1731.67 659.28 1732.36 663.008C1733.11 666.679 1734.43 670.149 1736.32 673.418C1738.21 676.63 1740.82 679.326 1744.15 681.505C1747.47 683.685 1751.72 684.774 1756.88 684.774C1760.67 684.774 1763.85 684.459 1766.43 683.828C1769.01 683.14 1771.08 682.165 1772.63 680.903C1774.17 679.584 1775.29 678.006 1775.98 676.171C1776.67 674.278 1777.01 672.156 1777.01 669.805V665.159C1777.01 663.897 1776.98 662.836 1776.93 661.976C1776.87 661.058 1776.64 660.341 1776.24 659.825C1775.89 659.251 1775.32 658.85 1774.52 658.62C1773.77 658.391 1772.71 658.276 1771.33 658.276H1763.76C1763.65 658.276 1763.59 658.219 1763.59 658.104V657.932C1763.59 657.817 1763.65 657.76 1763.76 657.76H1793.88C1793.99 657.76 1794.05 657.817 1794.05 657.932V658.104C1794.05 658.219 1793.99 658.276 1793.88 658.276H1789.83C1788.74 658.276 1787.88 658.391 1787.25 658.62C1786.68 658.792 1786.25 659.108 1785.96 659.567C1785.67 659.968 1785.5 660.513 1785.44 661.201C1785.39 661.832 1785.36 662.635 1785.36 663.61V673.16C1783.87 675.569 1781.83 677.691 1779.25 679.526C1778.16 680.329 1776.87 681.132 1775.38 681.935C1773.89 682.681 1772.22 683.369 1770.39 684C1768.55 684.574 1766.49 685.032 1764.19 685.377C1761.9 685.778 1759.38 685.979 1756.62 685.979C1751.98 685.979 1747.5 685.262 1743.2 683.828C1738.96 682.394 1735.2 680.301 1731.93 677.548C1728.72 674.737 1726.14 671.267 1724.19 667.138C1722.3 662.951 1721.35 658.161 1721.35 652.77C1721.35 647.379 1722.35 642.618 1724.36 638.489C1726.37 634.359 1729.01 630.918 1732.28 628.165C1735.55 625.354 1739.24 623.232 1743.37 621.798C1747.5 620.364 1751.72 619.647 1756.02 619.647C1760.09 619.647 1763.68 620.393 1766.77 621.884C1769.87 623.318 1772.48 624.924 1774.6 626.702C1777.07 628.824 1779.19 631.204 1780.97 633.843C1781.72 633.097 1782.32 632.093 1782.78 630.832C1783.24 629.57 1783.47 627.907 1783.47 625.842V619.561H1784.07V625.842C1784.07 629.57 1784.93 632.266 1786.65 633.929C1788.37 635.592 1791.06 636.424 1794.74 636.424H1799.3V636.94H1794.74C1791.01 636.997 1788.28 637.858 1786.56 639.521C1784.9 641.127 1784.07 643.794 1784.07 647.522ZM1825.4 624.895C1823.74 624.895 1822.36 625.268 1821.27 626.014C1820.24 626.759 1819.38 627.677 1818.69 628.767C1818.06 629.857 1817.51 631.061 1817.05 632.38C1816.65 633.699 1816.22 634.904 1815.76 635.994C1815.36 637.083 1814.9 638.001 1814.39 638.747C1813.87 639.492 1813.15 639.865 1812.24 639.865C1811.32 639.865 1810.6 639.55 1810.08 638.919C1809.63 638.231 1809.22 637.485 1808.88 636.682C1808.54 635.822 1808.19 635.076 1807.85 634.445C1807.5 633.757 1806.99 633.413 1806.3 633.413C1806.18 633.413 1806.1 633.441 1806.04 633.499C1806.04 633.499 1805.98 633.499 1805.87 633.499C1804.26 633.785 1803.23 634.646 1802.77 636.08C1802.31 637.456 1802.11 638.919 1802.17 640.467C1802.23 642.303 1802.57 644.31 1803.2 646.49C1802.51 645.859 1801.91 645.084 1801.4 644.167C1800.94 643.364 1800.51 642.389 1800.1 641.242C1799.76 640.095 1799.59 638.718 1799.59 637.112C1799.59 634.359 1800.22 632.122 1801.48 630.402C1802.8 628.623 1804.26 627.734 1805.87 627.734C1807.07 627.734 1807.9 628.165 1808.36 629.025C1808.88 629.885 1809.25 630.832 1809.48 631.864C1809.77 632.839 1810.03 633.757 1810.26 634.617C1810.49 635.477 1810.94 635.908 1811.63 635.908C1812.44 635.908 1813.07 635.535 1813.53 634.789C1814.04 634.044 1814.5 633.126 1814.9 632.036C1815.3 630.946 1815.73 629.742 1816.19 628.423C1816.65 627.104 1817.28 625.899 1818.09 624.809C1818.89 623.72 1819.92 622.802 1821.18 622.056C1822.44 621.311 1824.08 620.938 1826.09 620.938C1827.98 620.938 1829.47 621.339 1830.56 622.142C1831.71 622.945 1832.57 623.892 1833.14 624.981C1833.77 626.014 1834.17 627.046 1834.35 628.079C1834.52 629.054 1834.6 629.742 1834.6 630.143C1834.6 632.896 1833.74 635.248 1832.02 637.198C1830.3 639.091 1828.12 640.811 1825.48 642.36C1822.9 643.851 1820.09 645.314 1817.05 646.748C1814.07 648.124 1811.26 649.73 1808.62 651.566C1806.04 653.401 1803.89 655.552 1802.17 658.018C1800.45 660.484 1799.59 663.553 1799.59 667.224C1799.59 669.919 1800.1 672.242 1801.14 674.192C1802.23 676.085 1803.52 677.634 1805.01 678.838C1806.56 680.042 1808.19 680.931 1809.91 681.505C1811.63 682.079 1813.15 682.365 1814.47 682.365C1817.63 682.365 1820.52 681.648 1823.16 680.215C1825.8 678.781 1828.21 676.917 1830.39 674.622C1832.57 672.328 1834.49 669.776 1836.15 666.965C1837.82 664.155 1839.19 661.402 1840.28 658.706C1841.43 655.953 1842.29 653.401 1842.86 651.049C1843.44 648.698 1843.72 646.862 1843.72 645.543C1843.72 642.618 1843.61 639.693 1843.38 636.768C1843.15 633.843 1843.21 631.204 1843.55 628.853C1843.9 626.501 1844.7 624.609 1845.96 623.175C1847.28 621.684 1849.43 620.938 1852.41 620.938C1853.62 620.938 1854.68 621.167 1855.6 621.626C1856.57 622.028 1857.35 622.573 1857.92 623.261C1858.55 623.949 1859.01 624.723 1859.3 625.584C1859.64 626.387 1859.81 627.218 1859.81 628.079C1859.81 630.029 1859.35 631.921 1858.43 633.757C1857.52 635.592 1856.48 637.428 1855.34 639.263C1854.25 641.041 1853.24 642.848 1852.33 644.683C1851.41 646.518 1850.95 648.411 1850.95 650.361C1850.95 651.91 1851.21 653.2 1851.72 654.233C1852.3 655.265 1852.93 656.211 1853.62 657.072C1854.31 657.875 1854.91 658.706 1855.42 659.567C1856 660.37 1856.28 661.345 1856.28 662.492C1856.28 663.409 1855.91 664.241 1855.17 664.987C1854.42 665.675 1853.47 666.363 1852.33 667.052C1851.24 667.682 1850.03 668.342 1848.71 669.03C1847.39 669.719 1846.13 670.464 1844.93 671.267C1843.78 672.07 1842.81 672.959 1842 673.934C1841.26 674.909 1840.83 676.056 1840.71 677.375C1840.65 678.064 1840.77 678.666 1841.06 679.182C1841.34 679.641 1841.72 680.042 1842.17 680.387C1842.69 680.673 1843.24 680.903 1843.81 681.075C1844.38 681.247 1844.96 681.333 1845.53 681.333C1847.65 681.333 1849.54 680.673 1851.21 679.354C1852.87 678.035 1854.28 676.544 1855.42 674.881C1856.8 673.045 1858 670.923 1859.04 668.514C1858.12 671.497 1856.97 674.164 1855.6 676.515C1855.02 677.49 1854.36 678.465 1853.62 679.44C1852.87 680.415 1852.01 681.276 1851.04 682.021C1850.12 682.767 1849.09 683.369 1847.94 683.828C1846.85 684.287 1845.64 684.516 1844.33 684.516C1843.29 684.516 1842.32 684.344 1841.4 684C1840.48 683.713 1839.68 683.283 1838.99 682.71C1838.3 682.136 1837.79 681.419 1837.44 680.559C1837.1 679.641 1836.98 678.637 1837.1 677.548C1837.21 676.171 1837.67 674.967 1838.48 673.934C1839.28 672.844 1840.25 671.869 1841.4 671.009C1842.6 670.149 1843.84 669.346 1845.1 668.6C1846.42 667.854 1847.62 667.138 1848.71 666.449C1849.86 665.761 1850.81 665.044 1851.55 664.298C1852.3 663.553 1852.67 662.75 1852.67 661.89C1852.67 660.857 1852.36 659.968 1851.72 659.223C1851.15 658.42 1850.52 657.617 1849.83 656.814C1849.14 656.011 1848.48 655.093 1847.85 654.061C1847.28 653.028 1846.99 651.766 1846.99 650.275C1846.99 648.669 1847.48 647.006 1848.46 645.285C1849.49 643.507 1850.58 641.758 1851.72 640.037C1852.93 638.259 1854.02 636.567 1854.99 634.961C1856.03 633.298 1856.54 631.807 1856.54 630.488C1856.54 628.767 1856.05 627.505 1855.08 626.702C1854.16 625.899 1853.13 625.498 1851.98 625.498C1849.8 625.498 1848.25 626.186 1847.34 627.562C1846.42 628.882 1845.85 630.631 1845.62 632.81C1845.39 634.933 1845.33 637.284 1845.44 639.865C1845.62 642.446 1845.64 644.998 1845.53 647.522C1845.47 648.669 1845.16 650.39 1844.58 652.684C1844.07 654.921 1843.26 657.416 1842.17 660.169C1841.14 662.922 1839.79 665.732 1838.13 668.6C1836.47 671.468 1834.49 674.078 1832.19 676.429C1829.96 678.781 1827.38 680.731 1824.45 682.279C1821.58 683.771 1818.37 684.516 1814.82 684.516C1811.26 684.516 1808.22 684 1805.7 682.968C1803.23 681.878 1801.22 680.53 1799.67 678.924C1798.13 677.261 1797.01 675.483 1796.32 673.59C1795.57 671.697 1795.2 669.891 1795.2 668.17C1795.2 665.532 1795.63 663.151 1796.49 661.029C1797.35 658.907 1798.44 657.014 1799.76 655.351C1801.08 653.688 1802.51 652.254 1804.06 651.049C1805.67 649.845 1807.22 648.841 1808.71 648.038C1810.2 647.178 1811.52 646.49 1812.67 645.973C1813.87 645.457 1814.7 645.113 1815.16 644.941C1815.85 644.654 1817.08 644.138 1818.86 643.392C1820.7 642.59 1822.53 641.586 1824.37 640.381C1826.26 639.177 1827.92 637.8 1829.36 636.252C1830.79 634.703 1831.51 633.011 1831.51 631.176C1831.51 629.226 1830.93 627.706 1829.79 626.616C1828.64 625.469 1827.18 624.895 1825.4 624.895ZM1861.78 682.882C1862.18 680.415 1862.9 678.035 1863.93 675.741C1864.96 673.389 1866.17 671.181 1867.54 669.116C1868.98 667.052 1870.53 665.187 1872.19 663.524C1873.85 661.804 1875.49 660.341 1877.09 659.136C1878.64 657.989 1880.39 656.9 1882.34 655.867C1884.29 654.835 1886.1 653.86 1887.76 652.942C1889.48 651.967 1890.92 651.078 1892.06 650.275C1893.27 649.415 1893.87 648.612 1893.87 647.866C1893.87 647.063 1893.58 646.518 1893.01 646.232C1892.49 645.945 1891.83 645.801 1891.03 645.801C1890.34 645.801 1889.65 645.887 1888.97 646.059C1888.28 646.232 1887.59 646.432 1886.9 646.662C1886.21 646.834 1885.5 647.006 1884.75 647.178C1884.06 647.35 1883.32 647.436 1882.51 647.436C1881.77 647.436 1881.05 647.149 1880.36 646.576C1879.67 646.002 1879.33 645.228 1879.33 644.253C1879.33 642.819 1879.73 641.385 1880.54 639.951C1881.4 638.517 1882.34 637.169 1883.37 635.908C1884.41 634.588 1885.32 633.384 1886.13 632.294C1886.99 631.147 1887.42 630.201 1887.42 629.455C1887.42 629.111 1887.27 628.796 1886.99 628.509C1886.7 628.165 1886.33 627.993 1885.87 627.993C1884.78 627.993 1883.78 628.308 1882.86 628.939C1882 629.57 1881.19 630.402 1880.45 631.434C1879.7 632.409 1879.02 633.556 1878.38 634.875C1877.81 636.137 1877.29 637.456 1876.84 638.833C1875.75 642.045 1874.89 645.687 1874.25 649.759C1874.03 646.26 1874.4 642.733 1875.37 639.177C1876.41 635.621 1877.78 632.409 1879.5 629.541C1881.22 626.616 1883.14 624.264 1885.27 622.486C1887.39 620.651 1889.45 619.733 1891.46 619.733C1892.26 619.733 1892.92 619.992 1893.44 620.508C1893.96 621.024 1894.21 621.684 1894.21 622.486C1894.21 623.232 1893.93 624.15 1893.35 625.24C1892.84 626.272 1892.15 627.39 1891.29 628.595C1890.49 629.799 1889.6 631.032 1888.62 632.294C1887.7 633.556 1886.82 634.789 1885.96 635.994C1885.15 637.141 1884.46 638.231 1883.89 639.263C1883.37 640.295 1883.12 641.156 1883.12 641.844C1883.12 643.392 1883.92 644.167 1885.53 644.167C1886.1 644.167 1886.73 644.052 1887.42 643.823C1888.16 643.536 1888.94 643.249 1889.74 642.962C1890.54 642.676 1891.4 642.417 1892.32 642.188C1893.24 641.901 1894.19 641.758 1895.16 641.758C1896.48 641.758 1897.54 642.131 1898.34 642.876C1899.2 643.565 1899.63 644.482 1899.63 645.629C1899.63 647.006 1899.26 648.182 1898.52 649.157C1897.77 650.132 1896.65 651.078 1895.16 651.996C1893.73 652.856 1891.95 653.774 1889.83 654.749C1887.7 655.724 1885.27 656.928 1882.51 658.362C1880.11 659.567 1878.04 660.857 1876.32 662.234C1874.66 663.553 1873.28 664.815 1872.19 666.019C1871.16 667.224 1870.38 668.285 1869.87 669.202C1869.41 670.12 1869.18 670.751 1869.18 671.095C1869.18 671.497 1869.32 671.697 1869.61 671.697C1870.07 671.697 1870.67 671.21 1871.42 670.235C1872.22 669.26 1873.22 668.17 1874.43 666.965C1875.63 665.761 1877.04 664.671 1878.64 663.696C1880.31 662.721 1882.23 662.234 1884.41 662.234C1885.44 662.234 1886.3 662.406 1886.99 662.75C1887.68 663.094 1888.22 663.524 1888.62 664.04C1889.02 664.557 1889.31 665.13 1889.48 665.761C1889.65 666.335 1889.74 666.879 1889.74 667.396C1889.74 668.657 1889.57 669.977 1889.22 671.353C1888.94 672.672 1888.71 673.934 1888.54 675.139C1888.36 676.286 1888.39 677.289 1888.62 678.15C1888.85 678.953 1889.51 679.498 1890.6 679.784C1890.72 679.784 1890.8 679.813 1890.86 679.87C1890.92 679.87 1890.97 679.87 1891.03 679.87C1891.89 679.87 1892.78 679.412 1893.7 678.494C1894.67 677.576 1895.65 676.572 1896.62 675.483C1897.66 674.393 1898.72 673.389 1899.81 672.472C1900.9 671.554 1902.04 671.095 1903.25 671.095C1904.51 671.095 1905.54 671.497 1906.35 672.3C1907.15 673.103 1907.92 673.992 1908.67 674.967C1909.41 675.884 1910.22 676.745 1911.08 677.548C1911.99 678.351 1913.14 678.752 1914.52 678.752C1915.32 678.752 1915.98 678.58 1916.5 678.236C1917.07 677.834 1917.53 677.375 1917.87 676.859C1918.28 676.343 1918.56 675.798 1918.73 675.225C1918.91 674.594 1918.99 674.078 1918.99 673.676C1918.99 672.701 1918.76 671.697 1918.3 670.665C1917.9 669.575 1917.27 668.6 1916.41 667.74C1915.55 666.879 1914.49 666.163 1913.23 665.589C1911.97 665.015 1910.47 664.729 1908.75 664.729C1906.92 664.729 1905.2 664.987 1903.59 665.503C1902.04 666.019 1900.7 666.593 1899.55 667.224C1898.17 667.969 1896.91 668.801 1895.76 669.719C1896.85 668.571 1898.09 667.568 1899.46 666.707C1900.67 665.904 1902.1 665.216 1903.76 664.643C1905.48 664.012 1907.41 663.696 1909.53 663.696C1911.59 663.696 1913.51 663.983 1915.29 664.557C1917.13 665.073 1918.73 665.818 1920.11 666.793C1921.49 667.768 1922.55 668.944 1923.29 670.321C1924.1 671.64 1924.5 673.131 1924.5 674.794C1924.5 675.999 1924.3 677.175 1923.9 678.322C1923.49 679.412 1922.92 680.387 1922.18 681.247C1921.49 682.107 1920.63 682.796 1919.59 683.312C1918.62 683.771 1917.5 684 1916.24 684C1914.35 684 1912.8 683.656 1911.59 682.968C1910.45 682.222 1909.44 681.419 1908.58 680.559C1907.72 679.698 1906.89 678.924 1906.09 678.236C1905.34 677.49 1904.42 677.117 1903.33 677.117C1902.19 677.117 1901.13 677.49 1900.15 678.236C1899.23 678.924 1898.29 679.698 1897.31 680.559C1896.34 681.419 1895.28 682.222 1894.13 682.968C1892.98 683.656 1891.6 684 1890 684C1888.16 684 1886.82 683.426 1885.96 682.279C1885.1 681.075 1884.66 679.813 1884.66 678.494C1884.66 677.634 1884.72 676.888 1884.84 676.257C1885.01 675.569 1885.18 674.909 1885.35 674.278C1885.58 673.647 1885.75 673.016 1885.87 672.386C1886.04 671.697 1886.13 670.98 1886.13 670.235C1886.13 668.399 1885.64 667.08 1884.66 666.277C1883.75 665.474 1882.57 665.073 1881.14 665.073C1879.93 665.073 1878.79 665.388 1877.7 666.019C1876.61 666.65 1875.52 667.51 1874.43 668.6C1873.39 669.633 1872.36 670.837 1871.33 672.213C1870.3 673.533 1869.27 674.909 1868.23 676.343C1867.54 677.261 1866.94 678.178 1866.43 679.096C1865.91 679.956 1865.42 680.759 1864.96 681.505C1864.56 682.251 1864.19 682.853 1863.84 683.312C1863.5 683.771 1863.16 684 1862.81 684C1862.41 684 1862.12 683.885 1861.95 683.656C1861.78 683.426 1861.72 683.168 1861.78 682.882ZM1967.87 683.484H1970.79C1972 683.484 1972.94 683.34 1973.63 683.054C1974.38 682.767 1974.89 682.423 1975.18 682.021C1975.52 681.562 1975.7 681.046 1975.7 680.473C1975.75 679.899 1975.72 679.354 1975.61 678.838C1975.32 677.92 1975.04 676.888 1974.75 675.741C1974.52 674.594 1974.18 673.389 1973.72 672.127C1973.03 670.063 1971.94 668.227 1970.45 666.621C1968.96 665.015 1966.83 664.212 1964.08 664.212C1962.36 664.212 1960.75 664.729 1959.26 665.761C1957.83 666.736 1956.45 667.998 1955.13 669.546C1953.81 671.038 1952.52 672.672 1951.26 674.45C1950.06 676.171 1948.77 677.806 1947.39 679.354C1946.07 680.845 1944.67 682.107 1943.17 683.14C1941.68 684.115 1940.02 684.602 1938.18 684.602C1935.95 684.602 1934.08 683.914 1932.59 682.537C1931.1 681.161 1930.36 678.953 1930.36 675.913C1930.36 674.135 1930.61 672.185 1931.13 670.063C1931.7 667.883 1932.42 665.589 1933.28 663.18C1934.14 660.714 1935.12 658.133 1936.21 655.437C1937.35 652.741 1938.47 649.988 1939.56 647.178C1940.08 645.859 1940.68 644.31 1941.37 642.532C1942.06 640.754 1942.77 638.919 1943.52 637.026C1944.26 635.133 1944.98 633.298 1945.67 631.52C1946.42 629.685 1947.05 628.107 1947.56 626.788C1947.85 625.985 1948.05 625.383 1948.16 624.981C1948.28 624.523 1948.34 624.064 1948.34 623.605C1948.34 622.573 1947.76 622.056 1946.62 622.056H1940.25C1940.02 622.056 1939.91 621.97 1939.91 621.798V621.712C1939.91 621.597 1940.02 621.54 1940.25 621.54H1974.66C1974.83 621.54 1974.92 621.597 1974.92 621.712V621.798C1974.92 621.97 1974.83 622.056 1974.66 622.056H1969.5C1968.24 622.056 1967.44 622.458 1967.09 623.261C1966.75 624.064 1966.75 625.067 1967.09 626.272C1969.5 635.219 1971.94 644.109 1974.4 652.942C1976.87 661.775 1979.54 670.608 1982.41 679.44C1982.86 680.874 1983.44 681.907 1984.13 682.537C1984.87 683.168 1986.13 683.484 1987.91 683.484H1990.58C1990.75 683.484 1990.84 683.541 1990.84 683.656V683.828C1990.84 683.943 1990.75 684 1990.58 684H1967.87C1967.75 684 1967.69 683.943 1967.69 683.828V683.656C1967.69 683.541 1967.75 683.484 1967.87 683.484ZM1944.98 648.554H1940.34C1939.88 649.759 1939.3 651.221 1938.61 652.942C1937.93 654.663 1937.24 656.469 1936.55 658.362C1935.92 660.255 1935.35 662.148 1934.83 664.04C1934.37 665.876 1934.14 667.51 1934.14 668.944C1934.14 671.296 1934.8 672.988 1936.12 674.02C1937.44 674.995 1938.9 675.483 1940.51 675.483C1941.6 675.483 1942.69 675.225 1943.78 674.708C1944.87 674.135 1945.99 673.418 1947.13 672.558C1948.28 671.697 1949.46 670.751 1950.66 669.719C1951.86 668.686 1953.1 667.711 1954.36 666.793V657.846C1954.36 654.577 1953.61 652.225 1952.12 650.791C1950.63 649.3 1948.25 648.554 1944.98 648.554ZM1948.34 627.734C1948.16 628.079 1947.82 628.91 1947.3 630.229C1946.85 631.549 1946.24 633.155 1945.5 635.047C1944.75 636.94 1943.95 639.033 1943.09 641.328C1942.23 643.565 1941.37 645.801 1940.51 648.038H1944.98C1948.37 648.038 1950.77 647.293 1952.21 645.801C1953.64 644.31 1954.36 641.873 1954.36 638.489V623.519C1953.15 623.576 1952.01 623.863 1950.92 624.379C1949.89 624.895 1949.02 626.014 1948.34 627.734ZM1969.84 658.276C1969.39 656.67 1968.93 655.064 1968.47 653.458C1968.07 651.795 1967.64 650.16 1967.18 648.554H1964.17C1960.78 648.554 1958.37 649.271 1956.94 650.705C1955.56 652.139 1954.88 654.519 1954.88 657.846V666.449C1956.37 665.474 1957.86 664.671 1959.35 664.04C1960.84 663.352 1962.39 663.008 1963.99 663.008C1965.31 663.008 1966.35 663.151 1967.09 663.438C1967.89 663.668 1968.58 663.782 1969.16 663.782C1969.44 663.782 1969.64 663.754 1969.76 663.696C1970.05 663.524 1970.22 663.237 1970.28 662.836C1970.39 662.377 1970.42 661.89 1970.36 661.373C1970.36 660.857 1970.3 660.312 1970.19 659.739C1970.07 659.165 1969.96 658.678 1969.84 658.276ZM1964.17 648.038H1967.01C1965.86 643.909 1964.8 640.095 1963.82 636.596C1962.85 633.097 1962.04 630.258 1961.41 628.079C1961.01 626.702 1960.32 625.612 1959.35 624.809C1958.37 624.006 1956.88 623.576 1954.88 623.519V638.489C1954.88 641.758 1955.59 644.167 1957.03 645.715C1958.52 647.264 1960.9 648.038 1964.17 648.038ZM2023.95 679.182C2023.95 680.157 2024.33 680.845 2025.07 681.247C2025.82 681.648 2026.62 681.849 2027.48 681.849C2028.8 681.849 2030.12 681.562 2031.44 680.989C2032.82 680.358 2034.16 679.555 2035.48 678.58C2036.8 677.605 2038.09 676.515 2039.35 675.311C2040.62 674.049 2041.79 672.758 2042.88 671.439C2045.52 668.399 2048.04 664.958 2050.45 661.115C2048.22 665.532 2045.81 669.489 2043.23 672.988C2042.14 674.479 2040.93 675.942 2039.61 677.375C2038.29 678.752 2036.89 680.014 2035.4 681.161C2033.96 682.251 2032.47 683.14 2030.92 683.828C2029.37 684.516 2027.77 684.86 2026.1 684.86C2024.15 684.86 2022.63 684.401 2021.55 683.484C2020.46 682.566 2019.91 681.276 2019.91 679.612C2019.91 678.637 2020.37 677.576 2021.29 676.429C2022.26 675.282 2023.32 674.135 2024.47 672.988C2025.62 671.841 2026.65 670.751 2027.57 669.719C2028.49 668.686 2028.94 667.826 2028.94 667.138C2028.83 665.933 2028.34 665.187 2027.48 664.901C2026.68 664.557 2025.79 664.385 2024.81 664.385C2024.07 664.385 2023.07 664.499 2021.8 664.729C2020.6 664.901 2019.28 665.101 2017.85 665.331C2016.47 665.56 2015.06 665.761 2013.63 665.933C2012.25 666.105 2011.02 666.191 2009.93 666.191C2008.44 666.191 2007.26 665.761 2006.4 664.901C2005.54 663.983 2005.11 662.979 2005.11 661.89C2005.11 660.57 2005.63 659.452 2006.66 658.534C2007.75 657.617 2009.13 656.871 2010.79 656.297C2012.51 655.667 2014.4 655.179 2016.47 654.835C2018.53 654.433 2020.57 654.118 2022.58 653.888C2024.59 653.659 2026.42 653.487 2028.08 653.372C2029.75 653.2 2031.04 653.028 2031.96 652.856C2035.51 652.225 2038.61 651.308 2041.25 650.103C2043.94 648.899 2046.18 647.579 2047.96 646.146C2049.74 644.654 2051.05 643.106 2051.91 641.5C2052.83 639.836 2053.29 638.288 2053.29 636.854C2053.29 633.069 2052.2 630.029 2050.02 627.734C2047.9 625.383 2044.83 624.207 2040.82 624.207C2039.04 624.207 2037.32 624.465 2035.65 624.981C2033.99 625.498 2032.33 626.415 2030.66 627.734C2029 629.054 2027.31 630.832 2025.59 633.069C2023.87 635.248 2022 638.03 2020 641.414C2019.25 642.676 2018.33 644.081 2017.24 645.629C2016.21 647.178 2015.04 648.612 2013.72 649.931C2012.4 651.25 2010.96 652.369 2009.41 653.286C2007.92 654.204 2006.35 654.663 2004.68 654.663C2004.4 655.81 2004.08 656.957 2003.74 658.104C2003.51 659.079 2003.25 660.112 2002.96 661.201C2002.73 662.234 2002.5 663.151 2002.27 663.954C2002.16 664.471 2001.96 665.331 2001.67 666.535C2001.38 667.682 2001.04 669.002 2000.64 670.493C2000.24 671.927 1999.72 673.418 1999.09 674.967C1998.52 676.458 1997.86 677.834 1997.11 679.096C1996.37 680.358 1995.53 681.39 1994.62 682.193C1993.7 682.996 1992.7 683.398 1991.61 683.398C1990.69 683.398 1989.89 683.054 1989.2 682.365C1988.51 681.62 1988.16 680.415 1988.16 678.752C1988.16 677.089 1988.59 675.483 1989.45 673.934C1990.32 672.328 1991.29 670.923 1992.38 669.719C1993.58 668.342 1994.96 667.023 1996.51 665.761C1995.48 666.736 1994.59 667.74 1993.84 668.772C1993.15 669.69 1992.52 670.694 1991.95 671.783C1991.38 672.873 1991.09 673.963 1991.09 675.053C1991.09 676.028 1991.26 676.745 1991.61 677.203C1992.01 677.605 1992.47 677.806 1992.98 677.806C1993.61 677.806 1994.19 677.462 1994.7 676.773C1995.28 676.028 1995.76 675.196 1996.17 674.278C1996.62 673.303 1997 672.386 1997.28 671.525C1997.63 670.608 1997.86 669.948 1997.97 669.546C1998.09 669.145 1998.4 668.17 1998.92 666.621C1999.43 665.015 1999.95 663.295 2000.47 661.459C2001.1 659.337 2001.82 657.014 2002.62 654.491C2001.36 654.204 2000.24 653.745 1999.26 653.114C1998.4 652.541 1997.6 651.766 1996.85 650.791C1996.17 649.759 1995.82 648.411 1995.82 646.748C1995.88 644.626 1996.54 642.79 1997.8 641.242C1999.12 639.636 2000.52 638.317 2002.02 637.284C2003.79 636.022 2005.8 634.961 2008.04 634.101C2008.44 631.921 2009.01 630 2009.76 628.337C2010.39 626.845 2011.16 625.526 2012.08 624.379C2013.06 623.175 2014.23 622.573 2015.61 622.573C2016.7 622.573 2017.56 622.888 2018.19 623.519C2018.88 624.15 2019.22 625.096 2019.22 626.358C2019.22 627.849 2018.71 629.197 2017.67 630.402C2016.7 631.549 2015.61 632.524 2014.4 633.327C2012.97 634.244 2011.34 635.076 2009.5 635.822L2005.46 651.91C2006.55 651.91 2007.64 651.594 2008.73 650.963C2009.87 650.275 2010.96 649.415 2012 648.382C2013.09 647.293 2014.09 646.146 2015.01 644.941C2015.98 643.679 2016.84 642.475 2017.59 641.328C2018.39 640.123 2019.05 639.091 2019.57 638.231C2020.08 637.313 2020.46 636.682 2020.68 636.338C2021.03 635.822 2021.66 634.761 2022.58 633.155C2023.55 631.491 2024.87 629.771 2026.54 627.993C2028.2 626.157 2030.23 624.551 2032.64 623.175C2035.05 621.741 2037.86 621.024 2041.07 621.024C2042.8 621.024 2044.57 621.282 2046.41 621.798C2048.24 622.257 2049.91 623.06 2051.4 624.207C2052.95 625.354 2054.21 626.932 2055.18 628.939C2056.22 630.889 2056.73 633.384 2056.73 636.424C2056.73 639.578 2055.93 642.245 2054.32 644.425C2052.72 646.604 2050.71 648.411 2048.3 649.845C2045.89 651.221 2043.28 652.311 2040.47 653.114C2037.66 653.917 2035.05 654.519 2032.64 654.921C2031.73 655.093 2030.49 655.236 2028.94 655.351C2027.4 655.466 2025.73 655.609 2023.95 655.781C2022.18 655.953 2020.37 656.183 2018.53 656.469C2016.76 656.756 2015.15 657.129 2013.72 657.588C2012.28 657.989 2011.11 658.506 2010.19 659.136C2009.27 659.767 2008.81 660.542 2008.81 661.459C2008.81 661.976 2008.96 662.406 2009.24 662.75C2009.59 663.037 2009.99 663.266 2010.45 663.438C2010.91 663.553 2011.39 663.639 2011.91 663.696C2012.43 663.696 2012.88 663.696 2013.29 663.696C2014.15 663.696 2015.21 663.61 2016.47 663.438C2017.79 663.209 2019.14 662.979 2020.51 662.75C2021.95 662.463 2023.38 662.234 2024.81 662.062C2026.25 661.832 2027.57 661.717 2028.77 661.717C2029.86 661.717 2030.81 662.062 2031.61 662.75C2032.47 663.438 2032.9 664.385 2032.9 665.589C2032.9 666.564 2032.44 667.625 2031.53 668.772C2030.61 669.919 2029.57 671.095 2028.43 672.3C2027.34 673.504 2026.31 674.708 2025.33 675.913C2024.41 677.06 2023.95 678.15 2023.95 679.182ZM1998.32 646.576C1998.32 647.723 1998.57 648.669 1999.09 649.415C1999.61 650.103 2000.18 650.619 2000.81 650.963C2001.56 651.365 2002.39 651.652 2003.31 651.824L2007.35 636.768C2005.69 637.456 2004.2 638.288 2002.88 639.263C2001.73 640.066 2000.67 641.098 1999.69 642.36C1998.78 643.565 1998.32 644.97 1998.32 646.576ZM2014.15 626.702C2013.52 626.702 2012.94 627.046 2012.43 627.734C2011.91 628.423 2011.48 629.197 2011.14 630.057C2010.73 631.032 2010.39 632.151 2010.1 633.413C2011.14 632.954 2012.05 632.438 2012.86 631.864C2013.49 631.405 2014.09 630.86 2014.66 630.229C2015.24 629.599 2015.52 628.939 2015.52 628.251C2015.52 627.792 2015.38 627.419 2015.09 627.132C2014.86 626.845 2014.55 626.702 2014.15 626.702Z" fill="white"/>
</svg>
