<svg width="1401" height="291" viewBox="0 0 1401 291" fill="none" xmlns="http://www.w3.org/2000/svg">
<g style="mix-blend-mode:luminosity">
<path d="M47.6275 246.464C11.2614 246.464 0.871094 225.683 0.871094 195.205C0.871094 112.082 103.389 0.55957 189.629 0.55957C227.034 0.55957 235.692 25.4964 235.692 57.36C235.692 144.985 132.828 246.464 47.6275 246.464ZM49.3593 243C119.321 243 205.907 105.848 205.907 28.9598C205.907 11.6426 203.482 4.02301 187.551 4.02301C117.589 4.02301 31.003 148.795 31.003 218.064C31.003 232.264 33.4275 243 49.3593 243Z" fill="#EDEEEA"/>
<path d="M258.621 239.537H296.719L430.754 7.48647H392.657L394.735 4.02301H570.677L528.424 77.1016V7.48647H468.852L408.588 111.39C471.969 115.199 503.833 143.253 503.833 173.039C503.833 219.795 452.921 243 378.11 243H256.543L258.621 239.537ZM464.003 172.693C464.35 156.068 456.038 118.663 406.857 114.853L334.817 239.537H364.949C422.442 239.537 462.964 226.03 464.003 172.693Z" fill="#EDEEEA"/>
<path d="M615.862 246.464C601.315 271.747 577.071 290.45 545.554 290.45C514.383 290.45 494.641 277.635 494.641 246.464C494.641 224.644 513.344 159.532 615.862 159.532V7.48647H577.764L579.842 4.02301H794.229L792.151 7.48647H753.707L615.862 246.464ZM650.496 7.48647V178.58L748.512 7.48647H650.496ZM499.144 246.464C499.144 270.015 510.573 286.986 545.554 286.986C566.335 286.986 594.388 277.635 615.862 238.152V162.995C516.807 164.38 499.144 223.259 499.144 246.464Z" fill="#EDEEEA"/>
<path d="M671.596 239.537H709.694L843.729 7.48647H805.631L807.709 4.02301H1011.01L1008.94 7.48647H970.838L866.588 91.9944V239.537H904.686L902.608 243H669.518L671.596 239.537ZM831.953 114.16L963.218 7.48647H878.364L744.328 239.537H831.953V114.16Z" fill="#EDEEEA"/>
<path d="M871.488 239.537H909.586L1043.62 7.48647H1005.52L1007.6 4.02301H1070.29C1114.28 4.36937 1154.8 17.8768 1154.8 51.8185C1154.8 89.57 1112.89 113.814 1040.85 121.434C1091.07 129.053 1113.24 148.449 1113.24 176.502C1113.24 220.834 1063.71 243 990.977 243H869.41L871.488 239.537ZM1116.7 51.8185C1116.7 27.9208 1108.04 12.3353 1081.03 8.52549L1017.65 117.97H1030.81C1062.67 117.97 1116.7 105.502 1116.7 51.8185ZM1073.41 176.156C1073.75 159.878 1068.56 123.512 1015.91 121.434L947.684 239.537H977.816C1033.23 239.537 1072.37 226.722 1073.41 176.156Z" fill="#EDEEEA"/>
<path d="M1084.23 239.537H1122.33L1256.37 7.48647H1218.27L1220.35 4.02301H1400.1L1357.84 77.1016V7.48647H1294.46L1230.74 117.97H1305.89L1303.81 121.434H1228.66L1160.43 239.537H1235.59L1322.17 169.922L1279.92 243H1082.15L1084.23 239.537Z" fill="#EDEEEA"/>
</g>
</svg>
