<svg width="940" height="570" viewBox="0 0 940 570" fill="none" xmlns="http://www.w3.org/2000/svg">
<path d="M223.223 0.0820312L314.41 570H224.037L208.568 466.601H98.6553L83.1861 570H0.955078L92.142 0.0820312H223.223ZM153.205 101.039L110.054 389.255H196.356L153.205 101.039Z" fill="white"/>
<path d="M533.606 0.0820312L624.793 570H534.42L518.951 466.601H409.038L393.569 570H311.338L402.525 0.0820312H533.606ZM463.587 101.039L420.437 389.255H506.738L463.587 101.039Z" fill="white"/>
<path d="M725.527 348.777H739.55C744.425 348.777 747.981 349.924 750.218 352.219C752.455 354.455 753.573 357.925 753.573 362.629V366.328C753.573 372.58 751.508 376.537 747.379 378.201V378.373C749.673 379.061 751.279 380.466 752.197 382.588C753.172 384.71 753.659 387.549 753.659 391.105V401.688C753.659 403.408 753.717 404.813 753.831 405.903C753.946 406.936 754.233 407.968 754.692 409H745.056C744.712 408.025 744.483 407.108 744.368 406.247C744.253 405.387 744.196 403.838 744.196 401.601V390.589C744.196 387.836 743.737 385.915 742.819 384.825C741.959 383.735 740.439 383.19 738.259 383.19H734.99V409H725.527V348.777ZM738.432 374.587C740.324 374.587 741.729 374.1 742.647 373.125C743.622 372.15 744.11 370.515 744.11 368.221V363.575C744.11 361.395 743.708 359.818 742.905 358.843C742.16 357.868 740.955 357.381 739.292 357.381H734.99V374.587H738.432Z" fill="white"/>
<path d="M757.989 348.777H783.798V357.381H767.452V373.297H780.443V381.9H767.452V400.397H783.798V409H757.989V348.777Z" fill="white"/>
<path d="M800.427 409.861C795.839 409.861 792.34 408.57 789.931 405.989C787.522 403.351 786.318 399.594 786.318 394.719V363.059C786.318 358.184 787.522 354.455 789.931 351.874C792.34 349.236 795.839 347.917 800.427 347.917C805.015 347.917 808.514 349.236 810.923 351.874C813.332 354.455 814.536 358.184 814.536 363.059V368.221H805.589V362.457C805.589 358.499 803.954 356.52 800.685 356.52C797.416 356.52 795.781 358.499 795.781 362.457V395.407C795.781 399.307 797.416 401.257 800.685 401.257C803.954 401.257 805.589 399.307 805.589 395.407V383.621H800.857V375.017H814.536V394.719C814.536 399.594 813.332 403.351 810.923 405.989C808.514 408.57 805.015 409.861 800.427 409.861Z" fill="white"/>
<path d="M832.141 409.861C827.552 409.861 824.054 408.57 821.645 405.989C819.236 403.351 818.031 399.594 818.031 394.719V348.777H827.495V395.407C827.495 397.472 827.896 398.963 828.699 399.881C829.56 400.798 830.764 401.257 832.313 401.257C833.861 401.257 835.037 400.798 835.84 399.881C836.701 398.963 837.131 397.472 837.131 395.407V348.777H846.25V394.719C846.25 399.594 845.046 403.351 842.637 405.989C840.228 408.57 836.729 409.861 832.141 409.861Z" fill="white"/>
<path d="M850.753 348.777H860.217V400.397H875.789V409H850.753V348.777Z" fill="white"/>
<path d="M885.739 348.777H898.558L908.366 409H898.902L897.182 397.042V397.214H886.428L884.707 409H875.932L885.739 348.777ZM896.063 389.041L891.848 359.273H891.676L887.546 389.041H896.063Z" fill="white"/>
<path d="M910.72 348.777H924.744C929.619 348.777 933.175 349.924 935.412 352.219C937.649 354.455 938.767 357.925 938.767 362.629V366.328C938.767 372.58 936.702 376.537 932.573 378.201V378.373C934.867 379.061 936.473 380.466 937.391 382.588C938.366 384.71 938.853 387.549 938.853 391.105V401.688C938.853 403.408 938.91 404.813 939.025 405.903C939.14 406.936 939.427 407.968 939.886 409H930.25C929.906 408.025 929.676 407.108 929.562 406.247C929.447 405.387 929.39 403.838 929.39 401.601V390.589C929.39 387.836 928.931 385.915 928.013 384.825C927.153 383.735 925.633 383.19 923.453 383.19H920.184V409H910.72V348.777ZM923.625 374.587C925.518 374.587 926.923 374.1 927.841 373.125C928.816 372.15 929.304 370.515 929.304 368.221V363.575C929.304 361.395 928.902 359.818 928.099 358.843C927.353 357.868 926.149 357.381 924.486 357.381H920.184V374.587H923.625Z" fill="white"/>
<path d="M739.722 479.777C749.53 479.777 753.745 484.337 753.745 493.629V495.779C753.745 501.974 751.853 505.931 747.637 507.91C752.713 509.889 754.692 514.449 754.692 520.815V525.719C754.692 535.01 749.788 540 740.324 540H725.441V479.777H739.722ZM739.12 512.9H734.904V531.397H740.324C743.507 531.397 745.228 529.934 745.228 525.461V520.213C745.228 514.621 743.421 512.9 739.12 512.9ZM739.464 488.381H734.904V504.297H738.604C742.131 504.297 744.282 502.748 744.282 497.93V494.575C744.282 490.273 742.819 488.381 739.464 488.381Z" fill="white"/>
<path d="M766.844 493.629V526.149C766.844 530.451 768.737 532.085 771.748 532.085C774.759 532.085 776.652 530.451 776.652 526.149V493.629C776.652 489.327 774.759 487.692 771.748 487.692C768.737 487.692 766.844 489.327 766.844 493.629ZM757.38 525.547V494.231C757.38 484.595 762.456 479.089 771.748 479.089C781.039 479.089 786.115 484.595 786.115 494.231V525.547C786.115 535.182 781.039 540.689 771.748 540.689C762.456 540.689 757.38 535.182 757.38 525.547Z" fill="white"/>
<path d="M790.028 540V479.777H799.492V531.397H815.064V540H790.028Z" fill="white"/>
<path d="M816.945 540V479.777H831.915C841.379 479.777 846.024 485.025 846.024 494.661V525.117C846.024 534.752 841.379 540 831.915 540H816.945ZM831.743 488.381H826.409V531.397H831.743C834.754 531.397 836.561 529.848 836.561 525.547V494.231C836.561 489.929 834.754 488.381 831.743 488.381Z" fill="white"/>
</svg>
