<svg width="273" height="270" viewBox="0 0 273 270" fill="none" xmlns="http://www.w3.org/2000/svg">
<path opacity="0.6" d="M17.298 250.88H14.658C14.37 249.84 13.818 249.032 13.002 248.456C12.202 247.864 11.178 247.568 9.93002 247.568C8.36202 247.568 7.08202 248.152 6.09002 249.32C5.11402 250.472 4.62602 252.12 4.62602 254.264C4.62602 256.376 5.10602 258.032 6.06602 259.232C7.02602 260.432 8.30602 261.032 9.90602 261.032C10.498 261.032 11.066 260.968 11.61 260.84C12.154 260.696 12.674 260.472 13.17 260.168C13.682 259.848 14.082 259.4 14.37 258.824C14.674 258.232 14.826 257.536 14.826 256.736V256.352H10.29V254.024H17.37V263H15.234L15.114 260.864C14.042 262.496 12.242 263.312 9.71402 263.312C7.25002 263.312 5.31402 262.488 3.90602 260.84C2.51402 259.176 1.81802 256.984 1.81802 254.264C1.81802 251.56 2.56202 249.392 4.05002 247.76C5.53802 246.112 7.53002 245.288 10.026 245.288C11.914 245.288 13.506 245.784 14.802 246.776C16.114 247.768 16.946 249.136 17.298 250.88ZM23.2405 245.6V248.36H20.7445V245.6H23.2405ZM23.2405 250.088V263H20.7445V250.088H23.2405ZM29.0998 263H26.6038V245.6H29.0998V263ZM34.9592 263H32.4632V245.6H34.9592V263ZM48.3876 254.936C46.9956 254.648 45.8436 254.112 44.9316 253.328C44.0196 252.544 43.5636 251.472 43.5636 250.112C43.5636 249.072 43.8916 248.176 44.5476 247.424C45.2196 246.672 46.0276 246.128 46.9716 245.792C47.9156 245.456 48.8996 245.288 49.9236 245.288C51.6196 245.288 53.0676 245.704 54.2676 246.536C55.4676 247.352 56.2276 248.592 56.5476 250.256H53.9076C53.6516 249.312 53.1396 248.632 52.3716 248.216C51.6196 247.784 50.7636 247.568 49.8036 247.568C48.9876 247.568 48.2036 247.768 47.4516 248.168C46.7156 248.568 46.3476 249.176 46.3476 249.992C46.3476 251.288 47.2276 252.12 48.9876 252.488L51.0516 252.92C51.8676 253.096 52.5716 253.288 53.1636 253.496C53.7556 253.704 54.3556 254 54.9636 254.384C55.5876 254.752 56.0596 255.248 56.3796 255.872C56.7156 256.496 56.8836 257.224 56.8836 258.056C56.8836 259.688 56.2196 260.976 54.8916 261.92C53.5796 262.848 52.0116 263.312 50.1876 263.312C48.1716 263.312 46.5236 262.792 45.2436 261.752C43.9796 260.696 43.2436 259.256 43.0356 257.432H45.7236C46.2356 259.832 47.7556 261.032 50.2836 261.032C51.4196 261.032 52.3396 260.784 53.0436 260.288C53.7636 259.776 54.1236 259.104 54.1236 258.272C54.1236 256.832 52.9236 255.864 50.5236 255.368L48.3876 254.936ZM58.7421 259.52C58.7421 259.008 58.8381 258.552 59.0301 258.152C59.2221 257.736 59.5101 257.376 59.8941 257.072C60.2941 256.768 60.7341 256.504 61.2141 256.28C61.6941 256.056 62.2781 255.864 62.9661 255.704C63.6701 255.544 64.3661 255.416 65.0541 255.32C65.7421 255.208 66.5421 255.104 67.4541 255.008V254.744C67.4541 252.712 66.5261 251.696 64.6701 251.696C63.8061 251.696 63.1341 251.912 62.6541 252.344C62.1741 252.76 61.9101 253.368 61.8621 254.168H59.3421C59.4541 252.824 60.0061 251.76 60.9981 250.976C62.0061 250.176 63.2621 249.776 64.7661 249.776C68.2861 249.776 70.0221 251.6 69.9741 255.248C69.9741 255.328 69.9661 255.816 69.9501 256.712C69.9341 257.592 69.9261 258.136 69.9261 258.344C69.9261 260.296 70.0461 261.848 70.2861 263H67.8861C67.7741 262.408 67.7021 261.84 67.6701 261.296C66.8701 262.64 65.4301 263.312 63.3501 263.312C62.0061 263.312 60.9021 262.968 60.0381 262.28C59.1741 261.592 58.7421 260.672 58.7421 259.52ZM67.5741 256.856C65.4141 257.064 63.8541 257.352 62.8941 257.72C61.9341 258.088 61.4541 258.672 61.4541 259.472C61.4541 260.064 61.6701 260.536 62.1021 260.888C62.5501 261.224 63.1501 261.392 63.9021 261.392C65.0061 261.392 65.8941 261.096 66.5661 260.504C67.2381 259.912 67.5741 259.008 67.5741 257.792V256.856ZM75.553 251.96C76.369 250.552 77.721 249.848 79.609 249.848C82.489 249.848 83.929 251.52 83.929 254.864V263H81.433V255.536C81.433 255.008 81.401 254.552 81.337 254.168C81.273 253.784 81.153 253.416 80.977 253.064C80.817 252.696 80.545 252.416 80.161 252.224C79.793 252.032 79.329 251.936 78.769 251.936C77.713 251.936 76.913 252.296 76.369 253.016C75.825 253.736 75.553 254.752 75.553 256.064V263H73.057V250.088H75.553V251.96ZM94.3931 253.688C94.0571 252.456 93.0811 251.84 91.4651 251.84C90.7931 251.84 90.2011 251.976 89.6891 252.248C89.1771 252.52 88.9211 252.904 88.9211 253.4C88.9211 253.864 89.0651 254.216 89.3531 254.456C89.6411 254.696 90.0971 254.88 90.7211 255.008L92.5691 255.368C94.0091 255.656 95.1291 256.08 95.9291 256.64C96.7451 257.2 97.1531 258.056 97.1531 259.208C97.1531 260.472 96.6331 261.472 95.5931 262.208C94.5691 262.944 93.2811 263.312 91.7291 263.312C90.1451 263.312 88.8571 262.912 87.8651 262.112C86.8891 261.296 86.3211 260.256 86.1611 258.992H88.7051C89.0571 260.544 90.0891 261.32 91.8011 261.32C92.6331 261.32 93.3131 261.16 93.8411 260.84C94.3851 260.504 94.6571 260.056 94.6571 259.496C94.6571 258.52 93.8331 257.872 92.1851 257.552L90.2411 257.168C87.7291 256.672 86.4731 255.448 86.4731 253.496C86.4731 252.392 86.9771 251.504 87.9851 250.832C88.9931 250.16 90.2331 249.824 91.7051 249.824C93.0331 249.824 94.1611 250.168 95.0891 250.856C96.0331 251.528 96.6251 252.472 96.8651 253.688H94.3931Z" fill="black"/>
<path d="M86.9102 42.2383H205.333C242.337 42.2383 272.333 72.2352 272.333 109.238V171H86.9102V42.2383Z" fill="#5552FF"/>
<path d="M0.666016 2H186.089V42.2381H0.666016V2Z" fill="#5552FF"/>
<path d="M85.7598 46.793H99.5293L160.564 184H140.545L122.381 143.57H64.373L47.1855 184H27.166L85.7598 46.793ZM114.373 126.188L92.4004 76.7734L71.9902 126.188H114.373ZM229.607 129.996V168.18C229.607 171.24 230.649 172.77 232.732 172.77C234.881 172.77 238.234 171.174 242.791 167.984V178.824C238.755 181.428 235.499 183.186 233.025 184.098C230.617 185.074 228.077 185.562 225.408 185.562C217.791 185.562 213.299 182.568 211.932 176.578C204.38 182.438 196.339 185.367 187.811 185.367C181.561 185.367 176.352 183.316 172.186 179.215C168.019 175.048 165.936 169.84 165.936 163.59C165.936 157.926 167.954 152.88 171.99 148.453C176.092 143.961 181.886 140.413 189.373 137.809L212.127 129.996V125.211C212.127 114.404 206.723 109 195.916 109C186.215 109 176.775 114.013 167.596 124.039V104.605C174.497 96.4674 184.425 92.3984 197.381 92.3984C207.081 92.3984 214.861 94.9375 220.721 100.016C222.674 101.643 224.432 103.824 225.994 106.559C227.557 109.228 228.533 111.93 228.924 114.664C229.38 117.333 229.607 122.444 229.607 129.996ZM212.127 166.227V139.566L200.213 144.156C194.158 146.565 189.861 149.007 187.322 151.48C184.848 153.889 183.611 156.917 183.611 160.562C183.611 164.273 184.783 167.301 187.127 169.645C189.536 171.988 192.628 173.16 196.404 173.16C202.068 173.16 207.309 170.849 212.127 166.227Z" fill="black"/>
</svg>
