<svg width="1398" height="980" viewBox="0 0 1398 980" fill="none" xmlns="http://www.w3.org/2000/svg">
<path d="M33.7322 26.2322C32.7559 27.2085 32.7559 28.7915 33.7322 29.7678L49.6421 45.6777C50.6184 46.654 52.2014 46.654 53.1777 45.6777C54.154 44.7014 54.154 43.1184 53.1777 42.1421L39.0355 28L53.1777 13.8579C54.154 12.8816 54.154 11.2986 53.1777 10.3223C52.2014 9.34602 50.6184 9.34602 49.6421 10.3223L33.7322 26.2322ZM1365 28L1366.41 30.0656L1373.1 25.5H1365V28ZM35.5 934.5L34.0916 932.434L27.3957 937H35.5V934.5ZM1366.77 936.268C1367.74 935.291 1367.74 933.709 1366.77 932.732L1350.86 916.822C1349.88 915.846 1348.3 915.846 1347.32 916.822C1346.35 917.799 1346.35 919.382 1347.32 920.358L1361.46 934.5L1347.32 948.642C1346.35 949.618 1346.35 951.201 1347.32 952.178C1348.3 953.154 1349.88 953.154 1350.86 952.178L1366.77 936.268ZM35.5 30.5H1365V25.5H35.5V30.5ZM1363.59 25.9344L34.0916 932.434L36.9084 936.566L1366.41 30.0656L1363.59 25.9344ZM35.5 937H1365V932H35.5V937Z" fill="black"/>
</svg>
