<svg width="1664" height="236" viewBox="0 0 1664 236" fill="none" xmlns="http://www.w3.org/2000/svg">
<path d="M0 232.233V3.56781H31.1374L154.065 163.147V3.56781H192.663V232.233H161.85L38.5974 72.0052V232.233H0Z" fill="#EDEEEA"/>
<path d="M283.171 235.476C244.249 235.476 224.788 213.637 224.788 169.958V73.6269H265.332V170.607C265.332 181.851 267.602 190.176 272.143 195.582C276.684 200.987 283.928 203.69 293.874 203.69C304.686 203.69 313.551 200.014 320.471 192.663C327.39 185.094 330.85 175.148 330.85 162.823V73.6269H371.393V232.233H331.823V208.556C321.228 226.503 305.01 235.476 283.171 235.476Z" fill="#EDEEEA"/>
<path d="M400.618 232.233V73.6269H440.188V98.2774C445.594 89.1956 452.837 82.2762 461.919 77.5191C471.217 72.762 481.596 70.3834 493.057 70.3834C530.465 70.3834 549.169 92.1148 549.169 135.577V232.233H508.625V137.523C508.625 125.198 506.247 116.225 501.49 110.603C496.949 104.981 489.813 102.17 480.083 102.17C468.19 102.17 458.676 105.954 451.54 113.522C444.621 120.874 441.161 130.712 441.161 143.037V232.233H400.618Z" fill="#EDEEEA"/>
<path d="M574.78 39.5704V0H620.188V39.5704H574.78ZM577.374 232.233V73.6269H617.918V232.233H577.374Z" fill="#EDEEEA"/>
<path d="M719.725 235.476C677.776 235.476 656.802 214.718 656.802 173.202V104.116H626.313V73.6269H656.802V26.2722H697.345V73.6269H745.348V104.116H697.345V170.931C697.345 181.31 699.615 189.095 704.156 194.284C708.697 199.474 716.049 202.069 726.212 202.069C729.239 202.069 732.374 201.744 735.618 201.096C738.861 200.231 742.213 199.366 745.673 198.501L751.835 228.341C747.943 230.503 742.97 232.233 736.915 233.53C731.077 234.828 725.347 235.476 719.725 235.476Z" fill="#EDEEEA"/>
<path d="M829.324 235.476C812.891 235.476 798.619 232.125 786.51 225.422C774.401 218.718 764.995 209.204 758.292 196.879C751.589 184.338 748.237 169.634 748.237 152.768C748.237 135.902 751.589 121.306 758.292 108.981C764.995 96.6556 774.401 87.1414 786.51 80.4382C798.619 73.7351 812.891 70.3834 829.324 70.3834C845.758 70.3834 860.029 73.7351 872.138 80.4382C884.247 87.1414 893.653 96.6556 900.356 108.981C907.059 121.306 910.411 135.902 910.411 152.768C910.411 169.634 907.059 184.338 900.356 196.879C893.653 209.204 884.247 218.718 872.138 225.422C860.029 232.125 845.758 235.476 829.324 235.476ZM829.324 204.663C841.433 204.663 851.164 200.339 858.515 191.689C865.867 182.824 869.543 169.85 869.543 152.768C869.543 135.469 865.867 122.603 858.515 114.17C851.164 105.521 841.433 101.196 829.324 101.196C817.215 101.196 807.485 105.521 800.133 114.17C792.781 122.603 789.105 135.469 789.105 152.768C789.105 169.85 792.781 182.824 800.133 191.689C807.485 200.339 817.215 204.663 829.324 204.663Z" fill="#EDEEEA"/>
<path d="M1088.06 235.476C1070.11 235.476 1053.46 233.206 1038.11 228.665C1022.76 223.908 1009.78 217.529 999.186 209.529L1011.84 176.769C1022.43 184.338 1034 190.176 1046.54 194.284C1059.3 198.393 1073.14 200.447 1088.06 200.447C1105.14 200.447 1117.57 197.636 1125.36 192.014C1133.14 186.176 1137.03 178.716 1137.03 169.634C1137.03 162.066 1134.22 156.119 1128.6 151.795C1123.19 147.47 1113.79 143.902 1100.38 141.091L1064.7 133.631C1024.05 124.982 1003.73 104.116 1003.73 71.0322C1003.73 56.7608 1007.51 44.3275 1015.08 33.7322C1022.65 23.1368 1033.13 14.92 1046.54 9.08173C1059.95 3.24347 1075.41 0.324344 1092.92 0.324344C1108.49 0.324344 1123.09 2.7029 1136.71 7.46C1150.33 12.0009 1161.68 18.4878 1170.77 26.9209L1158.12 58.0583C1140.17 42.922 1118.33 35.3539 1092.6 35.3539C1077.68 35.3539 1066 38.4893 1057.57 44.76C1049.14 51.0307 1044.92 59.2475 1044.92 69.4104C1044.92 77.1948 1047.51 83.4655 1052.7 88.2226C1057.89 92.7634 1066.76 96.3313 1079.3 98.926L1114.65 106.386C1136.06 110.927 1151.95 118.063 1162.33 127.793C1172.93 137.523 1178.23 150.497 1178.23 166.715C1178.23 180.337 1174.55 192.338 1167.2 202.717C1159.85 213.096 1149.36 221.205 1135.74 227.043C1122.33 232.665 1106.44 235.476 1088.06 235.476Z" fill="#EDEEEA"/>
<path d="M1249.21 235.476C1237.75 235.476 1227.48 233.314 1218.4 228.989C1209.53 224.449 1202.51 218.394 1197.32 210.826C1192.34 203.258 1189.86 194.717 1189.86 185.203C1189.86 173.526 1192.88 164.336 1198.94 157.633C1204.99 150.714 1214.83 145.74 1228.45 142.713C1242.08 139.686 1260.35 138.172 1283.27 138.172H1294.62V131.361C1294.62 120.549 1292.24 112.765 1287.49 108.008C1282.73 103.251 1274.73 100.872 1263.48 100.872C1254.62 100.872 1245.54 102.278 1236.24 105.089C1226.94 107.683 1217.53 111.792 1208.02 117.414L1196.34 89.8443C1201.97 85.9521 1208.56 82.6005 1216.13 79.7895C1223.91 76.7623 1232.02 74.4919 1240.46 72.9782C1249.1 71.2484 1257.21 70.3834 1264.78 70.3834C1287.92 70.3834 1305.11 75.7893 1316.35 86.6008C1327.6 97.1962 1333.22 113.738 1333.22 136.226V232.233H1295.27V206.934C1291.59 215.799 1285.76 222.827 1277.76 228.016C1269.75 232.99 1260.24 235.476 1249.21 235.476ZM1257.65 207.583C1268.24 207.583 1277 203.907 1283.92 196.555C1291.05 189.203 1294.62 179.905 1294.62 168.661V161.525H1283.59C1263.27 161.525 1249.1 163.147 1241.1 166.39C1233.32 169.418 1229.43 175.04 1229.43 183.256C1229.43 190.392 1231.91 196.23 1236.89 200.771C1241.86 205.312 1248.78 207.583 1257.65 207.583Z" fill="#EDEEEA"/>
<path d="M1361.4 232.233V73.6269H1400.97V98.2774C1406.37 89.1956 1413.62 82.2762 1422.7 77.5191C1432 72.762 1442.38 70.3834 1453.84 70.3834C1491.24 70.3834 1509.95 92.1148 1509.95 135.577V232.233H1469.4V137.523C1469.4 125.198 1467.03 116.225 1462.27 110.603C1457.73 104.981 1450.59 102.17 1440.86 102.17C1428.97 102.17 1419.45 105.954 1412.32 113.522C1405.4 120.874 1401.94 130.712 1401.94 143.037V232.233H1361.4Z" fill="#EDEEEA"/>
<path d="M1596.21 235.476C1582.8 235.476 1570.26 233.855 1558.59 230.611C1546.91 227.368 1537.18 222.719 1529.4 216.664L1539.77 190.068C1547.78 195.474 1556.75 199.69 1566.7 202.717C1576.64 205.528 1586.59 206.934 1596.54 206.934C1606.91 206.934 1614.59 205.204 1619.56 201.744C1624.75 198.068 1627.35 193.311 1627.35 187.473C1627.35 178.391 1620.65 172.553 1607.24 169.958L1574.8 163.796C1547.34 158.606 1533.61 144.335 1533.61 120.982C1533.61 110.603 1536.42 101.629 1542.05 94.0608C1547.88 86.4927 1555.88 80.6545 1566.05 76.546C1576.21 72.4376 1587.89 70.3834 1601.08 70.3834C1612.32 70.3834 1623.13 72.0052 1633.51 75.2487C1643.89 78.2759 1652.76 82.9249 1660.11 89.1956L1649.08 115.792C1642.81 110.603 1635.24 106.494 1626.38 103.467C1617.73 100.44 1609.4 98.926 1601.4 98.926C1590.81 98.926 1582.91 100.764 1577.72 104.44C1572.75 108.116 1570.26 112.981 1570.26 119.036C1570.26 128.55 1576.43 134.388 1588.75 136.55L1621.19 142.713C1635.24 145.308 1645.84 150.065 1652.97 156.984C1660.32 163.904 1664 173.202 1664 184.878C1664 200.663 1657.84 213.096 1645.51 222.178C1633.19 231.044 1616.75 235.476 1596.21 235.476Z" fill="#EDEEEA"/>
</svg>
