<svg width="1664" height="217" viewBox="0 0 1664 217" fill="none" xmlns="http://www.w3.org/2000/svg">
<path d="M0 4.45626H120.616C128.934 4.45626 136.757 5.94167 144.085 8.9125C151.611 11.8833 158.048 16.0425 163.396 21.39C168.941 26.5394 173.299 32.7782 176.467 40.1062C179.636 47.2362 181.221 55.0594 181.221 63.5758C181.221 73.0825 179.141 81.7969 174.982 89.7191C170.823 97.4433 164.584 103.682 156.266 108.435C164.584 113.189 170.823 119.427 174.982 127.152C179.141 134.876 181.221 143.491 181.221 152.998C181.221 161.514 179.636 169.436 176.467 176.765C173.299 183.895 168.941 190.133 163.396 195.481C158.048 200.828 151.611 204.987 144.085 207.958C136.757 210.929 128.934 212.414 120.616 212.414H0V4.45626ZM29.7083 93.5812H120.913C129.429 93.5812 136.658 90.8084 142.6 85.2629C148.542 79.7173 151.512 72.5873 151.512 63.8729C151.512 55.1585 148.542 48.0285 142.6 42.4829C136.658 36.9374 129.429 34.1646 120.913 34.1646H29.7083V93.5812ZM29.7083 123.29V182.706H120.913C129.429 182.706 136.658 179.933 142.6 174.388C148.542 168.842 151.512 161.712 151.512 152.998C151.512 144.283 148.542 137.153 142.6 131.608C136.658 126.062 129.429 123.29 120.913 123.29H29.7083Z" fill="#EDEEEA"/>
<path d="M182.869 212.414L212.577 4.45626H272.588L302.296 212.414H272.291L242.582 4.45626L212.874 212.414H182.869Z" fill="#EDEEEA"/>
<path d="M303.953 143.491C304.745 149.829 306.825 155.672 310.192 161.019C313.559 166.169 317.619 170.625 322.372 174.388C327.324 177.953 332.77 180.825 338.712 183.003C344.852 184.984 350.991 185.974 357.131 185.974C361.488 185.974 365.747 185.38 369.906 184.192C374.263 183.003 378.125 181.221 381.492 178.844C385.057 176.269 387.83 173.2 389.81 169.635C391.989 165.871 393.078 161.514 393.078 156.563C393.078 149.631 390.9 143.986 386.542 139.629C382.185 135.074 376.64 131.113 369.906 127.746C363.37 124.181 356.24 120.814 348.516 117.645C340.792 114.278 333.563 110.218 326.829 105.465C320.293 100.711 314.846 94.8686 310.489 87.9366C306.132 81.0047 303.953 72.0922 303.953 61.1992C303.953 51.6925 305.637 43.2751 309.004 35.9471C312.569 28.421 317.322 22.0832 323.264 16.9337C329.205 11.7843 336.137 7.92223 344.059 5.34751C351.982 2.57473 360.399 1.18834 369.312 1.18834C377.63 1.18834 385.75 2.47571 393.672 5.05044C401.595 7.42709 408.923 11.1901 415.657 16.3396V71.0029C414.27 58.9215 409.22 49.2168 400.505 41.8887C391.791 34.5607 381.492 30.8967 369.609 30.8967C365.251 30.8967 360.894 31.4908 356.537 32.6792C352.378 33.6694 348.516 35.3529 344.951 37.7296C341.584 39.9082 338.811 42.78 336.632 46.345C334.652 49.91 333.662 54.2672 333.662 59.4166C333.662 66.7447 335.84 72.7854 340.197 77.5387C344.555 82.2921 350.001 86.5503 356.537 90.3133C363.271 94.0764 370.5 97.7404 378.224 101.305C385.948 104.87 393.078 109.129 399.614 114.08C406.348 118.833 411.893 124.676 416.251 131.608C420.608 138.342 422.787 146.957 422.787 157.454C422.787 166.763 421.004 175.081 417.439 182.409C413.874 189.539 409.121 195.58 403.179 200.531C397.237 205.483 390.305 209.246 382.383 211.82C374.461 214.395 366.143 215.682 357.428 215.682C347.922 215.682 338.514 214.197 329.205 211.226C319.897 208.255 311.479 203.799 303.953 197.857V143.491Z" fill="#EDEEEA"/>
<path d="M440.565 4.45626H547.218V34.1646H470.273V93.5812H547.218V123.29H470.273V182.706H547.218V212.414H440.565V4.45626Z" fill="#EDEEEA"/>
<path d="M622.445 212.414C614.325 212.414 606.6 211.028 599.272 208.255C591.944 205.284 585.508 201.323 579.962 196.372C574.416 191.223 569.96 185.182 566.593 178.25C563.424 171.12 561.84 163.396 561.84 155.077C561.84 143.194 565.504 133.291 572.832 125.369C580.16 117.249 589.964 113.189 602.243 113.189C606.799 113.189 611.651 113.981 616.8 115.565L567.485 73.3796V4.45626H694.636V34.1646H567.485L644.132 100.117C650.272 105.465 656.213 112.099 661.957 120.022C667.899 127.944 672.553 135.569 675.92 142.897L676.811 142.6C673.444 135.47 670.572 127.053 668.196 117.348C666.017 107.643 664.928 98.7307 664.928 90.6104V63.8729H694.636V212.414H622.445ZM591.548 154.78C591.548 163.099 594.618 169.833 600.758 174.982C607.096 180.131 614.226 182.706 622.148 182.706H694.636L639.676 135.767C634.328 131.014 627.891 128.637 620.365 128.637C612.839 128.637 606.105 131.113 600.164 136.064C594.42 140.817 591.548 147.056 591.548 154.78Z" fill="#EDEEEA"/>
<path d="M718.512 4.45626H839.128C847.446 4.45626 855.269 5.94167 862.597 8.9125C870.123 11.8833 876.56 16.0425 881.908 21.39C887.453 26.5394 891.81 32.7782 894.979 40.1062C898.148 47.2362 899.733 55.0594 899.733 63.5758C899.733 73.0825 897.653 81.7969 893.494 89.7191C889.335 97.4433 883.096 103.682 874.778 108.435C883.096 113.189 889.335 119.427 893.494 127.152C897.653 134.876 899.733 143.491 899.733 152.998C899.733 161.514 898.148 169.436 894.979 176.765C891.81 183.895 887.453 190.133 881.908 195.481C876.56 200.828 870.123 204.987 862.597 207.958C855.269 210.929 847.446 212.414 839.128 212.414H718.512V4.45626ZM748.22 93.5812H839.425C847.941 93.5812 855.17 90.8084 861.112 85.2629C867.054 79.7173 870.024 72.5873 870.024 63.8729C870.024 55.1585 867.054 48.0285 861.112 42.4829C855.17 36.9374 847.941 34.1646 839.425 34.1646H748.22V93.5812ZM748.22 123.29V182.706H839.425C847.941 182.706 855.17 179.933 861.112 174.388C867.054 168.842 870.024 161.712 870.024 152.998C870.024 144.283 867.054 137.153 861.112 131.608C855.17 126.062 847.941 123.29 839.425 123.29H748.22Z" fill="#EDEEEA"/>
<path d="M919.136 4.45626H948.844V182.706H1025.79V212.414H919.136V4.45626Z" fill="#EDEEEA"/>
<path d="M1115.09 0C1134.31 0 1152.23 4.45626 1168.87 13.3688C1185.5 22.2813 1198.77 35.1549 1208.68 51.9896C1218.58 35.1549 1231.85 22.2813 1248.49 13.3688C1265.12 4.45626 1283.05 0 1302.26 0C1317.71 0 1332.06 2.77279 1345.33 8.31834C1358.6 13.8639 1369.99 21.489 1379.5 31.1937C1389.2 40.7004 1396.83 52.0886 1402.37 65.3583C1407.92 78.628 1410.69 92.9871 1410.69 108.435C1410.69 123.884 1407.92 138.243 1402.37 151.512C1396.83 164.782 1389.2 176.269 1379.5 185.974C1369.99 195.481 1358.6 203.007 1345.33 208.552C1332.06 214.098 1317.71 216.871 1302.26 216.871C1283.05 216.871 1265.12 212.415 1248.49 203.502C1231.85 194.59 1218.58 181.716 1208.68 164.881C1198.77 181.716 1185.5 194.59 1168.87 203.502C1152.23 212.415 1134.31 216.871 1115.09 216.871C1099.65 216.871 1085.29 214.098 1072.02 208.552C1058.75 203.007 1047.26 195.481 1037.56 185.974C1028.05 176.269 1020.52 164.782 1014.98 151.512C1009.43 138.243 1006.66 123.884 1006.66 108.435C1006.66 92.9871 1009.43 78.628 1014.98 65.3583C1020.52 52.0886 1028.05 40.7004 1037.56 31.1937C1047.26 21.489 1058.75 13.8639 1072.02 8.31834C1085.29 2.77279 1099.65 0 1115.09 0ZM1302.26 187.162C1313.55 187.162 1323.94 185.182 1333.45 181.221C1343.16 177.26 1351.47 171.813 1358.41 164.881C1365.54 157.751 1371.08 149.433 1375.04 139.926C1379 130.221 1380.98 119.725 1380.98 108.435C1380.98 97.1462 1379 86.7483 1375.04 77.2416C1371.08 67.5369 1365.54 59.2186 1358.41 52.2867C1351.47 45.1567 1343.16 39.6111 1333.45 35.65C1323.94 31.6889 1313.55 29.7083 1302.26 29.7083C1290.97 29.7083 1280.47 31.6889 1270.77 35.65C1261.26 39.6111 1252.94 45.1567 1245.81 52.2867C1238.88 59.2186 1233.43 67.5369 1229.47 77.2416C1225.51 86.7483 1223.53 97.1462 1223.53 108.435C1223.53 119.725 1225.51 130.221 1229.47 139.926C1233.43 149.433 1238.88 157.751 1245.81 164.881C1252.94 171.813 1261.26 177.26 1270.77 181.221C1280.47 185.182 1290.97 187.162 1302.26 187.162ZM1115.09 187.162C1126.38 187.162 1136.78 185.182 1146.29 181.221C1155.99 177.26 1164.31 171.813 1171.24 164.881C1178.37 157.751 1183.92 149.433 1187.88 139.926C1191.84 130.221 1193.82 119.725 1193.82 108.435C1193.82 97.1462 1191.84 86.7483 1187.88 77.2416C1183.92 67.5369 1178.37 59.2186 1171.24 52.2867C1164.31 45.1567 1155.99 39.6111 1146.29 35.65C1136.78 31.6889 1126.38 29.7083 1115.09 29.7083C1103.81 29.7083 1093.31 31.6889 1083.6 35.65C1074.1 39.6111 1065.78 45.1567 1058.65 52.2867C1051.72 59.2186 1046.27 67.5369 1042.31 77.2416C1038.35 86.7483 1036.37 97.1462 1036.37 108.435C1036.37 119.725 1038.35 130.221 1042.31 139.926C1046.27 149.433 1051.72 157.751 1058.65 164.881C1065.78 171.813 1074.1 177.26 1083.6 181.221C1093.31 185.182 1103.81 187.162 1115.09 187.162Z" fill="#EDEEEA"/>
<path d="M1453.67 212.414H1423.96V4.45626H1484.56L1543.98 212.414L1603.4 4.45626H1664V212.414H1634.29V4.45626L1574.88 212.414H1513.08L1453.67 4.45626V212.414Z" fill="#EDEEEA"/>
</svg>
