<svg width="1664" height="348" viewBox="0 0 1664 348" fill="none" xmlns="http://www.w3.org/2000/svg">
<path d="M34.0661 67.6717C36.2144 65.8303 40.511 64.9096 46.9559 64.9096C56.163 64.9096 63.5286 68.1321 69.0528 74.577C74.577 81.0219 77.3391 89.3083 77.3391 99.436C77.3391 108.95 73.8098 117.083 66.7511 123.835C59.9992 130.587 51.7129 133.962 41.892 133.962C31.7643 133.962 23.1711 129.973 16.1123 121.993C9.05359 113.707 5.52422 104.04 5.52422 92.9911C5.52422 78.8736 7.97943 66.2907 12.8899 55.2423C18.1072 44.1938 24.5521 35.2937 32.2246 28.5418C40.2041 21.79 49.5646 16.2658 60.3061 11.9691C71.0477 7.36562 81.4823 4.29661 91.6101 2.7621C101.738 0.9207 112.019 0 122.454 0C153.144 0 177.849 8.90013 196.57 26.7004C215.905 44.5007 225.573 66.9045 225.573 93.9118C225.573 124.909 215.598 152.223 195.65 175.854C175.087 200.1 135.65 230.79 77.3391 267.925C67.8252 273.756 63.0682 278.053 63.0682 280.815C63.0682 282.963 74.577 284.037 97.5946 284.037H187.824C198.565 284.037 205.624 280.815 209 274.37C212.683 266.697 218.36 246.442 226.033 213.603H243.987L235.7 340.661H0V322.707L109.564 201.634C141.175 166.954 156.98 128.438 156.98 86.0858C156.98 66.1372 151.149 50.4853 139.487 39.1299C128.131 27.4677 113.86 21.6365 96.6739 21.6365C79.1806 21.6365 64.2958 26.7004 52.0198 36.8282C40.0506 46.649 34.0661 56.9302 34.0661 67.6717Z" fill="#EDEEEA"/>
<path d="M426.369 1.84138H441.56V293.705C441.56 305.06 443.248 312.732 446.624 316.722C450.307 320.712 456.599 322.707 465.499 322.707H511.074V340.661H302.074V322.707H347.649C356.549 322.707 362.687 320.712 366.063 316.722C369.745 312.732 371.587 305.06 371.587 293.705V93.9118C371.587 83.7841 370.666 76.8788 368.825 73.196C366.983 69.2062 363.607 67.2114 358.697 67.2114C358.39 67.2114 357.162 67.3648 355.014 67.6717C352.866 67.9786 351.024 68.1321 349.49 68.1321L305.756 76.4184V58.4647C348.723 49.2577 377.878 40.6644 393.223 32.685C408.568 24.3986 419.617 14.1174 426.369 1.84138Z" fill="#EDEEEA"/>
<path d="M828.389 1.84138C861.228 1.84138 889.156 14.5778 912.173 40.0506L925.063 2.30176H941.636L948.541 133.042H930.127C920.92 87.9272 906.342 57.3905 886.394 41.4317C869.207 27.3142 852.174 20.2555 835.294 20.2555C822.405 20.2555 811.203 22.5572 801.689 27.1608C792.175 31.4574 783.428 39.2834 775.449 50.6387C767.776 61.6872 761.945 77.7995 757.955 98.9757C753.966 119.845 751.971 145.778 751.971 176.775C751.971 226.186 759.643 263.014 774.988 287.26C790.333 311.505 811.816 323.627 839.438 323.627C864.603 323.627 885.933 315.188 903.427 298.308C921.227 281.122 933.349 256.876 939.794 225.573H957.748C951.61 272.222 934.117 304.906 905.268 323.627C881.023 339.586 854.936 347.566 827.008 347.566C783.428 347.566 746.753 332.988 716.984 303.832C687.521 274.37 672.79 233.245 672.79 180.458C672.79 127.057 686.908 83.9375 715.143 51.0991C743.684 18.2606 781.433 1.84138 828.389 1.84138Z" fill="#EDEEEA"/>
<path d="M1184.37 234.78H1039.36V244.447C1039.36 270.84 1044.27 290.942 1054.09 304.753C1063.92 318.257 1077.73 325.009 1095.53 325.009C1125.91 325.009 1148.77 307.515 1164.12 272.528L1179.77 279.434C1173.02 301.837 1160.28 318.871 1141.56 330.533C1123.45 341.888 1104.73 347.566 1085.4 347.566C1050.72 347.566 1023.4 337.131 1003.46 316.262C983.814 295.393 973.993 268.385 973.993 235.24C973.993 203.322 983.968 176.622 1003.92 155.139C1024.17 133.962 1051.49 123.374 1085.86 123.374C1151.54 123.374 1184.37 160.509 1184.37 234.78ZM1084.94 141.328C1056.7 141.328 1041.51 166.341 1039.36 216.365H1105.65C1109.95 216.365 1113.17 214.831 1115.32 211.762C1117.78 208.386 1119 204.703 1119 200.713C1119 181.379 1115.94 166.647 1109.8 156.52C1103.97 146.392 1095.68 141.328 1084.94 141.328Z" fill="#EDEEEA"/>
<path d="M1489.66 322.707V340.661H1359.38V322.707H1371.81C1378.87 322.707 1383.63 321.326 1386.08 318.564C1388.54 315.495 1389.76 309.817 1389.76 301.531V210.841C1389.76 189.972 1387.15 175.548 1381.94 167.568C1376.72 159.589 1367.67 155.599 1354.78 155.599C1340.97 155.599 1327.92 162.965 1315.65 177.696C1303.06 192.12 1296.77 209.614 1296.77 230.176V301.531C1296.77 309.817 1298 315.495 1300.46 318.564C1302.91 321.326 1307.67 322.707 1314.73 322.707H1327.62V340.661H1196.88V322.707H1214.37C1221.43 322.707 1226.18 321.326 1228.64 318.564C1231.1 315.495 1232.32 309.817 1232.32 301.531V168.949C1232.32 160.663 1231.1 155.139 1228.64 152.377C1226.18 149.307 1221.12 147.773 1213.45 147.773H1196.88V129.819L1290.33 124.295L1294.93 179.537C1301.68 162.658 1312.88 149.154 1328.54 139.026C1344.19 128.592 1361.99 123.374 1381.94 123.374C1407.41 123.374 1425.82 130.126 1437.18 143.63C1448.84 157.133 1454.67 177.236 1454.67 203.936V301.531C1454.67 309.817 1455.9 315.495 1458.36 318.564C1460.81 321.326 1465.57 322.707 1472.63 322.707H1489.66Z" fill="#EDEEEA"/>
<path d="M1646.05 263.321H1664C1659.09 319.484 1634.08 347.566 1588.96 347.566C1558.89 347.566 1539.24 340.507 1530.04 326.39C1522.98 314.727 1519.45 299.996 1519.45 282.196V151.456H1485.38V129.819H1495.05C1513.77 129.819 1528.81 123.221 1540.17 110.024C1551.83 96.8274 1560.42 75.3443 1565.95 45.5748H1583.9V129.819H1650.65V151.456H1583.9V281.735C1583.9 308.743 1593.26 322.246 1611.98 322.246C1620.88 322.246 1628.25 317.183 1634.08 307.055C1640.22 296.927 1644.2 282.349 1646.05 263.321Z" fill="#EDEEEA"/>
</svg>
