<svg width="111" height="31" viewBox="0 0 111 31" fill="none" xmlns="http://www.w3.org/2000/svg">
<g style="mix-blend-mode:luminosity">
<path d="M0.548208 23.734H3.47404L13.7676 5.91304H10.8418L11.0014 5.64706H26.6147L26.4551 5.91304H23.5293L15.5231 12.4031V23.734H18.449L18.2894 24H0.388617L0.548208 23.734ZM12.8633 14.1054L22.9441 5.91304H16.4275L6.13389 23.734H12.8633V14.1054ZM36.1018 23.734H39.0277L49.3213 5.91304H46.3955L46.555 5.64706H51.9279C55.2793 5.70025 58.3914 6.89718 58.3914 9.98261C58.3914 13.3074 54.8538 15.9939 48.7361 15.9939H46.422L41.9535 23.734H45.1453L44.9857 24H35.9423L36.1018 23.734ZM55.7315 9.98261C55.7315 7.61534 54.907 6.12583 52.2205 5.93964L46.5816 15.7279H48.8691C51.4226 15.7279 55.7315 14.6639 55.7315 9.98261ZM69.8356 14.265H70.2345C70.2345 23.0957 64.5691 24.266 61.723 24.266C57.9194 24.266 56.8023 22.6701 56.8023 20.3294C56.8023 13.9458 64.6755 5.38107 71.2985 5.38107C73.2934 5.38107 74.4903 5.88644 75.235 6.6312L75.7936 5.64706H76.1926L71.99 12.935L72.2028 12.0307C73.3998 6.92378 72.7082 5.64706 71.1389 5.64706C65.766 5.64706 59.1164 16.7652 59.1164 22.0849C59.1164 23.1488 59.4888 23.9468 61.856 23.9468C64.5159 23.9468 69.8356 22.6169 69.8356 14.265ZM88.8572 23.734H91.783L102.077 5.91304H99.1508L99.3104 5.64706H104.125C107.503 5.67365 110.615 6.71099 110.615 9.31764C110.615 12.2169 107.396 14.0788 101.864 14.6639C105.721 15.2491 107.423 16.7386 107.423 18.8931C107.423 22.2977 103.619 24 98.0337 24H88.6976L88.8572 23.734ZM107.689 9.31764C107.689 7.48235 107.024 6.28542 104.949 5.99284L100.082 14.398H101.092C103.54 14.398 107.689 13.4404 107.689 9.31764ZM104.364 18.8665C104.391 17.6164 103.992 14.8235 99.9488 14.6639L94.7089 23.734H97.0229C101.279 23.734 104.284 22.7499 104.364 18.8665Z" fill="white"/>
</g>
<g style="mix-blend-mode:luminosity">
<path d="M20.0294 14.7765L27.0614 23.767L24.663 15.8453L36.1878 5.30158L20.0294 14.7765ZM27.7143 14.9535L34.7462 23.944L32.3478 16.0224L43.8727 5.47862L27.7143 14.9535Z" fill="white"/>
</g>
<g style="mix-blend-mode:luminosity">
<path d="M94.2771 13.3515L86.5754 4.92768L89.5752 12.6417L78.8942 24.0395L94.2771 13.3515ZM86.6014 13.7652L78.8997 5.34141L81.8994 13.0555L71.2185 24.4532L86.6014 13.7652Z" fill="white"/>
</g>
</svg>
