<svg width="660" height="583" viewBox="0 0 660 583" fill="none" xmlns="http://www.w3.org/2000/svg">
<g clip-path="url(#clip0_3803_13350)">
<g opacity="0.4">
<path d="M466.17 160.568L478.805 122.868H484.347L497.169 160.568H492.003L489.326 152.404H473.685L471.055 160.568H466.17ZM481.435 128.224L475.141 147.88H487.823L481.435 128.224ZM516.704 148.868V147.1C508.954 147.932 504.023 149.232 504.023 153.08C504.023 155.732 505.855 157.5 508.907 157.5C512.9 157.5 516.704 155.472 516.704 148.868ZM507.968 161.244C503.224 161.244 499.279 158.332 499.279 153.184C499.279 146.58 506.042 144.604 516.375 143.356V142.68C516.375 137.532 513.839 135.868 510.645 135.868C507.076 135.868 505.056 137.948 504.868 141.432H500.453C500.829 135.4 505.714 132.02 510.598 132.02C517.596 132.02 520.696 135.66 520.649 143.564L520.602 150.012C520.555 154.744 520.743 157.916 521.26 160.568H516.939C516.798 159.528 516.657 158.384 516.61 156.72C515.06 159.632 512.477 161.244 507.968 161.244Z" fill="#E4E5E0"/>
<path d="M465.936 145.488H523.655V149.128H465.936V145.488Z" fill="#E4E5E0"/>
</g>
<path d="M206.042 160.707L218.676 123.007H224.218L237.04 160.707H231.874L229.197 152.543H213.556L210.926 160.707H206.042ZM221.306 128.363L215.012 148.019H227.694L221.306 128.363ZM237.506 160.707L250.141 123.007H255.683L268.505 160.707H263.339L260.661 152.543H245.021L242.391 160.707H237.506ZM252.771 128.363L246.477 148.019H259.158L252.771 128.363Z" fill="#E4E5E0"/>
<path opacity="0.4" d="M133.413 159.762L146.047 122.062H151.589L164.411 159.762H159.245L156.568 151.598H140.927L138.297 159.762H133.413ZM148.677 127.418L142.383 147.074H155.065L148.677 127.418ZM183.579 148.062V146.294C175.83 147.126 170.898 148.426 170.898 152.274C170.898 154.926 172.73 156.694 175.783 156.694C179.775 156.694 183.579 154.666 183.579 148.062ZM174.843 160.438C170.1 160.438 166.154 157.526 166.154 152.378C166.154 145.774 172.918 143.798 183.251 142.55V141.874C183.251 136.726 180.714 135.062 177.52 135.062C173.951 135.062 171.931 137.142 171.743 140.626H167.328C167.704 134.594 172.589 131.214 177.473 131.214C184.472 131.214 187.572 134.854 187.525 142.758L187.478 149.206C187.431 153.938 187.619 157.11 188.135 159.762H183.814C183.673 158.722 183.532 157.578 183.485 155.914C181.935 158.826 179.352 160.438 174.843 160.438Z" fill="#E4E5E0"/>
<path opacity="0.4" d="M299.175 147.269V145.501C291.425 146.333 286.493 147.633 286.493 151.481C286.493 154.133 288.325 155.901 291.378 155.901C295.37 155.901 299.175 153.873 299.175 147.269ZM290.439 159.645C285.695 159.645 281.75 156.733 281.75 151.585C281.75 144.981 288.513 143.005 298.846 141.757V141.081C298.846 135.933 296.31 134.269 293.116 134.269C289.546 134.269 287.527 136.349 287.339 139.833H282.924C283.299 133.801 288.184 130.421 293.069 130.421C300.067 130.421 303.167 134.061 303.12 141.965L303.073 148.413C303.026 153.145 303.214 156.317 303.73 158.969H299.409C299.268 157.929 299.128 156.785 299.081 155.121C297.531 158.033 294.947 159.645 290.439 159.645ZM325.411 147.269V145.501C317.661 146.333 312.729 147.633 312.729 151.481C312.729 154.133 314.561 155.901 317.614 155.901C321.606 155.901 325.411 153.873 325.411 147.269ZM316.675 159.645C311.931 159.645 307.986 156.733 307.986 151.585C307.986 144.981 314.749 143.005 325.082 141.757V141.081C325.082 135.933 322.546 134.269 319.352 134.269C315.782 134.269 313.763 136.349 313.575 139.833H309.16C309.535 133.801 314.42 130.421 319.305 130.421C326.303 130.421 329.403 134.061 329.356 141.965L329.309 148.413C329.262 153.145 329.45 156.317 329.966 158.969H325.645C325.504 157.929 325.364 156.785 325.317 155.121C323.767 158.033 321.183 159.645 316.675 159.645Z" fill="#E4E5E0"/>
<g opacity="0.4">
<path d="M382.17 158.568L394.805 120.868H400.347L413.169 158.568H408.003L405.326 150.404H389.685L387.055 158.568H382.17ZM397.435 126.224L391.141 145.88H403.823L397.435 126.224ZM432.704 146.868V145.1C424.954 145.932 420.023 147.232 420.023 151.08C420.023 153.732 421.855 155.5 424.907 155.5C428.9 155.5 432.704 153.472 432.704 146.868ZM423.968 159.244C419.224 159.244 415.279 156.332 415.279 151.184C415.279 144.58 422.042 142.604 432.375 141.356V140.68C432.375 135.532 429.839 133.868 426.645 133.868C423.076 133.868 421.056 135.948 420.868 139.432H416.453C416.829 133.4 421.714 130.02 426.598 130.02C433.596 130.02 436.696 133.66 436.649 141.564L436.602 148.012C436.555 152.744 436.743 155.916 437.26 158.568H432.939C432.798 157.528 432.657 156.384 432.61 154.72C431.06 157.632 428.477 159.244 423.968 159.244Z" fill="#E4E5E0"/>
<path d="M381.936 164.288H439.655V167.928H381.936V164.288Z" fill="#E4E5E0"/>
</g>
<path d="M341.873 106.568H126.643C123.473 106.568 120.903 109.413 120.903 112.923V173.213C120.903 176.723 123.473 179.568 126.643 179.568H341.873C345.043 179.568 347.613 176.723 347.613 173.213V112.923C347.613 109.413 345.043 106.568 341.873 106.568Z" stroke="#E4E5E0" stroke-width="2"/>
<path d="M533.357 106.568H367.804C364.634 106.568 362.064 109.413 362.064 112.923V173.213C362.064 176.723 364.634 179.568 367.804 179.568H533.357C536.527 179.568 539.097 176.723 539.097 173.213V112.923C539.097 109.413 536.527 106.568 533.357 106.568Z" stroke="#E4E5E0" stroke-width="2"/>
<path d="M174.346 60.9999H169.308L165.918 49.7923H152.547L148.874 60.9999H144.213L156.925 23.624H162.105L174.346 60.9999ZM153.865 45.6742H164.412L159.28 29.1496L153.865 45.6742Z" fill="#E4E5E0"/>
<path d="M140.14 60.0694H136.85L134.636 52.7505H125.904L123.505 60.0694H120.461L128.763 35.6616H132.145L140.14 60.0694ZM126.765 50.0612H133.652L130.301 39.27L126.765 50.0612Z" fill="#E4E5E0"/>
<path d="M194.968 45.5685L540 45.5684" stroke="#E4E5E0" stroke-width="2"/>
<path d="M437.935 58.0684C444.171 58.0684 449.226 52.4719 449.226 45.5684C449.226 38.6648 444.171 33.0684 437.935 33.0684C431.7 33.0684 426.645 38.6648 426.645 45.5684C426.645 52.4719 431.7 58.0684 437.935 58.0684Z" fill="black" stroke="#E4E5E0" stroke-width="3"/>
</g>
<path d="M30.3868 505.117H59.4175L161.553 311.951H132.522L134.106 309.067H268.439L236.241 369.9V311.951H190.584L142.023 403.921H196.654L195.07 406.804H140.44L88.4483 505.117H144.135L142.551 508H28.8032L30.3868 505.117ZM366.509 398.443L353.841 422.661C346.451 499.927 296.307 510.883 270.179 510.883C232.439 510.883 221.355 493.585 221.355 468.213C221.355 399.019 299.474 306.184 365.189 306.184C384.983 306.184 396.859 311.662 404.249 319.735L409.791 309.067H413.75L372.051 388.064L374.163 378.261C386.038 322.906 379.176 309.067 363.605 309.067C310.295 309.067 244.316 429.58 244.316 487.242C244.316 498.774 248.01 507.423 271.499 507.423C295.515 507.423 341.701 495.603 349.618 424.391H290.501L304.225 398.443H366.509ZM373.071 505.117H402.102L504.238 311.951H469.928L403.95 369.9L436.148 309.067H597.928L565.73 369.9V311.951H533.268L431.133 505.117H460.164L458.58 508H371.488L373.071 505.117ZM561.148 410.27H578.567L597.41 374.462H537.871L659.166 290.911L623.221 358.894H643.332L635.097 374.462H614.987L595.985 410.27H613.403L612.453 412H560.197L561.148 410.27ZM563.998 358.894H605.644L629.714 313.572L563.998 358.894Z" fill="#E4E5E0"/>
<path d="M6.06681 528.46C8.75877 528.46 10.6874 529.931 10.6874 532.63C10.6874 536.317 7.17172 539.565 3.09361 542.791H11.0891V544.656H0.602539V542.857C5.74539 538.709 8.75877 535.724 8.75877 532.893C8.75877 531.225 7.7744 530.128 6.02663 530.128C4.45968 530.128 2.95298 531.072 2.89271 533.705H1.00433C0.944056 530.545 2.95298 528.46 6.06681 528.46ZM17.5146 543.274C19.4431 543.274 20.8092 542.198 20.8092 540.201C20.8092 537.919 18.9409 537.173 16.6105 537.173H16.3092V535.351H16.5502C19.1016 535.351 20.4275 534.583 20.4275 532.718C20.4275 531.028 19.1418 530.128 17.5949 530.128C15.6463 530.128 14.5815 531.401 14.4208 533.222H12.5324C12.7534 530.413 14.5815 528.46 17.635 528.46C20.1462 528.46 22.356 529.579 22.356 532.498C22.356 534.144 21.5123 535.505 19.9855 536.185C22.1552 536.953 22.7579 538.489 22.7579 540.179C22.7579 543.383 20.2869 544.942 17.4944 544.942C14.0391 544.942 12.5324 542.615 12.3114 539.96H14.1998C14.4208 541.913 15.4453 543.274 17.5146 543.274ZM25.0865 532.849H26.9146V534.715C27.5775 533.464 28.7025 532.652 30.4503 532.652C32.9414 532.652 35.0708 534.934 35.0708 538.797C35.0708 542.725 32.9414 544.942 30.4503 544.942C28.7025 544.942 27.5775 544.13 26.9146 542.879V548.497H25.0865V532.849ZM26.8342 538.797C26.8342 541.913 28.361 543.23 29.9882 543.23C31.8565 543.23 33.082 541.628 33.082 538.797C33.082 535.966 31.8565 534.364 29.9882 534.364C28.361 534.364 26.8342 535.68 26.8342 538.797ZM37.6349 532.849V529.887H39.463V532.849H41.512V534.451H39.463V541.452C39.463 542.681 39.5433 542.988 40.5879 542.988H41.512V544.656H40.1862C38.117 544.656 37.6349 544.151 37.6349 541.694V534.451H35.9273V532.849H37.6349Z" fill="#E4E5E0"/>
<path d="M50.5557 264.592V553.734" stroke="#E4E5E0" stroke-width="2.4713"/>
<path d="M596.881 264.592V553.734" stroke="#E4E5E0" stroke-width="2.4713"/>
<path d="M367.135 264.592V553.734" stroke="#E4E5E0" stroke-width="2.4713" stroke-dasharray="4.94 4.94"/>
<path d="M145.769 264.592V553.734" stroke="#E4E5E0" stroke-width="2.4713" stroke-dasharray="4.94 4.94"/>
<path d="M430.634 264.592V553.734" stroke="#E4E5E0" stroke-width="2.4713" stroke-dasharray="4.94 4.94"/>
<path d="M537.349 264.592V553.734" stroke="#E4E5E0" stroke-width="2.4713" stroke-dasharray="4.94 4.94"/>
<path d="M222.497 264.592V553.734" stroke="#E4E5E0" stroke-width="2.4713" stroke-dasharray="4.94 4.94"/>
<path d="M13.229 299.19L621.765 299.19" stroke="#E4E5E0" stroke-width="2.4713"/>
<path d="M13.229 516.665H621.765" stroke="#E4E5E0" stroke-width="2.4713"/>
<defs>
<clipPath id="clip0_3803_13350">
<rect width="420" height="181" fill="white" transform="translate(120)"/>
</clipPath>
</defs>
</svg>
