<svg width="1383" height="697" viewBox="0 0 1383 697" fill="none" xmlns="http://www.w3.org/2000/svg">
<path d="M488 336H1086C1118.03 336 1144 310.033 1144 278V47H640C556.053 47 488 115.053 488 199V336Z" fill="#5552FF"/>
<path d="M178 533H834C834 424.2 745.8 336 637 336H178V533Z" fill="#5552FF"/>
<path d="M61.7612 299.722C55.209 311.111 44.2886 319.535 30.092 319.535C16.0515 319.535 7.15918 313.763 7.15918 299.722C7.15918 289.894 15.5835 260.565 61.7612 260.565V192.078H44.6006L45.5366 190.518H142.104L141.168 192.078H123.852L61.7612 299.722ZM77.3618 192.078V269.145L121.511 192.078H77.3618ZM9.18726 299.722C9.18726 310.331 14.3354 317.975 30.092 317.975C39.4524 317.975 52.0889 313.763 61.7612 295.978V262.125C17.1436 262.749 9.18726 289.27 9.18726 299.722ZM86.71 296.602H103.871L164.245 192.078H147.084L148.02 190.518H255.82L254.884 192.078H237.568L177.193 296.602H194.354L193.418 298.162H85.7739L86.71 296.602ZM152.7 241.844H191.702L220.407 192.078H181.406L152.7 241.844ZM121.031 296.602H160.033L190.766 243.404H151.764L121.031 296.602ZM200.519 296.602H217.679L278.054 192.078H260.893L261.829 190.518H369.629L368.693 192.078H351.376L291.002 296.602H308.163L307.227 298.162H199.583L200.519 296.602ZM295.214 192.078L243.732 281.313L328.756 201.594L334.216 192.078H295.214ZM234.84 296.602H273.841L325.323 207.367L240.3 287.086L234.84 296.602ZM314.476 296.602H331.637L392.011 192.078H374.85L375.786 190.518H404.023C423.836 190.674 442.089 196.758 442.089 212.047C442.089 229.052 423.212 239.972 390.763 243.404C413.384 246.836 423.368 255.573 423.368 268.209C423.368 288.178 401.059 298.162 368.298 298.162H313.54L314.476 296.602ZM424.928 212.047C424.928 201.282 421.028 194.262 408.86 192.546L380.311 241.844H386.239C400.591 241.844 424.928 236.228 424.928 212.047ZM405.428 268.053C405.584 260.721 403.243 244.34 379.531 243.404L348.797 296.602H362.37C387.331 296.602 404.96 290.83 405.428 268.053ZM410.304 296.602H427.465L487.839 192.078H470.678L471.614 190.518H552.581L533.549 223.435V192.078H504.999L476.294 241.844H510.148L509.212 243.404H475.358L444.625 296.602H478.478L517.48 265.245L498.447 298.162H409.368L410.304 296.602ZM507.503 296.602H524.664L585.038 192.078H567.877L568.813 190.518H600.326C619.983 190.83 638.236 197.85 638.236 215.947C638.236 235.448 617.487 251.204 581.606 251.204H568.033L541.824 296.602H560.545L559.609 298.162H506.567L507.503 296.602ZM622.635 215.947C622.635 202.062 617.799 193.326 602.042 192.234L568.969 249.644H582.386C597.362 249.644 622.635 243.404 622.635 215.947ZM705.359 241.064H707.699C707.699 292.858 674.469 299.722 657.777 299.722C635.468 299.722 628.916 290.362 628.916 276.633C628.916 239.192 675.093 188.958 713.939 188.958C725.639 188.958 732.66 191.922 737.028 196.29L740.304 190.518H742.644L717.995 233.264L719.243 227.959C726.263 198.006 722.207 190.518 713.003 190.518C681.49 190.518 642.488 255.729 642.488 286.93C642.488 293.17 644.672 297.85 658.557 297.85C674.157 297.85 705.359 290.05 705.359 241.064ZM699.92 296.602H717.237L779.327 188.958V296.602H796.488L795.552 298.162H698.984L699.92 296.602ZM741.418 258.381H763.727V219.847L741.418 258.381ZM719.421 296.602H763.727V259.941H740.482L719.421 296.602ZM788.838 297.538C805.062 297.538 813.33 286.15 869.961 192.078H834.859L835.795 190.518H937.355L936.419 192.078H919.102L858.728 296.602H875.889L874.953 298.162H823.471L824.407 296.602H841.568L901.942 192.078H872.301C814.891 287.71 806.466 299.722 789.15 299.722C777.293 299.722 773.861 293.17 773.861 287.866C773.861 278.973 779.789 275.229 786.965 275.229C789.93 275.229 793.206 275.697 796.17 277.413L784.937 297.07C786.185 297.538 787.433 297.538 788.838 297.538ZM882.13 296.602H899.291L959.665 192.078H942.505L943.441 190.518H994.922L993.986 192.078H976.826L951.241 236.228C976.67 239.036 989.462 251.672 989.462 265.089C989.462 286.93 967.153 297.85 934.236 298.162H881.194L882.13 296.602ZM971.522 264.933C971.678 257.445 968.401 241.688 950.305 237.944L916.452 296.602H926.904C952.801 296.602 971.054 290.206 971.522 264.933ZM980.087 296.602H997.248L1057.62 192.078H1040.46L1041.4 190.518H1149.2L1148.26 192.078H1130.94L1070.57 296.602H1087.73L1086.8 298.162H979.151L980.087 296.602ZM1046.08 241.844H1085.08L1113.78 192.078H1074.78L1046.08 241.844ZM1014.41 296.602H1053.41L1084.14 243.404H1045.14L1014.41 296.602ZM1093.9 296.602H1111.06L1171.43 192.078H1154.27L1155.21 190.518H1295.77L1294.83 192.078H1277.51L1217.14 296.602H1234.3L1233.37 298.162H1181.88L1182.82 296.602H1199.98L1260.35 192.078H1188.59L1163.01 236.228C1188.44 239.036 1201.23 251.672 1201.23 265.089C1201.23 286.93 1178.92 297.85 1146 298.162H1092.96L1093.9 296.602ZM1183.29 264.933C1183.44 257.445 1180.17 241.688 1162.07 237.944L1128.22 296.602H1138.67C1164.57 296.602 1182.82 290.206 1183.29 264.933ZM1240.61 296.602H1257.77L1318.14 192.078H1300.98L1301.92 190.518H1382.89L1363.85 223.435V192.078H1335.3L1306.6 241.844H1340.45L1339.52 243.404H1305.66L1274.93 296.602H1308.78L1347.78 265.245L1328.75 298.162H1239.67L1240.61 296.602ZM1.85498 475.602H19.0156L79.3899 371.078H62.2293L63.1653 369.518H94.6785C114.335 369.83 132.588 376.85 132.588 394.947C132.588 414.448 111.839 430.204 75.9578 430.204H62.3853L36.1763 475.602H54.897L53.9609 477.162H0.918944L1.85498 475.602ZM116.987 394.947C116.987 381.062 112.151 372.326 96.3945 371.234L63.3213 428.644H76.7378C91.7144 428.644 116.987 422.404 116.987 394.947ZM94.6358 475.602H111.796L172.171 371.078H155.01L155.946 369.518H236.913L217.88 402.435V371.078H189.331L160.626 420.844H194.48L193.544 422.404H159.69L128.957 475.602H162.81L201.812 444.245L182.779 477.162H93.6998L94.6358 475.602ZM191.835 475.602H208.995L269.37 371.078H252.209L253.145 369.518H404.627L403.691 371.078H386.374L326 475.602H343.16L342.224 477.162H190.899L191.835 475.602ZM226.156 475.602H258.917L319.292 371.078H286.53L226.156 475.602ZM276.078 475.602H308.839L369.213 371.078H336.452L276.078 475.602ZM349.364 475.602H366.525L426.899 371.078H409.738L410.674 369.518H491.641L472.609 402.435V371.078H444.06L415.355 420.844H449.208L448.272 422.404H414.419L383.685 475.602H417.539L456.54 444.245L437.507 477.162H348.428L349.364 475.602ZM446.407 475.602H463.568L523.942 371.078H506.781L507.717 369.518H615.517L614.581 371.078H597.265L536.89 475.602H554.051L553.115 477.162H445.471L446.407 475.602ZM512.398 420.844H551.399L580.104 371.078H541.103L512.398 420.844ZM480.728 475.602H519.73L550.463 422.404H511.462L480.728 475.602ZM560.216 475.602H577.376L637.751 371.078H620.59L621.526 369.518H729.326L728.39 371.078H711.073L650.699 475.602H667.86L666.924 477.162H559.28L560.216 475.602ZM654.911 371.078L603.429 460.313L688.453 380.594L693.913 371.078H654.911ZM594.537 475.602H633.539L685.021 386.367L599.997 466.086L594.537 475.602ZM663.253 475.602H680.257L740.944 421.624C732.675 415.852 729.399 408.988 729.399 401.187C729.399 381.219 751.084 369.518 789.774 369.518H833.455L832.519 371.078H815.359L754.984 475.602H772.145L771.209 477.162H662.317L663.253 475.602ZM757.792 426.148L756.544 427.24L701.318 475.602H739.384L799.758 371.078H788.838C758.728 371.078 744.532 386.679 744.532 406.803C744.532 411.484 746.092 421.468 757.792 426.148Z" fill="#161616"/>
<path d="M754.544 92.0455C762.767 92.0455 769.856 86.091 769.856 75.5051C769.856 64.1632 761.916 59.2483 754.449 59.2483C747.361 59.2483 742.729 63.407 741.217 66.8096L732.616 66.3371L737.058 29.4757H776.377V37.5096H744.053L741.69 56.9799C745.376 53.4828 750.763 51.7816 756.434 51.7816C768.438 51.7816 778.929 60.288 778.929 75.4106C778.929 91.1003 767.304 99.2287 754.544 99.2287C738.76 99.2287 731.387 89.21 730.159 78.1516H739.043C740.461 86.8471 744.998 92.0455 754.544 92.0455Z" fill="#161616"/>
</svg>
