<svg width="1664" height="367" viewBox="0 0 1664 367" fill="none" xmlns="http://www.w3.org/2000/svg">
<path d="M0 362.461V3.99957H84.9908C113.821 3.99957 134.902 10.7488 148.234 24.2474C161.733 37.7459 168.482 58.4937 168.482 86.4906V99.2393C168.482 135.902 156.316 159.983 131.986 171.481C159.983 182.314 173.981 207.894 173.981 248.223V277.47C173.981 305.134 166.732 326.215 152.234 340.713C137.735 355.212 116.487 362.461 88.4904 362.461H0ZM56.2439 311.216H88.4904C98.3227 311.216 105.655 308.55 110.488 303.217C115.321 297.884 117.737 288.802 117.737 275.97V244.724C117.737 228.392 114.904 217.06 109.238 210.727C103.739 204.395 94.4898 201.228 81.4912 201.228H56.2439V311.216ZM56.2439 149.984H78.2415C89.407 149.984 97.8227 147.151 103.489 141.485C109.155 135.652 111.988 125.903 111.988 112.238V92.24C111.988 79.4081 109.738 70.0758 105.239 64.243C100.739 58.2437 93.4899 55.244 83.491 55.244H56.2439V149.984Z" fill="#EDEEEA"/>
<path d="M187.5 362.461V3.99957H340.983V55.244H243.744V155.233H320.985V206.228H243.744V311.216H340.983V362.461H187.5Z" fill="#EDEEEA"/>
<path d="M355.502 362.461V3.99957H440.492C469.323 3.99957 490.404 10.7488 503.735 24.2474C517.234 37.7459 523.983 58.4937 523.983 86.4906V99.2393C523.983 135.902 511.818 159.983 487.487 171.481C515.484 182.314 529.483 207.894 529.483 248.223V277.47C529.483 305.134 522.233 326.215 507.735 340.713C493.237 355.212 471.989 362.461 443.992 362.461H355.502ZM411.745 311.216H443.992C453.824 311.216 461.157 308.55 465.99 303.217C470.822 297.884 473.239 288.802 473.239 275.97V244.724C473.239 228.392 470.406 217.06 464.74 210.727C459.24 204.395 449.991 201.228 436.993 201.228H411.745V311.216ZM411.745 149.984H433.743C444.909 149.984 453.324 147.151 458.99 141.485C464.656 135.652 467.489 125.903 467.489 112.238V92.24C467.489 79.4081 465.24 70.0758 460.74 64.243C456.241 58.2437 448.991 55.244 438.993 55.244H411.745V149.984Z" fill="#EDEEEA"/>
<path d="M528.253 362.461L585.497 3.99957H667.988L725.232 362.461H668.488L658.739 297.468H589.496L579.747 362.461H528.253ZM596.745 248.723H650.99L623.993 67.4927L596.745 248.723Z" fill="#EDEEEA"/>
<path d="M722.252 276.47V254.472H775.496V279.97C775.496 303.301 785.245 314.966 804.743 314.966C824.241 314.966 833.99 303.301 833.99 279.97C833.99 269.971 831.907 260.555 827.74 251.723C823.741 242.89 818.491 234.975 811.992 227.975C805.659 220.809 798.577 213.727 790.744 206.728C782.912 199.562 774.996 192.146 766.997 184.48C759.165 176.648 751.999 168.398 745.499 159.733C739.167 151.067 733.917 140.735 729.751 128.736C725.751 116.737 723.752 103.822 723.752 89.9903C723.752 61.16 730.751 38.9958 744.749 23.4975C758.915 7.83249 779.579 0 806.743 0C833.906 0 854.488 7.83249 868.486 23.4975C882.651 38.9958 889.734 61.16 889.734 89.9903V101.489H836.489V86.4906C836.489 62.9932 827.074 51.2445 808.243 51.2445C798.91 51.2445 791.911 54.0775 787.245 59.7435C782.579 65.2429 780.246 74.1586 780.246 86.4906C780.246 96.4896 782.245 105.905 786.245 114.738C790.411 123.57 795.661 131.569 801.993 138.735C808.493 145.734 815.658 152.817 823.491 159.983C831.323 166.982 839.156 174.398 846.988 182.23C854.821 189.896 861.903 198.062 868.236 206.728C874.735 215.393 879.985 225.726 883.984 237.724C888.151 249.723 890.234 262.638 890.234 276.47C890.234 305.3 883.068 327.548 868.736 343.213C854.404 358.711 833.573 366.46 806.243 366.46C778.912 366.46 758.081 358.711 743.75 343.213C729.418 327.548 722.252 305.3 722.252 276.47Z" fill="#EDEEEA"/>
<path d="M960.516 362.461V3.99957H1031.01L1089 218.726V3.99957H1139.25V362.461H1081.25L1011.26 102.989V362.461H960.516Z" fill="#EDEEEA"/>
<path d="M1159.01 362.461V3.99957H1312.5V55.244H1215.26V155.233H1292.5V206.228H1215.26V311.216H1312.5V362.461H1159.01Z" fill="#EDEEEA"/>
<path d="M1324.52 276.97V3.99957H1380.76V280.47C1380.76 303.8 1390.51 315.466 1410.01 315.466C1429.34 315.466 1439 303.8 1439 280.47V3.99957H1492.25V276.97C1492.25 305.8 1485.08 328.048 1470.75 343.713C1456.59 359.211 1435.84 366.96 1408.51 366.96C1381.18 366.96 1360.35 359.211 1346.01 343.713C1331.68 328.048 1324.52 305.8 1324.52 276.97Z" fill="#EDEEEA"/>
<path d="M1510.52 362.461V3.99957H1664V55.244H1566.76V155.233H1644V206.228H1566.76V311.216H1664V362.461H1510.52Z" fill="#EDEEEA"/>
</svg>
